<svg id="Слой_1" data-name="Слой 1" xmlns="http://www.w3.org/2000/svg" viewBox="0 0 32 32"><title>kofe</title><path d="M.45,7.84a.25.25,0,0,1,0,.08v.15a.22.22,0,0,0,0,.08v.08s0,0,0,.08v.07s0,0,0,.08a.76.76,0,0,0,.15.28A.73.73,0,0,0,.89,9L1,9H1L1,9l.07,0h.08l.16,0h.16A2.19,2.19,0,0,0,2.14,9a4.14,4.14,0,0,0,.59-.21,5.6,5.6,0,0,0,.55-.27,9.93,9.93,0,0,0,1-.65,7.49,7.49,0,0,0,.91-.78c.07-.08.14-.15.21-.24l.08-.11.09-.11c.12-.14.25-.27.39-.41s.55-.5.84-.74a9.57,9.57,0,0,1,.89-.64c.3-.2.61-.38.92-.55a7.91,7.91,0,0,1,1-.41,5,5,0,0,1,1-.25h1c.33,0,.66.09,1,.15s.63.15,1,.24l.48.14a3.85,3.85,0,0,0,.53.1,1.89,1.89,0,0,0,.58,0A2.22,2.22,0,0,0,15.6,4l.11,0,0-.11h0L15.6,4a1.15,1.15,0,0,0,.34-.25.86.86,0,0,0,.14-.18.54.54,0,0,0,.05-.11l0,0V3.39a1,1,0,0,0,0-.44,1.17,1.17,0,0,0-.05-.2,1.42,1.42,0,0,0-.08-.18s0,0,0-.08L16,2.41l-.1-.15-.1-.13L15.67,2a4.87,4.87,0,0,0-.49-.43,3.54,3.54,0,0,0-.51-.35,2.26,2.26,0,0,0-.26-.16L14.28,1,14.15.92A8,8,0,0,0,13.06.45L12.51.28A5.47,5.47,0,0,0,12,.15,6,6,0,0,0,10.86,0h-.55L9.78,0l-.25,0H9.4L9.27.1,9,.14l-.25,0A11.66,11.66,0,0,0,2.82,3.06l-.12.11-.11.12-.11.12-.11.12-.21.24L2,4l-.09.12-.09.12-.16.23a.75.75,0,0,1-.07.12L1.5,4.7l-.07.11-.06.11A8.1,8.1,0,0,0,.71,6.49c-.12.44-.18.78-.22,1l0,.34L.53,7.5a7.28,7.28,0,0,1,.3-1,7.63,7.63,0,0,1,.75-1.48A.86.86,0,0,1,1.65,5l.07-.11.08-.11.08-.1L2,4.41l.09-.11.09-.1L2.42,4l.21-.22.1-.1.12-.11L3,3.44l.12-.11.25-.21L3.47,3l.14-.1.14-.11.14-.1L4,2.61l.15-.09a10.58,10.58,0,0,1,1.34-.73A13.13,13.13,0,0,1,7.1,1.2Q7.52,1.07,8,1l.22,0,.23,0L8.88.78l.24,0,.23,0,.12,0H9.6l.24,0,.49,0h.49a7.07,7.07,0,0,1,1,.14l.51.13.5.16a7.93,7.93,0,0,1,1,.43l.12.07.12.06.24.15a4.5,4.5,0,0,1,.45.31,3.52,3.52,0,0,1,.41.36l.08.1a.39.39,0,0,1,.08.1.61.61,0,0,1,.07.1l0,.05,0,0a.69.69,0,0,1,0,.1l0,.09a.28.28,0,0,1,0,.16.24.24,0,0,1-.07.13.74.74,0,0,1-.16.12l-.11,0,0,.11h0l.16-.16a1.74,1.74,0,0,1-.36.13,1.2,1.2,0,0,1-.38,0,4.93,4.93,0,0,1-.9-.2c-.32-.09-.66-.17-1-.23s-.69-.11-1-.14h-.84l-.14,0h-.14a5.77,5.77,0,0,0-1.08.3,9.45,9.45,0,0,0-2,1.08c-.3.22-.6.46-.89.71a9,9,0,0,0-.84.8,4.19,4.19,0,0,0-.39.45l-.09.12-.08.12L5,6.86a7,7,0,0,1-.84.79,9.46,9.46,0,0,1-1,.69c-.17.1-.34.2-.52.29a3.46,3.46,0,0,1-.56.23A2.32,2.32,0,0,1,1.51,9a1.13,1.13,0,0,1-.58-.1.8.8,0,0,1-.39-.44,1.63,1.63,0,0,1-.07-.3.22.22,0,0,1,0-.08S.45,8,.45,8V7.84Z"/><path d="M16.78,5a.9.9,0,0,1,0,.28,2.36,2.36,0,0,1,0,.28,5,5,0,0,1-.16.55,7.89,7.89,0,0,1-.48,1A10.5,10.5,0,0,1,14.87,9a9.82,9.82,0,0,1-1.58,1.45,8.39,8.39,0,0,1-1.8,1,6.32,6.32,0,0,1-1,.31l-.24.06-.12,0h-.12l-.5.08a19,19,0,0,1-2,.18h-1c-.32,0-.63,0-.94,0l-.46,0L5,12l-.23,0-.22,0-.22,0-.22,0-.22,0-.21-.05-.22-.06-.21-.06-.1,0-.1,0-.2-.07-.2-.08-.2-.08-.18-.09a4.06,4.06,0,0,1-.7-.42A3,3,0,0,1,1,10.3L1,10.22l0-.07A.86.86,0,0,1,.81,10a1.09,1.09,0,0,1-.08-.15.65.65,0,0,1,0-.13s0-.06,0-.06h0l.06,0,.13,0a1.83,1.83,0,0,1,.34,0,2.3,2.3,0,0,1,.37,0c.26,0,.51.06.76.1l.75.15.37.08.1,0h.34a2.83,2.83,0,0,0,.83-.13,5,5,0,0,0,.71-.3c.22-.12.43-.24.63-.37l.58-.4c.37-.28.71-.56,1-.83.65-.55,1.24-1.09,1.81-1.57L9.93,6l.2-.16.21-.15a6.54,6.54,0,0,1,.84-.49,8.32,8.32,0,0,1,1.67-.58,9.49,9.49,0,0,1,1.45-.22,4.49,4.49,0,0,1,2,.23l.26.14a1.22,1.22,0,0,1,.16.14l.05.06,0,0,0,0,0,0,0,0,0-.06a.7.7,0,0,0-.15-.15,1,1,0,0,0-.25-.17,4.33,4.33,0,0,0-2-.39,8.33,8.33,0,0,0-1.51.13l-.43.09-.43.11a5.49,5.49,0,0,0-.91.32,6,6,0,0,0-.94.48l-.23.15-.22.17L9.19,6C8.6,6.44,8,7,7.33,7.48c-.33.26-.67.53-1,.78-.18.13-.37.25-.56.37A6.65,6.65,0,0,1,5.16,9a3.61,3.61,0,0,1-.62.24,2.23,2.23,0,0,1-.62.1H3.77l-.07,0H3.62l-.38-.09C3,9.12,2.73,9.06,2.47,9s-.53-.09-.81-.12-.28,0-.43,0a2.63,2.63,0,0,0-.47,0A.92.92,0,0,0,.5,9a.82.82,0,0,0-.29.18.48.48,0,0,0-.12.16A.45.45,0,0,0,0,9.5a.77.77,0,0,0,0,.34,1.34,1.34,0,0,0,.08.26,2.25,2.25,0,0,0,.11.22,1.37,1.37,0,0,0,.13.2l.07.1.07.09a3.8,3.8,0,0,0,.68.65,5.5,5.5,0,0,0,.81.47l.21.1.21.09.22.08.23.08.11,0,.11,0a2,2,0,0,0,.23.06l.23.06.23.05.23.05.23,0,.24,0,.24,0,.24,0,.24,0,.48,0c.32,0,.65,0,1,0h1a19.7,19.7,0,0,0,2-.25l.51-.1h.13l.13,0,.26-.07a7,7,0,0,0,1-.37,8.19,8.19,0,0,0,1.85-1.13,9.53,9.53,0,0,0,1.55-1.56,10.26,10.26,0,0,0,1.2-1.89,6.5,6.5,0,0,0,.42-1.06,2.68,2.68,0,0,0,.13-.56,1,1,0,0,0,0-.29A.69.69,0,0,0,16.78,5Z"/><path d="M4.06,30.67a1.41,1.41,0,0,1-.57-.18A1.75,1.75,0,0,1,3,30.14a2.67,2.67,0,0,1-.38-.44,4.8,4.8,0,0,1-.3-.48,7.26,7.26,0,0,1-.45-1,10.8,10.8,0,0,1-.29-1.08A10.19,10.19,0,0,1,1.46,26c0-.18,0-.36,0-.54V25.2a.53.53,0,0,0,0-.13v-.13a10.27,10.27,0,0,1,.42-2.07c.05-.16.1-.33.16-.49s.11-.33.17-.49.13-.32.19-.47l.1-.24,0-.11L2.61,21c.14-.31.29-.61.44-.9s.33-.58.5-.86l.13-.2.07-.1.06-.1c0-.07.09-.14.14-.2l.14-.2.15-.19L4.38,18l.15-.18.16-.17a1.29,1.29,0,0,1,.16-.17A1.29,1.29,0,0,1,5,17.32l.16-.16L5.34,17a5.12,5.12,0,0,1,.72-.53,12.57,12.57,0,0,1,1.6-.8,6.55,6.55,0,0,1,.82-.27,3.87,3.87,0,0,1,.8-.15l.2,0H10l.09,0a1.42,1.42,0,0,1,.31.11.89.89,0,0,1,.24.18,1,1,0,0,1,.16.25h0v0s0,0,0,0v0a.29.29,0,0,1,0,.09.14.14,0,0,1,0,.06l0,.07a.77.77,0,0,1-.09.13,2.6,2.6,0,0,1-.23.28c-.17.18-.35.36-.54.53l-.57.53a13.66,13.66,0,0,0-1,1.12,7.82,7.82,0,0,0-.81,1.22,6.82,6.82,0,0,0-.51,1.31,5.81,5.81,0,0,0-.18,1.3c0,.21,0,.41,0,.61s0,.38,0,.57c0,.76,0,1.47-.09,2.12a16.91,16.91,0,0,1-.23,1.8A7.17,7.17,0,0,1,6,29.08a3.38,3.38,0,0,1-.58,1,1.78,1.78,0,0,1-.68.49l-.29.08h0a2,2,0,0,0,.31-.05,2.76,2.76,0,0,0,.37-.16,2,2,0,0,0,.39-.3,3.57,3.57,0,0,0,.68-1,8,8,0,0,0,.5-1.46A14,14,0,0,0,7,25.9c.09-.67.15-1.38.19-2.15l0-.58c0-.2,0-.41,0-.6a6.2,6.2,0,0,1,.2-1.18A6.1,6.1,0,0,1,8,20.23a6.31,6.31,0,0,1,.77-1.11,13.93,13.93,0,0,1,1-1.05l.57-.52c.19-.18.39-.36.58-.56l.29-.34.13-.2.06-.12a1.12,1.12,0,0,1,.05-.13,1.46,1.46,0,0,0,0-.31.25.25,0,0,0,0-.08.22.22,0,0,0,0-.08s0-.06,0-.08v0l0,0a1.49,1.49,0,0,0-.28-.44,1.51,1.51,0,0,0-.43-.32,1.75,1.75,0,0,0-.48-.18l-.12,0-.13,0H9.46l-.24,0a5.85,5.85,0,0,0-.93.17,9.18,9.18,0,0,0-.88.31,11.75,11.75,0,0,0-1.69.87,6,6,0,0,0-.8.6l-.18.17-.18.18-.17.18-.17.19A11.26,11.26,0,0,0,3.06,18.9c-.17.3-.34.6-.49.91s-.3.62-.44.94l0,.12L2,21a1.86,1.86,0,0,0-.1.25l-.18.49c-.06.17-.11.34-.16.51s-.11.34-.15.52c-.09.34-.17.7-.23,1.06a10,10,0,0,0-.12,1.1v.42a.66.66,0,0,0,0,.14,5.29,5.29,0,0,0,0,.56,7.23,7.23,0,0,0,.21,1.11,8.63,8.63,0,0,0,.35,1.09,6.68,6.68,0,0,0,.51,1,4.14,4.14,0,0,0,.34.48,2.78,2.78,0,0,0,.41.43,2.06,2.06,0,0,0,.5.33A1.42,1.42,0,0,0,4.06,30.67Z"/><path d="M12.83,16.09a1.2,1.2,0,0,1,.5.23,1.79,1.79,0,0,1,.37.41,3.6,3.6,0,0,1,.47,1,7.6,7.6,0,0,1,.32,2.11,11,11,0,0,1-.15,2.07,14.1,14.1,0,0,1-.45,2,17.29,17.29,0,0,1-.69,1.83,12.62,12.62,0,0,1-.89,1.67A10.53,10.53,0,0,1,9.92,30a7.34,7.34,0,0,1-1.43.88,6.83,6.83,0,0,1-.75.29,3.28,3.28,0,0,1-.75.13,1.49,1.49,0,0,1-.65-.08l-.13-.06-.09-.08a.22.22,0,0,1,0-.06s0,0,0-.06a.54.54,0,0,1,.08-.22,1.53,1.53,0,0,1,.18-.29c.14-.19.3-.39.46-.58a10.71,10.71,0,0,0,.92-1.21,5.06,5.06,0,0,0,.64-1.35c0-.06,0-.12.05-.18s0-.12,0-.18,0-.25.05-.37v-.09h0v0l0-.16c0-.11,0-.21.05-.32s.07-.42.1-.63.07-.41.11-.61c.14-.81.29-1.57.45-2.27s.33-1.36.51-2c.09-.3.18-.59.27-.86l.07-.2a1.46,1.46,0,0,0,.07-.19l.15-.38c.09-.25.2-.47.3-.69s.2-.41.31-.6a4.64,4.64,0,0,1,.64-.91,2.24,2.24,0,0,1,.33-.3,1.24,1.24,0,0,1,.31-.18,1.18,1.18,0,0,1,.48-.11h0a1.28,1.28,0,0,0-.5.07,1.6,1.6,0,0,0-.35.17,1.76,1.76,0,0,0-.36.28,4.59,4.59,0,0,0-.74.89c-.12.18-.24.38-.36.59s-.23.44-.34.69l-.18.37-.08.2-.08.2c-.12.27-.22.56-.33.86-.21.6-.41,1.26-.6,2s-.37,1.47-.54,2.28c0,.2-.08.41-.13.62s-.08.42-.11.63l-.06.33,0,.16v.18a1.54,1.54,0,0,1,0,.31l0,.15c0,.05,0,.1,0,.15a5,5,0,0,1-.58,1.18,14.22,14.22,0,0,1-.89,1.14c-.16.19-.33.39-.5.61l-.12.18a1.18,1.18,0,0,0-.11.19,1.6,1.6,0,0,0-.1.23.88.88,0,0,0,0,.29,1,1,0,0,0,.06.33,1,1,0,0,0,.18.26.92.92,0,0,0,.22.18,1,1,0,0,0,.23.12,1.76,1.76,0,0,0,.49.12A2.57,2.57,0,0,0,7,32a4.46,4.46,0,0,0,.9-.16,6.1,6.1,0,0,0,.84-.33,8.42,8.42,0,0,0,1.55-1,10.82,10.82,0,0,0,2.46-2.86,11.56,11.56,0,0,0,.88-1.76A13.51,13.51,0,0,0,14.31,24a13.73,13.73,0,0,0,.39-2,11.74,11.74,0,0,0,0-2.14,7.7,7.7,0,0,0-.44-2.14,4.27,4.27,0,0,0-.54-1,1.9,1.9,0,0,0-.41-.39A1.08,1.08,0,0,0,12.83,16.09Z"/><path d="M30.54,19.45a1.37,1.37,0,0,1-.2.52,2,2,0,0,1-.34.43,3.62,3.62,0,0,1-.42.36l-.46.29a8.35,8.35,0,0,1-2,.75c-.35.08-.7.14-1,.19l-.26,0-.26,0H25A8.78,8.78,0,0,1,24,22c-.33-.05-.66-.12-1-.2a13.66,13.66,0,0,1-1.87-.62c-.3-.12-.6-.25-.88-.39l-.42-.22-.21-.11-.1-.06-.1-.06a9.51,9.51,0,0,1-1.5-1l-.16-.14L17.63,19l-.15-.15-.08-.08-.07-.08-.07-.08-.07-.08-.13-.17-.12-.16,0-.05,0,0L16.83,18a.35.35,0,0,1,0-.08l-.05-.1-.06-.09-.05-.09-.19-.38a8.2,8.2,0,0,1-.32-.76A5.37,5.37,0,0,1,15.76,15a.28.28,0,0,1,0-.09v-.09a1.09,1.09,0,0,1,0-.18,1.86,1.86,0,0,1,.05-.34l0-.08,0-.08a.21.21,0,0,1,0-.07l0-.07a.74.74,0,0,1,.17-.25.76.76,0,0,1,.23-.17l.06,0,0,0h.1a.59.59,0,0,1,.2.08,1.88,1.88,0,0,1,.26.19,5.9,5.9,0,0,1,.5.5l.51.53a11,11,0,0,0,1.06,1,6.82,6.82,0,0,0,1.18.77,5.54,5.54,0,0,0,2.53.6h1.14c.73,0,1.42,0,2.05,0a16.62,16.62,0,0,1,1.73.17,7.9,7.9,0,0,1,1.39.33,3.37,3.37,0,0,1,.54.24,2.93,2.93,0,0,1,.43.29,1.37,1.37,0,0,1,.44.64.83.83,0,0,1,0,.15l0,.13v.2a.38.38,0,0,1,0,.12v0s0-.06,0-.12v-.21a.62.62,0,0,0,0-.13,1.1,1.1,0,0,0,0-.16,1.71,1.71,0,0,0-.13-.35,1.8,1.8,0,0,0-.28-.37,2.58,2.58,0,0,0-.43-.34,4.68,4.68,0,0,0-.55-.29A7.84,7.84,0,0,0,27.73,17,16,16,0,0,0,26,16.74q-1-.09-2.07-.12H22.76a5,5,0,0,1-1.13-.16A5.62,5.62,0,0,1,20.5,16a7,7,0,0,1-1.05-.72,11,11,0,0,1-1-.95L18,13.79c-.17-.18-.35-.37-.55-.55a2.6,2.6,0,0,0-.36-.27l-.23-.11a1.36,1.36,0,0,0-.29-.06,1,1,0,0,0-.31,0l-.08,0,0,0L16,13a1.68,1.68,0,0,0-.4.3,1.42,1.42,0,0,0-.28.41.47.47,0,0,0-.05.1.61.61,0,0,0,0,.12.76.76,0,0,1,0,.11l0,.11a2.32,2.32,0,0,0-.06.45,1.77,1.77,0,0,0,0,.23v.11a.37.37,0,0,0,0,.11,4.15,4.15,0,0,0,.13.87,6.45,6.45,0,0,0,.27.85,7.17,7.17,0,0,0,.36.81l.2.4.06.1,0,.1.06.09.06.1.07.11,0,.05,0,0a2.43,2.43,0,0,0,.14.2l.15.18.08.09.08.09a.6.6,0,0,0,.08.08l.08.09.18.16.17.16.19.16a10.32,10.32,0,0,0,1.6,1.06l.11.06.11.06.22.11.44.21c.3.14.61.26.93.38a13.48,13.48,0,0,0,2,.57c.33.07.68.13,1,.17a7.6,7.6,0,0,0,1.07,0h.4l.14,0,.27,0,.26,0A9.6,9.6,0,0,0,27.16,22a7.91,7.91,0,0,0,2-.88,4.6,4.6,0,0,0,.45-.32,3,3,0,0,0,.41-.39,1.81,1.81,0,0,0,.32-.46A1.48,1.48,0,0,0,30.54,19.45Z"/><path d="M16.74,11.51a1.13,1.13,0,0,1,.24-.46,2.13,2.13,0,0,1,.39-.35,3.47,3.47,0,0,1,.45-.26,4.19,4.19,0,0,1,.49-.2,7.68,7.68,0,0,1,2-.38,11,11,0,0,1,2,.06,13,13,0,0,1,1.9.35,14.28,14.28,0,0,1,1.78.59,10.46,10.46,0,0,1,1.61.79,9.65,9.65,0,0,1,1.41,1,9.11,9.11,0,0,1,1.14,1.19A6.65,6.65,0,0,1,31,15.18a4.9,4.9,0,0,1,.25.7,3.51,3.51,0,0,1,.11.7,1.76,1.76,0,0,1-.09.62l-.06.12,0,.06,0,.05L31,17.5l-.05,0H30.9l-.1,0-.13-.06-.13-.08A6.7,6.7,0,0,1,30,17a13.87,13.87,0,0,0-1.15-.87,5,5,0,0,0-1.31-.6l-.35-.07-.35-.05h-.31l-.31,0L25,15.14c-.78-.11-1.51-.24-2.19-.37s-1.31-.28-1.89-.43l-.42-.11-.21-.06-.19-.06L19.73,14l-.36-.13-.18-.07L19,13.73l-.16-.07-.16-.07a6.27,6.27,0,0,1-.58-.28,4.53,4.53,0,0,1-.87-.59,2,2,0,0,1-.28-.31,1.81,1.81,0,0,1-.17-.29,1.28,1.28,0,0,1-.08-.45s0-.05,0-.07v0a.07.07,0,0,0,0,0,.15.15,0,0,0,0,.07.56.56,0,0,0,0,.19,1,1,0,0,0,0,.28,1.3,1.3,0,0,0,.15.32,2.63,2.63,0,0,0,.26.35,5,5,0,0,0,.86.69,6.29,6.29,0,0,0,.58.32l.15.08.17.08.16.08.18.08.36.15.39.15.2.08.2.07.43.14c.58.18,1.21.36,1.9.52s1.41.31,2.19.45l1.21.2.32,0,.16,0h.16l.29,0,.29.07a4,4,0,0,1,1.12.54L29,17l.55.44a5,5,0,0,0,.6.47l.18.11.22.1a1,1,0,0,0,.26.06.81.81,0,0,0,.31,0,.8.8,0,0,0,.28-.13.91.91,0,0,0,.2-.19s0,0,0,0l0-.05.07-.11a1.47,1.47,0,0,0,.1-.22,2.08,2.08,0,0,0,.14-.88,4.29,4.29,0,0,0-.43-1.65,6.36,6.36,0,0,0-.91-1.46,8.76,8.76,0,0,0-1.25-1.26,10.67,10.67,0,0,0-1.52-1,12.19,12.19,0,0,0-1.72-.78,14.9,14.9,0,0,0-1.86-.53,12.8,12.8,0,0,0-2-.28,11.74,11.74,0,0,0-2.05,0,7.64,7.64,0,0,0-2,.5,3.58,3.58,0,0,0-.48.24,2.66,2.66,0,0,0-.45.29A2,2,0,0,0,17,11,1.22,1.22,0,0,0,16.74,11.51Z"/></svg>