<svg id="Слой_1" data-name="Слой 1" xmlns="http://www.w3.org/2000/svg" viewBox="0 0 32 32"><defs><style>.cls-1{fill:none;stroke:#000;stroke-miterlimit:10;}</style></defs><title>himiya arassalayjylar</title><path class="cls-1" d="M27.93,11.92H4.07a.55.55,0,0,0-.57.54v1.16a.55.55,0,0,0,.57.54H27.93a.55.55,0,0,0,.57-.54V12.46A.55.55,0,0,0,27.93,11.92Z"/><path class="cls-1" d="M7.84,30.67a1,1,0,0,0,1,.83H23.26a1,1,0,0,0,1-.83l2.55-16.51H5.29Z"/><line class="cls-1" x1="23.97" y1="3.74" x2="25.93" y2="7.07"/><path class="cls-1" d="M14.69,7l-2-2.28a.78.78,0,0,1-.21-.54V1.33A.85.85,0,0,0,11.57.5H9.92a.85.85,0,0,0-.87.83V4.2a.82.82,0,0,1-.22.55L6.78,7a.83.83,0,0,0-.22.55v4.41H14.9V7.57A.78.78,0,0,0,14.69,7ZM12.5,4.48h0ZM6.77,7.23h0Z"/><path class="cls-1" d="M27.18.52,20.72.69a4.56,4.56,0,0,0-3.53,3.47.54.54,0,0,0,.55.65h1.14l3.45,0-3.45,0V7a.53.53,0,0,1-.16.38l-1.48,1.4a.55.55,0,0,0-.16.38v1.9a.55.55,0,0,0,.56.54h7.77l-.12-1.55a.51.51,0,0,0-.17-.34L22.59,7.46a.54.54,0,0,1-.17-.39V5.19a.55.55,0,0,1,.2-.42l2.59-2h.17v0H27.2a.55.55,0,0,0,.56-.53V1.05A.55.55,0,0,0,27.18.52Zm-8.3,6.55h0Z"/></svg>