<svg id="Слой_1" data-name="Слой 1" xmlns="http://www.w3.org/2000/svg" viewBox="0 0 25 25">
  <g>
    <path d="M0,0V25H25V0ZM23.6571,23.6571H1.343V1.343H23.6571Z"/>
    <path d="M7.60331,10.47524H8.1612a.42366.42366,0,0,0,.4338-.43393V6.09508a.42366.42366,0,0,0-.4338-.43393H7.60331a.44118.44118,0,0,0-.45449.43393v3.94623A.44118.44118,0,0,0,7.60331,10.47524Z"/>
    <path d="M16.405,6.09508v3.94623a.42369.42369,0,0,0,.43393.43393h.55776a.4413.4413,0,0,0,.45462-.43393V6.09508a.4413.4413,0,0,0-.45462-.43393h-.55776A.42369.42369,0,0,0,16.405,6.09508Z"/>
    <path d="M11.77691,14.95869v3.94636a.42356.42356,0,0,0,.4338.4338h.5579a.44119.44119,0,0,0,.45461-.4338V14.95869a.4586.4586,0,0,0-.45461-.45449h-.5579A.44108.44108,0,0,0,11.77691,14.95869Z"/>
    <circle cx="3.20246" cy="2.97522" r="0.51653"/>
    <path d="M4.85533,3.49175a.51148.51148,0,0,0,.51653-.51653.5063.5063,0,1,0-1.01238,0A.50734.50734,0,0,0,4.85533,3.49175Z"/>
    <circle cx="6.52888" cy="2.97522" r="0.51653"/>
    <circle cx="8.18188" cy="2.97522" r="0.51653"/>
    <circle cx="9.85543" cy="2.97522" r="0.51653"/>
    <circle cx="11.5083" cy="2.97522" r="0.51653"/>
    <path d="M13.16117,3.49175a.51148.51148,0,0,0,.51653-.51653.5063.5063,0,1,0-1.01238,0A.50734.50734,0,0,0,13.16117,3.49175Z"/>
    <circle cx="14.83473" cy="2.97522" r="0.51653"/>
    <circle cx="16.4876" cy="2.97522" r="0.51653"/>
    <circle cx="18.16115" cy="2.97522" r="0.51653"/>
    <circle cx="19.81415" cy="2.97522" r="0.51653"/>
    <circle cx="4.86441" cy="22.0152" r="0.51363"/>
    <circle cx="6.52573" cy="22.0152" r="0.51363"/>
    <path d="M8.18718,21.50157a.51363.51363,0,1,0,.5135.51363A.51354.51354,0,0,0,8.18718,21.50157Z"/>
    <circle cx="9.8485" cy="22.0152" r="0.51363"/>
    <circle cx="11.50982" cy="22.0152" r="0.51363"/>
    <circle cx="13.17114" cy="22.0152" r="0.51363"/>
    <path d="M14.83246,21.50157a.51363.51363,0,1,0,.51363.51363A.51351.51351,0,0,0,14.83246,21.50157Z"/>
    <circle cx="16.4939" cy="22.0152" r="0.51363"/>
    <circle cx="18.15522" cy="22.0152" r="0.51363"/>
    <circle cx="19.81654" cy="22.0152" r="0.51363"/>
    <path d="M21.4877,3.49175a.50742.50742,0,0,0,.49585-.51653.5063.5063,0,1,0-1.01238,0A.51148.51148,0,0,0,21.4877,3.49175Z"/>
    <circle cx="3.20246" cy="4.56617" r="0.51653"/>
    <path d="M21.4877,5.0827a.5075.5075,0,0,0,.49585-.51653.5063.5063,0,1,0-1.01238,0A.51155.51155,0,0,0,21.4877,5.0827Z"/>
    <path d="M3.20246,6.67353A.5063.5063,0,1,0,2.68593,6.157.51148.51148,0,0,0,3.20246,6.67353Z"/>
    <path d="M21.4877,6.67353a.5063.5063,0,1,0-.51653-.51653A.50742.50742,0,0,0,21.4877,6.67353Z"/>
    <path d="M3.20246,8.26448A.5063.5063,0,1,0,2.68593,7.748.51147.51147,0,0,0,3.20246,8.26448Z"/>
    <path d="M21.4877,8.26448a.5063.5063,0,1,0-.51653-.51653A.50741.50741,0,0,0,21.4877,8.26448Z"/>
    <path d="M3.20246,9.85543a.5063.5063,0,1,0-.51653-.49585A.50741.50741,0,0,0,3.20246,9.85543Z"/>
    <path d="M21.4877,9.85543a.5063.5063,0,0,0,0-1.01238.5063.5063,0,1,0,0,1.01238Z"/>
    <path d="M3.20246,11.44626a.5063.5063,0,1,0-.51653-.49585A.50733.50733,0,0,0,3.20246,11.44626Z"/>
    <path d="M21.4877,11.44626a.5063.5063,0,0,0,0-1.01238.5063.5063,0,1,0,0,1.01238Z"/>
    <circle cx="3.20246" cy="12.54136" r="0.51653"/>
    <path d="M21.4877,13.05789a.52124.52124,0,0,0,.49585-.51653.5063.5063,0,1,0-1.01238,0A.52477.52477,0,0,0,21.4877,13.05789Z"/>
    <circle cx="3.20246" cy="14.13232" r="0.51653"/>
    <path d="M21.4877,14.64885a.52125.52125,0,0,0,.49585-.51653.5063.5063,0,1,0-1.01238,0A.52478.52478,0,0,0,21.4877,14.64885Z"/>
    <circle cx="3.20246" cy="15.72314" r="0.51653"/>
    <path d="M21.4877,16.23967a.51653.51653,0,1,0-.51653-.51653A.50741.50741,0,0,0,21.4877,16.23967Z"/>
    <circle cx="3.20246" cy="17.31409" r="0.51653"/>
    <path d="M21.4877,17.83062a.51653.51653,0,1,0-.51653-.51653A.50741.50741,0,0,0,21.4877,17.83062Z"/>
    <circle cx="3.20246" cy="18.90505" r="0.51653"/>
    <path d="M21.4877,19.42158a.51653.51653,0,1,0-.51653-.51653A.5075.5075,0,0,0,21.4877,19.42158Z"/>
    <circle cx="3.20246" cy="20.49587" r="0.51653"/>
    <path d="M21.4877,21.0124a.51653.51653,0,1,0-.51653-.51653A.50741.50741,0,0,0,21.4877,21.0124Z"/>
    <circle cx="3.20309" cy="22.0152" r="0.51363"/>
    <path d="M21.47786,22.521a.51363.51363,0,1,0-.5135-.51363A.51362.51362,0,0,0,21.47786,22.521Z"/>
  </g>
</svg>
