<?xml version="1.0" encoding="utf-8"?>
<!-- Generator: Adobe Illustrator 22.1.0, SVG Export Plug-In . SVG Version: 6.00 Build 0)  -->
<svg version="1.1" id="Слой_1" xmlns="http://www.w3.org/2000/svg" xmlns:xlink="http://www.w3.org/1999/xlink" x="0px" y="0px"
	 viewBox="0 0 32 32" style="enable-background:new 0 0 32 32;" xml:space="preserve">
<path d="M29.5,17.2h-9.9c-1.4,0-2.5,1.1-2.5,2.5v9.9c0,1.4,1.1,2.5,2.5,2.5h9.9c1.4,0,2.5-1.1,2.5-2.5c0,0,0,0,0,0v-9.9
	C32,18.3,30.9,17.2,29.5,17.2z M31,28.8c0,1.2-0.9,2.1-2.1,2.1h-8.5c-1.2,0-2.1-0.9-2.1-2.1c0,0,0,0,0,0v-8.5c0-1.2,0.9-2.1,2.1-2.1
	h8.5c1.2,0,2.1,0.9,2.1,2.1c0,0,0,0,0,0L31,28.8z"/>
<path d="M12.3,17.2H2.4c-1.3,0-2.4,1.1-2.4,2.5v9.9C0,30.9,1.1,32,2.5,32h9.9c1.4,0,2.5-1.1,2.5-2.5v-9.9
	C14.8,18.3,13.7,17.2,12.3,17.2z M13.7,28.8c0,1.2-0.9,2.1-2.1,2.1H3.1C2,30.9,1,30,1,28.8l0,0v-8.5c0-1.2,0.9-2.1,2.1-2.1h8.5
	c1.2,0,2.1,0.9,2.1,2.1c0,0,0,0,0,0V28.8z"/>
<path d="M12.3,0H2.4C1.1,0,0,1.1,0,2.5v9.9c0,1.4,1.1,2.5,2.5,2.5h9.9c1.4,0,2.5-1.1,2.5-2.5V2.5C14.8,1.1,13.7,0,12.3,0
	C12.3,0,12.3,0,12.3,0z M13.7,11.6c0,1.2-0.9,2.1-2.1,2.1H3.1C2,13.7,1,12.8,1,11.6V3.2C1,2,2,1.1,3.1,1.1h8.5
	c1.2,0,2.1,0.9,2.1,2.1V11.6z"/>
<path d="M29.5,0h-9.9c-1.4,0-2.5,1.1-2.5,2.5v9.9c0,1.4,1.1,2.5,2.5,2.5h9.9c1.4,0,2.5-1.1,2.5-2.5V2.5C32,1.1,30.9,0,29.5,0z
	 M31,11.6c0,1.2-0.9,2.1-2.1,2.1l0,0h-8.5c-1.2,0-2.1-0.9-2.1-2.1l0,0V3.2c0-1.2,0.9-2.1,2.1-2.1l0,0h8.5C30,1.1,31,2,31,3.2l0,0
	L31,11.6z"/>
</svg>
