<svg id="Raw" xmlns="http://www.w3.org/2000/svg" viewBox="0 0 256 256">
  <g>
    <path d="M202,189.13V230a12.42,12.42,0,0,1-12.42,12.42H66.38A12.42,12.42,0,0,1,54,230V112.69a2.82,2.82,0,0,1,4.34-2.37l14.19,9.09a2.81,2.81,0,0,0,3.15-.08l14.91-10.61a2.81,2.81,0,0,1,3.28,0l14.3,10.32a2.81,2.81,0,0,0,3.22,0L127,108.64a2.8,2.8,0,0,1,3.2,0l15.71,11.23a2.82,2.82,0,0,0,3.38-.07l14.08-11a2.82,2.82,0,0,1,3.35-.09l15.51,10.79a2.83,2.83,0,0,0,3.26,0l12.14-8.74a2.82,2.82,0,0,1,4.46,2.29v76.08" fill="none" stroke="#000" stroke-miterlimit="10" stroke-width="6"/>
    <path d="M146.82,78.2a.66.66,0,0,1,.12-.17c.24-.21.74,0,1,0q1.4,0,2.79.09a62.26,62.26,0,0,1,8.71,1,4.16,4.16,0,0,0,1.45.12c1.06-.15,1.8-1.31,2.13-2.24.72-2-1.31-3.43-3-4-1-.32-2.09-.57-3.14-.79a61.93,61.93,0,0,0-12.59-1.17h-.94c-.15,0-.87.11-1,0s-5.31-5.25-6.89-6a4.11,4.11,0,0,0-5.17,2.09s-1.66,3,3.37,4.88c0,0-11.34,3.09-14.58,6.6,0,0-11.84-11.56,4.17-22.18,0,0,2-.65,1-4.24-.05-.21-.11-.42-.16-.63-.13-.56-.23-1.12-.31-1.69a20.08,20.08,0,0,1-.21-2.44,16.44,16.44,0,0,1,.18-2.89,13.14,13.14,0,0,1,.81-3,10.24,10.24,0,0,1,4.63-5.16,15.25,15.25,0,0,1,4.34-1.52,22.06,22.06,0,0,1,3.23-.38c1.12-.06,2.37.25,3.42-.22a3.4,3.4,0,0,0,1.81-2.52s1.36-11.64,12.21-11.57,13.78,11.06,13.21,12.28c0,0,0,1.94,3.59,2.44s12.89,4.69,8.69,18.37a3.6,3.6,0,0,0,1.61,3.82c2.19,1.22,11.17,4.81,6.86,17.38a2.87,2.87,0,0,0,.86,3.66c2,1.8,7.9,13.57.79,34.47l8.62-4.44s5.17-23.35-3.59-32.9c0,0,4-15.51-8-22.76,0,0,4.77-17.81-13.75-23.84,0,0-2.05-15-18.74-14.87,0,0-13.68-.75-18.42,14.11,0,0-.7,0-.74,0a13.74,13.74,0,0,0-2,.1c-6.47.83-13.06,6.06-15.21,12.27-1.15,3.31-1,7-.62,10.4.07.55.14,1.11.22,1.66,0,0-3.88,2-3.45,3.74,0,0-4.45-38.94-24.13-42.23A16.37,16.37,0,0,0,80,15.43c-6.09,3.1-9.93,9.13-12.41,15.28a105.43,105.43,0,0,0-5.36,19c-.09.48-.19.95-.28,1.42-.51,2.71,3.35,4.27,5.32,2.82a3.45,3.45,0,0,0,1.25-2c.72-2.85,4.31-26.3,13.9-30.61s15.08,5.28,15.08,5.28a59.88,59.88,0,0,1,5.33,11.3c5.21,15.92,6.4,33.14,6.61,49.79q.09,7.58-.27,15.14c-.21,4.3-.74,8.66-.61,13,0,.37,0,.73.07,1.1.57,5.74-15.73-8.61-15.73-8.61l-19,11.54-7.76-7-.29-24.24c0-1.5,0-3,0-4.51,0-3.19.1-6.38.23-9.56.06-1.37.12-2.74.22-4.1.08-1.07.21-2.13.32-3.19a14.71,14.71,0,0,0,.14-3.11,2.87,2.87,0,0,0-1-2,4.11,4.11,0,0,0-3.12-.57A2.91,2.91,0,0,0,60.56,63a7.81,7.81,0,0,0-.66,2.69c-.13,1-.21,1.93-.26,2.89-.32,5.91-.84,25.49-.84,25.49v13.52l14.81,14.11,21.32-13.56,14.57,11.4,23.13-12.13,14.51,14.29L168,108.16l6.22,2c.11,0,1-4.82,1.07-5.1a31.68,31.68,0,0,0-.3-11.28,21.85,21.85,0,0,0-1.9-5.25,21.26,21.26,0,0,0-3.3-4.47,2,2,0,0,1-.57-1.84,3.6,3.6,0,0,1,1.11-2,3.5,3.5,0,0,1,2.19-.79,2.82,2.82,0,0,1,2.1,1,20.83,20.83,0,0,1,2.86,3.36,24.65,24.65,0,0,1,3.2,6.61,30.83,30.83,0,0,1,1.34,10,40.43,40.43,0,0,1-.66,6.3c-.11.64-1.68,7.22-1.83,7.16l-15.42-5.48-18.81,11.07L128,108.21,118,111s-5.45-14.94,1.3-23.84A19.3,19.3,0,0,1,122.35,84a24,24,0,0,1,3.57-2.41,27.33,27.33,0,0,1,3.73-1.72,29.4,29.4,0,0,1,3.56-1.12,28.7,28.7,0,0,1,3.07-.6c.54-.07,1.09-.14,1.65-.17a6.69,6.69,0,0,1,1,0,2.57,2.57,0,0,1,.89.28,1.76,1.76,0,0,1,.42.24,2.18,2.18,0,0,1,.51,1.18c0,.06,0,.12.05.18a27.66,27.66,0,0,1,.76,3.36c.21,1.23.39,2.47.55,3.71a40.42,40.42,0,0,1-5.74-2.3s-4.74,1.37-2,5.75,17.88,4.59,22.54.79c0,0,2.66-5.31-2.15-6.25,0,0-4.79,2.44-5.8,2.37,0,0-1.1-11-2.17-8.9"/>
    <rect x="78.78" y="51.28" width="18.02" height="7.04" rx="3.34"/>
    <rect x="74.76" y="69.37" width="25.85" height="7.04" rx="3.34"/>
    <rect x="74.76" y="87.75" width="26.21" height="6.68" rx="3.34"/>
    <path d="M63.24,45.07a131.46,131.46,0,0,0-3.73,26.29l6.82-.88S67.77,54,69.68,46.54Z"/>
  </g>
</svg>
