<svg id="Слой_1" data-name="Слой 1" xmlns="http://www.w3.org/2000/svg" viewBox="0 0 9.07782 25.00031">
  <g>
    <path d="M17.03006,16.57828a.45682.45682,0,0,0-.45593-.45392L16.057,16.0748,16.04324,7.053a.45633.45633,0,0,0-.45593-.45447l-.33484-.0495L15.24954,4.7189a1.56156,1.56156,0,0,0-.34027-.96777L12.04971.17093a.45291.45291,0,0,0-.35589-.17108.49988.49988,0,0,0-.33826.15149A6.53683,6.53683,0,0,0,9.68973,3.96341L9.64364,6.60727l-.27258.00055a.45692.45692,0,0,0-.45447.45587l-.03576,9.0719-.46576.00049a.46112.46112,0,0,0-.326.13928.45284.45284,0,0,0-.128.31665l.00885,6.30792a2.10692,2.10692,0,0,0,2.10364,2.10022l4.8656-.00738a2.10723,2.10723,0,0,0,2.09973-2.10657ZM11.67026,1.25583,11.709,1.2034l2.48944,3.11548a.64512.64512,0,0,1,.14069.401l-.04706,1.88055L10.604,6.55582l-.0039-2.59436A4.84125,4.84125,0,0,1,11.67026,1.25583ZM9.878,7.51767l.25348-.001,3.52734.03046a.32465.32465,0,0,0,.64917.00555l.82587.00714-.03723,8.566-5.25537-.04217ZM8.922,17.046l7.19825-.01129v.05054l-.04956.528L8.87247,17.574Zm6.86048,6.68689a1.18734,1.18734,0,0,1-.84473.34955l-4.86413.00683A1.19445,1.19445,0,0,1,8.88083,22.898l.0426-4.63812,7.19873-.01129.00635,4.63916A1.18651,1.18651,0,0,1,15.78244,23.73288Z" transform="translate(-7.96109 0.00015)"/>
    <path d="M13.98453,8.21048a.32859.32859,0,1,0,.32861.32861A.32861.32861,0,0,0,13.98453,8.21048Z" transform="translate(-7.96109 0.00015)"/>
    <path d="M13.98453,9.20944a.32859.32859,0,1,0,.32861.32855A.32861.32861,0,0,0,13.98453,9.20944Z" transform="translate(-7.96109 0.00015)"/>
    <circle cx="6.02344" cy="10.53711" r="0.32861"/>
    <circle cx="6.02344" cy="11.53607" r="0.32861"/>
    <path d="M13.98453,12.20627a.32858.32858,0,1,0,.32861.32861A.32861.32861,0,0,0,13.98453,12.20627Z" transform="translate(-7.96109 0.00015)"/>
    <path d="M13.98453,13.20523a.32859.32859,0,1,0,.32861.32855A.32861.32861,0,0,0,13.98453,13.20523Z" transform="translate(-7.96109 0.00015)"/>
    <circle cx="6.02344" cy="14.5329" r="0.32861"/>
    <circle cx="6.02344" cy="15.53186" r="0.32861"/>
  </g>
</svg>
