<svg id="Слой_1" data-name="Слой 1" xmlns="http://www.w3.org/2000/svg" viewBox="0 0 20.39957 24.99884">
  <g>
    <path d="M12.07607,17.48776a2.66486,2.66486,0,1,0,2.66461,2.6651A2.66542,2.66542,0,0,0,12.07607,17.48776Zm-1.666,3.0127-.01666-.09967a1.48213,1.48213,0,0,1-.02655-.24793,1.71119,1.71119,0,0,1,1.70917-1.70965,1.691,1.691,0,0,1,1.10767.40851l.07611.06481-2.753,1.58539Zm1.666,1.36151a1.69044,1.69044,0,0,1-1.10278-.408l-.07508-.06476,2.832-1.63452.0196.09521a1.45772,1.45772,0,0,1,.0354.303A1.71073,1.71073,0,0,1,12.07607,21.862Z" transform="translate(-2.30021 -0.00058)"/>
    <path d="M22.1689,3.45767A2.11081,2.11081,0,0,0,20.58449,2.732H19.29268L19.5411.53433a.46845.46845,0,0,0-.1203-.37561.46382.46382,0,0,0-.35694-.15716L2.69417.00058a.47792.47792,0,0,0-.32745.713L5.04165,5.40347l.488,4.38306.00641.108.56464,5.46869A3.69581,3.69581,0,0,0,4.4598,17.7023L3.40273,24.44949a.47147.47147,0,0,0,.11145.38941.4612.4612,0,0,0,.35052.16052H20.15877a.46376.46376,0,0,0,.353-.17133.47062.47062,0,0,0,.10559-.3786l-1.06055-6.77612a4.04346,4.04346,0,0,0-1.65466-2.37744l.324-2.31744h1.57067a2.12888,2.12888,0,0,0,2.10248-1.83777L22.682,5.128A2.115,2.115,0,0,0,22.1689,3.45767ZM16.99923,14.69644l-.05036.29291a.48541.48541,0,0,0,.0221.9704c.01184,0,.02173-.00586.03332-.00672A2.77374,2.77374,0,0,1,18.619,17.85208l.97168,6.19678H4.44509L5.3976,17.881a2.59117,2.59117,0,0,1,1.746-1.9328.48221.48221,0,0,0,.43024-.47589.48743.48743,0,0,0-.48743-.48743c-.006,0-.01092.00324-.01684.00342l-.22943-2.00982H8.79824a.48207.48207,0,0,0,.41827-.23865.4782.4782,0,0,0-.41827-.71686l-2.0661-.06183-.19983-1.718H8.81148a.46658.46658,0,0,0,.405-.2337.48723.48723,0,0,0,0-.48309.47322.47322,0,0,0-.41778-.23377L6.4233,9.22977,6.24459,7.51328H8.79824a.47777.47777,0,1,0,0-.95551L6.11544,6.4949l-.137-1.29962A.46029.46029,0,0,0,5.919,5.00082L3.60305.95212H18.52474Zm3.96331-3.68878A1.17777,1.17777,0,0,1,19.79689,12.023h-1.527l.92065-8.33557h1.39392a1.18028,1.18028,0,0,1,.88867.39722,1.13435,1.13435,0,0,1,.272.91033Z" transform="translate(-2.30021 -0.00058)"/>
    <path d="M8.49849,14.98489a.48743.48743,0,1,0,.48737.48743A.48739.48739,0,0,0,8.49849,14.98489Z" transform="translate(-2.30021 -0.00058)"/>
    <circle cx="7.61033" cy="15.47174" r="0.48743"/>
    <path d="M11.32265,15.95975a.48743.48743,0,1,0-.48743-.48743A.48742.48742,0,0,0,11.32265,15.95975Z" transform="translate(-2.30021 -0.00058)"/>
    <path d="M12.7347,15.95975a.48743.48743,0,1,0-.48737-.48743A.48743.48743,0,0,0,12.7347,15.95975Z" transform="translate(-2.30021 -0.00058)"/>
    <circle cx="11.84659" cy="15.47174" r="0.48743"/>
    <path d="M15.55892,14.98489a.48743.48743,0,1,0,.48736.48743A.48739.48739,0,0,0,15.55892,14.98489Z" transform="translate(-2.30021 -0.00058)"/>
  </g>
</svg>
