<svg id="Слой_1" data-name="Слой 1" xmlns="http://www.w3.org/2000/svg" viewBox="0 0 25 16.18827">
  <g>
    <path d="M24.852,14.47278a1.18144,1.18144,0,0,0,.082-.94519L22.1146,5.26129a1.24209,1.24209,0,0,0-1.17776-.8329L4.32274,4.40587a1.247,1.247,0,0,0-1.17079.80555L.09922,13.50024a1.19662,1.19662,0,0,0,.06248.95223A.87407.87407,0,0,0,0,14.937v4.75661a.90125.90125,0,0,0,.89994.90048H24.10006A.90125.90125,0,0,0,25,19.69365V14.937A.87348.87348,0,0,0,24.852,14.47278ZM3.80767,6.60954A.50464.50464,0,0,0,4.2502,6.88a.51041.51041,0,0,0,0-1.02082.50357.50357,0,0,0-.17953.03621l.11209-.3043a.147.147,0,0,1,.13944-.08688l16.613.02252a.14587.14587,0,0,1,.14.08957l.09446.28163a.50967.50967,0,0,0,.192.98207.49167.49167,0,0,0,.12871-.02594l2.38924,7.12346a.148.148,0,0,1-.12443.05953H1.26893c-.0724,0-.10941-.03808-.1389-.15714Zm20.094,12.88621H1.09838V15.13547H23.90162Z" transform="translate(0 -4.40587)"/>
    <rect x="11.23744" y="12.40829" width="2.52513" height="1.00285" rx="0.30141"/>
    <path d="M5.56646,6.88a.51041.51041,0,1,0-.51037-.51037A.51038.51038,0,0,0,5.56646,6.88Z" transform="translate(0 -4.40587)"/>
    <path d="M6.88272,6.88a.51041.51041,0,1,0-.51037-.51037A.51038.51038,0,0,0,6.88272,6.88Z" transform="translate(0 -4.40587)"/>
    <path d="M8.199,6.88a.51041.51041,0,1,0-.51038-.51037A.51038.51038,0,0,0,8.199,6.88Z" transform="translate(0 -4.40587)"/>
    <path d="M9.51525,6.88a.51041.51041,0,1,0-.51038-.51037A.51038.51038,0,0,0,9.51525,6.88Z" transform="translate(0 -4.40587)"/>
    <path d="M10.83151,6.88a.51041.51041,0,1,0-.51038-.51037A.51044.51044,0,0,0,10.83151,6.88Z" transform="translate(0 -4.40587)"/>
    <path d="M12.14777,6.88a.51041.51041,0,1,0-.51037-.51037A.51043.51043,0,0,0,12.14777,6.88Z" transform="translate(0 -4.40587)"/>
    <path d="M13.4641,6.88a.51041.51041,0,1,0-.51044-.51037A.51042.51042,0,0,0,13.4641,6.88Z" transform="translate(0 -4.40587)"/>
    <path d="M14.78036,6.88a.51041.51041,0,1,0-.51044-.51037A.51042.51042,0,0,0,14.78036,6.88Z" transform="translate(0 -4.40587)"/>
    <path d="M16.09663,6.88a.51041.51041,0,1,0-.51045-.51037A.51042.51042,0,0,0,16.09663,6.88Z" transform="translate(0 -4.40587)"/>
    <path d="M17.41289,6.88a.51041.51041,0,1,0-.51038-.51037A.51042.51042,0,0,0,17.41289,6.88Z" transform="translate(0 -4.40587)"/>
    <path d="M18.72915,6.88a.51041.51041,0,1,0-.51037-.51037A.51038.51038,0,0,0,18.72915,6.88Z" transform="translate(0 -4.40587)"/>
    <path d="M20.04541,6.88a.51041.51041,0,1,0-.51037-.51037A.51038.51038,0,0,0,20.04541,6.88Z" transform="translate(0 -4.40587)"/>
  </g>
</svg>
