<svg id="Слой_1" data-name="Слой 1" xmlns="http://www.w3.org/2000/svg" viewBox="0 0 25.00192 24.98999">
  <g>
    <path d="M24.729,17.535c-.17-1.09-.33-2.18-.5-3.26-.19-1.24005-.37-2.48-.57-3.72-.17-1.09-.34-2.17-.51995-3.26a3.60378,3.60378,0,0,0-.21-.78,2.3272,2.3272,0,0,0-.43-.61,1.05877,1.05877,0,0,0-.79-.35c-.68-.01-1.36-.04-2.04-.07h-.15v-.51c.21,0,.42.01.63,0,.3,0,.59-.01.88-.03a.93684.93684,0,0,0,.31995-.11.25733.25733,0,0,0,.12-.26c0-1.38.00995-2.75.03-4.13,0-.1-.06-.15-.11-.22a.477.477,0,0,0-.47-.21c-2.13995,0-4.27-.01-6.4-.01-.18,0-.35.01-.53.02a.44873.44873,0,0,0-.47.48c-.01,1.26-.01,2.52-.02,3.78a1.50345,1.50345,0,0,0,.05.37006.33011.33011,0,0,0,.3.27,2.98146,2.98146,0,0,0,.42.04c.39.01.79.01,1.2.01v.53h-3.46v-.14c0-.75,0-1.49-.02-2.24-.01-.47-.13-.58-.6-.6-1.95-.07-3.9-.06-5.84-.02-.21.01-.42.02-.63.04a.35737.35737,0,0,0-.38.36005,5.66074,5.66074,0,0,0-.04.58c-.01.62-.01,1.25-.01,1.87v.16h-.14c-.33,0-.67.01-1,.02a1.29667,1.29667,0,0,0-.85.37006,2.03529,2.03529,0,0,0-.61,1.25995c-.32,2.05005-.65,4.1-.97,6.16l-.9,5.97a.25377.25377,0,0,1-.02.07v3.77c.01.14.02.29.04.43a1.69221,1.69221,0,0,0,1.22,1.35,1.94061,1.94061,0,0,0,.54.05c.4.00995.79.00995,1.19.02.04,0,.08.01.12.01h18.57c.13,0,.25-.01.37-.01.52-.02,1.04-.05,1.56-.06a1.13559,1.13559,0,0,0,.8-.33,4.43807,4.43807,0,0,0,.46-.59.76742.76742,0,0,0,.1-.4c.02-1.09,0-2.18.03-3.27A15.35519,15.35519,0,0,0,24.729,17.535Zm-10.22-13.54V.985h5.98v3.01Zm4,.99v.52h-2v-.52Zm-12.98-1.46h5.45v7.94H5.52907Zm18.55,16.64c-.01.94-.02,1.89-.03,2.83,0,.11-.01.22-.02.33a.636.636,0,0,1-.64.63c-.52.01-1.05.03-1.57.03q-10.02,0-20.03.02a.78417.78417,0,0,1-.77-.73c0-.28-.02-.57-.03-.85-.01-.75-.01-1.5-.02-2.24v-.13312a.326.326,0,0,0,.03681.00745.34544.34544,0,0,0,.3454-.3454.34048.34048,0,0,0-.27222-.33057V18.985c.04-.22.07-.44.1-.66.2-1.34.4-2.68.61-4.01.21-1.44.43-2.87.65-4.3.14-.93.29-1.86.44-2.79a1.29094,1.29094,0,0,1,.05-.21.60577.60577,0,0,1,.56-.49c.33-.03.66-.04,1-.05v.16c.01,1.82.02,3.63.02,5.45a.49038.49038,0,0,0,.39.39h6.7a.46679.46679,0,0,0,.39-.39c.01-1.82.02-3.63.02-5.45v-.15h.15q3.57,0,7.13.01c.73,0,1.45.02,2.17.03a.55764.55764,0,0,1,.57.39,3.84509,3.84509,0,0,1,.16.67q.51,3.285,1,6.57c.24,1.56.47,3.12.71,4.68q.01491.06.03.15v.39c-.011-.001-.0205-.00641-.03179-.00641a.34537.34537,0,1,0,0,.69074.33961.33961,0,0,0,.145-.03431h.03681Z" transform="translate(0.00096 -0.005)"/>
    <path d="M14.659,11.505c.97-.02,1.95-.01,2.92-.01h3.07a.364.364,0,0,0,.15-.02.948.948,0,0,0,.69-1.1c-.04-.39-.09-.77-.14-1.15-.04-.31-.09-.62-.15-.92a1.09092,1.09092,0,0,0-.99-.79h-4.52c-.44.01-.88.02-1.32.04a.915.915,0,0,0-.82.8c-.03.65-.04,1.30005-.05,1.95a1.12508,1.12508,0,0,0,.3.8A1.16805,1.16805,0,0,0,14.659,11.505Zm.05-2.98c.59-.02,1.19-.03,1.78-.03,1.19,0,2.37.02,3.56.02.13,0,.18.04.2.17.07.52.16,1.05.23,1.57a1.43407,1.43407,0,0,1,.04.22h-5.98a.81215.81215,0,0,1-.00995-.15c-.01-.54-.01-1.07-.01-1.61C14.51906,8.535,14.51906,8.525,14.70906,8.525Z" transform="translate(0.00096 -0.005)"/>
    <path d="M15.45558,12.78168a.64413.64413,0,0,0-.46392-.23224c-.28028.005-.56079-.00183-.84119-.00012a1.11013,1.11013,0,0,0-.24.022.47526.47526,0,0,0-.361.45038v.99414a.44.44,0,0,0,.35589.44928c.41352.02472.82965.00567,1.24469.00445a.0871.0871,0,0,0,.02478-.00579.422.422,0,0,0,.30732-.41687v-.52259c0-.2124.00116-.42486-.0011-.63727A.1636.1636,0,0,0,15.45558,12.78168Z" transform="translate(0.00096 -0.005)"/>
    <path d="M18.11269,12.57916q-.59125-.01428-1.18292-.00287a.30555.30555,0,0,0-.33509.30109c-.02124.42279-.02276.84729-.01117,1.27057a.347.347,0,0,0,.3429.31689c.199.01429.3985.02088.65253.03351.14508-.00873.3446-.01349.54242-.03473a.365.365,0,0,0,.34814-.33276,3.99741,3.99741,0,0,0-.00561-1.24274A.34.34,0,0,0,18.11269,12.57916Z" transform="translate(0.00096 -0.005)"/>
    <path d="M18.46785,17.1156c.00952-.2077.00214-.41608.00214-.62414h.01733v-.51a.42307.42307,0,0,0-.3623-.41547c-.38562-.0155-.77277-.01978-1.15827-.00372a.34527.34527,0,0,0-.3637.31463,10.86863,10.86863,0,0,0-.00873,1.26911c.00726.1148.16974.21978.261.32928.42493-.00256.85.00214,1.27466-.011A.34319.34319,0,0,0,18.46785,17.1156Z" transform="translate(0.00096 -0.005)"/>
    <path d="M15.094,15.56744c-.38019-.02014-.76257-.01525-1.14325-.00067a.36128.36128,0,0,0-.35608.31128,3.22026,3.22026,0,0,0-.01867,1.23956.39375.39375,0,0,0,.4295.35285c.17389.00568.34814.0011.52228.0011v-.00324c.191,0,.38269.00916.57306-.00238A.3399.3399,0,0,0,15.463,17.116c.0119-.3855.00708-.772-.00586-1.15753C15.44869,15.70392,15.34481,15.58075,15.094,15.56744Z" transform="translate(0.00096 -0.005)"/>
    <path d="M20.52217,17.47058c.18695,0,.37427.00653.56092-.00171a.37008.37008,0,0,0,.38781-.33343c.01032-.40308.00965-.80732-.01062-1.20984a.32467.32467,0,0,0-.35437-.35736c-.38049-.02008-.7633-.01679-1.1441-.00055a.35437.35437,0,0,0-.36761.29614,3.87,3.87,0,0,0-.0224,1.23084.41323.41323,0,0,0,.4403.37579c.16986.00568.34.0011.51007.0011Z" transform="translate(0.00096 -0.005)"/>
    <path d="M21.07576,12.57611c-.369-.00653-.7384-.00806-1.10742-.00079-.23382.00464-.3576.10241-.36963.334-.02057.3971-.02173.79651-.00519,1.19385a.33064.33064,0,0,0,.35334.36041c.37194.02033.74609.01569,1.11871.00385a.38861.38861,0,0,0,.41309-.431c.00586-.16968.00109-.33966.00109-.50952h-.00207c0-.18677.00775-.374-.00189-.56031A.38322.38322,0,0,0,21.07576,12.57611Z" transform="translate(0.00096 -0.005)"/>
    <path d="M12.5157,20.99445a.99245.99245,0,0,0-.98651,1.046.97247.97247,0,0,0,1.94391-.02253A1.00972,1.00972,0,0,0,12.5157,20.99445Z" transform="translate(0.00096 -0.005)"/>
    <path d="M10.00161,6.98639H6.50222V7.99353h3.49939Z" transform="translate(0.00096 -0.005)"/>
    <path d="M6.50344,9.99579h3.49878v-1.01H6.50344Z" transform="translate(0.00096 -0.005)"/>
    <path d="M9.99294,4.99158H6.50252v.99878H9.99294Z" transform="translate(0.00096 -0.005)"/>
    <path d="M1.88631,19.36859a.34537.34537,0,1,0,.3454.34534A.34541.34541,0,0,0,1.88631,19.36859Z" transform="translate(0.00096 -0.005)"/>
    <path d="M2.76674,19.36859a.34537.34537,0,1,0,.3454.34534A.34541.34541,0,0,0,2.76674,19.36859Z" transform="translate(0.00096 -0.005)"/>
    <path d="M3.64724,19.36859a.34537.34537,0,1,0,.34533.34534A.34541.34541,0,0,0,3.64724,19.36859Z" transform="translate(0.00096 -0.005)"/>
    <path d="M4.52767,19.36859a.34537.34537,0,1,0,.34533.34534A.34541.34541,0,0,0,4.52767,19.36859Z" transform="translate(0.00096 -0.005)"/>
    <path d="M5.4081,19.36859a.34537.34537,0,1,0,.34534.34534A.34536.34536,0,0,0,5.4081,19.36859Z" transform="translate(0.00096 -0.005)"/>
    <path d="M6.28853,19.36859a.34537.34537,0,1,0,.34534.34534A.34537.34537,0,0,0,6.28853,19.36859Z" transform="translate(0.00096 -0.005)"/>
    <path d="M7.169,19.36859a.34537.34537,0,1,0,.34534.34534A.34536.34536,0,0,0,7.169,19.36859Z" transform="translate(0.00096 -0.005)"/>
    <path d="M8.0494,19.36859a.34537.34537,0,1,0,.34533.34534A.34536.34536,0,0,0,8.0494,19.36859Z" transform="translate(0.00096 -0.005)"/>
    <path d="M8.92983,19.36859a.34537.34537,0,1,0,.34533.34534A.34536.34536,0,0,0,8.92983,19.36859Z" transform="translate(0.00096 -0.005)"/>
    <path d="M9.81026,19.36859a.34537.34537,0,1,0,.34534.34534A.34537.34537,0,0,0,9.81026,19.36859Z" transform="translate(0.00096 -0.005)"/>
    <path d="M10.69069,19.36859a.34537.34537,0,1,0,.34534.34534A.34536.34536,0,0,0,10.69069,19.36859Z" transform="translate(0.00096 -0.005)"/>
    <path d="M11.91646,19.71393a.34534.34534,0,1,0-.34534.3454A.34536.34536,0,0,0,11.91646,19.71393Z" transform="translate(0.00096 -0.005)"/>
    <path d="M12.45156,20.05933a.34537.34537,0,1,0-.34534-.3454A.34538.34538,0,0,0,12.45156,20.05933Z" transform="translate(0.00096 -0.005)"/>
    <path d="M13.332,19.36859a.34537.34537,0,1,0,.34534.34534A.34536.34536,0,0,0,13.332,19.36859Z" transform="translate(0.00096 -0.005)"/>
    <path d="M14.21242,19.36859a.34537.34537,0,1,0,.34534.34534A.34537.34537,0,0,0,14.21242,19.36859Z" transform="translate(0.00096 -0.005)"/>
    <path d="M15.09285,19.36859a.34537.34537,0,1,0,.34534.34534A.34536.34536,0,0,0,15.09285,19.36859Z" transform="translate(0.00096 -0.005)"/>
    <path d="M15.97328,19.36859a.34537.34537,0,1,0,.34534.34534A.34536.34536,0,0,0,15.97328,19.36859Z" transform="translate(0.00096 -0.005)"/>
    <path d="M16.85372,19.36859a.34537.34537,0,1,0,.34533.34534A.34536.34536,0,0,0,16.85372,19.36859Z" transform="translate(0.00096 -0.005)"/>
    <path d="M17.73415,19.36859a.34537.34537,0,1,0,.34534.34534A.34536.34536,0,0,0,17.73415,19.36859Z" transform="translate(0.00096 -0.005)"/>
    <path d="M18.61458,19.36859a.34537.34537,0,1,0,.34534.34534A.34537.34537,0,0,0,18.61458,19.36859Z" transform="translate(0.00096 -0.005)"/>
    <path d="M19.495,19.36859a.34537.34537,0,1,0,.34534.34534A.34536.34536,0,0,0,19.495,19.36859Z" transform="translate(0.00096 -0.005)"/>
    <path d="M20.37545,19.36859a.34537.34537,0,1,0,.34533.34534A.34536.34536,0,0,0,20.37545,19.36859Z" transform="translate(0.00096 -0.005)"/>
    <path d="M21.25588,19.36859a.34537.34537,0,1,0,.3454.34534A.3454.3454,0,0,0,21.25588,19.36859Z" transform="translate(0.00096 -0.005)"/>
    <path d="M22.13631,19.36859a.34537.34537,0,1,0,.3454.34534A.34541.34541,0,0,0,22.13631,19.36859Z" transform="translate(0.00096 -0.005)"/>
    <path d="M23.01674,19.36859a.34537.34537,0,1,0,.3454.34534A.34541.34541,0,0,0,23.01674,19.36859Z" transform="translate(0.00096 -0.005)"/>
  </g>
</svg>
