<svg id="Слой_1" data-name="Слой 1" xmlns="http://www.w3.org/2000/svg" viewBox="0 0 24.97888 22.59537">
  <g>
    <path d="M24.9719,11.80136a1.03458,1.03458,0,0,0-.158-.60869.47253.47253,0,0,0-.34532-.22237c-.21068-.02343-.42137-.04683-.63791-.05269-1.17638-.01757-2.35276-.03511-3.52913-.03511q-5.01273,0-10.02551.01171c-.56182,0-1.11783.04094-1.67969.07609a.41783.41783,0,0,0-.2692.11117.887.887,0,0,0-.23412.52674c-.01171.40969-.02339.82524-.03511,1.23489v.45652c-.18143,0-.34532-.00585-.50331.00586a4.1095,4.1095,0,0,0-.714.09363.5165.5165,0,0,0-.40383.53843v.16975H6.33136c-1.16466,0-2.32933,0-3.494-.00586-.49749,0-1.0008-.01172-1.49826-.04683-.34532-.0234-.48578-.199-.50917-.55015-.01172-.23994-.02344-.47406-.02344-.714q0-3.77491.00586-7.544c0-.38043.01758-.76083.041-1.14126a.46292.46292,0,0,1,.42137-.42137c.15218-.01758.30435-.02343.45652-.02926q3.494-.01756,6.98215-.02929h.14631c0,.12292-.00586.22826,0,.3336a1.20417,1.20417,0,0,0,.14046.60284,1.24226,1.24226,0,0,0,1.10029.64963q3.65205,0,7.29821.0234a.1791.1791,0,0,0,.09948-.01754.51828.51828,0,0,0,.22826-.39212v-.398h3.6403a.36939.36939,0,0,0,.38044-.34528c.01168-.57354.01168-1.153,0-1.73238a.37653.37653,0,0,0-.39215-.34528H17.72638c0-.15218.00583-.28095,0-.40969a.3983.3983,0,0,0-.40383-.39212c-.88374,0-1.76749,0-2.65124.00583q-2.30886.00877-4.61185.02929a.96963.96963,0,0,0-.41551.04679,1.256,1.256,0,0,0-.76087.995c-.01754.17557-.0234.35118-.03511.53261H8.69q-1.75578,0-3.51742.00582c-1.21149,0-2.42884.01172-3.64033.02343a2.44043,2.44043,0,0,0-.54429.07609A1.25113,1.25113,0,0,0,.04567,4.05253c-.00586.21654-.0234.43308-.03511.64963v9.14761c.06437.11706.11706.23408.18728.34528a1.21734,1.21734,0,0,0,1.01835.66721c.199.01757.40383.0234.60866.0234q2.23866.01757,4.47139.03514h.1346a.34712.34712,0,0,1,.00586.06437c.01172.42723.14631.6028.56772.68475a4.95706,4.95706,0,0,0,.66135.04683c.12288.01168.25165.00586.38625.00586v.15214c.00586.42726.00586.86035.01758,1.28757a1.95331,1.95331,0,0,0,.07608.48578.67722.67722,0,0,0,.6262.4682c1.42221.00586,2.84439.01758,4.26657.02343h.66134c0,.17557,0,.32189.00586.4682.01168.30432.01168.60866.04094.90715A1.17138,1.17138,0,0,0,14.84688,20.551c.14631.00582.29849,0,.46824,0v.17557c.00582.6028.01168,1.20564.01168,1.80844a1.17858,1.17858,0,0,0,.45066.954,1.03646,1.03646,0,0,0,1.08857.24,1.20588,1.20588,0,0,0,.82524-.93644,3.31843,3.31843,0,0,0,.03511-.42137c.00583-.55014.00583-1.10029.00583-1.65629v-.14632h1.61532v.16389c.00586.58526.01172,1.17052.01172,1.75578a1.26587,1.26587,0,0,0,.84863,1.24075.88492.88492,0,0,0,.55015.041,1.26534,1.26534,0,0,0,.98909-1.21149c.01754-.60869.01754-1.22321.02339-1.83187V20.5744c.18729-.01172.35115-.01758.515-.0234a.95547.95547,0,0,0,.57941-.22826,1.08562,1.08562,0,0,0,.43894-.70818c.04683-.41551.05269-.83105.07609-1.2466.00586-.07023,0-.14046,0-.21069.316-.01754.61451-.02925.90714-.05269a.61729.61729,0,0,0,.57358-.38625,1.44466,1.44466,0,0,0,.09949-.38626c.02339-.25169.02925-.49749.02925-.74915C24.98358,14.991,24.9719,13.39911,24.9719,11.80136Zm-7.228-8.9779H20.957v.79012H17.74392ZM9.6732,2.48986a.69054.69054,0,0,1,.07023-.28678.36557.36557,0,0,1,.36286-.199c2.21226.00582,4.43042,0,6.64854,0h.16975V4.42706h-6.871a.37994.37994,0,0,1-.357-.29262,1.08633,1.08633,0,0,1-.0234-.19312C9.6732,3.46141,9.66734,2.97563,9.6732,2.48986ZM8.04031,14.90909H7.26194v-.8018h.77837Zm8.87255,7.6786a.39173.39173,0,0,1-.27509.37458.372.372,0,0,1-.41551-.14046.309.309,0,0,1-.07608-.19314c-.01758-.35118-.02344-.69646-.02344-1.04764-.00582-.33357,0-.66717,0-1.01249h.79012c.00586.01758.01754.02926.01754.04683C16.92458,21.27086,16.91872,21.93221,16.91286,22.58769Zm4.04413-.21654a2.26531,2.26531,0,0,1-.01754.28091.38456.38456,0,0,1-.38043.32189.38.38,0,0,1-.3804-.32189,2.43675,2.43675,0,0,1-.02343-.357V20.65634a.4727.4727,0,0,1,.00586-.0878h.79009a.45219.45219,0,0,1,.01171.0878C20.96285,21.224,20.96285,21.79761,20.957,22.37115Zm3.22479-5.04494H22.92539l-.01222-.00246-.01222.00246H22.5606v1.00663c.00586.28678,0,.56772,0,.84864a.57431.57431,0,0,1-.23408.515.63777.63777,0,0,1-.29849.03511c-.10534-.00585-.21069,0-.316,0H15.6604a5.33258,5.33258,0,0,1-.74911,0c-.28095-.03511-.39215-.29848-.398-.556V17.85411a.26521.26521,0,0,0-.00629-.53036l-.01222.00246H8.86554V11.696H24.18178Z" transform="translate(-0.01056 -1.20231)"/>
    <path d="M15.20752,17.85539a.26582.26582,0,1,0-.26584-.2658A.26579.26579,0,0,0,15.20752,17.85539Z" transform="translate(-0.01056 -1.20231)"/>
    <path d="M15.908,17.85539a.26582.26582,0,1,0-.26584-.2658A.26581.26581,0,0,0,15.908,17.85539Z" transform="translate(-0.01056 -1.20231)"/>
    <path d="M16.60855,17.85539a.26582.26582,0,1,0-.26584-.2658A.26579.26579,0,0,0,16.60855,17.85539Z" transform="translate(-0.01056 -1.20231)"/>
    <path d="M17.30905,17.85539a.26582.26582,0,1,0-.26584-.2658A.26581.26581,0,0,0,17.30905,17.85539Z" transform="translate(-0.01056 -1.20231)"/>
    <path d="M18.00958,17.85539a.26582.26582,0,1,0-.26584-.2658A.26581.26581,0,0,0,18.00958,17.85539Z" transform="translate(-0.01056 -1.20231)"/>
    <path d="M18.71008,17.85539a.26582.26582,0,1,0-.26584-.2658A.26581.26581,0,0,0,18.71008,17.85539Z" transform="translate(-0.01056 -1.20231)"/>
    <path d="M19.41061,17.85539a.26582.26582,0,1,0-.26584-.2658A.26581.26581,0,0,0,19.41061,17.85539Z" transform="translate(-0.01056 -1.20231)"/>
    <path d="M20.11111,17.85539a.26582.26582,0,1,0-.26584-.2658A.26581.26581,0,0,0,20.11111,17.85539Z" transform="translate(-0.01056 -1.20231)"/>
    <path d="M20.81164,17.85539a.26582.26582,0,1,0-.26584-.2658A.26581.26581,0,0,0,20.81164,17.85539Z" transform="translate(-0.01056 -1.20231)"/>
    <path d="M21.51214,17.85539a.26582.26582,0,1,0-.26584-.2658A.26581.26581,0,0,0,21.51214,17.85539Z" transform="translate(-0.01056 -1.20231)"/>
    <path d="M22.21267,17.85539a.26582.26582,0,1,0-.26584-.2658A.26581.26581,0,0,0,22.21267,17.85539Z" transform="translate(-0.01056 -1.20231)"/>
  </g>
</svg>
