<svg id="Слой_1" data-name="Слой 1" xmlns="http://www.w3.org/2000/svg" viewBox="0 0 25 16.17687">
  <path d="M24.95517,8.84205q-.375-.59953-.74776-1.20046-.51381-.82533-1.02814-1.65031c-.25926-.41515-.52306-.8275-.77871-1.24484a.6282.6282,0,0,0-.58273-.33487q-3.66912.00817-7.33828.00308-5.67046,0-11.341-.00035a.51461.51461,0,0,0-.45643.25607c-.32209.5095-.63713,1.02344-.95693,1.53438-.25722.41094-.51829.81948-.776,1.23014q-.42713.68073-.851,1.36349a.529.529,0,0,0-.02309.57788.51075.51075,0,0,0,.48424.26194Q3.011,9.63838,5.46266,9.637a.32488.32488,0,0,1,.20716.0664c.1812.13537.36653.26517.54963.398q.56438.40947,1.12823.8197,1.1859.85863,2.37249,1.71633.83376.60356,1.66651,1.20851c.0706.05131.13847.10636.22208.17082-.92037.6674-1.83045,1.3273-2.74849,1.993h0l-.60837.44088a.10907.10907,0,0,0-.02835.02054l-.12771.09254c-.01368.00962-.02962.0195-.04221.02981l-.00081.00139-.7483.54228-.00467.00165-.048.03653-.58514.424-.00213-.00275-.01773.01715-.4265.30907-.03255.0222a.28925.28925,0,0,0-.02841.022l-.15034.109-.00121.0003-.001.00131-.37782.27378-.00212-.00062-.00027.00237-.15883.1151c-.01655.01168-.03278.02521-.04908.0353l-.00552.00427-.54422.39438-.00456.00295c-.288.21006-.57812.41716-.8667.62638a1.10831,1.10831,0,0,0-.21383.16944.52033.52033,0,0,0-.10067.5427.5149.5149,0,0,0,.65951.30849,2.48606,2.48606,0,0,0,.40753-.263q1.09167-.78364,2.18019-1.57167.91077-.65909,1.81886-1.32183.65879-.4792,1.31718-.95889c.33985-.24644.68155-.49032,1.0218-.73619q.68312-.49364,1.36453-.98957a.08862.08862,0,0,1,.12424-.00115c.23528.17388.47281.34466.70982.51618q.98087.70985,1.96179,1.41957.78252.56751,1.5633,1.13735c.02211.01607.04569.032.06809.04775l-.00056.00052.67865.49177.00019.00015.06513.04718.07636.05532,0,0q.622.45059,1.24409.90114.75709.54881,1.51331,1.09883a.57252.57252,0,0,0,.59222.11872.524.524,0,0,0,.26277-.75038.92175.92175,0,0,0-.29711-.27181q-.76176-.5558-1.527-1.10686-.539-.39045-1.07783-.781l.00011-.0001L17.67823,17.1l-.00134.00123c-.05607-.04049-.11135-.082-.16742-.12247q-.60291-.43551-1.20594-.87083c-.21336-.15432-.42495-.311-.63919-.46409-.21447-.15321-.4316-.30265-.6466-.4551-.04128-.02926-.07627-.06735-.11725-.09713q-.59734-.43422-1.19569-.86711c-.09081-.066-.17954-.13479-.27783-.20876.03214-.02831.05285-.04987.07668-.06711q.99532-.71933,1.991-1.43807c.445-.32213.88822-.64675,1.3327-.96963q1.23939-.90034,2.47851-1.80111a.493.493,0,0,1,.3213-.10421c.30553.00836.61143.00279.91721.00279q1.96382,0,3.92763-.00019a.5082.5082,0,0,0,.48416-.26221c.0087-.01561.02895-.02479.04383-.037V8.872C24.98479,8.86218,24.96385,8.85593,24.95517,8.84205ZM7.07136,5.59342c-.09244.29637-.18758.59191-.27832.8888-.07421.24283-.14143.48783-.21591.73058-.05638.18377-.12165.36481-.17875.54839-.05786.18607-.11041.37377-.16551.56072-.01867.06332-.03519.12744-.05767.18939-.023.0634-.07285.07942-.139.07923q-1.10478-.0028-2.20957-.00118-1.109-.00014-2.218-.001a.441.441,0,0,1-.09331-.02052.40726.40726,0,0,1,.03041-.09008Q2.46051,7.014,3.37605,5.55065a.14692.14692,0,0,1,.142-.07718q1.73435.00176,3.46869.00092C7.09276,5.47441,7.10366,5.48983,7.07136,5.59342Zm.2154,2.87648c.13769-.44546.27354-.89148.41178-1.33677.07543-.2429.15617-.48415.231-.72722.0575-.18674.10885-.37536.1643-.56274a3.01556,3.01556,0,0,1,.10157-.3135.1372.1372,0,0,1,.10613-.05289c.21386-.00493.42794-.00237.64192-.00235h.56094c.017.00129.03582.00029.0534,0h.05766V5.47428q1.11882.00022,2.23768.00007c.1402,0,.14.00014.14.1371q-.00006,1.42583,0,2.85166c0,.1206-.00435.12593-.12786.12595q-2.24693.00047-4.4939.00006C7.26576,8.5891,7.25537,8.57149,7.28676,8.4699ZM17.40864,9.81516q-.3645.2646-.72994.5279-.92622.67044-1.85224,1.34116-.77022.55836-1.53956,1.11787c-.2327.16891-.4665.33638-.698.50695a.10881.10881,0,0,1-.14848-.00121q-.62731-.46035-1.25712-.91733-1.08544-.78589-2.17267-1.56937-.78-.56375-1.55886-1.129a.411.411,0,0,1-.03856-.04356h10.181l.00793.02027C17.53771,9.71769,17.47406,9.76766,17.40864,9.81516Zm.2603-1.22625c-.07214.00088-.1444-.00081-.21644.00038l-.66821-.00075-.01311-.007-.00666.00694-.63639-.00071-.00484-.001c-.97.00439-1.94011.00233-2.91014.00225-.025,0-.05005-.00092-.07505-.00013-.07218.00229-.10205-.02674-.10155-.10415.003-.45863.00154-.91731.00154-1.376q0-.75885-.00006-1.51773c0-.11039.00562-.11656.1188-.11658q1.77612-.0003,3.55222-.00091c.07857-.00009.12326.01363.14216.10783a3.85373,3.85373,0,0,0,.12588.3922c.05468.1733.10648.34751.15925.52141.073.2409.14549.482.2189.72274.03138.1029.06362.20551.09576.30817l-.00021.00031.15469.4981.00435.014.0776.24985a.50425.50425,0,0,0,.018.05791l.01282.04127a.21879.21879,0,0,1,.00926.03416.169.169,0,0,0,.01393.04054l.00655.02109C17.77376,8.56828,17.76007,8.58779,17.66894,8.58891ZM23.4322,8.589q-.47117.001-.94231.00027-1.75117-.00032-3.50235-.00071c-.09489,0-.12536-.03029-.144-.12368-.01447-.07247-.03782-.1433-.0594-.21419l-.02918-.09448.00033-.0001-.14674-.47383-.01861-.06021-.00012-.00025-.09123-.29458.0034-.00086-.011-.02366-.19439-.62764-.00474-.01817c-.01682-.054-.03405-.1078-.051-.16173l-.02481-.08013-.0003.00044q-.09661-.30684-.1934-.61368c-.025-.07949-.04787-.15964-.0727-.23917-.01757-.05624.00087-.08613.06078-.08788.01944-.00058.0389-.00054.05836-.00054q1.155,0,2.30988.00011c.37508,0,.75019.00139,1.12528-.00125a.15893.15893,0,0,1,.15569.0839q.42017.68329.84714,1.36241c.22294.356.44856.7104.67216,1.066q.15852.25212.31354.50645C23.54089,8.57153,23.52954,8.58881,23.4322,8.589Z" transform="translate(0 -4.41157)"/>
</svg>
