<svg id="Слой_1" data-name="Слой 1" xmlns="http://www.w3.org/2000/svg" viewBox="0 0 24.99976 24.99976">
  <g>
    <path d="M20.3114,6.49365a.57487.57487,0,1,0-.57135-.578A.57533.57533,0,0,0,20.3114,6.49365Z" transform="translate(-0.00012 -0.00012)"/>
    <path d="M20.3114,8.13635a.57468.57468,0,1,0-.57135-.57135A.57181.57181,0,0,0,20.3114,8.13635Z" transform="translate(-0.00012 -0.00012)"/>
    <path d="M20.3114,17.68164a2.21756,2.21756,0,1,0,2.22077,2.221A2.2233,2.2233,0,0,0,20.3114,17.68164Zm0,3.29242a1.07267,1.07267,0,0,1-1.07135-1.07141,1.07138,1.07138,0,0,1,2.14276,0A1.07272,1.07272,0,0,1,20.3114,20.97406Z" transform="translate(-0.00012 -0.00012)"/>
    <path d="M20.368.00012H.00012v5.9411H6.62531V7.60254H7.86908l.01923.06494a.4872.4872,0,0,0,.46472.34674A.49325.49325,0,0,0,8.82422,7.667l.01965-.06445h1.24329V5.94122h5.64892V21.12585H14.28674l.07575-.13476a2.09542,2.09542,0,0,0,.27685-1.03473V17.05219a2.95847,2.95847,0,0,0-2.00805-2.7674l-.05951-.02069-.00293-.4328.60736-1.82263H3.38232A2.97742,2.97742,0,0,0,.4118,14.9856v1.65448a.50392.50392,0,0,0,.24048.42981.51283.51283,0,0,0,.24738.06347.48729.48729,0,0,0,.244-.06445.49689.49689,0,0,0,.24487-.42883V14.9856a1.99941,1.99941,0,0,1,1.99383-2.00068h.75739V14.2641l-.06049.02118a2.95732,2.95732,0,0,0-2.01251,2.76691v2.90417a2.062,2.062,0,0,0,.27936,1.03424l.0777.13525H.00012v3.874H24.99988V4.62561A4.634,4.634,0,0,0,20.368.00012ZM9.11041,6.62579H7.60205V5.94122H9.11041ZM5.11646,12.98492h6.70727l-.22766.69245v.4043H5.11646Zm-2.073,4.06727a1.98545,1.98545,0,0,1,1.66626-1.96235l.24884-.04474,6.80371.00147.24151.04327a1.98458,1.98458,0,0,1,1.66571,1.96235v2.90417A1.171,1.171,0,0,1,12.5,21.12585H4.213a1.171,1.171,0,0,1-1.16955-1.16949Zm20.97967,6.97094H.97V22.0957H16.71283V4.97089H.97V.97046H20.368a3.65931,3.65931,0,0,1,3.65515,3.65515Z" transform="translate(-0.00012 -0.00012)"/>
    <path d="M8.38275,11.42847a.57469.57469,0,1,0,0-1.14936.57212.57212,0,0,0-.57135.57166A.58216.58216,0,0,0,8.38275,11.42847Z" transform="translate(-0.00012 -0.00012)"/>
    <circle cx="20.31128" cy="9.20758" r="0.57135"/>
    <path d="M8.38275,9.77905A.57135.57135,0,1,0,7.8114,9.2077.57529.57529,0,0,0,8.38275,9.77905Z" transform="translate(-0.00012 -0.00012)"/>
    <path d="M20.3114,14.71423a.57138.57138,0,1,0-.57135-.57135A.57185.57185,0,0,0,20.3114,14.71423Z" transform="translate(-0.00012 -0.00012)"/>
    <path d="M20.3114,11.42847a.57469.57469,0,1,0-.57135-.5777A.575.575,0,0,0,20.3114,11.42847Z" transform="translate(-0.00012 -0.00012)"/>
    <path d="M20.3114,13.07147a.57468.57468,0,1,0-.57135-.57135A.57181.57181,0,0,0,20.3114,13.07147Z" transform="translate(-0.00012 -0.00012)"/>
  </g>
</svg>
