<svg id="Слой_1" data-name="Слой 1" xmlns="http://www.w3.org/2000/svg" viewBox="0 0 25.00037 17.17065">
  <g>
    <path d="M24.0824,3.91467H.9176a.91873.91873,0,0,0-.91778.91773v6.66272A2.99577,2.99577,0,0,0,.174,12.50635l.61658,2.216a.92132.92132,0,0,0,.86468.60925h21.7118a.91635.91635,0,0,0,.856-.58783l.56061-1.88415a3.02432,3.02432,0,0,0,.21655-1.12848V4.8324A.91873.91873,0,0,0,24.0824,3.91467Zm-4.28351,7.89142c-.0091-.00244-.0116-.006-.02155-.0083-.0094,0-.01648.00726-.02569.0083H.96484a2.08531,2.08531,0,0,1-.02685-.311v-.6593H24.06244v.89532c0,.02478-.00665.05023-.00751.07495ZM24.06244,4.8324V9.8656H.938V4.85284Zm-.69537,9.561-21.685.03406L1.08569,12.2912h.55793l.43066,1.292a.25167.25167,0,0,0,.2384.17181H4.45526a.25085.25085,0,0,0-.00049-.5017H2.49323l-.32081-.9621H19.4317l-.32055.9621H10.51947a.25085.25085,0,0,0,0,.5017h8.77222a.2518.2518,0,0,0,.23846-.17181l.43036-1.292h4.01477a2.68846,2.68846,0,0,1-.087.28906Z" transform="translate(0.00018 -3.91467)"/>
    <path d="M21.50409,8.46753a1.13391,1.13391,0,0,0,.86853-.368,1.2218,1.2218,0,0,0,0-1.58454,1.10958,1.10958,0,0,0-.81879-.36132.13714.13714,0,0,0-.053-.00995.192.192,0,0,0-.04315.00665,1.12589,1.12589,0,0,0-.82208.36462,1.2218,1.2218,0,0,0,0,1.58454A1.1288,1.1288,0,0,0,21.50409,8.46753Zm-.62323-1.7337a.74647.74647,0,0,1,.45746-.23871v.81213a.16576.16576,0,1,0,.33148.00336V6.49512a.74663.74663,0,0,1,.45752.23871.903.903,0,0,1,0,1.147.88863.88863,0,0,1-1.24646,0,.90292.90292,0,0,1,0-1.147Z" transform="translate(0.00018 -3.91467)"/>
    <path d="M17.15173,16.46881c-.19616,0-.34393.18878-.34393.43939v3.73774c0,.25061.14777.43939.34393.43939s.34394-.18878.34394-.43939V16.9082C17.49567,16.65759,17.34784,16.46881,17.15173,16.46881Z" transform="translate(0.00018 -3.91467)"/>
    <path d="M14.05078,16.46881c-.19617,0-.344.18878-.344.43939v3.73774c0,.25061.14782.43939.344.43939.19586,0,.34369-.18878.34369-.43939V16.9082C14.39447,16.65759,14.24664,16.46881,14.05078,16.46881Z" transform="translate(0.00018 -3.91467)"/>
    <path d="M10.94958,16.46881c-.19592,0-.34375.18878-.34375.43939v3.73774c0,.25061.14783.43939.34375.43939.19611,0,.34394-.18878.34394-.43939V16.9082C11.29352,16.65759,11.14569,16.46881,10.94958,16.46881Z" transform="translate(0.00018 -3.91467)"/>
    <path d="M7.84857,16.46881c-.1961,0-.34393.18878-.34393.43939v3.73774c0,.25061.14783.43939.34393.43939.19617,0,.344-.18878.344-.43939V16.9082C8.19257,16.65759,8.04474,16.46881,7.84857,16.46881Z" transform="translate(0.00018 -3.91467)"/>
    <circle cx="1.63623" cy="2.31555" r="0.26489"/>
    <path d="M2.4035,6.49512a.2649.2649,0,1,0-.26489-.2649A.26495.26495,0,0,0,2.4035,6.49512Z" transform="translate(0.00018 -3.91467)"/>
    <path d="M3.171,6.49512a.2649.2649,0,1,0-.26495-.2649A.26489.26489,0,0,0,3.171,6.49512Z" transform="translate(0.00018 -3.91467)"/>
    <circle cx="3.93866" cy="2.31555" r="0.26489"/>
    <circle cx="4.70612" cy="2.31555" r="0.26489"/>
    <circle cx="5.47357" cy="2.31555" r="0.26489"/>
    <path d="M6.24084,6.49512a.2649.2649,0,1,0-.26489-.2649A.26494.26494,0,0,0,6.24084,6.49512Z" transform="translate(0.00018 -3.91467)"/>
    <path d="M7.00836,6.49512a.2649.2649,0,1,0-.26495-.2649A.26489.26489,0,0,0,7.00836,6.49512Z" transform="translate(0.00018 -3.91467)"/>
    <circle cx="7.776" cy="2.31555" r="0.26489"/>
    <circle cx="8.54346" cy="2.31555" r="0.26489"/>
    <circle cx="9.31091" cy="2.31555" r="0.26489"/>
    <path d="M10.07819,6.49512a.2649.2649,0,1,0-.2649-.2649A.26494.26494,0,0,0,10.07819,6.49512Z" transform="translate(0.00018 -3.91467)"/>
  </g>
</svg>
