<svg id="Слой_1" data-name="Слой 1" xmlns="http://www.w3.org/2000/svg" viewBox="0 0 25.0001 20.0515">
  <g>
    <path d="M7.5514,4.5948a.48206.48206,0,1,0,.48229.4823A.48261.48261,0,0,0,7.5514,4.5948Z" transform="translate(0.00005 -2.47425)"/>
    <path d="M8.96542,19.08734a.48206.48206,0,1,0,.48181.48181A.48261.48261,0,0,0,8.96542,19.08734Z" transform="translate(0.00005 -2.47425)"/>
    <path d="M10.37945,19.08734a.48206.48206,0,1,0,.48181.48181A.48262.48262,0,0,0,10.37945,19.08734Z" transform="translate(0.00005 -2.47425)"/>
    <path d="M8.96542,4.5948a.48206.48206,0,1,0,.48181.4823A.483.483,0,0,0,8.96542,4.5948Z" transform="translate(0.00005 -2.47425)"/>
    <path d="M6.13737,4.5948a.48206.48206,0,1,0,.4823.4823A.48262.48262,0,0,0,6.13737,4.5948Z" transform="translate(0.00005 -2.47425)"/>
    <path d="M1.89578,4.5948a.48206.48206,0,1,0,.4823.4823A.48262.48262,0,0,0,1.89578,4.5948Z" transform="translate(0.00005 -2.47425)"/>
    <path d="M3.30981,4.5948a.48206.48206,0,1,0,.48181.4823A.48261.48261,0,0,0,3.30981,4.5948Z" transform="translate(0.00005 -2.47425)"/>
    <path d="M4.72383,4.5948a.48206.48206,0,1,0,.48182.4823A.483.483,0,0,0,4.72383,4.5948Z" transform="translate(0.00005 -2.47425)"/>
    <path d="M16.03458,4.5948a.48206.48206,0,1,0,.48229.4823A.48261.48261,0,0,0,16.03458,4.5948Z" transform="translate(0.00005 -2.47425)"/>
    <path d="M17.4486,4.5948a.48206.48206,0,1,0,.4823.4823A.48262.48262,0,0,0,17.4486,4.5948Z" transform="translate(0.00005 -2.47425)"/>
    <path d="M19.34444,5.0771a.48206.48206,0,1,0-.48181.48181A.48262.48262,0,0,0,19.34444,5.0771Z" transform="translate(0.00005 -2.47425)"/>
    <path d="M10.37945,4.5948a.48206.48206,0,1,0,.48181.4823A.483.483,0,0,0,10.37945,4.5948Z" transform="translate(0.00005 -2.47425)"/>
    <path d="M22.22033,5.30181a2.76656,2.76656,0,0,0-1.5822.49921c.07974-.96845.12033-1.92434.12033-2.845V2.47425H0v.48181A32.8795,32.8795,0,0,0,1.29171,12.1767,13.24379,13.24379,0,0,0,5.68842,19.171a3.588,3.588,0,0,0-1.44688,2.87251v.48229H16.51687v-.48229A3.588,3.588,0,0,0,15.07,19.171a11.50748,11.50748,0,0,0,3.44034-4.47839.48162.48162,0,0,0,.84474-.32185c0-.24453.24115-.563.69686-.92013.3465-.27208.80077-.55914,1.28113-.86311l.62534-.39966a9.9211,9.9211,0,0,0,2.03985-1.6513,3.6634,3.6634,0,0,0,1.0018-2.455A2.78266,2.78266,0,0,0,22.22033,5.30181ZM19.46719,12.1767a26.23453,26.23453,0,0,0,.84715-3.80956.48359.48359,0,0,0,.09086-.2856,1.81537,1.81537,0,1,1,3.63074,0,2.66154,2.66154,0,0,1-.7621,1.81754,9.184,9.184,0,0,1-1.84123,1.48072c-.20152.131-.40352.25854-.60262.38419a16.47377,16.47377,0,0,0-1.372.92738q-.1167.09134-.21891.18026Q19.3587,12.528,19.46719,12.1767Zm-5.45458,6.61005-.578.35762a.48113.48113,0,1,0,.23631.2943l.38081.189a2.67482,2.67482,0,0,1,1.42949,1.934H5.27717a2.67546,2.67546,0,0,1,1.429-1.934l.3813-.189a.48159.48159,0,1,0,.23631-.2943l-.578-.35762c-1.95721-1.21153-3.52443-3.5945-4.532-6.89228A31.32371,31.32371,0,0,1,.98967,3.43836H19.76923a31.319,31.319,0,0,1-1.22459,8.45611C17.537,15.19225,15.96934,17.57522,14.01261,18.78675Z" transform="translate(0.00005 -2.47425)"/>
    <path d="M11.793,19.08734a.48206.48206,0,1,0,.48229.48181A.4822.4822,0,0,0,11.793,19.08734Z" transform="translate(0.00005 -2.47425)"/>
    <path d="M11.793,4.5948a.48206.48206,0,1,0,.48229.4823A.48261.48261,0,0,0,11.793,4.5948Z" transform="translate(0.00005 -2.47425)"/>
    <path d="M14.621,4.5948a.48206.48206,0,1,0,.48181.4823A.483.483,0,0,0,14.621,4.5948Z" transform="translate(0.00005 -2.47425)"/>
    <path d="M13.207,4.5948a.48206.48206,0,1,0,.48181.4823A.48262.48262,0,0,0,13.207,4.5948Z" transform="translate(0.00005 -2.47425)"/>
  </g>
</svg>
