<svg id="Слой_1" data-name="Слой 1" xmlns="http://www.w3.org/2000/svg" viewBox="0 0 24.07387 24.98591">
  <g>
    <path d="M22.37961.007H2.61988A2.15947,2.15947,0,0,0,.46307,2.16386V23.24074a.841.841,0,0,0,.83966.83966h.40485V24.993H4.85009V24.0804h15.3V24.993h3.1425V24.0804h.40466a.841.841,0,0,0,.83966-.83966V2.16386A2.15957,2.15957,0,0,0,22.37961.007ZM4.34238,24.48525H2.21528V24.0804h2.1271Zm18.44253,0h-2.127V24.0804h2.127Zm.65831-1.4251L1.48332,22.9872V6.59953a.30258.30258,0,0,0,.25857.168.32256.32256,0,0,0,0-.64511.30264.30264,0,0,0-.25857.16808V2.16386A1.13753,1.13753,0,0,1,2.61988,1.0273H22.37961a1.13753,1.13753,0,0,1,1.13656,1.13656Z" transform="translate(-0.46307 -0.00704)"/>
    <path d="M3.937,4.6497A1.1687,1.1687,0,1,0,2.76884,3.481,1.1703,1.1703,0,0,0,3.937,4.6497Zm0-1.97572a.807.807,0,1,1-.80651.807A.80792.80792,0,0,1,3.937,2.674Z" transform="translate(-0.46307 -0.00704)"/>
    <path d="M21.06247,4.6497a1.1687,1.1687,0,1,0-1.1687-1.1687A1.17029,1.17029,0,0,0,21.06247,4.6497Zm0-1.97572a.807.807,0,1,1-.807.807A.80749.80749,0,0,1,21.06247,2.674Z" transform="translate(-0.46307 -0.00704)"/>
    <path d="M17.76909,4.6497a1.1687,1.1687,0,1,0-1.1687-1.1687A1.1703,1.1703,0,0,0,17.76909,4.6497Zm0-1.97572a.807.807,0,1,1-.80651.807A.80792.80792,0,0,1,17.76909,2.674Z" transform="translate(-0.46307 -0.00704)"/>
    <path d="M3.02492,20.78754H21.90264l.07244-12.218L3.09787,8.49656ZM3.45955,8.93119l18.0809.07295-.07294,11.42121-18.008-.073Z" transform="translate(-0.46307 -0.00704)"/>
    <path d="M12.573,10.06775v9.14656a1.90546,1.90546,0,0,0,1.83033-1.90124v-5.2696A2.01075,2.01075,0,0,0,12.573,10.06775Z" transform="translate(-0.46307 -0.00704)"/>
    <path d="M17.842,12.04347v7.17084a1.90546,1.90546,0,0,0,1.83033-1.90124V14.0197A2.01125,2.01125,0,0,0,17.842,12.04347Z" transform="translate(-0.46307 -0.00704)"/>
    <path d="M15.20775,10.06775v9.14656a1.905,1.905,0,0,0,1.82982-1.90124v-5.2696A2.01031,2.01031,0,0,0,15.20775,10.06775Z" transform="translate(-0.46307 -0.00704)"/>
    <path d="M9.79225,15.00781l.073-3.55L5.32763,11.3849v3.62291a2.22752,2.22752,0,0,0,1.97878,2.20668V18.662l-1.97878-.03182-.073.58562H9.80143l.06377-.51268-2.05109-.033V17.21443A2.2276,2.2276,0,0,0,9.79225,15.00781Z" transform="translate(-0.46307 -0.00704)"/>
    <path d="M2.62683,6.12244a.32256.32256,0,1,0,.32253.32259A.32254.32254,0,0,0,2.62683,6.12244Z" transform="translate(-0.46307 -0.00704)"/>
    <path d="M3.18924,6.445a.32256.32256,0,1,0,.32259-.32259A.32258.32258,0,0,0,3.18924,6.445Z" transform="translate(-0.46307 -0.00704)"/>
    <path d="M4.07425,6.445a.32253.32253,0,1,0,.32252-.32259A.32252.32252,0,0,0,4.07425,6.445Z" transform="translate(-0.46307 -0.00704)"/>
    <path d="M4.95919,6.445a.32256.32256,0,1,0,.32259-.32259A.32258.32258,0,0,0,4.95919,6.445Z" transform="translate(-0.46307 -0.00704)"/>
    <path d="M6.16672,6.76755A.32256.32256,0,1,0,5.84419,6.445.32258.32258,0,0,0,6.16672,6.76755Z" transform="translate(-0.46307 -0.00704)"/>
    <path d="M7.05173,6.76755A.32256.32256,0,1,0,6.72914,6.445.32256.32256,0,0,0,7.05173,6.76755Z" transform="translate(-0.46307 -0.00704)"/>
    <path d="M7.93667,6.76755A.32256.32256,0,1,0,7.61414,6.445.32258.32258,0,0,0,7.93667,6.76755Z" transform="translate(-0.46307 -0.00704)"/>
    <path d="M8.82167,6.76755A.32256.32256,0,1,0,8.49908,6.445.32256.32256,0,0,0,8.82167,6.76755Z" transform="translate(-0.46307 -0.00704)"/>
    <path d="M9.70661,6.76755A.32256.32256,0,1,0,9.38409,6.445.32258.32258,0,0,0,9.70661,6.76755Z" transform="translate(-0.46307 -0.00704)"/>
    <path d="M10.59162,6.76755A.32256.32256,0,1,0,10.269,6.445.32256.32256,0,0,0,10.59162,6.76755Z" transform="translate(-0.46307 -0.00704)"/>
    <path d="M11.47656,6.76755A.32256.32256,0,1,0,11.154,6.445.32258.32258,0,0,0,11.47656,6.76755Z" transform="translate(-0.46307 -0.00704)"/>
    <path d="M12.36156,6.76755A.32256.32256,0,1,0,12.039,6.445.32252.32252,0,0,0,12.36156,6.76755Z" transform="translate(-0.46307 -0.00704)"/>
    <path d="M13.24651,6.76755A.32256.32256,0,1,0,12.924,6.445.32258.32258,0,0,0,13.24651,6.76755Z" transform="translate(-0.46307 -0.00704)"/>
    <path d="M14.13151,6.76755A.32256.32256,0,1,0,13.809,6.445.32253.32253,0,0,0,14.13151,6.76755Z" transform="translate(-0.46307 -0.00704)"/>
    <path d="M15.01645,6.76755a.32256.32256,0,1,0-.32253-.32252A.32258.32258,0,0,0,15.01645,6.76755Z" transform="translate(-0.46307 -0.00704)"/>
    <path d="M15.90146,6.76755a.32256.32256,0,1,0-.32253-.32252A.32252.32252,0,0,0,15.90146,6.76755Z" transform="translate(-0.46307 -0.00704)"/>
    <path d="M16.7864,6.76755a.32256.32256,0,1,0-.32253-.32252A.32258.32258,0,0,0,16.7864,6.76755Z" transform="translate(-0.46307 -0.00704)"/>
    <path d="M17.34888,6.445a.32253.32253,0,1,0,.32252-.32259A.32252.32252,0,0,0,17.34888,6.445Z" transform="translate(-0.46307 -0.00704)"/>
    <path d="M18.23382,6.445a.32256.32256,0,1,0,.32259-.32259A.32258.32258,0,0,0,18.23382,6.445Z" transform="translate(-0.46307 -0.00704)"/>
    <path d="M19.44135,6.76755a.32256.32256,0,1,0-.32253-.32252A.32253.32253,0,0,0,19.44135,6.76755Z" transform="translate(-0.46307 -0.00704)"/>
    <path d="M20.00376,6.445a.32256.32256,0,1,0,.32259-.32259A.32258.32258,0,0,0,20.00376,6.445Z" transform="translate(-0.46307 -0.00704)"/>
    <path d="M20.88877,6.445a.32253.32253,0,1,0,.32253-.32259A.32252.32252,0,0,0,20.88877,6.445Z" transform="translate(-0.46307 -0.00704)"/>
    <path d="M22.0963,6.12244a.32256.32256,0,1,0,.32253.32259A.32259.32259,0,0,0,22.0963,6.12244Z" transform="translate(-0.46307 -0.00704)"/>
    <path d="M22.65871,6.445a.32256.32256,0,1,0,.32253-.32259A.32253.32253,0,0,0,22.65871,6.445Z" transform="translate(-0.46307 -0.00704)"/>
  </g>
</svg>
