<svg id="Слой_1" data-name="Слой 1" xmlns="http://www.w3.org/2000/svg" viewBox="0 0 25 17.94845">
  <path d="M1.60292,3.52578a.32051.32051,0,1,0,.32051.3205A.32051.32051,0,0,0,1.60292,3.52578Zm1.282,0a.32051.32051,0,1,0,.32051.3205A.32051.32051,0,0,0,2.885,3.52578Zm1.282,0a.32051.32051,0,1,0,.32051.3205A.32051.32051,0,0,0,4.167,3.52578Zm1.282,0a.32051.32051,0,1,0,.32051.3205A.3205.3205,0,0,0,5.449,3.52578Zm1.282,0a.32051.32051,0,1,0,.3205.3205A.3205.3205,0,0,0,6.73105,3.52578Zm1.282,0a.32051.32051,0,1,0,.32051.3205A.32051.32051,0,0,0,8.01308,3.52578Zm1.282,0a.32051.32051,0,1,0,.32051.3205A.32051.32051,0,0,0,9.29511,3.52578Zm1.282,0a.32051.32051,0,1,0,.32051.3205A.32051.32051,0,0,0,10.57714,3.52578Zm1.282,0a.32051.32051,0,1,0,.32051.3205A.3205.3205,0,0,0,11.85917,3.52578Zm1.282,0a.32051.32051,0,1,0,.3205.3205A.3205.3205,0,0,0,13.14121,3.52578Zm1.282,0a.32051.32051,0,1,0,.32051.3205A.32051.32051,0,0,0,14.42324,3.52578Zm1.282,0a.32051.32051,0,1,0,.32051.3205A.32051.32051,0,0,0,15.70527,3.52578Zm1.282,0a.32051.32051,0,1,0,.32051.3205A.32051.32051,0,0,0,16.9873,3.52578Zm1.282,0a.32051.32051,0,1,0,.32051.3205A.32051.32051,0,0,0,18.26933,3.52578Zm1.282,0a.32051.32051,0,1,0,.32051.3205A.3205.3205,0,0,0,19.55136,3.52578Zm1.282,0a.32051.32051,0,1,0,.3205.3205A.3205.3205,0,0,0,20.8334,3.52578Zm1.282,0a.32051.32051,0,1,0,.32051.3205A.32051.32051,0,0,0,22.11543,3.52578Zm1.282,0a.32051.32051,0,1,0,.32051.3205A.32051.32051,0,0,0,23.39746,3.52578ZM1.6555,6.08984a.32054.32054,0,0,0-.18967.579s.01857.02921.02065.01816v.00062c.00413-.02212-.005.02342-.015.06886s-.024.10938-.04194.18968c-.03582.16059-.08656.38514-.14648.65228-.11986.53429-.27809,1.239-.43695,1.94433s-.318,1.41138-.43944,1.94809c-.06071.26836-.112.49428-.149.65667s-.0691.2955-.06135.266c-.03537.13433-.07824.15838-.07824.15838a.32054.32054,0,0,0,.20282.569h3.5018a7.5484,7.5484,0,0,0,4.05079-1.06356A3.50378,3.50378,0,0,0,9.56491,9.59039L11.565,14.22962a.32053.32053,0,0,0,.54085.07762l4.23046-5.09558c-.0944.36723-.11833.46358-.24163.93962-.13276.51254-.26809,1.03229-.375,1.436-.05345.20187-.1.37458-.13522.50268s-.06931.23662-.06134.21534c-.073.19411-.16214.36933-.16214.36933a.32056.32056,0,0,0,.28546.46637h3.5018a7.9847,7.9847,0,0,0,3.89742-1.00848A3.42069,3.42069,0,0,0,25,9.29492a2.82282,2.82282,0,0,0-1.25136-2.38378,5.67554,5.67554,0,0,0-3.23575-.8213H15.70965a.32056.32056,0,0,0-.24664.11581L12.38876,9.909,10.87261,6.2864a.32056.32056,0,0,0-.29547-.19656Zm.44508.641h8.2631l1.63822,3.9137a.32054.32054,0,0,0,.54211.08075l3.31651-3.99445h4.65237a5.09888,5.09888,0,0,1,2.87205.708,2.1177,2.1177,0,0,1,.974,1.85607,2.78288,2.78288,0,0,1-1.63571,2.28362,7.42282,7.42282,0,0,1-3.575.92146h-3.016c.02277-.0653.03862-.12344.07073-.24038.03613-.13155.08275-.30539.13647-.50831.10744-.40583.24269-.926.37559-1.43915.25974-1.00278.49826-1.93461.50956-1.97876h1.71772c-.04546.192-.11552.48727-.236.99157-.07727.32344-.15626.65246-.2191.91082s-.11946.477-.11831.47325a.77423.77423,0,0,1-.10642.226c-.029.04025-.02567.03318-.02567.03318a.32054.32054,0,0,0,.20094.57028h.60909a4.86961,4.86961,0,0,0,2.231-.51207,1.99207,1.99207,0,0,0,1.185-1.71584,1.42275,1.42275,0,0,0-.70549-1.25887,3.68772,3.68772,0,0,0-1.84793-.35932H16.91531a.32056.32056,0,0,0-.24664.11581l-4.72248,5.68714-2.55656-5.93a.32054.32054,0,0,0-.60032.22286A5.34323,5.34323,0,0,1,8.9746,9.248a2.75332,2.75332,0,0,1-1.44792,2.29051,6.95558,6.95558,0,0,1-3.704.96152H.8342c.01192-.05023.02106-.09051.0482-.20971.03711-.16294.08887-.3894.14961-.65792.12149-.537.28056-1.24326.43945-1.94871.11031-.48977.20656-.91783.30361-1.35026H3.72441L3.0427,11.14222a.32054.32054,0,0,0,.31112.39626h.52646a3.80306,3.80306,0,0,0,1.89425-.43069A2.14651,2.14651,0,0,0,6.82807,9.68366a1.52089,1.52089,0,0,0-.33115-1.41537A2.47079,2.47079,0,0,0,4.659,7.69238H1.919c.05444-.24256.10247-.45695.13584-.60659l.04257-.19155c.01022-.04628.013-.05475.01941-.08889C2.12287,6.77347,2.09932,6.76066,2.10058,6.73086ZM4.3842,8.3334H4.659a1.90431,1.90431,0,0,1,1.37781.38123.8446.8446,0,0,1,.16526.83257,1.45167,1.45167,0,0,1-.74618,1.00471,3.21341,3.21341,0,0,1-1.57562.34555H3.762Zm15.21724,0h.308a3.23526,3.23526,0,0,1,1.52617.27293.69212.69212,0,0,1,.38624.70424,1.31679,1.31679,0,0,1-.84509,1.15,4.32839,4.32839,0,0,1-1.92994.43694h-.0651c.02806-.09128.06517-.25052.12833-.51018.06323-.26.14235-.58942.21972-.91333C19.4684,8.89364,19.5752,8.44432,19.60144,8.3334Zm-7.10125,6.08965a50.1965,50.1965,0,0,0-8.67876.66418,12.78049,12.78049,0,0,0-2.67486.73491,2.91867,2.91867,0,0,0-.79376.47638.84891.84891,0,0,0,0,1.37718,2.91817,2.91817,0,0,0,.79376.47638,12.78043,12.78043,0,0,0,2.67486.73492,50.19749,50.19749,0,0,0,8.67876.66418,50.19728,50.19728,0,0,0,8.67875-.66418,12.78036,12.78036,0,0,0,2.67487-.73492,2.91817,2.91817,0,0,0,.79376-.47638.84891.84891,0,0,0,0-1.37718,2.91867,2.91867,0,0,0-.79376-.47638,12.78043,12.78043,0,0,0-2.67487-.73491A50.19629,50.19629,0,0,0,12.50019,14.42305Zm0,.641a49.70237,49.70237,0,0,1,8.56232.65354,12.35832,12.35832,0,0,1,2.53464.69235,2.413,2.413,0,0,1,.621.36432c.12142.10944.14084.17613.14084.21284s-.01942.1034-.14084.21284a2.41294,2.41294,0,0,1-.621.36433,12.35842,12.35842,0,0,1-2.53464.69234,49.70237,49.70237,0,0,1-8.56232.65354,49.70228,49.70228,0,0,1-8.56232-.65354,12.35842,12.35842,0,0,1-2.53464-.69234A2.41294,2.41294,0,0,1,.78224,17.2c-.12142-.10944-.14085-.17613-.14085-.21284s.01943-.1034.14085-.21284a2.413,2.413,0,0,1,.621-.36432,12.35832,12.35832,0,0,1,2.53464-.69235A49.70228,49.70228,0,0,1,12.50019,15.06406Zm0,1.282c-1.77012,0-3.20508.287-3.20508.641s1.435.641,3.20508.641,3.20508-.287,3.20508-.641S14.27031,16.3461,12.50019,16.3461ZM1.60292,20.83321a.32051.32051,0,1,0,.32051.32051A.32051.32051,0,0,0,1.60292,20.83321Zm1.282,0a.32051.32051,0,1,0,.32051.32051A.32051.32051,0,0,0,2.885,20.83321Zm1.282,0a.32051.32051,0,1,0,.32051.32051A.32051.32051,0,0,0,4.167,20.83321Zm1.282,0a.32051.32051,0,1,0,.32051.32051A.3205.3205,0,0,0,5.449,20.83321Zm1.282,0a.32051.32051,0,1,0,.3205.32051A.3205.3205,0,0,0,6.73105,20.83321Zm1.282,0a.32051.32051,0,1,0,.32051.32051A.32051.32051,0,0,0,8.01308,20.83321Zm1.282,0a.32051.32051,0,1,0,.32051.32051A.32051.32051,0,0,0,9.29511,20.83321Zm1.282,0a.32051.32051,0,1,0,.32051.32051A.32051.32051,0,0,0,10.57714,20.83321Zm1.282,0a.32051.32051,0,1,0,.32051.32051A.3205.3205,0,0,0,11.85917,20.83321Zm1.282,0a.32051.32051,0,1,0,.3205.32051A.3205.3205,0,0,0,13.14121,20.83321Zm1.282,0a.32051.32051,0,1,0,.32051.32051A.32051.32051,0,0,0,14.42324,20.83321Zm1.282,0a.32051.32051,0,1,0,.32051.32051A.32051.32051,0,0,0,15.70527,20.83321Zm1.282,0a.32051.32051,0,1,0,.32051.32051A.32051.32051,0,0,0,16.9873,20.83321Zm1.282,0a.32051.32051,0,1,0,.32051.32051A.32051.32051,0,0,0,18.26933,20.83321Zm1.282,0a.32051.32051,0,1,0,.32051.32051A.3205.3205,0,0,0,19.55136,20.83321Zm1.282,0a.32051.32051,0,1,0,.3205.32051A.3205.3205,0,0,0,20.8334,20.83321Zm1.282,0a.32051.32051,0,1,0,.32051.32051A.32051.32051,0,0,0,22.11543,20.83321Zm1.282,0a.32051.32051,0,1,0,.32051.32051A.32051.32051,0,0,0,23.39746,20.83321Z" transform="translate(0 -3.52578)"/>
</svg>
