<svg id="Raw" xmlns="http://www.w3.org/2000/svg" viewBox="0 0 256 256">
  <path d="M89.7,80.92,89,82.15l-3.84,6.74,3.74,0v15.91l-6-4.19a.79.79,0,0,1-.33-.64v-.89a3.17,3.17,0,1,0-1.58,0v.89a2.38,2.38,0,0,0,1,1.92h0l6.92,4.84v1.24a4.75,4.75,0,1,0,1.59,0v-4.37l6.76-4.06a2.38,2.38,0,0,0,1.15-2V96h2.37V89.67H94.43V96h2.38v1.47a.79.79,0,0,1-.39.68l-5.94,3.57V88.84l3.55,0Zm0,3.24,1.7,3.09-3.48,0ZM96,91.25h3.16v3.16H96ZM81.77,94.41A1.59,1.59,0,1,1,80.19,96,1.57,1.57,0,0,1,81.77,94.41Zm7.91,15a3.17,3.17,0,1,1-3.16,3.17A3.16,3.16,0,0,1,89.68,109.45Z"/>
  <path d="M214.26,227.84V99.12s-1.39-37.37-41.52-36c-7.44.25-15.66,4.42-21.22,9-16.82,14-13.39,38.28-13.39,57.75s2,40.11-.44,59.48c-1.72,13.89-9.62,24.86-24.93,21.14-12.52-3-15.33-14.47-15.39-25.87,0-3.4.63-34.36.63-34.36h8.3V125.42h12.46v-54H60.63V126.8H74.47V149H80v19.58c0,19.08-.58,42.24,18,53.58,11.07,6.78,26.32,8.2,37.85,1.72,12.78-7.2,17.29-22.54,18.6-36.24,2.47-25.83.88-52.29,1.33-78.2.11-6.36-.79-14,2.82-19.64,5.54-8.63,19-11.16,28-7.24,6.35,2.77,11.07,11.13,11.07,18V227.84Z" fill="none" stroke="#000" stroke-miterlimit="10" stroke-width="6"/>
  <rect x="68.93" y="34.64" width="41.52" height="34.03" fill="none" stroke="#000" stroke-miterlimit="10" stroke-width="6"/>
  <rect x="74.47" y="48.89" width="8.3" height="5.54" fill="none" stroke="#000" stroke-miterlimit="10" stroke-width="3"/>
  <rect x="96.61" y="48.89" width="8.3" height="5.54" fill="none" stroke="#000" stroke-miterlimit="10" stroke-width="3"/>
</svg>
