<svg id="Raw" xmlns="http://www.w3.org/2000/svg" viewBox="0 0 256 256">
  <g>
    <path d="M224.27,107.74H196.84a3.94,3.94,0,0,1,0-1C187.17,83.05,162.51,57.52,128,57.52S69.5,82.35,58.64,105.59a7.1,7.1,0,0,1-.68,2.15H31.66C24.86,107.3,19,112,18.39,118.32v69.56c.56,6.3,6.47,11,13.27,10.58H224.27c6.81.44,12.74-4.27,13.34-10.58V118.32C237,112,231.08,107.3,224.27,107.74Z" fill="none" stroke="#000" stroke-miterlimit="10" stroke-width="5"/>
    <path d="M35.25,127.92V130s5.1-.76,5,5.22l1,22.54V178.7l25.93.35s2.4.69,4.65-3.27a19.79,19.79,0,0,0,2.55-8.21l-1.58-.49a19.84,19.84,0,0,1-5.17,7,10.75,10.75,0,0,1-4.95,1H50.47l-.53-20.52L68,154.21v-3.55H50l-.12-3.51L49.65,140l-.11-3.25c0-.69,0-1.37,0-2.06a12.61,12.61,0,0,1-.2-2.21c.17-1.22,1.49-1.4,2.51-1.38,1.8,0,3.62.11,5.42.05,1,0,2,0,3,0a11,11,0,0,1,2.81.25,9.55,9.55,0,0,1,4.12,2.35,3.2,3.2,0,0,1,.66.76,16.4,16.4,0,0,1,1.64,6.19h2a28.71,28.71,0,0,0,.13-3c0-1,0-2-.13-3a26.36,26.36,0,0,0-.39-2.79,13.47,13.47,0,0,0-.59-2.51,2,2,0,0,0-.87-1.06c-1.62-1-3.68-.84-5.51-.87-2.89,0-5.77-.14-8.66-.15-2.7,0-5.41,0-8.11.08Q41.33,127.54,35.25,127.92Z"/>
    <path d="M81.57,162.7H79.25c0,2.63-.08,5.25-.06,7.88a7.57,7.57,0,0,0,2.42,5.78,16.66,16.66,0,0,0,5.72,3.21,23.56,23.56,0,0,0,12.38.71c.65-.13,1.3-.29,2-.47,7-2,12.72-9.83,10.16-17.19-1.9-5.44-7.45-9.17-12.26-11.82a42,42,0,0,1-8-5.56,12.36,12.36,0,0,1-4.8-7,9.52,9.52,0,0,1,1-5.15,9.48,9.48,0,0,1,10.94-2.92,13.07,13.07,0,0,1,5.92,4.59,16.64,16.64,0,0,1,3.3,9.6l1.87.63s.45-5.77.45-6.33a13.71,13.71,0,0,0-1.52-6.54,10.36,10.36,0,0,0-5.59-4.52A23,23,0,0,0,90.58,126a15.28,15.28,0,0,0-9.53,5.63,13.64,13.64,0,0,0-2,3.69A13,13,0,0,0,80.3,146.7a26.22,26.22,0,0,0,10.94,9.53A47.52,47.52,0,0,1,98.73,162a12.39,12.39,0,0,1,4.28,7c.45,2.14-.74,4.61-2.23,6.07a10.29,10.29,0,0,1-7.39,2.53A9.65,9.65,0,0,1,88.06,176c-3.07-2.07-4.7-6-5.81-9.42C82.14,166.29,81.34,162.7,81.57,162.7Z"/>
    <path d="M119.64,127.92s-.52,47.23,0,51.61h3.53s.37-11.54,0-17.32V139.53s17.38,37.29,17.68,39.73h2.78l15-37.36v26.5s0,12.11,9.06,13.92l4.73.41v-1.94s-4.73,0-4.73-13.08l.83-39.79h-8.92L145,166.66l-17-38.74Z"/>
    <path d="M214,170.7l-15-42.65h-3.15l-21.28,51.27h3.6l6-13.91h18.06s2.48,9,6.23,11a14.52,14.52,0,0,0,12.06,2.44v-1.6A11.11,11.11,0,0,1,214,170.7Zm-28.18-9.32,8.47-19.48,6.9,19.48Z"/>
    <ellipse cx="127.96" cy="78.32" rx="5.62" ry="5.28"/>
    <path d="M128,94.39s-4.12,4.66-.82,16.34a23,23,0,0,1-2.18-7,22.26,22.26,0,0,1,1-11.06s1.12-1.19-1.28-3.48a21.79,21.79,0,0,0-5.92-4.11,12.26,12.26,0,0,0-5.14-1.27,3.14,3.14,0,0,0-1.84.53,3.06,3.06,0,0,0-1,1.32c-1.46,3.44.26,8.08,2.81,10.55a11,11,0,0,0,8.32,3,9.69,9.69,0,0,1-8.47-.91s-4.57-2-5.32-10c0-2.64,0-7,4.5-7a18.66,18.66,0,0,1,8.76,2c2.79,1.45,4.54,3.67,6.56,6l0,.06c1-1.15,1.93-2.32,2.94-3.44a14.15,14.15,0,0,1,7.81-4.12c2.36-.47,5.88-.92,7.77,1,1.61,1.62,1.54,4.2,1.25,6.3a13.79,13.79,0,0,1-2.68,6.69,10.21,10.21,0,0,1-8.18,4.08,6,6,0,0,1-2.82-.73c3.45-.16,7-1.58,9-4.42A10.57,10.57,0,0,0,144.37,92a12.35,12.35,0,0,0,.65-5.22,3.78,3.78,0,0,0-.93-2.42,3.13,3.13,0,0,0-2-.78,12.82,12.82,0,0,0-5.92,1.7,24.12,24.12,0,0,0-5,3.33A7.32,7.32,0,0,0,129.91,90a2.49,2.49,0,0,0,0,2.58,15.06,15.06,0,0,1,1.2,5.14,22,22,0,0,1,0,7,27.72,27.72,0,0,1-2,6A23.83,23.83,0,0,0,128,94.39Z"/>
    <path d="M108.78,94l1.42,1.88-2.62,3.2c-.1.11.61,1.21.7,1.36a6.67,6.67,0,0,0,1,1.28,7.9,7.9,0,0,0,7.5,1.88,8.15,8.15,0,0,0,5-3.85c.19,1.42-.86,2.87-1.88,3.75a7.41,7.41,0,0,1-3.94,1.73l-.42,0a11,11,0,0,1-10.64-6Z"/>
    <path d="M123.1,99.61a4.17,4.17,0,0,1,.1,1.36c-.07.93-.14,1.85-.3,2.77a8.52,8.52,0,0,1-.93,2.54,9,9,0,0,1-4.59,3.83,10.73,10.73,0,0,1-2.56.61,1.68,1.68,0,0,1-1.06-.17c-.61-.38-.63-1.16-.68-1.8s0-1.27-.06-1.9c0-.11.06-1.1,0-1.13L110.8,105a14.79,14.79,0,0,0,1.2,7h.75a21.87,21.87,0,0,0,3-.08,9.54,9.54,0,0,0,3.25-1,9.08,9.08,0,0,0,4-4.84A9.65,9.65,0,0,0,123.1,99.61Z"/>
    <path d="M117.4,112.89l2-1,2.85,2.78a14.13,14.13,0,0,0,3.74-4.24,14.48,14.48,0,0,1-4,7Z"/>
    <path d="M146.92,94l-1.5,1.88,2.63,3.2s-.45,1-.53,1.18a5.57,5.57,0,0,1-1.2,1.46,8,8,0,0,1-12.51-2.09,1.56,1.56,0,0,1,0,.57c.21,3,3.55,5,6.26,5.07a10.83,10.83,0,0,0,10.35-6Z"/>
    <path d="M132.53,99.6a2.83,2.83,0,0,0-.07.77,7.12,7.12,0,0,0,0,.8,13.63,13.63,0,0,0,.64,3.86,8.49,8.49,0,0,0,3.77,4.39,10.61,10.61,0,0,0,2.22,1,9.71,9.71,0,0,0,1.19.26c.56.09,1.21.24,1.67-.19a1.31,1.31,0,0,0,.39-.72,9.71,9.71,0,0,0,.08-2V106l2.1-.69a15.5,15.5,0,0,1-1.13,7,18.84,18.84,0,0,1-4.86-.28,8.49,8.49,0,0,1-4.81-3.26,10.59,10.59,0,0,1-.9-1.53A9.67,9.67,0,0,1,132.53,99.6Z"/>
    <path d="M138.23,112.89l-1.95-1-2.92,2.78a15.44,15.44,0,0,1-3.75-4.24,15,15,0,0,0,4.12,7Z"/>
  </g>
</svg>
