<svg id="Слой_1" data-name="Слой 1" xmlns="http://www.w3.org/2000/svg" viewBox="0 0 21.18324 25">
  <g>
    <path d="M22.76822,10.96924V9.90806a1.11223,1.11223,0,0,0-.31328-.768,1.07689,1.07689,0,0,0-.76807-.31328H21.6667V8.81665a.35983.35983,0,0,0-.31335-.35374h-.08567l-.00395-5.87424A2.84128,2.84128,0,0,0,18.23144.35677a2.93518,2.93518,0,0,0-3.019,2.60891l.00543,17.48514a4.26394,4.26394,0,0,1-3.66639,3.84156H7.893a1.12511,1.12511,0,0,1-.65667-.79366,1.06059,1.06059,0,0,0,.479-.29,1.44665,1.44665,0,0,0,.327-.75351H9.79333a1.98434,1.98434,0,0,0,1.98221-1.98172V1.98222A1.98445,1.98445,0,0,0,9.79333,0H3.8906A1.98445,1.98445,0,0,0,1.90838,1.98222v18.4913A1.98435,1.98435,0,0,0,3.8906,22.45524H5.63373a1.46022,1.46022,0,0,0,.33333.7545A1.07928,1.07928,0,0,0,6.52,23.5126,1.82173,1.82173,0,0,0,7.7065,24.97878L7.8269,25l3.7483-.001a5.05047,5.05047,0,0,0,4.34489-4.48749l-.003-17.50193a2.24748,2.24748,0,0,1,2.31431-1.9452,2.13952,2.13952,0,0,1,2.32862,1.57708V8.46291h-.08592a.36024.36024,0,0,0-.32334.35374l-.02023.01012a1.06982,1.06982,0,0,0-1.08135,1.08129v1.05106a.48162.48162,0,0,0-.31328.44467v.4042h.92973v1.1925a.40543.40543,0,0,0,.40427.40426.39683.39683,0,0,0,.39414-.40426V11.808h.88927v1.1925a.40349.40349,0,0,0,.39415.40426.41444.41444,0,0,0,.40427-.40426V11.808h.93985v-.4042A.45478.45478,0,0,0,22.76822,10.96924ZM3.8906,21.495a1.02266,1.02266,0,0,1-1.02195-1.02146V2.07992l.00839.00345a.22257.22257,0,0,0,.22261-.22254.21247.21247,0,0,0-.16611-.19918A1.01286,1.01286,0,0,1,3.8906.96027H9.79333a1.02308,1.02308,0,0,1,1.022,1.022v18.4913a1.02266,1.02266,0,0,1-1.022,1.02146ZM6.842,22.8658a.42969.42969,0,0,1-.34936-.12929A.66028.66028,0,0,1,6.36,22.45524h.95638a.65117.65117,0,0,1-.129.28275A.42074.42074,0,0,1,6.842,22.8658Zm13.26838-9.86531c0,.02023,0,.03035-.01012.04046a.051.051,0,0,1-.0808-.04046V11.808h.09092Zm1.68768,0c0,.02023,0,.03035-.01.04046a.05289.05289,0,0,1-.08087-.04046V11.808H21.798Zm1.04095-1.435h-3.8605v-.16166a.22664.22664,0,0,1,.23242-.22237h.091V9.90806a.83243.83243,0,0,1,.8287-.82864h.27288V8.81665a.11218.11218,0,0,1,.11115-.11121h.78824a.11224.11224,0,0,1,.11121.11121v.26277h.27282a.8346.8346,0,0,1,.83881.82864l-.01011,1.27336h.101a.22433.22433,0,0,1,.22237.22237Z" transform="translate(-1.90838)"/>
    <path d="M19.96884,9.79691a.36607.36607,0,0,0,0,.51541.35084.35084,0,0,0,.25265.101.3578.3578,0,0,0,.26276-.101.39874.39874,0,0,0,.1011-.25265.40413.40413,0,0,0-.1011-.26276A.366.366,0,0,0,19.96884,9.79691Zm.33351.33351a.10718.10718,0,1,1,0-.15161A.09472.09472,0,0,1,20.30235,10.13042Z" transform="translate(-1.90838)"/>
    <path d="M21.8486,9.79691a.35375.35375,0,0,0-.5053,0,.366.366,0,0,0,0,.51541.3664.3664,0,0,0,.5053,0,.36176.36176,0,0,0,.11115-.25265A.367.367,0,0,0,21.8486,9.79691Zm-.17185.33351a.10505.10505,0,0,1-.16167,0,.11.11,0,0,1,0-.15161.10505.10505,0,0,1,.16167,0A.10984.10984,0,0,1,21.67675,10.13042Z" transform="translate(-1.90838)"/>
    <path d="M20.38322,11.11067a.06722.06722,0,0,0,.101,0,.07922.07922,0,0,0,0-.11115.09128.09128,0,0,0-.101,0A.07922.07922,0,0,0,20.38322,11.11067Z" transform="translate(-1.90838)"/>
    <path d="M22.28315,11.11067a.06724.06724,0,0,0,.101,0,.07924.07924,0,0,0,0-.11115.0913.0913,0,0,0-.101,0A.07922.07922,0,0,0,22.28315,11.11067Z" transform="translate(-1.90838)"/>
    <path d="M20.06994,11.11067a.06743.06743,0,0,0,.101,0,.07922.07922,0,0,0,0-.11115.09168.09168,0,0,0-.101,0A.07922.07922,0,0,0,20.06994,11.11067Z" transform="translate(-1.90838)"/>
    <path d="M21.95975,11.11067a.07859.07859,0,1,0,.11115-.11115.10937.10937,0,0,0-.11115,0A.07922.07922,0,0,0,21.95975,11.11067Z" transform="translate(-1.90838)"/>
    <path d="M19.74654,11.11067a.07859.07859,0,1,0,.11115-.11115.07859.07859,0,0,0-.11115.11115Z" transform="translate(-1.90838)"/>
    <path d="M19.43325,11.11067a.07922.07922,0,0,0,.11115,0,.07859.07859,0,0,0-.11115-.11115A.07922.07922,0,0,0,19.43325,11.11067Z" transform="translate(-1.90838)"/>
    <path d="M21.64647,11.11067a.06722.06722,0,0,0,.101,0,.07922.07922,0,0,0,0-.11115.09128.09128,0,0,0-.101,0A.07922.07922,0,0,0,21.64647,11.11067Z" transform="translate(-1.90838)"/>
    <path d="M21.33318,11.11067a.06744.06744,0,0,0,.101,0,.07922.07922,0,0,0,0-.11115.09169.09169,0,0,0-.101,0A.07924.07924,0,0,0,21.33318,11.11067Z" transform="translate(-1.90838)"/>
    <path d="M20.6965,11.11067a.07859.07859,0,0,0,.11115-.11115.10937.10937,0,0,0-.11115,0A.07922.07922,0,0,0,20.6965,11.11067Z" transform="translate(-1.90838)"/>
    <path d="M21.0199,11.11067a.06724.06724,0,0,0,.101,0,.07924.07924,0,0,0,0-.11115.0913.0913,0,0,0-.101,0A.07922.07922,0,0,0,21.0199,11.11067Z" transform="translate(-1.90838)"/>
    <path d="M6.842,8.98665a3.0545,3.0545,0,1,0-3.05449-3.0545A3.05807,3.05807,0,0,0,6.842,8.98665Zm0-5.6037a2.5492,2.5492,0,1,1-2.54919,2.5492A2.5518,2.5518,0,0,1,6.842,3.383Z" transform="translate(-1.90838)"/>
    <path d="M7.94681,5.68937a.7994.7994,0,1,0-.7994-.7994A.80047.80047,0,0,0,7.94681,5.68937Zm0-1.0935a.2941.2941,0,1,1-.2941.2941A.2942.2942,0,0,1,7.94681,4.59587Z" transform="translate(-1.90838)"/>
    <path d="M5.70849,7.9272a.79916.79916,0,1,0-.7994-.7994A.80048.80048,0,0,0,5.70849,7.9272Zm0-1.093a.29386.29386,0,1,1-.2941.29361A.29409.29409,0,0,1,5.70849,6.83419Z" transform="translate(-1.90838)"/>
    <path d="M6.842,10.395a3.0545,3.0545,0,1,0,3.0545,3.05449A3.05806,3.05806,0,0,0,6.842,10.395Zm0,5.60369a2.5492,2.5492,0,1,1,2.5492-2.5492A2.55179,2.55179,0,0,1,6.842,15.99867Z" transform="translate(-1.90838)"/>
    <path d="M7.94681,11.43716a.79915.79915,0,1,0,.7994.7994A.80048.80048,0,0,0,7.94681,11.43716Zm0,1.093a.29385.29385,0,1,1,.2941-.2936A.2941.2941,0,0,1,7.94681,12.53016Z" transform="translate(-1.90838)"/>
    <path d="M5.70849,13.675a.7994.7994,0,1,0,.7994.7994A.80049.80049,0,0,0,5.70849,13.675Zm0,1.0935a.2941.2941,0,1,1,.2941-.2941A.2942.2942,0,0,1,5.70849,14.76848Z" transform="translate(-1.90838)"/>
    <path d="M4.83211,20.45674H8.86563V17.69635H4.83211Zm.5053-2.25509H8.36033v1.74979H5.33741Z" transform="translate(-1.90838)"/>
    <path d="M7.62212,18.38817a.63706.63706,0,1,0,.637.63706A.63768.63768,0,0,0,7.62212,18.38817Zm-.13175.63706a.13175.13175,0,1,1,.2635,0C7.75387,19.1703,7.49037,19.1703,7.49037,19.02523Z" transform="translate(-1.90838)"/>
    <circle cx="1.59892" cy="1.86083" r="0.22255"/>
    <path d="M4.13757,2.08337A.22255.22255,0,1,0,3.915,1.86083.22251.22251,0,0,0,4.13757,2.08337Z" transform="translate(-1.90838)"/>
    <path d="M4.76778,2.08337a.22255.22255,0,1,0-.22255-.22254A.22257.22257,0,0,0,4.76778,2.08337Z" transform="translate(-1.90838)"/>
    <circle cx="3.48966" cy="1.86083" r="0.22255"/>
    <circle cx="4.11993" cy="1.86083" r="0.22255"/>
    <path d="M6.65858,2.08337A.22255.22255,0,1,0,6.436,1.86083.22256.22256,0,0,0,6.65858,2.08337Z" transform="translate(-1.90838)"/>
    <path d="M7.28879,2.08337a.22255.22255,0,1,0-.22255-.22254A.22257.22257,0,0,0,7.28879,2.08337Z" transform="translate(-1.90838)"/>
    <circle cx="6.01067" cy="1.86083" r="0.22255"/>
    <circle cx="6.64094" cy="1.86083" r="0.22255"/>
    <path d="M9.17959,2.08337A.22255.22255,0,1,0,8.957,1.86083.22256.22256,0,0,0,9.17959,2.08337Z" transform="translate(-1.90838)"/>
    <path d="M9.8098,2.08337a.22255.22255,0,1,0-.22255-.22254A.22257.22257,0,0,0,9.8098,2.08337Z" transform="translate(-1.90838)"/>
    <circle cx="8.53168" cy="1.86083" r="0.22255"/>
  </g>
</svg>
