<svg id="Flat" xmlns="http://www.w3.org/2000/svg" viewBox="0 0 32 32"><title>facemask</title><path d="M21.68,14.05a.58.58,0,0,1-.52.64H10.84a.65.65,0,0,1,0-1.27H21.16A.58.58,0,0,1,21.68,14.05Zm-.52,4.48H10.84a.65.65,0,0,0,0,1.27H21.16a.65.65,0,0,0,0-1.27ZM32,12.78v3.83c0,2.47-1.62,4.47-3.61,4.47h-1a11.7,11.7,0,0,1-4.76,6A21,21,0,0,1,16.31,30a1.3,1.3,0,0,1-.62,0,21,21,0,0,1-6.3-2.86,11.7,11.7,0,0,1-4.76-6h-1c-2,0-3.61-2-3.61-4.47V12.78c0-2.47,1.62-4.47,3.61-4.47h.53a1.91,1.91,0,0,1,1-1.55L15.47,2.12a1.23,1.23,0,0,1,1.06,0L26.85,6.76a1.91,1.91,0,0,1,1,1.55h.53C30.38,8.31,32,10.31,32,12.78Zm-27.7,7a11,11,0,0,1-.17-1.91V9.58H3.61A3,3,0,0,0,1,12.78v3.83c0,1.76,1.16,3.19,2.58,3.19Zm22.54-1.91V8.56A.65.65,0,0,0,26.5,8L16.18,3.32a.38.38,0,0,0-.36,0L5.5,8a.65.65,0,0,0-.34.6v9.33c0,3.21,1.59,5.94,4.73,8.1a20.34,20.34,0,0,0,6,2.72.34.34,0,0,0,.2,0,20.34,20.34,0,0,0,6-2.72C25.25,23.83,26.84,21.1,26.84,17.89ZM31,12.78a3,3,0,0,0-2.58-3.2h-.52v8.31a11,11,0,0,1-.17,1.91h.69c1.42,0,2.58-1.43,2.58-3.19Z"/></svg>