<svg id="Слой_1" data-name="Слой 1" xmlns="http://www.w3.org/2000/svg" viewBox="0 0 21.1217 24.99976">
  <g>
    <path d="M10.51978,17.9538a.50651.50651,0,0,0-.1308-.0174.49084.49084,0,0,0-.466.36133.4847.4847,0,0,0,.34394.59534.50033.50033,0,0,0,.12787.017.48631.48631,0,0,0,.125-.95623Z" transform="translate(-1.93915 -0.00012)"/>
    <circle cx="10.56085" cy="18.70013" r="0.48682"/>
    <path d="M14.60663,17.9364a.54954.54954,0,0,0-.12738.016.48718.48718,0,0,0,.12494.95764.47834.47834,0,0,0,.12646-.017.48484.48484,0,0,0,.34632-.59485A.49526.49526,0,0,0,14.60663,17.9364Z" transform="translate(-1.93915 -0.00012)"/>
    <path d="M20.15106,10.56244a.48682.48682,0,1,0,.48682-.48688A.48749.48749,0,0,0,20.15106,10.56244Z" transform="translate(-1.93915 -0.00012)"/>
    <path d="M19.88947,8.58459a.48644.48644,0,0,0,.5968.342.48372.48372,0,0,0,.34436-.59478.488.488,0,0,0-.4679-.36188.45081.45081,0,0,0-.12738.01746A.491.491,0,0,0,19.88947,8.58459Z" transform="translate(-1.93915 -0.00012)"/>
    <path d="M20.48627,12.19965a.51147.51147,0,0,0-.12934-.01691.48721.48721,0,0,0-.12158.95813.49881.49881,0,0,0,.12494.01648.48711.48711,0,0,0,.126-.9577Z" transform="translate(-1.93915 -0.00012)"/>
    <path d="M16.55682,17.12354h-.001a.48644.48644,0,1,0,.25671.90728.48678.48678,0,0,0-.25574-.90728Z" transform="translate(-1.93915 -0.00012)"/>
    <path d="M8.67468,17.19043a.50485.50485,0,0,0-.26446-.06641H8.40735a.49248.49248,0,0,0-.39771.24274.48636.48636,0,1,0,.89081.11768A.47668.47668,0,0,0,8.67468,17.19043Z" transform="translate(-1.93915 -0.00012)"/>
    <path d="M6.74585,15.82928a.49343.49343,0,0,0-.3454.14289.48493.48493,0,0,0-.14239.34393.49188.49188,0,0,0,.14288.34631.48775.48775,0,1,0,.68884-.69073A.49577.49577,0,0,0,6.74585,15.82928Z" transform="translate(-1.93915 -0.00012)"/>
    <circle cx="10.56085" cy="22.57532" r="0.48682"/>
    <path d="M10.95,22.08862a.48682.48682,0,1,0,.48682.48682A.4875.4875,0,0,0,10.95,22.08862Z" transform="translate(-1.93915 -0.00012)"/>
    <circle cx="12.1109" cy="22.57532" r="0.48682"/>
    <path d="M5.11005,12.54163a.49448.49448,0,0,0-.47425-.35938l-.12256.016a.48725.48725,0,0,0,.12647.95764.49561.49561,0,0,0,.12494-.01648A.48987.48987,0,0,0,5.11005,12.54163Z" transform="translate(-1.93915 -0.00012)"/>
    <path d="M5.44135,14.14453H5.44086a.4956.4956,0,0,0-.23249.06537.48735.48735,0,1,0,.66553.1778A.49507.49507,0,0,0,5.44135,14.14453Z" transform="translate(-1.93915 -0.00012)"/>
    <path d="M18.25464,15.82928a.49265.49265,0,0,0-.34491.14289.48707.48707,0,1,0,.68835,0A.4993.4993,0,0,0,18.25464,15.82928Z" transform="translate(-1.93915 -0.00012)"/>
    <path d="M10.39478,3.18939a.50026.50026,0,0,0,.12548-.01648.48691.48691,0,0,0-.12933-.95715l-.12256.016a.487.487,0,0,0,.12641.95764Z" transform="translate(-1.93915 -0.00012)"/>
    <path d="M4.51324,8.92657a.50046.50046,0,0,0,.12787.017.4871.4871,0,0,0,.1192-.9591.581.581,0,0,0-.12646-.01453.49006.49006,0,0,0-.46454.36139.48617.48617,0,0,0,.34393.59527Z" transform="translate(-1.93915 -0.00012)"/>
    <path d="M23.06085,10.561A10.56085,10.56085,0,1,0,9.30811,20.63666L9.29828,22.106H8.234a2.0311,2.0311,0,0,0-2.02893,2.02844l-.00977.86542H18.79486v-.86542A2.031,2.031,0,0,0,16.766,22.106l-1.0741-.00977.00684-1.46936A10.52455,10.52455,0,0,0,23.06085,10.561ZM16.766,23.06085a1.05081,1.05081,0,0,1,1.05988.98419l-10.6615-.0108A1.06542,1.06542,0,0,1,8.234,23.06085l2.02893.00977.01172-2.18817a10.60513,10.60513,0,0,0,2.22534.239,11.4832,11.4832,0,0,0,2.23706-.22919l-.00977,2.16864ZM12.5,20.16656A9.6058,9.6058,0,1,1,22.106,10.561,9.61648,9.61648,0,0,1,12.5,20.16656Z" transform="translate(-1.93915 -0.00012)"/>
    <path d="M4.84894,10.56244a.48682.48682,0,1,0-.48682.48682A.4875.4875,0,0,0,4.84894,10.56244Z" transform="translate(-1.93915 -0.00012)"/>
    <path d="M18.24011,14.77179a2.93536,2.93536,0,0,0,.21411-2.54938,4.49484,4.49484,0,0,0-2.05822-2.2088,4.42917,4.42917,0,0,0-1.90223-.50671c-.1405-.00922-.27514-.01551-.3977-.01837l-.3092.00274-.01478-.0003a3.2031,3.2031,0,0,1,.67176-1.98413l.13855-.18653a2.80955,2.80955,0,0,0,.72949-1.79565,2.00739,2.00739,0,0,0-.70331-1.59125A2.13466,2.13466,0,0,0,13.275,3.48779a2.93512,2.93512,0,0,0-2.31591,1.08747,4.51335,4.51335,0,0,0-.88355,2.887,4.40661,4.40661,0,0,0,.513,1.89978,1.74591,1.74591,0,0,0,.36585.56659.42171.42171,0,0,0,.04107.03613,3.3566,3.3566,0,0,1-1.6557.47071,4.35177,4.35177,0,0,1-.45727-.02759l-.2262-.02667a5.62088,5.62088,0,0,0-.7019-.05665,2.35274,2.35274,0,0,0-1.22455.32166,2.00236,2.00236,0,0,0-1.02448,1.40424,2.11722,2.11722,0,0,0,.28,1.37713A2.93516,2.93516,0,0,0,8.08374,14.89a3.3359,3.3359,0,0,0,.53815.04261,4.838,4.838,0,0,0,2.405-.72077,4.37,4.37,0,0,0,1.38684-1.39361,1.70957,1.70957,0,0,0,.3045-.58869c.0044-.01806.0202-.04681.02149-.062A3.2617,3.2617,0,0,1,14.17456,13.774l.09155.21216a2.81253,2.81253,0,0,0,1.1911,1.53021,2.17688,2.17688,0,0,0,1.08216.30609,1.77592,1.77592,0,0,0,.64715-.11914A2.12917,2.12917,0,0,0,18.24011,14.77179ZM12.5,9.88666a.67575.67575,0,1,1-.67572.67578A.6687.6687,0,0,1,12.5,9.88666Zm-1.565,1.17859a1.66412,1.66412,0,0,0,.66943.86944,1.81883,1.81883,0,0,0,.15082.103c-.042.07153-.08466.14416-.14508.23267a3.92054,3.92054,0,0,1-1.06958,1.09912,3.93605,3.93605,0,0,1-1.91577.589,2.38184,2.38184,0,0,1-.38367-.03052,1.92575,1.92575,0,0,1-1.41345-.9867,1.211,1.211,0,0,1-.16034-.744.93715.93715,0,0,1,.5498-.70722,1.34332,1.34332,0,0,1,.71643-.1991,4.35341,4.35341,0,0,1,.53089.047l.3139.03778a4.76545,4.76545,0,0,0,.49652.0271,4.35454,4.35454,0,0,0,1.6521-.3352ZM12.84735,8.957A1.46515,1.46515,0,0,0,12.5,8.913a1.61706,1.61706,0,0,0-.901.27613c-.04212-.0741-.08569-.15161-.13416-.25141a3.70173,3.70173,0,0,1-.41565-1.47546,3.55719,3.55719,0,0,1,.66657-2.27283,1.925,1.925,0,0,1,1.55926-.728,1.21344,1.21344,0,0,1,.72516.23254.94511.94511,0,0,1,.33808.83069,1.6899,1.6899,0,0,1-.49359,1.15771l-.18842.25092a4.329,4.329,0,0,0-.79889,1.97876C12.85468,8.92828,12.84985,8.94061,12.84735,8.957ZM15.94354,14.673a1.6897,1.6897,0,0,1-.75464-1.00464l-.12451-.28961a4.2989,4.2989,0,0,0-1.34613-1.71191,1.62564,1.62564,0,0,0,.43109-1.10437c0-.032-.002-.063-.00482-.09351.08478.00049.17145.00238.28.01062a3.87152,3.87152,0,0,1,1.48517.37592,3.57031,3.57031,0,0,1,1.6358,1.71332A1.92885,1.92885,0,0,1,17.3963,14.285a1.19052,1.19052,0,0,1-.56482.51154.842.842,0,0,1-.30713.06055A1.165,1.165,0,0,1,15.94354,14.673Z" transform="translate(-1.93915 -0.00012)"/>
    <path d="M6.74536,5.29462a.48662.48662,0,0,0,.34442-.83271.4996.4996,0,0,0-.34784-.14.48208.48208,0,0,0-.342.14148.48661.48661,0,0,0,.3454.83124Z" transform="translate(-1.93915 -0.00012)"/>
    <path d="M8.43152,4.00171H8.432a.48522.48522,0,0,0,.46844-.36084A.47294.47294,0,0,0,8.852,3.27173a.49093.49093,0,0,0-.43353-.24414H8.418a.49386.49386,0,0,0-.45728.36041.48221.48221,0,0,0,.04895.37006A.48867.48867,0,0,0,8.43152,4.00171Z" transform="translate(-1.93915 -0.00012)"/>
    <path d="M19.54749,15.11914a.489.489,0,0,0,.421-.24365.49559.49559,0,0,0,.04938-.37012.485.485,0,0,0-.22619-.294.505.505,0,0,0-.264-.06634h-.00342a.49666.49666,0,0,0-.40008.24365.4906.4906,0,0,0,.18017.66455A.4831.4831,0,0,0,19.54749,15.11914Z" transform="translate(-1.93915 -0.00012)"/>
    <path d="M5.20886,6.91541a.4827.4827,0,0,0,.24268.06536.49076.49076,0,0,0,.42236-.24365A.48375.48375,0,0,0,5.69666,6.074a.50164.50164,0,0,0-.265-.06683H5.42828a.48684.48684,0,0,0-.39575.2417.47526.47526,0,0,0-.04986.37152A.48981.48981,0,0,0,5.20886,6.91541Z" transform="translate(-1.93915 -0.00012)"/>
    <path d="M18.25366,5.29553a.48682.48682,0,1,0-.34393-.83069.48654.48654,0,0,0,.34393.83069Z" transform="translate(-1.93915 -0.00012)"/>
    <circle cx="10.56085" cy="2.42444" r="0.48682"/>
    <path d="M19.54749,6.9798a.49.49,0,0,0,.24365-.06537.48512.48512,0,0,0,.1773-.66461.49542.49542,0,0,0-.433-.24317h-.00049a.48666.48666,0,0,0,.01258.97315Z" transform="translate(-1.93915 -0.00012)"/>
    <path d="M14.47974,3.17291a.5.5,0,0,0,.12786.017.48739.48739,0,0,0,.125-.95813.47853.47853,0,0,0-.12695-.0155h-.00384a.48664.48664,0,0,0-.12207.95666Z" transform="translate(-1.93915 -0.00012)"/>
    <path d="M16.32526,3.93634a.48381.48381,0,0,0,.66314-.17682.48462.48462,0,0,0-.17584-.665.50428.50428,0,0,0-.264-.0664h-.00341a.48728.48728,0,0,0-.21991.90826Z" transform="translate(-1.93915 -0.00012)"/>
  </g>
</svg>
