<svg id="Слой_1" data-name="Слой 1" xmlns="http://www.w3.org/2000/svg" viewBox="0 0 21.42651 25">
  <g>
    <path d="M23.1954,23.24268a.84131.84131,0,0,0-.88527-.8035.173.173,0,0,1-.20151-.16188c-.09948-.47974-.2015-.95778-.30015-1.43668-.10708-.51683-.20994-1.03366-.317-1.5505q-.172-.8309-.3499-1.6601c-.01939-.08853.01012-.12478.09864-.12478.129,0,.258.00505.38531-.00591a.43859.43859,0,0,0-.03372-.86926,3.02547,3.02547,0,0,0-.371.00169c-.13827.01349-.17537-.04469-.16609-.17115.02614-.38447.04553-.76893.07082-1.15339.05227-.80181.10792-1.60278.161-2.40459.03288-.49744.0666-.99572.09611-1.494.0059-.09527.04469-.1349.14249-.13068.14249.0059.28582.00422.42915.00084a.434.434,0,0,0,.44433-.45613.43917.43917,0,0,0-.44854-.44011,2.835,2.835,0,0,0-.328.00169c-.13743.01349-.172-.04216-.16272-.172.0548-.75375.10454-1.5075.15345-2.26209.059-.9013.11887-1.80175.16947-2.70389.00842-.13659.04552-.19729.18717-.2268a.7577.7577,0,0,0,.64414-.73268,2.84371,2.84371,0,0,0-.09358-.844,2.46143,2.46143,0,0,0-2.43409-1.784c-1.52858.02192-3.05716.00337-4.58574.01011-.14249,0-.21247-.04384-.23692-.177a.68994.68994,0,0,0-.0194-.06829A2.01074,2.01074,0,0,0,13.46747.013c-.61885-.01939-1.23771-.0118-1.85655-.01012a1.49762,1.49762,0,0,0-.3676.04469,2.02549,2.02549,0,0,0-1.51678,1.4586.19386.19386,0,0,1-.21921.16188c-1.57158-.00506-3.14316-.00759-4.71474.00084a2.294,2.294,0,0,0-.70148.10624,2.48816,2.48816,0,0,0-1.72924,2.311.85554.85554,0,0,0,.715.94936c.09865.01517.12309.06745.129.1526.04468.68293.09274,1.36586.13658,2.04879.03289.49744.06155.99572.09274,1.494s.0624.99657.09865,1.494c.00843.11551-.02192.16862-.1467.15935a3.03863,3.03863,0,0,0-.37182,0,.44743.44743,0,0,0,.00675.89371c.14754.00422.29509.00674.44264,0,.10791-.00422.13911.04384.145.14333.02277.36.054.72.07757,1.08q.0961,1.51635.18886,3.03271c.02023.31785.03962.63571.06155.95357.00674.10117-.02445.15007-.13575.14333-.12815-.00759-.25715-.00338-.3853-.00085a.43717.43717,0,0,0-.00928.87263c.11467.00506.22849.00254.34316.00169.08683-.00084.12056.03288.10032.12309-.08262.38615-.16272.77231-.24281,1.15846q-.18339.87894-.36592,1.75875-.17958.865-.35748,1.73092a.17346.17346,0,0,1-.20067.16357.86076.86076,0,0,0-.89539.9013c-.00169.25293-.00338.505.00084.758a.81635.81635,0,0,0,.5337.8153,1.53317,1.53317,0,0,0,.52948.08178q4.81338.00633,9.62845.00338h9.3148c.17116,0,.34315.00337.51431-.00169a.86582.86582,0,0,0,.88865-.82626A6.6884,6.6884,0,0,0,23.1954,23.24268ZM10.66746,1.50026A1.18323,1.18323,0,0,1,11.69775.88815q.798-.01137,1.59772,0a1.18043,1.18043,0,0,1,1.02271.59946,1.28221,1.28221,0,0,1,.06913.16694H10.61519A.75966.75966,0,0,1,10.66746,1.50026ZM3.43854,4.151c-.21584,0-.22933-.016-.19308-.226a1.62463,1.62463,0,0,1,1.61711-1.3726q7.65639-.00128,15.31361,0A1.60039,1.60039,0,0,1,21.7073,3.77584c.08684.37519.08684.37519-.29847.37519Zm17.015,6.23236c-.06576-.00338-.13321-.00085-.19981-.00085H4.71c-.05733,0-.11466-.00337-.172,0-.097.0059-.13153-.03541-.13659-.13321-.02613-.49407-.059-.9873-.09106-1.48052-.05142-.79254-.10539-1.58423-.15682-2.37592C4.12906,6.00843,4.108,5.624,4.08437,5.2395c-.01181-.183-.00675-.19054.18295-.19054H20.69724c.22764,0,.22342,0,.20825.2327-.04975.774-.09443,1.54713-.14418,2.32111-.05564.88191-.11551,1.76381-.17031,2.64656C20.5851,10.34713,20.54969,10.3876,20.45357,10.38339Zm.04806,1.11292c-.0489.7782-.09359,1.5564-.14248,2.3346-.05565.887-.11551,1.77393-.17116,2.66174-.0059.09274-.04131.14248-.13911.13658-.03373-.00169-.06661,0-.10033,0H5.03288c-.21331,0-.21584,0-.22848-.20488q-.07589-1.204-.15008-2.40627-.08094-1.2672-.16441-2.53358c-.01349-.20234-.01349-.20488.19729-.20488H20.30265C20.51765,11.27962,20.51512,11.27962,20.50163,11.49631ZM22.338,23.49477c-.01012.1661-.00422.333-.00169.5.00085.07925-.03035.11382-.11045.10877-.0666-.00422-.13321-.00085-.19982-.00085q-9.58629-.00126-19.17173-.00084c-.1973,0-.19814,0-.19814-.19139,0-.15682.00253-.31364,0-.4713-.00168-.0801.03035-.11045.11045-.10708.11382.00421.22849.00084.34315.00084h.641a.24625.24625,0,0,0,.02634.00266.251.251,0,0,0,0-.502l-.02062.00208v-.463a.75134.75134,0,0,1,.02024-.12562c.10961-.5202.21415-1.0421.32376-1.56315.12562-.59946.25462-1.19892.38109-1.79838.08178-.39036.16525-.78157.24029-1.17362.03963-.20151.0371-.20741.24535-.20741h15.07c.19392,0,.19476.01012.23354.20488.07757.40133.1661.801.24873,1.2006q.16314.78158.32376,1.56315.12519.59946.25293,1.19976c.04469.21331.09022.42747.13659.64077a.24946.24946,0,0,1,.0059.04638v.48071a.25033.25033,0,0,0,0,.48779v.00277l.01388,0a.21827.21827,0,0,0,.08721-.00008q.4136-.00022.82719-.00075C22.29664,23.33036,22.34722,23.359,22.338,23.49477Z" transform="translate(-1.78675 0)"/>
    <path d="M14.1792,8.11261a.54769.54769,0,0,1-.01961-.74342c.11542-.16214.25341-.308.37641-.465a1.33872,1.33872,0,0,0,.307-.81148c.00459-.22657-.11009-.3598-.30705-.36775a.31148.31148,0,0,0-.34651.34357.659.659,0,0,1-.18753.44871c-.07443.08-.15264.15684-.22286.24038a1.39947,1.39947,0,0,0-.392,1.119,1.67692,1.67692,0,0,0,.534.95174.77768.77768,0,0,1,.27027.56.29607.29607,0,0,0,.22729.30854c.24243.06615.425-.08508.4252-.40221a1.31443,1.31443,0,0,0-.33532-.80755C14.39881,8.36216,14.28129,8.24343,14.1792,8.11261Z" transform="translate(-1.78675 0)"/>
    <path d="M10.30087,7.126a5.49069,5.49069,0,0,0,.37724-.53235.79965.79965,0,0,0,.09916-.64423.31.31,0,0,0-.317-.23328.316.316,0,0,0-.30431.28911.86762.86762,0,0,1-.30866.63174,1.60589,1.60589,0,0,0-.523,1.07981c.01622.09792.02688.19716.04965.29352a1.77715,1.77715,0,0,0,.51105.82458.74809.74809,0,0,1,.26528.53218.30745.30745,0,0,0,.34672.34.31664.31664,0,0,0,.30613-.37011,1.2459,1.2459,0,0,0-.20649-.65792c-.12765-.17111-.26488-.33509-.39823-.502a.61892.61892,0,0,1,.024-.96843C10.24745,7.18012,10.27866,7.15641,10.30087,7.126Z" transform="translate(-1.78675 0)"/>
    <path d="M12.25864,7.19844a6.26286,6.26286,0,0,0,.42346-.57028.81419.81419,0,0,0,.11659-.6818.3144.3144,0,0,0-.32105-.22994.305.305,0,0,0-.296.27922.97788.97788,0,0,1-.35349.6895,1.50579,1.50579,0,0,0-.47589,1.05146,1.5041,1.5041,0,0,0,.47309,1.00748.98459.98459,0,0,1,.35643.68815.29063.29063,0,0,0,.33517.27655.304.304,0,0,0,.29931-.317,1.34986,1.34986,0,0,0-.36723-.94709c-.10732-.127-.21683-.25244-.31775-.38439a.49187.49187,0,0,1-.08847-.545A2.22431,2.22431,0,0,1,12.25864,7.19844Z" transform="translate(-1.78675 0)"/>
    <path d="M14.45392,13.24364a1.46766,1.46766,0,0,0,.38989-.91265c.0024-.23248-.10931-.364-.31757-.37374-.19676-.0092-.32925.1255-.338.35675a.65523.65523,0,0,1-.17672.4239,5.74764,5.74764,0,0,0-.385.45829,1.24025,1.24025,0,0,0-.24471.85824,1.542,1.542,0,0,0,.46392.92491.97921.97921,0,0,1,.35322.67335c.00359.20665.15461.30033.36678.28231a.30463.30463,0,0,0,.27754-.33634,1.36516,1.36516,0,0,0-.41357-.971,3.13967,3.13967,0,0,1-.30175-.35987A.51423.51423,0,0,1,14.139,13.631C14.23733,13.497,14.34671,13.37094,14.45392,13.24364Z" transform="translate(-1.78675 0)"/>
    <path d="M10.36974,13.28891a1.59753,1.59753,0,0,0,.43381-.92524.33851.33851,0,0,0-.30193-.40612c-.20939-.0156-.33322.12029-.35746.35275a.89.89,0,0,1-.11466.34394,1.8087,1.8087,0,0,1-.24138.2797,1.58881,1.58881,0,0,0-.46363,1.005c.01541.09824.02527.19774.04721.29451a1.86,1.86,0,0,0,.55556.88036.67844.67844,0,0,1,.2227.47751c.00374.23407.12313.35039.34078.345a.31473.31473,0,0,0,.313-.36233,1.34644,1.34644,0,0,0-.31092-.82463c-.14706-.17377-.30052-.34332-.4332-.52766a.3927.3927,0,0,1-.04709-.45618A3.93465,3.93465,0,0,1,10.36974,13.28891Z" transform="translate(-1.78675 0)"/>
    <path d="M12.40239,13.276a1.41337,1.41337,0,0,0,.41444-.9997.30193.30193,0,0,0-.3106-.31992.2938.2938,0,0,0-.32741.28529.88291.88291,0,0,1-.29286.6106,1.59481,1.59481,0,0,0-.53372,1.13385,1.55839,1.55839,0,0,0,.50794,1.03269.915.915,0,0,1,.32042.64286c.0032.18919.14577.28482.34629.27452a.29029.29029,0,0,0,.28955-.30672,1.29958,1.29958,0,0,0-.34923-.93672,5.41593,5.41593,0,0,1-.37478-.44656.46844.46844,0,0,1-.00508-.58435C12.18529,13.528,12.29364,13.40141,12.40239,13.276Z" transform="translate(-1.78675 0)"/>
    <path d="M12.497,17.974a1.999,1.999,0,1,0,1.94508,1.99736A1.9679,1.9679,0,0,0,12.497,17.974Zm-.00844,3.31937a1.32458,1.32458,0,1,1,1.29841-1.3119A1.30781,1.30781,0,0,1,12.4886,21.29338Z" transform="translate(-1.78675 0)"/>
    <path d="M8.09313,20.93144a.95742.95742,0,1,0-.93564-.96617A.93725.93725,0,0,0,8.09313,20.93144ZM8.084,19.68807a.27741.27741,0,0,1,.28012.27905.26891.26891,0,0,1-.263.2913.28458.28458,0,0,1-.28483-.27521A.28763.28763,0,0,1,8.084,19.68807Z" transform="translate(-1.78675 0)"/>
    <path d="M18.89617,20.93147a.95772.95772,0,1,0-.93026-.95617A.93592.93592,0,0,0,18.89617,20.93147ZM18.903,19.688a.28477.28477,0,0,1,.27211.2898.27956.27956,0,0,1-.27744.28079A.28559.28559,0,0,1,18.903,19.688Z" transform="translate(-1.78675 0)"/>
    <path d="M16.85745,19.0148a.95856.95856,0,1,0,.92652.97107A.93173.93173,0,0,0,16.85745,19.0148ZM16.852,20.25873a.286.286,0,0,1-.27425-.2886.29281.29281,0,0,1,.2847-.28176.298.298,0,0,1,.27774.29081A.30346.30346,0,0,1,16.852,20.25873Z" transform="translate(-1.78675 0)"/>
    <path d="M6.05853,19.01506a.95882.95882,0,1,0,.91731.96494A.93307.93307,0,0,0,6.05853,19.01506ZM6.05469,20.259a.28524.28524,0,0,1-.00983-.57032.28732.28732,0,0,1,.28537.28027A.29616.29616,0,0,1,6.05469,20.259Z" transform="translate(-1.78675 0)"/>
    <path d="M12.49817,19.12362a.314.314,0,0,0-.32185.3416c-.00315.18073-.00066.36157-.00071.54236s-.00279.36163.00068.54235a.32.32,0,1,0,.6398.00285q.00573-.54231.00015-1.08471A.31291.31291,0,0,0,12.49817,19.12362Z" transform="translate(-1.78675 0)"/>
    <path d="M4.42585,22.83352a.251.251,0,1,0,.251.251A.251.251,0,0,0,4.42585,22.83352Z" transform="translate(-1.78675 0)"/>
    <circle cx="3.28794" cy="23.08453" r="0.25101"/>
    <path d="M5.72353,22.83352a.251.251,0,1,0,.251.251A.251.251,0,0,0,5.72353,22.83352Z" transform="translate(-1.78675 0)"/>
    <circle cx="4.58561" cy="23.08453" r="0.25101"/>
    <circle cx="5.23445" cy="23.08453" r="0.25101"/>
    <path d="M7.67,22.83352a.251.251,0,1,0,.251.251A.251.251,0,0,0,7.67,22.83352Z" transform="translate(-1.78675 0)"/>
    <circle cx="6.53213" cy="23.08453" r="0.25101"/>
    <path d="M8.96771,22.83352a.251.251,0,1,0,.251.251A.251.251,0,0,0,8.96771,22.83352Z" transform="translate(-1.78675 0)"/>
    <circle cx="7.8298" cy="23.08453" r="0.25101"/>
    <path d="M10.26538,22.83352a.251.251,0,1,0,.251.251A.251.251,0,0,0,10.26538,22.83352Z" transform="translate(-1.78675 0)"/>
    <circle cx="9.12747" cy="23.08453" r="0.25101"/>
    <circle cx="9.77631" cy="23.08453" r="0.25101"/>
    <path d="M12.21189,22.83352a.251.251,0,1,0,.251.251A.251.251,0,0,0,12.21189,22.83352Z" transform="translate(-1.78675 0)"/>
    <circle cx="11.07399" cy="23.08453" r="0.25101"/>
    <path d="M13.50957,22.83352a.251.251,0,1,0,.251.251A.251.251,0,0,0,13.50957,22.83352Z" transform="translate(-1.78675 0)"/>
    <circle cx="12.37166" cy="23.08453" r="0.25101"/>
    <path d="M14.80724,22.83352a.251.251,0,1,0,.251.251A.251.251,0,0,0,14.80724,22.83352Z" transform="translate(-1.78675 0)"/>
    <circle cx="13.66933" cy="23.08453" r="0.25101"/>
    <path d="M16.10492,22.83352a.251.251,0,1,0,.251.251A.251.251,0,0,0,16.10492,22.83352Z" transform="translate(-1.78675 0)"/>
    <circle cx="14.96701" cy="23.08453" r="0.25101"/>
    <circle cx="15.61585" cy="23.08453" r="0.25101"/>
    <path d="M18.05142,22.83352a.251.251,0,1,0,.251.251A.251.251,0,0,0,18.05142,22.83352Z" transform="translate(-1.78675 0)"/>
    <circle cx="16.91352" cy="23.08453" r="0.25101"/>
    <path d="M19.3491,22.83352a.251.251,0,1,0,.251.251A.251.251,0,0,0,19.3491,22.83352Z" transform="translate(-1.78675 0)"/>
    <circle cx="18.21119" cy="23.08453" r="0.25101"/>
    <path d="M20.64678,22.83352a.251.251,0,1,0,.251.251A.251.251,0,0,0,20.64678,22.83352Z" transform="translate(-1.78675 0)"/>
  </g>
</svg>
