<svg id="Capa_1" data-name="Capa 1" xmlns="http://www.w3.org/2000/svg" viewBox="0 0 32 32"><title>grocery</title><path d="M20.37,14.25l.18,0a.56.56,0,0,0,.52-.38,1,1,0,0,1,1.24-.62A2.09,2.09,0,0,0,25,12a.57.57,0,0,0-.35-.72.55.55,0,0,0-.7.35,1,1,0,0,1-1.24.62A2.09,2.09,0,0,0,20,13.54.56.56,0,0,0,20.37,14.25Z"/><path d="M21.68,10.33l.18,0a.57.57,0,0,0,.53-.38,1,1,0,0,1,1.24-.62A2.09,2.09,0,0,0,26.28,8a.57.57,0,0,0-.35-.71.55.55,0,0,0-.71.35A1,1,0,0,1,24,8.29a2,2,0,0,0-1.59.1,2.13,2.13,0,0,0-1.06,1.22A.58.58,0,0,0,21.68,10.33Z"/><path d="M23,6.4a.47.47,0,0,0,.17,0,.55.55,0,0,0,.53-.38.73.73,0,0,1,.92-.46A1.8,1.8,0,0,0,26,5.5a1.84,1.84,0,0,0,.92-1.07.56.56,0,0,0-.35-.71.55.55,0,0,0-.7.35.73.73,0,0,1-.92.46,1.82,1.82,0,0,0-2.32,1.16A.55.55,0,0,0,23,6.4Z"/><path d="M27,14.21a.78.78,0,0,0-.32-.12A40.06,40.06,0,0,0,28.5,3.5,3.79,3.79,0,0,0,27,.35a2.24,2.24,0,0,0-2.37,0c-1.66.87-2.84,3.42-3.8,5.47-.05.12-.11.24-.16.35a3.26,3.26,0,0,0-1.76-2.26,2.66,2.66,0,0,0-2.06-2.07,1.16,1.16,0,0,0,0-.18A1.89,1.89,0,0,0,14,.5a2.1,2.1,0,0,0-1-.25,2,2,0,0,0-2,1.59A2.53,2.53,0,0,0,9.2,4.26,2.8,2.8,0,0,0,7.12,7,3,3,0,0,0,7.3,8,2.23,2.23,0,0,0,6.82,9.4a2.16,2.16,0,0,0,.18.88A3,3,0,0,0,4.79,9.2a.57.57,0,0,0,0,1.13h.06a1.92,1.92,0,0,1,1.35.75A3.83,3.83,0,0,0,3.77,12.7a3,3,0,0,0-.13,2.08.94.94,0,0,0-.14.55L4.45,29A3.18,3.18,0,0,0,7.61,32H23.2a3.18,3.18,0,0,0,3.16-3l1-14.09h0A.73.73,0,0,0,27,14.21ZM21.09,7.75c.22-.41.46-.93.72-1.48.83-1.79,2-4.26,3.3-4.95a1.19,1.19,0,0,1,1.27,0,2.73,2.73,0,0,1,1,2.17A39.17,39.17,0,0,1,25.6,13.88c0,.12-.11.36-.23.69l-.94.42-.06,0a1.8,1.8,0,0,1-.89.26A1.73,1.73,0,0,1,22.6,15l-.4-.24a2.92,2.92,0,0,0-1.48-.41h0a2.86,2.86,0,0,0-1.49.41l-.4.24a1.65,1.65,0,0,1-.71.23c0-.05,0-.1,0-.14.15-.53.31-1,.48-1.56.07-.19.14-.39.2-.58l.45-1.21.21-.53C20,10,20.51,8.87,21.09,7.75ZM14,9.09l.19-.25h0a1.88,1.88,0,0,0,.12-.18,1.28,1.28,0,0,0,.1-.84l2.32-.52a1.05,1.05,0,0,0,.06.21,1.24,1.24,0,0,0,.55.63l.26.14.23.12.11.06.19.12.16.11.18.14.15.14.16.16a2.88,2.88,0,0,1,.23.34c-.24.53-.46,1.07-.67,1.61l-.1.25a5.81,5.81,0,0,0-1.93,1A3.21,3.21,0,0,1,13.6,13l-.33-1.56A2.58,2.58,0,0,1,14,9.09Zm2.76-3.42h0a.24.24,0,0,1,.23.19A.25.25,0,0,1,17,6a.2.2,0,0,1-.14.1l-3.07.69a.24.24,0,0,1-.27-.18.23.23,0,0,1,.17-.28L15.33,6ZM15,14.38h-.13a2.74,2.74,0,0,0-.88.24l-.11-.5.47,0A4.26,4.26,0,0,0,17,13.22a7.37,7.37,0,0,1,.77-.49l-.15.45c0,.1-.08.21-.11.31-.17.5-.32,1-.47,1.52l-.37-.23a2.86,2.86,0,0,0-1.47-.41H15ZM8.33,8.56l.36-.31-.24-.41A1.79,1.79,0,0,1,8.23,7,1.67,1.67,0,0,1,9.83,5.3l.68,0-.16-.67a1.22,1.22,0,0,1,0-.32,1.4,1.4,0,0,1,1.27-1.4l.52,0V2.28A.93.93,0,0,1,13,1.37a.92.92,0,0,1,.62.25L14,2l.37-.37a.78.78,0,0,1,1.3.35.77.77,0,0,1,0,.3l-.07.63h.63a1.53,1.53,0,0,1,1.52,1.44l0,.37.34.12a2.14,2.14,0,0,1,1.42,2.08A2,2,0,0,1,19.25,8a6.35,6.35,0,0,0-1.11-.71l-.26-.14a.13.13,0,0,1-.06-.1.3.3,0,0,1,.07-.25,1.22,1.22,0,0,0,.27-1l-.07-.31a1.18,1.18,0,0,0-.52-.75,1.12,1.12,0,0,0-.89-.16l-.15,0h0l-1.64.36-1.59.35a1.2,1.2,0,0,0-.74.53,1.19,1.19,0,0,0-.16.9l0,.16h0l0,.15a1.16,1.16,0,0,0,.68.84.35.35,0,0,1,.19.19s0,.06,0,.11h0a2,2,0,0,1-.17.23L13,8.64l-.07.09-.13.19L12.67,9l-.12.2-.07.12-.12.25s0,.07,0,.11a2.43,2.43,0,0,0-.13.38.2.2,0,0,0,0,.07,2.08,2.08,0,0,0-.06.36.76.76,0,0,0,0,.15,1.36,1.36,0,0,0,0,.2h0l0,0a3.51,3.51,0,0,0-.29-.36l-.09-.1a2,2,0,0,0-.25-.25.3.3,0,0,0-.08-.08A2.51,2.51,0,0,0,11,9.79L11,9.73l-.24-.15-.11-.06-.25-.1-.09,0L10,9.31H9.71l-.13,0h0l-.26,0-.12,0-.32.08H8.79a3.2,3.2,0,0,0-.78.4,1.15,1.15,0,0,1-.08-.41A1,1,0,0,1,8.33,8.56ZM4.76,13.23c.23-.45.8-.79,1.79-1.08a2.91,2.91,0,0,0,1.25-.72,5.39,5.39,0,0,1,.45-.4,2.46,2.46,0,0,1,1.18-.62h0a1.13,1.13,0,0,1,.32,0l.09,0,.15.05.1,0,.15.07.11.08.13.1a1.5,1.5,0,0,1,.13.11l.13.12.14.16a.69.69,0,0,1,.11.13,1.66,1.66,0,0,1,.16.21l.11.13.18.28.08.12q.14.21.27.45a4.36,4.36,0,0,1,.36,2.75h-.09a1.68,1.68,0,0,1-.6-.22l-.39-.24a2.92,2.92,0,0,0-1.48-.41h0a2.75,2.75,0,0,0-1.49.41l-.2.12a2.12,2.12,0,0,1-1.09.31,2.17,2.17,0,0,1-1.09-.31L5,14.44H5a1,1,0,0,0-.32-.12A1.68,1.68,0,0,1,4.76,13.23ZM25.26,28.9a2.07,2.07,0,0,1-2.05,2H7.61a2.07,2.07,0,0,1-2.05-2L4.63,15.57l.49.3a3.29,3.29,0,0,0,3.39,0l.2-.12a1.69,1.69,0,0,1,1.77,0l.4.24a2.77,2.77,0,0,0,1.63.4h.16a2.75,2.75,0,0,0,1.1-.36.38.38,0,0,0,.1,0l.39-.24a1.69,1.69,0,0,1,.89-.25,1.66,1.66,0,0,1,.88.25l.4.24a2.91,2.91,0,0,0,1.36.41h0a3.85,3.85,0,0,0,.48,0l.28-.06.13,0a2.75,2.75,0,0,0,.71-.3h0l.4-.24a1.69,1.69,0,0,1,1.77,0L22,16a2.8,2.8,0,0,0,1.48.41h0A2.9,2.9,0,0,0,25,16L26,15.52l.06,0,.08,0Z"/><path d="M6.83,24.22h3.89a.57.57,0,0,0,0-1.13H6.83a.57.57,0,0,0,0,1.13Z"/><path d="M6.83,26.47h5a.56.56,0,0,0,.56-.56.57.57,0,0,0-.56-.57h-5a.57.57,0,0,0-.55.57A.56.56,0,0,0,6.83,26.47Z"/><path d="M12.94,27.6H6.83a.56.56,0,0,0,0,1.12h6.11a.56.56,0,1,0,0-1.12Z"/><path d="M16.28,27.6H15.17a.56.56,0,0,0,0,1.12h1.11a.56.56,0,0,0,0-1.12Z"/></svg>