<svg id="Слой_1" data-name="Слой 1" xmlns="http://www.w3.org/2000/svg" viewBox="0 0 25.0038 19.09528">
  <g>
    <path d="M21.89867,7.02127a1.61531,1.61531,0,0,1,1.17212.2851,2.55761,2.55761,0,0,0,1.53119.39068.3518.3518,0,1,0,0-.6969A1.5623,1.5623,0,0,1,23.451,6.715a2.59387,2.59387,0,0,0-1.55231-.39069.34848.34848,0,0,0-.07391,0,.35176.35176,0,0,0,.07391.697Z" transform="translate(0.0019 -2.95236)"/>
    <path d="M24.602,8.68967a1.56231,1.56231,0,0,1-1.151-.2851,2.59344,2.59344,0,0,0-1.55231-.39068.33947.33947,0,0,0-.07391,0,.35172.35172,0,0,0,.07391.69689,1.61565,1.61565,0,0,1,1.17212.2851,2.55705,2.55705,0,0,0,1.53119.39075.35183.35183,0,1,0,0-.697Z" transform="translate(0.0019 -2.95236)"/>
    <path d="M24.602,10.37924a1.5623,1.5623,0,0,1-1.151-.28515,2.59387,2.59387,0,0,0-1.55231-.39069.34848.34848,0,0,0-.07391,0,.35176.35176,0,0,0,.07391.697,1.61531,1.61531,0,0,1,1.17212.2851,2.55761,2.55761,0,0,0,1.53119.39068.3518.3518,0,1,0,0-.6969Z" transform="translate(0.0019 -2.95236)"/>
    <path d="M19.62041,4.72977l-8.941-1.49353c-.588-.098-1.16577-.17237-1.72668-.21625L6.94207,2.95236c-.55078.00342-1.132.03046-1.73.08447l-.044.00342a5.68982,5.68982,0,0,0-3.28784,9.894L5.577,20.61148A2.55413,2.55413,0,0,0,7.8612,22.04764H9.63189a.92592.92592,0,0,0,.65552-1.57807L10.034,20.2128a1.15966,1.15966,0,0,1-.31763-.56769l-.31415-1.38385-.055-.26855h.386a1.18126,1.18126,0,0,0,1.132-1.524l-.58435-1.94782-.08033-.283c.16071-.0202.31812-.04357.47882-.07366l8.941-1.4936a1.17255,1.17255,0,0,0,.99012-1.159V5.89218A1.17611,1.17611,0,0,0,19.62041,4.72977ZM9.386,21.001l.01721.033H7.8612a1.52315,1.52315,0,0,1-1.36853-.8617L3.49883,13.95468a5.58435,5.58435,0,0,0,1.67261.40552l.03717.00336c.561.05407,1.14551.08447,1.74023.08789l.54065-.02027,1.23676,5.43354a2.22311,2.22311,0,0,0,.59137,1.06781Zm.48236-4.08954a.16447.16447,0,0,1-.13519.06756H9.11144l-.46631-2.06121-.11139-.4513-.01239-.06927.43805-.01673c.06086-.00335.12165-.01013.1825-.0169.01013,0,.02026-.00336.03375-.00336l.71979,2.40253A.15887.15887,0,0,1,9.8684,16.91141Zm9.72839-5.39978a.16006.16006,0,0,1-.13855.15881l-.19647.03333-.00287.00006V9.03812a.50687.50687,0,0,0-1.01373,0V11.8732l-7.73138,1.28741c-.53052.09125-1.061.15546-1.56787.19934l-.67585.027-.67584.02369-.669.027c-.54071-.00341-1.08807-.03045-1.62536-.08111l-.04053-.00336A4.60968,4.60968,0,0,1,2.64391,12.255a.178.178,0,0,0-.05072-.04059A4.67754,4.67754,0,0,1,5.25933,4.05057l.04395-.00336c.53387-.05066,1.07788-.0777,1.61853-.08112l.67242.027.67584.02369.66907.027c.51025.04053,1.04077.1081,1.57465.196L19.45824,5.73a.16345.16345,0,0,1,.13855.16217Z" transform="translate(0.0019 -2.95236)"/>
    <path d="M18.752,5.828a.5062.5062,0,0,0-.50684.5069V7.68649a.50186.50186,0,0,0,.50684.50684.50835.50835,0,0,0,.50689-.50684V6.33487A.50625.50625,0,0,0,18.752,5.828Z" transform="translate(0.0019 -2.95236)"/>
    <path d="M8.99694,5.67746a3.24681,3.24681,0,0,0-.70312-.15772,3.16506,3.16506,0,0,0-.355-.02,3.05945,3.05945,0,0,0-.35157.02,3.20132,3.20132,0,0,0-.70947,6.20362,2.92141,2.92141,0,0,0,.70752.15722,2.42476,2.42476,0,0,0,.35352.02344,2.39127,2.39127,0,0,0,.352-.02344,2.9472,2.9472,0,0,0,.70947-.15722,3.20467,3.20467,0,0,0-.00342-6.0459ZM8.25085,10.9299a2.14813,2.14813,0,0,1-.312.02344,1.85379,1.85379,0,0,1-.31836-.02686,2.24808,2.24808,0,0,1,.00537-4.45215,1.71444,1.71444,0,0,1,.313-.02392,1.88123,1.88123,0,0,1,.31884.02344,2.25028,2.25028,0,0,1-.00683,4.45605Z" transform="translate(0.0019 -2.95236)"/>
    <path d="M4.053,5.56308a.50315.50315,0,1,0,.50317.50311A.50312.50312,0,0,0,4.053,5.56308Z" transform="translate(0.0019 -2.95236)"/>
    <circle cx="2.94147" cy="4.23236" r="0.50317"/>
    <circle cx="2.5343" cy="5.74786" r="0.50317"/>
    <path d="M2.93957,9.721a.50315.50315,0,1,0,.50317.50317A.50318.50318,0,0,0,2.93957,9.721Z" transform="translate(0.0019 -2.95236)"/>
    <circle cx="4.05487" cy="8.38184" r="0.50317"/>
  </g>
</svg>
