<svg id="Слой_1" data-name="Слой 1" xmlns="http://www.w3.org/2000/svg" viewBox="0 0 22.58065 25">
  <path d="M3.96925,0A1.214,1.214,0,0,0,2.76588,1.112L1.20968,18.93429v4.856A1.2161,1.2161,0,0,0,2.41935,25h20.1613a1.2161,1.2161,0,0,0,1.20967-1.20968v-4.856L22.23412,1.112A1.214,1.214,0,0,0,21.03075,0Zm0,.80645h17.0615a.39876.39876,0,0,1,.40165.37173L22.94764,18.55a.40326.40326,0,0,0,.03623.80488v4.43548a.39616.39616,0,0,1-.40322.40323H2.41935a.39616.39616,0,0,1-.40322-.40323V19.35484A.40326.40326,0,0,0,2.05236,18.55L3.5676,1.17818A.39876.39876,0,0,1,3.96925.80645ZM12.5,3.629A8.39514,8.39514,0,0,0,7.4077,5.24824a5.11773,5.11773,0,0,0-2.16576,4.026,5.11773,5.11773,0,0,0,2.16576,4.026A8.39514,8.39514,0,0,0,12.5,14.91935a8.39514,8.39514,0,0,0,5.0923-1.6192,5.11773,5.11773,0,0,0,2.16576-4.026,5.11773,5.11773,0,0,0-2.16576-4.026A8.39514,8.39514,0,0,0,12.5,3.629Zm0,.80645a7.62543,7.62543,0,0,1,4.60244,1.45225,4.2905,4.2905,0,0,1,1.84917,3.38646,4.29053,4.29053,0,0,1-1.84917,3.38647A7.62542,7.62542,0,0,1,12.5,14.1129a7.62542,7.62542,0,0,1-4.60244-1.45224A4.29053,4.29053,0,0,1,6.04839,9.27419a.40246.40246,0,0,0,.0945-.79385A4.52594,4.52594,0,0,1,7.89756,5.88773,7.62543,7.62543,0,0,1,12.5,4.43548Zm0,3.42742A1.12342,1.12342,0,0,0,11.29032,8.871,1.12342,1.12342,0,0,0,12.5,9.879,1.12342,1.12342,0,0,0,13.70968,8.871,1.12342,1.12342,0,0,0,12.5,7.8629Zm-4.83871.60484a.40323.40323,0,1,0,.40323.40323A.404.404,0,0,0,7.66129,8.46774Zm1.6129,0a.40323.40323,0,1,0,.40323.40323A.404.404,0,0,0,9.27419,8.46774ZM3.629,18.54839a.40323.40323,0,1,0,.40323.40322A.404.404,0,0,0,3.629,18.54839Zm1.61291,0a.40323.40323,0,1,0,.40322.40322A.404.404,0,0,0,5.24194,18.54839Zm1.6129,0a.40323.40323,0,1,0,.40322.40322A.404.404,0,0,0,6.85484,18.54839Zm1.6129,0a.40323.40323,0,1,0,.40323.40322A.404.404,0,0,0,8.46774,18.54839Zm1.61291,0a.40323.40323,0,1,0,.40322.40322A.404.404,0,0,0,10.08065,18.54839Zm1.6129,0a.40323.40323,0,1,0,.40322.40322A.404.404,0,0,0,11.69355,18.54839Zm1.6129,0a.40323.40323,0,1,0,.40323.40322A.404.404,0,0,0,13.30645,18.54839Zm1.6129,0a.40323.40323,0,1,0,.40323.40322A.404.404,0,0,0,14.91935,18.54839Zm1.61291,0a.40323.40323,0,1,0,.40322.40322A.404.404,0,0,0,16.53226,18.54839Zm1.6129,0a.40323.40323,0,1,0,.40323.40322A.404.404,0,0,0,18.14516,18.54839Zm1.6129,0a.40323.40323,0,1,0,.40323.40322A.404.404,0,0,0,19.75806,18.54839Zm1.61291,0a.40323.40323,0,1,0,.40322.40322A.404.404,0,0,0,21.371,18.54839Zm-1.20968,2.41935a.80646.80646,0,1,0,.80645.80645A.806.806,0,0,0,20.16129,20.96774Z" transform="translate(-1.20968)"/>
</svg>
