<svg id="Слой_1" data-name="Слой 1" xmlns="http://www.w3.org/2000/svg" viewBox="0 0 24.97501 25">
  <g>
    <path d="M16.08,3.84A.49719.49719,0,0,0,15.66,3.69h-.02a.44719.44719,0,0,0-.33.26l-.79.75.66.7.59-.54.57.6L15.77,6l.66.7.62-.58.58.61-.57.52.66.7L18.33,7.39l.59.62995-.56.52.66.71.62-.56.52.55-.6.55.69.69.84-.84a.90553.90553,0,0,0,.09-.1.47077.47077,0,0,0,0-.66Z" transform="translate(-0.01001)"/>
    <path d="M21.9,13.47l2.95-2.94a.4707.4707,0,0,0,0-.66L15.1.1a.51879.51879,0,0,0-.33-.1h-.02a.45782.45782,0,0,0-.28.15L11.42,3.21a.46752.46752,0,0,0-.14.14L10.14,4.43l-.81-.84a2.33,2.33,0,0,0-3.27,0L3.76,5.88a2.2626,2.2626,0,0,0-.52.88.41664.41664,0,0,0-.09.16L.4,15.53a2.80687,2.80687,0,0,0,.72,2.94l.86.9L.15,21.18a.48283.48283,0,0,0,0,.68A.51251.51251,0,0,0,.49,22a.47623.47623,0,0,0,.34-.14l1.86-1.83,2.29,2.34L3.16,24.18a.47686.47686,0,0,0,0,.68.4706.4706,0,0,0,.33.14.47623.47623,0,0,0,.34-.14l1.86-1.83.87.88a2.94729,2.94729,0,0,0,2.04.86,2.83193,2.83193,0,0,0,.9-.15l8.69-2.75a.62587.62587,0,0,0,.25-.16,2.25116,2.25116,0,0,0,.69-.46l2.3-2.3a2.35517,2.35517,0,0,0,0-3.27l-.85-.88,1-1A.50256.50256,0,0,0,21.9,13.47ZM10.49,5.45l.06-.08,1.12-1.11L12.8,5.43,9.18,9.02,8.07,7.87Zm3.53,8.43-2.89-2.93,2.43-2.4,2.88,2.93Zm2.77-2.15h.07l2.2.4-3.43,3.36L14.38,14.2Zm-6.02-1.1L9.54,9.34l3.38-3.43.36,2.3Zm10,5.73a1.41526,1.41526,0,0,1,0,1.93l-2.3,2.3a1.38553,1.38553,0,0,1-.97.38,1.462,1.462,0,0,1-.48645-.08777.60034.60034,0,1,0-.784.56738l.0116.01142L9.19,23.72a1.71819,1.71819,0,0,1-.6.1A1.99154,1.99154,0,0,1,7.22,23.25L5.99,22.03l-3-3L1.77,17.78a1.93194,1.93194,0,0,1-.48-1.97L3.5,8.9l.03925-.093a.58973.58973,0,0,0,.25836.06372.59991.59991,0,0,0,.2398-1.15015L4.0379,7.7196A1.90222,1.90222,0,0,1,4.43,6.54L6.72,4.25a1.40116,1.40116,0,0,1,1.94,0l.81.9L7.05,7.57a.47082.47082,0,0,0,0,.66l9.72,9.72a.45335.45335,0,0,0,.33.14.47061.47061,0,0,0,.33-.14l2.49-2.45Zm-1.11-2a.51.51,0,0,0-.25.27l-2.34,2.3-1.1-1.13,3.64-3.6,1.09,1.14Zm.47-2.98a.49514.49514,0,0,0-.26-.13l-2.71-.43L14.18,7.84l-.42-2.69a.45886.45886,0,0,0-.13-.27L12.35,3.57l2.44-2.44,9.04,9.08-2.46,2.42Z" transform="translate(-0.01001)"/>
    <circle cx="4.93451" cy="9.41687" r="0.60071"/>
    <circle cx="6.08142" cy="10.56378" r="0.60071"/>
    <circle cx="7.22833" cy="11.71069" r="0.60071"/>
    <circle cx="8.37524" cy="12.8576" r="0.60071"/>
    <path d="M9.53217,13.40387a.60068.60068,0,1,0,.6007.60065A.6007.6007,0,0,0,9.53217,13.40387Z" transform="translate(-0.01001)"/>
    <path d="M10.67908,14.55078a.60068.60068,0,1,0,.60071.60071A.60071.60071,0,0,0,10.67908,14.55078Z" transform="translate(-0.01001)"/>
    <circle cx="11.81598" cy="16.2984" r="0.60071"/>
    <circle cx="12.96289" cy="17.44531" r="0.60071"/>
    <circle cx="14.1098" cy="18.59222" r="0.60071"/>
    <circle cx="15.25671" cy="19.73914" r="0.60071"/>
  </g>
</svg>
