<svg xmlns="http://www.w3.org/2000/svg" viewBox="0 0 191.3 219.2"><defs><style>.cls-1,.cls-2,.cls-3,.cls-5,.cls-6{fill:none;}.cls-1,.cls-2,.cls-6{stroke:#020000;}.cls-1,.cls-2,.cls-3,.cls-5,.cls-6,.cls-7,.cls-8{stroke-miterlimit:10;}.cls-1,.cls-3,.cls-5,.cls-7,.cls-8{stroke-width:5px;}.cls-2{stroke-width:3px;}.cls-3,.cls-8{stroke:#040505;}.cls-4{opacity:0.23;}.cls-5,.cls-7{stroke:#000202;}.cls-6{stroke-width:4px;}.cls-7,.cls-8{fill:#fff;}</style></defs><g id="Слой_2" data-name="Слой 2"><g id="Raw"><path d="M148.3,16.4l2.4,2.3c8.9,7.8,21.9,14.9,21.9,14.9h7.2c-13.7-6.3-19.8-12.5-22.3-15.8a7.9,7.9,0,0,1-1.5-2.3Z"/><path class="cls-1" d="M119.1,19.5h1.2a3.5,3.5,0,0,1,3.5,3.5v3.3h16.1c7.2-10.3,27.8-15.5,27.8-15.5V2.5H138.1A12,12,0,0,0,130,5.6l-.8.6L118.3,17.5A1.2,1.2,0,0,0,119.1,19.5Z"/><path class="cls-2" d="M168.1,2.6v8.1h7a1.1,1.1,0,0,0,1.1-1.1V3.7a1.1,1.1,0,0,0-1.1-1.1Z"/><path class="cls-3" d="M154.7,112.9A81.2,81.2,0,0,0,147,97.6l-1.5-2.5a40.5,40.5,0,0,1-5.9-26.3l2.8-24.1a2.2,2.2,0,0,0-2.1-2.5H122a2.1,2.1,0,0,0-2.1,1.7L111,81.3a169.2,169.2,0,0,0-4.3,31.6"/><rect class="cls-1" x="121.1" y="25.7" width="22" height="15.72" rx="1.2"/><path class="cls-4" d="M143,40.7a1.3,1.3,0,0,1-1.1.8H122.3a1.3,1.3,0,0,1-1.1-.8Z"/><path class="cls-5" d="M100.5,112.9V72.4A30.6,30.6,0,0,0,90.8,50L79.7,39.7l-4.6-4.4L35.6,81.6a26.4,26.4,0,0,0-6.3,17.1v14.2"/><path class="cls-6" d="M36.4,21.1a.9.9,0,0,1,0-1.3l1.1-1.3,1.1-1.3a.9.9,0,0,1,1.3-.2l9.3,6.8-2.3,2.7-2.3,2.7Z"/><path class="cls-1" d="M42.2,34.3a2,2,0,0,1,0-2.6l4.5-5.2,4.5-5.3a1.9,1.9,0,0,1,2.5-.4L75.1,35.3l-7.6,8.9-7.6,8.9Z"/><rect class="cls-1" x="2.5" y="112.9" width="186.3" height="28.58" rx="8.5"/><path class="cls-1" d="M150.2,216.7H41.2a22.5,22.5,0,0,1-22.2-19l-8.7-56.2H181l-8.7,56.2A22.4,22.4,0,0,1,150.2,216.7Z"/><rect class="cls-1" x="36.6" y="158.6" width="13.5" height="39.9" rx="6.7" transform="translate(-43.4 16.6) rotate(-14.5)"/><rect class="cls-1" x="137.2" y="157.8" width="13.5" height="39.9" rx="6.7" transform="translate(238.7 386) rotate(-165.5)"/><rect class="cls-1" x="104.2" y="157.8" width="13.5" height="39.9" rx="6.7" transform="translate(221.9 355.5) rotate(180)"/><rect class="cls-1" x="69.4" y="157.8" width="13.5" height="39.9" rx="6.7" transform="translate(152.3 355.5) rotate(-180)"/><line class="cls-7" x1="29.3" y1="112.9" x2="100.5" y2="112.9"/><line class="cls-8" x1="106.7" y1="112.9" x2="154.7" y2="112.9"/></g></g></svg>