<svg id="Слой_1" data-name="Слой 1" xmlns="http://www.w3.org/2000/svg" viewBox="0 0 24.99996 18.52972">
  <g>
    <path d="M22.839,5.06027a7.47172,7.47172,0,0,0-5.34534-1.82513H7.94792a.86535.86535,0,0,0-.66956.31421.96191.96191,0,0,0-.165.65881,2.29187,2.29187,0,0,0,.62116,1.31372,5.37812,5.37812,0,0,0,4.23279,1.67243,11.278,11.278,0,0,0,3.88378-.53595c.19971-.06806.36957-.13215.52222-.1894a3.10283,3.10283,0,0,1,1.19574-.279,4.15911,4.15911,0,0,1,2.47077.90058,4.30644,4.30644,0,0,1,1.47326,3.68072l-3.04437-.02991v-.58288a1.41824,1.41824,0,0,0-1.4018-1.39691h-2.668A1.41563,1.41563,0,0,0,13.002,10.15848l-.02838.62793c-4.14514.18207-7.83514,2.67291-11.33526,7.683l-.36463.557c-.049.0675-.09692.13458-.1405.20166q-.19821.30394-.39056.6123c-.13166.21143-.47236.76892-.47236.76892a1.91575,1.91575,0,0,0-.23931.465.59615.59615,0,0,0,.02984.45666.4632.4632,0,0,0,.47138.234H24.025a.98785.98785,0,0,0,.975-.975V11.11874C24.976,8.43607,24.2487,6.39749,22.839,5.06027ZM20.62968,6.34854a4.9681,4.9681,0,0,0-3.06061-1.1037,4.03929,4.03929,0,0,0-1.57159.36072c-.14734.05725-.2981.11548-.45862.17029a10.31921,10.31921,0,0,1-3.57153.47381,4.46131,4.46131,0,0,1-3.52509-1.347,1.12508,1.12508,0,0,1-.33868-.72241h9.39013A6.6007,6.6007,0,0,1,22.192,5.74014a6.89779,6.89779,0,0,1,1.81829,5.03113l-1.52215-.02991A5.3538,5.3538,0,0,0,20.62968,6.34854Zm-6.68256,3.80994a.44673.44673,0,0,1,.45179-.45178h2.668a.45456.45456,0,0,1,.45667.45178l-.02991.61279-3.54657-.02991Zm10.10773,7.85681v.34436a.46577.46577,0,0,0-.10724.09784.49934.49934,0,0,0-.09021.29071.47326.47326,0,0,0,.09021.28571.46573.46573,0,0,0,.10724.09783v1.688L1.28007,20.7742a16.67566,16.67566,0,0,1,1.0318-1.53l.06146-.0943a.49236.49236,0,0,0,.30829.11554.50209.50209,0,0,0,.50208-.50207.49685.49685,0,0,0-.27015-.43805l.04584-.06537c3.274-4.46436,6.61987-6.54352,10.53015-6.54352l10.56531.02985Z" transform="translate(-0.00002 -3.23514)"/>
    <path d="M4.04331,18.291a.47241.47241,0,1,0,.47217.47216A.47293.47293,0,0,0,4.04331,18.291Z" transform="translate(-0.00002 -3.23514)"/>
    <circle cx="5.49764" cy="15.5282" r="0.50208"/>
    <path d="M6.95225,18.26126a.50208.50208,0,1,0,.50214.50208A.50209.50209,0,0,0,6.95225,18.26126Z" transform="translate(-0.00002 -3.23514)"/>
    <circle cx="8.40688" cy="15.5282" r="0.50208"/>
    <circle cx="9.86147" cy="15.5282" r="0.50208"/>
    <path d="M11.31608,18.26126a.50208.50208,0,1,0,.50214.50208A.50208.50208,0,0,0,11.31608,18.26126Z" transform="translate(-0.00002 -3.23514)"/>
    <circle cx="12.77071" cy="15.5282" r="0.50208"/>
    <circle cx="14.2253" cy="15.5282" r="0.50208"/>
    <path d="M15.67991,18.26126a.50208.50208,0,1,0,.50214.50208A.50208.50208,0,0,0,15.67991,18.26126Z" transform="translate(-0.00002 -3.23514)"/>
    <path d="M17.1345,19.26541a.50208.50208,0,1,0-.50207-.50207A.5021.5021,0,0,0,17.1345,19.26541Z" transform="translate(-0.00002 -3.23514)"/>
    <circle cx="18.58913" cy="15.5282" r="0.50208"/>
    <circle cx="20.04372" cy="15.5282" r="0.50208"/>
    <path d="M21.49833,19.26541a.50208.50208,0,1,0-.50207-.50207A.50209.50209,0,0,0,21.49833,19.26541Z" transform="translate(-0.00002 -3.23514)"/>
    <circle cx="22.95296" cy="15.5282" r="0.50208"/>
    <path d="M18.82432,16.03244a.97266.97266,0,1,0-.97266-.97266A.97359.97359,0,0,0,18.82432,16.03244Z" transform="translate(-0.00002 -3.23514)"/>
    <circle cx="15.31551" cy="11.82465" r="0.97266"/>
    <circle cx="11.80721" cy="11.82465" r="0.97266"/>
  </g>
</svg>
