<svg id="Слой_1" data-name="Слой 1" xmlns="http://www.w3.org/2000/svg" viewBox="0 0 25 23.82739">
  <g>
    <g>
      <path d="M2.18345,8.52632V7.43516l-.01166-.95269H1.94466a.507.507,0,0,1-.54433-.43867V5.20888a.50651.50651,0,0,1,.54433-.43714l.24468-.00888C2.26029,3.46571,3.23089,2.311,5.18314,1.21568l.217-.11411c.02631-.01532.05245-.03033.07858-.044q.11844-.062.2386-.12222C5.79974.89419,6.017.78757,6.017.78757A.82633.82633,0,0,1,6.19816.71268a.28455.28455,0,0,1,.178.00934.1398.1398,0,0,1,.09116.14751V8.22122a.35345.35345,0,0,1-.37992.3051H2.18345Zm0-.30971-.23879-3.1491a.15974.15974,0,0,0-.176.14137V6.0438a.16222.16222,0,0,0,.176.14291l.23879-.00936L2.17179,5.06751ZM5.00619,8.23056h.13418A.16364.16364,0,0,1,5.1785,8.197a.22919.22919,0,0,1,.11328-.02823.21664.21664,0,0,1,.11133.02823.16339.16339,0,0,1,.03812.03356H6.099l-.01774-7.127c-.2077.10079-.40374.20464-.5962.32288l-.03674.01924a.138.138,0,0,1,.045.09647.17959.17959,0,0,1-.19564.15712.2029.2029,0,0,1-.1707-.08454l-.02547.01435C3.36191,2.65362,2.55173,3.70066,2.55173,4.92431l.01163,3.30625Z" transform="translate(-0.00879 -0.70299)"/>
      <path d="M5.11362,1.96827a.1885.1885,0,0,1,.36816,0,.18854.18854,0,0,1-.36816,0Z" transform="translate(-0.00879 -0.70299)"/>
      <ellipse cx="5.28889" cy="1.7204" rx="0.19564" ry="0.15712"/>
      <path d="M5.102,2.87858a.20036.20036,0,0,1,.39128,0,.20036.20036,0,0,1-.39128,0Z" transform="translate(-0.00879 -0.70299)"/>
      <ellipse cx="5.28889" cy="2.6308" rx="0.19564" ry="0.15712"/>
      <ellipse cx="5.28889" cy="3.08599" rx="0.19564" ry="0.15712"/>
      <path d="M5.102,4.24416a.20036.20036,0,0,1,.39128,0,.20036.20036,0,0,1-.39128,0Z" transform="translate(-0.00879 -0.70299)"/>
      <ellipse cx="5.28889" cy="3.99639" rx="0.19564" ry="0.15712"/>
      <ellipse cx="5.28889" cy="4.45158" rx="0.19564" ry="0.15712"/>
      <path d="M5.102,5.60975a.20036.20036,0,1,1,.19564.15714A.17958.17958,0,0,1,5.102,5.60975Z" transform="translate(-0.00879 -0.70299)"/>
      <path d="M5.49332,6.06494a.20036.20036,0,1,1-.19564-.15711A.17959.17959,0,0,1,5.49332,6.06494Z" transform="translate(-0.00879 -0.70299)"/>
      <ellipse cx="5.28889" cy="5.81717" rx="0.19564" ry="0.15712"/>
      <ellipse cx="5.28889" cy="6.27236" rx="0.19564" ry="0.15712"/>
      <path d="M5.49332,7.43053a.20036.20036,0,1,1-.19564-.15711A.17959.17959,0,0,1,5.49332,7.43053Z" transform="translate(-0.00879 -0.70299)"/>
      <ellipse cx="5.28889" cy="7.18276" rx="0.19564" ry="0.15712"/>
      <path d="M4.23354,6.59375a.34829.34829,0,0,1-.379.30422.34829.34829,0,0,1-.379-.30422.34839.34839,0,0,1,.379-.30438A.34839.34839,0,0,1,4.23354,6.59375Z" transform="translate(-0.00879 -0.70299)"/>
      <ellipse cx="3.84574" cy="4.79274" rx="0.37901" ry="0.30438"/>
      <ellipse cx="3.84574" cy="3.69487" rx="0.37901" ry="0.30438"/>
    </g>
    <path d="M23.74878,7.92038h-22.49a1.25,1.25,0,1,0,0,2.5h22.49a1.25,1.25,0,1,0,0-2.5Zm.01,1.55h-22.5a.27447.27447,0,0,1-.25-.3.27105.27105,0,0,1,.25-.29h22.5a.278.278,0,0,1,.25.29A.28124.28124,0,0,1,23.75879,9.47037Z" transform="translate(-0.00879 -0.70299)"/>
    <path d="M20.39875,10.42038l-7.89,6.56-.6.5-7.84,6.51c-.04.43.19.53.38.54h.16l.02-.02,7.88-6.54.6-.49,8.49-7.06Z" transform="translate(-0.00879 -0.70299)"/>
    <path d="M5.26423,10.42038l7.89,6.56.6.5,7.84,6.51c.04.43-.19.53-.38.54h-.16l-.02-.02-7.88-6.54-.6-.49-8.49-7.06Z" transform="translate(-0.00879 -0.70299)"/>
    <line x1="4.61998" y1="23.80739" x2="4.59998" y2="23.82739" fill="none"/>
  </g>
</svg>
