<svg id="Слой_1" data-name="Слой 1" xmlns="http://www.w3.org/2000/svg" viewBox="0 0 25 18.1756">
  <g>
    <path d="M24.76813,10.07822q-3.35688-3.21735-6.70069-6.44831a.719.719,0,0,0-.54376-.21771q-5.02249.00823-10.0451.00012a.72047.72047,0,0,0-.54474.21643Q3.58941,6.8592.23346,10.07761A.68174.68174,0,0,0,0,10.6135Q.0087,15.0007.00378,19.388c0,.04389-.00232.08795.001.13159a.35762.35762,0,0,0,.368.35541c.09931.00476.199.00079.32239.00079,0,.41718-.00024.803.00006,1.18879.00031.42828.09626.5227.53162.52288q.96505.00037,1.93011-.00006c.40436-.00018.50208-.09863.50238-.50561.00025-.39289.00007-.78571.00007-1.19178H21.32831c.00439.08765.01129.16565.01159.24366.00141.329-.00054.65808.00123.98712.002.3595.11077.46606.47546.46649q1.00882.00118,2.01776.00018c.35376-.00024.469-.116.47015-.47387.00123-.40082.00025-.80164.00025-1.22126.07056-.00769.10608-.01391.14172-.01513.47614-.01636.55-.09381.54993-.57532Q24.99613,14.96949,25,10.637A.70455.70455,0,0,0,24.76813,10.07822ZM.82434,18.57675c-.01581.01459-.03485.0257-.07916.05786v-6.581H6.94861c0,.27118.00561.53241-.00458.793a.27606.27606,0,0,1-.09723.15936Q3.83738,15.79334.82434,18.57675ZM2.9256,20.88132H1.86108c-.43957-.00006-.43957-.00006-.43957-.43689v-.55438H2.9256Zm13.08887-2.91626H4.38715a1.28776,1.28776,0,0,1,1.16058-.76856q5.09931.00888,10.19867.00287h.26807Zm.00012-1.44831h-.289c-3.3855.00007-6.771.00464-10.15644-.00469a1.41487,1.41487,0,0,0-1.223.49682c-.1817.22669-.41937.40772-.61578.62384a1.057,1.057,0,0,0-.22333.368.48145.48145,0,0,0,.38666.641,1.85842,1.85842,0,0,0,.34887.025q5.74733.00174,11.49457.00079h.27429v.46533H1.32184c.2904-.27093.54993-.51434.81085-.75628q2.58966-2.40133,5.183-4.79865a.49539.49539,0,0,1,.303-.1275q4.11293-.01,8.226-.00446c.05017,0,.10034.00489.16632.0083v.38569h-.2475q-3.75109,0-7.5022-.00257a1.75909,1.75909,0,0,0-1.39679.6106c-.16925.19189-.34851.37506-.51562.56872a.59815.59815,0,0,0-.13806.66834.5541.5541,0,0,0,.56408.30255c.468.00488.93592.00336,1.40387.00336q3.784.00036,7.56793.00006h.26789Zm-8.3418-4.03424a3.90559,3.90559,0,0,0,.003-.43377h8.33808v.65985c-.08149.00384-.15265.01013-.22382.01013q-3.93512.00074-7.87018.00446C7.73218,12.7236,7.64929,12.68308,7.67279,12.48251Zm8.3421,2.806H7.00525c.29425-.37738.5744-.759,1.0885-.76092,2.60944-.0094,5.219-.00366,7.82849-.00269a.66394.66394,0,0,1,.09265.01764Zm6.06195,5.57679v-.9878c.468,0,.92615-.003,1.38416.00531a.16532.16532,0,0,1,.11072.117c.00995.28308.00518.56659.00518.86548Zm2.1698-1.73011h-7.469v-7.0794h7.46905Zm.00849-7.83667H.73627v-.454L.75348,10.822c.01953.0044.03259.02216.05347.02216A.27416.27416,0,0,0,1.08112,10.57a.2552.2552,0,0,0-.04749-.11463l.28058-.36724a1.81355,1.81355,0,0,1,.11914-.14441Q4.39224,7.087,7.35565,4.23483a.42293.42293,0,0,1,.26612-.10778q4.88067-.00816,9.76141-.00049a.39343.39343,0,0,1,.24945.09564q2.981,2.8656,5.95343,5.73993c.02966.02868.05511.06177.11182.126l.55725.7564Z" transform="translate(0 -3.4122)"/>
    <path d="M17.70343,18.60324q1.41348.00156,2.827.00055,1.41348.00018,2.827.00006c.29443-.00006.41766-.11474.41962-.40405q.005-.75614.00006-1.51233c-.00159-.30078-.12543-.4317-.42554-.43213q-2.838-.00393-5.67584.00031c-.30548.00048-.43665.14032-.43848.44781-.00293.47485-.00158.94977-.00049,1.42468C17.23749,18.48868,17.34894,18.60281,17.70343,18.60324Zm.27246-1.60974H23.057v.88989H17.97589Z" transform="translate(0 -3.4122)"/>
    <path d="M20.51917,15.82205a1.74431,1.74431,0,1,0-1.74634-1.73846A1.74487,1.74487,0,0,0,20.51917,15.82205Zm-.01471-2.75964A1.01575,1.01575,0,1,1,19.5,14.09091,1.01108,1.01108,0,0,1,20.50446,13.06241Z" transform="translate(0 -3.4122)"/>
    <path d="M1.596,10.29575a.2742.2742,0,1,0,.27423.27423A.27421.27421,0,0,0,1.596,10.29575Z" transform="translate(0 -3.4122)"/>
    <path d="M2.38513,10.29575A.2742.2742,0,1,0,2.6593,10.57.27426.27426,0,0,0,2.38513,10.29575Z" transform="translate(0 -3.4122)"/>
    <path d="M3.17426,10.29575a.2742.2742,0,1,0,.27417.27423A.27423.27423,0,0,0,3.17426,10.29575Z" transform="translate(0 -3.4122)"/>
    <path d="M3.96332,10.29575a.2742.2742,0,1,0,.27423.27423A.27421.27421,0,0,0,3.96332,10.29575Z" transform="translate(0 -3.4122)"/>
    <path d="M4.75244,10.29575a.2742.2742,0,1,0,.27417.27423A.27426.27426,0,0,0,4.75244,10.29575Z" transform="translate(0 -3.4122)"/>
    <path d="M5.54157,10.29575a.2742.2742,0,1,0,.27417.27423A.27423.27423,0,0,0,5.54157,10.29575Z" transform="translate(0 -3.4122)"/>
    <path d="M6.33063,10.29575a.2742.2742,0,1,0,.27423.27423A.27421.27421,0,0,0,6.33063,10.29575Z" transform="translate(0 -3.4122)"/>
    <path d="M7.11975,10.29575A.2742.2742,0,1,0,7.394,10.57.27426.27426,0,0,0,7.11975,10.29575Z" transform="translate(0 -3.4122)"/>
    <path d="M7.90887,10.29575A.2742.2742,0,1,0,8.183,10.57.27427.27427,0,0,0,7.90887,10.29575Z" transform="translate(0 -3.4122)"/>
    <path d="M8.69794,10.29575a.2742.2742,0,1,0,.27423.27423A.27421.27421,0,0,0,8.69794,10.29575Z" transform="translate(0 -3.4122)"/>
    <path d="M9.48706,10.29575a.2742.2742,0,1,0,.27423.27423A.27421.27421,0,0,0,9.48706,10.29575Z" transform="translate(0 -3.4122)"/>
    <path d="M10.27618,10.29575a.2742.2742,0,1,0,.27417.27423A.27427.27427,0,0,0,10.27618,10.29575Z" transform="translate(0 -3.4122)"/>
    <path d="M11.06525,10.29575a.2742.2742,0,1,0,.27423.27423A.27421.27421,0,0,0,11.06525,10.29575Z" transform="translate(0 -3.4122)"/>
    <path d="M11.85437,10.29575a.2742.2742,0,1,0,.27423.27423A.27421.27421,0,0,0,11.85437,10.29575Z" transform="translate(0 -3.4122)"/>
    <path d="M12.64349,10.29575a.2742.2742,0,1,0,.27417.27423A.27427.27427,0,0,0,12.64349,10.29575Z" transform="translate(0 -3.4122)"/>
    <path d="M13.43256,10.29575a.2742.2742,0,1,0,.27423.27423A.27421.27421,0,0,0,13.43256,10.29575Z" transform="translate(0 -3.4122)"/>
    <path d="M14.22168,10.29575a.2742.2742,0,1,0,.27423.27423A.27421.27421,0,0,0,14.22168,10.29575Z" transform="translate(0 -3.4122)"/>
    <path d="M15.0108,10.29575A.2742.2742,0,1,0,15.285,10.57.27427.27427,0,0,0,15.0108,10.29575Z" transform="translate(0 -3.4122)"/>
    <path d="M15.79993,10.29575a.2742.2742,0,1,0,.27417.27423A.27422.27422,0,0,0,15.79993,10.29575Z" transform="translate(0 -3.4122)"/>
    <path d="M16.589,10.29575a.2742.2742,0,1,0,.27423.27423A.27421.27421,0,0,0,16.589,10.29575Z" transform="translate(0 -3.4122)"/>
    <path d="M17.37811,10.29575a.2742.2742,0,1,0,.27417.27423A.27426.27426,0,0,0,17.37811,10.29575Z" transform="translate(0 -3.4122)"/>
    <path d="M18.16724,10.29575a.2742.2742,0,1,0,.27417.27423A.27422.27422,0,0,0,18.16724,10.29575Z" transform="translate(0 -3.4122)"/>
    <path d="M18.9563,10.29575a.2742.2742,0,1,0,.27423.27423A.27421.27421,0,0,0,18.9563,10.29575Z" transform="translate(0 -3.4122)"/>
    <path d="M19.74542,10.29575a.2742.2742,0,1,0,.27417.27423A.27426.27426,0,0,0,19.74542,10.29575Z" transform="translate(0 -3.4122)"/>
    <path d="M20.53455,10.29575a.2742.2742,0,1,0,.27417.27423A.27422.27422,0,0,0,20.53455,10.29575Z" transform="translate(0 -3.4122)"/>
    <path d="M21.32361,10.29575a.2742.2742,0,1,0,.27423.27423A.27421.27421,0,0,0,21.32361,10.29575Z" transform="translate(0 -3.4122)"/>
    <path d="M22.11273,10.29575A.2742.2742,0,1,0,22.387,10.57.27426.27426,0,0,0,22.11273,10.29575Z" transform="translate(0 -3.4122)"/>
    <path d="M22.90186,10.29575A.2742.2742,0,1,0,23.176,10.57.27427.27427,0,0,0,22.90186,10.29575Z" transform="translate(0 -3.4122)"/>
    <path d="M23.41675,10.57a.2742.2742,0,1,0,.27417-.27423A.27416.27416,0,0,0,23.41675,10.57Z" transform="translate(0 -3.4122)"/>
  </g>
</svg>
