<svg id="Слой_1" data-name="Слой 1" xmlns="http://www.w3.org/2000/svg" viewBox="0 0 20.95422 24.97992">
  <g>
    <path d="M19.21521,6.01752H16.44659l.28791.66693a31.55816,31.55816,0,0,1,1.86175,6.137l.21112,1.06043.47022.00958.25427-1.05084a28.203,28.203,0,0,0,.667-3.98737c.10077-1.00763.10077-1.62665.10077-1.62665a.79722.79722,0,0,0,.00965-.14874,1.10738,1.10738,0,0,0-.24476-.7149A1.0762,1.0762,0,0,0,19.21521,6.01752ZM19.34,7.16425a23.64508,23.64508,0,0,1-.31189,3.29644,31.82447,31.82447,0,0,0-1.13721-3.48352h1.32434a.3777.3777,0,0,1,.11993.01435.18069.18069,0,0,1,.01441.0816C19.34955,7.09711,19.34479,7.12109,19.34,7.16425Z" transform="translate(-2.02289 -0.01001)"/>
    <path d="M22.97711,5.16339a1.8154,1.8154,0,0,0-1.81378-1.81378H16.11072C15.66449,2.5675,14.01385.01,11.48517.01,8.66858.01,6.92676,3.22009,6.73,3.60394a14.69381,14.69381,0,0,0-.83972,1.74658H2.02289l.03839.50385A13.5632,13.5632,0,0,0,3.99506,11.881a.62609.62609,0,0,1,.048.072,49.42154,49.42154,0,0,0-.71014,8.5553,1.92251,1.92251,0,0,0,.54693,1.334,1.71051,1.71051,0,0,0-.54693,1.33386v1.81378H20.30444V23.17615a1.93078,1.93078,0,0,0-.53741-1.33386,1.52791,1.52791,0,0,0,.16315-.18714h3.04693V19.36157H20.434c1.82336-5.163,2.43756-12.66272,2.54315-14.14062ZM11.48517.96967c1.62182,0,2.86456,1.45867,3.48834,2.37994H8.00159C8.62054,2.42834,9.86334.96967,11.48517.96967ZM19.34955,19.5343l-.024.048.01923.73895h2.67267v.37427H19.36877l-.13439.26385a.65726.65726,0,0,1-.36463.33588l-.09131.0813a.44182.44182,0,0,0-.04828-.00977.48068.48068,0,0,0,0,.96136.45213.45213,0,0,0,.05652-.01141l.08307.07257a.82577.82577,0,0,1,.475.78687v.85412H4.29254v-.85412a.76647.76647,0,0,1,.36945-.72449l.13006-.1261.01264.00256a.48068.48068,0,0,0,0-.96136l-.01215.00244L4.662,21.24249a.88567.88567,0,0,1-.36945-.73419A47.96345,47.96345,0,0,1,5.03143,11.905l.03839-.21588-.20629-.24951a.677.677,0,0,1-.0672-.08637,12.55047,12.55047,0,0,1-1.72742-5.043H6.53333l.12475-.30707A16.93643,16.93643,0,0,1,7.4306,4.30927H21.16333a.86128.86128,0,0,1,.85889.82531C22.01746,5.221,21.43683,14.04022,19.34955,19.5343Z" transform="translate(-2.02289 -0.01001)"/>
    <path d="M11.9516,16.8819H11.246a.35285.35285,0,0,0,0,.70569h.70563a.35285.35285,0,0,0,0-.70569Z" transform="translate(-2.02289 -0.01001)"/>
    <path d="M11.9516,15.1178H11.246a.35282.35282,0,1,0,0,.70563h.70563a.35282.35282,0,1,0,0-.70563Z" transform="translate(-2.02289 -0.01001)"/>
    <path d="M11.9516,9.82538H11.246a.35282.35282,0,1,0,0,.70563h.70563a.35282.35282,0,1,0,0-.70563Z" transform="translate(-2.02289 -0.01001)"/>
    <path d="M11.9516,13.35364H11.246a.35282.35282,0,1,0,0,.70563h.70563a.35282.35282,0,1,0,0-.70563Z" transform="translate(-2.02289 -0.01001)"/>
    <path d="M11.60034,7.70648A2.1215,2.1215,0,0,0,9.47949,9.82733v7.75885a2.11844,2.11844,0,0,0,4.23688,0V9.82733A2.12052,2.12052,0,0,0,11.60034,7.70648Zm1.41071,9.8797a1.41071,1.41071,0,1,1-2.82141,0V9.82733a1.41071,1.41071,0,1,1,2.82141,0Z" transform="translate(-2.02289 -0.01001)"/>
    <path d="M11.9516,11.58948H11.246a.35285.35285,0,0,0,0,.70569h.70563a.35285.35285,0,0,0,0-.70569Z" transform="translate(-2.02289 -0.01001)"/>
    <path d="M6.1972,21.36676a.48068.48068,0,1,0,.48072.48065A.48067.48067,0,0,0,6.1972,21.36676Z" transform="translate(-2.02289 -0.01001)"/>
    <path d="M7.58978,21.36676a.48068.48068,0,1,0,.48065.48065A.48067.48067,0,0,0,7.58978,21.36676Z" transform="translate(-2.02289 -0.01001)"/>
    <path d="M8.9823,21.36676a.48068.48068,0,1,0,.48071.48065A.48067.48067,0,0,0,8.9823,21.36676Z" transform="translate(-2.02289 -0.01001)"/>
    <path d="M10.37488,21.36676a.48068.48068,0,1,0,.48065.48065A.48067.48067,0,0,0,10.37488,21.36676Z" transform="translate(-2.02289 -0.01001)"/>
    <path d="M11.7674,21.36676a.48068.48068,0,1,0,.48071.48065A.48067.48067,0,0,0,11.7674,21.36676Z" transform="translate(-2.02289 -0.01001)"/>
    <path d="M13.16,21.36676a.48068.48068,0,1,0,.48065.48065A.48067.48067,0,0,0,13.16,21.36676Z" transform="translate(-2.02289 -0.01001)"/>
    <path d="M14.55249,21.36676a.48068.48068,0,1,0,.48071.48065A.48067.48067,0,0,0,14.55249,21.36676Z" transform="translate(-2.02289 -0.01001)"/>
    <path d="M15.94507,21.36676a.48068.48068,0,1,0,.48065.48065A.48067.48067,0,0,0,15.94507,21.36676Z" transform="translate(-2.02289 -0.01001)"/>
    <path d="M17.33765,21.36676a.48068.48068,0,1,0,.48065.48065A.48068.48068,0,0,0,17.33765,21.36676Z" transform="translate(-2.02289 -0.01001)"/>
  </g>
</svg>
