<svg id="Слой_1" data-name="Слой 1" xmlns="http://www.w3.org/2000/svg" viewBox="0 0 24.99394 25">
  <g>
    <path d="M24.68869,20.8405c-.3179-.1088-.63424-.224-.957-.31629a1.69342,1.69342,0,0,1-1.23538-1.67094c.01359-.90386.00322-1.80808.003-2.71215-.00048-2.29715.00208-4.59432-.00574-6.89144a1.35887,1.35887,0,0,1,.18884-.76166,2.39635,2.39635,0,0,0,.24042-1.27084l-.00172-.0077a.42273.42273,0,0,0-.83813-.05772.21384.21384,0,0,0-.00781.07745,2.22855,2.22855,0,0,1-.182.96658,1.72281,1.72281,0,0,0-.232.868c.00711,1.75468.00341,3.5094.00343,5.26411,0,1.50815-.00252,3.01631.00292,4.52444a2.77368,2.77368,0,0,0,.06614.64688,2.4579,2.4579,0,0,0,1.153,1.5612.76634.76634,0,0,1,.07541.06074,12.23039,12.23039,0,0,1-3.44576.00493c.04128-.03091.0649-.05156.09122-.06786a2.46373,2.46373,0,0,0,1.225-2.20591c.00383-.44378.00077-.88763.00069-1.33144-.00052-2.75329-.00542-5.50661.00322-8.25988a2.001,2.001,0,0,0-.25724-1.1075,1.21181,1.21181,0,0,1-.16846-.71535c.016-.38151.00484-.76417.00483-1.14634q0-2.31154.00078-4.62307a.83025.83025,0,0,1,1.66011-.02226l-.00125.0124a.424.424,0,1,0,.84793,0,.41948.41948,0,0,0-.02407-.13523,2.11568,2.11568,0,0,0-.0868-.4091,1.663,1.663,0,0,0-3.23111.59526q-.0024,3.06972.00382,6.13943a.888.888,0,0,0,.06861.30742c.04688.1218.11854.23382.17358.3528a1.2551,1.2551,0,0,1,.17462.54206q-.0096,2.971-.00518,5.94215c-.00014,1.315.01316,2.63019-.004,3.945a1.55459,1.55459,0,0,1-.96749,1.47882,11.52926,11.52926,0,0,1-1.17.41127.43752.43752,0,0,0-.35505.46394,3.38575,3.38575,0,0,0,.27814,1.37833,3.6628,3.6628,0,0,0,3.1615,2.30963,3.56264,3.56264,0,0,0,2.90893-1.03744,3.65913,3.65913,0,0,0,1.14822-2.64884A.43543.43543,0,0,0,24.68869,20.8405Zm-3.47418,3.3201a2.89121,2.89121,0,0,1-2.81169-2.35844,14.65034,14.65034,0,0,0,5.69383.00205A2.90465,2.90465,0,0,1,21.21451,24.1606Z" transform="translate(-0.00303 0)"/>
    <path d="M6.89269,17.28154c-.59375-.39616-1.18689-.79326-1.78289-1.186a.20861.20861,0,0,1-.107-.19965c.0043-.51775.00208-1.03555.002-1.55334-.00029-1.73416.00178-3.46833-.00414-5.20246a1.057,1.057,0,0,1,.141-.56046,2.49627,2.49627,0,0,0,.28047-1.35042.42346.42346,0,0,0-.83586-.09663.17559.17559,0,0,0-.01165.07991l.00017.0108-.0006.00592.00081.008a2.51373,2.51373,0,0,1-.18.96833,1.36462,1.36462,0,0,0-.227.61551q.00457,3.68611.00055,7.37225a.4781.4781,0,0,0,.23008.43261c.67388.44581,1.34433.89677,2.0179,1.34305a.50883.50883,0,0,1,.25311.45882q-.0052,2.61972-.00073,5.23946a.43647.43647,0,0,1-.499.49678c-1.60279.00042-3.20558-.00375-4.80834.00345A.474.474,0,0,1,.83328,23.643c.0099-1.73411.00742-3.46829.00353-5.20243a.51543.51543,0,0,1,.25522-.47008c.63482-.41578,1.26157-.84417,1.90275-1.24982a.59811.59811,0,0,0,.34347-.653,1.0266,1.0266,0,0,1-.00141-.17236q0-3.51969-.00284-7.03937a.99815.99815,0,0,0-.067-.33246,2.13755,2.13755,0,0,0-.179-.36365A1.32287,1.32287,0,0,1,2.916,7.433c.01111-.91625.0043-1.83273.0043-2.74912h.00039q0-.62872,0-1.25747c.00008-.59175-.00408-1.18354.0018-1.77523A.83094.83094,0,0,1,4.58058,1.5954a.42343.42343,0,1,0,.83006-.03115,2.22919,2.22919,0,0,0-.04135-.28295,1.66371,1.66371,0,0,0-3.28241.40243c-.00374,2.02592.00129,4.05185-.00274,6.07776a1.03321,1.03321,0,0,0,.11937.49454c.08154.15618.16529.31182.23486.47338a.706.706,0,0,1,.061.26967c.0033,2.215-.00375,4.43.01021,6.64481.00185.293-.05961.49422-.33481.61046a.99594.99594,0,0,0-.154.1009c-.51165.34166-1.03043.67322-1.53233,1.02862a1.1243,1.1243,0,0,0-.48245.95256q-.00645,2.69987-.002,5.39973a1.0327,1.0327,0,0,0,.02134.24465,1.25444,1.25444,0,0,0,1.288,1.01666q2.45348.00579,4.907-.0021a1.32465,1.32465,0,0,0,.457-.07973,1.23787,1.23787,0,0,0,.82616-1.219c.0005-1.74637-.00508-3.49275.00142-5.23909A1.31354,1.31354,0,0,0,6.89269,17.28154Z" transform="translate(-0.00303 0)"/>
    <path d="M14.64481,17.27161a1.02327,1.02327,0,0,1-.46019-.52086,4.66434,4.66434,0,0,1-.42947-1.82032c-.00843-1.99317-.00344-3.9864-.00131-5.97961a.427.427,0,0,1,.04188-.17516q.14661-.31136.30463-.61732a2.16805,2.16805,0,0,0,.06168-.85629.42238.42238,0,0,0-.81761-.20456.14875.14875,0,0,0-.02152.09838c.00029.005,0,.01148.00022.0167l-.00168.01664.00218.02166a2.60544,2.60544,0,0,1-.17721.947,1.409,1.409,0,0,0-.23172.63919q.00634,3.02677.00195,6.05359a4.22955,4.22955,0,0,0,.18063,1.264c.14507.4641.33971.91274.5137,1.36774a.52245.52245,0,0,0,.27408.2859c.10662.05234.21416.10437.31488.16685a3.25075,3.25075,0,0,1,1.62263,2.67582,3.19448,3.19448,0,0,1-.64544,2.1232,3.30972,3.30972,0,0,1-3.622,1.246,3.32466,3.32466,0,0,1-2.23726-4.12707,3.203,3.203,0,0,1,1.64852-2.00469.87911.87911,0,0,0,.49494-.53912A.38226.38226,0,0,1,11.486,17.293a6.13654,6.13654,0,0,0,.60424-2.76242c-.01474-1.8287-.00856-3.65762.00032-5.48639A1.36073,1.36073,0,0,0,11.9,8.28364a1.68027,1.68027,0,0,1-.2387-.96961c.01907-.875.00626-1.7506.00626-2.626h.00046q0-.62878,0-1.25757c.00006-.5918-.00351-1.18363.00151-1.77539A.8397.8397,0,0,1,12.49364.84a.88912.88912,0,0,1,.83241.77311.41653.41653,0,0,0-.00461.04577.424.424,0,1,0,.83553-.09762,1.70835,1.70835,0,0,0-.20036-.66552,1.65533,1.65533,0,0,0-3.12275.80308q-.00268,3.07611.00373,6.15223a.82612.82612,0,0,0,.07018.3068,4.796,4.796,0,0,0,.24839.50752.796.796,0,0,1,.09591.41061c-.00294,1.82886-.01053,3.65779.00208,5.48656a5.18605,5.18605,0,0,1-.48082,2.27909.59092.59092,0,0,1-.24944.33471,3.79482,3.79482,0,0,0-1.21626.98536,4.1176,4.1176,0,0,0-.96386,2.40264A4.17272,4.17272,0,0,0,8.483,21.91806a3.92123,3.92123,0,0,0,.7289,1.46451,4.123,4.123,0,0,0,2.79435,1.58254,3.79429,3.79429,0,0,0,2.07066-.29662,4.15771,4.15771,0,0,0,2.55325-3.37015,3.85881,3.85881,0,0,0-.35385-2.21771A3.94547,3.94547,0,0,0,14.64481,17.27161Z" transform="translate(-0.00303 0)"/>
    <path d="M2.50258,18.74094a.41166.41166,0,0,0-.63161-.34441.4282.4282,0,0,0-.20094.39709q.00147,1.90459-.00067,3.80916c0,.11094-.00212.22209.00362.33278a.416.416,0,1,0,.83112-.04034c.00226-.69032.0008-1.38066.0008-2.071h.00051q0-.45612,0-.91223C2.50515,19.52164,2.51033,19.13116,2.50258,18.74094Z" transform="translate(-0.00303 0)"/>
    <path d="M3.339,22.91209a.411.411,0,0,0,.62188.36209A.42342.42342,0,0,0,4.17009,22.87q-.00047-1.8675.00087-3.735c0-.13559.003-.27142-.00373-.40671a.41516.41516,0,0,0-.82926.04207c-.00213.68619-.00075,1.37238-.00075,2.05856H3.33684q0,.49308,0,.98615C3.337,22.18074,3.33287,22.54649,3.339,22.91209Z" transform="translate(-0.00303 0)"/>
    <path d="M5.00235,22.89531a.41587.41587,0,0,0,.44426.43562.42359.42359,0,0,0,.38869-.45648q.00262-1.62718.00225-3.25437c.00008-.29174.00233-.58356-.00379-.8752a.41582.41582,0,1,0-.83131.02084c-.002.6862-.00072,1.37242-.00072,2.05863H5.003q0,.04316,0,.0863C5.00255,21.5722,5.00058,22.23376,5.00235,22.89531Z" transform="translate(-0.00303 0)"/>
    <path d="M13.33358,20.83077a.41382.41382,0,0,0-.41636-.41343c-.27907-.0047-.55831-.00595-.83737-.00156a.41658.41658,0,0,0,.00322.83313c.13948.00374.27913.00069.4187.00069v-.00185c.13956,0,.27923.00339.41867-.00076A.41285.41285,0,0,0,13.33358,20.83077Z" transform="translate(-0.00303 0)"/>
    <path d="M13.75357,22.11469a.41964.41964,0,0,0,.42206.3837.41427.41427,0,0,0,.40572-.38623,4.71825,4.71825,0,0,0-.002-.48018.41533.41533,0,0,0-.82814.00248c-.005.0777-.0008.156-.0008.234h.00216C13.75261,21.95056,13.7477,22.033,13.75357,22.11469Z" transform="translate(-0.00303 0)"/>
    <path d="M10.84493,21.2494a.37315.37315,0,0,0-.3884.263,2.004,2.004,0,0,0-.05331.36079l.01371.00194c0,.0657-.00137.13143.00024.19709a.42017.42017,0,0,0,.345.41979.376.376,0,0,0,.4506-.27085,2.18568,2.18568,0,0,0,.00037-.70262A.34769.34769,0,0,0,10.84493,21.2494Z" transform="translate(-0.00303 0)"/>
    <path d="M14.58165,19.54447a.415.415,0,0,0-.82547-.01258,4.0948,4.0948,0,0,0-.00231.51689.41289.41289,0,0,0,.33715.36112.39511.39511,0,0,0,.4378-.223,2.31352,2.31352,0,0,0,.07589-.39247l-.02208-.00372C14.58263,19.7086,14.5876,19.62614,14.58165,19.54447Z" transform="translate(-0.00303 0)"/>
    <path d="M11.24988,19.79181c0-.0821.00554-.16465-.00108-.24622a.419.419,0,0,0-.42707-.37761.41187.41187,0,0,0-.40249.38866c-.00606.15575-.00479.31217.00176.46793a.42146.42146,0,0,0,.33971.3867.39253.39253,0,0,0,.447-.24554,2.06429,2.06429,0,0,0,.06018-.37157Z" transform="translate(-0.00303 0)"/>
    <path d="M12.08434,22.93019a.41522.41522,0,0,0,.82959.00847c.00726-.15572.00852-.31224.00174-.46793a.41021.41021,0,0,0-.41578-.38759.41558.41558,0,0,0-.41337.39137c-.00413.07367-.00065.14776-.00065.22166h-.00209C12.08378,22.77419,12.08087,22.85233,12.08434,22.93019Z" transform="translate(-0.00303 0)"/>
    <path d="M12.91386,18.71586a.4165.4165,0,0,0-.41033-.38131.40894.40894,0,0,0-.41757.38486c-.00706.15969-.00675.32036.00214.47992a.4152.4152,0,0,0,.82868-.01576c.00338-.07371.00054-.14771.00054-.22157h-.00251C12.91481,18.87993,12.91967,18.79751,12.91386,18.71586Z" transform="translate(-0.00303 0)"/>
    <path d="M4.99815,2.349a.424.424,0,1,0,.424.424A.424.424,0,0,0,4.99815,2.349Z" transform="translate(-0.00303 0)"/>
    <path d="M4.99815,3.46307a.424.424,0,1,0,.424.424A.424.424,0,0,0,4.99815,3.46307Z" transform="translate(-0.00303 0)"/>
    <path d="M4.99815,4.57712a.424.424,0,1,0,.424.424A.424.424,0,0,0,4.99815,4.57712Z" transform="translate(-0.00303 0)"/>
    <path d="M4.99815,5.69119a.424.424,0,1,0,.424.424A.424.424,0,0,0,4.99815,5.69119Z" transform="translate(-0.00303 0)"/>
    <path d="M13.7454,2.349a.424.424,0,1,0,.424.424A.424.424,0,0,0,13.7454,2.349Z" transform="translate(-0.00303 0)"/>
    <circle cx="13.74237" cy="3.88703" r="0.42397"/>
    <path d="M13.7454,4.57712a.424.424,0,1,0,.424.424A.424.424,0,0,0,13.7454,4.57712Z" transform="translate(-0.00303 0)"/>
    <circle cx="13.74237" cy="6.11515" r="0.42397"/>
    <path d="M22.49915,2.349a.424.424,0,1,0,.424.424A.424.424,0,0,0,22.49915,2.349Z" transform="translate(-0.00303 0)"/>
    <circle cx="22.49612" cy="3.88703" r="0.42397"/>
    <path d="M22.49915,4.57712a.424.424,0,1,0,.424.424A.424.424,0,0,0,22.49915,4.57712Z" transform="translate(-0.00303 0)"/>
    <circle cx="22.49612" cy="6.11515" r="0.42397"/>
  </g>
</svg>
