<svg id="Слой_1" data-name="Слой 1" xmlns="http://www.w3.org/2000/svg" viewBox="0 0 25.00197 18.51987">
  <g>
    <path d="M12.77086,3.29472a8.898,8.898,0,1,0,8.89716,8.9212A8.8871,8.8871,0,0,0,12.77086,3.29472ZM12.732,20.26287a8.04687,8.04687,0,1,1,8.06243-8.067A8.04417,8.04417,0,0,1,12.732,20.26287Z" transform="translate(0.00098 -3.24006)"/>
    <path d="M3.48089,3.3052c-.32316-.04506-.50594.13648-.50642.51546-.00144,1.21206.00075,2.42405-.00041,3.63611a1.00718,1.00718,0,0,1-.61031,1.063c-.00267-.0591-.00726-.11355-.00726-.16806q-.00011-1.24458.00075-2.48918c.00021-.69954.00384-1.39915-.00109-2.09869a.41118.41118,0,0,0-.41692-.46746c-.26167-.00787-.42219.14409-.45013.43746-.01157.12108-.00767.2438-.0076.36577q.00051,1.76929.00226,3.53852c.0002.3055.00007.61093.00007.95128-.06739-.0341-.09595-.0452-.12094-.0617a1.0809,1.0809,0,0,1-.4841-.97991Q.88239,5.6809.87845,3.814c-.00069-.3446-.15888-.52423-.44418-.5217-.27276.0024-.42554.17984-.43184.50937C-.00195,4.02939-.00011,4.25723,0,4.485c.00041,1.025-.004,2.04994.00343,3.07484a1.8916,1.8916,0,0,0,1.3243,1.87222c.1395.04807.1586.12717.15792.25215-.00445.85411-.00322,1.70828-.00521,2.56239-.00013.06272-.01164.12545-.01746.18476-.7031.09129-.93519.35919-.93539,1.067q-.00061,1.94,0,3.88018c.00013,1.04934-.0024,2.09869.00212,3.148a.82637.82637,0,0,0,.92156.917c.35008.00144.70036.009,1.05-.00281a.74283.74283,0,0,0,.71844-.5571,1.88531,1.88531,0,0,0,.05643-.505q.00432-3.42867.00021-6.85735c-.00048-.67777-.23544-.94992-.91752-1.04524,0-.94361-.00336-1.8701.00685-2.79646a.28019.28019,0,0,1,.155-.1964,1.922,1.922,0,0,0,1.32807-1.9277c.00726-1.212.00349-2.424.00192-3.63611a1.60168,1.60168,0,0,0-.03205-.314A.36114.36114,0,0,0,3.48089,3.3052ZM2.42853,13.33635v7.221H1.42569v-7.221Z" transform="translate(0.00098 -3.24006)"/>
    <path d="M24.913,9.43151a14.18654,14.18654,0,0,0-.74535-4.01084A3.94773,3.94773,0,0,0,22.88262,3.4486c-.20949-.15539-.42863-.29084-.69263-.1484-.24434.13189-.21263.37747-.21209.60565q.01192,4.74384.022,9.48761c.00247,1.25171.00042,2.50342.00042,3.75513h-.02349v1.82963c0,.60983-.0035,1.21973.00095,1.82956a.84881.84881,0,0,0,.94766.95121q.39064.00205.78131-.00082c.72577-.00623,1.0177-.30063,1.018-1.02681q.00153-3.48847.00417-6.977c.00007-.084.00124-.20634.05219-.24551a.67415.67415,0,0,0,.21907-.61688C24.97775,11.73825,24.97474,10.58324,24.913,9.43151Zm-1.03,11.39483H22.86844V13.60993H23.883Zm.2577-8.1253H22.909V4.83967a4.32329,4.32329,0,0,1,.6751,1.60693,25.05807,25.05807,0,0,1,.573,6.09878C24.15679,12.59222,24.14748,12.63906,24.1407,12.701Z" transform="translate(0.00098 -3.24006)"/>
    <path d="M12.76,6.73675a.41661.41661,0,1,0,.41664.41658A.4166.4166,0,0,0,12.76,6.73675Z" transform="translate(0.00098 -3.24006)"/>
    <circle cx="12.76096" cy="13.97804" r="0.41664"/>
    <path d="M14.47976,7.01527a.4166.4166,0,1,0,.26386.52683A.41658.41658,0,0,0,14.47976,7.01527Z" transform="translate(0.00098 -3.24006)"/>
    <path d="M11.30316,16.56554a.41664.41664,0,1,0,.26386.52683A.41668.41668,0,0,0,11.30316,16.56554Z" transform="translate(0.00098 -3.24006)"/>
    <path d="M15.44056,7.90642a.41665.41665,0,1,0,.58319-.08409A.41658.41658,0,0,0,15.44056,7.90642Z" transform="translate(0.00098 -3.24006)"/>
    <path d="M9.4121,15.966a.41662.41662,0,1,0,.5832-.0841A.41661.41661,0,0,0,9.4121,15.966Z" transform="translate(0.00098 -3.24006)"/>
    <path d="M17.1298,9.65538a.41663.41663,0,1,0-.5799-.1043A.41662.41662,0,0,0,17.1298,9.65538Z" transform="translate(0.00098 -3.24006)"/>
    <path d="M8.39008,14.71612a.41665.41665,0,1,0,.57991.1043A.4166.4166,0,0,0,8.39008,14.71612Z" transform="translate(0.00098 -3.24006)"/>
    <path d="M17.18774,10.88189a.41663.41663,0,1,0,.28194-.51731A.41657.41657,0,0,0,17.18774,10.88189Z" transform="translate(0.00098 -3.24006)"/>
    <path d="M8.33221,13.48954a.41666.41666,0,1,0-.282.51738A.41668.41668,0,0,0,8.33221,13.48954Z" transform="translate(0.00098 -3.24006)"/>
    <path d="M17.8038,11.94411a.41666.41666,0,1,0,.40185.43089A.41672.41672,0,0,0,17.8038,11.94411Z" transform="translate(0.00098 -3.24006)"/>
    <path d="M8.147,12.02547a.41662.41662,0,1,0-.43082.40185A.41667.41667,0,0,0,8.147,12.02547Z" transform="translate(0.00098 -3.24006)"/>
    <path d="M17.62219,13.54837a.41664.41664,0,1,0,.24543.53566A.41668.41668,0,0,0,17.62219,13.54837Z" transform="translate(0.00098 -3.24006)"/>
    <path d="M7.8977,10.82306a.41662.41662,0,1,0-.24537-.53566A.41654.41654,0,0,0,7.8977,10.82306Z" transform="translate(0.00098 -3.24006)"/>
    <path d="M16.35787,15.07715a.41664.41664,0,1,0,.58573-.06382A.41661.41661,0,0,0,16.35787,15.07715Z" transform="translate(0.00098 -3.24006)"/>
    <path d="M8.51253,8.77238a.41661.41661,0,1,0,.58572-.06376A.41658.41658,0,0,0,8.51253,8.77238Z" transform="translate(0.00098 -3.24006)"/>
    <path d="M15.26141,16.06487a.41663.41663,0,1,0,.57593.12436A.41662.41662,0,0,0,15.26141,16.06487Z" transform="translate(0.00098 -3.24006)"/>
    <path d="M9.8069,7.60627a.41665.41665,0,1,0,.57593.12436A.41666.41666,0,0,0,9.8069,7.60627Z" transform="translate(0.00098 -3.24006)"/>
    <path d="M14.01984,16.65614a.41661.41661,0,1,0,.50724.29974A.41663.41663,0,0,0,14.01984,16.65614Z" transform="translate(0.00098 -3.24006)"/>
    <path d="M11.21112,6.90837a.41662.41662,0,1,0,.50725.29974A.41655.41655,0,0,0,11.21112,6.90837Z" transform="translate(0.00098 -3.24006)"/>
  </g>
</svg>
