<svg id="Слой_1" data-name="Слой 1" xmlns="http://www.w3.org/2000/svg" viewBox="0 0 24.97034 24.17975">
  <g>
    <path d="M24.50146.47742A11.89726,11.89726,0,0,0,18.48663,3.214a87.54222,87.54222,0,0,0-6.67706,6.36389C10.87653,10.5094.22772,21.02826.22772,21.02826L.01483,21.238l.14087.263A7.52192,7.52192,0,0,0,1.62421,23.3797a6.32828,6.32828,0,0,0,1.96313,1.11938l.27246.09076L11.80646,14.262l.0094-.01562a.33684.33684,0,0,1,.31622-.14716.31531.31531,0,0,1,.3053.14405l.0141.02343,3.23907,4.01721.3147-.2771S24.384,10.62213,24.957.897L24.98517.4101ZM3.58734,23.6286a4.89064,4.89064,0,0,1-1.43085-.85,5.915,5.915,0,0,1-1.13818-1.40588c.21137-.20819,3.14362-3.10919,5.93811-5.87079l1.6297,1.62976Zm5.49194-7.13727-1.553-1.553c.57928-.57141.71545-.70764,1.243-1.22894l1.3855,1.384Zm6.69111.61524-1.08551-1.34613a.43432.43432,0,0,0,.02594-.12854.44568.44568,0,0,0-.44568-.44574c-.01343,0-.02472.00647-.03785.00763l-1.13708-1.40931.03131.04542a1.25088,1.25088,0,0,0-.98944-.53229,1.27245,1.27245,0,0,0-.99255.51819l.02038-.02973-.512.66693L9.34076,13.14575c1.19134-1.17883,2.78351-2.75067,3.03558-3.00268a88.781,88.781,0,0,1,6.60657-6.30133,12.78933,12.78933,0,0,1,3.068-1.86066.4374.4374,0,0,0,.73938-.2702,10.52939,10.52939,0,0,1,1.28217-.32862C23.29907,9.87067,16.59705,16.34259,15.77039,17.10657Z" transform="translate(-0.01483 -0.4101)"/>
    <path d="M22.04669,2.83319a.44574.44574,0,1,0,.44568.44574A.44573.44573,0,0,0,22.04669,2.83319Z" transform="translate(-0.01483 -0.4101)"/>
    <path d="M21.57855,4.40894a.44571.44571,0,1,0,.44574.44574A.44568.44568,0,0,0,21.57855,4.40894Z" transform="translate(-0.01483 -0.4101)"/>
    <circle cx="20.9649" cy="5.97253" r="0.44574"/>
    <path d="M20.262,7.41479a.44571.44571,0,1,0,.44574.44568A.44572.44572,0,0,0,20.262,7.41479Z" transform="translate(-0.01483 -0.4101)"/>
    <path d="M19.444,8.83942a.44571.44571,0,1,0,.44568.44574A.44576.44576,0,0,0,19.444,8.83942Z" transform="translate(-0.01483 -0.4101)"/>
    <circle cx="18.52972" cy="10.25116" r="0.44574"/>
    <path d="M17.56763,11.53607a.44571.44571,0,1,0,.44574.44574A.44568.44568,0,0,0,17.56763,11.53607Z" transform="translate(-0.01483 -0.4101)"/>
    <path d="M16.52893,12.80725a.44574.44574,0,1,0,.44568.44574A.44577.44577,0,0,0,16.52893,12.80725Z" transform="translate(-0.01483 -0.4101)"/>
    <path d="M15.42523,14.02606a.44571.44571,0,1,0,.44568.44574A.4457.4457,0,0,0,15.42523,14.02606Z" transform="translate(-0.01483 -0.4101)"/>
  </g>
</svg>
