<svg xmlns="http://www.w3.org/2000/svg" viewBox="0 0 216 200.5"><defs><style>.cls-1,.cls-2{fill:none;stroke:#000;}.cls-1{stroke-linecap:round;stroke-linejoin:round;stroke-width:8px;}.cls-2{stroke-miterlimit:10;stroke-width:6px;}</style></defs><g id="Слой_2" data-name="Слой 2"><g id="Raw"><line class="cls-1" x1="4" y1="196.5" x2="180" y2="196.5"/><path class="cls-1" d="M55.3,196.5A88,88,0,0,1,4,116.5v-48H180v48a88,88,0,0,1-51.3,80"/><path class="cls-1" d="M180,68.5h0a32,32,0,0,1,32,32v8a32,32,0,0,1-32,32h-3.4"/><path class="cls-2" d="M60.9,37.9s-9.5-10.7,0-18.9S60.7,3,58.8,3"/><circle cx="58.9" cy="3" r="3"/><circle cx="60.9" cy="38" r="3"/><path class="cls-2" d="M92.6,37.9s-9.5-10.7,0-18.9S92.4,3,90.5,3"/><circle cx="90.5" cy="3" r="3"/><circle cx="92.6" cy="38" r="3"/><path class="cls-2" d="M124,38.5s-9.5-10.7,0-18.9-.2-16-2.1-16"/><circle cx="122" cy="3.6" r="3"/><circle cx="124" cy="38.6" r="3"/></g></g></svg>