<svg id="Слой_1" data-name="Слой 1" xmlns="http://www.w3.org/2000/svg" viewBox="0 0 18.85246 25">
  <path d="M12.09016,0a.82125.82125,0,0,0-.81967.81967v.45146a2.86743,2.86743,0,0,0-2.459,2.82723V7.21215L5.36789,10.86066a8.64088,8.64088,0,0,0-2.29412,5.861v1.31116a1.19374,1.19374,0,0,0,.81967,1.14786v.08165C3.89344,22.41771,7.74526,25,12.5,25s8.60656-2.58229,8.60656-5.7377v-.08165a1.19374,1.19374,0,0,0,.81967-1.14786V16.76326a8.57121,8.57121,0,0,0-2.29412-5.86258L16.18852,7.21215V4.09836a2.86743,2.86743,0,0,0-2.459-2.82723V.81967A.82125.82125,0,0,0,12.90984,0Zm0,.81967h.81968v.40984h-.81968Zm-.40983,1.22951h1.63934a2.02888,2.02888,0,0,1,2.04918,2.04918v.44986l-5.7377.73963V4.46817l4.18-.5347a.47764.47764,0,0,0,.36821-.44986c0-.20492-.24494-.36822-.44986-.36822l-4.01672.49149A1.98736,1.98736,0,0,1,11.68033,2.04918Zm3.68852,3.31871V6.96721H9.63115V6.10752Zm-5.98264,2.419h6.18756l3.402,3.6485a7.70715,7.70715,0,0,1,2.0908,5.32787v1.26953h.04a.38654.38654,0,0,1-.40984.40983H4.30328a.38654.38654,0,0,1-.40984-.40983V16.76326a7.86161,7.86161,0,0,1,2.08921-5.32787ZM4.71311,19.2623H20.28689c0,2.70555-3.48361,4.918-7.78689,4.918S4.71311,21.96785,4.71311,19.2623Zm3.165,1.45523a.38636.38636,0,0,0-.25615.18411.40572.40572,0,0,0,.12487.57473A8.68524,8.68524,0,0,0,12.5,22.70588a12.19371,12.19371,0,0,0,1.26953-.08325.48241.48241,0,0,0,.36981-.45146c0-.20492-.24494-.36821-.44985-.36821A10.69789,10.69789,0,0,1,12.5,21.88621a7.965,7.965,0,0,1-4.30328-1.10784A.45174.45174,0,0,0,7.87814,20.71753Zm9.042,0a.4758.4758,0,0,0-.15689.06084,6.38513,6.38513,0,0,1-1.18949.57313.42737.42737,0,0,0-.24494.53471.49088.49088,0,0,0,.40984.285.1465.1465,0,0,0,.12167-.04,8.38963,8.38963,0,0,0,1.35277-.65478.40406.40406,0,0,0,.12328-.57473A.38861.38861,0,0,0,16.92015,20.71753ZM5.14077,17.04876a.42766.42766,0,1,1-.42766-.42765A.42766.42766,0,0,1,5.14077,17.04876Zm1.20278,0a.42766.42766,0,1,1-.42766-.42765A.42766.42766,0,0,1,6.34355,17.04876Zm1.20278,0a.42766.42766,0,1,1-.42766-.42765A.42766.42766,0,0,1,7.54633,17.04876Zm1.20278,0a.42766.42766,0,1,1-.42766-.42765A.42766.42766,0,0,1,8.74911,17.04876Zm1.20278,0a.42766.42766,0,1,1-.42766-.42765A.42766.42766,0,0,1,9.95189,17.04876Zm1.20278,0a.42766.42766,0,1,1-.42766-.42765A.42766.42766,0,0,1,11.15467,17.04876Zm1.20278,0a.42766.42766,0,1,1-.42766-.42765A.42766.42766,0,0,1,12.35745,17.04876Zm1.20278,0a.42766.42766,0,1,1-.42766-.42765A.42766.42766,0,0,1,13.56023,17.04876Zm1.20278,0a.42766.42766,0,1,1-.42766-.42765A.42766.42766,0,0,1,14.763,17.04876Zm1.20278,0a.42766.42766,0,1,1-.42766-.42765A.42766.42766,0,0,1,15.96579,17.04876Zm1.20278,0a.42766.42766,0,1,1-.42766-.42765A.42766.42766,0,0,1,17.16857,17.04876Zm1.20278,0a.42766.42766,0,1,1-.42766-.42765A.42766.42766,0,0,1,18.37135,17.04876Zm1.20278,0a.42766.42766,0,1,1-.42766-.42765A.42766.42766,0,0,1,19.57413,17.04876Zm1.20278,0a.42766.42766,0,1,1-.42766-.42765A.42766.42766,0,0,1,20.77691,17.04876Z" transform="translate(-3.07377)"/>
</svg>
