<svg xmlns="http://www.w3.org/2000/svg" viewBox="0 0 173.9 227.4"><defs><style>.cls-1,.cls-2,.cls-4{fill:none;}.cls-1{stroke:#020202;}.cls-1,.cls-2{stroke-miterlimit:10;stroke-width:3px;}.cls-2{stroke:#040505;}.cls-3{fill:#050505;}.cls-5{fill:#040505;}</style></defs><g id="Слой_2" data-name="Слой 2"><g id="Raw"><path class="cls-1" d="M166.7,169.8h-8.6l1.8,23.1c0,.5,1.1.9,2.5.9h0c1.4,0,2.5-.4,2.6-.9Z"/><polygon class="cls-2" points="158.1 77.1 166.7 77.1 164.9 47.4 159.9 47.4 158.1 77.1"/><path class="cls-1" d="M167.5,169.8H157.3a2,2,0,0,1-2.2-1.8V78.9a2,2,0,0,1,2.2-1.8h10.2a2,2,0,0,1,2.2,1.8V168A2,2,0,0,1,167.5,169.8Z"/><polygon class="cls-3" points="159.2 91.4 157.9 92.4 156.6 91.4 157.9 90.3 159.2 91.4"/><polygon class="cls-3" points="159.2 94 157.9 95.1 156.6 94 157.9 93 159.2 94"/><polygon class="cls-3" points="159.2 96.6 157.9 97.7 156.6 96.6 157.9 95.6 159.2 96.6"/><polygon class="cls-3" points="159.2 99.3 157.9 100.3 156.6 99.3 157.9 98.2 159.2 99.3"/><polygon class="cls-3" points="159.2 101.9 157.9 103 156.6 101.9 157.9 100.9 159.2 101.9"/><polygon class="cls-3" points="159.2 104.5 157.9 105.6 156.6 104.5 157.9 103.5 159.2 104.5"/><polygon class="cls-3" points="159.2 107.2 157.9 108.2 156.6 107.2 157.9 106.1 159.2 107.2"/><polygon class="cls-3" points="159.2 109.8 157.9 110.8 156.6 109.8 157.9 108.7 159.2 109.8"/><polygon class="cls-3" points="159.2 112.4 157.9 113.5 156.6 112.4 157.9 111.4 159.2 112.4"/><polygon class="cls-3" points="159.2 115 157.9 116.1 156.6 115 157.9 114 159.2 115"/><polygon class="cls-3" points="159.2 117.7 157.9 118.7 156.6 117.7 157.9 116.6 159.2 117.7"/><polygon class="cls-3" points="159.2 120.3 157.9 121.3 156.6 120.3 157.9 119.2 159.2 120.3"/><polygon class="cls-3" points="159.2 122.9 157.9 124 156.6 122.9 157.9 121.9 159.2 122.9"/><polygon class="cls-3" points="159.2 125.6 157.9 126.6 156.6 125.6 157.9 124.5 159.2 125.6"/><polygon class="cls-3" points="159.2 128.2 157.9 129.2 156.6 128.2 157.9 127.1 159.2 128.2"/><polygon class="cls-3" points="159.2 130.8 157.9 131.9 156.6 130.8 157.9 129.8 159.2 130.8"/><polygon class="cls-3" points="159.2 133.4 157.9 134.5 156.6 133.4 157.9 132.4 159.2 133.4"/><polygon class="cls-3" points="159.2 136.1 157.9 137.1 156.6 136.1 157.9 135 159.2 136.1"/><polygon class="cls-3" points="159.2 138.7 157.9 139.7 156.6 138.7 157.9 137.6 159.2 138.7"/><polygon class="cls-3" points="159.2 141.3 157.9 142.4 156.6 141.3 157.9 140.3 159.2 141.3"/><polygon class="cls-3" points="159.2 143.9 157.9 145 156.6 143.9 157.9 142.9 159.2 143.9"/><polygon class="cls-3" points="159.2 146.6 157.9 147.6 156.6 146.6 157.9 145.5 159.2 146.6"/><polygon class="cls-3" points="159.2 149.2 157.9 150.3 156.6 149.2 157.9 148.2 159.2 149.2"/><polygon class="cls-3" points="159.2 151.8 157.9 152.9 156.6 151.8 157.9 150.8 159.2 151.8"/><polygon class="cls-3" points="159.2 154.5 157.9 155.5 156.6 154.5 157.9 153.4 159.2 154.5"/><polygon class="cls-3" points="161.4 92.7 160.1 93.7 158.8 92.7 160.1 91.6 161.4 92.7"/><polygon class="cls-3" points="161.4 95.3 160.1 96.4 158.8 95.3 160.1 94.3 161.4 95.3"/><polygon class="cls-3" points="161.4 97.9 160.1 99 158.8 97.9 160.1 96.9 161.4 97.9"/><polygon class="cls-3" points="161.4 100.6 160.1 101.6 158.8 100.6 160.1 99.5 161.4 100.6"/><polygon class="cls-3" points="161.4 103.2 160.1 104.2 158.8 103.2 160.1 102.1 161.4 103.2"/><polygon class="cls-3" points="161.4 105.8 160.1 106.9 158.8 105.8 160.1 104.8 161.4 105.8"/><polygon class="cls-3" points="161.4 108.4 160.1 109.5 158.8 108.4 160.1 107.4 161.4 108.4"/><polygon class="cls-3" points="161.4 111.1 160.1 112.1 158.8 111.1 160.1 110 161.4 111.1"/><polygon class="cls-3" points="161.4 113.7 160.1 114.8 158.8 113.7 160.1 112.7 161.4 113.7"/><polygon class="cls-3" points="161.4 116.3 160.1 117.4 158.8 116.3 160.1 115.3 161.4 116.3"/><polygon class="cls-3" points="161.4 119 160.1 120 158.8 119 160.1 117.9 161.4 119"/><polygon class="cls-3" points="161.4 121.6 160.1 122.6 158.8 121.6 160.1 120.5 161.4 121.6"/><polygon class="cls-3" points="161.4 124.2 160.1 125.3 158.8 124.2 160.1 123.2 161.4 124.2"/><polygon class="cls-3" points="161.4 126.8 160.1 127.9 158.8 126.8 160.1 125.8 161.4 126.8"/><polygon class="cls-3" points="161.4 129.5 160.1 130.5 158.8 129.5 160.1 128.4 161.4 129.5"/><polygon class="cls-3" points="161.4 132.1 160.1 133.2 158.8 132.1 160.1 131.1 161.4 132.1"/><polygon class="cls-3" points="161.4 134.7 160.1 135.8 158.8 134.7 160.1 133.7 161.4 134.7"/><polygon class="cls-3" points="161.4 137.4 160.1 138.4 158.8 137.4 160.1 136.3 161.4 137.4"/><polygon class="cls-3" points="161.4 140 160.1 141 158.8 140 160.1 138.9 161.4 140"/><polygon class="cls-3" points="161.4 142.6 160.1 143.7 158.8 142.6 160.1 141.6 161.4 142.6"/><polygon class="cls-3" points="161.4 145.2 160.1 146.3 158.8 145.2 160.1 144.2 161.4 145.2"/><polygon class="cls-3" points="161.4 147.9 160.1 148.9 158.8 147.9 160.1 146.8 161.4 147.9"/><polygon class="cls-3" points="161.4 150.5 160.1 151.5 158.8 150.5 160.1 149.4 161.4 150.5"/><polygon class="cls-3" points="161.4 153.1 160.1 154.2 158.8 153.1 160.1 152.1 161.4 153.1"/><polygon class="cls-3" points="163.6 91.4 162.3 92.4 161 91.4 162.3 90.3 163.6 91.4"/><polygon class="cls-3" points="163.6 94 162.3 95.1 161 94 162.3 93 163.6 94"/><polygon class="cls-3" points="163.6 96.6 162.3 97.7 161 96.6 162.3 95.6 163.6 96.6"/><polygon class="cls-3" points="163.6 99.3 162.3 100.3 161 99.3 162.3 98.2 163.6 99.3"/><polygon class="cls-3" points="163.6 101.9 162.3 103 161 101.9 162.3 100.9 163.6 101.9"/><polygon class="cls-3" points="163.6 104.5 162.3 105.6 161 104.5 162.3 103.5 163.6 104.5"/><polygon class="cls-3" points="163.6 107.2 162.3 108.2 161 107.2 162.3 106.1 163.6 107.2"/><polygon class="cls-3" points="163.6 109.8 162.3 110.8 161 109.8 162.3 108.7 163.6 109.8"/><polygon class="cls-3" points="163.6 112.4 162.3 113.5 161 112.4 162.3 111.4 163.6 112.4"/><polygon class="cls-3" points="163.6 115 162.3 116.1 161 115 162.3 114 163.6 115"/><polygon class="cls-3" points="163.6 117.7 162.3 118.7 161 117.7 162.3 116.6 163.6 117.7"/><polygon class="cls-3" points="163.6 120.3 162.3 121.3 161 120.3 162.3 119.2 163.6 120.3"/><polygon class="cls-3" points="163.6 122.9 162.3 124 161 122.9 162.3 121.9 163.6 122.9"/><polygon class="cls-3" points="163.6 125.6 162.3 126.6 161 125.6 162.3 124.5 163.6 125.6"/><polygon class="cls-3" points="163.6 128.2 162.3 129.2 161 128.2 162.3 127.1 163.6 128.2"/><polygon class="cls-3" points="163.6 130.8 162.3 131.9 161 130.8 162.3 129.8 163.6 130.8"/><polygon class="cls-3" points="163.6 133.4 162.3 134.5 161 133.4 162.3 132.4 163.6 133.4"/><polygon class="cls-3" points="163.6 136.1 162.3 137.1 161 136.1 162.3 135 163.6 136.1"/><polygon class="cls-3" points="163.6 138.7 162.3 139.7 161 138.7 162.3 137.6 163.6 138.7"/><polygon class="cls-3" points="163.6 141.3 162.3 142.4 161 141.3 162.3 140.3 163.6 141.3"/><polygon class="cls-3" points="163.6 143.9 162.3 145 161 143.9 162.3 142.9 163.6 143.9"/><polygon class="cls-3" points="163.6 146.6 162.3 147.6 161 146.6 162.3 145.5 163.6 146.6"/><polygon class="cls-3" points="163.6 149.2 162.3 150.3 161 149.2 162.3 148.2 163.6 149.2"/><polygon class="cls-3" points="163.6 151.8 162.3 152.9 161 151.8 162.3 150.8 163.6 151.8"/><polygon class="cls-3" points="163.6 154.5 162.3 155.5 161 154.5 162.3 153.4 163.6 154.5"/><polygon class="cls-3" points="168 91.4 166.7 92.4 165.3 91.4 166.7 90.3 168 91.4"/><polygon class="cls-3" points="168 94 166.7 95.1 165.3 94 166.7 93 168 94"/><polygon class="cls-3" points="168 96.6 166.7 97.7 165.3 96.6 166.7 95.6 168 96.6"/><polygon class="cls-3" points="168 99.3 166.7 100.3 165.3 99.3 166.7 98.2 168 99.3"/><polygon class="cls-3" points="168 101.9 166.7 103 165.3 101.9 166.7 100.9 168 101.9"/><polygon class="cls-3" points="168 104.5 166.7 105.6 165.3 104.5 166.7 103.5 168 104.5"/><polygon class="cls-3" points="168 107.2 166.7 108.2 165.3 107.2 166.7 106.1 168 107.2"/><polygon class="cls-3" points="168 109.8 166.7 110.8 165.3 109.8 166.7 108.7 168 109.8"/><polygon class="cls-3" points="168 112.4 166.7 113.5 165.3 112.4 166.7 111.4 168 112.4"/><polygon class="cls-3" points="168 115 166.7 116.1 165.3 115 166.7 114 168 115"/><polygon class="cls-3" points="168 117.7 166.7 118.7 165.3 117.7 166.7 116.6 168 117.7"/><polygon class="cls-3" points="168 120.3 166.7 121.3 165.3 120.3 166.7 119.2 168 120.3"/><polygon class="cls-3" points="168 122.9 166.7 124 165.3 122.9 166.7 121.9 168 122.9"/><polygon class="cls-3" points="168 125.6 166.7 126.6 165.3 125.6 166.7 124.5 168 125.6"/><polygon class="cls-3" points="168 128.2 166.7 129.2 165.3 128.2 166.7 127.1 168 128.2"/><polygon class="cls-3" points="168 130.8 166.7 131.9 165.3 130.8 166.7 129.8 168 130.8"/><polygon class="cls-3" points="168 133.4 166.7 134.5 165.3 133.4 166.7 132.4 168 133.4"/><polygon class="cls-3" points="168 136.1 166.7 137.1 165.3 136.1 166.7 135 168 136.1"/><polygon class="cls-3" points="168 138.7 166.7 139.7 165.3 138.7 166.7 137.6 168 138.7"/><polygon class="cls-3" points="168 141.3 166.7 142.4 165.3 141.3 166.7 140.3 168 141.3"/><polygon class="cls-3" points="168 143.9 166.7 145 165.3 143.9 166.7 142.9 168 143.9"/><polygon class="cls-3" points="168 146.6 166.7 147.6 165.3 146.6 166.7 145.5 168 146.6"/><polygon class="cls-3" points="168 149.2 166.7 150.3 165.3 149.2 166.7 148.2 168 149.2"/><polygon class="cls-3" points="168 151.8 166.7 152.9 165.3 151.8 166.7 150.8 168 151.8"/><polygon class="cls-3" points="168 154.5 166.7 155.5 165.3 154.5 166.7 153.4 168 154.5"/><polygon class="cls-3" points="165.8 92.7 164.5 93.7 163.2 92.7 164.5 91.6 165.8 92.7"/><polygon class="cls-3" points="165.8 95.3 164.5 96.4 163.2 95.3 164.5 94.3 165.8 95.3"/><polygon class="cls-3" points="165.8 97.9 164.5 99 163.2 97.9 164.5 96.9 165.8 97.9"/><polygon class="cls-3" points="165.8 100.6 164.5 101.6 163.2 100.6 164.5 99.5 165.8 100.6"/><polygon class="cls-3" points="165.8 103.2 164.5 104.2 163.2 103.2 164.5 102.1 165.8 103.2"/><polygon class="cls-3" points="165.8 105.8 164.5 106.9 163.2 105.8 164.5 104.8 165.8 105.8"/><polygon class="cls-3" points="165.8 108.4 164.5 109.5 163.2 108.4 164.5 107.4 165.8 108.4"/><polygon class="cls-3" points="165.8 111.1 164.5 112.1 163.2 111.1 164.5 110 165.8 111.1"/><polygon class="cls-3" points="165.8 113.7 164.5 114.8 163.2 113.7 164.5 112.7 165.8 113.7"/><polygon class="cls-3" points="165.8 116.3 164.5 117.4 163.2 116.3 164.5 115.3 165.8 116.3"/><polygon class="cls-3" points="165.8 119 164.5 120 163.2 119 164.5 117.9 165.8 119"/><polygon class="cls-3" points="165.8 121.6 164.5 122.6 163.2 121.6 164.5 120.5 165.8 121.6"/><polygon class="cls-3" points="165.8 124.2 164.5 125.3 163.2 124.2 164.5 123.2 165.8 124.2"/><polygon class="cls-3" points="165.8 126.8 164.5 127.9 163.2 126.8 164.5 125.8 165.8 126.8"/><polygon class="cls-3" points="165.8 129.5 164.5 130.5 163.2 129.5 164.5 128.4 165.8 129.5"/><polygon class="cls-3" points="165.8 132.1 164.5 133.2 163.2 132.1 164.5 131.1 165.8 132.1"/><polygon class="cls-3" points="165.8 134.7 164.5 135.8 163.2 134.7 164.5 133.7 165.8 134.7"/><polygon class="cls-3" points="165.8 137.4 164.5 138.4 163.2 137.4 164.5 136.3 165.8 137.4"/><polygon class="cls-3" points="165.8 140 164.5 141 163.2 140 164.5 138.9 165.8 140"/><polygon class="cls-3" points="165.8 142.6 164.5 143.7 163.2 142.6 164.5 141.6 165.8 142.6"/><polygon class="cls-3" points="165.8 145.2 164.5 146.3 163.2 145.2 164.5 144.2 165.8 145.2"/><polygon class="cls-3" points="165.8 147.9 164.5 148.9 163.2 147.9 164.5 146.8 165.8 147.9"/><polygon class="cls-3" points="165.8 150.5 164.5 151.5 163.2 150.5 164.5 149.4 165.8 150.5"/><polygon class="cls-3" points="165.8 153.1 164.5 154.2 163.2 153.1 164.5 152.1 165.8 153.1"/><path class="cls-2" d="M155.7,42.6l4.3,4.7a3.4,3.4,0,0,0,4.8,0l4.3-4.7a3.8,3.8,0,0,0,1.1-2.6V4.5h0a11.3,11.3,0,0,0-9,4v.2a29.7,29.7,0,0,0-6.5,18.4V40A3.8,3.8,0,0,0,155.7,42.6Z"/><path class="cls-2" d="M169.7,34.9V4.4a11.8,11.8,0,0,0-7,3.3v.2a26.7,26.7,0,0,0-7.1,17.8v9.2a7.5,7.5,0,0,0,3.4,6.1,6.2,6.2,0,0,0,7.1.1A7.3,7.3,0,0,0,169.7,34.9Z"/><path class="cls-1" d="M168.6,224a31,31,0,0,1-12.5,0,4.1,4.1,0,0,1-3.7-3.8V207.1a11.9,11.9,0,0,1,3.6-8.3l3.9-4a4,4,0,0,1,5.2,0l3.8,4a11.5,11.5,0,0,1,3.5,8.2v13.1C172.4,222,170.8,223.5,168.6,224Z"/><path class="cls-1" d="M153,207.8V220a4,4,0,0,0,3.5,3.6,28.8,28.8,0,0,0,11.7,0c2.1-.4,3.6-1.9,3.6-3.6V207.8c0-4-4.2-7.4-9.3-7.4h-.2C157.2,200.4,153,203.8,153,207.8Z"/><path class="cls-4" d="M136.3,170.5c-6.2-21.2-19.5-40.5-31.5-60-7.5-12.3-14.6-25-19-38.2l-.3-31.8L70.4,34.7V3.1c-12.8,10.3-15,30.5-15,30.5V65.3l17.4,4.6C78,90.4,86.9,103.8,95.4,117c14.6,22.4,30.8,47.1,34.4,68.6,2.1,12.8-.4,25.6-3.6,38.3-.4,1.9,2.8,2.8,3.9,1.1C140.9,208.8,141.6,188.6,136.3,170.5Z"/><path class="cls-1" d="M136.3,170.5c-6.2-21.2-19.5-40.5-31.5-60-7.5-12.3-14.6-25-19-38.2l-.3-31.8L70.4,34.7V3.1c-12.8,10.3-15,30.5-15,30.5V65.3l17.4,4.6c3.8,19.9,13.7,33.8,22.6,47.1,14.9,22.3,30.8,47.1,34.4,68.6,2.1,12.8-.4,25.6-3.6,38.3-.4,1.9,2.8,2.8,3.9,1.1C140.9,208.8,141.6,188.6,136.3,170.5Z"/><path class="cls-5" d="M128.5,223.3c3.2-12.7,5.7-25.6,3.6-38.3-3.6-21.5-19.8-46.2-34.4-68.6-8.5-13.2-17.4-26.6-22.6-47.1l-3.4-1H67l5.8,1.6c3.8,19.9,13.7,33.8,22.6,47.1,14.9,22.3,30.8,47.1,34.4,68.6,2.1,12.8-.4,25.6-3.6,38.3-.4,1.8,2.5,2.7,3.7,1.3A1.6,1.6,0,0,1,128.5,223.3Z"/><path class="cls-4" d="M85.8,33.6S83.1,13.4,70.4,3.1V34.7L58.2,39.6a3.4,3.4,0,0,0-2.5,3.1l-.2,23.4c-4,15.4-12.2,30.2-20.9,44.4C22.7,130,9.4,149.3,3.2,170.5c-5.3,18.1-4.6,38.3,6.2,54.5,1.1,1.7,4.3.8,3.8-1.1-3.2-12.7-5.6-25.5-3.5-38.3C13.3,164.1,29.5,139.4,44,117c8.3-12.6,16.7-25.5,22-44.6a4,4,0,0,1,3-2.7l14.4-3.8a2.9,2.9,0,0,0,2.4-2.7Z"/><path class="cls-2" d="M11.6,223.9a.5.5,0,0,1-.5-.3C1.4,209-.7,189.9,5.1,169.9c5.2-17.7,15.6-34.4,25.7-50.6,1.9-3,3.8-6,5.6-9,8-13.2,16.8-28.7,21-44.8h0V43.3a4.1,4.1,0,0,1,2.8-3.6L71.3,35a1.4,1.4,0,0,0,1-1.3V5.6c9.7,10,12.2,26.1,12.4,27.3V61.3a3.3,3.3,0,0,1-2.7,3L66.4,68.4a1.3,1.3,0,0,0-1,.9h0c-5.1,19.8-13.7,33-22,45.8l-1,1.5c-14.2,21.9-30.3,46.6-33.8,68-2.2,13.2.4,26.4,3.5,38.8.1.2,0,.2,0,.3Z"/><path class="cls-3" d="M73.5,52.5v2.2a.9.9,0,0,1-.5.8l-2.1,1.1a1.1,1.1,0,0,1-1.1,0l-2.1-1.1a.9.9,0,0,1-.5-.8V52.5a.8.8,0,0,1,.5-.8l2.1-1.1a1.1,1.1,0,0,1,1.1,0L73,51.7A.8.8,0,0,1,73.5,52.5Z"/><path class="cls-3" d="M73.7,50.1l-1.6-.9a4,4,0,0,0-3.4,0l-1.7.9a3,3,0,0,0-1.7,2.6v1.7A3.1,3.1,0,0,0,67,57.1l1.7.9a4,4,0,0,0,3.4,0l1.6-.9a3.1,3.1,0,0,0,1.7-2.7V52.7A3,3,0,0,0,73.7,50.1Zm.5,4.8a1.1,1.1,0,0,1-.6,1L71,57.3a1.5,1.5,0,0,1-1.3,0l-2.5-1.4a1.2,1.2,0,0,1-.7-1V52.2a1.1,1.1,0,0,1,.7-.9l2.5-1.4a1.5,1.5,0,0,1,1.3,0l2.6,1.4a1,1,0,0,1,.6.9Z"/><path class="cls-4" d="M73.5,52.5v2.2a.9.9,0,0,1-.5.8l-2.1,1.1a1.1,1.1,0,0,1-1.1,0l-2.1-1.1a.9.9,0,0,1-.5-.8V52.5a.8.8,0,0,1,.5-.8l2.1-1.1a1.1,1.1,0,0,1,1.1,0L73,51.7A.8.8,0,0,1,73.5,52.5Z"/><path class="cls-3" d="M73.5,52.5v2.2a.9.9,0,0,1-.5.8l-2.1,1.1a1.1,1.1,0,0,1-1.1,0l-2.1-1.1a.9.9,0,0,1-.5-.8V52.5a.8.8,0,0,1,.5-.8l2.1-1.1a1.1,1.1,0,0,1,1.1,0L73,51.7A.8.8,0,0,1,73.5,52.5Z"/></g></g></svg>