<svg id="Raw" xmlns="http://www.w3.org/2000/svg" viewBox="0 0 256 256">
  <g>
    <path d="M208.47,183.23h-8.54l1.71,23.12c0,.52,1.16.93,2.54.93h0c1.37,0,2.49-.41,2.53-.93Z" fill="none" stroke="#020202" stroke-miterlimit="10" stroke-width="3"/>
    <polygon points="199.93 90.61 208.47 90.61 206.69 60.92 201.71 60.92 199.93 90.61" fill="none" stroke="#040505" stroke-miterlimit="10" stroke-width="3"/>
    <path d="M209.27,183.23H199.14a2,2,0,0,1-2.23-1.77V92.38a2,2,0,0,1,2.23-1.77h10.13a2,2,0,0,1,2.22,1.77v89.08A2,2,0,0,1,209.27,183.23Z" fill="none" stroke="#020202" stroke-miterlimit="10" stroke-width="3"/>
    <g>
      <g>
        <polygon points="201.02 104.86 199.7 105.91 198.38 104.86 199.7 103.81 201.02 104.86" fill="#050505"/>
        <polygon points="201.02 107.49 199.7 108.54 198.38 107.49 199.7 106.44 201.02 107.49" fill="#050505"/>
        <polygon points="201.02 110.12 199.7 111.17 198.38 110.12 199.7 109.07 201.02 110.12" fill="#050505"/>
        <polygon points="201.02 112.75 199.7 113.8 198.38 112.75 199.7 111.69 201.02 112.75" fill="#050505"/>
        <polygon points="201.02 115.37 199.7 116.42 198.38 115.37 199.7 114.32 201.02 115.37" fill="#050505"/>
        <polygon points="201.02 118 199.7 119.05 198.38 118 199.7 116.95 201.02 118" fill="#050505"/>
        <polygon points="201.02 120.63 199.7 121.68 198.38 120.63 199.7 119.58 201.02 120.63" fill="#050505"/>
        <polygon points="201.02 123.26 199.7 124.31 198.38 123.26 199.7 122.21 201.02 123.26" fill="#050505"/>
        <polygon points="201.02 125.88 199.7 126.94 198.38 125.88 199.7 124.83 201.02 125.88" fill="#050505"/>
        <polygon points="201.02 128.51 199.7 129.56 198.38 128.51 199.7 127.46 201.02 128.51" fill="#050505"/>
        <polygon points="201.02 131.14 199.7 132.19 198.38 131.14 199.7 130.09 201.02 131.14" fill="#050505"/>
        <polygon points="201.02 133.77 199.7 134.82 198.38 133.77 199.7 132.72 201.02 133.77" fill="#050505"/>
        <polygon points="201.02 136.4 199.7 137.45 198.38 136.4 199.7 135.35 201.02 136.4" fill="#050505"/>
        <polygon points="201.02 139.02 199.7 140.07 198.38 139.02 199.7 137.97 201.02 139.02" fill="#050505"/>
        <polygon points="201.02 141.65 199.7 142.7 198.38 141.65 199.7 140.6 201.02 141.65" fill="#050505"/>
        <polygon points="201.02 144.28 199.7 145.33 198.38 144.28 199.7 143.23 201.02 144.28" fill="#050505"/>
        <polygon points="201.02 146.91 199.7 147.96 198.38 146.91 199.7 145.86 201.02 146.91" fill="#050505"/>
        <polygon points="201.02 149.54 199.7 150.59 198.38 149.54 199.7 148.49 201.02 149.54" fill="#050505"/>
        <polygon points="201.02 152.16 199.7 153.21 198.38 152.16 199.7 151.11 201.02 152.16" fill="#050505"/>
        <polygon points="201.02 154.79 199.7 155.84 198.38 154.79 199.7 153.74 201.02 154.79" fill="#050505"/>
        <polygon points="201.02 157.42 199.7 158.47 198.38 157.42 199.7 156.37 201.02 157.42" fill="#050505"/>
        <polygon points="201.02 160.05 199.7 161.1 198.38 160.05 199.7 159 201.02 160.05" fill="#050505"/>
        <polygon points="201.02 162.68 199.7 163.73 198.38 162.68 199.7 161.63 201.02 162.68" fill="#050505"/>
        <polygon points="201.02 165.3 199.7 166.35 198.38 165.3 199.7 164.25 201.02 165.3" fill="#050505"/>
        <polygon points="201.02 167.93 199.7 168.98 198.38 167.93 199.7 166.88 201.02 167.93" fill="#050505"/>
      </g>
      <g>
        <polygon points="203.24 106.15 201.92 107.2 200.6 106.15 201.92 105.1 203.24 106.15" fill="#050505"/>
        <polygon points="203.24 108.78 201.92 109.83 200.6 108.78 201.92 107.73 203.24 108.78" fill="#050505"/>
        <polygon points="203.24 111.41 201.92 112.46 200.6 111.41 201.92 110.36 203.24 111.41" fill="#050505"/>
        <polygon points="203.24 114.04 201.92 115.09 200.6 114.04 201.92 112.99 203.24 114.04" fill="#050505"/>
        <polygon points="203.24 116.66 201.92 117.72 200.6 116.66 201.92 115.61 203.24 116.66" fill="#050505"/>
        <polygon points="203.24 119.29 201.92 120.34 200.6 119.29 201.92 118.24 203.24 119.29" fill="#050505"/>
        <polygon points="203.24 121.92 201.92 122.97 200.6 121.92 201.92 120.87 203.24 121.92" fill="#050505"/>
        <polygon points="203.24 124.55 201.92 125.6 200.6 124.55 201.92 123.5 203.24 124.55" fill="#050505"/>
        <polygon points="203.24 127.18 201.92 128.23 200.6 127.18 201.92 126.13 203.24 127.18" fill="#050505"/>
        <polygon points="203.24 129.8 201.92 130.85 200.6 129.8 201.92 128.75 203.24 129.8" fill="#050505"/>
        <polygon points="203.24 132.43 201.92 133.48 200.6 132.43 201.92 131.38 203.24 132.43" fill="#050505"/>
        <polygon points="203.24 135.06 201.92 136.11 200.6 135.06 201.92 134.01 203.24 135.06" fill="#050505"/>
        <polygon points="203.24 137.69 201.92 138.74 200.6 137.69 201.92 136.64 203.24 137.69" fill="#050505"/>
        <polygon points="203.24 140.32 201.92 141.37 200.6 140.32 201.92 139.27 203.24 140.32" fill="#050505"/>
        <polygon points="203.24 142.94 201.92 143.99 200.6 142.94 201.92 141.89 203.24 142.94" fill="#050505"/>
        <polygon points="203.24 145.57 201.92 146.62 200.6 145.57 201.92 144.52 203.24 145.57" fill="#050505"/>
        <polygon points="203.24 148.2 201.92 149.25 200.6 148.2 201.92 147.15 203.24 148.2" fill="#050505"/>
        <polygon points="203.24 150.83 201.92 151.88 200.6 150.83 201.92 149.78 203.24 150.83" fill="#050505"/>
        <polygon points="203.24 153.46 201.92 154.51 200.6 153.46 201.92 152.41 203.24 153.46" fill="#050505"/>
        <polygon points="203.24 156.08 201.92 157.13 200.6 156.08 201.92 155.03 203.24 156.08" fill="#050505"/>
        <polygon points="203.24 158.71 201.92 159.76 200.6 158.71 201.92 157.66 203.24 158.71" fill="#050505"/>
        <polygon points="203.24 161.34 201.92 162.39 200.6 161.34 201.92 160.29 203.24 161.34" fill="#050505"/>
        <polygon points="203.24 163.97 201.92 165.02 200.6 163.97 201.92 162.92 203.24 163.97" fill="#050505"/>
        <polygon points="203.24 166.59 201.92 167.65 200.6 166.59 201.92 165.54 203.24 166.59" fill="#050505"/>
      </g>
      <g>
        <polygon points="205.39 104.86 204.07 105.91 202.75 104.86 204.07 103.81 205.39 104.86" fill="#050505"/>
        <polygon points="205.39 107.49 204.07 108.54 202.75 107.49 204.07 106.44 205.39 107.49" fill="#050505"/>
        <polygon points="205.39 110.12 204.07 111.17 202.75 110.12 204.07 109.07 205.39 110.12" fill="#050505"/>
        <polygon points="205.39 112.75 204.07 113.8 202.75 112.75 204.07 111.69 205.39 112.75" fill="#050505"/>
        <polygon points="205.39 115.37 204.07 116.42 202.75 115.37 204.07 114.32 205.39 115.37" fill="#050505"/>
        <polygon points="205.39 118 204.07 119.05 202.75 118 204.07 116.95 205.39 118" fill="#050505"/>
        <polygon points="205.39 120.63 204.07 121.68 202.75 120.63 204.07 119.58 205.39 120.63" fill="#050505"/>
        <polygon points="205.39 123.26 204.07 124.31 202.75 123.26 204.07 122.21 205.39 123.26" fill="#050505"/>
        <polygon points="205.39 125.88 204.07 126.94 202.75 125.88 204.07 124.83 205.39 125.88" fill="#050505"/>
        <polygon points="205.39 128.51 204.07 129.56 202.75 128.51 204.07 127.46 205.39 128.51" fill="#050505"/>
        <polygon points="205.39 131.14 204.07 132.19 202.75 131.14 204.07 130.09 205.39 131.14" fill="#050505"/>
        <polygon points="205.39 133.77 204.07 134.82 202.75 133.77 204.07 132.72 205.39 133.77" fill="#050505"/>
        <polygon points="205.39 136.4 204.07 137.45 202.75 136.4 204.07 135.35 205.39 136.4" fill="#050505"/>
        <polygon points="205.39 139.02 204.07 140.07 202.75 139.02 204.07 137.97 205.39 139.02" fill="#050505"/>
        <polygon points="205.39 141.65 204.07 142.7 202.75 141.65 204.07 140.6 205.39 141.65" fill="#050505"/>
        <polygon points="205.39 144.28 204.07 145.33 202.75 144.28 204.07 143.23 205.39 144.28" fill="#050505"/>
        <polygon points="205.39 146.91 204.07 147.96 202.75 146.91 204.07 145.86 205.39 146.91" fill="#050505"/>
        <polygon points="205.39 149.54 204.07 150.59 202.75 149.54 204.07 148.49 205.39 149.54" fill="#050505"/>
        <polygon points="205.39 152.16 204.07 153.21 202.75 152.16 204.07 151.11 205.39 152.16" fill="#050505"/>
        <polygon points="205.39 154.79 204.07 155.84 202.75 154.79 204.07 153.74 205.39 154.79" fill="#050505"/>
        <polygon points="205.39 157.42 204.07 158.47 202.75 157.42 204.07 156.37 205.39 157.42" fill="#050505"/>
        <polygon points="205.39 160.05 204.07 161.1 202.75 160.05 204.07 159 205.39 160.05" fill="#050505"/>
        <polygon points="205.39 162.68 204.07 163.73 202.75 162.68 204.07 161.63 205.39 162.68" fill="#050505"/>
        <polygon points="205.39 165.3 204.07 166.35 202.75 165.3 204.07 164.25 205.39 165.3" fill="#050505"/>
        <polygon points="205.39 167.93 204.07 168.98 202.75 167.93 204.07 166.88 205.39 167.93" fill="#050505"/>
      </g>
      <g>
        <polygon points="209.77 104.86 208.45 105.91 207.14 104.86 208.45 103.81 209.77 104.86" fill="#050505"/>
        <polygon points="209.77 107.49 208.45 108.54 207.14 107.49 208.45 106.44 209.77 107.49" fill="#050505"/>
        <polygon points="209.77 110.12 208.45 111.17 207.14 110.12 208.45 109.07 209.77 110.12" fill="#050505"/>
        <polygon points="209.77 112.75 208.45 113.8 207.14 112.75 208.45 111.69 209.77 112.75" fill="#050505"/>
        <polygon points="209.77 115.37 208.45 116.42 207.14 115.37 208.45 114.32 209.77 115.37" fill="#050505"/>
        <polygon points="209.77 118 208.45 119.05 207.14 118 208.45 116.95 209.77 118" fill="#050505"/>
        <polygon points="209.77 120.63 208.45 121.68 207.14 120.63 208.45 119.58 209.77 120.63" fill="#050505"/>
        <polygon points="209.77 123.26 208.45 124.31 207.14 123.26 208.45 122.21 209.77 123.26" fill="#050505"/>
        <polygon points="209.77 125.88 208.45 126.94 207.14 125.88 208.45 124.83 209.77 125.88" fill="#050505"/>
        <polygon points="209.77 128.51 208.45 129.56 207.14 128.51 208.45 127.46 209.77 128.51" fill="#050505"/>
        <polygon points="209.77 131.14 208.45 132.19 207.14 131.14 208.45 130.09 209.77 131.14" fill="#050505"/>
        <polygon points="209.77 133.77 208.45 134.82 207.14 133.77 208.45 132.72 209.77 133.77" fill="#050505"/>
        <polygon points="209.77 136.4 208.45 137.45 207.14 136.4 208.45 135.35 209.77 136.4" fill="#050505"/>
        <polygon points="209.77 139.02 208.45 140.07 207.14 139.02 208.45 137.97 209.77 139.02" fill="#050505"/>
        <polygon points="209.77 141.65 208.45 142.7 207.14 141.65 208.45 140.6 209.77 141.65" fill="#050505"/>
        <polygon points="209.77 144.28 208.45 145.33 207.14 144.28 208.45 143.23 209.77 144.28" fill="#050505"/>
        <polygon points="209.77 146.91 208.45 147.96 207.14 146.91 208.45 145.86 209.77 146.91" fill="#050505"/>
        <polygon points="209.77 149.54 208.45 150.59 207.14 149.54 208.45 148.49 209.77 149.54" fill="#050505"/>
        <polygon points="209.77 152.16 208.45 153.21 207.14 152.16 208.45 151.11 209.77 152.16" fill="#050505"/>
        <polygon points="209.77 154.79 208.45 155.84 207.14 154.79 208.45 153.74 209.77 154.79" fill="#050505"/>
        <polygon points="209.77 157.42 208.45 158.47 207.14 157.42 208.45 156.37 209.77 157.42" fill="#050505"/>
        <polygon points="209.77 160.05 208.45 161.1 207.14 160.05 208.45 159 209.77 160.05" fill="#050505"/>
        <polygon points="209.77 162.68 208.45 163.73 207.14 162.68 208.45 161.63 209.77 162.68" fill="#050505"/>
        <polygon points="209.77 165.3 208.45 166.35 207.14 165.3 208.45 164.25 209.77 165.3" fill="#050505"/>
        <polygon points="209.77 167.93 208.45 168.98 207.14 167.93 208.45 166.88 209.77 167.93" fill="#050505"/>
      </g>
      <g>
        <polygon points="207.61 106.15 206.29 107.2 204.98 106.15 206.29 105.1 207.61 106.15" fill="#050505"/>
        <polygon points="207.61 108.78 206.29 109.83 204.98 108.78 206.29 107.73 207.61 108.78" fill="#050505"/>
        <polygon points="207.61 111.41 206.29 112.46 204.98 111.41 206.29 110.36 207.61 111.41" fill="#050505"/>
        <polygon points="207.61 114.04 206.29 115.09 204.98 114.04 206.29 112.99 207.61 114.04" fill="#050505"/>
        <polygon points="207.61 116.66 206.29 117.72 204.98 116.66 206.29 115.61 207.61 116.66" fill="#050505"/>
        <polygon points="207.61 119.29 206.29 120.34 204.98 119.29 206.29 118.24 207.61 119.29" fill="#050505"/>
        <polygon points="207.61 121.92 206.29 122.97 204.98 121.92 206.29 120.87 207.61 121.92" fill="#050505"/>
        <polygon points="207.61 124.55 206.29 125.6 204.98 124.55 206.29 123.5 207.61 124.55" fill="#050505"/>
        <polygon points="207.61 127.18 206.29 128.23 204.98 127.18 206.29 126.13 207.61 127.18" fill="#050505"/>
        <polygon points="207.61 129.8 206.29 130.85 204.98 129.8 206.29 128.75 207.61 129.8" fill="#050505"/>
        <polygon points="207.61 132.43 206.29 133.48 204.98 132.43 206.29 131.38 207.61 132.43" fill="#050505"/>
        <polygon points="207.61 135.06 206.29 136.11 204.98 135.06 206.29 134.01 207.61 135.06" fill="#050505"/>
        <polygon points="207.61 137.69 206.29 138.74 204.98 137.69 206.29 136.64 207.61 137.69" fill="#050505"/>
        <polygon points="207.61 140.32 206.29 141.37 204.98 140.32 206.29 139.27 207.61 140.32" fill="#050505"/>
        <polygon points="207.61 142.94 206.29 143.99 204.98 142.94 206.29 141.89 207.61 142.94" fill="#050505"/>
        <polygon points="207.61 145.57 206.29 146.62 204.98 145.57 206.29 144.52 207.61 145.57" fill="#050505"/>
        <polygon points="207.61 148.2 206.29 149.25 204.98 148.2 206.29 147.15 207.61 148.2" fill="#050505"/>
        <polygon points="207.61 150.83 206.29 151.88 204.98 150.83 206.29 149.78 207.61 150.83" fill="#050505"/>
        <polygon points="207.61 153.46 206.29 154.51 204.98 153.46 206.29 152.41 207.61 153.46" fill="#050505"/>
        <polygon points="207.61 156.08 206.29 157.13 204.98 156.08 206.29 155.03 207.61 156.08" fill="#050505"/>
        <polygon points="207.61 158.71 206.29 159.76 204.98 158.71 206.29 157.66 207.61 158.71" fill="#050505"/>
        <polygon points="207.61 161.34 206.29 162.39 204.98 161.34 206.29 160.29 207.61 161.34" fill="#050505"/>
        <polygon points="207.61 163.97 206.29 165.02 204.98 163.97 206.29 162.92 207.61 163.97" fill="#050505"/>
        <polygon points="207.61 166.59 206.29 167.65 204.98 166.59 206.29 165.54 207.61 166.59" fill="#050505"/>
      </g>
    </g>
    <path d="M197.47,56.11l4.28,4.69a3.49,3.49,0,0,0,4.83,0l4.33-4.69A4,4,0,0,0,212,53.43V18H212a11.36,11.36,0,0,0-9,4l-.09.13a30.38,30.38,0,0,0-6.47,18.44V53.44A3.94,3.94,0,0,0,197.47,56.11Z" fill="none" stroke="#040505" stroke-miterlimit="10" stroke-width="3"/>
    <path d="M211.51,48.33V17.89a11.09,11.09,0,0,0-7,3.33l-.11.12c-4.67,5.36-7.14,11.51-7.14,17.78v9.25a7.34,7.34,0,0,0,3.43,6.09,6.13,6.13,0,0,0,7.14.12A7.41,7.41,0,0,0,211.51,48.33Z" fill="none" stroke="#040505" stroke-miterlimit="10" stroke-width="3"/>
    <path d="M210.42,237.47a31.08,31.08,0,0,1-12.49,0c-2.2-.45-3.74-2-3.74-3.84V220.56a11.88,11.88,0,0,1,3.62-8.33l3.92-4a3.81,3.81,0,0,1,5.13,0l3.84,4a11.83,11.83,0,0,1,3.51,8.22v13.14C214.21,235.44,212.64,237,210.42,237.47Z" fill="none" stroke="#020202" stroke-miterlimit="10" stroke-width="3"/>
    <path d="M194.8,221.32v12.17c0,1.7,1.45,3.18,3.51,3.61a29.33,29.33,0,0,0,11.73,0c2.08-.42,3.56-1.9,3.56-3.61V221.32c0-4.09-4.17-7.41-9.31-7.41h-.18C199,213.91,194.8,217.23,194.8,221.32Z" fill="none" stroke="#020202" stroke-miterlimit="10" stroke-width="3"/>
    <path d="M178.06,184c-6.17-21.14-19.49-40.43-31.42-59.94-7.53-12.3-14.63-25.05-19-38.23L127.3,54l-15.13-5.83V16.61c-12.75,10.29-15,30.47-15,30.47V78.77l17.39,4.57c5.21,20.55,14,34,22.62,47.16,14.55,22.38,30.77,47.08,34.31,68.55,2.11,12.78-.3,25.66-3.51,38.36-.47,1.87,2.76,2.76,3.87,1.07C182.65,222.23,183.35,202.09,178.06,184Z" fill="none"/>
    <path d="M178.06,184c-6.17-21.14-19.49-40.43-31.42-59.94-7.53-12.3-14.63-25.05-19-38.23L127.3,54l-15.13-5.83V16.61c-12.75,10.29-15,30.47-15,30.47V78.77l17.39,4.57c3.75,19.91,13.69,33.8,22.62,47.16,14.89,22.24,30.77,47.08,34.31,68.55,2.11,12.78-.3,25.66-3.51,38.36-.47,1.87,2.76,2.76,3.87,1.07C182.65,222.23,183.35,202.09,178.06,184Z" fill="none" stroke="#020202" stroke-miterlimit="10" stroke-width="3"/>
    <path d="M170.33,236.8c3.21-12.7,5.62-25.58,3.51-38.36-3.55-21.47-19.76-46.17-34.31-68.55-8.57-13.2-17.41-26.61-22.62-47.17l-3.46-.91h-4.63l5.79,1.53c3.75,19.91,13.69,33.8,22.62,47.16,14.89,22.24,30.77,47.08,34.31,68.55,2.11,12.78-.3,25.66-3.51,38.36-.45,1.79,2.47,2.67,3.71,1.27C170.82,238.45,170.09,237.76,170.33,236.8Z" fill="#040505"/>
    <path d="M127.62,47.08s-2.71-20.18-15.45-30.47V48.16L100,53a3.51,3.51,0,0,0-2.43,3.1l-.25,23.43C93.26,95,85.13,109.78,76.43,124,64.49,143.52,51.18,162.81,45,184c-5.3,18.15-4.6,38.3,6.17,54.56,1.11,1.68,4.32.76,3.85-1.1-3.2-12.7-5.62-25.58-3.51-38.36,3.55-21.47,19.76-46.17,34.31-68.55,8.23-12.66,16.69-25.51,22-44.68a4,4,0,0,1,3-2.63l14.39-3.78a3,3,0,0,0,2.44-2.7Z" fill="none"/>
    <path d="M53.36,237.34a.5.5,0,0,1-.46-.25c-9.7-14.66-11.84-33.73-6-53.68,5.18-17.73,15.61-34.46,25.7-50.63,1.88-3,3.76-6,5.61-9,8-13.11,16.78-28.68,21-44.73l0-.12-.07-22.1a4.11,4.11,0,0,1,2.77-3.64l11.19-4.62a1.49,1.49,0,0,0,1-1.32V19.06c9.7,10,12.23,26.15,12.4,27.27V74.82a3.27,3.27,0,0,1-2.69,3l-15.58,4.1a1.35,1.35,0,0,0-1,.9h0c-5.11,19.82-13.69,33-22,45.79l-1,1.53C70,152,53.92,176.71,50.39,198.07c-2.18,13.17.41,26.41,3.52,38.77a.3.3,0,0,1-.07.33A.76.76,0,0,1,53.36,237.34Z" fill="none" stroke="#040505" stroke-miterlimit="10" stroke-width="3"/>
    <path d="M115.31,66v2.24a.92.92,0,0,1-.51.8l-2.14,1.12a1.1,1.1,0,0,1-1,0L109.49,69a.9.9,0,0,1-.51-.8V66a.9.9,0,0,1,.51-.8L111.63,64a1.1,1.1,0,0,1,1,0l2.14,1.12A.92.92,0,0,1,115.31,66Z" fill="#050505"/>
    <path d="M115.48,63.55l-1.63-.85a3.73,3.73,0,0,0-3.41,0l-1.63.85a3,3,0,0,0-1.7,2.67v1.7a3,3,0,0,0,1.7,2.67l1.63.85a3.73,3.73,0,0,0,3.41,0l1.63-.85a3,3,0,0,0,1.7-2.67v-1.7A3,3,0,0,0,115.48,63.55Zm.5,4.87a1.12,1.12,0,0,1-.63,1l-2.58,1.35a1.38,1.38,0,0,1-1.25,0l-2.58-1.35a1.12,1.12,0,0,1-.63-1v-2.7a1.12,1.12,0,0,1,.63-1l2.58-1.35a1.38,1.38,0,0,1,1.25,0l2.58,1.35a1.12,1.12,0,0,1,.63,1Z" fill="#050505"/>
    <path d="M115.31,66v2.24a.92.92,0,0,1-.51.8l-2.14,1.12a1.1,1.1,0,0,1-1,0L109.49,69a.9.9,0,0,1-.51-.8V66a.9.9,0,0,1,.51-.8L111.63,64a1.1,1.1,0,0,1,1,0l2.14,1.12A.92.92,0,0,1,115.31,66Z" fill="none"/>
    <path d="M115.31,66v2.24a.92.92,0,0,1-.51.8l-2.14,1.12a1.1,1.1,0,0,1-1,0L109.49,69a.9.9,0,0,1-.51-.8V66a.9.9,0,0,1,.51-.8L111.63,64a1.1,1.1,0,0,1,1,0l2.14,1.12A.92.92,0,0,1,115.31,66Z" fill="#050505"/>
  </g>
</svg>
