<?xml version="1.0" encoding="iso-8859-1"?>
<!-- Generator: Adobe Illustrator 18.0.0, SVG Export Plug-In . SVG Version: 6.00 Build 0)  -->
<!DOCTYPE svg PUBLIC "-//W3C//DTD SVG 1.1//EN" "http://www.w3.org/Graphics/SVG/1.1/DTD/svg11.dtd">
<svg version="1.1" id="Capa_1" xmlns="http://www.w3.org/2000/svg" xmlns:xlink="http://www.w3.org/1999/xlink" x="0px" y="0px"
	 viewBox="0 0 394.171 394.171" style="enable-background:new 0 0 394.171 394.171;" xml:space="preserve">
<g>
	<g>
		<path d="M227.364,321.972v-88.596c0-3.511-2.414-6.448-5.67-7.266V82.747c0.111-3.716,1.389-57.077-16.682-79.903
			c-2.57-3.247-7.287-3.794-10.535-1.226c-0.465,0.368-0.869,0.784-1.221,1.229l-0.006-0.004
			c-18.068,22.826-16.793,76.188-16.68,79.903v143.363c-3.258,0.817-5.672,3.755-5.672,7.266v88.533
			c-0.006,0.677-0.107,16.755,2.484,33.212c3.99,25.345,12.57,38.413,25.498,38.845c0.084,0.003,0.168,0.004,0.25,0.004
			c0.084,0,0.168-0.001,0.25-0.004c12.93-0.432,21.508-13.5,25.5-38.845C227.472,338.664,227.37,322.586,227.364,321.972z
			 M199.13,23.224c7.006,18.788,7.941,47.599,7.568,59.159c-0.004,0.082-0.004,0.164-0.004,0.246v143.247h-15.123V82.629
			c0-0.082-0.002-0.164-0.004-0.246C191.187,70.827,192.108,42.023,199.13,23.224z M199.132,378.954
			c-7.057-0.864-13.455-28.23-13.232-56.983v-81.096h26.465v81.158C212.604,350.725,206.206,378.09,199.132,378.954z"/>
		<path d="M315.509,161.081c0-3.822-2.859-6.97-6.557-7.435v-12.411c0-1.989-0.418-4.052-2.197-5.304
			c-0.016-0.011-6.686-3.765,0.002-10.656c13.363-13.774,10.129-31.661,0-41.792c-1.9-1.902-4.678-2.639-7.268-1.936
			c-2.596,0.704-4.615,2.743-5.293,5.345c-1.098,4.207-4.564,10.695-6.92,10.695c-2.184,0-5.633-5.894-6.918-10.694
			c-0.678-2.602-2.697-4.641-5.293-5.346c-2.588-0.701-5.367,0.034-7.268,1.935c-10.131,10.13-13.572,28.22,0,41.792
			c4.291,4.293,2.334,8.199,0,10.657c-1.486,1.416-2.197,3.251-2.197,5.304v12.411c-3.695,0.465-6.557,3.612-6.557,7.435v160.828
			c-0.004,0.677-0.107,16.755,2.484,33.212c3.99,25.345,12.57,38.413,25.498,38.845c0.084,0.003,0.168,0.004,0.25,0.004
			c0.084,0,0.168-0.001,0.25-0.004c12.93-0.432,21.508-13.5,25.5-38.845c2.59-16.457,2.488-32.535,2.482-33.15V161.081z
			 M287.276,112.588c5.711,0,10.068-2.75,13.313-6.31c-0.353,2.721-1.684,5.564-4.439,8.39
			c-12.594,12.907-3.404,27.579-2.197,29.245v9.668h-13.352v-9.604c5.221-7.067,8.113-18.996-2.195-29.309
			c-2.791-2.79-4.088-5.669-4.441-8.39C277.21,109.839,281.565,112.588,287.276,112.588z M287.276,378.954
			c-7.057-0.864-13.455-28.23-13.232-56.983V168.581h26.465v153.451C300.733,350.725,294.335,378.09,287.276,378.954z"/>
		<path d="M140.776,321.972V223.93c0-2.275-1.033-4.426-2.807-5.85c-1.773-1.423-4.098-1.966-6.318-1.473
			c-1.801,0.399-3.658,0.867-5.453,1.319c-5.404,1.36-10.992,2.768-16.529,2.768c-5.535,0-11.125-1.407-16.529-2.768
			c-1.795-0.452-3.65-0.92-5.451-1.319c-2.221-0.492-4.545,0.05-6.318,1.473c-1.773,1.424-2.806,3.575-2.806,5.85l0.001,97.971
			c-0.006,0.68-0.124,16.841,2.842,33.378c2.665,14.867,7.031,25.488,13.043,31.799c3.658,4.332,9.119,7.094,15.221,7.094
			c6.1,0,11.561-2.762,15.219-7.094c6.012-6.31,10.379-16.932,13.045-31.799C140.899,338.742,140.782,322.58,140.776,321.972z
			 M93.563,233.482c4.941,1.174,10.342,2.213,16.105,2.213c5.766,0,11.166-1.04,16.107-2.213v2.683
			c-5.063,1.633-10.543,2.492-16.105,2.492c-5.564,0-11.045-0.859-16.107-2.492V233.482z M114.595,253.456c0,0.008,0,0.017,0,0.024
			c0,2.715-2.209,4.924-4.924,4.924c-2.715,0-4.924-2.209-4.924-4.924c0-0.008-0.002-0.017-0.002-0.024
			C108.02,253.686,111.321,253.686,114.595,253.456z M109.671,379.326c-2.803,0-5.074-2.271-5.074-5.073
			c0-2.802,2.271-5.073,5.074-5.073c2.801,0,5.072,2.271,5.072,5.073C114.743,377.054,112.472,379.326,109.671,379.326z
			 M123.171,352.631c-0.375,2.094-0.789,4.075-1.232,5.948c-3.387-2.657-7.641-4.257-12.268-4.257c-4.639,0-8.9,1.607-12.291,4.274
			c-2.631-11.137-3.918-24.987-3.814-36.625v-56.809c3.625,4.983,9.484,8.242,16.105,8.242c6.619,0,12.48-3.259,16.105-8.242v56.881
			C125.778,322.196,125.89,337.463,123.171,352.631z"/>
	</g>
</g>
<g>
</g>
<g>
</g>
<g>
</g>
<g>
</g>
<g>
</g>
<g>
</g>
<g>
</g>
<g>
</g>
<g>
</g>
<g>
</g>
<g>
</g>
<g>
</g>
<g>
</g>
<g>
</g>
<g>
</g>
</svg>
