<svg id="Слой_1" data-name="Слой 1" xmlns="http://www.w3.org/2000/svg" viewBox="0 0 25.00018 18.48462">
  <g>
    <path d="M2.476,17.73273H19.98813L20.018,5.76367,2.506,5.73383ZM3.44858,6.70636l15.59686.02985L19.01559,16.79l-15.567-.02985Z" transform="translate(0.00009 -3.25769)"/>
    <circle cx="22.02289" cy="4.98212" r="0.97253"/>
    <path d="M22.0228,10.77563a.97257.97257,0,1,0,.97253.9726A.97409.97409,0,0,0,22.0228,10.77563Z" transform="translate(0.00009 -3.25769)"/>
    <path d="M23.5264,3.25769H1.47366A1.47559,1.47559,0,0,0-.00009,4.73145V18.765a1.47559,1.47559,0,0,0,1.47375,1.47376l1.03229.02984v.50123a.98561.98561,0,0,0,.97254.97253h1.5036a.98564.98564,0,0,0,.97253-.97253l.02985-.53107,13.061.02984v.50123a.98565.98565,0,0,0,.97253.97253h1.50361a.9856.9856,0,0,0,.97253-.97253l.02985-.53107H23.5264A1.47558,1.47558,0,0,0,25.00009,18.765V4.73145A1.47558,1.47558,0,0,0,23.5264,3.25769ZM4.98209,20.79962l-1.53351-.02984v-.53107l1.56335.02984Zm16.53949,0-1.53345-.02984v-.53107l1.56329.02984ZM2.86765,19.296h-1.394A.525.525,0,0,1,.9426,18.765V4.73145a.525.525,0,0,1,.53106-.53107H23.5264a.525.525,0,0,1,.531.53107V18.765a.525.525,0,0,1-.531.53107l-3.92151-.00049-.19775.00049H2.86765Z" transform="translate(0.00009 -3.25769)"/>
    <circle cx="22.02289" cy="11.9989" r="0.97253"/>
    <circle cx="17.08661" cy="6.453" r="0.49219"/>
    <circle cx="15.86664" cy="6.91797" r="0.49219"/>
    <circle cx="14.64667" cy="7.2912" r="0.49219"/>
    <circle cx="13.42676" cy="7.47034" r="0.49219"/>
    <circle cx="12.20679" cy="7.3772" r="0.49219"/>
    <circle cx="10.98682" cy="6.95514" r="0.49219"/>
    <circle cx="9.76691" cy="6.53754" r="0.49219"/>
    <circle cx="8.54694" cy="6.53754" r="0.49219"/>
    <circle cx="7.32697" cy="6.77802" r="0.49219"/>
    <circle cx="6.10706" cy="7.22437" r="0.49219"/>
    <circle cx="17.08661" cy="9.46948" r="0.49219"/>
    <circle cx="15.86664" cy="9.93445" r="0.49219"/>
    <circle cx="14.64667" cy="10.30768" r="0.49219"/>
    <circle cx="13.42676" cy="10.48682" r="0.49219"/>
    <circle cx="12.20679" cy="10.39374" r="0.49219"/>
    <circle cx="10.98682" cy="9.97162" r="0.49219"/>
    <circle cx="9.76691" cy="9.55402" r="0.49219"/>
    <circle cx="8.54694" cy="9.55402" r="0.49219"/>
    <circle cx="7.32697" cy="9.79456" r="0.49219"/>
    <circle cx="6.10706" cy="10.24084" r="0.49219"/>
  </g>
</svg>
