<svg id="Слой_1" data-name="Слой 1" xmlns="http://www.w3.org/2000/svg" viewBox="0 0 24.36343 24.9967">
  <g>
    <path d="M7.65669,10.55939a.4.4,0,0,0-.399.40509.39487.39487,0,0,0,.399.399.39991.39991,0,0,0,.405-.399A.40508.40508,0,0,0,7.65669,10.55939Z" transform="translate(-0.31828 -0.00165)"/>
    <path d="M9.27082,10.55939a.40508.40508,0,0,0-.405.40509.40508.40508,0,0,0,.81006,0A.40507.40507,0,0,0,9.27082,10.55939Z" transform="translate(-0.31828 -0.00165)"/>
    <path d="M6.04859,10.55939a.40508.40508,0,0,0-.405.40509.40205.40205,0,1,0,.405-.40509Z" transform="translate(-0.31828 -0.00165)"/>
    <path d="M2.82026,10.55939a.4.4,0,0,0-.399.40509.39479.39479,0,0,0,.399.399.39991.39991,0,0,0,.405-.399A.40508.40508,0,0,0,2.82026,10.55939Z" transform="translate(-0.31828 -0.00165)"/>
    <path d="M4.43446,10.55939a.40512.40512,0,0,0-.40509.40509.40511.40511,0,0,0,.81012,0A.40508.40508,0,0,0,4.43446,10.55939Z" transform="translate(-0.31828 -0.00165)"/>
    <path d="M10.885,10.55939a.40507.40507,0,0,0-.405.40509.40205.40205,0,1,0,.405-.40509Z" transform="translate(-0.31828 -0.00165)"/>
    <path d="M17.32948,10.55939a.4.4,0,0,0-.399.40509.39478.39478,0,0,0,.399.399.4.4,0,0,0,.405-.399A.40512.40512,0,0,0,17.32948,10.55939Z" transform="translate(-0.31828 -0.00165)"/>
    <path d="M18.94355,10.55939a.4051.4051,0,0,0-.405.40509.40508.40508,0,0,0,.81006,0A.40512.40512,0,0,0,18.94355,10.55939Z" transform="translate(-0.31828 -0.00165)"/>
    <path d="M20.55775,10.55939a.40507.40507,0,0,0-.405.40509.402.402,0,1,0,.405-.40509Z" transform="translate(-0.31828 -0.00165)"/>
    <path d="M22.1659,10.55939a.4.4,0,0,0-.399.40509.39483.39483,0,0,0,.399.399.39991.39991,0,0,0,.405-.399A.40507.40507,0,0,0,22.1659,10.55939Z" transform="translate(-0.31828 -0.00165)"/>
    <path d="M18.51435,7.978l-.87652-1.95874a3.23065,3.23065,0,0,0-2.94422-1.91034H7.439A3.22746,3.22746,0,0,0,4.31355,6.54523L3.93263,8.04449a.40449.40449,0,0,0,.393.50177h13.82a.4172.4172,0,0,0,.33856-.18743A.40389.40389,0,0,0,18.51435,7.978ZM4.83949,7.73615l.2539-.9914A2.41305,2.41305,0,0,1,7.439,4.919h7.25457a2.41443,2.41443,0,0,1,2.20661,1.4328l.62274,1.3844Z" transform="translate(-0.31828 -0.00165)"/>
    <path d="M14.10719,10.55939a.40507.40507,0,0,0-.405.40509.40508.40508,0,0,0,.81006,0A.40508.40508,0,0,0,14.10719,10.55939Z" transform="translate(-0.31828 -0.00165)"/>
    <path d="M12.49311,10.55939a.4.4,0,0,0-.399.40509.39484.39484,0,0,0,.399.399.39989.39989,0,0,0,.405-.399A.40506.40506,0,0,0,12.49311,10.55939Z" transform="translate(-0.31828 -0.00165)"/>
    <path d="M15.72132,10.55939a.40508.40508,0,0,0-.405.40509.40205.40205,0,1,0,.405-.40509Z" transform="translate(-0.31828 -0.00165)"/>
    <path d="M24.60322,10.7666a1.533,1.533,0,0,0-.08-.2204q-.20232-.4453-.40472-.89068-.6233-1.37173-1.24652-2.74341-.46583-1.0252-.9317-2.05042l-.0578-.12719a5.336,5.336,0,0,0-4.84333-3.12445l-6.88324-.07026V1.29187A1.29176,1.29176,0,0,0,8.86567.00165H7.65693A1.29178,1.29178,0,0,0,6.36665,1.29187l-.06183.356A5.36752,5.36752,0,0,0,1.787,5.53229C1.33991,7.17291.8968,8.81464.44569,10.4541A6.31632,6.31632,0,0,0,.321,12.17352a2.5023,2.5023,0,0,0,2.49945,2.499H5.71266L5.6435,19.89728H5.29884a1.14879,1.14879,0,0,0-.98535.56415l-1.6565,2.799a1.46955,1.46955,0,0,0-.16546.59893,1.13842,1.13842,0,0,0,1.139,1.139H8.4665a1.16181,1.16181,0,0,0,1.139-1.139.922.922,0,0,0-.06525-.2843,2.20661,2.20661,0,0,0-.12188-.31335c-.096-.20282-.216-.39295-.33014-.58582q-.41859-.70743-.83728-1.41473-.23658-.3999-.47333-.79968a1.1488,1.1488,0,0,0-.98535-.56415l-.41486-.07019.07013-5.1546h15.7182a2.50219,2.50219,0,0,0,2.499-2.499A5.21715,5.21715,0,0,0,24.60322,10.7666ZM7.33827,1.29187a.31441.31441,0,0,1,.31866-.324H8.86567a.31712.31712,0,0,1,.324.324l-.07025.31818L7.33827,1.53979ZM5.6435,24.33459H3.63056a.47011.47011,0,0,1-.47528-.47528.44525.44525,0,0,1,.07221-.25085l.186-.31763,1.47437-2.49658a.47973.47973,0,0,1,.411-.22729l.41485.07019ZM6.79231,20.567a.46612.46612,0,0,1,.411.23419l1.47485,2.49066.18658.31811a.4478.4478,0,0,1,.07117.24939.46727.46727,0,0,1-.46936.47528L6.37745,24.2644V20.567Zm16.90722-8.39344a1.532,1.532,0,0,1-1.53375,1.52735H2.82044A1.51081,1.51081,0,0,1,1.2931,12.17352l.051-.74774a.48213.48213,0,0,0,.34808-.46149.69108.69108,0,0,0-.25427-.48706L2.71687,5.78662A4.36212,4.36212,0,0,1,6.919,2.5816H17.03913a4.35857,4.35857,0,0,1,3.95862,2.552l2.44452,5.48407a.48591.48591,0,0,0-.1488.34661.61564.61564,0,0,0,.40606.52973Z" transform="translate(-0.31828 -0.00165)"/>
  </g>
</svg>
