<svg id="Слой_1" data-name="Слой 1" xmlns="http://www.w3.org/2000/svg" viewBox="0 0 15.66254 25.00445">
  <g>
    <path d="M19.64127.3978a1.41162,1.41162,0,0,0-.92-.4q-6.225,0-12.45.01a.97592.97592,0,0,0-.44.1,1.87616,1.87616,0,0,0-1.15,1.79c-.02.7-.01,1.4-.01,2.1v6.67c.01.54.01,1.08.05,1.62a2.3271,2.3271,0,0,0,.64,1.4c.25.27.51.52.77.78q2.835,2.82,5.65,5.65,2.025,2.025,4.05,4.05a2.74882,2.74882,0,0,0,1.91.83c.23.01.47,0,.71,0a1.66487,1.66487,0,0,0,.73-.17,1.92126,1.92126,0,0,0,1.15-1.86V1.8978A1.923,1.923,0,0,0,19.64127.3978Zm-3.08,23.45q-5.37-5.355-10.73-10.73l.03-.03c.08.02.17.05005.26.07a3.82159,3.82159,0,0,0,.58.07h7.11c.5,0,1,0,1.5.01a1.18451,1.18451,0,0,1,1.14,1.22v8.56994a1.94907,1.94907,0,0,0,.15.79C16.59128,23.82779,16.57126,23.83774,16.56125,23.84775Zm3.03-.86a1.21528,1.21528,0,0,1-.79,1.2,1.20039,1.20039,0,0,1-1.55-.75,1.59411,1.59411,0,0,1-.06-.43v-6.79c0-.58.01-1.16,0-1.74a1.92522,1.92522,0,0,0-1.2-1.83,1.76456,1.76456,0,0,0-.75-.15h-8.54a1.195,1.195,0,0,1-1.17-.7,1.69129,1.69129,0,0,1-.12006-.55v-9.29a1.19831,1.19831,0,0,1,.8-1.21,1.291,1.291,0,0,1,.39-.08h11.72a1.19893,1.19893,0,0,1,1.21.83,1.594,1.594,0,0,1,.06.43Z" transform="translate(-4.66873 0.00222)" fill="#020202"/>
    <path d="M18.32126,3.06778h-11.65a.39288.39288,0,0,0-.43.44v.3a.19458.19458,0,0,0,.38916,0H17.86124c.16,0,.16,0,.16.16V20.2678c0,.41,0,.81994.01,1.24a.34178.34178,0,0,0,.24.33.324.324,0,0,0,.37-.09.41128.41128,0,0,0,.12-.34v-17.91A.38862.38862,0,0,0,18.32126,3.06778Z" transform="translate(-4.66873 0.00222)" fill="#020202"/>
    <path d="M11.36612,2.237c.37445.00129.749.00031,1.12347.00031.38221.00006.76441.001,1.14661-.00031a.3688.3688,0,1,0,.006-.734q-1.14084-.002-2.28167,0a.36878.36878,0,1,0,.00555.734Z" transform="translate(-4.66873 0.00222)" fill="#020202"/>
    <path d="M9.75778,2.23465a.364.364,0,0,0,.36444-.36865.36563.36563,0,0,0-.73126.00238A.36291.36291,0,0,0,9.75778,2.23465Z" transform="translate(-4.66873 0.00222)" fill="#020202"/>
    <circle cx="1.76709" cy="4.33478" r="0.19458" fill="#020202"/>
    <circle cx="1.76709" cy="4.85962" r="0.19458" fill="#020202"/>
    <circle cx="1.76709" cy="5.3844" r="0.19458" fill="#020202"/>
    <path d="M6.43582,5.71244A.19455.19455,0,1,0,6.6304,5.907.19455.19455,0,0,0,6.43582,5.71244Z" transform="translate(-4.66873 0.00222)" fill="#020202"/>
    <circle cx="1.76709" cy="6.43402" r="0.19458" fill="#020202"/>
    <path d="M6.43582,6.76206a.19455.19455,0,1,0,.19458.19452A.19455.19455,0,0,0,6.43582,6.76206Z" transform="translate(-4.66873 0.00222)" fill="#020202"/>
    <circle cx="1.76709" cy="7.48364" r="0.19458" fill="#020202"/>
    <path d="M6.43582,7.81168a.19455.19455,0,1,0,.19458.19452A.19455.19455,0,0,0,6.43582,7.81168Z" transform="translate(-4.66873 0.00222)" fill="#020202"/>
    <circle cx="1.76709" cy="8.53326" r="0.19458" fill="#020202"/>
    <circle cx="1.76709" cy="9.05804" r="0.19458" fill="#020202"/>
    <circle cx="1.76709" cy="9.58289" r="0.19458" fill="#020202"/>
    <circle cx="1.76709" cy="10.10767" r="0.19458" fill="#020202"/>
    <circle cx="1.76709" cy="10.63251" r="0.19458" fill="#020202"/>
    <circle cx="1.76709" cy="11.15729" r="0.19458" fill="#020202"/>
    <path d="M6.43582,11.48532a.19455.19455,0,1,0,.19458.19458A.19456.19456,0,0,0,6.43582,11.48532Z" transform="translate(-4.66873 0.00222)" fill="#020202"/>
  </g>
</svg>
