<svg id="Слой_1" data-name="Слой 1" xmlns="http://www.w3.org/2000/svg" viewBox="0 0 24.99521 24.16011">
  <g>
    <path d="M24.99695,7.28063c-.00062-.73673-.29776-1.03326-1.03571-1.03387H22.91941c-.00855-.08376-.01467-.13145-.01711-.17914a3.29283,3.29283,0,0,0-3.19517-3.1383c-1.47225-.03-2.9451-.00979-4.41735-.01162h-.28A2.55352,2.55352,0,0,0,12.75309.43114a2.42771,2.42771,0,0,0-1.66422.4292A2.52162,2.52162,0,0,0,9.99263,2.9177h-.313c-1.4643.00183-2.9286-.01467-4.39228.011a3.27657,3.27657,0,0,0-3.0845,2.47188c-.06848.27208-.09661.55454-.14491.84618-.3271,0-.653.01834-.97579-.00367a.97327.97327,0,0,0-1.07972.6383V8.54133c.31853.79115,1.029.601,1.66361.62974V11.484q0,4.60107-.00122,9.20093a1.65236,1.65236,0,0,0,.719,1.49181,5.82759,5.82759,0,0,0,.94766.398c0,.17425-.00183.409.00061.64319A1.25911,1.25911,0,0,0,4.66675,24.5728q.96387.01467,1.92773-.00062a1.24535,1.24535,0,0,0,1.3194-1.33774c.00184-.24089.00061-.48178.00061-.72083h9.17036c0,.25006-.00122.48422.00061.71839A1.24585,1.24585,0,0,0,18.403,24.57218c.64258.011,1.28516.00978,1.92774.00062a1.2589,1.2589,0,0,0,1.33651-1.35242c.00306-.23477.00061-.46955.00061-.689a4.4439,4.4439,0,0,0,.69577-.20421,1.67034,1.67034,0,0,0,.97029-1.63977q-.00091-5.6007-.00061-11.202V9.16618c.28063,0,.524.00489.7673-.00122a.84448.84448,0,0,0,.8957-.90793C24.99878,7.93177,24.99695,7.60651,24.99695,7.28063ZM12.50059,1.25531A1.6349,1.6349,0,0,1,14.144,2.90119H10.8547A1.6359,1.6359,0,0,1,12.50059,1.25531ZM7.05976,23.42092a.35265.35265,0,0,1-.3809.3112c-.69883.0055-1.39705.00978-2.09526,0a.39443.39443,0,0,1-.41208-.42186c-.01529-.2574-.00367-.51663-.00367-.804H7.0671C7.0671,22.81258,7.08849,23.1195,7.05976,23.42092Zm.06664-1.778c0-.99657-.0697-1.97725.01712-2.94448a2.81046,2.81046,0,0,1,2.72072-2.44132q2.59905-.02843,5.1981-.00244A2.86558,2.86558,0,0,1,17.898,18.93938c.05319.89141.00979,1.78833.00979,2.70359Zm13.68369,1.74677a.35271.35271,0,0,1-.37784.34055c-.70617.00733-1.41294.00856-2.11911,0a.36777.36777,0,0,1-.3864-.36439c-.01956-.28-.00428-.5631-.00428-.856H20.8156C20.8156,22.81136,20.83088,23.10177,20.81009,23.38974ZM22.50122,9.44926q0,5.60163,0,11.20325c0,.69455-.31793,1.01-1.01737,1.01064q-1.23258.00091-2.46515,0h-.27024v-.28c0-.72389.00367-1.4484-.00122-2.17229a3.75351,3.75351,0,0,0-3.32417-3.77538,2.44226,2.44226,0,0,0-.34116-.0159c-1.76572,0-3.53143-.01957-5.29654.00978a3.66655,3.66655,0,0,0-3.47274,3.16154c-.09049.89447-.04524,1.803-.06114,2.70482-.00183.1125-.00061.22439-.00061.36378-1.00636,0-1.97359.01406-2.94082-.00611a.81641.81641,0,0,1-.81072-.84067c-.00367-.06481-.00122-.13023-.00122-.195V9.1833h20.0031ZM24.14588,8.3145H.84612V7.09171h2.083V7.08849a.39475.39475,0,0,0,0-.7895V6.13q-.00093-.04494,0-.08987a1.90123,1.90123,0,0,1,.203-.78748,2.473,2.473,0,0,1,2.3655-1.50037q7.00386-.00091,14.00651.00061a2.50136,2.50136,0,0,1,2.54341,2.10688c.02079.118.01956.239.02935.37356v.06647a.39425.39425,0,0,0,0,.78793v.004h2.069Z" transform="translate(-0.0024 -0.41994)"/>
    <path d="M10.483,13.32572c.32444.00461.649.00106.9735.00107s.64906.00352.9735-.001c.29667-.00414.47277-.15843.477-.40639a.41336.41336,0,0,0-.46186-.42192q-.98562-.00823-1.97135-.00015a.41785.41785,0,0,0-.46583.41921C10.01055,13.16262,10.19,13.32156,10.483,13.32572Z" transform="translate(-0.0024 -0.41994)"/>
    <path d="M14.37018,13.327c.42273.00007.6185-.12941.62115-.41085.00269-.28417-.196-.42058-.61275-.42066-.42524-.00008-.61709.12751-.61984.41223C13.756,13.19455,13.949,13.3269,14.37018,13.327Z" transform="translate(-0.0024 -0.41994)"/>
    <path d="M10.87621,19.86942a.31494.31494,0,0,1-.09814-.38,1.24069,1.24069,0,0,0-1.711-1.45839,1.17328,1.17328,0,0,0-.72575,1.04605,1.2135,1.2135,0,0,0,1.20047,1.31141,1.05442,1.05442,0,0,1,1.02018.29275c.12446.14622.34039.088.48326-.051a.36737.36737,0,0,0,.071-.48806A1.21048,1.21048,0,0,0,10.87621,19.86942Zm-1.28459-.29689a.41243.41243,0,0,1-.01558-.82467.41242.41242,0,1,1,.01558.82467Z" transform="translate(-0.0024 -0.41994)"/>
    <path d="M16.26981,18.27087a.85088.85088,0,0,1-.46259-.8502c.01756-.1921-.157-.31488-.35709-.33244a.36782.36782,0,0,0-.41334.26875,1.02613,1.02613,0,0,0-.03829.3598.3467.3467,0,0,1-.21092.37795,1.20675,1.20675,0,0,0-.53922,1.49163,1.24124,1.24124,0,0,0,2.4099-.40879A1.02421,1.02421,0,0,0,16.26981,18.27087Zm-.44707.91242a.41264.41264,0,0,1-.4177.389.4122.4122,0,1,1,.021-.82412A.41278.41278,0,0,1,15.82274,19.18329Z" transform="translate(-0.0024 -0.41994)"/>
    <circle cx="3.99139" cy="6.2738" r="0.39475"/>
    <circle cx="5.05602" cy="6.2738" r="0.39475"/>
    <circle cx="6.12065" cy="6.2738" r="0.39475"/>
    <circle cx="7.18528" cy="6.2738" r="0.39475"/>
    <circle cx="8.24991" cy="6.2738" r="0.39475"/>
    <circle cx="9.31454" cy="6.2738" r="0.39475"/>
    <circle cx="10.37917" cy="6.2738" r="0.39475"/>
    <circle cx="11.4438" cy="6.2738" r="0.39475"/>
    <circle cx="12.50843" cy="6.2738" r="0.39475"/>
    <circle cx="13.57306" cy="6.2738" r="0.39475"/>
    <circle cx="14.63768" cy="6.2738" r="0.39475"/>
    <circle cx="15.70231" cy="6.2738" r="0.39475"/>
    <circle cx="16.76694" cy="6.2738" r="0.39475"/>
    <circle cx="17.83157" cy="6.2738" r="0.39475"/>
    <circle cx="18.8962" cy="6.2738" r="0.39475"/>
    <circle cx="19.96083" cy="6.2738" r="0.39475"/>
    <circle cx="21.02546" cy="6.2738" r="0.39475"/>
  </g>
</svg>
