<svg xmlns="http://www.w3.org/2000/svg" viewBox="0 0 228 158"><defs><style>.cls-1{fill:none;stroke:#000;stroke-miterlimit:10;stroke-width:5px;}</style></defs><g id="Слой_2" data-name="Слой 2"><g id="Raw"><path class="cls-1" d="M61.9,52.3A41.3,41.3,0,0,0,50.5,71.9l17.6,51.7A41,41,0,0,0,89,132.2Z"/><path class="cls-1" d="M89,132.2a27.3,27.3,0,0,0,15.5-1.8L75.1,44.7a19.6,19.6,0,0,0-12.4,7.1Z"/><path class="cls-1" d="M145.8,22.5c-4.7-.5-10.4.8-15.2,3l29.3,86.1c4.8-1.7,10-3,14-6.8Z"/><path class="cls-1" d="M47.2,72.4,6.6,67.6s-9.2,6.1,0,19.7c0,0,6.3.8,9.5,8.5s-5.8,24.6,9.9,29.1,7.2,21.2,7.2,21.2,6,15.6,23.7,6.7l8.8-25.7Z"/><path class="cls-1" d="M209.9,18.2C208.7,1.9,198.3,2.5,198.3,2.5L171.7,29.8l19,55.9,20.7,14.6C229.8,97,225,80.9,225,80.9s-16.2-8.2-7.2-21.1-7.7-21-9.9-29.1S209.9,18.2,209.9,18.2Z"/><path class="cls-1" d="M130.6,25.5,75.2,44.3H75l29.3,86.1h.2l55.4-18.8Z"/><path class="cls-1" d="M167.6,29.3a40.5,40.5,0,0,0-22.2-6.8L173.5,105a40.2,40.2,0,0,0,13.3-19Z"/></g></g></svg>