<svg xmlns="http://www.w3.org/2000/svg" viewBox="0 0 243.3 86.3"><g id="Слой_2" data-name="Слой 2"><g id="Raw"><path d="M82.3,17.7c-.2-6.9-6.8-11.4-13.5-14.3S52.3-.6,42.1.3A105.5,105.5,0,0,0,22.3,3.5a125.1,125.1,0,0,0-14,4.8S1.2,11,.2,14.3.8,17.2,2.5,17h.7c5-1.6,9.9-3.9,14.9-5.5A57.9,57.9,0,0,1,30.7,9.1C28.9,12.4,24.1,41,24.1,41s-6,43.1-5.7,44.3,2.3,1.4,5.1.2,5.6-3.4,5.8-6.4c.5-5.7,1.2-11.3,2-17,.1-1,.3-1.9.4-2.9s9.9-2.7,17.4-5.4,19-11.4,19-11.4a49.5,49.5,0,0,0,10.5-12A21.8,21.8,0,0,0,82.3,17.7Zm-14,15.5c-1,1.3-3.3,5-10.2,9.5s-16.2,7.1-25.1,9c0,0,2.8-23.8,7.3-43.3,0,0,13.3-.1,20.3,3.6,0,0,6.9,2.5,9.8,7.7S69.4,31.8,68.3,33.2Z"/><path d="M115.6,63.7c-1.2-3.3-8.8.1-8.8.1s-4.5,2.2-17.7,5.6S69.9,69,69.9,69s21.8-2.4,30.7-11.3,0-13.5,0-13.5-8.2-4.7-22.4.9S58.9,61.7,58.3,64.5,56.5,74.1,65.1,77s24.1-.3,24.1-.3,13.3-2.7,21.8-7C111,69.7,116.7,67,115.6,63.7ZM68.8,62.3s-.4-7.5,12.7-11.8c2.9-.9,6-1.8,9.1-1.5a5.1,5.1,0,0,1,3.7,1.6c1.1,1.3.7,3-.1,4.3a8.4,8.4,0,0,1-3.7,3,47.5,47.5,0,0,1-10.4,3C79.2,61,68.8,62.6,68.8,62.3Z"/><path d="M121.6,53.8a9.4,9.4,0,0,1,3.7-4.6c1.6-1,3.7-2.2,5.6-2a1.8,1.8,0,0,1,1.5.8c.4.6.1,1.5-.1,2.2-.9,3-1.8,6.4-.6,9.4s2.2,1.7,3.8.9,3.7-2.7,5.6-3.9a26.6,26.6,0,0,1,6.5-2.8,17.4,17.4,0,0,1,10.1.6c6,2,10.1,7.6,15.5,10.7l2.3,1.2a9,9,0,0,0,4.2.8c1.6-.1,4.1-1.4,5.4.1s-2.5,5-2.5,5c-3,2.8-7.4,3.6-11.3,3.3s-8.2-2.6-11.7-5.4l-5.7-4.7a18.9,18.9,0,0,0-5.7-3.2c-4.6-1.3-7.4,1.7-10.9,4a20.9,20.9,0,0,1-6.2,3c-3.1.8-6.5.7-8.9-1.6s-2.4-5.5-2.1-8.4A18.2,18.2,0,0,1,121.6,53.8Z"/><path d="M190.6,46.9s.3-15.7,13.6-18.6c0,0,4-.4,2.9,2.1s-3,2.5-4.1,7.1a36.8,36.8,0,0,0-1,8.6l20.5-.4s5-.5,5,2.4-1.4,2.8-2.6,3.6a8,8,0,0,1-4.9,2c-2.7.2-5.6.1-8.3.1h-9.1a28.7,28.7,0,0,0,3.8,10.6,8.8,8.8,0,0,0,4.2,3.4,8.4,8.4,0,0,0,5.6-.5c1.2-.4,4.6-.7,4,1.7s-4.2,4.5-6.9,5.5c-5.2,1.9-12.8,1.9-16.8-2.6s-4-7-4.8-11c-.4-2.2-.7-4.4-.9-6.7,0,0-10.3.8-11.2,1.1s-4.3.6-2.8-3a7.9,7.9,0,0,1,3.7-3.5C183.6,47.4,187.1,47.2,190.6,46.9Z"/><path d="M232.2,47.6a1.3,1.3,0,0,1-.1-.6c-.1-1-.1-2.2-.1-3.3a4.8,4.8,0,0,1,.9-2.9,12.7,12.7,0,0,1,7.6-3.2,3.9,3.9,0,0,1,1.5.2,2.1,2.1,0,0,1,1.1,1.6,6.9,6.9,0,0,1,.1,2,7.8,7.8,0,0,1-.2,2.2,4.2,4.2,0,0,1-1.7,2.9,11.5,11.5,0,0,1-3.6,1.1c-1.6.4-3.1,1.3-4.7.7a1.1,1.1,0,0,1-.8-.7Z"/><path d="M232.4,57.4s.2-4,5-6.2,5.7.3,5.7.3a3.4,3.4,0,0,1,.1,1,13.1,13.1,0,0,1,.1,2.8,60.1,60.1,0,0,1-.7,7.3,21,21,0,0,1-1.6,6.9,10.2,10.2,0,0,1-4.6,4.6c-1.2.6-4.2,1.9-5.2.4a1.5,1.5,0,0,1-.2-.9C231,72.3,232.4,57.4,232.4,57.4Z"/></g></g></svg>