<svg id="Raw" xmlns="http://www.w3.org/2000/svg" viewBox="0 0 256 256">
  <g>
    <path d="M88.67,102.56c-.21-6.87-6.83-11.46-13.58-14.28s-16.49-4-26.7-3.14a105.36,105.36,0,0,0-19.75,3.17,117.91,117.91,0,0,0-14,4.83s-7.09,2.69-8.12,6c-.6,1.94.65,2.92,2.3,2.73a4,4,0,0,0,.73-.16c5.05-1.57,9.89-3.89,15-5.45A58.4,58.4,0,0,1,37.06,94c-1.81,3.31-6.65,31.86-6.65,31.86s-6,43.08-5.71,44.29,2.34,1.45,5.11.28c2.61-1.1,5.58-3.48,5.85-6.47.51-5.68,1.18-11.32,2-17,.14-1,.27-1.93.41-2.89,0,0,9.85-2.7,17.37-5.39s19-11.38,19-11.38a49.11,49.11,0,0,0,10.5-12A21.87,21.87,0,0,0,88.67,102.56ZM74.66,118a34.35,34.35,0,0,1-10.24,9.53c-6.92,4.46-16.24,7.16-25.07,9,0,0,2.8-23.83,7.3-43.29,0,0,13.3-.11,20.28,3.58,0,0,6.88,2.51,9.83,7.72S75.73,116.68,74.66,118Z"/>
    <path d="M121.89,148.54c-1.17-3.3-8.72.15-8.72.15s-4.52,2.13-17.76,5.59-19.22-.45-19.22-.45,21.84-2.34,30.7-11.27,0-13.54,0-13.54-8.19-4.63-22.33.95-19.31,16.54-20,19.42-1.75,9.52,6.81,12.44,24.09-.26,24.09-.26,13.3-2.72,21.86-7C117.37,154.54,123.06,151.83,121.89,148.54Zm-46.8-1.39s-.32-7.55,12.71-11.81c2.89-.94,6.06-1.81,9.13-1.52a5.41,5.41,0,0,1,3.73,1.63c1.06,1.28.69,3-.12,4.27a8,8,0,0,1-3.7,3,46.35,46.35,0,0,1-10.41,2.95C85.5,145.88,75.1,147.45,75.09,147.15Z"/>
    <path d="M127.91,138.62a10.46,10.46,0,0,1,3.72-4.6c1.55-1,3.68-2.15,5.61-2a1.82,1.82,0,0,1,1.45.79,2.77,2.77,0,0,1-.06,2.27c-.93,2.95-1.85,6.31-.57,9.31.73,1.72,2.2,1.76,3.75.93,2-1.09,3.67-2.72,5.65-3.88a26.21,26.21,0,0,1,6.5-2.81,17.25,17.25,0,0,1,10,.59c6.05,2,10.16,7.64,15.52,10.73a22,22,0,0,0,2.33,1.16,8.6,8.6,0,0,0,4.21.86c1.53-.16,4.09-1.47,5.32.07s-2.45,5-2.45,5c-3,2.8-7.37,3.65-11.36,3.28-4.53-.43-8.19-2.57-11.68-5.37-1.92-1.54-3.75-3.19-5.7-4.69a18,18,0,0,0-5.63-3.18c-4.6-1.36-7.45,1.63-11,4a22.16,22.16,0,0,1-6.17,2.94c-3.06.87-6.53.7-8.91-1.6-2.17-2.11-2.37-5.49-2.07-8.33A17.59,17.59,0,0,1,127.91,138.62Z"/>
    <path d="M196.88,131.78s.32-15.74,13.62-18.67c0,0,4-.34,2.9,2.1s-2.93,2.53-4.07,7.1a34.92,34.92,0,0,0-1,8.67l20.47-.47s5-.48,5.08,2.44c0,1.55-1.47,2.8-2.6,3.62a8.71,8.71,0,0,1-4.92,2c-2.77.16-5.58,0-8.36.08-3,.05-6,.09-9,.09a26.26,26.26,0,0,0,3.79,10.63,8.37,8.37,0,0,0,4.18,3.38c1.91.65,3.71.16,5.55-.46,1.26-.42,4.66-.71,4,1.63-.79,3-4.17,4.52-6.86,5.5-5.3,1.93-12.83,1.94-16.85-2.56-2.76-3.09-4-7-4.78-11-.43-2.21-.73-4.45-1-6.69,0,0-10.25.81-11.14,1.13s-4.29.53-2.8-3.08a7.13,7.13,0,0,1,3.65-3.42C190,132.25,193.43,132.09,196.88,131.78Z"/>
    <path d="M238.51,132.41a2.28,2.28,0,0,1-.1-.52,22.7,22.7,0,0,1-.06-3.3,4.34,4.34,0,0,1,.92-3,12.25,12.25,0,0,1,7.53-3.16,3,3,0,0,1,1.5.19,2.27,2.27,0,0,1,1.13,1.58,8.68,8.68,0,0,1,.08,2,11.85,11.85,0,0,1-.15,2.14,4.21,4.21,0,0,1-1.78,2.92,12,12,0,0,1-3.59,1.08c-1.59.37-3,1.36-4.7.7a1.33,1.33,0,0,1-.77-.68Z"/>
    <path d="M238.71,142.29s.22-4.07,5-6.28,5.69.29,5.69.29a5,5,0,0,1,.15,1,25,25,0,0,1,.12,2.87,67,67,0,0,1-.76,7.21,20.54,20.54,0,0,1-1.59,6.92,10.25,10.25,0,0,1-4.59,4.59c-1.17.59-4.16,1.93-5.18.45a1.65,1.65,0,0,1-.25-.91C237.3,157.1,238.71,142.29,238.71,142.29Z"/>
  </g>
</svg>
