<svg id="Слой_1" data-name="Слой 1" xmlns="http://www.w3.org/2000/svg" viewBox="0 0 21.6444 25">
  <g>
    <path d="M23.30222,5.39058l.0163-1.76415q.00743-.537.00066-1.07409A2.46606,2.46606,0,0,0,20.73787.00051q-8.50878-.00109-17.01758,0a1.89294,1.89294,0,0,0-2.03954,2.042Q1.6773,10.54991,1.68,19.05739l.00289,1.96821q-.00969,1.03738.00056,2.07492a1.89472,1.89472,0,0,0,.49722,1.289A2.18,2.18,0,0,0,3.3188,25h9.91354a2.42508,2.42508,0,0,1,.30913-.03893q3.60128-.00337,7.20255.00046a2.52188,2.52188,0,0,0,1.18028-.25046,2.45133,2.45133,0,0,0,1.39584-2.3558q-.00075-8.3488-.00089-16.69762A1.76024,1.76024,0,0,0,23.30222,5.39058Zm-9.18589-.54735q-.00166,9.10557-.01079,18.21113a1.36259,1.36259,0,0,1-.17857.66543,1.47506,1.47506,0,0,1-1.7145.501l-8.82735.0224a1.093,1.093,0,0,1-.95592-1.017l-.0038-.04855a.27.27,0,0,0-.01229-.53952c-.00075-.536.00285-1.07208-.00312-1.608L2.41231,18.984q.00045-4.29648.00025-8.59293,0-4.17441.00066-8.34881A1.16893,1.16893,0,0,1,3.72246.73279Q8.28815.73218,12.85385.733a1.15045,1.15045,0,0,1,1.26243,1.254C14.11853,2.93911,14.1165,3.89117,14.11633,4.84323Zm8.47128.89253q-.00093,8.26337-.00289,16.52674a2.67346,2.67346,0,0,1-.05847.65285,1.69223,1.69223,0,0,1-1.76606,1.31041q-3.00309.0046-6.0062.00053c-.07018,0-.14036-.00695-.2306-.01171a4.38713,4.38713,0,0,0,.191-.41056.20735.20735,0,0,1,.25294-.16427,1.24913,1.24913,0,0,0,.17073.00125q2.82,0,5.64.00151a1.09905,1.09905,0,0,0,1.11266-.67542,1.807,1.807,0,0,0,.1064-.69018q.008-9.78909.00393-19.5782c0-.09752-.00011-.19551-.00885-.29251A1.12729,1.12729,0,0,0,20.815,1.31877c-.06509-.001-.13021-.0002-.19532-.0002q-2.80777,0-5.61555-.0029c-.087-.00017-.21463-.01454-.253-.07051a3.87021,3.87021,0,0,1-.25591-.51253h1.75272c1.51376,0,3.02753-.00366,4.54127.00135a1.68973,1.68973,0,0,1,1.77942,1.63064c.03385.42056.012.84547.01946,1.26833L22.60182,5.395A2.71169,2.71169,0,0,0,22.58761,5.73576ZM14.86634,22.818V2.051h.74971q2.52672,0,5.05343.00008c.48051.00006.59865.11342.59868.58356q.00075,9.849-.00005,19.698c0,.46447-.11311.57546-.57839.57557q-2.783.00069-5.56609.00019H14.883A.2683.2683,0,0,0,14.86634,22.818Z" transform="translate(-1.6778 0)"/>
    <path d="M5.811,4.09857c.47942,0,.95949.01587,1.43811-.0037a1.33831,1.33831,0,0,0,1.298-1.32277,1.29841,1.29841,0,0,0-1.2479-1.35782c-.9898-.03373-1.98161-.00938-2.97255-.00722a.93983.93983,0,0,0-.23976.03433,1.34832,1.34832,0,0,0,.286,2.65351C4.85155,4.11389,5.33158,4.09857,5.811,4.09857ZM3.80661,2.7696a.61871.61871,0,0,1,.64871-.64078q1.35214-.01376,2.70451-.00064a.61926.61926,0,0,1,.656.63317.63551.63551,0,0,1-.68448.60724c-.43856.003-.87716.00068-1.31574.00068-.44671-.00005-.89344.003-1.34011-.001A.636.636,0,0,1,3.80661,2.7696Z" transform="translate(-1.6778 0)"/>
    <path d="M8.19793,6.02889A1.95484,1.95484,0,0,0,6.30247,8.24945a1.98,1.98,0,0,0,3.93965-.38295A1.951,1.951,0,0,0,8.19793,6.02889Zm.0623,3.22589A1.25345,1.25345,0,0,1,8.27492,6.748a1.25343,1.25343,0,0,1-.01469,2.50681Z" transform="translate(-1.6778 0)"/>
    <circle cx="1.54567" cy="22.90849" r="0.27069"/>
    <circle cx="2.35916" cy="22.90849" r="0.27069"/>
    <circle cx="3.17265" cy="22.90849" r="0.27069"/>
    <circle cx="3.98613" cy="22.90849" r="0.27069"/>
    <circle cx="4.79962" cy="22.90849" r="0.27069"/>
    <circle cx="5.61311" cy="22.90849" r="0.27069"/>
    <circle cx="6.4266" cy="22.90849" r="0.27069"/>
    <circle cx="7.24008" cy="22.90849" r="0.27069"/>
    <circle cx="8.05357" cy="22.90849" r="0.27069"/>
    <circle cx="8.86706" cy="22.90849" r="0.27069"/>
    <circle cx="9.68055" cy="22.90849" r="0.27069"/>
    <circle cx="10.49403" cy="22.90849" r="0.27069"/>
    <circle cx="11.30752" cy="22.90849" r="0.27069"/>
    <circle cx="12.12101" cy="22.90849" r="0.27069"/>
  </g>
</svg>
