<svg id="Слой_1" data-name="Слой 1" xmlns="http://www.w3.org/2000/svg" viewBox="0 0 15.33948 24.98962">
  <g>
    <circle cx="5.37122" cy="22.56622" r="0.48663"/>
    <circle cx="6.92065" cy="22.56622" r="0.48663"/>
    <circle cx="3.82178" cy="22.56622" r="0.48663"/>
    <path d="M13.30035,22.08478a.48663.48663,0,1,0,.48664.48663A.48723.48723,0,0,0,13.30035,22.08478Z" transform="translate(-4.83026 -0.00519)"/>
    <path d="M8.02887,6.79419a.4853.4853,0,0,0,.48614-.492V3.59259a.48751.48751,0,0,0-.14233-.352.49492.49492,0,0,0-.35205-.14233.48938.48938,0,0,0-.47888.49243V6.30127a.48662.48662,0,0,0,.48712.49292Z" transform="translate(-4.83026 -0.00519)"/>
    <circle cx="2.27234" cy="22.56622" r="0.48663"/>
    <path d="M8.515,17.53571V11.72723a.48766.48766,0,0,0-.14233-.35205.49492.49492,0,0,0-.35205-.14233.48942.48942,0,0,0-.47888.49243v5.80945a.48667.48667,0,1,0,.97326.001Z" transform="translate(-4.83026 -0.00519)"/>
    <path d="M14.84985,22.08478a.48663.48663,0,1,0,.48658.48663A.48728.48728,0,0,0,14.84985,22.08478Z" transform="translate(-4.83026 -0.00519)"/>
    <path d="M17.95068.00519H7.04932A2.571,2.571,0,0,0,4.83026,2.816V23.34613a1.15771,1.15771,0,0,0,1.00806,1.26135h.20337v.38733H9.26843v-.38733h6.46314v.38733h3.22668v-.38733h.20386a1.15771,1.15771,0,0,0,1.00763-1.26135V2.816A2.571,2.571,0,0,0,17.95068.00519Zm1.4148,23.34094c0,.16174-.08905.28809-.20337.28809H5.83832c-.11426,0-.2038-.12635-.2038-.28809V2.816A1.67017,1.67017,0,0,1,7.04932.97839H17.95068A1.67017,1.67017,0,0,1,19.36548,2.816Z" transform="translate(-4.83026 -0.00519)"/>
    <circle cx="11.56903" cy="22.56622" r="0.48663"/>
    <circle cx="13.11847" cy="22.56622" r="0.48663"/>
    <circle cx="1.25958" cy="9.09241" r="0.3205"/>
    <path d="M7.37189,9.41809a.3205.3205,0,1,0-.32056-.32049A.32049.32049,0,0,0,7.37189,9.41809Z" transform="translate(-4.83026 -0.00519)"/>
    <path d="M8.33337,9.0976a.32053.32053,0,1,0,.3205-.3205A.3205.3205,0,0,0,8.33337,9.0976Z" transform="translate(-4.83026 -0.00519)"/>
    <circle cx="5.10565" cy="9.09241" r="0.3205"/>
    <circle cx="6.3877" cy="9.09241" r="0.3205"/>
    <circle cx="7.66974" cy="9.09241" r="0.3205"/>
    <path d="M13.782,8.7771a.3205.3205,0,1,0,.3205.3205A.32055.32055,0,0,0,13.782,8.7771Z" transform="translate(-4.83026 -0.00519)"/>
    <path d="M15.06409,8.7771a.3205.3205,0,1,0,.32049.3205A.32051.32051,0,0,0,15.06409,8.7771Z" transform="translate(-4.83026 -0.00519)"/>
    <path d="M16.34607,9.41809a.3205.3205,0,1,0-.3205-.32049A.32055.32055,0,0,0,16.34607,9.41809Z" transform="translate(-4.83026 -0.00519)"/>
    <circle cx="12.79785" cy="9.09241" r="0.3205"/>
    <circle cx="14.0799" cy="9.09241" r="0.3205"/>
  </g>
</svg>
