<svg id="Слой_1" data-name="Слой 1" xmlns="http://www.w3.org/2000/svg" viewBox="0 0 24.99767 24.99817">
  <g>
    <path d="M12.01386,10.6391a.72144.72144,0,0,0-1.22-.52l-.69.68994a.72526.72526,0,0,0,.52,1.22.73836.73836,0,0,0,.5-.2l.69-.69A.70279.70279,0,0,0,12.01386,10.6391Zm-.5.2-.69.69a.2911.2911,0,0,1-.42-.02.31757.31757,0,0,1-.08-.2.27917.27917,0,0,1,.08-.19995l.69-.69a.27347.27347,0,0,1,.19-.08.31963.31963,0,0,1,.23.1.29013.29013,0,0,1,0,.4Z" transform="translate(-0.00117 -0.00092)"/>
    <path d="M17.14387,12.60913a3.16785,3.16785,0,1,0-4.48,4.48,3.18705,3.18705,0,0,0,4.48,0A3.18083,3.18083,0,0,0,17.14387,12.60913Zm-4.18,4.18a2.74,2.74,0,0,1,1.93994-4.68,2.74208,2.74208,0,1,1-1.93994,4.68Z" transform="translate(-0.00117 -0.00092)"/>
    <path d="M12.66926,9.98987a.70258.70258,0,0,0,.49756-.20526l.68817-.6875A.6965.6965,0,0,0,14.0605,8.6a.71817.71817,0,0,0-.22693-.5185.72247.72247,0,0,0-.99518,0l-.68817.68671a.712.712,0,0,0,.02142,1.01642A.70188.70188,0,0,0,12.66926,9.98987Zm-.22119-.92328.689-.68671a.27885.27885,0,0,1,.19886-.0816.2988.2988,0,0,1,.21954.10223.28138.28138,0,0,1,0,.39814l-.68738.68756a.29111.29111,0,0,1-.42-.02143A.2825.2825,0,0,1,12.44807,9.06659Z" transform="translate(-0.00117 -0.00092)"/>
    <path d="M20.07386,17.3891a.73049.73049,0,0,0,.5-.21l.68-.68006a.70144.70144,0,0,0-.02-1.01995.71245.71245,0,0,0-.99,0l-.69.69a.72536.72536,0,0,0,.52,1.22Zm-.22-.93.69-.68a.2793.2793,0,0,1,.2-.08.29193.29193,0,0,1,.22.1.27921.27921,0,0,1,.08.19995.31766.31766,0,0,1-.08.2l-.69.68a.27568.27568,0,0,1-.42-.02A.28374.28374,0,0,1,19.85383,16.45911Z" transform="translate(-0.00117 -0.00092)"/>
    <path d="M5.50428,5.46985A2.62217,2.62217,0,0,1,7.30146,4.699a.21122.21122,0,0,0,.2063-.21021l.00665-1.46411a.21182.21182,0,0,0-.06109-.15082.16065.16065,0,0,0-.15021-.061A4.48363,4.48363,0,0,0,2.84223,7.25049a.21121.21121,0,0,0,.21125.21271h.00085l1.46961-.00745a.21094.21094,0,0,0,.21044-.20441A2.61267,2.61267,0,0,1,5.50428,5.46985ZM4.32344,7.03534l-1.05207.00494a4.06543,4.06543,0,0,1,3.8197-3.79956L7.08613,4.28851A3.06095,3.06095,0,0,0,4.32344,7.03534Z" transform="translate(-0.00117 -0.00092)"/>
    <path d="M9.25386,11.95911a.73834.73834,0,0,0-.5.2l-.69.69a.70283.70283,0,0,0-.2.5.73627.73627,0,0,0,.22.52.72513.72513,0,0,0,1,0l.69-.69a.72484.72484,0,0,0-.02-1.02A.73838.73838,0,0,0,9.25386,11.95911Zm.22.92-.69.69a.29092.29092,0,0,1-.42-.02.31765.31765,0,0,1-.08-.2.27924.27924,0,0,1,.08-.2l.69-.69a.27325.27325,0,0,1,.19-.08.31937.31937,0,0,1,.23.1A.28355.28355,0,0,1,9.47383,12.87909Z" transform="translate(-0.00117 -0.00092)"/>
    <path d="M7.29243,1.88708a.21093.21093,0,0,0,.20795-.2102l.00738-1.464A.21231.21231,0,0,0,7.44587.062a.2005.2005,0,0,0-.15014-.061A7.33229,7.33229,0,0,0,.00117,7.25708a.21256.21256,0,0,0,.21124.2135H.21327l1.4696-.00738a.21189.21189,0,0,0,.21045-.20777A5.4815,5.4815,0,0,1,7.29243,1.88708Zm-5.815,5.15485-1.048.005A6.9115,6.9115,0,0,1,7.08448.42712l-.0058,1.0445A5.90659,5.90659,0,0,0,1.47743,7.04193Z" transform="translate(-0.00117 -0.00092)"/>
    <path d="M18.95387,21.50909a.22431.22431,0,0,0-.22.23.222.222,0,0,0,.22.22.22506.22506,0,1,0,0-.45Z" transform="translate(-0.00117 -0.00092)"/>
    <path d="M21.42384,19.12909a.22506.22506,0,1,0,.22.22A.222.222,0,0,0,21.42384,19.12909Z" transform="translate(-0.00117 -0.00092)"/>
    <path d="M21.83387,18.72913a.22506.22506,0,1,0,.22.22A.2219.2219,0,0,0,21.83387,18.72913Z" transform="translate(-0.00117 -0.00092)"/>
    <path d="M22.24385,18.3291a.22506.22506,0,1,0,0,.45.222.222,0,0,0,.22-.22A.2243.2243,0,0,0,22.24385,18.3291Z" transform="translate(-0.00117 -0.00092)"/>
    <path d="M21.01386,19.5191a.22507.22507,0,1,0,0,.45.22193.22193,0,0,0,.22-.22A.22425.22425,0,0,0,21.01386,19.5191Z" transform="translate(-0.00117 -0.00092)"/>
    <path d="M16.65382,19.34912a.70506.70506,0,0,0-.5.21l-.68.69a.66636.66636,0,0,0-.21.49006.69269.69269,0,0,0,.23.52.68827.68827,0,0,0,.99,0l.69-.68a.70152.70152,0,0,0-.02-1.02A.70488.70488,0,0,0,16.65382,19.34912Zm.22.93-.69.68a.29106.29106,0,0,1-.42-.02.27925.27925,0,0,1-.08-.2.27329.27329,0,0,1,.08-.19l.69-.69a.273.273,0,0,1,.19-.08.31938.31938,0,0,1,.23.1.27935.27935,0,0,1,.08.2A.31765.31765,0,0,1,16.87385,20.27911Z" transform="translate(-0.00117 -0.00092)"/>
    <path d="M20.60383,19.91913a.22506.22506,0,1,0,0,.45.222.222,0,0,0,.22-.22A.22425.22425,0,0,0,20.60383,19.91913Z" transform="translate(-0.00117 -0.00092)"/>
    <path d="M23.06385,17.53912a.22507.22507,0,1,0,.22.22A.22191.22191,0,0,0,23.06385,17.53912Z" transform="translate(-0.00117 -0.00092)"/>
    <path d="M22.65382,17.92914a.22629.22629,0,0,0-.23.23.22506.22506,0,1,0,.45,0A.22422.22422,0,0,0,22.65382,17.92914Z" transform="translate(-0.00117 -0.00092)"/>
    <path d="M23.39387,15.61914l-9.28-9.27a5.50127,5.50127,0,0,0-7.78,7.78l9.27,9.26a5.5013,5.5013,0,1,0,7.79-7.77ZM6.92768,6.9455a4.63556,4.63556,0,0,1,1.0232-.76831A1.87207,1.87207,0,0,1,7.3733,7.39062a1.86737,1.86737,0,0,1-1.21551.57709A4.61878,4.61878,0,0,1,6.92768,6.9455ZM22.79383,22.79913a4.66628,4.66628,0,0,1-5.55.78.07489.07489,0,0,0,.05.01.22425.22425,0,0,0,.22-.23.222.222,0,0,0-.22-.22.22426.22426,0,0,0-.23.22.20345.20345,0,0,0,.06.15,4.44022,4.44022,0,0,1-.92-.71l-9.28-9.27a4.7033,4.7033,0,0,1-.97-5.15c.06,0,.11.01.17.01a2.273,2.273,0,0,0,1.55-.7,2.2062,2.2062,0,0,0,.69-1.72,4.77032,4.77032,0,0,1,1.86-.39,4.62658,4.62658,0,0,1,3.29,1.37l9.28,9.26a4.2739,4.2739,0,0,1,.72.94c-.01-.01-.02-.01-.04-.01a.22506.22506,0,1,0,0,.45.21745.21745,0,0,0,.2-.14A4.64775,4.64775,0,0,1,22.79383,22.79913Z" transform="translate(-0.00117 -0.00092)"/>
    <path d="M17.72383,22.6991a.22425.22425,0,0,0-.22.23.22191.22191,0,0,0,.22.22.22506.22506,0,1,0,0-.45Z" transform="translate(-0.00117 -0.00092)"/>
    <path d="M18.13386,22.30908a.222.222,0,0,0-.22.22.22506.22506,0,1,0,.22-.22Z" transform="translate(-0.00117 -0.00092)"/>
    <path d="M18.03382,19.42914a.66618.66618,0,0,0,.49005-.21l.69-.68a.70166.70166,0,0,0-.02-1.02.71248.71248,0,0,0-.99,0l-.69.69a.69545.69545,0,0,0,.02,1.01A.7049.7049,0,0,0,18.03382,19.42914Zm-.22-.93006.68-.68a.31755.31755,0,0,1,.2-.08.266.266,0,0,1,.22.1.25178.25178,0,0,1,.09.2.283.283,0,0,1-.09.2l-.68.68a.29106.29106,0,0,1-.42-.02A.28375.28375,0,0,1,17.81385,18.49908Z" transform="translate(-0.00117 -0.00092)"/>
    <path d="M18.54383,21.90912a.22191.22191,0,0,0-.22.22.22506.22506,0,1,0,.22-.22Z" transform="translate(-0.00117 -0.00092)"/>
    <path d="M20.19386,20.31909a.22506.22506,0,1,0,.22.22A.222.222,0,0,0,20.19386,20.31909Z" transform="translate(-0.00117 -0.00092)"/>
    <path d="M19.78382,20.71912a.22506.22506,0,1,0,.22.22A.222.222,0,0,0,19.78382,20.71912Z" transform="translate(-0.00117 -0.00092)"/>
    <path d="M19.37385,21.10913a.225.225,0,1,0,0,.45.2219.2219,0,0,0,.22-.22A.22421.22421,0,0,0,19.37385,21.10913Z" transform="translate(-0.00117 -0.00092)"/>
  </g>
</svg>
