<svg id="Слой_1" data-name="Слой 1" xmlns="http://www.w3.org/2000/svg" viewBox="0 0 24.69804 25.00027">
  <path d="M1.82849,25.00013A1.67963,1.67963,0,0,1,.151,23.32213V19.76529a1.67953,1.67953,0,0,1,1.67751-1.67752H3.11518V5.53694a.492.492,0,1,1,.984-.00148V18.08777H7.8578V5.53694a.492.492,0,1,1,.984-.00148V18.08777H23.171a1.67964,1.67964,0,0,1,1.678,1.67752v3.55684a1.67973,1.67973,0,0,1-1.678,1.678Zm0-5.92888a.69471.69471,0,0,0-.69355.694v3.55684a.69471.69471,0,0,0,.69355.694H23.171a.69513.69513,0,0,0,.69405-.694V19.76529a.69513.69513,0,0,0-.69405-.694Zm11.26415,2.96469a.492.492,0,1,1,.49223-.49223A.46087.46087,0,0,1,13.09264,22.03594Zm-2.37155,0a.492.492,0,1,1,.49223-.49223A.46087.46087,0,0,1,10.72109,22.03594Zm-2.37107,0a.492.492,0,1,1,.49174-.49223A.461.461,0,0,1,8.35,22.03594Zm-2.37155,0a.492.492,0,0,1,0-.984.492.492,0,0,1,0,.984Zm-2.37156,0a.492.492,0,0,1,0-.984.492.492,0,1,1,0,.984ZM13.97324,11.07648a.49183.49183,0,0,1-.34062-.84664A6.6436,6.6436,0,0,0,13.63409.845a.49186.49186,0,1,1,.69454-.6965,7.6274,7.6274,0,0,1,.001,10.77537.50209.50209,0,0,1-.35637.15259ZM12.313,9.35712A.49186.49186,0,0,1,11.97233,8.51a4.26331,4.26331,0,0,0,.00148-6.0042.49206.49206,0,1,1,.69453-.697,5.25267,5.25267,0,0,1,.001,7.39524A.50235.50235,0,0,1,12.313,9.35712ZM10.59508,7.75689a.48712.48712,0,0,1-.35539-.15161.4921.4921,0,0,1,.01427-.69552,1.84959,1.84959,0,0,0,.00148-2.68559.49188.49188,0,0,1,.34111-.84565.487.487,0,0,1,.35342.14914,2.87759,2.87759,0,0,1,.001,4.07615.50127.50127,0,0,1-.35588.15308Z" transform="translate(-0.15098 0.00013)"/>
</svg>
