<svg id="Слой_1" data-name="Слой 1" xmlns="http://www.w3.org/2000/svg" viewBox="0 0 25.00018 20.85693">
  <g>
    <path d="M11.29761,12.39a.47584.47584,0,0,0-.33728.14307l-.54071.53925a.47162.47162,0,0,0,.00048.67993.51932.51932,0,0,0,.34021.14306.51257.51257,0,0,0,.33924-.14355l.53827-.54022a.48231.48231,0,0,0-.34021-.82154Z" transform="translate(0.00006 -2.07153)"/>
    <path d="M11.24408,11.67114a.45775.45775,0,0,0-.48377-.48376h-.74609a.484.484,0,1,0,0,.968h.74609A.45818.45818,0,0,0,11.24408,11.67114Z" transform="translate(0.00006 -2.07153)"/>
    <path d="M11.09906,9.5506a.47653.47653,0,0,0-.33875-.145.48509.48509,0,0,0-.34069.145.472.472,0,0,0,0,.67993l.54071.5368a.46813.46813,0,0,0,.67749,0,.4698.4698,0,0,0,0-.678Z" transform="translate(0.00006 -2.07153)"/>
    <path d="M22.03027,16.57416a.45811.45811,0,0,0-.48425.48376v.41419a.3233.3233,0,0,1-.3446.345H3.79858a.3233.3233,0,0,1-.3446-.345V5.87018a.32293.32293,0,0,1,.3446-.34455H21.20142a.32293.32293,0,0,1,.3446.34455v.41467a.484.484,0,0,0,.968,0V5.87018a1.28356,1.28356,0,0,0-1.31262-1.31262H3.79858A1.28356,1.28356,0,0,0,2.486,5.87018V17.47211a1.28357,1.28357,0,0,0,1.31262,1.31262H21.20142A1.28357,1.28357,0,0,0,22.514,17.47211v-.41419A.45772.45772,0,0,0,22.03027,16.57416Z" transform="translate(0.00006 -2.07153)"/>
    <path d="M22.44446,7.04413H21.6156a.89851.89851,0,0,0-.898.89795V9.59973a.89852.89852,0,0,0,.898.898h.82886a.899.899,0,0,0,.89844-.898V7.94208A.899.899,0,0,0,22.44446,7.04413Zm-.75727,2.55542h-.002V8.00531l.689-.06317h.00067l.06958,1.588Z" transform="translate(0.00006 -2.07153)"/>
    <path d="M12.50024,12.84454a.45855.45855,0,0,0-.48425.48432V14.075a.484.484,0,0,0,.968,0v-.74609A.45816.45816,0,0,0,12.50024,12.84454Z" transform="translate(0.00006 -2.07153)"/>
    <path d="M13.74329,10.91235a.44456.44456,0,0,0,.33874-.145l.53925-.53729a.471.471,0,0,0,0-.67944.4788.4788,0,0,0-.33924-.145.48412.48412,0,0,0-.34021.145l-.53778.53876a.46949.46949,0,0,0,0,.67846A.446.446,0,0,0,13.74329,10.91235Z" transform="translate(0.00006 -2.07153)"/>
    <path d="M23.6875,2.07153H1.3125A1.28351,1.28351,0,0,0-.00006,3.38416v16.574A1.2835,1.2835,0,0,0,1.3125,21.27075l1.99707-.0694h.00525V22.03a.89939.89939,0,0,0,.89844.89844H5.87042a.89944.89944,0,0,0,.8985-.89844l-.06964-.75928,11.50207-.0694h.03022V22.03a.899.899,0,0,0,.898.89844h1.65765a.899.899,0,0,0,.89795-.89844l-.06934-.75659v-.00269H23.6875a1.28355,1.28355,0,0,0,1.31262-1.31262V3.38416A1.28356,1.28356,0,0,0,23.6875,2.07153ZM4.28284,22.03v-.76221l1.51385-.06647h.00415l.06958.759Zm16.50427-.06964L19.19916,22.03v-.76221l1.51434-.06647h.00415l.06946.75776Zm3.24542-2.00226a.32371.32371,0,0,1-.345.34509H1.3125A.32333.32333,0,0,1,.968,19.95813V3.38416a.323.323,0,0,1,.34454-.34461h22.375a.32334.32334,0,0,1,.345.34461Z" transform="translate(0.00006 -2.07153)"/>
    <path d="M8.28693,11.67114a4.21307,4.21307,0,1,0,4.21331-4.21283A4.21776,4.21776,0,0,0,8.28693,11.67114Zm7.54089,0a3.32782,3.32782,0,1,1-3.32758-3.32757A3.33176,3.33176,0,0,1,15.82782,11.67114Z" transform="translate(0.00006 -2.07153)"/>
    <path d="M22.03027,12.56958a.45775.45775,0,0,0,.48377-.48376V11.257a.484.484,0,0,0-.968,0v.82886A.45814.45814,0,0,0,22.03027,12.56958Z" transform="translate(0.00006 -2.07153)"/>
    <path d="M22.44446,12.84454H21.6156a.899.899,0,0,0-.898.89844V15.4007a.89852.89852,0,0,0,.898.89795h.82886a.899.899,0,0,0,.89844-.89795V13.743A.89943.89943,0,0,0,22.44446,12.84454Zm-.75659,2.55591h-.00269V13.80627l.689-.06323h.00067l.06958,1.58808Z" transform="translate(0.00006 -2.07153)"/>
    <path d="M12.016,9.18506v.74615a.484.484,0,1,0,.968,0V9.18506a.484.484,0,0,0-.968,0Z" transform="translate(0.00006 -2.07153)"/>
    <path d="M13.75592,11.67114a.45856.45856,0,0,0,.48425.48426h.7461a.484.484,0,0,0,0-.968h-.7461A.45814.45814,0,0,0,13.75592,11.67114Z" transform="translate(0.00006 -2.07153)"/>
    <path d="M13.90094,13.71039a.51356.51356,0,0,0,.33923.14264.51976.51976,0,0,0,.34021-.14313.46981.46981,0,0,0,0-.678l-.54022-.5412a.47721.47721,0,0,0-.33728-.14306.482.482,0,0,0-.34119.14355.47186.47186,0,0,0,.00049.67944Z" transform="translate(0.00006 -2.07153)"/>
    <path d="M4.6275,7.91931a.44587.44587,0,1,0,.44586.44586A.44587.44587,0,0,0,4.6275,7.91931Z" transform="translate(0.00006 -2.07153)"/>
    <path d="M4.6275,13.41675a.44586.44586,0,1,0,.44586.44586A.44587.44587,0,0,0,4.6275,13.41675Z" transform="translate(0.00006 -2.07153)"/>
    <path d="M4.6275,11.21777a.4459.4459,0,1,0,.44586.44587A.44588.44588,0,0,0,4.6275,11.21777Z" transform="translate(0.00006 -2.07153)"/>
    <path d="M4.6275,12.3172a.44589.44589,0,1,0,.44586.44592A.446.446,0,0,0,4.6275,12.3172Z" transform="translate(0.00006 -2.07153)"/>
    <path d="M4.6275,10.11829a.44586.44586,0,1,0,.44586.44586A.44587.44587,0,0,0,4.6275,10.11829Z" transform="translate(0.00006 -2.07153)"/>
    <path d="M4.6275,14.51624a.44589.44589,0,1,0,.44586.44586A.44591.44591,0,0,0,4.6275,14.51624Z" transform="translate(0.00006 -2.07153)"/>
    <path d="M4.6275,9.01874a.44589.44589,0,1,0,.44586.44592A.446.446,0,0,0,4.6275,9.01874Z" transform="translate(0.00006 -2.07153)"/>
  </g>
</svg>
