<svg id="Слой_1" data-name="Слой 1" xmlns="http://www.w3.org/2000/svg" viewBox="0 0 25 24.31361">
  <g>
    <path d="M4.09608,17.36154c.95307-.287,1.88779-.53145,2.79568-.852a4.32636,4.32636,0,0,1,2.90793-.016c.461.15419.9311.281,1.39458.428a1.05919,1.05919,0,0,1,.46115,1.903c-.14126.14048-.30774.25559-.49852.41183.509.10807.992.21654,1.47749.3121.53089.10449.4795.1108.47947-.39249-.00013-2.18463-.00431-4.36928.00714-6.55384a1.23223,1.23223,0,0,1,.16483-.58828c.61485-1.0503,1.24875-2.08943,1.87562-3.13269.04637-.07716.0873-.15759.15094-.27314-.131,0-.22792.00267-.3246-.0005-.28753-.00946-.45273-.14813-.45568-.428q-.0136-1.28541-.00056-2.571c.00288-.292.1644-.42871.47445-.43023.713-.0035,1.426-.00111,2.1591-.00111V3.16586c-.0785-.00525-.159-.01528-.23946-.01533-1.411-.001-2.82206-.00414-4.233.00493a.74284.74284,0,0,0-.387.12969c-.29145.19774-.5632.42423-.84864.63119a1.3308,1.3308,0,0,1-1.9522-.28125,1.36038,1.36038,0,0,1,.29673-1.97576c.46986-.353.92767-.72583,1.422-1.04086a1.63023,1.63023,0,0,1,.819-.26259c3.63664-.017,7.2734-.01336,10.91012-.00929A1.386,1.386,0,0,1,24.3521,1.6561a1.36219,1.36219,0,0,1-1.2716,1.47475c-.53457.04068-1.07419.01511-1.61156.01885-.10723.00075-.21446.00011-.33592.00011v2.0298c.61984,0,1.23035.00007,1.84086,0,.77141-.00011.80043.0294.80033.81369q-.00014.98307-.00009,1.96616c-.00026.55075-.08891.63983-.64295.64924-.04162.00071-.08319.00468-.16244.00935.04771.09509.08382.17425.126.25.58767,1.05594,1.18083,2.10887,1.75932,3.16981a1.14081,1.14081,0,0,1,.1398.52043q.01194,5.12964.00552,10.25932a1.68574,1.68574,0,0,1-1.81641,1.827c-2.70445.00094-5.40916-.02091-8.11321.012a1.79825,1.79825,0,0,1-1.9753-1.73367L4.1375,22.3381c-.18884.4655-.21407.48121-.74433.48106q-1.411-.00041-2.822-.00022C.127,22.81845.00025,22.69085.00019,22.2497q-.00031-2.33166,0-4.66333c.00009-.43263.12156-.555.55048-.5552.98267-.00039,1.96541.0061,2.948-.00434C3.765,17.024,3.9832,17.06583,4.09608,17.36154Zm9.82259,2.00276c.09358-.02023.142-.02921.18961-.0412.93485-.23545,1.86687-.483,2.80559-.70182a5.92626,5.92626,0,0,1,1.357-.21354,1.36309,1.36309,0,0,1,1.3802,1.64854,1.57359,1.57359,0,0,1-1.14833,1.15679c-1.45853.52618-2.91263,1.06466-4.37213,1.58811-.19525.07-.23553.16367-.18694.3527a.8765.8765,0,0,0,.90617.68322q4.20684.0029,8.41367,0a.8696.8696,0,0,0,.92866-.9319q.0026-5.11579-.00277-10.23158a.71563.71563,0,0,0-.08685-.33044c-.65245-1.18275-1.3145-2.36021-1.96541-3.54379a.32406.32406,0,0,0-.33245-.19484q-2.65758.00958-5.31518-.00116a.35769.35769,0,0,0-.35159.20989c-.69567,1.16793-1.40127,2.33-2.09332,3.5a.92165.92165,0,0,0-.12075.44555c-.00768,2.10007-.00521,4.20017-.00521,6.30026ZM4.09374,21.528c.85682.05352,1.69407.10386,2.531.15847,2.24557.14654,4.49089.29684,6.73678.4383a1.18726,1.18726,0,0,0,.46455-.06813q2.2002-.794,4.39423-1.60506a1.76856,1.76856,0,0,0,.38364-.184.563.563,0,0,0,.25688-.58784.47907.47907,0,0,0-.43622-.42606,2.43275,2.43275,0,0,0-.81829.01787c-1.40965.34147-2.81116.71653-4.22022,1.06057a2.09827,2.09827,0,0,1-.76358.02646c-.42281-.05755-.84-.15935-1.25758-.25174q-1.33868-.29624-2.6749-.6035a.3953.3953,0,0,1-.33977-.47516.406.406,0,0,1,.517-.31115c.12392.02174.2475.0502.37247.06039a2.31219,2.31219,0,0,0,1.83652-.50871c.30616-.27591.2599-.4596-.13437-.58019-.60129-.18391-1.20414-.36333-1.80993-.53166a2.29642,2.29642,0,0,0-1.24261-.0731c-.67846.188-1.353.39013-2.028.59053-.59164.17566-1.18155.35713-1.76766.53465ZM17.51488,1.15177c-1.78925,0-3.57852-.00426-5.36769.0068a.971.971,0,0,0-.512.156c-.46474.31635-.91108.66-1.36065.99833a.55729.55729,0,0,0-.12659.83564.52934.52934,0,0,0,.82821.11654c.31972-.23136.64031-.46284.945-.71316a.94861.94861,0,0,1,.64766-.21265q5.07791.00821,10.15584.00275a1.88481,1.88481,0,0,0,.3507-.02338.5672.5672,0,0,0,.47058-.59526c-.01059-.354-.26833-.57117-.68849-.57146Q20.18615,1.15013,17.51488,1.15177Zm-2.16031,4.8491V7.78425h7.59854V6.00087ZM3.26721,21.99767V17.85188H.81912v4.14579ZM20.30161,3.17151H18.01V5.15958h2.29157Z" transform="translate(0 -0.34319)"/>
    <path d="M8.92084,13.72428a2.5756,2.5756,0,0,1-2.38405-3.54645A39.90263,39.90263,0,0,1,8.41816,6.62438.57049.57049,0,0,1,9.4837,6.62249a37.02287,37.02287,0,0,1,1.90167,3.59823A2.5707,2.5707,0,0,1,8.92084,13.72428ZM9.016,7.28914,8.9127,7.313c-.45141.832-.90706,1.66175-1.35145,2.49749a5.0776,5.0776,0,0,0-.30945.714,1.80355,1.80355,0,0,0,2.76859,2.0467,1.71639,1.71639,0,0,0,.62419-2.05774C10.14662,9.41819,9.56311,8.36194,9.016,7.28914Z" transform="translate(0 -0.34319)"/>
    <path d="M20.5202,12.75335c.34627,0,.66321-.0028.98009.00075.34657.00387.48907.14275.49157.49075q.00674.93189.00008,1.86385c-.00235.35981-.14188.49379-.51107.49877-.30913.00417-.61835.00086-.96086.00086,0,.32962.00132.63747-.00034.94531-.00205.38267-.1352.52115-.50937.52267q-.90635.00369-1.81273.0001c-.37666-.00151-.5102-.13894-.51221-.51955-.0016-.30122-.00032-.60245-.00032-.94806-.28727,0-.55972,0-.83217,0-.53642-.00008-.63828-.09962-.63845-.62465-.00018-.57931-.00278-1.15864.00089-1.73793.0022-.34841.1428-.48806.48951-.4923.31682-.00389.63371-.00083.97981-.00083,0-.34126-.002-.65778.00053-.97427.00278-.349.141-.49176.48582-.49347q.93153-.00464,1.86309.0002c.344.00167.48235.14421.48554.49371C20.52243,12.08911,20.5202,12.399,20.5202,12.75335Zm-2.02893-.65245c0,.24558-.00016.47073,0,.69589.00058.70884-.054.76431-.75045.76346-.23227-.00028-.46454,0-.70665,0v1.23731c.30475,0,.59645-.00121.88813.00028.44711.00229.56748.12288.56858.56765.00074.29772.00014.59543.00014.89134h1.22231c0-.32121-.00161-.62943.00041-.93761.0025-.38073.13523-.51637.51367-.52073.3087-.00355.61748-.00072.93875-.00072V13.58781a.28875.28875,0,0,0-.06575-.02286c-.28533-.00238-.57067-.00311-.856-.0051-.39682-.00277-.5283-.13265-.53075-.528-.00191-.30733-.00038-.61469-.00038-.93091Z" transform="translate(0 -0.34319)"/>
    <circle cx="15.35457" cy="6.54937" r="0.20292"/>
    <circle cx="15.8985" cy="6.54937" r="0.20292"/>
    <circle cx="16.44243" cy="6.54937" r="0.20292"/>
    <circle cx="16.98636" cy="6.54937" r="0.20292"/>
    <circle cx="17.53029" cy="6.54937" r="0.20292"/>
    <circle cx="18.07422" cy="6.54937" r="0.20292"/>
    <circle cx="18.61815" cy="6.54937" r="0.20292"/>
    <circle cx="19.16208" cy="6.54937" r="0.20292"/>
    <circle cx="19.706" cy="6.54937" r="0.20292"/>
    <circle cx="20.24993" cy="6.54937" r="0.20292"/>
    <circle cx="20.79386" cy="6.54937" r="0.20292"/>
    <circle cx="21.33779" cy="6.54937" r="0.20292"/>
    <circle cx="21.88172" cy="6.54937" r="0.20292"/>
    <circle cx="22.42565" cy="6.54937" r="0.20292"/>
    <circle cx="22.96958" cy="6.54937" r="0.20292"/>
  </g>
</svg>
