<svg id="Слой_1" data-name="Слой 1" xmlns="http://www.w3.org/2000/svg" viewBox="0 0 23.44861 24.99927">
  <g>
    <path d="M16.69415,4.75934h-.73138a.4964.4964,0,0,0,0,.9928h.73138a.4964.4964,0,1,0,0-.9928Z" transform="translate(-0.7757 -0.00037)"/>
    <path d="M23.83514,18.00848,21.26257,14.472a1.262,1.262,0,0,0-1.01849-.51818l-6.09717-.02033.02033-6.76282h3.3717a1.26061,1.26061,0,0,0,1.25928-1.25921V1.26013A1.26108,1.26108,0,0,0,17.53894.00037H7.46155A1.2615,1.2615,0,0,0,6.20178,1.26013V5.91144A1.261,1.261,0,0,0,7.46155,7.17065l3.39154.02039-.02033,6.76276H4.75592a1.262,1.262,0,0,0-1.01855.51818l-2.57209,3.5365A2.02121,2.02121,0,0,0,.7757,19.20569v2.98407A1.26061,1.26061,0,0,0,2.03491,23.449l1.06616.02032v.271a1.2595,1.2595,0,0,0,2.519,0l.02032-.29132,13.73956.02032v.271a1.2595,1.2595,0,0,0,2.519,0l.02032-.29132h1.04584a1.26061,1.26061,0,0,0,1.25921-1.25928V19.20569A2.02408,2.02408,0,0,0,23.83514,18.00848ZM7.46155,6.20227a.29129.29129,0,0,1-.2909-.29083V5.62006h7.26709a.4842.4842,0,1,0,0-.96839L7.17065,4.63135V1.26013a.2913.2913,0,0,1,.2909-.29089H17.53894a.29082.29082,0,0,1,.29034.29089V5.91144a.29081.29081,0,0,1-.29034.29083Zm5.69659,2.32544-1.33667-.01489V7.17065l1.35706.02039Zm.02039.98871-.02039,4.43738-1.33667-.02033V9.49609Zm-8.6579,5.5249a.29274.29274,0,0,1,.23529-.11914H20.24408a.29263.29263,0,0,1,.23523.11914l2.55176,3.56329L1.95251,18.57239Zm.131,8.699a.29086.29086,0,1,1-.58172,0V23.449l.58172.02032Zm16.27832,0a.29083.29083,0,1,1-.58166,0V23.449l.58166.02032Zm2.32544-1.5506a.29086.29086,0,0,1-.29034.29089H2.03491a.29129.29129,0,0,1-.29089-.29089V21.12189a.45491.45491,0,0,0,.389.22815.46155.46155,0,0,0,0-.9231.45491.45491,0,0,0-.389.22815v-1.0816l21.51141.02038Z" transform="translate(-0.7757 -0.00037)"/>
    <path d="M3.47028,21.35a.46155.46155,0,1,0-.46161-.46155A.46158.46158,0,0,0,3.47028,21.35Z" transform="translate(-0.7757 -0.00037)"/>
    <circle cx="4.03174" cy="20.88812" r="0.46155"/>
    <circle cx="5.3689" cy="20.88812" r="0.46155"/>
    <circle cx="6.70605" cy="20.88812" r="0.46155"/>
    <path d="M8.819,21.35a.46155.46155,0,1,0-.46161-.46155A.46158.46158,0,0,0,8.819,21.35Z" transform="translate(-0.7757 -0.00037)"/>
    <circle cx="9.38043" cy="20.88812" r="0.46155"/>
    <circle cx="10.71759" cy="20.88812" r="0.46155"/>
    <circle cx="12.05475" cy="20.88812" r="0.46155"/>
    <circle cx="13.39197" cy="20.88812" r="0.46155"/>
    <circle cx="14.72913" cy="20.88812" r="0.46155"/>
    <circle cx="16.09631" cy="20.88812" r="0.46155"/>
    <circle cx="17.43353" cy="20.88812" r="0.46155"/>
    <circle cx="18.77069" cy="20.88812" r="0.46155"/>
    <circle cx="20.10785" cy="20.88812" r="0.46155"/>
    <circle cx="21.44501" cy="20.88812" r="0.46155"/>
  </g>
</svg>
