<svg id="Слой_1" data-name="Слой 1" xmlns="http://www.w3.org/2000/svg" viewBox="0 0 22.2416 25">
  <g>
    <path d="M23.38376,18.06622c-.37208-1.54376-.88426-3.05355-1.32489-4.58112a12.851,12.851,0,0,1-.5986-5.10848,3.11872,3.11872,0,0,1,.74882-1.93856,1.82679,1.82679,0,0,0,.49919-1.29269c.00319-.93152.015-1.86306.02782-2.79453a1.43713,1.43713,0,0,0-.76249-1.3294A3.15241,3.15241,0,0,0,20.69747.64682C19.8313.54757,18.969.41345,18.10214.32165c-1.023-.10832-2.04853-.19414-3.074-.27653a8.23664,8.23664,0,0,0-2.46367.10107C11.04146.4864,9.526.8605,8.00886,1.22626c-2.05465.49534-4.10765.9974-6.16214,1.49335a.54072.54072,0,0,0-.44438.72012c.33805,1.48948.67594,2.979,1.00433,4.47067a1.38447,1.38447,0,0,0,.63082,1.03415,20.89283,20.89283,0,0,0,5.04876,2.11837A42.22956,42.22956,0,0,0,13.2433,12.1266c.514.075,1.05253.25442,1.49994-.28028a1.60216,1.60216,0,0,0,.08763.37883c.13369.23668.02188.39123-.12491.57-.42442.517-.83489,1.04555-1.24506,1.574a1.01583,1.01583,0,0,0-.01811,1.34452c.23966.32982.48046.659.72925.98194a1.5208,1.5208,0,0,0,.80762.60087q.48016.12694.9617.25518c.07018.32426.14823.65612.21288.99057a.63013.63013,0,0,1-.38385.81982,5.68255,5.68255,0,0,1-.7299.33164,1.64065,1.64065,0,0,0-1.08211,2.08765,5.59165,5.59165,0,0,0,.49084,1.00582,3.02223,3.02223,0,0,0,1.8112,1.61211,15.66137,15.66137,0,0,0,3.63092.59719,2.79245,2.79245,0,0,0,2.50785-1.29624A6.54493,6.54493,0,0,0,23.38376,18.06622Zm-9.93084-6.93535c-.40471-.059-.80622-.0951-1.19759-.17864-1.319-.28153-2.64361-.54406-3.94871-.881A17.76915,17.76915,0,0,1,3.66245,8.13808a.49294.49294,0,0,1-.24794-.35948c-.27465-1.25255-.56173-2.50237-.85362-3.79143.89523.2718,1.74913.55854,2.6179.78945,2.26852.60295,4.54349,1.18164,6.81613,1.76916a1.82985,1.82985,0,0,0,.30942.06425c.35834.02819.507.20427.55771.57348.17474,1.27265.39076,2.53967.59023,3.80894A1.16672,1.16672,0,0,1,13.45292,11.13087Zm1.08606-.3176a.70188.70188,0,0,1-.08874.03948c-.10357-.64213-.20768-1.2778-.30831-1.914-.13727-.86789-.26836-1.73679-.40957-2.604a.61667.61667,0,0,0-.51556-.5398c-2.09263-.5103-4.18587-1.01883-6.27136-1.55715-1.01476-.26194-2.01332-.58664-3.01886-.884a1.1768,1.1768,0,0,1-.13948-.06682c1.84446-.44678,3.64569-.88463,5.44776-1.31908,1.19289-.28759,2.38137-.59759,3.583-.84268a6.09257,6.09257,0,0,1,1.63348-.10256c1.59548.11429,3.18825.27075,4.77978.43326.62277.0636,1.24264.17039,1.85781.28874.51147.09841.64721.29179.643.80955-.007.85809.00187,1.71716-.04107,2.57356a1.45043,1.45043,0,0,1-.28664.70316,6.19837,6.19837,0,0,1-1.70846,1.52253Q17.11776,9.08388,14.539,10.81327Zm.45541,4.60941a3.39538,3.39538,0,0,1-.61166-.23018c-.13383-.06312-.17876-.16353-.06005-.30882.42224-.51679.83193-1.04378,1.25172-1.56259a.22681.22681,0,0,1,.1708-.08632c.52929.11116,1.05607.23425,1.63959.3668-.30132.4331-.58224.83711-.86359,1.24078-.01392.02-.03647.03483-.047.056C16.1498,15.549,15.59866,15.57494,14.99439,15.42268Zm.94928,1.07276c1.03544-.1527,1.32409-1.10531,1.90647-1.7454a1.69593,1.69593,0,0,1-.44985,1.46013C16.97476,16.75885,16.44573,16.50324,15.94367,16.49544Zm5.91994,6.18044c-.327.542-.66537,1.0968-1.33581,1.2457a3.86656,3.86656,0,0,1-1.09312.03932,13.83039,13.83039,0,0,1-2.85276-.5173,1.708,1.708,0,0,1-1.00734-.76457c-.21-.33808-.41682-.68027-.59342-1.03632a.67164.67164,0,0,1,.3935-1.00493,8.749,8.749,0,0,0,.86608-.38951,1.64819,1.64819,0,0,0,.885-2.03273c-.05149-.21212-.09939-.42511-.14875-.63686a2.56137,2.56137,0,0,0,1.90953-2.45849,16.61265,16.61265,0,0,0-.20306-1.88916.5615.5615,0,0,0-.5005-.493c-.77736-.16935-1.55447-.33991-2.338-.51138a6.31907,6.31907,0,0,0-.14822-.74194c-.0572-.17767.01444-.24412.14252-.32938q2.05463-1.36793,4.10346-2.74461c.168-.11262.33116-.23244.52554-.36932-.02731.35944-.0624.68642-.07522,1.01427A12.3211,12.3211,0,0,0,20.843,12.8028c.482,1.76078,1.03468,3.50245,1.504,5.26642A5.71426,5.71426,0,0,1,21.86361,22.67588Z" transform="translate(-1.3792 0)"/>
    <path d="M14.11281,5.74861a.28246.28246,0,1,0,.28247.28245A.28246.28246,0,0,0,14.11281,5.74861Z" transform="translate(-1.3792 0)"/>
    <path d="M14.82342,5.365a.28246.28246,0,1,0,.28246.28244A.28246.28246,0,0,0,14.82342,5.365Z" transform="translate(-1.3792 0)"/>
    <path d="M15.534,4.98132a.28246.28246,0,1,0,.28245.28245A.28245.28245,0,0,0,15.534,4.98132Z" transform="translate(-1.3792 0)"/>
    <path d="M16.24461,4.59768a.28246.28246,0,1,0,.28247.28245A.28245.28245,0,0,0,16.24461,4.59768Z" transform="translate(-1.3792 0)"/>
    <path d="M16.95522,4.214a.28246.28246,0,1,0,.28247.28245A.28247.28247,0,0,0,16.95522,4.214Z" transform="translate(-1.3792 0)"/>
    <path d="M17.66583,3.8304a.28246.28246,0,1,0,.28245.28245A.28246.28246,0,0,0,17.66583,3.8304Z" transform="translate(-1.3792 0)"/>
    <path d="M18.37642,3.44676a.28246.28246,0,1,0,.28247.28245A.28245.28245,0,0,0,18.37642,3.44676Z" transform="translate(-1.3792 0)"/>
    <path d="M19.087,3.06312a.28246.28246,0,1,0,.28247.28245A.28246.28246,0,0,0,19.087,3.06312Z" transform="translate(-1.3792 0)"/>
    <path d="M20.08009,2.96193a.28246.28246,0,1,0-.28245.28247A.28246.28246,0,0,0,20.08009,2.96193Z" transform="translate(-1.3792 0)"/>
    <path d="M20.50823,2.86076a.28247.28247,0,1,0-.28245-.28247A.28246.28246,0,0,0,20.50823,2.86076Z" transform="translate(-1.3792 0)"/>
    <circle cx="19.83963" cy="2.19465" r="0.28247"/>
  </g>
</svg>
