<?xml version="1.0" encoding="utf-8"?>
<!-- Generator: Adobe Illustrator 22.1.0, SVG Export Plug-In . SVG Version: 6.00 Build 0)  -->
<svg version="1.1" id="Layer_1" xmlns="http://www.w3.org/2000/svg" xmlns:xlink="http://www.w3.org/1999/xlink" x="0px" y="0px"
	 viewBox="0 0 512 512" style="enable-background:new 0 0 512 512;" xml:space="preserve">
<g>
	<g>
		<g>
			<path d="M273.1,315.7c0-14.1-11.5-25.6-25.6-25.6s-25.6,11.5-25.6,25.6c0,11.1,7.2,20.5,17.1,24v18.6c0,47.1,38.3,85.3,85.3,85.3
				s85.3-38.3,85.3-85.3v-18.6c9.9-3.5,17.1-12.9,17.1-24c0-14.1-11.5-25.6-25.6-25.6s-25.6,11.5-25.6,25.6c0,11.1,7.2,20.5,17.1,24
				v18.6c0,37.6-30.6,68.3-68.3,68.3S256,396,256,358.4v-18.6C265.9,336.2,273.1,326.8,273.1,315.7z M401.1,307.2
				c4.7,0,8.5,3.8,8.5,8.5s-3.8,8.5-8.5,8.5h0h0c-4.7,0-8.5-3.8-8.5-8.5S396.4,307.2,401.1,307.2z M247.5,324.3L247.5,324.3
				L247.5,324.3c-4.7,0-8.5-3.8-8.5-8.5s3.8-8.5,8.5-8.5c4.7,0,8.5,3.8,8.5,8.5S252.2,324.3,247.5,324.3z"/>
			<path d="M93.9,204.8c14.1,0,25.6-11.5,25.6-25.6c0-11.1-7.2-20.5-17.1-24v-35.7h145.1c4.7,0,8.5-3.8,8.5-8.5
				c0-4.7-3.8-8.5-8.5-8.5H102.4c0-47.1,38.3-85.3,85.3-85.3s85.3,38.3,85.3,85.3v52.8c-9.9,3.5-17.1,12.9-17.1,24
				c0,14.1,11.5,25.6,25.6,25.6s25.6-11.5,25.6-25.6c0-11.1-7.2-20.5-17.1-24v-35.7h68.3v93.9c0,4.7,3.8,8.5,8.5,8.5
				s8.5-3.8,8.5-8.5V111.3c0-0.1,0-0.1,0-0.2c0-0.1,0-0.1,0-0.2c0-4.7-3.8-8.5-8.5-8.5h-76.8C290.1,45.9,244.2,0,187.7,0
				S85.3,45.9,85.3,102.4v52.8c-9.9,3.5-17.1,12.9-17.1,24C68.3,193.3,79.8,204.8,93.9,204.8z M281.6,170.7c4.7,0,8.5,3.8,8.5,8.5
				c0,4.7-3.8,8.5-8.5,8.5s-8.5-3.8-8.5-8.5C273.1,174.5,276.9,170.7,281.6,170.7z M93.9,170.7c4.7,0,8.5,3.8,8.5,8.5
				c0,4.7-3.8,8.5-8.5,8.5c-4.7,0-8.5-3.8-8.5-8.5C85.3,174.5,89.2,170.7,93.9,170.7z"/>
			<path d="M119.5,494.9H42.7c-14.1,0-25.6-11.5-25.6-25.6v-59.7h93.9c4.7,0,8.5-3.8,8.5-8.5c0-4.7-3.8-8.5-8.5-8.5H17.1V119.5h42.3
				c4.7,0,8.5-3.8,8.5-8.5c0-4.7-3.8-8.5-8.5-8.5H8.5c-4.7,0-8.5,3.8-8.5,8.5v358.4C0,492.9,19.1,512,42.7,512h76.8
				c4.7,0,8.5-3.8,8.5-8.5C128,498.7,124.2,494.9,119.5,494.9z"/>
			<path d="M509.3,241.6c-1.6-1.7-3.7-2.7-6.2-2.7H179.2c-4.7,0-8.5,3.8-8.5,8.5c0,4.7,3.8,8.5,8.5,8.5h315.7v213.3
				c0,14.1-11.5,25.6-25.6,25.6H179.2c-14.1,0-25.6-11.5-25.6-25.6V247.5c0-4.7-3.8-8.5-8.5-8.5s-8.5,3.8-8.5,8.5v221.9
				c0,23.5,19.1,42.7,42.7,42.7h290.1c23.5,0,42.7-19.1,42.7-42.7V247.8C512,245.4,510.9,243.2,509.3,241.6z"/>
		</g>
	</g>
</g>
</svg>
