<svg id="Слой_1" data-name="Слой 1" xmlns="http://www.w3.org/2000/svg" viewBox="0 0 15.96593 25">
  <path d="M12.12346,25a16.211,16.211,0,0,1-2.58431-.18911,1.95632,1.95632,0,0,1-1.499-1.172,9.44089,9.44089,0,0,0-2.13763-3.28186A3.16857,3.16857,0,0,1,4.517,17.76987V7.23013a3.09047,3.09047,0,0,1,1.33333-2.536,9.539,9.539,0,0,0,2.18982-3.3326A1.95591,1.95591,0,0,1,9.53915.18911,16.211,16.211,0,0,1,12.12346,0a16.20044,16.20044,0,0,1,2.58383.18911,1.95629,1.95629,0,0,1,1.49945,1.172A9.43929,9.43929,0,0,0,18.34438,4.643a3.16365,3.16365,0,0,1,1.38551,2.58718v.67839a.83242.83242,0,0,1,.75308.82728v1.882a.83288.83288,0,0,1-.75308.82777V13.181a.45562.45562,0,0,1,.3763.44811V16.2642a.45563.45563,0,0,1-.3763.44811v1.05756a3.091,3.091,0,0,1-1.33381,2.536,9.54176,9.54176,0,0,0-2.18934,3.3326,1.95587,1.95587,0,0,1-1.49945,1.17246A16.20044,16.20044,0,0,1,12.12346,25ZM7.58488,20.85831a12.88169,12.88169,0,0,1,1.29359,2.42728,1.053,1.053,0,0,0,.8067.62764,15.43163,15.43163,0,0,0,2.43829.17666,15.4423,15.4423,0,0,0,2.43877-.17666,1.05169,1.05169,0,0,0,.80574-.62764A12.70259,12.70259,0,0,1,16.662,20.85831ZM7.60643,5.05036A2.182,2.182,0,0,0,5.42666,7.23013V17.76987a2.182,2.182,0,0,0,2.17977,2.17977h9.03406a2.182,2.182,0,0,0,2.17977-2.17977V7.23013a2.182,2.182,0,0,0-2.17977-2.17977Zm4.517-4.14025a15.20173,15.20173,0,0,0-2.43829.1781,1.04694,1.04694,0,0,0-.8067.62668A12.86317,12.86317,0,0,1,7.5844,4.14169H16.662A12.71722,12.71722,0,0,1,15.368,1.71441a1.04686,1.04686,0,0,0-.80574-.6262A15.21216,15.21216,0,0,0,12.12346.91011ZM7.23013,17.47161a.45482.45482,0,1,1,.45481-.45482A.45523.45523,0,0,1,7.23013,17.47161Zm0-1.50568a.45482.45482,0,1,1,.45481-.45481A.45523.45523,0,0,1,7.23013,15.96593Zm0-1.5052a.45506.45506,0,1,1,.45481-.45529A.45563.45563,0,0,1,7.23013,14.46073Zm0-1.50568a.45505.45505,0,1,1,.45481-.45529A.45563.45563,0,0,1,7.23013,12.95505Zm0-1.50567a.45506.45506,0,1,1,.45481-.45482A.45523.45523,0,0,1,7.23013,11.44938Zm0-1.50568a.45482.45482,0,1,1,.45481-.45482A.45523.45523,0,0,1,7.23013,9.9437Zm0-1.50568a.45482.45482,0,1,1,.45481-.45481A.45523.45523,0,0,1,7.23013,8.438Z" transform="translate(-4.51703)"/>
</svg>
