<svg id="Слой_1" data-name="Слой 1" xmlns="http://www.w3.org/2000/svg" viewBox="0 0 13.69232 25">
  <g>
    <path d="M16.73941,0H8.26059A2.60711,2.60711,0,0,0,5.65384,2.60181v19.7959A2.60753,2.60753,0,0,0,8.26059,25h8.47882a2.60749,2.60749,0,0,0,2.60675-2.60229V2.60181A2.60707,2.60707,0,0,0,16.73941,0ZM14.21384.96692h.01281a.18.18,0,0,1,.17212.17584.13435.13435,0,0,1-.01446.06275.17682.17682,0,0,1-.32819,0,.13435.13435,0,0,1-.01446-.06275A.18.18,0,0,1,14.21384.96692Zm-2.47559,0h1.77911a.177.177,0,0,1,.17206.17584.13365.13365,0,0,1-.01452.06275.16858.16858,0,0,1-.16407.111H11.74448a.16677.16677,0,0,1-.15918-.111.13279.13279,0,0,1-.01447-.06275A.17607.17607,0,0,1,11.73825.96692Zm6.63654,21.43079a1.637,1.637,0,0,1-1.63538,1.63537H8.26059a1.63962,1.63962,0,0,1-1.64026-1.63537V2.60181A1.63952,1.63952,0,0,1,8.26059.96692h.83484a1.00134,1.00134,0,0,0,.02868.23859,1.0521,1.0521,0,0,0,1.03266.82043h4.94659a1.0603,1.0603,0,0,0,1.03278-.82043,1.00749,1.00749,0,0,0,.02862-.23859h.57465a1.63691,1.63691,0,0,1,1.63538,1.63489Z" transform="translate(-5.65384)"/>
    <path d="M9.59006,22.973a.30539.30539,0,1,0,.30542.30542A.30566.30566,0,0,0,9.59006,22.973Z" transform="translate(-5.65384)"/>
    <path d="M10.46786,22.973a.30539.30539,0,1,0,.30542.30542A.3057.3057,0,0,0,10.46786,22.973Z" transform="translate(-5.65384)"/>
    <path d="M11.34512,22.973a.30539.30539,0,1,0,.30542.30542A.30566.30566,0,0,0,11.34512,22.973Z" transform="translate(-5.65384)"/>
    <path d="M12.22293,22.973a.30539.30539,0,1,0,.30542.30542A.30571.30571,0,0,0,12.22293,22.973Z" transform="translate(-5.65384)"/>
    <path d="M13.10068,22.973a.30539.30539,0,1,0,.30542.30542A.30566.30566,0,0,0,13.10068,22.973Z" transform="translate(-5.65384)"/>
    <path d="M13.978,22.973a.30539.30539,0,1,0,.30542.30542A.30571.30571,0,0,0,13.978,22.973Z" transform="translate(-5.65384)"/>
    <path d="M14.8558,22.973a.30539.30539,0,1,0,.30536.30542A.30567.30567,0,0,0,14.8558,22.973Z" transform="translate(-5.65384)"/>
    <path d="M15.73355,22.973a.30539.30539,0,1,0,.30542.30542A.30571.30571,0,0,0,15.73355,22.973Z" transform="translate(-5.65384)"/>
  </g>
</svg>
