<svg id="Слой_1" data-name="Слой 1" xmlns="http://www.w3.org/2000/svg" viewBox="0 0 18.12659 25">
  <g>
    <path d="M12.5,9.47034A2.82807,2.82807,0,1,0,9.67218,6.642,2.8317,2.8317,0,0,0,12.5,9.47034Zm0-4.88184A2.05356,2.05356,0,1,1,10.44647,6.642,2.05618,2.05618,0,0,1,12.5,4.5885Z" transform="translate(-3.43671)"/>
    <path d="M17.86969,3.81421a.38715.38715,0,1,0,.38739.3869A.387.387,0,0,0,17.86969,3.81421Z" transform="translate(-3.43671)"/>
    <path d="M7.13037,20.4115a.38712.38712,0,1,0,.38739.38739A.38781.38781,0,0,0,7.13037,20.4115Z" transform="translate(-3.43671)"/>
    <path d="M7.13037,3.81421a.38715.38715,0,1,0,.38739.3869A.38739.38739,0,0,0,7.13037,3.81421Z" transform="translate(-3.43671)"/>
    <path d="M12.5,7.5177a.87543.87543,0,1,0-.87518-.87567A.87662.87662,0,0,0,12.5,7.5177Z" transform="translate(-3.43671)"/>
    <path d="M12.5,11.62433a4.7807,4.7807,0,1,0,4.781,4.78094A4.78609,4.78609,0,0,0,12.5,11.62433Zm0,8.78717a4.0062,4.0062,0,1,1,4.00623-4.00623A4.01062,4.01062,0,0,1,12.5,20.4115Z" transform="translate(-3.43671)"/>
    <path d="M17.86969,20.4115a.38712.38712,0,1,0,.38739.38739A.38739.38739,0,0,0,17.86969,20.4115Z" transform="translate(-3.43671)"/>
    <path d="M12.5,14.55353a1.85175,1.85175,0,1,0,1.85175,1.85174A1.85408,1.85408,0,0,0,12.5,14.55353Zm0,2.92871a1.07721,1.07721,0,1,1,1.07751-1.077A1.06547,1.06547,0,0,1,12.5,17.48224Z" transform="translate(-3.43671)"/>
    <path d="M19.94586,0H5.05414A1.61919,1.61919,0,0,0,3.43671,1.61743V23.38257A1.61919,1.61919,0,0,0,5.05414,25H19.94586a1.61919,1.61919,0,0,0,1.61743-1.61743V1.61743A1.61919,1.61919,0,0,0,19.94586,0Zm.67389,23.38257a.6665.6665,0,0,1-.67389.67383H5.05414a.66649.66649,0,0,1-.67383-.67383V1.61743A.6665.6665,0,0,1,5.05414.94354H19.94586a.66651.66651,0,0,1,.67389.67389Z" transform="translate(-3.43671)"/>
    <circle cx="1.73297" cy="1.80505" r="0.24408"/>
    <circle cx="1.73297" cy="2.77734" r="0.24408"/>
    <circle cx="1.73297" cy="3.74957" r="0.24408"/>
    <circle cx="1.73297" cy="4.72186" r="0.24408"/>
    <circle cx="1.73297" cy="5.69409" r="0.24408"/>
    <circle cx="1.73297" cy="6.66638" r="0.24408"/>
    <circle cx="1.73297" cy="7.63867" r="0.24408"/>
    <circle cx="1.73297" cy="8.6109" r="0.24408"/>
    <circle cx="1.73297" cy="9.58319" r="0.24408"/>
    <circle cx="1.73297" cy="10.55542" r="0.24408"/>
    <circle cx="1.73297" cy="11.52771" r="0.24408"/>
    <circle cx="1.73297" cy="12.5" r="0.24408"/>
    <circle cx="1.73297" cy="13.47223" r="0.24408"/>
    <circle cx="1.73297" cy="14.44452" r="0.24408"/>
    <circle cx="1.73297" cy="15.41675" r="0.24408"/>
    <circle cx="1.73297" cy="16.38904" r="0.24408"/>
    <circle cx="1.73297" cy="17.36133" r="0.24408"/>
    <circle cx="1.73297" cy="18.33356" r="0.24408"/>
    <circle cx="1.73297" cy="19.30585" r="0.24408"/>
    <circle cx="1.73297" cy="20.27808" r="0.24408"/>
    <circle cx="1.73297" cy="21.25037" r="0.24408"/>
    <circle cx="1.73297" cy="22.22266" r="0.24408"/>
    <circle cx="1.73297" cy="23.19489" r="0.24408"/>
    <circle cx="2.70905" cy="23.19489" r="0.24408"/>
    <circle cx="3.68512" cy="23.19489" r="0.24408"/>
    <circle cx="4.66125" cy="23.19489" r="0.24408"/>
    <circle cx="5.63733" cy="23.19489" r="0.24408"/>
    <circle cx="6.6134" cy="23.19489" r="0.24408"/>
    <circle cx="7.58948" cy="23.19489" r="0.24408"/>
    <circle cx="8.56555" cy="23.19489" r="0.24408"/>
    <circle cx="9.54163" cy="23.19489" r="0.24408"/>
    <circle cx="10.5177" cy="23.19489" r="0.24408"/>
    <circle cx="11.49377" cy="23.19489" r="0.24408"/>
    <circle cx="12.46985" cy="23.19489" r="0.24408"/>
    <circle cx="13.44592" cy="23.19489" r="0.24408"/>
    <circle cx="14.422" cy="23.19489" r="0.24408"/>
    <circle cx="15.39813" cy="23.19489" r="0.24408"/>
    <circle cx="2.71039" cy="1.80505" r="0.24408"/>
    <circle cx="3.68774" cy="1.80505" r="0.24408"/>
    <circle cx="4.66516" cy="1.80505" r="0.24408"/>
    <circle cx="5.64258" cy="1.80505" r="0.24408"/>
    <circle cx="6.61993" cy="1.80505" r="0.24408"/>
    <circle cx="7.59735" cy="1.80505" r="0.24408"/>
    <circle cx="8.57471" cy="1.80505" r="0.24408"/>
    <circle cx="9.55212" cy="1.80505" r="0.24408"/>
    <circle cx="10.52948" cy="1.80505" r="0.24408"/>
    <circle cx="11.5069" cy="1.80505" r="0.24408"/>
    <circle cx="12.48431" cy="1.80505" r="0.24408"/>
    <circle cx="13.46167" cy="1.80505" r="0.24408"/>
    <circle cx="14.43909" cy="1.80505" r="0.24408"/>
    <circle cx="15.41644" cy="1.80505" r="0.24408"/>
    <circle cx="16.39386" cy="1.80505" r="0.24408"/>
    <circle cx="16.39386" cy="2.77734" r="0.24408"/>
    <circle cx="16.39386" cy="3.74957" r="0.24408"/>
    <circle cx="16.39386" cy="4.72186" r="0.24408"/>
    <circle cx="16.39386" cy="5.69409" r="0.24408"/>
    <circle cx="16.39386" cy="6.66638" r="0.24408"/>
    <circle cx="16.39386" cy="7.63867" r="0.24408"/>
    <circle cx="16.39386" cy="8.6109" r="0.24408"/>
    <circle cx="16.39386" cy="9.58319" r="0.24408"/>
    <circle cx="16.39386" cy="10.55542" r="0.24408"/>
    <circle cx="16.39386" cy="11.52771" r="0.24408"/>
    <circle cx="16.39386" cy="12.5" r="0.24408"/>
    <circle cx="16.39386" cy="13.47223" r="0.24408"/>
    <circle cx="16.39386" cy="14.44452" r="0.24408"/>
    <circle cx="16.39386" cy="15.41675" r="0.24408"/>
    <circle cx="16.39386" cy="16.38904" r="0.24408"/>
    <circle cx="16.39386" cy="17.36133" r="0.24408"/>
    <circle cx="16.39386" cy="18.33356" r="0.24408"/>
    <circle cx="16.39386" cy="19.30585" r="0.24408"/>
    <circle cx="16.39386" cy="20.27808" r="0.24408"/>
    <circle cx="16.39386" cy="21.25037" r="0.24408"/>
    <circle cx="16.39386" cy="22.22266" r="0.24408"/>
    <circle cx="16.39386" cy="23.19489" r="0.24408"/>
  </g>
</svg>
