<svg id="Слой_1" data-name="Слой 1" xmlns="http://www.w3.org/2000/svg" viewBox="0 0 25 16.08575">
  <g>
    <path d="M.51614,20.54035H24.69792c.38236,0,.293-.91913.293-.91913q.00111-4.70852-.00218-9.41707a1.71975,1.71975,0,0,0-.06858-.53054c-.52071-1.57439-1.05934-3.14292-1.57426-4.71917a.64306.64306,0,0,0-.712-.496q-10.131.00906-20.26207-.0013a.68708.68708,0,0,0-.75452.55C1.13076,6.51158.61348,8.00606.12028,9.5085a2.34758,2.34758,0,0,0-.11514.71494q-.011,4.7085-.00466,9.41707C.00048,20.63664.51614,20.54035.51614,20.54035ZM1.12429,8.05852c.30127-.90207.61462-1.80029.89884-2.70772a.47.47,0,0,1,.53907-.39244c3.27909.0135,6.55824.008,9.83745.0079C15.74309,4.96614,19.08659,4.96968,22.43,4.96a.44753.44753,0,0,1,.52.36114c.41522,1.297.85913,2.58487,1.29141,3.87647.04331.12944.07773.26188.126.42611H.60445C.78586,9.07735.95427,8.56766,1.12429,8.05852ZM.51067,10.17808H24.48684v.97408c-.16722.0084-.30338.02091-.43961.02122l-22.99158.00193h-.545Zm.00547,9.78113V11.68H.727a.28189.28189,0,1,0,.475,0l23.25558.00062v7.36224a.28041.28041,0,0,0,0,.47646v.43993Z" transform="translate(0 -4.45713)"/>
    <path d="M22.58636,5.83635a.47042.47042,0,0,0-.5316-.374q-9.567.01-19.134-.00043a.47036.47036,0,0,0-.52649.38118c-.28391.89411-.5929,1.78025-.89069,2.67-.18832.56284-.13934.63242.44286.63248q5.285.00056,10.57006.00018v.00144q5.30427,0,10.60859-.00063c.45779-.00012.53048-.09864.38715-.53029C23.20446,7.68929,22.88265,6.76693,22.58636,5.83635ZM12.21419,8.60973H2.00116c.28043-.83966.5423-1.64372.82447-2.44056A.36327.36327,0,0,1,3.098,5.978q4.51041-.00962,9.02082.004c.02271,0,.04543.01854.0954.04032Zm.55394.01331V5.99486c.122-.00815.24427-.02346.36662-.02353,2.85235-.00118,5.70471.00424,8.55706-.00765a.46656.46656,0,0,1,.54579.38354c.223.74805.48554,1.48434.749,2.27582Z" transform="translate(0 -4.45713)"/>
    <path d="M.96454,12.29377a.28192.28192,0,1,0,.28185.28192A.28191.28191,0,0,0,.96454,12.29377Z" transform="translate(0 -4.45713)"/>
    <path d="M.96454,13.03883a.28192.28192,0,1,0,.28185.28192A.28191.28191,0,0,0,.96454,13.03883Z" transform="translate(0 -4.45713)"/>
    <path d="M.96454,13.78389a.28189.28189,0,1,0,.28185.28186A.28189.28189,0,0,0,.96454,13.78389Z" transform="translate(0 -4.45713)"/>
    <path d="M.96454,14.52889a.28192.28192,0,1,0,.28185.28192A.28191.28191,0,0,0,.96454,14.52889Z" transform="translate(0 -4.45713)"/>
    <path d="M.96454,15.274a.28192.28192,0,1,0,.28185.28192A.28191.28191,0,0,0,.96454,15.274Z" transform="translate(0 -4.45713)"/>
    <path d="M.96454,16.019a.28189.28189,0,1,0,.28185.28192A.28191.28191,0,0,0,.96454,16.019Z" transform="translate(0 -4.45713)"/>
    <path d="M.96454,16.764a.28192.28192,0,1,0,.28185.28192A.28191.28191,0,0,0,.96454,16.764Z" transform="translate(0 -4.45713)"/>
    <path d="M.96454,17.50907a.28192.28192,0,1,0,.28185.28192A.28191.28191,0,0,0,.96454,17.50907Z" transform="translate(0 -4.45713)"/>
    <path d="M.96454,18.25413a.28189.28189,0,1,0,.28185.28192A.28191.28191,0,0,0,.96454,18.25413Z" transform="translate(0 -4.45713)"/>
    <path d="M.96454,18.99913a.28192.28192,0,1,0,.28185.28192A.28195.28195,0,0,0,.96454,18.99913Z" transform="translate(0 -4.45713)"/>
    <path d="M1.72715,18.99913a.28192.28192,0,1,0,.28191.28192A.28193.28193,0,0,0,1.72715,18.99913Z" transform="translate(0 -4.45713)"/>
    <circle cx="2.48982" cy="14.82392" r="0.28192"/>
    <circle cx="3.25249" cy="14.82392" r="0.28192"/>
    <circle cx="4.01517" cy="14.82392" r="0.28192"/>
    <path d="M4.77784,18.99913a.28192.28192,0,1,0,.28185.28192A.28195.28195,0,0,0,4.77784,18.99913Z" transform="translate(0 -4.45713)"/>
    <circle cx="5.54045" cy="14.82392" r="0.28192"/>
    <circle cx="6.30312" cy="14.82392" r="0.28192"/>
    <circle cx="7.06579" cy="14.82392" r="0.28192"/>
    <path d="M7.82847,18.99913a.28192.28192,0,1,0,.28185.28192A.28195.28195,0,0,0,7.82847,18.99913Z" transform="translate(0 -4.45713)"/>
    <path d="M8.59108,18.99913a.28192.28192,0,1,0,.28192.28192A.28193.28193,0,0,0,8.59108,18.99913Z" transform="translate(0 -4.45713)"/>
    <circle cx="9.35375" cy="14.82392" r="0.28192"/>
    <circle cx="10.11642" cy="14.82392" r="0.28192"/>
    <circle cx="10.8791" cy="14.82392" r="0.28192"/>
    <circle cx="11.64177" cy="14.82392" r="0.28192"/>
    <path d="M12.40444,18.99913a.28192.28192,0,1,0,.28186.28192A.28195.28195,0,0,0,12.40444,18.99913Z" transform="translate(0 -4.45713)"/>
    <path d="M13.16705,18.99913a.28192.28192,0,1,0,.28192.28192A.28193.28193,0,0,0,13.16705,18.99913Z" transform="translate(0 -4.45713)"/>
    <circle cx="13.92972" cy="14.82392" r="0.28192"/>
    <circle cx="14.6924" cy="14.82392" r="0.28192"/>
    <circle cx="15.45507" cy="14.82392" r="0.28192"/>
    <path d="M16.21774,18.99913a.28192.28192,0,1,0,.28186.28192A.28195.28195,0,0,0,16.21774,18.99913Z" transform="translate(0 -4.45713)"/>
    <path d="M16.98035,18.99913a.28192.28192,0,1,0,.28192.28192A.28193.28193,0,0,0,16.98035,18.99913Z" transform="translate(0 -4.45713)"/>
    <circle cx="17.74303" cy="14.82392" r="0.28192"/>
    <circle cx="18.5057" cy="14.82392" r="0.28192"/>
    <circle cx="19.26837" cy="14.82392" r="0.28192"/>
    <path d="M20.031,18.99913a.28192.28192,0,1,0,.28186.28192A.28194.28194,0,0,0,20.031,18.99913Z" transform="translate(0 -4.45713)"/>
    <path d="M20.79365,18.99913a.28192.28192,0,1,0,.28192.28192A.28193.28193,0,0,0,20.79365,18.99913Z" transform="translate(0 -4.45713)"/>
    <circle cx="21.55633" cy="14.82392" r="0.28192"/>
    <circle cx="22.319" cy="14.82392" r="0.28192"/>
    <circle cx="23.08167" cy="14.82392" r="0.28192"/>
    <circle cx="23.84435" cy="14.82392" r="0.28192"/>
  </g>
</svg>
