<svg id="Слой_1" data-name="Слой 1" xmlns="http://www.w3.org/2000/svg" viewBox="0 0 22.82245 24.99976">
  <g>
    <path d="M23.9043,3.31305a1.57381,1.57381,0,0,0-1.57862-1.56549l-1.47943.04962V1.36041A1.362,1.362,0,0,0,19.486.00012H16.42834a1.362,1.362,0,0,0-1.36029,1.36029l.04963.38715-4.75592.04962V1.36041A1.36158,1.36158,0,0,0,9.002.00012H5.50714A1.362,1.362,0,0,0,4.14685,1.36041l.04956.38715h-1.529A1.57386,1.57386,0,0,0,1.08875,3.31305V21.69128a1.57172,1.57172,0,0,0,1.57867,1.56116l1.04266-.04962v.874a.92386.92386,0,0,0,.9231.9231H6.81732a.92422.92422,0,0,0,.92352-.9231l-.04956-.82434,9.56092-.04962v.874a.92426.92426,0,0,0,.92352.9231h2.18414a.92386.92386,0,0,0,.9231-.9231l-.04962-.82434h1.09234a1.57167,1.57167,0,0,0,1.57862-1.56116l-.00049-14.132A.3879.3879,0,0,0,23.9043,7.411ZM16.04071,1.36041a.38329.38329,0,0,1,.38763-.38708H19.486a.37889.37889,0,0,1,.38758.38708l.04962.38715-3.88245.04962Zm-10.9212,0A.38329.38329,0,0,1,5.50714.97333H9.002a.37853.37853,0,0,1,.38715.38708l.04956.38715-4.31915.04962ZM4.6828,24.07678v-.82532l2.0849-.04864.04962.82434Zm13.54254,0v-.82532l2.085-.04864.04956.82434Zm4.70581-2.3855a.591.591,0,0,1-.60547.58851H20.87543l-.07587-.00342-.0686.00342H2.66742a.591.591,0,0,1-.60553-.58851L2.12122,7.963l20.80993-.04962ZM2.12122,6.98981c-.02478,0-.04956.00195-.05933.01892V3.31305a.60008.60008,0,0,1,.60553-.59235H22.32568a.59271.59271,0,0,1,.60547.59235l.04962,3.67676Z" transform="translate(-1.08875 -0.00012)"/>
    <path d="M5.94385,3.9317a.487.487,0,0,0-.48633.48682V5.292a.48654.48654,0,0,0,.48633.48633A.481.481,0,0,0,6.43018,5.292V4.41852A.487.487,0,0,0,5.94385,3.9317Z" transform="translate(-1.08875 -0.00012)"/>
    <path d="M20.35986,3.05823a1.797,1.797,0,1,0,1.79706,1.797A1.79866,1.79866,0,0,0,20.35986,3.05823Zm0,2.62085a.81547.81547,0,0,1-.82434-.82386.82569.82569,0,0,1,.82434-.82434.8241.8241,0,0,1,0,1.6482Z" transform="translate(-1.08875 -0.00012)"/>
    <path d="M8.128,3.9317a.487.487,0,0,0-.48633.48682V5.292a.48654.48654,0,0,0,.48633.48633A.481.481,0,0,0,8.61432,5.292V4.41852A.48692.48692,0,0,0,8.128,3.9317Z" transform="translate(-1.08875 -0.00012)"/>
    <path d="M10.31213,3.9317a.487.487,0,0,0-.48632.48682V5.292a.48653.48653,0,0,0,.48632.48633A.48112.48112,0,0,0,10.799,5.292V4.41852A.48733.48733,0,0,0,10.31213,3.9317Z" transform="translate(-1.08875 -0.00012)"/>
    <path d="M3.7597,3.9317a.48737.48737,0,0,0-.48681.48682V5.292a.487.487,0,0,0,.48681.48633A.481.481,0,0,0,4.246,5.292V4.41852A.487.487,0,0,0,3.7597,3.9317Z" transform="translate(-1.08875 -0.00012)"/>
    <path d="M4.20129,9.96588a.35867.35867,0,1,0-.3587-.35864A.35871.35871,0,0,0,4.20129,9.96588Z" transform="translate(-1.08875 -0.00012)"/>
    <path d="M5.23865,9.96588a.35867.35867,0,1,0-.35871-.35864A.35865.35865,0,0,0,5.23865,9.96588Z" transform="translate(-1.08875 -0.00012)"/>
    <path d="M6.27594,9.96588a.35867.35867,0,1,0-.3587-.35864A.35867.35867,0,0,0,6.27594,9.96588Z" transform="translate(-1.08875 -0.00012)"/>
    <path d="M7.31329,9.96588a.35867.35867,0,1,0-.3587-.35864A.35868.35868,0,0,0,7.31329,9.96588Z" transform="translate(-1.08875 -0.00012)"/>
    <path d="M8.35065,9.96588a.35867.35867,0,1,0-.35871-.35864A.35867.35867,0,0,0,8.35065,9.96588Z" transform="translate(-1.08875 -0.00012)"/>
    <path d="M9.388,9.96588a.35867.35867,0,1,0-.3587-.35864A.35871.35871,0,0,0,9.388,9.96588Z" transform="translate(-1.08875 -0.00012)"/>
    <path d="M10.42529,9.96588a.35867.35867,0,1,0-.35864-.35864A.35868.35868,0,0,0,10.42529,9.96588Z" transform="translate(-1.08875 -0.00012)"/>
    <path d="M11.46265,9.96588a.35867.35867,0,1,0-.35871-.35864A.35867.35867,0,0,0,11.46265,9.96588Z" transform="translate(-1.08875 -0.00012)"/>
    <path d="M12.5,9.96588a.35867.35867,0,1,0-.3587-.35864A.35867.35867,0,0,0,12.5,9.96588Z" transform="translate(-1.08875 -0.00012)"/>
    <path d="M13.53735,9.96588a.35867.35867,0,1,0-.3587-.35864A.35871.35871,0,0,0,13.53735,9.96588Z" transform="translate(-1.08875 -0.00012)"/>
    <path d="M14.57471,9.96588a.35867.35867,0,1,0-.35871-.35864A.35865.35865,0,0,0,14.57471,9.96588Z" transform="translate(-1.08875 -0.00012)"/>
    <path d="M15.612,9.96588a.35867.35867,0,1,0-.3587-.35864A.35867.35867,0,0,0,15.612,9.96588Z" transform="translate(-1.08875 -0.00012)"/>
    <path d="M16.64935,9.96588a.35867.35867,0,1,0-.3587-.35864A.35868.35868,0,0,0,16.64935,9.96588Z" transform="translate(-1.08875 -0.00012)"/>
    <path d="M17.68671,9.96588a.35867.35867,0,1,0-.35871-.35864A.35867.35867,0,0,0,17.68671,9.96588Z" transform="translate(-1.08875 -0.00012)"/>
    <path d="M18.72406,9.96588a.35867.35867,0,1,0-.3587-.35864A.35871.35871,0,0,0,18.72406,9.96588Z" transform="translate(-1.08875 -0.00012)"/>
    <path d="M19.76135,9.96588a.35867.35867,0,1,0-.35864-.35864A.35868.35868,0,0,0,19.76135,9.96588Z" transform="translate(-1.08875 -0.00012)"/>
    <path d="M5.23865,20.57275a.3587.3587,0,1,0-.35871-.3587A.35867.35867,0,0,0,5.23865,20.57275Z" transform="translate(-1.08875 -0.00012)"/>
    <circle cx="5.18719" cy="20.21393" r="0.3587"/>
    <circle cx="6.22455" cy="20.21393" r="0.3587"/>
    <circle cx="7.2619" cy="20.21393" r="0.3587"/>
    <circle cx="8.29926" cy="20.21393" r="0.3587"/>
    <path d="M10.42529,20.57275a.3587.3587,0,1,0-.35864-.3587A.35869.35869,0,0,0,10.42529,20.57275Z" transform="translate(-1.08875 -0.00012)"/>
    <circle cx="10.3739" cy="20.21393" r="0.3587"/>
    <circle cx="11.41125" cy="20.21393" r="0.3587"/>
    <circle cx="12.44861" cy="20.21393" r="0.3587"/>
    <path d="M14.57471,20.57275a.3587.3587,0,1,0-.35871-.3587A.35867.35867,0,0,0,14.57471,20.57275Z" transform="translate(-1.08875 -0.00012)"/>
    <circle cx="14.52325" cy="20.21393" r="0.3587"/>
    <circle cx="15.56061" cy="20.21393" r="0.3587"/>
    <circle cx="16.59796" cy="20.21393" r="0.3587"/>
    <circle cx="17.63531" cy="20.21393" r="0.3587"/>
    <path d="M19.76135,20.57275a.3587.3587,0,1,0-.35864-.3587A.35869.35869,0,0,0,19.76135,20.57275Z" transform="translate(-1.08875 -0.00012)"/>
    <path d="M20.79871,9.96588A.35867.35867,0,1,0,20.44,9.60724.35867.35867,0,0,0,20.79871,9.96588Z" transform="translate(-1.08875 -0.00012)"/>
    <circle cx="3.11255" cy="10.57135" r="0.3587"/>
    <circle cx="19.70996" cy="10.57135" r="0.3587"/>
    <circle cx="3.11255" cy="11.53558" r="0.3587"/>
    <circle cx="19.70996" cy="11.53558" r="0.3587"/>
    <circle cx="3.11255" cy="12.49988" r="0.3587"/>
    <circle cx="19.70996" cy="12.49988" r="0.3587"/>
    <circle cx="3.11255" cy="13.46411" r="0.3587"/>
    <circle cx="19.70996" cy="13.46411" r="0.3587"/>
    <path d="M4.20129,14.78717a.35868.35868,0,1,0-.3587-.35864A.35871.35871,0,0,0,4.20129,14.78717Z" transform="translate(-1.08875 -0.00012)"/>
    <path d="M20.79871,14.78717a.35868.35868,0,1,0-.35871-.35864A.35867.35867,0,0,0,20.79871,14.78717Z" transform="translate(-1.08875 -0.00012)"/>
    <circle cx="3.11255" cy="15.39264" r="0.3587"/>
    <circle cx="19.70996" cy="15.39264" r="0.3587"/>
    <path d="M4.20129,16.7157a.35868.35868,0,1,0-.3587-.35871A.35874.35874,0,0,0,4.20129,16.7157Z" transform="translate(-1.08875 -0.00012)"/>
    <path d="M20.79871,16.7157A.35868.35868,0,1,0,20.44,16.357.35869.35869,0,0,0,20.79871,16.7157Z" transform="translate(-1.08875 -0.00012)"/>
    <circle cx="3.11255" cy="17.32117" r="0.3587"/>
    <circle cx="19.70996" cy="17.32117" r="0.3587"/>
    <circle cx="3.11255" cy="18.2854" r="0.3587"/>
    <circle cx="19.70996" cy="18.2854" r="0.3587"/>
    <path d="M4.20129,19.60846a.35868.35868,0,1,0-.3587-.35864A.35871.35871,0,0,0,4.20129,19.60846Z" transform="translate(-1.08875 -0.00012)"/>
    <path d="M20.79871,19.60846a.35868.35868,0,1,0-.35871-.35864A.35867.35867,0,0,0,20.79871,19.60846Z" transform="translate(-1.08875 -0.00012)"/>
    <circle cx="3.11255" cy="20.21393" r="0.3587"/>
    <circle cx="19.70996" cy="20.21393" r="0.3587"/>
  </g>
</svg>
