<svg id="Слой_1" data-name="Слой 1" xmlns="http://www.w3.org/2000/svg" viewBox="0 0 25 21.71023">
  <path d="M11.84194,1.64488a1.3208,1.3208,0,0,0-1.31577,1.31578,1.30048,1.30048,0,0,0,.26213.778A6.50847,6.50847,0,0,0,7.6627,5.5922H6.9078A.99188.99188,0,0,0,5.921,6.579a.93711.93711,0,0,0,.39191.72534,14.00642,14.00642,0,0,0-1.134,2.15676A6.54012,6.54012,0,0,0,2.63219,8.82a3.12852,3.12852,0,0,0-2.12978.53389A1.78553,1.78553,0,0,0,0,10.77176a10.11358,10.11358,0,0,0,5.04272,9.2194,5.6253,5.6253,0,0,0,1.53614,1.64472v.73241a.99188.99188,0,0,0,.98683.98683H16.1182a.99188.99188,0,0,0,.98683-.98683v-.73241A5.62537,5.62537,0,0,0,18.638,19.99694a8.99633,8.99633,0,0,0,4.86283-6.25569c.31989-1.15908.499-2.25358.69129-3.09348a6.28188,6.28188,0,0,1,.309-1.035.99316.99316,0,0,1,.336-.46772.329.329,0,0,0-.1664-.61291H22.69706a.329.329,0,0,0-.15419.03854,1.28283,1.28283,0,0,0-.53389.72278,7.18248,7.18248,0,0,1-.43238.91166,3.47249,3.47249,0,0,1-2.30067,1.57276A14.90925,14.90925,0,0,0,17.371,7.30437a.93714.93714,0,0,0,.39191-.72534.99188.99188,0,0,0-.98683-.98683h-.7549a6.507,6.507,0,0,0-3.1256-1.85352,1.30048,1.30048,0,0,0,.26213-.778A1.3208,1.3208,0,0,0,11.84194,1.64488Zm0,.65789a.65789.65789,0,1,1-.65788.65789A.653.653,0,0,1,11.84194,2.30277Zm0,1.97366a5.3698,5.3698,0,0,1,3.81754,1.87279l.097.10086h1.0196a.32769.32769,0,0,1,.08288.645l-.4523.11822.26405.38548a14.7833,14.7833,0,0,1,2.408,8.06167,8.10714,8.10714,0,0,1-.87954,4.0334.329.329,0,0,0-.09765.16512,4.93968,4.93968,0,0,1-1.50659,1.55862l-.14776.097v1.05365a.32373.32373,0,0,1-.32895.32894H7.56569a.32372.32372,0,0,1-.32895-.32894V21.31464l-.14776-.097A4.93968,4.93968,0,0,1,5.58239,19.659a.32908.32908,0,0,0-.09765-.16448,8.10732,8.10732,0,0,1-.87954-4.034,14.7833,14.7833,0,0,1,2.408-8.06167l.26405-.38548-.4523-.11822a.32769.32769,0,0,1,.08288-.645H7.9274l.097-.10086A5.37023,5.37023,0,0,1,11.84194,4.27643ZM7.89463,6.908a.32895.32895,0,1,0,.32894.32894A.32894.32894,0,0,0,7.89463,6.908Zm1.31577,0a.32895.32895,0,1,0,.32894.32894A.32894.32894,0,0,0,9.2104,6.908Zm1.31577,0a.32895.32895,0,1,0,.32895.32894A.32894.32894,0,0,0,10.52617,6.908Zm1.31577,0a.32895.32895,0,1,0,.329.32894A.32894.32894,0,0,0,11.84194,6.908Zm1.31578,0a.32895.32895,0,1,0,.32894.32894A.32895.32895,0,0,0,13.15772,6.908Zm1.31577,0a.32895.32895,0,1,0,.32894.32894A.32895.32895,0,0,0,14.47349,6.908Zm1.31577,0a.32895.32895,0,1,0,.32894.32894A.32894.32894,0,0,0,15.78926,6.908ZM22.82812,9.19h1.159c-.02845.05552-.06443.10234-.08994.16126a6.72977,6.72977,0,0,0-.34629,1.15c-.2.87341-.37592,1.94748-.68423,3.06456a8.52913,8.52913,0,0,1-3.72952,5.42628,9.51693,9.51693,0,0,0,.59942-3.53164,15.19433,15.19433,0,0,0-.31609-3.04144,4.25769,4.25769,0,0,0,2.7202-1.87536,7.52386,7.52386,0,0,0,.47222-.99A1.10448,1.10448,0,0,1,22.82812,9.19ZM2.63219,9.47784a6.21178,6.21178,0,0,1,2.30067.59942,15.58188,15.58188,0,0,0-.98555,5.38323,9.65373,9.65373,0,0,0,.55381,3.42177,9.57483,9.57483,0,0,1-3.84323-8.1105A1.12231,1.12231,0,0,1,.93864,9.846,2.65176,2.65176,0,0,1,2.63219,9.47784ZM7.89463,21.38146a.32894.32894,0,1,0,.32894.32894A.32894.32894,0,0,0,7.89463,21.38146Zm1.31577,0a.32894.32894,0,1,0,.32894.32894A.32894.32894,0,0,0,9.2104,21.38146Zm1.31577,0a.32894.32894,0,1,0,.32895.32894A.32894.32894,0,0,0,10.52617,21.38146Zm1.31577,0a.32894.32894,0,1,0,.329.32894A.32894.32894,0,0,0,11.84194,21.38146Zm1.31578,0a.32894.32894,0,1,0,.32894.32894A.32895.32895,0,0,0,13.15772,21.38146Zm1.31577,0a.32894.32894,0,1,0,.32894.32894A.32895.32895,0,0,0,14.47349,21.38146Zm1.31577,0a.32894.32894,0,1,0,.32894.32894A.32894.32894,0,0,0,15.78926,21.38146Z" transform="translate(0 -1.64488)"/>
</svg>
