<svg id="Слой_1" data-name="Слой 1" xmlns="http://www.w3.org/2000/svg" viewBox="0 0 25 24.96333">
  <g>
    <path d="M24.99641,8.53117a1.426,1.426,0,0,0-1.32565-1.50068c-.67052-.05507-1.34777-.03032-2.0221-.03743-.3721-.00394-.74433-.00071-1.14856-.00071V.01833H4.4899v6.974H4.20441c-.86242,0-1.72484-.002-2.58726.00052A1.51308,1.51308,0,0,0,.00064,8.60408Q-.001,13.73731.00025,18.87046a1.51595,1.51595,0,0,0,1.62782,1.6231q1.29363.00137,2.58726.0002H4.492v4.48791H20.50624V20.49376c.978,0,1.921.00071,2.864-.00026a1.51578,1.51578,0,0,0,1.62789-1.62278q.00069-1.75581.00162-3.51154Q24.99943,11.94511,24.99641,8.53117ZM5.52334,1.021H19.48023V6.9718H5.52334Zm13.95857,22.946H5.52709V14.997H19.48191Zm4.5159-5.143c-.00026.49465-.16172.65384-.65669.65553-.93442.00323-1.86891.001-2.83346.001V14.01749H4.50031v5.44043c-.0819.009-.14323.02153-.20464.02159-.87864.00129-1.75735.00317-2.63606,0-.49658-.00175-.65888-.16055-.65914-.65462q-.003-5.08474-.00013-10.16949c.00026-.49827.16016-.64977.66011-.64977q10.83731-.00011,21.67459,0c.49956,0,.66257.15363.6629.6488Q24.00066,13.73918,23.99781,18.82392Z" transform="translate(0 -0.01833)"/>
    <path d="M21.48869,9.5047a.99261.99261,0,1,0,.0329,1.98487.99261.99261,0,1,0-.0329-1.98487Z" transform="translate(0 -0.01833)"/>
    <path d="M7.60471,21.99115q3.15433-.00243,6.3086-.00272,1.68668.0003,3.37335.00666c.2429.00065.49762-.01881.61532-.25531a.65431.65431,0,0,0,.02592-.476.51974.51974,0,0,0-.54371-.28368q-2.43892.00426-4.87791.00149-2.45124,0-4.90235.00109c-.36363.00059-.59231.20179-.59121.5028A.53532.53532,0,0,0,7.60471,21.99115Z" transform="translate(0 -0.01833)"/>
    <path d="M7.65991,19.99445q3.55018.00088,7.10044.00033c.21148,0,.423.00355.63439-.00117a.55417.55417,0,0,0,.56374-.34288c.134-.35181-.13211-.66768-.55741-.66839q-1.95193-.00339-3.904-.00084h-.90281c-.99227,0-1.98461-.00252-2.97688.00116-.43926.00162-.69108.28879-.585.65288C7.09856,19.86234,7.32555,19.99433,7.65991,19.99445Z" transform="translate(0 -0.01833)"/>
    <path d="M7.3887,17.856a.36858.36858,0,1,0-.36855-.36862A.36859.36859,0,0,0,7.3887,17.856Z" transform="translate(0 -0.01833)"/>
    <path d="M8.42467,17.856a.36858.36858,0,1,0-.36855-.36862A.3686.3686,0,0,0,8.42467,17.856Z" transform="translate(0 -0.01833)"/>
    <path d="M9.46063,17.856A.36858.36858,0,1,0,9.092,17.4874.36859.36859,0,0,0,9.46063,17.856Z" transform="translate(0 -0.01833)"/>
    <path d="M10.49659,17.856a.36858.36858,0,1,0-.36861-.36862A.36864.36864,0,0,0,10.49659,17.856Z" transform="translate(0 -0.01833)"/>
    <path d="M11.53256,17.856a.36858.36858,0,1,0-.36861-.36862A.36858.36858,0,0,0,11.53256,17.856Z" transform="translate(0 -0.01833)"/>
    <path d="M12.56852,17.856a.36858.36858,0,1,0-.36861-.36862A.36858.36858,0,0,0,12.56852,17.856Z" transform="translate(0 -0.01833)"/>
    <path d="M13.60442,17.856a.36858.36858,0,1,0-.36854-.36862A.36859.36859,0,0,0,13.60442,17.856Z" transform="translate(0 -0.01833)"/>
    <path d="M14.64039,17.856a.36858.36858,0,1,0-.36855-.36862A.36859.36859,0,0,0,14.64039,17.856Z" transform="translate(0 -0.01833)"/>
    <path d="M15.67635,17.856a.36858.36858,0,1,0-.36861-.36862A.36859.36859,0,0,0,15.67635,17.856Z" transform="translate(0 -0.01833)"/>
    <path d="M16.71232,17.856a.36858.36858,0,1,0-.36861-.36862A.36858.36858,0,0,0,16.71232,17.856Z" transform="translate(0 -0.01833)"/>
    <path d="M17.74828,17.856a.36858.36858,0,1,0-.36861-.36862A.36858.36858,0,0,0,17.74828,17.856Z" transform="translate(0 -0.01833)"/>
  </g>
</svg>
