<svg id="Слой_1" data-name="Слой 1" xmlns="http://www.w3.org/2000/svg" viewBox="0 0 22.75598 25.00293">
  <g>
    <path d="M4.89374,3.17865H9.25861a1.59006,1.59006,0,0,0,0-3.18011H4.89374a1.59006,1.59006,0,0,0,0,3.18011Zm0-2.18219H9.25861a.59238.59238,0,0,1,0,1.18475H4.89374a.59238.59238,0,0,1,0-1.18475Z" transform="translate(-1.12201 0.00146)"/>
    <path d="M11.83221,7.68585l-.0672-.01727L10.11267,4.3634H4.0401L2.38782,7.66858l-.06726.01727A1.588,1.588,0,0,0,1.122,9.227V22.32062a2.68374,2.68374,0,0,0,2.68085,2.68084h6.547a2.68375,2.68375,0,0,0,2.68091-2.68084V9.227A1.58808,1.58808,0,0,0,11.83221,7.68585Zm.20118,14.63477a1.68544,1.68544,0,0,1-1.68348,1.68347h-6.547a1.68544,1.68544,0,0,1-1.68348-1.68347V9.227a.593.593,0,0,1,.59217-.59265h.25677a.49566.49566,0,0,0,.41663.23694A.50222.50222,0,0,0,3.4035,7.86713l1.253-2.50629H9.49585l1.25848,2.5166a.47281.47281,0,0,0-.06945-.014.50394.50394,0,1,0,0,1.00788.49787.49787,0,0,0,.43463-.26374l.01336.0268h.30793a.5934.5934,0,0,1,.59259.59265Z" transform="translate(-1.12201 0.00146)"/>
    <path d="M19.90015,16.083a.45362.45362,0,0,0,.2135.04944.51723.51723,0,0,0,.44482-.26246l.92481-1.84906a.4801.4801,0,0,0,.03412-.38061.46674.46674,0,0,0-.24964-.27625.492.492,0,0,0-.23083-.05835.46565.46565,0,0,0-.42505.27234l-.92523,1.84906a.48228.48228,0,0,0-.03412.38007A.467.467,0,0,0,19.90015,16.083Z" transform="translate(-1.12201 0.00146)"/>
    <path d="M18.05255,16.083a.45406.45406,0,0,0,.21356.04944.52259.52259,0,0,0,.44434-.26246l.55554-1.1101a.477.477,0,0,0,.03412-.37915.4619.4619,0,0,0-.24963-.27777.49253.49253,0,0,0-.23078-.05829.4676.4676,0,0,0-.4256.27234l-.55505,1.1101a.48.48,0,0,0-.03412.38056A.46771.46771,0,0,0,18.05255,16.083Z" transform="translate(-1.12201 0.00146)"/>
    <path d="M23.3847,17.34381H14.99554a.48266.48266,0,0,0-.49377.49378v3.32592a3.842,3.842,0,0,0,3.83795,3.838H20.04a3.84208,3.84208,0,0,0,3.83795-3.838V17.83759A.48255.48255,0,0,0,23.3847,17.34381Zm-.512,3.8197a2.85449,2.85449,0,0,1-2.85095,2.851H18.32147a2.85449,2.85449,0,0,1-2.851-2.851V18.33087h7.40216Z" transform="translate(-1.12201 0.00146)"/>
    <path d="M4.84491,7.8634a.50394.50394,0,1,0,.504.504A.50394.50394,0,0,0,4.84491,7.8634Z" transform="translate(-1.12201 0.00146)"/>
    <path d="M6.30493,7.8634a.50394.50394,0,1,0,.50391.504A.504.504,0,0,0,6.30493,7.8634Z" transform="translate(-1.12201 0.00146)"/>
    <path d="M7.76489,7.8634a.50394.50394,0,1,0,.504.504A.504.504,0,0,0,7.76489,7.8634Z" transform="translate(-1.12201 0.00146)"/>
    <path d="M9.22485,7.8634a.50394.50394,0,1,0,.504.504A.504.504,0,0,0,9.22485,7.8634Z" transform="translate(-1.12201 0.00146)"/>
  </g>
</svg>
