<svg id="Слой_1" data-name="Слой 1" xmlns="http://www.w3.org/2000/svg" viewBox="0 0 24.99983 24.45382">
  <path d="M19.05807,24.72691a.47427.47427,0,0,1-.44535-.32751L18.18553,23.135l-13.4908-.04763-.49347,1.31152a.47485.47485,0,0,1-.44634.328h-1.639a.47335.47335,0,0,1-.44535-.327L1.24335,23.135l-.767-.04763a.47674.47674,0,0,1-.4763-.47629V14.96a4.84831,4.84831,0,0,1,4.30969-4.81495L4.37213,8.0597a1.80826,1.80826,0,0,1-.5465-1.29777,1.39506,1.39506,0,0,1,.35746-.92655A2.58709,2.58709,0,0,1,5.2815,5.1887,16.30805,16.30805,0,0,1,10.314,4.64612c.628,0,1.19072.00835,1.70433.03388.20623-.01718.40362-.02995.61967-.03388h.955a16.11549,16.11549,0,0,1,5.032.55977,2.60968,2.60968,0,0,1,1.08172.64716,1.3843,1.3843,0,0,1,.37416.90888,1.64829,1.64829,0,0,1-.52539,1.24769l-.02112,2.32154A4.99642,4.99642,0,0,1,22.81389,14.96l.61672.07022a1.57126,1.57126,0,0,1,1.56931,1.5693V17.146a.47675.47675,0,0,1-.4763.47629H22.88411l-.07022,4.98877a.47674.47674,0,0,1-.47629.47629h-.70019l-.494,1.31152a.47485.47485,0,0,1-.44634.328Zm.326-.99972.92066.04714.25484-.59365.03192-.09329H19.16462Zm-16.94218,0,.92066.04714.25484-.59365.03192-.09329H2.222ZM4.84842,11.06376A3.90016,3.90016,0,0,0,.95267,14.96v7.10458l20.83842.07022.07022-7.1748a3.90027,3.90027,0,0,0-3.89625-3.89625Zm17.96547,5.53577,1.16323.07022a.5526.5526,0,0,0-.54651-.68694h-.61672ZM16.42767,5.85305a1.38627,1.38627,0,0,1,.37416.90888,1.64829,1.64829,0,0,1-.52539,1.24769l-.02111.39183c.33291.07022.5465.28381.5465.54651a.47674.47674,0,0,1-.47629.47629l-.07021.61672,1.70973.07021a4.51161,4.51161,0,0,1,.53816.03388l.07856.00933V7.56475l.20721-.09428a.89286.89286,0,0,0,.3393-.70854.32739.32739,0,0,0-.1203-.25287,1.74266,1.74266,0,0,0-.712-.41148,8.37051,8.37051,0,0,0-1.80892-.36188l-.18757-.02112Zm-4.5223-.22047c-.47874-.02307-1.0007-.03388-1.59139-.03388a15.44962,15.44962,0,0,0-4.72019.48219,1.67061,1.67061,0,0,0-.69479.39429.36565.36565,0,0,0-.12079.28675,1.14472,1.14472,0,0,0,.36434.71787l.20721.17284L5.32471,10.041l9.90782.07021.07022-2.54643L15.51,7.47047a.89289.89289,0,0,0,.33929-.70854.32784.32784,0,0,0-.12079-.25287,1.74324,1.74324,0,0,0-.71149-.41148,10.801,10.801,0,0,0-2.95742-.465M20.85226,20.8994a.47727.47727,0,1,1,.47728-.47727A.47779.47779,0,0,1,20.85226,20.8994Zm-1.586,0a.47727.47727,0,1,1,.47727-.47727A.47779.47779,0,0,1,19.26627,20.8994Zm-1.586,0a.47727.47727,0,1,1,.47727-.47727A.47778.47778,0,0,1,17.68027,20.8994Zm-1.58649,0a.47727.47727,0,1,1,.47727-.47727A.47778.47778,0,0,1,16.09378,20.8994Zm-1.586,0a.47727.47727,0,1,1,.47728-.47727A.47779.47779,0,0,1,14.50778,20.8994Zm-1.586,0a.47727.47727,0,1,1,.47727-.47727A.47779.47779,0,0,1,12.92179,20.8994Zm-1.586,0a.47727.47727,0,1,1,.47727-.47727A.47778.47778,0,0,1,11.33579,20.8994Zm-1.58649,0a.47727.47727,0,1,1,.47727-.47727A.47778.47778,0,0,1,9.7493,20.8994Zm-1.586,0a.47727.47727,0,1,1,.47728-.47727A.47779.47779,0,0,1,8.1633,20.8994Zm-1.586,0a.47727.47727,0,1,1,.47727-.47727A.47778.47778,0,0,1,6.57731,20.8994Zm-1.586,0a.47727.47727,0,1,1,.47727-.47727A.47778.47778,0,0,1,4.99131,20.8994Zm-1.58649,0a.47727.47727,0,1,1,.47727-.47727A.47779.47779,0,0,1,3.40482,20.8994Zm-1.586,0a.47727.47727,0,1,1,.47727-.47727A.47779.47779,0,0,1,1.81883,20.8994ZM12.2265,9.42425a.203.203,0,1,1,.20328-.2028A.20285.20285,0,0,1,12.2265,9.42425Zm-2.186,0a.74955.74955,0,1,1,.74979-.7493A.75043.75043,0,0,1,10.04048,9.42425ZM7.581,8.33123a.47629.47629,0,1,1,.47629-.47629A.47674.47674,0,0,1,7.581,8.33123Zm5.46556-.5465a.47629.47629,0,1,1,.47629-.47629A.47674.47674,0,0,1,13.04651,7.78473ZM14.686,3.96851a.48562.48562,0,0,1-.34322-.82884c.15909-.15909.17824-.20917.15958-.29952a1.52744,1.52744,0,0,0-.21752-.4704,2.07577,2.07577,0,0,1-.36581-.82737A1.40272,1.40272,0,0,1,14.3428.40665a.47781.47781,0,0,1,.28234-.13307l.02357-.00049a.49429.49429,0,0,1,.48414.25975.47651.47651,0,0,1-.10164.55829c-.161.16106-.1802.21114-.16154.30149a1.52744,1.52744,0,0,0,.21752.4704,2.07571,2.07571,0,0,1,.36581.82737,1.40272,1.40272,0,0,1-.42375,1.13573A.48382.48382,0,0,1,14.686,3.96851Zm-2.73253,0a.485.485,0,0,1-.34322-.82884c.15909-.15909.17775-.20966.15958-.29952a1.533,1.533,0,0,0-.21752-.4704,2.07136,2.07136,0,0,1-.3663-.82737A1.40212,1.40212,0,0,1,11.61027.40665a.47781.47781,0,0,1,.28234-.13307l.02357-.00049a.49429.49429,0,0,1,.48414.25975.47712.47712,0,0,1-.10164.55829c-.16154.16106-.1802.21114-.16154.30149a1.52744,1.52744,0,0,0,.21752.4704,2.07571,2.07571,0,0,1,.36581.82737,1.40272,1.40272,0,0,1-.42375,1.13573A.48382.48382,0,0,1,11.95349,3.96851Zm-2.73253,0a.485.485,0,0,1-.34322-.82884c.15909-.15909.17775-.20966.15958-.29952a1.52693,1.52693,0,0,0-.218-.4704,2.07577,2.07577,0,0,1-.36581-.82737A1.40268,1.40268,0,0,1,8.87774.40665.4765.4765,0,0,1,9.15959.27358L9.18315.27309a.49506.49506,0,0,1,.48464.25975.47664.47664,0,0,1-.10213.55829c-.16056.16057-.17922.21065-.16155.301a1.52336,1.52336,0,0,0,.218.47089,2.07571,2.07571,0,0,1,.36581.82737,1.40272,1.40272,0,0,1-.42375,1.13573A.48382.48382,0,0,1,9.221,3.96851Z" transform="translate(-0.00008 -0.27309)"/>
</svg>
