<svg id="Слой_1" data-name="Слой 1" xmlns="http://www.w3.org/2000/svg" viewBox="0 0 21.78359 25">
  <g>
    <path d="M23.37459,12.50863c0-3.17675-.04194-6.35423.01592-9.53A2.83523,2.83523,0,0,0,20.42943.00015C15.12933.05048,9.82851.019,4.52793.01863a2.70035,2.70035,0,0,0-2.91866,2.9127q-.002,9.50837-.00012,19.017A2.73635,2.73635,0,0,0,4.63357,24.982c5.24284.00061,10.48592-.03051,15.72827.01788a2.85709,2.85709,0,0,0,3.02928-3.00753C23.331,18.83222,23.37447,15.67006,23.37459,12.50863ZM22.1725,22.48784c.04863,0,.07927-.04073.12461-.05155-.00595.09872-.00012.19889-.00887.29737a1.51816,1.51816,0,0,1-1.44888,1.22c-.15828.01143-.31766.00961-.47655.00961q-7.86754.00054-15.73495.00012c-1.20294-.00012-1.79219-.49516-1.93722-1.52352.04255.00936.07075.048.1161.048a.60889.60889,0,0,0,0-1.21777c-.07,0-.11659.0524-.1792.07416v-1.55H22.31036c0,.51667.015,1.03031.01945,1.541-.05592-.0169-.09591-.06516-.15731-.06516a.60889.60889,0,0,0,0,1.21777Zm.18211-3.75846H2.62754v-.4582q0-7.68828.00049-15.37669A1.67361,1.67361,0,0,1,4.46435,1.02876q8.03658-.00529,16.073.00133a1.673,1.673,0,0,1,1.83717,1.827q.008,7.7532.00158,15.50664C22.37613,18.47627,22.36325,18.589,22.35461,18.72938Z" transform="translate(-1.6082 0)"/>
    <path d="M18.3783,9.11354a.46708.46708,0,0,1-.32836-.5112c.01325-1.342.008-2.68427.00413-4.02641-.00122-.44251-.1781-.66973-.51193-.65332-.4182.02055-.509.30745-.50768.66183.00243.67824.00073,1.3566.00061,2.03484,0,.67836.01446,1.35721-.01167,2.03448a.55729.55729,0,0,1-.25141.40471,2.0583,2.0583,0,0,0,.009,3.78217.51642.51642,0,0,1,.24253.369c.02638.57612.00972,1.15407.01289,1.73128.00182.33007.1381.57953.49418.58658.38063.00742.52336-.24752.52433-.59861.00134-.53394.01532-1.06848-.00535-1.60169a.48823.48823,0,0,1,.3387-.549A1.88372,1.88372,0,0,0,19.563,10.9642,1.89154,1.89154,0,0,0,18.3783,9.11354Zm-.81878,2.84255a1.01491,1.01491,0,0,1-1.03529-.9925.96772.96772,0,0,1,.96515-.99468.98079.98079,0,0,1,1.0793.96782A1.01609,1.01609,0,0,1,17.55952,11.95609Z" transform="translate(-1.6082 0)"/>
    <path d="M8.28068,9.11354a.4672.4672,0,0,1-.32836-.5112c.01337-1.342.008-2.68427.00413-4.02641-.00122-.44251-.1781-.66973-.51181-.65332-.4182.02055-.509.30745-.5078.66183.00243.67824.00073,1.3566.00073,2.03484,0,.67836.01434,1.35721-.01179,2.03448a.55715.55715,0,0,1-.25129.40471,2.05826,2.05826,0,0,0,.00888,3.78217.51645.51645,0,0,1,.24253.369c.02638.57612.00972,1.15407.01288,1.73128.00183.33007.13811.57953.49419.58658.38063.00742.52348-.24752.52433-.59861.00134-.53394.01532-1.06848-.00535-1.60169a.48822.48822,0,0,1,.3387-.549A1.88355,1.88355,0,0,0,9.46538,10.9642,1.89154,1.89154,0,0,0,8.28068,9.11354ZM7.4619,11.95609a1.01472,1.01472,0,0,1-1.03517-.9925.96762.96762,0,0,1,.965-.99468.98079.98079,0,0,1,1.0793.96782A1.016,1.016,0,0,1,7.4619,11.95609Z" transform="translate(-1.6082 0)"/>
    <path d="M13.30724,4.89833a.61231.61231,0,0,1-.284-.3889c-.05446-.33906-.16035-.60262-.54925-.585-.35936.01616-.46063.26453-.4909.5935a.52514.52514,0,0,1-.25129.363,1.99033,1.99033,0,0,0-1.25509,1.90744,1.997,1.997,0,0,0,1.24743,1.87035.55434.55434,0,0,1,.25931.39912c.02808.61916.01216,1.24014.01264,1.86051q.00056.95226.00073,1.9044c.00049.31827.1392.53649.474.55424.36373.01945.51047-.21105.5377-.54063.00827-.10041.0028-.20193.0028-.303.00012-1.13972.00413-2.27944-.00328-3.41916a.43906.43906,0,0,1,.29043-.49333,1.89768,1.89768,0,0,0,1.21606-1.82927A2.00328,2.00328,0,0,0,13.30724,4.89833Zm-.81671,2.89009a1.01842,1.01842,0,1,1,1.02168-1.01037A1.02725,1.02725,0,0,1,12.49053,7.78842Z" transform="translate(-1.6082 0)"/>
    <path d="M12.49539,14.2235c-.32824-.01021-.50014.22551-.49807.65781.00207.4165.19524.6611.51363.65065.314-.01034.484-.25676.47692-.68821C12.9824,14.51,12.89512,14.2359,12.49539,14.2235Z" transform="translate(-1.6082 0)"/>
    <path d="M4.42046,21.27007a.60889.60889,0,1,0,.60894.60883A.60881.60881,0,0,0,4.42046,21.27007Z" transform="translate(-1.6082 0)"/>
    <path d="M6.0343,21.27007a.60889.60889,0,1,0,.609.60883A.6088.6088,0,0,0,6.0343,21.27007Z" transform="translate(-1.6082 0)"/>
    <path d="M7.64815,21.27007a.60889.60889,0,1,0,.60894.60883A.6089.6089,0,0,0,7.64815,21.27007Z" transform="translate(-1.6082 0)"/>
    <path d="M9.262,21.27007a.60889.60889,0,1,0,.60895.60883A.6089.6089,0,0,0,9.262,21.27007Z" transform="translate(-1.6082 0)"/>
    <path d="M10.87584,21.27007a.60889.60889,0,1,0,.60882.60883A.60883.60883,0,0,0,10.87584,21.27007Z" transform="translate(-1.6082 0)"/>
    <path d="M12.48956,21.27007a.60889.60889,0,1,0,.60894.60883A.60881.60881,0,0,0,12.48956,21.27007Z" transform="translate(-1.6082 0)"/>
    <path d="M14.1034,21.27007a.60889.60889,0,1,0,.609.60883A.6088.6088,0,0,0,14.1034,21.27007Z" transform="translate(-1.6082 0)"/>
    <path d="M15.71725,21.27007a.60889.60889,0,1,0,.60894.60883A.6089.6089,0,0,0,15.71725,21.27007Z" transform="translate(-1.6082 0)"/>
    <path d="M17.33109,21.27007a.60889.60889,0,1,0,.609.60883A.6089.6089,0,0,0,17.33109,21.27007Z" transform="translate(-1.6082 0)"/>
    <path d="M18.94494,21.27007a.60889.60889,0,1,0,.60882.60883A.6089.6089,0,0,0,18.94494,21.27007Z" transform="translate(-1.6082 0)"/>
    <path d="M20.55878,21.27007a.60889.60889,0,1,0,.60882.60883A.60883.60883,0,0,0,20.55878,21.27007Z" transform="translate(-1.6082 0)"/>
  </g>
</svg>
