<svg id="Слой_1" data-name="Слой 1" xmlns="http://www.w3.org/2000/svg" viewBox="0 0 25 18.03725">
  <g>
    <path d="M24.09424,13.96777q-5.44758.00018-10.8952.00006h-.17371V12.82037h8.09711v-9.339H3.87756v9.339h8.08673v1.14575H0v7.54626c.04083.00208.08154.006.12225.006q12.40064.00046,24.80133.00019c.02546,0,.05091-.00122.07642-.00183V13.96587C24.69806,13.96655,24.39618,13.96777,24.09424,13.96777ZM4.705,12.05608V4.24572H20.295v7.81036Zm3.3247,2.96381h8.9394v2.22827H8.02966Zm-1.079,5.45093H1.04694V15.02111H6.95062Zm10.02-.00275H8.01514a.31722.31722,0,0,1-.00995-.05847c.00775-.65424.01782-1.30841.02289-1.96265.00085-.10705.03222-.14752.14624-.14758q3.48129-.001,6.96246-.00806c.55688-.00061,1.11371.00519,1.67053.008.04578.00018.09162,0,.16327,0Zm6.98163-.00085H18.0415V15.02h5.91071Z" transform="translate(0 -3.48138)"/>
    <path d="M5.988,18.264a.55485.55485,0,0,0,.51458-.49133.5166.5166,0,0,0-.53552-.47144.43392.43392,0,0,0-.44214.45654A.48216.48216,0,0,0,5.988,18.264Z" transform="translate(0 -3.48138)"/>
    <path d="M19.01953,18.26452a.45261.45261,0,0,0,.44373-.48859.46261.46261,0,0,0-.44977-.487.48918.48918,0,1,0,.006.97559Z" transform="translate(0 -3.48138)"/>
    <path d="M8.9212,4.751a.17893.17893,0,1,0,.179.17889A.17893.17893,0,0,0,8.9212,4.751Z" transform="translate(0 -3.48138)"/>
    <path d="M8.9212,11.19286a.179.179,0,1,0,.179.179A.179.179,0,0,0,8.9212,11.19286Z" transform="translate(0 -3.48138)"/>
    <path d="M7.48969,11.19286a.179.179,0,1,0,.17895.179A.179.179,0,0,0,7.48969,11.19286Z" transform="translate(0 -3.48138)"/>
    <path d="M8.20544,11.19286a.179.179,0,1,0,.179.179A.179.179,0,0,0,8.20544,11.19286Z" transform="translate(0 -3.48138)"/>
    <path d="M9.637,11.19286a.179.179,0,1,0,.1789.179A.179.179,0,0,0,9.637,11.19286Z" transform="translate(0 -3.48138)"/>
    <path d="M7.48969,4.751a.17893.17893,0,1,0,.17895.17889A.17893.17893,0,0,0,7.48969,4.751Z" transform="translate(0 -3.48138)"/>
    <path d="M8.20544,4.751a.17893.17893,0,1,0,.179.17889A.17893.17893,0,0,0,8.20544,4.751Z" transform="translate(0 -3.48138)"/>
    <path d="M11.06854,4.751a.17893.17893,0,1,0,.179.17889A.17889.17889,0,0,0,11.06854,4.751Z" transform="translate(0 -3.48138)"/>
    <path d="M11.7843,11.19286a.179.179,0,1,0,.179.179A.1789.1789,0,0,0,11.7843,11.19286Z" transform="translate(0 -3.48138)"/>
    <path d="M11.7843,4.751a.17893.17893,0,1,0,.179.17889A.17883.17883,0,0,0,11.7843,4.751Z" transform="translate(0 -3.48138)"/>
    <path d="M10.35278,11.19286a.179.179,0,1,0,.179.179A.179.179,0,0,0,10.35278,11.19286Z" transform="translate(0 -3.48138)"/>
    <path d="M11.06854,11.19286a.179.179,0,1,0,.179.179A.179.179,0,0,0,11.06854,11.19286Z" transform="translate(0 -3.48138)"/>
    <path d="M9.637,4.751a.17893.17893,0,1,0,.1789.17889A.17889.17889,0,0,0,9.637,4.751Z" transform="translate(0 -3.48138)"/>
    <path d="M10.35278,4.751a.17893.17893,0,1,0,.179.17889A.17889.17889,0,0,0,10.35278,4.751Z" transform="translate(0 -3.48138)"/>
    <path d="M5.34912,6.89831a.17893.17893,0,1,0,.179.17889A.17893.17893,0,0,0,5.34912,6.89831Z" transform="translate(0 -3.48138)"/>
    <circle cx="5.34912" cy="5.0274" r="0.17896"/>
    <circle cx="5.34912" cy="5.74316" r="0.17896"/>
    <path d="M5.34912,7.61407a.17893.17893,0,1,0,.179.17889A.17893.17893,0,0,0,5.34912,7.61407Z" transform="translate(0 -3.48138)"/>
    <path d="M12.50006,11.19286a.179.179,0,1,0,.179.179A.17894.17894,0,0,0,12.50006,11.19286Z" transform="translate(0 -3.48138)"/>
    <path d="M5.34912,11.19286a.179.179,0,1,0,.179.179A.179.179,0,0,0,5.34912,11.19286Z" transform="translate(0 -3.48138)"/>
    <circle cx="5.34912" cy="6.45892" r="0.17896"/>
    <circle cx="5.34912" cy="7.17468" r="0.17896"/>
    <path d="M5.34912,4.751a.17893.17893,0,1,0,.179.17889A.17893.17893,0,0,0,5.34912,4.751Z" transform="translate(0 -3.48138)"/>
    <path d="M6.06488,11.19286a.179.179,0,1,0,.179.179A.179.179,0,0,0,6.06488,11.19286Z" transform="translate(0 -3.48138)"/>
    <path d="M5.34912,6.18255a.17893.17893,0,1,0,.179.17889A.17893.17893,0,0,0,5.34912,6.18255Z" transform="translate(0 -3.48138)"/>
    <path d="M6.75616,11.19286a.179.179,0,1,0,.1789.179A.179.179,0,0,0,6.75616,11.19286Z" transform="translate(0 -3.48138)"/>
    <path d="M6.06488,4.751a.17893.17893,0,1,0,.179.17889A.17892.17892,0,0,0,6.06488,4.751Z" transform="translate(0 -3.48138)"/>
    <path d="M5.34912,5.46679a.17893.17893,0,1,0,.179.17889A.17893.17893,0,0,0,5.34912,5.46679Z" transform="translate(0 -3.48138)"/>
    <path d="M6.75616,4.751a.17893.17893,0,1,0,.1789.17889A.17894.17894,0,0,0,6.75616,4.751Z" transform="translate(0 -3.48138)"/>
    <path d="M19.75079,11.19286a.179.179,0,1,0,.1789.179A.179.179,0,0,0,19.75079,11.19286Z" transform="translate(0 -3.48138)"/>
    <path d="M19.05951,4.751a.17893.17893,0,1,0,.179.17889A.17893.17893,0,0,0,19.05951,4.751Z" transform="translate(0 -3.48138)"/>
    <path d="M19.75079,10.4771a.179.179,0,1,0,.1789.179A.179.179,0,0,0,19.75079,10.4771Z" transform="translate(0 -3.48138)"/>
    <path d="M19.75079,9.76134a.179.179,0,1,0,.1789.179A.179.179,0,0,0,19.75079,9.76134Z" transform="translate(0 -3.48138)"/>
    <path d="M12.50006,4.751a.17893.17893,0,1,0,.179.17889A.17887.17887,0,0,0,12.50006,4.751Z" transform="translate(0 -3.48138)"/>
    <path d="M18.34375,11.19286a.179.179,0,1,0,.17889.179A.179.179,0,0,0,18.34375,11.19286Z" transform="translate(0 -3.48138)"/>
    <path d="M18.34375,4.751a.17893.17893,0,1,0,.17889.17889A.17893.17893,0,0,0,18.34375,4.751Z" transform="translate(0 -3.48138)"/>
    <path d="M19.05951,11.19286a.179.179,0,1,0,.179.179A.179.179,0,0,0,19.05951,11.19286Z" transform="translate(0 -3.48138)"/>
    <path d="M17.51044,4.751a.17893.17893,0,1,0,.179.17889A.17893.17893,0,0,0,17.51044,4.751Z" transform="translate(0 -3.48138)"/>
    <path d="M19.75079,5.46679a.17893.17893,0,1,0,.1789.17889A.17894.17894,0,0,0,19.75079,5.46679Z" transform="translate(0 -3.48138)"/>
    <path d="M19.75079,4.751a.17893.17893,0,1,0,.1789.17889A.17894.17894,0,0,0,19.75079,4.751Z" transform="translate(0 -3.48138)"/>
    <path d="M19.75079,8.32983a.179.179,0,1,0,.1789.179A.179.179,0,0,0,19.75079,8.32983Z" transform="translate(0 -3.48138)"/>
    <path d="M19.75079,6.18255a.17893.17893,0,1,0,.1789.17889A.17894.17894,0,0,0,19.75079,6.18255Z" transform="translate(0 -3.48138)"/>
    <path d="M19.75079,7.61407a.17893.17893,0,1,0,.1789.17889A.17894.17894,0,0,0,19.75079,7.61407Z" transform="translate(0 -3.48138)"/>
    <path d="M19.75079,6.89831a.17893.17893,0,1,0,.1789.17889A.17894.17894,0,0,0,19.75079,6.89831Z" transform="translate(0 -3.48138)"/>
    <path d="M19.75079,9.04559a.179.179,0,1,0,.1789.17895A.179.179,0,0,0,19.75079,9.04559Z" transform="translate(0 -3.48138)"/>
    <path d="M14.64734,4.751a.17893.17893,0,1,0,.179.17889A.17892.17892,0,0,0,14.64734,4.751Z" transform="translate(0 -3.48138)"/>
    <path d="M13.93158,11.19286a.179.179,0,1,0,.179.179A.17893.17893,0,0,0,13.93158,11.19286Z" transform="translate(0 -3.48138)"/>
    <path d="M14.64734,11.19286a.179.179,0,1,0,.179.179A.179.179,0,0,0,14.64734,11.19286Z" transform="translate(0 -3.48138)"/>
    <path d="M13.93158,4.751a.17893.17893,0,1,0,.179.17889A.17887.17887,0,0,0,13.93158,4.751Z" transform="translate(0 -3.48138)"/>
    <path d="M13.21582,11.19286a.179.179,0,1,0,.179.179A.17893.17893,0,0,0,13.21582,11.19286Z" transform="translate(0 -3.48138)"/>
    <path d="M13.21582,4.751a.17893.17893,0,1,0,.179.17889A.17887.17887,0,0,0,13.21582,4.751Z" transform="translate(0 -3.48138)"/>
    <path d="M17.51044,11.19286a.179.179,0,1,0,.179.179A.179.179,0,0,0,17.51044,11.19286Z" transform="translate(0 -3.48138)"/>
    <path d="M16.79468,11.19286a.179.179,0,1,0,.179.179A.179.179,0,0,0,16.79468,11.19286Z" transform="translate(0 -3.48138)"/>
    <path d="M16.79468,4.751a.17893.17893,0,1,0,.179.17889A.17893.17893,0,0,0,16.79468,4.751Z" transform="translate(0 -3.48138)"/>
    <path d="M16.07892,4.751a.17893.17893,0,1,0,.179.17889A.17893.17893,0,0,0,16.07892,4.751Z" transform="translate(0 -3.48138)"/>
    <path d="M16.07892,11.19286a.179.179,0,1,0,.179.179A.179.179,0,0,0,16.07892,11.19286Z" transform="translate(0 -3.48138)"/>
    <path d="M15.36316,11.19286a.179.179,0,1,0,.17889.179A.179.179,0,0,0,15.36316,11.19286Z" transform="translate(0 -3.48138)"/>
    <path d="M15.36316,4.751a.17893.17893,0,1,0,.17889.17889A.17893.17893,0,0,0,15.36316,4.751Z" transform="translate(0 -3.48138)"/>
  </g>
</svg>
