<svg id="Слой_1" data-name="Слой 1" xmlns="http://www.w3.org/2000/svg" viewBox="0 0 25.00024 16.52246">
  <g>
    <path d="M25.00012,17.77777V4.23877H-.00012v13.539h10.8128V19.769H7.13489a1.034,1.034,0,0,0-1.08606.99219H18.95361a1.03042,1.03042,0,0,0-1.08606-.99219H14.18976V17.77777ZM1.1994,5.34686H23.8006V16.66974H1.1994Z" transform="translate(0.00012 -4.23877)"/>
    <path d="M7.31177,6.07941a.2594.2594,0,1,0,.25946.2594A.25942.25942,0,0,0,7.31177,6.07941Z" transform="translate(0.00012 -4.23877)"/>
    <path d="M7.31177,15.41833a.25943.25943,0,1,0,.25946.25947A.25943.25943,0,0,0,7.31177,15.41833Z" transform="translate(0.00012 -4.23877)"/>
    <path d="M5.23645,15.41833a.25943.25943,0,1,0,.25946.25947A.25943.25943,0,0,0,5.23645,15.41833Z" transform="translate(0.00012 -4.23877)"/>
    <path d="M6.27411,15.41833a.25943.25943,0,1,0,.25946.25947A.25943.25943,0,0,0,6.27411,15.41833Z" transform="translate(0.00012 -4.23877)"/>
    <path d="M8.34949,15.41833a.25943.25943,0,1,0,.2594.25947A.25944.25944,0,0,0,8.34949,15.41833Z" transform="translate(0.00012 -4.23877)"/>
    <path d="M5.23645,6.07941a.2594.2594,0,1,0,.25946.2594A.25942.25942,0,0,0,5.23645,6.07941Z" transform="translate(0.00012 -4.23877)"/>
    <path d="M6.27411,6.07941a.2594.2594,0,1,0,.25946.2594A.25942.25942,0,0,0,6.27411,6.07941Z" transform="translate(0.00012 -4.23877)"/>
    <path d="M10.4248,6.07941a.2594.2594,0,1,0,.2594.2594A.25943.25943,0,0,0,10.4248,6.07941Z" transform="translate(0.00012 -4.23877)"/>
    <path d="M11.46246,15.41833a.25943.25943,0,1,0,.2594.25947A.25939.25939,0,0,0,11.46246,15.41833Z" transform="translate(0.00012 -4.23877)"/>
    <circle cx="11.46259" cy="2.10004" r="0.2594"/>
    <path d="M9.38715,15.41833a.25943.25943,0,1,0,.2594.25947A.25944.25944,0,0,0,9.38715,15.41833Z" transform="translate(0.00012 -4.23877)"/>
    <path d="M10.4248,15.41833a.25943.25943,0,1,0,.2594.25947A.25944.25944,0,0,0,10.4248,15.41833Z" transform="translate(0.00012 -4.23877)"/>
    <path d="M8.34949,6.07941a.2594.2594,0,1,0,.2594.2594A.25943.25943,0,0,0,8.34949,6.07941Z" transform="translate(0.00012 -4.23877)"/>
    <path d="M9.38715,6.07941a.2594.2594,0,1,0,.2594.2594A.25943.25943,0,0,0,9.38715,6.07941Z" transform="translate(0.00012 -4.23877)"/>
    <circle cx="2.13336" cy="5.21301" r="0.2594"/>
    <path d="M2.13324,11.2677a.25943.25943,0,1,0,.2594.2594A.25942.25942,0,0,0,2.13324,11.2677Z" transform="translate(0.00012 -4.23877)"/>
    <path d="M2.13324,12.30536a.25943.25943,0,1,0,.2594.2594A.25942.25942,0,0,0,2.13324,12.30536Z" transform="translate(0.00012 -4.23877)"/>
    <circle cx="2.13336" cy="6.25067" r="0.2594"/>
    <path d="M12.50012,15.41833a.25943.25943,0,1,0,.2594.25947A.25943.25943,0,0,0,12.50012,15.41833Z" transform="translate(0.00012 -4.23877)"/>
    <path d="M2.13324,15.41833a.25943.25943,0,1,0,.2594.25947A.25943.25943,0,0,0,2.13324,15.41833Z" transform="translate(0.00012 -4.23877)"/>
    <path d="M2.13324,13.343a.25943.25943,0,1,0,.2594.2594A.25942.25942,0,0,0,2.13324,13.343Z" transform="translate(0.00012 -4.23877)"/>
    <path d="M2.13324,14.38068a.25943.25943,0,1,0,.2594.2594A.25942.25942,0,0,0,2.13324,14.38068Z" transform="translate(0.00012 -4.23877)"/>
    <circle cx="2.13336" cy="2.10004" r="0.2594"/>
    <path d="M3.1709,15.41833a.25943.25943,0,1,0,.25946.25947A.25943.25943,0,0,0,3.1709,15.41833Z" transform="translate(0.00012 -4.23877)"/>
    <circle cx="2.13336" cy="4.17535" r="0.2594"/>
    <path d="M4.173,15.41833a.25943.25943,0,1,0,.2594.25947A.25944.25944,0,0,0,4.173,15.41833Z" transform="translate(0.00012 -4.23877)"/>
    <path d="M3.1709,6.07941a.2594.2594,0,1,0,.25946.2594A.25942.25942,0,0,0,3.1709,6.07941Z" transform="translate(0.00012 -4.23877)"/>
    <circle cx="2.13336" cy="3.1377" r="0.2594"/>
    <path d="M4.173,6.07941a.2594.2594,0,1,0,.2594.2594A.25943.25943,0,0,0,4.173,6.07941Z" transform="translate(0.00012 -4.23877)"/>
    <path d="M23.0116,15.41833a.25943.25943,0,1,0,.2594.25947A.25944.25944,0,0,0,23.0116,15.41833Z" transform="translate(0.00012 -4.23877)"/>
    <circle cx="22.00958" cy="2.10004" r="0.2594"/>
    <path d="M23.0116,14.38068a.25943.25943,0,1,0,.2594.2594A.25943.25943,0,0,0,23.0116,14.38068Z" transform="translate(0.00012 -4.23877)"/>
    <path d="M23.0116,13.343a.25943.25943,0,1,0,.2594.2594A.25943.25943,0,0,0,23.0116,13.343Z" transform="translate(0.00012 -4.23877)"/>
    <circle cx="12.50024" cy="2.10004" r="0.2594"/>
    <path d="M20.9718,15.41833a.25943.25943,0,1,0,.2594.25947A.25943.25943,0,0,0,20.9718,15.41833Z" transform="translate(0.00012 -4.23877)"/>
    <circle cx="20.97192" cy="2.10004" r="0.2594"/>
    <path d="M22.00946,15.41833a.25943.25943,0,1,0,.2594.25947A.25943.25943,0,0,0,22.00946,15.41833Z" transform="translate(0.00012 -4.23877)"/>
    <path d="M19.76373,6.07941a.2594.2594,0,1,0,.25946.2594A.25942.25942,0,0,0,19.76373,6.07941Z" transform="translate(0.00012 -4.23877)"/>
    <path d="M23.0116,7.11707a.2594.2594,0,1,0,.2594.25939A.25943.25943,0,0,0,23.0116,7.11707Z" transform="translate(0.00012 -4.23877)"/>
    <path d="M23.0116,6.07941a.2594.2594,0,1,0,.2594.2594A.25943.25943,0,0,0,23.0116,6.07941Z" transform="translate(0.00012 -4.23877)"/>
    <path d="M23.0116,11.2677a.25943.25943,0,1,0,.2594.2594A.25943.25943,0,0,0,23.0116,11.2677Z" transform="translate(0.00012 -4.23877)"/>
    <path d="M23.0116,8.15472a.2594.2594,0,1,0,.2594.2594A.25943.25943,0,0,0,23.0116,8.15472Z" transform="translate(0.00012 -4.23877)"/>
    <path d="M23.0116,10.23a.2594.2594,0,1,0,.2594.2594A.25943.25943,0,0,0,23.0116,10.23Z" transform="translate(0.00012 -4.23877)"/>
    <path d="M23.0116,9.19238a.2594.2594,0,1,0,.2594.2594A.25943.25943,0,0,0,23.0116,9.19238Z" transform="translate(0.00012 -4.23877)"/>
    <path d="M23.0116,12.30536a.25943.25943,0,1,0,.2594.2594A.25943.25943,0,0,0,23.0116,12.30536Z" transform="translate(0.00012 -4.23877)"/>
    <circle cx="15.61322" cy="2.10004" r="0.2594"/>
    <path d="M14.57544,15.41833a.25943.25943,0,1,0,.2594.25947A.25943.25943,0,0,0,14.57544,15.41833Z" transform="translate(0.00012 -4.23877)"/>
    <path d="M15.6131,15.41833a.25943.25943,0,1,0,.2594.25947A.25943.25943,0,0,0,15.6131,15.41833Z" transform="translate(0.00012 -4.23877)"/>
    <circle cx="14.57556" cy="2.10004" r="0.2594"/>
    <path d="M13.53778,15.41833a.25943.25943,0,1,0,.2594.25947A.25943.25943,0,0,0,13.53778,15.41833Z" transform="translate(0.00012 -4.23877)"/>
    <circle cx="13.5379" cy="2.10004" r="0.2594"/>
    <path d="M19.76373,15.41833a.25943.25943,0,1,0,.25946.25947A.25943.25943,0,0,0,19.76373,15.41833Z" transform="translate(0.00012 -4.23877)"/>
    <path d="M18.72607,15.41833a.25943.25943,0,1,0,.25946.25947A.25943.25943,0,0,0,18.72607,15.41833Z" transform="translate(0.00012 -4.23877)"/>
    <path d="M18.72607,6.07941a.2594.2594,0,1,0,.25946.2594A.25942.25942,0,0,0,18.72607,6.07941Z" transform="translate(0.00012 -4.23877)"/>
    <path d="M17.68842,6.07941a.2594.2594,0,1,0,.25946.2594A.25942.25942,0,0,0,17.68842,6.07941Z" transform="translate(0.00012 -4.23877)"/>
    <path d="M17.68842,15.41833a.25943.25943,0,1,0,.25946.25947A.25943.25943,0,0,0,17.68842,15.41833Z" transform="translate(0.00012 -4.23877)"/>
    <path d="M16.65076,15.41833a.25943.25943,0,1,0,.2594.25947A.25943.25943,0,0,0,16.65076,15.41833Z" transform="translate(0.00012 -4.23877)"/>
    <circle cx="16.65088" cy="2.10004" r="0.2594"/>
  </g>
</svg>
