<svg id="Слой_1" data-name="Слой 1" xmlns="http://www.w3.org/2000/svg" viewBox="0 0 14.06 25">
  <g>
    <rect x="8.20477" y="4.37585" width="2.02637" height="1.47937"/>
    <path d="M12.50027,10.94A1.56,1.56,0,1,0,14.06,12.50024,1.5621,1.5621,0,0,0,12.50027,10.94Zm0,2.18817a.628.628,0,1,1,.62745-.62793A.62118.62118,0,0,1,12.50027,13.12817Z" transform="translate(-5.47)"/>
    <rect x="3.82886" y="4.37585" width="2.02637" height="1.47937"/>
    <path d="M17.97025,8.2052h-.08088V0H7.11118V8.2052H7.03024A1.56168,1.56168,0,0,0,5.47,9.765v9.29932A2.6566,2.6566,0,0,0,8.12387,21.7182H10.393V25h.93226V21.7182h2.34954V25H14.607V21.7182h2.2691A2.6566,2.6566,0,0,0,19.53,19.06433V9.765A1.56126,1.56126,0,0,0,17.97025,8.2052ZM8.04294.93231h8.91412V8.2052H8.04294Zm10.55475,18.132a1.72373,1.72373,0,0,1-1.72156,1.72156H8.12387a1.72373,1.72373,0,0,1-1.72156-1.72156V9.765a.62119.62119,0,0,1,.62793-.628h10.94a.62108.62108,0,0,1,.62744.628Z" transform="translate(-5.47)"/>
    <path d="M7.64932,19.09253a.34647.34647,0,1,0,.3465.34643A.34647.34647,0,0,0,7.64932,19.09253Z" transform="translate(-5.47)"/>
    <path d="M9.03525,19.09253a.34647.34647,0,1,0,.34643.34643A.34643.34643,0,0,0,9.03525,19.09253Z" transform="translate(-5.47)"/>
    <path d="M10.42111,19.09253a.34647.34647,0,1,0,.3465.34643A.34641.34641,0,0,0,10.42111,19.09253Z" transform="translate(-5.47)"/>
    <path d="M11.807,19.09253a.34647.34647,0,1,0,.34649.34643A.34647.34647,0,0,0,11.807,19.09253Z" transform="translate(-5.47)"/>
    <path d="M13.193,19.09253a.34647.34647,0,1,0,.3465.34643A.34647.34647,0,0,0,13.193,19.09253Z" transform="translate(-5.47)"/>
    <path d="M14.57889,19.09253a.34647.34647,0,1,0,.34643.34643A.34647.34647,0,0,0,14.57889,19.09253Z" transform="translate(-5.47)"/>
    <path d="M15.96475,19.09253a.34647.34647,0,1,0,.3465.34643A.34641.34641,0,0,0,15.96475,19.09253Z" transform="translate(-5.47)"/>
    <path d="M17.35068,19.09253a.34647.34647,0,1,0,.34649.34643A.34642.34642,0,0,0,17.35068,19.09253Z" transform="translate(-5.47)"/>
  </g>
</svg>
