<svg xmlns="http://www.w3.org/2000/svg" viewBox="0 0 159.6 199.4"><defs><style>.cls-1,.cls-2{fill:none;stroke:#000;stroke-miterlimit:10;}.cls-1{stroke-width:6px;}.cls-2{stroke-width:3px;}</style></defs><g id="Слой_2" data-name="Слой 2"><g id="Raw"><path d="M32.1,49.3l-.7,1.2-3.9,6.7h3.8V73.1l-6-4.2a.7.7,0,0,1-.4-.6v-.9a3.1,3.1,0,0,0,2.4-3,3.2,3.2,0,1,0-6.3,0,3.1,3.1,0,0,0,2.4,3v.9a2.2,2.2,0,0,0,.9,1.9h0l7,4.9v1.2a4.8,4.8,0,1,0,1.5,0V71.9l6.8-4a2.6,2.6,0,0,0,1.2-2.1V64.4h2.3V58H36.8v6.4h2.4v1.4a.8.8,0,0,1-.4.7l-6,3.6V57.2h3.6ZM32,52.5l1.7,3.1H30.3Zm6.4,7.1h3.2v3.2H38.4ZM24.1,62.8a1.6,1.6,0,0,1,1.6,1.6,1.6,1.6,0,0,1-1.6,1.5,1.5,1.5,0,0,1-1.5-1.5A1.6,1.6,0,0,1,24.1,62.8Zm8,15A3.2,3.2,0,1,1,28.9,81,3.1,3.1,0,0,1,32.1,77.8Z"/><path class="cls-1" d="M156.6,196.2V67.5s-1.4-37.4-41.5-36c-7.4.3-15.7,4.4-21.2,9.1C77.1,54.5,80.5,78.8,80.5,98.3s2,40.1-.4,59.5c-1.8,13.9-9.7,24.8-25,21.1-12.5-3-15.3-14.4-15.4-25.8,0-3.5.7-34.4.7-34.4h8.3V93.8H61.1v-54H3V95.2H16.8v22.1h5.6v19.6c0,19.1-.6,42.2,17.9,53.6,11.1,6.7,26.3,8.2,37.9,1.7s17.3-22.6,18.6-36.3c2.4-25.8.8-52.2,1.3-78.2.1-6.3-.8-14,2.8-19.6,5.6-8.6,19-11.1,28-7.2,6.4,2.7,11.1,11.1,11.1,18V196.2Z"/><rect class="cls-1" x="11.3" y="3" width="41.5" height="34.03"/><rect class="cls-2" x="16.8" y="17.2" width="8.3" height="5.54"/><rect class="cls-2" x="39" y="17.2" width="8.3" height="5.54"/></g></g></svg>