<svg id="Слой_1" data-name="Слой 1" xmlns="http://www.w3.org/2000/svg" viewBox="0 0 25 22.74432">
  <g>
    <path d="M19.73682,17.38724a.46994.46994,0,1,0-.46991.46991A.4704.4704,0,0,0,19.73682,17.38724Z" transform="translate(0 -1.12784)"/>
    <path d="M14.00372,20.67667a.46994.46994,0,1,0,.46991.47A.4704.4704,0,0,0,14.00372,20.67667Z" transform="translate(0 -1.12784)"/>
    <path d="M20.01874,20.67667a.46994.46994,0,1,0,.47.47A.47039.47039,0,0,0,20.01874,20.67667Z" transform="translate(0 -1.12784)"/>
    <path d="M17.76312,17.85715a.46994.46994,0,1,0-.46991-.46991A.47034.47034,0,0,0,17.76312,17.85715Z" transform="translate(0 -1.12784)"/>
    <path d="M20.01874,19.17294a.46991.46991,0,1,0,.47.46991A.47034.47034,0,0,0,20.01874,19.17294Z" transform="translate(0 -1.12784)"/>
    <path d="M20.77063,16.91727a.46994.46994,0,1,0,.47.47A.47039.47039,0,0,0,20.77063,16.91727Z" transform="translate(0 -1.12784)"/>
    <path d="M13.7218,17.38724a.46994.46994,0,1,0-.47.46991A.4704.4704,0,0,0,13.7218,17.38724Z" transform="translate(0 -1.12784)"/>
    <circle cx="14.00372" cy="18.51501" r="0.46991"/>
    <path d="M15.88342,1.12784H10.6203a.46655.46655,0,0,0-.30109.10992L6.91815,4.07053A4.21666,4.21666,0,0,0,5.44043,6.72141L3.44586,20.67667H3.1015a1.14446,1.14446,0,0,0-1.03314.75189H1.2218A1.22323,1.22323,0,0,0,0,22.65036v1.2218H7.70673v-1.2218a1.22323,1.22323,0,0,0-1.22181-1.2218H5.63831a1.14439,1.14439,0,0,0-1.03309-.75189H4.3949L6.36926,6.85519a3.27926,3.27926,0,0,1,1.151-2.06176l3.26923-2.72577h5.09393c4.58509,0,8.1767,3.92187,8.1767,8.92859a16.5138,16.5138,0,0,1-1.20935,6.45337,1.39429,1.39429,0,0,0-.48236-.34363V13.62784a3.48135,3.48135,0,0,0-3.47748-3.47748h-3.7594a3.48134,3.48134,0,0,0-3.47742,3.47748v.25622a4.82717,4.82717,0,0,0-3.0075,4.443,4.76118,4.76118,0,0,0,2.25561,4.06451v.25879a1.22322,1.22322,0,0,0,1.2218,1.2218h9.77442a1.22323,1.22323,0,0,0,1.22186-1.2218V19.02109A16.24636,16.24636,0,0,0,25,10.99625C25,5.46249,20.9953,1.12784,15.88342,1.12784ZM4.60522,21.61655a.2757.2757,0,0,1,.282.28192v.47H6.48492a.2757.2757,0,0,1,.282.28192v.282H.93982v-.282a.27569.27569,0,0,1,.282-.28192H2.81952v-.47a.27569.27569,0,0,1,.282-.28192ZM11.65411,17.106a1.14446,1.14446,0,0,0-.75189,1.03308v3.08172a3.82792,3.82792,0,0,1-1.31579-2.89373A3.87032,3.87032,0,0,1,11.65411,14.915Zm10.52631,1.83343v3.71094a.2757.2757,0,0,1-.282.282H12.124a.2757.2757,0,0,1-.28192-.282V18.13907a.27568.27568,0,0,1,.28192-.28192h.46991V14.57132a3.79363,3.79363,0,0,1,.84589-.09766h3.57544a.46993.46993,0,1,0-.004-.93982H16.556a.65182.65182,0,0,1,.4552-.188.6579.6579,0,1,1,0,1.31579H15.55414l.08221.14118a1.59437,1.59437,0,1,0-.14685-1.269H13.43982a4.84294,4.84294,0,0,0-.84589.07434,2.54044,2.54044,0,0,1,2.5376-2.51794h3.7594a2.54044,2.54044,0,0,1,2.5376,2.5376v4.22931h.46991a.27569.27569,0,0,1,.282.28192l.00037.70141A.52523.52523,0,0,0,22.18042,18.93942Z" transform="translate(0 -1.12784)"/>
    <path d="M17.01123,18.797A1.59775,1.59775,0,1,0,18.609,20.39474,1.59954,1.59954,0,0,0,17.01123,18.797Zm0,2.25567a.6579.6579,0,1,1,.6579-.6579A.65085.65085,0,0,1,17.01123,21.05264Z" transform="translate(0 -1.12784)"/>
    <path d="M16.2594,17.85715a.46994.46994,0,1,0-.47-.46991A.47039.47039,0,0,0,16.2594,17.85715Z" transform="translate(0 -1.12784)"/>
    <path d="M14.75562,16.91727a.46994.46994,0,1,0,.4699.47A.47035.47035,0,0,0,14.75562,16.91727Z" transform="translate(0 -1.12784)"/>
  </g>
</svg>
