<svg id="Слой_1" data-name="Слой 1" xmlns="http://www.w3.org/2000/svg" viewBox="0 0 21.7945 24.99993">
  <path d="M3.68592,25a1.68444,1.68444,0,0,1-1.68267-1.68219V5.52144a.68405.68405,0,0,1-.4005-.63379V1.68222A1.68434,1.68434,0,0,1,3.28493,0H21.71507a1.68434,1.68434,0,0,1,1.68218,1.68219V4.88765a.82583.82583,0,0,1-.43792.70135l.03742,17.72878A1.68434,1.68434,0,0,1,21.31457,25Zm-.72177-1.68219a.71381.71381,0,0,0,.72177.72129H21.31457a.7137.7137,0,0,0,.72128-.72129V5.762a.48039.48039,0,0,1,.07971-.95409h.32128V1.68222a.71381.71381,0,0,0-.72177-.72129H3.28493a.7137.7137,0,0,0-.72128.72129V4.80794h.32079a.48039.48039,0,0,1,.07971.95409ZM20.51309,22.596a.48045.48045,0,1,1,.48021-.4802A.48062.48062,0,0,1,20.51309,22.596Zm-1.60247,0a.48045.48045,0,1,1,.48021-.4802A.481.481,0,0,1,18.91062,22.596Zm-6.41038-1.202a6.89083,6.89083,0,1,1,6.89059-6.89058A6.89863,6.89863,0,0,1,12.50024,21.394Zm0-12.82075a5.92993,5.92993,0,1,0,5.92969,5.93017A5.93667,5.93667,0,0,0,12.50024,8.57329Zm0,10.81729a4.88737,4.88737,0,1,1,3.99768-7.69352l.16282.23136-.16282.32176a3.91689,3.91689,0,0,0,0,4.50655l.16282.22942-.16282.3237A4.89176,4.89176,0,0,1,12.50024,19.39058Zm0-8.81432a3.92706,3.92706,0,1,0,3.0674,6.34281,4.25619,4.25619,0,0,1-.74364-2.41561,4.81322,4.81322,0,0,1,.73829-2.50651A4.07759,4.07759,0,0,0,12.50024,10.57626Zm8.01285-4.80742a.48045.48045,0,1,1,.48021-.4807A.481.481,0,0,1,20.51309,5.76884Zm-1.60247,0a.48045.48045,0,1,1,.48021-.4807A.48145.48145,0,0,1,18.91062,5.76884Zm-1.603,0a.48045.48045,0,1,1,.48069-.4807A.481.481,0,0,1,17.30766,5.76884Zm-1.60247,0a.48045.48045,0,1,1,.48021-.4807A.481.481,0,0,1,15.70519,5.76884Zm-1.60247,0a.48045.48045,0,1,1,.4802-.4807A.481.481,0,0,1,14.10272,5.76884Zm-1.60248,0a.48045.48045,0,1,1,.48021-.4807A.48145.48145,0,0,1,12.50024,5.76884Zm-1.603,0a.48045.48045,0,1,1,.4807-.4807A.481.481,0,0,1,10.89728,5.76884Zm-1.60247,0a.48045.48045,0,1,1,.48021-.4807A.481.481,0,0,1,9.29481,5.76884Zm-1.60247,0a.48045.48045,0,1,1,.48021-.4807A.48145.48145,0,0,1,7.69234,5.76884Zm-1.603,0a.48045.48045,0,1,1,.48069-.4807A.481.481,0,0,1,6.08938,5.76884Zm-1.60247,0a.48045.48045,0,1,1,.48069-.4807A.481.481,0,0,1,4.48691,5.76884ZM17.30766,3.36489a.48047.48047,0,1,1-.00389-.9609h3.20932a.48047.48047,0,1,1,.00389.9609Zm-9.61532,0a.48045.48045,0,1,1,.48021-.4807A.48145.48145,0,0,1,7.69234,3.36489Zm-1.603,0a.48045.48045,0,1,1,.48069-.4807A.481.481,0,0,1,6.08938,3.36489Zm-1.60247,0a.48045.48045,0,1,1,.48069-.4807A.481.481,0,0,1,4.48691,3.36489Z" transform="translate(-1.60275 -0.00003)"/>
</svg>
