<svg xmlns="http://www.w3.org/2000/svg" viewBox="0 0 76.8 212.3"><defs><style>.cls-1,.cls-2,.cls-3,.cls-4{fill:none;stroke:#000;stroke-miterlimit:2.61;}.cls-1{stroke-width:5px;}.cls-2{stroke-width:6px;}.cls-3{stroke-width:4px;}.cls-3,.cls-4{fill-rule:evenodd;}.cls-4{stroke-width:3.6px;}</style></defs><g id="Слой_2" data-name="Слой 2"><g id="Raw"><path class="cls-1" d="M28.5,16.9H48.2c1.8,0,3.2.7,3.2,1.5v6.3c0,.8-1.4,1.5-3.2,1.5H28.5c-1.7,0-3.1-.7-3.1-1.5V18.4C25.4,17.6,26.8,16.9,28.5,16.9Z"/><path class="cls-2" d="M3,69.1V185.7a23.6,23.6,0,0,0,7,16.7,23.3,23.3,0,0,0,16.7,6.9H50.1a23.7,23.7,0,0,0,23.7-23.6V69.1c0-13.7-15.4-43-22.4-42.9h-26C18.4,26.1,3,55.4,3,69.1Z"/><path class="cls-3" d="M72.1,70.8c-23,16.1-34.6,1.6-67.4,0V185.7a22,22,0,0,0,22,22H50.1a22.2,22.2,0,0,0,22-22Z"/><rect class="cls-2" x="3" y="101.4" width="70.8" height="59.82"/><path class="cls-2" d="M51.4,16.9H25.3c-1.5,0-2.8-.9-2.8-2.1V5.2C22.5,4,23.8,3,25.3,3H51.4c1.6,0,2.8,1,2.8,2.2v9.6C54.2,16,53,16.9,51.4,16.9Z"/><path class="cls-4" d="M38.4,150.4s-25.4-2.5,0-38.2C63.7,147.9,38.4,150.4,38.4,150.4Z"/></g></g></svg>