<svg xmlns="http://www.w3.org/2000/svg" viewBox="0 0 50 50">
  <path d="M24.722656 2C24.091087 2 23.47801 2.0233026 22.880859 2.0683594C22.858741 2.0700661 22.838477 2.0744025 22.816406 2.0761719C14.567795 2.7227971 9.6543038 7.6472289 9.0625 15.875C9.0208 16.436498 9 17.010362 9 17.595703C9 19.062546 9.4978538 21.55653 10.044922 23.640625C10.221329 24.346123 10.38812 24.937582 10.552734 25.46875C10.262003 25.712366 9.9833479 25.874221 9.6992188 26.306641C9.2179482 27.039092 8.8605116 28.083614 9.0058594 29.320312 A 1.0001 1.0001 0 0 0 9.0078125 29.320312C9.2441518 31.325681 9.8747707 32.682682 10.488281 33.539062C10.926839 34.151232 11.183396 34.274487 11.419922 34.443359C11.732094 36.216536 12.854657 38.302413 14.527344 40.435547C16.295436 42.690349 18.608877 44.851992 21.152344 46.060547C22.068719 47.206796 23.424473 48 25 48C26.574664 48 27.929073 47.20738 28.845703 46.0625C31.382972 44.85231 33.682966 42.685789 35.439453 40.429688C37.098095 38.299262 38.209111 36.216739 38.521484 34.449219C38.764999 34.281091 39.01633 34.166997 39.457031 33.566406C40.080462 32.716791 40.721825 31.363198 40.958984 29.355469C41.104889 28.114655 40.739406 27.065294 40.253906 26.326172C39.964892 25.886178 39.682137 25.718531 39.386719 25.46875C39.778485 24.20985 40.091881 22.984438 40.339844 21.789062C40.387881 21.563703 40.439752 21.356558 40.484375 21.123047C40.54233 20.813165 40.600445 20.504287 40.648438 20.199219C40.661251 20.119281 40.673281 20.039667 40.685547 19.958984C40.732056 19.647574 40.772594 19.33936 40.808594 19.033203C40.825377 18.892641 40.842632 18.75368 40.857422 18.611328C40.889544 18.298247 40.914644 17.988892 40.935547 17.681641C40.943941 17.559496 40.954252 17.43957 40.960938 17.316406C40.984954 16.871424 41 16.43197 41 16C41 15.559237 40.972004 15.116508 40.929688 14.673828C40.925207 14.628103 40.92295 14.585216 40.917969 14.539062C40.864428 14.031308 40.782322 13.526394 40.671875 13.029297C40.669451 13.018355 40.666518 13.007044 40.664062 12.996094C40.610646 12.75863 40.550995 12.523803 40.484375 12.291016C40.465884 12.225838 40.445444 12.160959 40.425781 12.095703C40.364941 11.895745 40.301297 11.697138 40.230469 11.501953C40.194298 11.401072 40.152514 11.301712 40.113281 11.201172C40.056753 11.058198 40.001562 10.915028 39.939453 10.775391C39.857107 10.587563 39.76406 10.403438 39.669922 10.21875C39.646719 10.17399 39.62539 10.128291 39.601562 10.083984C39.553974 9.9939323 39.513458 9.9014961 39.462891 9.8125C39.382141 9.6703848 39.287524 9.5344897 39.197266 9.3964844C39.193391 9.3905419 39.189434 9.3848378 39.185547 9.3789062C39.065041 9.1957366 38.936039 9.0178974 38.798828 8.84375C38.733382 8.7587722 38.666126 8.6758356 38.597656 8.59375C38.52561 8.5098519 38.45308 8.4267937 38.376953 8.3457031C37.195673 7.0435738 35.607538 6.157743 33.570312 6.0195312C32.747698 4.8011388 30.685804 2.5843184 26.441406 2.0996094C26.362352 2.0903146 26.279597 2.0841955 26.199219 2.0761719C26.013748 2.0582046 25.830372 2.0385258 25.636719 2.0273438C25.340454 2.0096426 25.035964 2 24.722656 2 z M 32.494141 14.380859C33.466141 15.929859 35 18.874766 35 22.009766C35.015424 23.435306 35.48589 25.663242 37.021484 26.451172C35.214017 27.98994 33.17987 29.277402 31.25 30.216797C28.851225 31.384439 26.577608 32 25.310547 32C23.938041 32 21.562871 31.409074 19.052734 30.287109C17.034014 29.384795 14.908087 28.146018 13.013672 26.658203C14.225357 25.775366 14.723125 23.381158 15 22C15.626 18.878 19.061 18 24 18C28.652 18 31.260141 15.844859 32.494141 14.380859 z M 19.5 26 A 1.5 1.5 0 0 0 18 27.5 A 1.5 1.5 0 0 0 19.5 29 A 1.5 1.5 0 0 0 21 27.5 A 1.5 1.5 0 0 0 19.5 26 z M 30.5 26 A 1.5 1.5 0 0 0 29 27.5 A 1.5 1.5 0 0 0 30.5 29 A 1.5 1.5 0 0 0 32 27.5 A 1.5 1.5 0 0 0 30.5 26 z M 38.705078 27.640625C38.913832 28.027287 39.046676 28.493565 38.972656 29.123047C38.771628 30.821914 38.262584 31.814685 37.845703 32.382812C37.428634 32.951197 37.199219 33.044922 37.199219 33.044922 A 1.0001 1.0001 0 0 0 36.671875 33.824219C36.568083 34.813217 35.499551 37.096974 33.861328 39.201172C33.716368 39.387364 33.545768 39.563848 33.392578 39.748047C32.938726 37.13693 32.570902 34.032911 33.644531 31.203125C35.37772 30.232511 37.120103 29.045907 38.705078 27.640625 z M 11.179688 27.75C12.640672 28.968512 14.235233 30.016756 15.837891 30.902344C17.004036 33.681533 16.706677 36.761295 16.267578 39.394531C16.215031 39.329066 16.153049 39.266831 16.101562 39.201172C14.450744 37.095925 13.374408 34.8086 13.271484 33.824219 A 1.0001 1.0001 0 0 0 12.759766 33.054688C12.759766 33.054688 12.530474 32.954619 12.115234 32.375C11.699995 31.795381 11.192848 30.788569 10.992188 29.085938L10.994141 29.085938C10.928461 28.527089 11.018442 28.101301 11.179688 27.75 z" fill="#4f51c0" />
</svg>