<svg xmlns="http://www.w3.org/2000/svg" viewBox="0 0 50 50">
  <path d="M20.998047 5C16.587047 5 12.998047 8.589 12.998047 13C12.998047 17.411 16.587047 21 20.998047 21L34.998047 21C39.409047 21 42.998047 17.411 42.998047 13C42.998047 8.589 39.409047 5 34.998047 5L20.998047 5 z M 27.998047 7L34.998047 7C38.307047 7 40.998047 9.691 40.998047 13C40.998047 16.309 38.307047 19 34.998047 19L27.998047 19L27.998047 7 z M 44.09375 26.001953C43.368699 25.978035 42.630859 26.162922 41.974609 26.576172L32.625 32.339844C33.334 33.062844 33.748047 34.043172 33.748047 35.076172C33.748047 37.246172 31.984453 39.011719 29.814453 39.011719C29.508453 39.011719 29.203156 38.97525 28.910156 38.90625C28.141156 38.72425 18.319172 35.783219 17.201172 35.449219C16.672172 35.290219 16.371297 34.732125 16.529297 34.203125C16.688297 33.674125 17.247391 33.375203 17.775391 33.533203C22.141391 34.841203 28.834047 36.834891 29.373047 36.962891C29.516047 36.996891 29.664453 37.013672 29.814453 37.013672C30.881453 37.013672 31.748047 36.145125 31.748047 35.078125C31.748047 34.389125 31.391969 33.769875 30.792969 33.421875C30.501969 33.252875 20.629531 28.937406 18.644531 28.066406C15.534531 26.700406 11.9505 26.666656 8.8125 27.972656L2.3632812 30.658203C1.8532812 30.868203 1.7480469 31.331844 1.7480469 31.964844L1.7480469 44.009766C1.7480469 44.561766 2.1960469 45.009766 2.7480469 45.009766C3.0530469 45.009766 3.2969375 44.845406 3.3359375 44.816406L6.8203125 42.259766C8.5963125 40.956766 10.963875 40.670344 13.046875 41.527344L24.742188 45.673828C25.399188 45.906828 26.079859 46.021484 26.755859 46.021484C28.046859 46.021484 29.318859 45.605781 30.380859 44.800781L46.119141 32.875C47.791141 31.723 48.250969 29.476766 47.167969 27.759766C46.475469 26.661016 45.302168 26.041816 44.09375 26.001953 z" fill="#4F51C0" />
</svg>