<svg xmlns="http://www.w3.org/2000/svg" viewBox="0 0 50 50">
  <path d="M16.78125 0C15.496094 0.160156 14.394531 1.15625 14.125 2.375C13.8125 3.648438 11 14.855469 11 19.3125L11 26.5C11 28.9375 13.0625 31 15.5 31C16.855469 31 18 32.144531 18 33.5L18 43.8125C18 46.988281 20.320313 49.613281 23.40625 49.96875C23.609375 49.988281 23.785156 49.992188 24 50C25.605469 50 27.113281 49.398438 28.25 48.25C29.378906 47.109375 30 45.59375 30 44L30 42.1875C30 39.128906 27.886719 36.585938 25 36.125C24.351563 35.996094 23.664063 36 23 36.125L23 19.3125C23 15.320313 21.195313 6.164063 20.375 2.375C20.0625 0.972656 18.847656 0 17.40625 0L16.90625 0C16.863281 0 16.820313 -0.0078125 16.78125 0 Z M 28 0C27.445313 0 27 0.449219 27 1C27 1.550781 27.445313 2 28 2L37 2L37 4L28 4C27.445313 4 27 4.449219 27 5C27 5.550781 27.445313 6 28 6L37 6L37 8L28 8C27.445313 8 27 8.449219 27 9C27 9.550781 27.445313 10 28 10L37 10L37 12L28 12C27.445313 12 27 12.449219 27 13C27 13.550781 27.445313 14 28 14L37 14L37 16L28 16C27.445313 16 27 16.449219 27 17C27 17.550781 27.445313 18 28 18L37 18L37 20L28 20C27.445313 20 27 20.449219 27 21C27 21.550781 27.445313 22 28 22L37 22L37 24L28 24C27.445313 24 27 24.449219 27 25C27 25.550781 27.445313 26 28 26L37 26L37 28L28 28C27.445313 28 27 28.445313 27 29C27 29.554688 27.445313 30 28 30L37 30L37 45.5C37 47.9375 39.0625 50 41.5 50C43.9375 50 46 47.9375 46 45.5L46 5C46 2.242188 43.757813 0 41 0 Z M 17 24C18.105469 24 19 24.894531 19 26C19 27.105469 18.105469 28 17 28C15.894531 28 15 27.105469 15 26C15 24.894531 15.894531 24 17 24 Z M 11 31.125L11 36.09375C10.679688 36.03125 10.34375 36 10 36C6.636719 36 4 38.636719 4 42L4 44C4 47.363281 6.636719 50 10 50C13.363281 50 16 47.363281 16 44L16 33.5C16 33.246094 15.753906 33 15.5 33C13.773438 33 12.179688 32.269531 11 31.125 Z M 10 40C11.101563 40 12 40.898438 12 42L12 44C12 45.101563 11.101563 46 10 46C8.898438 46 8 45.101563 8 44L8 42C8 40.898438 8.898438 40 10 40 Z M 24 40C25.101563 40 26 40.898438 26 42L26 44C26 45.101563 25.101563 46 24 46C22.898438 46 22 45.101563 22 44L22 42C22 40.898438 22.898438 40 24 40Z" fill="#4F51C0" />
</svg>