<svg xmlns="http://www.w3.org/2000/svg" viewBox="0 0 50 50">
  <path d="M31.603516 1.0058594C31.091266 1.0058594 30.578953 1.2003437 30.189453 1.5898438L1.5898438 30.1875C0.80984375 30.9665 0.80984375 32.236625 1.5898438 33.015625L16.982422 48.410156C17.372422 48.800156 17.884484 48.994141 18.396484 48.994141C18.908484 48.994141 19.420547 48.800156 19.810547 48.410156L48.410156 19.8125C49.190156 19.0325 49.190156 17.762422 48.410156 16.982422L33.017578 1.5898438C32.628078 1.2003438 32.115766 1.0058594 31.603516 1.0058594 z M 29 8C30.654 8 32 9.346 32 11C32 12.654 30.654 14 29 14C27.346 14 26 12.654 26 11C26 9.346 27.346 8 29 8 z M 37 12C37.25575 12 37.511531 12.097469 37.707031 12.292969C38.098031 12.683969 38.098031 13.316031 37.707031 13.707031L13.707031 37.707031C13.512031 37.902031 13.256 38 13 38C12.744 38 12.487969 37.902031 12.292969 37.707031C11.901969 37.316031 11.901969 36.683969 12.292969 36.292969L36.292969 12.292969C36.488469 12.097469 36.74425 12 37 12 z M 23 14C24.654 14 26 15.346 26 17C26 18.654 24.654 20 23 20C21.346 20 20 18.654 20 17C20 15.346 21.346 14 23 14 z M 39 18C40.654 18 42 19.346 42 21C42 22.654 40.654 24 39 24C37.346 24 36 22.654 36 21C36 19.346 37.346 18 39 18 z M 17 20C18.654 20 20 21.346 20 23C20 24.654 18.654 26 17 26C15.346 26 14 24.654 14 23C14 21.346 15.346 20 17 20 z M 33 24C34.654 24 36 25.346 36 27C36 28.654 34.654 30 33 30C31.346 30 30 28.654 30 27C30 25.346 31.346 24 33 24 z M 11 26C12.654 26 14 27.346 14 29C14 30.654 12.654 32 11 32C9.346 32 8 30.654 8 29C8 27.346 9.346 26 11 26 z M 27 30C28.654 30 30 31.346 30 33C30 34.654 28.654 36 27 36C25.346 36 24 34.654 24 33C24 31.346 25.346 30 27 30 z M 21 36C22.654 36 24 37.346 24 39C24 40.654 22.654 42 21 42C19.346 42 18 40.654 18 39C18 37.346 19.346 36 21 36 z" fill="#4F51C0" />
</svg>