<svg xmlns="http://www.w3.org/2000/svg" viewBox="0 0 50 50">
  <path d="M20.09375 0C19.792969 0 19.511719 0.0859375 19.3125 0.1875C19.113281 0.386719 19 0.699219 19 1L19 2C19 2.199219 19.085938 2.394531 19.1875 2.59375L21 5.3125L21 6C20.398438 6 20 6.398438 20 7L20 8L30 8L30 7C30 6.398438 29.601563 6 29 6L29 3C29 2.601563 28.804688 2.195313 28.40625 2.09375C25.207031 0.695313 20.292969 0 20.09375 0 Z M 19 10C18.398438 10 18 10.398438 18 11L18 15L32 15L32 11C32 10.398438 31.601563 10 31 10 Z M 15 17C14.398438 17 14 17.398438 14 18L14 38C14 44.300781 18.207031 47.710938 18.40625 47.8125C18.605469 47.914063 18.800781 48 19 48L31 48C31.199219 48 31.394531 47.914063 31.59375 47.8125C31.792969 47.710938 36 44.300781 36 38L36 18C36 17.398438 35.601563 17 35 17Z" fill="#4F51C0" />
</svg>