<svg xmlns="http://www.w3.org/2000/svg" viewBox="0 0 50 50">
  <path d="M33 4.0058594C32.230215 4.0058594 31.460443 4.2973697 30.878906 4.8789062C29.919884 5.8379291 29.766152 7.3027527 30.388672 8.4414062L5.1054688 33.724609C2.3014688 36.528609 2.3014688 41.090531 5.1054688 43.894531C6.5074688 45.296531 8.3494063 45.996094 10.191406 45.996094C12.033406 45.996094 13.873391 45.297531 15.275391 43.894531L40.556641 18.613281C41.006298 18.861161 41.501931 19 42 19C42.765906 19 43.539603 18.702585 44.121094 18.121094C45.284167 16.958021 45.284167 15.041979 44.121094 13.878906L35.121094 4.8789062C34.539557 4.2973697 33.769785 4.0058594 33 4.0058594 z M 33 5.9941406C33.253784 5.9941406 33.507568 6.0935053 33.707031 6.2929688L42.707031 15.292969C43.105958 15.691896 43.105958 16.308104 42.707031 16.707031C42.506522 16.90754 42.258094 17 42 17C41.741906 17 41.493478 16.90754 41.292969 16.707031L41.171875 16.585938L36.994141 12.408203L35.580078 13.822266L39.050781 17.292969L35.341797 21L20.658203 21L31.707031 9.9492188L32.75 10.992188L34.166016 9.578125L32.414062 7.828125L32.292969 7.7070312C31.894042 7.3081043 31.894042 6.6918957 32.292969 6.2929688C32.492432 6.0935052 32.746216 5.9941406 33 5.9941406 z M 42 27.015625C41.72025 27.015625 41.4405 27.122891 41.25 27.337891C40.815 27.830891 37 32.239219 37 35.199219C37 37.956219 39.243 40.199219 42 40.199219C44.757 40.199219 47 37.956219 47 35.199219C47 32.239219 43.185 27.830891 42.75 27.337891C42.5595 27.122891 42.27975 27.015625 42 27.015625 z" fill="#4F51C0" />
</svg>