<svg xmlns="http://www.w3.org/2000/svg" viewBox="0 0 50 50">
  <path d="M45.65625 1.03125C44.738281 1.015625 43.902344 1.347656 43.25 1.9375L25.4375 17L25.1875 17.1875L32.78125 24.84375L48.1875 6.8125C49.324219 5.390625 49.226563 3.320313 48.03125 2.125C47.414063 1.4375 46.578125 1.050781 45.65625 1.03125 Z M 23.625 18.46875L12.75 27.46875L22.46875 37.21875L31.5 26.375 Z M 11.125 28.6875L2.8125 33.28125C1.851563 33.691406 1.160156 34.609375 1 35.75C0.992188 35.796875 1 35.859375 1 35.90625C1 36.207031 1.035156 37.664063 1.46875 39.5L7.46875 35.65625C7.933594 35.355469 8.542969 35.503906 8.84375 35.96875C9.144531 36.433594 8.996094 37.042969 8.53125 37.34375L2.0625 41.5C2.59375 42.886719 3.402344 44.304688 4.59375 45.5C5.636719 46.542969 6.84375 47.285156 8.03125 47.8125L10.5 44.40625C10.824219 43.960938 11.425781 43.859375 11.875 44.1875C12.320313 44.511719 12.417969 45.148438 12.09375 45.59375L10 48.5C11.402344 48.882813 12.660156 49.03125 13.5 49.03125C13.734375 49.03125 13.933594 49.015625 14.09375 49C15.199219 49 16.269531 48.273438 16.6875 47.28125L21.3125 38.90625Z" fill="#4F51C0" />
</svg>