<svg xmlns="http://www.w3.org/2000/svg" viewBox="0 0 50 50">
  <path d="M36.03125 0.09375C35.988281 0.101563 35.945313 0.113281 35.90625 0.125C35.53125 0.191406 35.230469 0.464844 35.125 0.828125C35.019531 1.195313 35.128906 1.585938 35.40625 1.84375L39.21875 5.625L39.28125 5.71875C39.300781 5.742188 39.320313 5.761719 39.34375 5.78125C40.292969 7.011719 40.71875 8.496094 40.0625 10.625L37.0625 7.65625C36.855469 7.433594 36.554688 7.320313 36.25 7.34375C36.21875 7.34375 36.1875 7.34375 36.15625 7.34375C35.78125 7.410156 35.480469 7.683594 35.375 8.046875C35.269531 8.414063 35.378906 8.804688 35.65625 9.0625L39.1875 12.625C38.703125 13.5625 38.0625 14.605469 37.21875 15.78125L34.25 12.71875C34.046875 12.484375 33.746094 12.359375 33.4375 12.375C33.394531 12.382813 33.351563 12.394531 33.3125 12.40625C32.953125 12.480469 32.664063 12.75 32.558594 13.101563C32.453125 13.453125 32.550781 13.835938 32.8125 14.09375L36 17.40625C35.3125 18.277344 34.539063 19.214844 33.65625 20.21875L30.625 17.21875C30.417969 16.996094 30.117188 16.882813 29.8125 16.90625C29.78125 16.90625 29.75 16.90625 29.71875 16.90625C29.34375 16.972656 29.042969 17.246094 28.9375 17.609375C28.832031 17.976563 28.941406 18.367188 29.21875 18.625L32.28125 21.71875C32.292969 21.730469 32.300781 21.738281 32.3125 21.75C31.414063 22.714844 30.53125 23.539063 29.6875 24.25L26.25 20.84375C26.0625 20.644531 25.804688 20.535156 25.53125 20.53125C25.46875 20.535156 25.40625 20.546875 25.34375 20.5625C24.984375 20.636719 24.695313 20.90625 24.589844 21.257813C24.484375 21.609375 24.582031 21.992188 24.84375 22.25L28.0625 25.46875C26.878906 26.304688 25.78125 26.910156 24.78125 27.34375C24.761719 27.320313 24.742188 27.300781 24.71875 27.28125L21.28125 23.875C21.074219 23.652344 20.773438 23.539063 20.46875 23.5625C20.4375 23.5625 20.40625 23.5625 20.375 23.5625C20 23.628906 19.699219 23.902344 19.59375 24.265625C19.488281 24.632813 19.597656 25.023438 19.875 25.28125L22.625 28.0625C21.570313 28.328125 20.710938 28.4375 20.15625 28.4375C18.492188 28.4375 17.398438 27.964844 16.875 27.46875C16.863281 27.457031 16.855469 27.449219 16.84375 27.4375C16.828125 27.421875 16.824219 27.390625 16.8125 27.375C16.785156 27.339844 16.753906 27.308594 16.71875 27.28125L12.84375 23.40625C12.636719 23.183594 12.335938 23.070313 12.03125 23.09375C11.988281 23.101563 11.945313 23.113281 11.90625 23.125C11.53125 23.191406 11.230469 23.464844 11.125 23.828125C11.019531 24.195313 11.128906 24.585938 11.40625 24.84375L15.03125 28.46875C15.082031 29.210938 15.234375 29.921875 15.375 30.5625C15.59375 31.535156 15.761719 32.355469 15.5 32.875C15.234375 33.410156 14.558594 33.792969 13.625 34.3125C12.125 35.148438 10.078125 36.308594 8 39.0625C4.976563 43.066406 4.148438 47.148438 6 49C6.652344 49.652344 7.515625 50 8.46875 50C10.410156 50 12.789063 48.589844 15.53125 45.8125C18.195313 43.113281 19.226563 40.097656 19.90625 38.09375C20.164063 37.332031 20.449219 36.453125 20.65625 36.25C22.554688 34.386719 23.976563 34.101563 25.78125 33.71875C28.402344 33.164063 31.671875 32.460938 37.25 27.0625C43.066406 21.4375 46 16.066406 46 11.125C46 6.445313 42.445313 4.371094 40.5 4.0625L36.84375 0.40625C36.636719 0.183594 36.335938 0.0703125 36.03125 0.09375 Z M 28 1.0625C27.957031 1.070313 27.914063 1.082031 27.875 1.09375C27.5 1.160156 27.199219 1.433594 27.09375 1.796875C26.988281 2.164063 27.097656 2.554688 27.375 2.8125L29.96875 5.40625C30.367188 5.804688 31.007813 5.804688 31.40625 5.40625C31.804688 5.007813 31.804688 4.367188 31.40625 3.96875L28.8125 1.375C28.605469 1.152344 28.304688 1.039063 28 1.0625 Z M 23.0625 4.25C22.6875 4.316406 22.386719 4.589844 22.28125 4.953125C22.175781 5.320313 22.285156 5.710938 22.5625 5.96875L25.375 8.78125C25.617188 9.078125 26.003906 9.214844 26.378906 9.128906C26.75 9.042969 27.042969 8.75 27.128906 8.378906C27.214844 8.003906 27.078125 7.617188 26.78125 7.375L23.96875 4.5625C23.761719 4.339844 23.460938 4.226563 23.15625 4.25C23.125 4.25 23.09375 4.25 23.0625 4.25 Z M 30.21875 6.40625C29.84375 6.472656 29.542969 6.746094 29.4375 7.109375C29.332031 7.476563 29.441406 7.867188 29.71875 8.125L31.59375 10C31.835938 10.296875 32.222656 10.433594 32.597656 10.347656C32.96875 10.261719 33.261719 9.96875 33.347656 9.597656C33.433594 9.222656 33.296875 8.835938 33 8.59375L31.125 6.71875C30.917969 6.496094 30.617188 6.382813 30.3125 6.40625C30.28125 6.40625 30.25 6.40625 30.21875 6.40625 Z M 18.9375 8C18.894531 8.007813 18.851563 8.019531 18.8125 8.03125C18.4375 8.097656 18.136719 8.371094 18.03125 8.734375C17.925781 9.101563 18.035156 9.492188 18.3125 9.75L21.0625 12.46875C21.304688 12.765625 21.691406 12.902344 22.066406 12.816406C22.4375 12.730469 22.730469 12.4375 22.816406 12.066406C22.902344 11.691406 22.765625 11.304688 22.46875 11.0625L19.75 8.3125C19.542969 8.089844 19.242188 7.976563 18.9375 8 Z M 27.21875 10.40625C26.84375 10.472656 26.542969 10.746094 26.4375 11.109375C26.332031 11.476563 26.441406 11.867188 26.71875 12.125L28.59375 14C28.835938 14.296875 29.222656 14.433594 29.597656 14.347656C29.96875 14.261719 30.261719 13.96875 30.347656 13.597656C30.433594 13.222656 30.296875 12.835938 30 12.59375L28.125 10.71875C27.917969 10.496094 27.617188 10.382813 27.3125 10.40625C27.28125 10.40625 27.25 10.40625 27.21875 10.40625 Z M 15.25 12.4375C14.875 12.503906 14.574219 12.777344 14.46875 13.140625C14.363281 13.507813 14.472656 13.898438 14.75 14.15625L17.3125 16.71875C17.554688 17.015625 17.941406 17.152344 18.316406 17.066406C18.6875 16.980469 18.980469 16.6875 19.066406 16.316406C19.152344 15.941406 19.015625 15.554688 18.71875 15.3125L16.15625 12.75C15.96875 12.550781 15.710938 12.441406 15.4375 12.4375C15.40625 12.4375 15.375 12.4375 15.34375 12.4375C15.3125 12.4375 15.28125 12.4375 15.25 12.4375 Z M 23.21875 14.40625C22.84375 14.472656 22.542969 14.746094 22.4375 15.109375C22.332031 15.476563 22.441406 15.867188 22.71875 16.125L24.59375 18C24.835938 18.296875 25.222656 18.433594 25.597656 18.347656C25.96875 18.261719 26.261719 17.96875 26.347656 17.597656C26.433594 17.222656 26.296875 16.835938 26 16.59375L24.125 14.71875C23.917969 14.496094 23.617188 14.382813 23.3125 14.40625C23.28125 14.40625 23.25 14.40625 23.21875 14.40625 Z M 12.71875 17.78125C12.675781 17.789063 12.632813 17.800781 12.59375 17.8125C12.21875 17.878906 11.917969 18.152344 11.8125 18.515625C11.707031 18.882813 11.816406 19.273438 12.09375 19.53125L14.28125 21.71875C14.679688 22.117188 15.320313 22.117188 15.71875 21.71875C16.117188 21.320313 16.117188 20.679688 15.71875 20.28125L13.53125 18.09375C13.324219 17.871094 13.023438 17.757813 12.71875 17.78125 Z M 19.21875 18.40625C18.84375 18.472656 18.542969 18.746094 18.4375 19.109375C18.332031 19.476563 18.441406 19.867188 18.71875 20.125L20.4375 21.875C20.835938 22.273438 21.476563 22.273438 21.875 21.875C22.273438 21.476563 22.273438 20.835938 21.875 20.4375L20.125 18.71875C19.917969 18.496094 19.617188 18.382813 19.3125 18.40625C19.28125 18.40625 19.25 18.40625 19.21875 18.40625 Z M 16.21875 22.40625C15.84375 22.472656 15.542969 22.746094 15.4375 23.109375C15.332031 23.476563 15.441406 23.867188 15.71875 24.125L16.9375 25.375C17.335938 25.773438 17.976563 25.773438 18.375 25.375C18.773438 24.976563 18.773438 24.335938 18.375 23.9375L17.125 22.71875C16.917969 22.496094 16.617188 22.382813 16.3125 22.40625C16.28125 22.40625 16.25 22.40625 16.21875 22.40625Z" fill="#4F51C0" />
</svg>