<svg xmlns="http://www.w3.org/2000/svg" viewBox="0 0 50 50">
  <path d="M25 4C20.660156 4 16.722656 5.273438 13.8125 7.40625C10.902344 9.539063 9 12.59375 9 16C9 19.40625 10.902344 22.460938 13.8125 24.59375C14.921875 25.40625 16.191406 26.085938 17.5625 26.625C11.707031 27.609375 7 29.765625 7 33L7 38.375C7 42.09375 11.886719 48 25 48C37.414063 48 43 42.367188 43 38.375L43 33C43 29.765625 38.292969 27.609375 32.4375 26.625C33.808594 26.085938 35.078125 25.40625 36.1875 24.59375C39.097656 22.460938 41 19.40625 41 16C41 12.59375 39.097656 9.539063 36.1875 7.40625C33.277344 5.273438 29.339844 4 25 4 Z M 25 6C28.945313 6 32.480469 7.183594 35 9.03125C37.519531 10.878906 39 13.332031 39 16C39 18.667969 37.519531 21.121094 35 22.96875C32.480469 24.816406 28.945313 26 25 26C21.054688 26 17.519531 24.816406 15 22.96875C12.480469 21.121094 11 18.667969 11 16C11 13.332031 12.480469 10.878906 15 9.03125C17.519531 7.183594 21.054688 6 25 6 Z M 25.1875 9.15625C25.132813 9.164063 25.082031 9.171875 25.03125 9.1875C24.90625 9.21875 24.792969 9.269531 24.6875 9.34375L17.3125 14.09375C16.847656 14.394531 16.714844 15.019531 17.015625 15.484375C17.316406 15.949219 17.941406 16.082031 18.40625 15.78125L25.78125 11.03125C26.207031 10.804688 26.410156 10.304688 26.265625 9.847656C26.117188 9.386719 25.664063 9.097656 25.1875 9.15625 Z M 30.8125 10.9375C30.652344 10.964844 30.503906 11.027344 30.375 11.125L18.5625 18.75C18.230469 18.925781 18.023438 19.273438 18.027344 19.648438C18.03125 20.023438 18.246094 20.363281 18.585938 20.53125C18.921875 20.699219 19.324219 20.660156 19.625 20.4375L31.4375 12.8125C31.84375 12.589844 32.042969 12.113281 31.917969 11.664063C31.789063 11.214844 31.371094 10.914063 30.90625 10.9375C30.875 10.9375 30.84375 10.9375 30.8125 10.9375 Z M 32.03125 15.59375C31.875 15.609375 31.726563 15.664063 31.59375 15.75L24.21875 20.53125C23.871094 20.703125 23.65625 21.058594 23.664063 21.445313C23.667969 21.832031 23.898438 22.179688 24.253906 22.339844C24.605469 22.5 25.019531 22.4375 25.3125 22.1875L32.6875 17.4375C33.089844 17.191406 33.265625 16.695313 33.105469 16.25C32.949219 15.804688 32.5 15.53125 32.03125 15.59375 Z M 25 28C34.914063 28 41 30.910156 41 33C41 35.089844 34.914063 38 25 38C15.085938 38 9 35.089844 9 33C9 30.910156 15.085938 28 25 28 Z M 25 31C18.925781 31 14 31.894531 14 33C14 34.105469 18.925781 35 25 35C31.074219 35 36 34.105469 36 33C36 31.894531 31.074219 31 25 31Z" fill="#4F51C0" />
</svg>