<svg xmlns="http://www.w3.org/2000/svg" viewBox="0 0 50 50">
  <path d="M19 5C17.347656 5 16 6.347656 16 8L16 11L3 11C1.347656 11 0 12.347656 0 14L0 19L6 19C6 17.898438 6.898438 17 8 17L12 17C13.101563 17 14 17.898438 14 19L36 19C36 17.898438 36.898438 17 38 17L42 17C43.101563 17 44 17.898438 44 19L50 19L50 14C50 12.347656 48.652344 11 47 11L34 11L34 8C34 6.347656 32.652344 5 31 5 Z M 19 7L31 7C31.550781 7 32 7.449219 32 8L32 11L18 11L18 8C18 7.449219 18.449219 7 19 7 Z M 8 19L8 21L12 21L12 19 Z M 38 19L38 21L42 21L42 19 Z M 0 21L0 42C0 43.652344 1.347656 45 3 45L47 45C48.652344 45 50 43.652344 50 42L50 21L44 21C44 22.101563 43.101563 23 42 23L38 23C36.898438 23 36 22.101563 36 21L14 21C14 22.101563 13.101563 23 12 23L8 23C6.898438 23 6 22.101563 6 21 Z M 23 25L27 25L27 29L31 29L31 33L27 33L27 37L23 37L23 33L19 33L19 29L23 29Z" fill="#4F51C0" />
</svg>