<svg xmlns="http://www.w3.org/2000/svg" viewBox="0 0 50 50">
  <path d="M22 3C20.347656 3 19 4.347656 19 6L19 14L31 14L31 6C31 4.347656 29.652344 3 28 3 Z M 19.34375 16C18.109375 16 17.023438 16.730469 16.5625 17.875L11.90625 29.5625C11.292969 31.089844 11.105469 32.75 11.375 34.375L12.71875 42.5C12.960938 43.953125 14.214844 45 15.6875 45L34.3125 45C35.785156 45 37.007813 43.953125 37.25 42.5L38.625 34.375C38.894531 32.753906 38.703125 31.09375 38.09375 29.5625L33.4375 17.875C32.980469 16.726563 31.890625 16 30.65625 16 Z M 24 18L26 18L26 31L24 31 Z M 24 32L26 32L27 38L26 38L25.34375 36L25 38L23 38Z" fill="#4F51C0" />
</svg>