<svg xmlns="http://www.w3.org/2000/svg" viewBox="0 0 30 30">
  <path d="M8 3 A 1.0001 1.0001 0 1 0 8 5L22 5 A 1.0001 1.0001 0 1 0 22 3L8 3 z M 7 7C7 7.979 7.0244062 8.9821875 7.0664062 9.9921875C8.6894062 9.9561875 10 8.631 10 7L7 7 z M 12 7C12 9.698 9.847875 11.889422 7.171875 11.982422C7.655875 19.605422 9 27 9 27L13 27L14 14C14 13.447 14.448 13 15 13C15.552 13 16 13.447 16 14L17 27L21 27C21 27 22.344125 19.605422 22.828125 11.982422C20.152125 11.889422 18 9.698 18 7L12 7 z M 20 7C20 8.631 21.310594 9.9561875 22.933594 9.9921875C22.975594 8.9821875 23 7.979 23 7L20 7 z" fill="#4f51c0" />
</svg>