<svg xmlns="http://www.w3.org/2000/svg" viewBox="0 0 50 50">
  <path d="M5 0C2.253906 0 0 2.253906 0 5L0 20.90625C0 21.085938 0.0078125 21.253906 0.03125 21.4375C0.0507813 21.628906 0.0859375 21.816406 0.125 22C0.226563 22.476563 0.386719 22.929688 0.59375 23.34375L0.625 23.375L2.9375 27.5C3.8125 29 5.457031 30 7.3125 30L12 30L12 28L7.3125 28C6.175781 28 5.214844 27.390625 4.6875 26.5L4.40625 26L45.59375 26L45.3125 26.5C44.800781 27.355469 43.699219 28 42.6875 28L38 28L38 30L42.6875 30C44.46875 30 46.167969 29.035156 47.0625 27.5L49.375 23.375L49.40625 23.34375C49.613281 22.929688 49.773438 22.476563 49.875 22C49.914063 21.816406 49.949219 21.628906 49.96875 21.4375C49.992188 21.253906 50 21.085938 50 20.90625L50 5C50 2.253906 47.746094 0 45 0 Z M 38 6L40 6L40 9.25L42.8125 7.625L43.8125 9.375L41 11L43.8125 12.625L42.8125 14.375L40 12.75L40 16L38 16L38 12.75L35.1875 14.375L34.1875 12.625L37 11L34.1875 9.375L35.21875 7.625L38 9.25 Z M 2.25 22L47.75 22C47.695313 22.148438 47.664063 22.296875 47.59375 22.4375L46.71875 24L3.28125 24L2.40625 22.4375C2.335938 22.296875 2.304688 22.148438 2.25 22 Z M 16 28C14.894531 28 14 28.894531 14 30C14 31.105469 14.894531 32 16 32C17.105469 32 18 31.105469 18 30C18 28.894531 17.105469 28 16 28 Z M 25 28C23.894531 28 23 28.894531 23 30C23 31.105469 23.894531 32 25 32C26.105469 32 27 31.105469 27 30C27 28.894531 26.105469 28 25 28 Z M 34 28C32.894531 28 32 28.894531 32 30C32 31.105469 32.894531 32 34 32C35.105469 32 36 31.105469 36 30C36 28.894531 35.105469 28 34 28 Z M 15 34C13.894531 34 13 34.894531 13 36C13 37.105469 13.894531 38 15 38C16.105469 38 17 37.105469 17 36C17 34.894531 16.105469 34 15 34 Z M 25 34C23.894531 34 23 34.894531 23 36C23 37.105469 23.894531 38 25 38C26.105469 38 27 37.105469 27 36C27 34.894531 26.105469 34 25 34 Z M 35 34C33.894531 34 33 34.894531 33 36C33 37.105469 33.894531 38 35 38C36.105469 38 37 37.105469 37 36C37 34.894531 36.105469 34 35 34 Z M 13 40C11.894531 40 11 40.894531 11 42C11 43.105469 11.894531 44 13 44C14.105469 44 15 43.105469 15 42C15 40.894531 14.105469 40 13 40 Z M 25 40C23.894531 40 23 40.894531 23 42C23 43.105469 23.894531 44 25 44C26.105469 44 27 43.105469 27 42C27 40.894531 26.105469 40 25 40 Z M 37 40C35.894531 40 35 40.894531 35 42C35 43.105469 35.894531 44 37 44C38.105469 44 39 43.105469 39 42C39 40.894531 38.105469 40 37 40 Z M 9 46C7.894531 46 7 46.894531 7 48C7 49.105469 7.894531 50 9 50C10.105469 50 11 49.105469 11 48C11 46.894531 10.105469 46 9 46 Z M 25 46C23.894531 46 23 46.894531 23 48C23 49.105469 23.894531 50 25 50C26.105469 50 27 49.105469 27 48C27 46.894531 26.105469 46 25 46 Z M 41 46C39.894531 46 39 46.894531 39 48C39 49.105469 39.894531 50 41 50C42.105469 50 43 49.105469 43 48C43 46.894531 42.105469 46 41 46Z" fill="#4B4B4B" />
</svg>