<svg xmlns="http://www.w3.org/2000/svg" viewBox="0 0 50 50">
  <path d="M5 4C4.596 4 4.2311719 4.2441875 4.0761719 4.6171875C3.9211719 4.9911875 4.0069688 5.4210313 4.2929688 5.7070312L14.292969 15.707031C14.479969 15.895031 14.735 16 15 16L34 16L34 35C34 35.265 34.104969 35.520031 34.292969 35.707031L44.292969 45.707031C44.483969 45.898031 44.74 46 45 46C45.129 46 45.258812 45.974828 45.382812 45.923828C45.755812 45.768828 46 45.404 46 45L46 5C46 4.448 45.552 4 45 4L5 4 z M 15.09375 19.003906C14.801344 18.975734 14.507469 19.077719 14.292969 19.292969L4.2929688 29.292969C4.1049688 29.479969 4 29.735 4 30L4 45C4 45.552 4.448 46 5 46L20 46C20.265 46 20.520031 45.895031 20.707031 45.707031L30.707031 35.707031C30.993031 35.421031 31.078828 34.991188 30.923828 34.617188C30.768828 34.244188 30.404 34 30 34L16 34L16 20C16 19.596 15.755813 19.231172 15.382812 19.076172C15.288812 19.037172 15.191219 19.013297 15.09375 19.003906 z" fill="#4B4B4B" />
</svg>