<svg xmlns="http://www.w3.org/2000/svg" viewBox="0 0 50 50">
  <path d="M15.984375 0.98632812 A 1.0001 1.0001 0 0 0 15 2L15 7L13 7C12.447 7 12 7.447 12 8L12 14L29 14L29 8C29 7.447 28.553 7 28 7L26 7L26 2 A 1.0001 1.0001 0 0 0 24.984375 0.98632812 A 1.0001 1.0001 0 0 0 24 2L24 7L17 7L17 2 A 1.0001 1.0001 0 0 0 15.984375 0.98632812 z M 10.28125 16C5.29225 19.224 2 24.736 2 31C2 40.941 10.283 49 20.5 49C28.160438 49 34.707287 44.456966 37.515625 38L47 38 A 1.0001 1.0001 0 0 0 48 37L48 27 A 1.0001 1.0001 0 0 0 47 26L38.244141 26C37.01315 21.862463 34.322357 18.328969 30.71875 16L10.28125 16 z M 12.960938 24C13.059 23.996078 13.158312 24.006453 13.257812 24.033203L20.5 25.964844L27.742188 24.033203C28.124188 23.930203 28.506047 24.071563 28.748047 24.351562C28.845047 24.462563 28.924844 24.590187 28.964844 24.742188C29.107844 25.276188 28.790813 25.824797 28.257812 25.966797L20.757812 27.966797C20.672812 27.988797 20.587 28 20.5 28C20.413 28 20.327188 27.988797 20.242188 27.966797L12.742188 25.966797C12.209188 25.824797 11.890203 25.277187 12.033203 24.742188C12.069203 24.608187 12.130937 24.489719 12.210938 24.386719C12.390937 24.155719 12.66675 24.011766 12.960938 24 z M 12.960938 28C13.059 27.996078 13.158312 28.006453 13.257812 28.033203L20.5 29.964844L27.742188 28.033203C28.124188 27.930203 28.506047 28.071563 28.748047 28.351562C28.845047 28.462563 28.924844 28.590187 28.964844 28.742188C29.107844 29.276188 28.790813 29.824797 28.257812 29.966797L20.757812 31.966797C20.672812 31.988797 20.587 32 20.5 32C20.413 32 20.327188 31.988797 20.242188 31.966797L12.742188 29.966797C12.209188 29.824797 11.890203 29.277187 12.033203 28.742188C12.069203 28.608187 12.130937 28.489719 12.210938 28.386719C12.390937 28.155719 12.66675 28.011766 12.960938 28 z M 34 28L46 28L46 36L34 36L34 28 z M 12.960938 32C13.059 31.996078 13.158312 32.006453 13.257812 32.033203L20.5 33.964844L27.742188 32.033203C28.124188 31.930203 28.506047 32.071562 28.748047 32.351562C28.845047 32.462562 28.924844 32.590188 28.964844 32.742188C29.107844 33.276187 28.790813 33.824797 28.257812 33.966797L20.757812 35.966797C20.672812 35.988797 20.587 36 20.5 36C20.413 36 20.327188 35.988797 20.242188 35.966797L12.742188 33.966797C12.209188 33.824797 11.890203 33.277187 12.033203 32.742188C12.069203 32.608187 12.130937 32.489719 12.210938 32.386719C12.390937 32.155719 12.66675 32.011766 12.960938 32 z M 12.960938 36C13.059 35.996078 13.158312 36.006453 13.257812 36.033203L20.5 37.964844L27.742188 36.033203C28.124188 35.930203 28.506047 36.071562 28.748047 36.351562C28.845047 36.462562 28.924844 36.590188 28.964844 36.742188C29.107844 37.276187 28.790813 37.824797 28.257812 37.966797L20.757812 39.966797C20.672812 39.988797 20.587 40 20.5 40C20.413 40 20.327188 39.988797 20.242188 39.966797L12.742188 37.966797C12.209188 37.824797 11.890203 37.277187 12.033203 36.742188C12.069203 36.608187 12.130937 36.489719 12.210938 36.386719C12.390937 36.155719 12.66675 36.011766 12.960938 36 z" fill="#4B4B4B" />
</svg>