<svg xmlns="http://www.w3.org/2000/svg" viewBox="0 0 50 50">
  <path d="M25.099609 2C23.693798 2 22.25857 2.5416711 21.095703 3.4277344C19.932837 4.3137976 19 5.6148751 19 7.1796875L19 7.9335938C12.020665 10.137298 7 16.05017 7 23L7 28.050781L6 28.050781C5.1833333 28.050781 4.4261365 28.380504 3.8828125 28.923828L3.8789062 28.927734L3.8730469 28.933594C3.3475003 29.473709 3 30.221993 3 31.050781C3 31.136267 3.0182277 31.217015 3.0253906 31.300781L3 31.300781L3 40C3 42.195455 4.8045455 44 7 44L7.6855469 44C8.8117968 46.360777 11.214598 48 14 48L36 48C38.785402 48 41.188203 46.360777 42.314453 44L43 44C45.195455 44 47 42.195455 47 40L47 31.199219L46.970703 31.199219C46.975268 31.132193 46.990234 31.068098 46.990234 31C46.990234 30.171212 46.642738 29.422962 46.117188 28.882812L46.111328 28.876953L46.107422 28.873047C45.564132 28.329758 44.806901 28 43.990234 28L43 28L43 23C43 16.05017 37.979335 10.137298 31 7.9335938L31 7.1796875C31 5.6437351 30.138923 4.3384105 29.023438 3.4433594C27.907952 2.5483083 26.505421 2 25.099609 2 z M 25.099609 4C25.953798 4 27.00197 4.3864574 27.771484 5.0039062C28.540999 5.6213552 29 6.4056399 29 7.1796875L29 7.4121094C27.711421 7.1507975 26.376331 7 25 7C23.623669 7 22.288579 7.1507975 21 7.4121094L21 7.1796875C21 6.4344999 21.48646 5.645968 22.308594 5.0195312C23.130727 4.3930945 24.245421 4 25.099609 4 z M 24.976562 12.001953C30.089562 12.119953 34.386594 14.090156 36.808594 17.410156C37.134594 17.856156 37.035844 18.483594 36.589844 18.808594C36.143844 19.134594 35.518359 19.035844 35.193359 18.589844C33.140359 15.776844 29.416562 14.104 24.976562 14C20.582563 14.104 16.859594 15.775844 14.808594 18.589844C14.611594 18.857844 14.307047 19 13.998047 19C13.794047 19 13.587156 18.938594 13.410156 18.808594C12.964156 18.482594 12.866406 17.856156 13.191406 17.410156C15.613406 14.090156 19.908562 12.119953 24.976562 12.001953 z M 36 20.056641C36.552 20.056641 37 20.504641 37 21.056641L37 23.107422C37 23.659422 36.552 24.107422 36 24.107422C35.448 24.107422 35 23.659422 35 23.107422L35 21.056641C35 20.504641 35.448 20.056641 36 20.056641 z M 16 28L34 28C35.1 28 36 28.9 36 30L36 40C36 41.1 35.1 42 34 42L16 42C14.9 42 14 41.1 14 40L14 30C14 28.9 14.9 28 16 28 z M 17 30C16.448 30 16 30.448 16 31C16 31.552 16.448 32 17 32L33 32C33.552 32 34 31.552 34 31C34 30.448 33.552 30 33 30L17 30 z M 43 30L43.990234 30C44.271269 30 44.511194 30.110983 44.6875 30.285156C44.877981 30.48392 44.990234 30.7318 44.990234 31C44.990234 31.554545 44.54478 32 43.990234 32L43 32L43 30 z M 6 30.050781L7 30.050781L7 32.050781L6 32.050781C5.4454545 32.050781 5 31.605327 5 31.050781C5 30.782581 5.1122531 30.5347 5.3027344 30.335938C5.4790408 30.161763 5.7189658 30.050781 6 30.050781 z M 45 33.810547L45 40C45 41.104545 44.104545 42 43 42L42.919922 42C42.967114 41.672415 43 41.340447 43 41L43 34L43.990234 34C44.345643 34 44.682453 33.926217 45 33.810547 z M 5 33.863281C5.3149207 33.976811 5.6480538 34.050781 6 34.050781L7 34.050781L7 41C7 41.340447 7.0328862 41.672415 7.0800781 42L7 42C5.8954545 42 5 41.104545 5 40L5 33.863281 z M 18 37C17.448 37 17 37.448 17 38C17 38.552 17.448 39 18 39L20 39C20.552 39 21 38.552 21 38C21 37.448 20.552 37 20 37L18 37 z M 24 37C23.448 37 23 37.448 23 38C23 38.552 23.448 39 24 39L26 39C26.552 39 27 38.552 27 38C27 37.448 26.552 37 26 37L24 37 z M 30 37C29.448 37 29 37.448 29 38C29 38.552 29.448 39 30 39L32 39C32.552 39 33 38.552 33 38C33 37.448 32.552 37 32 37L30 37 z" fill="#4B4B4B" />
</svg>