<svg xmlns="http://www.w3.org/2000/svg" viewBox="0 0 50 50">
  <path d="M30.90625 2C28.246094 2 26.660156 2.496094 26.125 2.625C25.832031 2.695313 25.6875 2.75 25.25 2.90625C24.8125 3.0625 24.226563 3.277344 23.53125 3.53125C22.144531 4.039063 20.335938 4.710938 18.46875 5.40625C14.734375 6.792969 10.796875 8.277344 9.59375 8.75C8.949219 9 8.429688 9.238281 8 9.59375C7.570313 9.949219 7.257813 10.457031 7.125 10.96875C6.859375 11.984375 7.140625 12.875 7.40625 14.0625C7.40625 14.0625 7.40625 14.09375 7.40625 14.09375C7.414063 14.136719 8 17.449219 8.40625 18.84375C8.800781 20.195313 9.589844 21.230469 10.8125 21.6875C20.738281 25.335938 27.285156 25 29 25C29.0625 24.996094 29.125 24.984375 29.1875 24.96875C29.320313 24.941406 29.449219 24.890625 29.5625 24.8125L29.625 24.78125C29.648438 24.761719 29.667969 24.742188 29.6875 24.71875L30.6875 24.0625L30.9375 26.375C30.746094 26.597656 30.503906 26.902344 30 27.46875C29.371094 28.175781 28.660156 28.914063 28.40625 29.15625C28.382813 29.175781 28.363281 29.195313 28.34375 29.21875C28.339844 29.222656 28.316406 29.246094 28.3125 29.25C28.289063 29.269531 28.269531 29.289063 28.25 29.3125C28.226563 29.332031 28.207031 29.351563 28.1875 29.375C28.1875 29.386719 28.1875 29.394531 28.1875 29.40625C28.164063 29.425781 28.144531 29.445313 28.125 29.46875C28.113281 29.5 28.101563 29.53125 28.09375 29.5625C28.066406 29.621094 28.046875 29.6875 28.03125 29.75C28.03125 29.761719 28.03125 29.769531 28.03125 29.78125C28.019531 29.800781 28.007813 29.824219 28 29.84375C28 29.855469 28 29.863281 28 29.875C27.976563 30.066406 28.007813 30.261719 28.09375 30.4375C28.101563 30.480469 28.113281 30.523438 28.125 30.5625L29.09375 33.5625C29.210938 33.898438 29.496094 34.148438 29.84375 34.21875C29.84375 34.21875 31.015625 34.457031 31.71875 34.59375C31.785156 35.242188 31.859375 35.902344 31.90625 36.375C31.9375 36.707031 31.949219 36.992188 31.96875 37.1875C31.976563 37.285156 31.996094 37.355469 32 37.40625C31.996094 37.398438 31.96875 37.484375 31.8125 37.65625C31.605469 37.882813 31.234375 38.1875 30.84375 38.5625C30.058594 39.3125 29.0625 40.417969 29.0625 42.03125C29.0625 42.808594 29.398438 43.488281 29.8125 44.125C30.226563 44.761719 30.785156 45.355469 31.375 45.90625C31.964844 46.457031 32.585938 46.972656 33.21875 47.34375C33.851563 47.714844 34.460938 48 35.1875 48L42.34375 48C43.140625 48 43.84375 47.605469 44.40625 47.0625C44.96875 46.519531 45.4375 45.820313 45.8125 44.96875C46.566406 43.269531 47 41 47 38.40625C47 32.875 43.90625 25.792969 43.90625 19.09375C43.90625 17.210938 44.425781 15.453125 44.875 14.65625C44.980469 14.46875 45.082031 14.285156 45.1875 14.125C45.199219 14.113281 45.207031 14.105469 45.21875 14.09375C45.226563 14.082031 45.242188 14.074219 45.25 14.0625C45.335938 13.960938 45.398438 13.84375 45.4375 13.71875C45.496094 13.621094 45.566406 13.558594 45.625 13.4375C45.875 12.925781 46 12.289063 46 11.375L46 6.28125C46 5.089844 45.359375 4.160156 44.6875 3.71875C44.015625 3.277344 43.367188 3.191406 43.09375 3.15625C43.117188 3.160156 42.492188 3.078125 41.625 2.96875C40.757813 2.859375 39.59375 2.738281 38.3125 2.59375C35.75 2.308594 32.777344 2 30.90625 2 Z M 9.09375 12.3125C10.457031 12.566406 19.613281 14.261719 26.71875 15.40625L27.84375 23C25.3125 23.019531 19.984375 22.929688 11.5 19.8125C10.738281 19.527344 10.625 19.386719 10.3125 18.3125C10.015625 17.292969 9.375 13.71875 9.375 13.71875C9.367188 13.699219 9.355469 13.675781 9.34375 13.65625C9.21875 13.101563 9.140625 12.664063 9.09375 12.3125 Z M 32.375 27.78125L36.8125 28.46875L35.125 30.0625L31 29.3125C31.167969 29.125 31.316406 28.988281 31.5 28.78125C31.96875 28.25 32.15625 28.03125 32.375 27.78125 Z M 37.84375 30.28125C37.808594 30.753906 37.746094 31.195313 37.625 31.5625C37.308594 32.5 36.84375 33.03125 35.84375 33.34375C35.3125 33.25 34.347656 33.066406 33.03125 32.8125C32.945313 32.796875 32.929688 32.796875 32.84375 32.78125C32.8125 32.769531 32.78125 32.757813 32.75 32.75C32.695313 32.738281 32.679688 32.761719 32.625 32.75C31.8125 32.59375 31.09375 32.429688 30.8125 32.375L30.46875 31.28125L35.25 32.125C35.554688 32.175781 35.867188 32.085938 36.09375 31.875 Z M 3 32L3 44L6 44L6 32 Z M 8 32L8 44L10 44L10 32 Z M 12 32L12 44L15 44L15 32 Z M 17 32L17 44L19 44L19 32Z" fill="#4B4B4B" />
</svg>