<svg xmlns="http://www.w3.org/2000/svg" viewBox="0 0 50 50">
  <path d="M9 5C8.448 5 8 5.448 8 6L8 9L10 9L10 6C10 5.448 9.552 5 9 5 z M 17 5C16.448 5 16 5.448 16 6L16 9L18 9L18 6C18 5.448 17.552 5 17 5 z M 25 5C24.448 5 24 5.448 24 6L24 9L26 9L26 6C26 5.448 25.552 5 25 5 z M 33 5C32.448 5 32 5.448 32 6L32 9L34 9L34 6C34 5.448 33.552 5 33 5 z M 41 5C40.448 5 40 5.448 40 6L40 9L42 9L42 6C42 5.448 41.552 5 41 5 z M 6 10C4.346 10 3 11.346 3 13L3 37C3 38.654 4.346 40 6 40L44 40C45.654 40 47 38.654 47 37L47 13C47 11.346 45.654 10 44 10L6 10 z M 10 15C11.105 15 12 15.895 12 17C12 18.105 11.105 19 10 19C8.895 19 8 18.105 8 17C8 15.895 8.895 15 10 15 z M 8 41L8 44C8 44.553 8.447 45 9 45C9.553 45 10 44.553 10 44L10 41L8 41 z M 16 41L16 44C16 44.553 16.447 45 17 45C17.553 45 18 44.553 18 44L18 41L16 41 z M 24 41L24 44C24 44.553 24.447 45 25 45C25.553 45 26 44.553 26 44L26 41L24 41 z M 32 41L32 44C32 44.553 32.447 45 33 45C33.553 45 34 44.553 34 44L34 41L32 41 z M 40 41L40 44C40 44.553 40.447 45 41 45C41.553 45 42 44.553 42 44L42 41L40 41 z" fill="#4B4B4B" />
</svg>