<svg xmlns="http://www.w3.org/2000/svg" viewBox="0 0 50 50">
  <path d="M9 6C4.039063 6 0 10.039063 0 15L0 35C0 39.964844 4.039063 44 9 44L29 44C33.964844 44 38 39.964844 38 35L38 15C38 10.039063 33.964844 6 29 6 Z M 49.03125 12C48.863281 11.992188 48.71875 12.015625 48.5625 12.09375L40 16.375L40 33.625L48.5625 37.90625C48.703125 37.976563 48.847656 38 49 38C49.183594 38 49.371094 37.941406 49.53125 37.84375C49.828125 37.660156 50 37.347656 50 37L50 13C50 12.652344 49.828125 12.339844 49.53125 12.15625C49.382813 12.066406 49.199219 12.007813 49.03125 12 Z M 16.40625 13L21.3125 13C21.613281 13 21.90625 13.199219 21.90625 13.5L22.1875 16.59375C22.988281 16.992188 23.707031 17.40625 24.40625 17.90625L27.3125 16.59375C27.613281 16.394531 27.894531 16.511719 28.09375 16.8125L30.59375 21.09375C30.695313 21.394531 30.707031 21.707031 30.40625 21.90625L27.90625 23.6875C28.003906 24.1875 28 24.601563 28 25C28 25.398438 28.007813 25.8125 27.90625 26.3125L30.6875 28.09375C30.988281 28.292969 31.105469 28.605469 30.90625 28.90625L28.40625 33.1875C28.207031 33.386719 27.894531 33.507813 27.59375 33.40625L24.6875 32.09375C23.988281 32.695313 23.300781 33.105469 22.5 33.40625L22.1875 36.5C22.1875 36.800781 21.894531 37 21.59375 37L16.6875 37C16.386719 37 16.09375 36.800781 16.09375 36.5L15.8125 33.40625C15.011719 33.003906 14.292969 32.59375 13.59375 32.09375L10.6875 33.40625C10.386719 33.605469 10.105469 33.488281 9.90625 33.1875L7.40625 28.90625C7.304688 28.605469 7.292969 28.292969 7.59375 28.09375L10.09375 26.3125C9.992188 25.8125 10 25.398438 10 25C10 24.601563 10.011719 24.1875 9.8125 23.6875L7.3125 21.90625C7.011719 21.707031 6.894531 21.394531 7.09375 21.09375L9.59375 16.8125C9.792969 16.613281 10.105469 16.492188 10.40625 16.59375L13.3125 17.90625C14.011719 17.304688 14.699219 16.894531 15.5 16.59375L15.8125 13.5C15.8125 13.199219 16.105469 13 16.40625 13 Z M 19 20C16.199219 20 14 22.199219 14 25C14 27.800781 16.199219 30 19 30C21.800781 30 24 27.800781 24 25C24 22.199219 21.800781 20 19 20Z" fill="#4B4B4B" />
</svg>