<svg xmlns="http://www.w3.org/2000/svg" viewBox="0 0 50 50">
  <path d="M28 0C27.398438 0 27 0.398438 27 1L27 9C27 9.601563 27.398438 10 28 10L31 10L31 11L24 11L24 6C24 5.449219 23.550781 5 23 5L10 5C9.96875 5 9.9375 5 9.90625 5C9.390625 5.046875 8.996094 5.480469 9 6L9 11L7.1875 11C6.085938 11 4.289063 11.40625 3.6875 14.40625L0 38.5L50 38.5L46.3125 14.3125C45.8125 11.414063 43.914063 11 42.8125 11L39 11L39 10L42 10C42.601563 10 43 9.601563 43 9L43 1C43 0.398438 42.601563 0 42 0 Z M 11 7L22 7L22 23L11 23 Z M 13 10L13 12L20 12L20 10 Z M 13 14L13 16L20 16L20 14 Z M 29.09375 15L40.3125 15C41.414063 15 42.5 15.898438 42.5 17L43 20.59375C43.101563 21.195313 42.988281 21.789063 42.6875 22.1875C42.289063 22.6875 41.792969 23 41.09375 23L29.1875 23C27.988281 23 27 22.011719 27 20.8125L27 17.09375C27 15.894531 27.894531 15 29.09375 15 Z M 13 18L13 20L20 20L20 18 Z M 28 25.09375L30.09375 25.09375C30.59375 25.09375 31 25.5 31 26L31 28.09375C31 28.59375 30.59375 29 30.09375 29L28 29C27.5 29 27.09375 28.59375 27.09375 28.09375L27.09375 26C27.09375 25.5 27.5 25.09375 28 25.09375 Z M 34 25.09375L36.09375 25.09375C36.59375 25.09375 37 25.5 37 26L37 28.09375C37 28.59375 36.59375 29 36.09375 29L34 29C33.5 29 33.09375 28.59375 33.09375 28.09375L33.09375 26C33.09375 25.5 33.5 25.09375 34 25.09375 Z M 40 25.09375L42.09375 25.09375C42.59375 25.09375 43 25.5 43 26L43 28.09375C43 28.59375 42.59375 29 42.09375 29L40 29C39.5 29 39.09375 28.59375 39.09375 28.09375L39.09375 26C39.09375 25.5 39.5 25.09375 40 25.09375 Z M 28 31.09375L30.09375 31.09375C30.59375 31.09375 31 31.5 31 32L31 34.09375C31 34.59375 30.59375 35 30.09375 35L28 35C27.5 35 27.09375 34.59375 27.09375 34.09375L27.09375 32C27.09375 31.5 27.5 31.09375 28 31.09375 Z M 34 31.09375L36.09375 31.09375C36.59375 31.09375 37 31.5 37 32L37 34.09375C37 34.59375 36.59375 35 36.09375 35L34 35C33.5 35 33.09375 34.59375 33.09375 34.09375L33.09375 32C33.09375 31.5 33.5 31.09375 34 31.09375 Z M 40 31.09375L42.09375 31.09375C42.59375 31.09375 43 31.5 43 32L43 34.09375C43 34.59375 42.59375 35 42.09375 35L40 35C39.5 35 39.09375 34.59375 39.09375 34.09375L39.09375 32C39.09375 31.5 39.5 31.09375 40 31.09375 Z M 0 39.5L0 46.5C0 48.5 1.5 50 3.5 50L46.5 50C48.5 50 50 48.5 50 46.5L50 39.5 Z M 25 42C26.101563 42 27 42.898438 27 44C27 45.101563 26.101563 46 25 46C23.898438 46 23 45.101563 23 44C23 42.898438 23.898438 42 25 42Z" fill="#4B4B4B" />
</svg>