<svg xmlns="http://www.w3.org/2000/svg" viewBox="0 0 50 50">
  <path d="M25 2C12.296875 2 2 12.296875 2 25C2 28.21875 2.664063 31.28125 3.859375 34.0625L3.867188 34.058594C6.238281 39.582031 10.71875 43.992188 16.289063 46.277344L16.285156 46.285156C16.539063 46.390625 16.800781 46.484375 17.0625 46.582031C17.078125 46.589844 17.09375 46.59375 17.109375 46.601563C19.570313 47.503906 22.226563 48 25 48C37.703125 48 48 37.703125 48 25C48 21.742188 47.316406 18.640625 46.09375 15.832031L46.085938 15.835938C43.765625 10.511719 39.488281 6.234375 34.164063 3.914063L34.167969 3.90625C31.359375 2.683594 28.257813 2 25 2 Z M 33.367188 5.734375C38.242188 7.847656 42.152344 11.757813 44.265625 16.632813L33.257813 21.449219C32.347656 19.34375 30.65625 17.652344 28.550781 16.742188 Z M 25 17.996094C28.882813 17.996094 32.003906 21.117188 32.003906 25C32.003906 28.882813 28.882813 32.003906 25 32.003906C21.117188 32.003906 17.996094 28.882813 17.996094 25C17.996094 21.117188 21.117188 17.996094 25 17.996094 Z M 25 22C23.34375 22 22 23.34375 22 25C22 26.65625 23.34375 28 25 28C26.65625 28 28 26.65625 28 25C28 23.34375 26.65625 22 25 22 Z M 16.734375 28.542969C17.652344 30.667969 19.359375 32.371094 21.488281 33.277344L17.023438 44.4375C11.933594 42.351563 7.851563 38.324219 5.6875 33.277344Z" fill="#4B4B4B" />
</svg>