<svg xmlns="http://www.w3.org/2000/svg" viewBox="0 0 50 50">
  <path d="M23 0 A 1.0001 1.0001 0 0 0 22 1L22 4C21.447 4 21 4.447 21 5L21 9C21 10.103 21.897 11 23 11L24 11L24 18.050781C24.332 18.030781 24.662 18 25 18C25.338 18 25.668 18.030781 26 18.050781L26 11L27 11C28.103 11 29 10.103 29 9L29 5C29 4.447 28.553 4 28 4L28 1 A 1.0001 1.0001 0 0 0 27 0L23 0 z M 24 2L26 2L26 4L24 4L24 2 z M 25 20C16.729 20 10 26.729 10 35C10 43.271 16.729 50 25 50C33.271 50 40 43.271 40 35C40 26.729 33.271 20 25 20 z M 25 28C27.801562 28 30.20189 29.633185 31.322266 32L25 32C24.080116 32 23.261267 32.432559 22.708984 33.09375C21.848978 31.628586 20.967 30.120732 20.625 29.533203C21.822326 28.574862 23.340266 28 25 28 z M 19.205078 31.0625C19.994322 32.411383 21.644848 35.211348 22.480469 36.660156L22.501953 36.648438C22.936686 37.301976 23.61827 37.780729 24.410156 37.941406L22.363281 41.486328C19.800111 40.448757 18 37.94376 18 35C18 33.53777 18.444109 32.182963 19.205078 31.0625 z M 25 34C25.564129 34 26 34.435871 26 35C26 35.564129 25.564129 36 25 36C24.435871 36 24 35.564129 24 35C24 34.435871 24.435871 34 25 34 z M 27.8125 34L31.921875 34C31.968489 34.327493 32 34.65923 32 35C32 38.877838 28.877838 42 25 42C24.795284 42 24.594687 41.987757 24.394531 41.970703L27.298828 36.939453L27.275391 36.925781C27.720361 36.401858 28 35.734036 28 35C28 34.648149 27.926058 34.314894 27.8125 34 z" fill="#4B4B4B" />
</svg>