<svg xmlns="http://www.w3.org/2000/svg" viewBox="0 0 50 50">
  <path d="M25 7C15.925781 7 9.792969 7.984375 5.554688 10.105469C4.609375 10.578125 3.738281 11.140625 3.074219 11.9375C2.410156 12.738281 2 13.792969 2 15C2 21.167969 3.039063 33.285156 5.050781 39.316406C6.21875 42.824219 9.683594 43.949219 9.683594 43.949219C12.835938 45 18.308594 46 25 46C31.601563 46 37.152344 45.496094 40.363281 43.921875C40.449219 43.894531 43.796875 42.777344 44.949219 39.316406C46.960938 33.285156 48 21.167969 48 15C48 13.789063 47.582031 12.734375 46.917969 11.933594C46.25 11.132813 45.378906 10.570313 44.449219 10.105469C40.207031 7.984375 34.074219 7 25 7 Z M 25 9C33.925781 9 39.792969 10.015625 43.550781 11.894531C44.347656 12.292969 44.976563 12.730469 45.378906 13.214844C45.78125 13.695313 46 14.210938 46 15C46 20.925781 44.863281 33.242188 43.050781 38.683594C42.21875 41.175781 39.683594 42.050781 39.683594 42.050781L39.617188 42.074219L39.550781 42.105469C37.097656 43.332031 31.53125 44 25 44C18.507813 44 13.164063 43 10.316406 42.050781C10.316406 42.050781 7.78125 41.175781 6.949219 38.683594C5.136719 33.242188 4 20.925781 4 15C4 14.207031 4.214844 13.699219 4.613281 13.21875C5.011719 12.734375 5.640625 12.296875 6.445313 11.894531C10.207031 10.015625 16.074219 9 25 9 Z M 25 13C17 13 12.421875 14.652344 9.445313 15.558594C8.585938 15.816406 8.003906 16.617188 8.039063 17.515625C8.230469 22.5625 10.089844 33.0625 10.761719 36.714844C10.90625 37.503906 11.507813 38.101563 12.285156 38.300781C15 39 20 40 25 40C30 40 36 39 37.738281 38.328125C38.476563 38.039063 39.089844 37.527344 39.234375 36.75C39.894531 33.132813 41.765625 22.582031 41.960938 17.515625C41.996094 16.605469 41.402344 15.796875 40.53125 15.542969C37.664063 14.703125 33 13 25 13 Z M 18 34L20 34L20 36L18 36 Z M 24 34L26 34L26 36L24 36 Z M 30 34L32 34L32 36L30 36Z" fill="#4B4B4B" />
</svg>