<svg xmlns="http://www.w3.org/2000/svg" viewBox="0 0 50 50">
  <path d="M24 2.050781C14.539063 2.574219 7 10.414063 7 20L7 24L24 24L24 19.8125C22.835938 19.402344 22 18.300781 22 17L22 11C22 9.699219 22.835938 8.597656 24 8.1875 Z M 26 2.050781L26 8.183594C27.160156 8.597656 28 9.699219 28 11L28 17C28 18.300781 27.160156 19.402344 26 19.816406L26 24L43 24L43 20C43 10.410156 35.457031 2.574219 26 2.050781 Z M 25 10C24.449219 10 24 10.449219 24 11L24 17C24 17.550781 24.449219 18 25 18C25.550781 18 26 17.550781 26 17L26 11C26 10.449219 25.550781 10 25 10 Z M 7 26L7 30C7 39.925781 15.078125 48 25 48C34.925781 48 43 39.925781 43 30L43 26Z" fill="#4B4B4B" />
</svg>