<svg xmlns="http://www.w3.org/2000/svg" viewBox="0 0 50 50">
  <path d="M17 5C15.683594 5 14.894531 6.273438 14.125 7.5C13.816406 7.992188 13.234375 8.90625 13 9L3 9C1.347656 9 0 10.347656 0 12L0 39C0 40.652344 1.347656 42 3 42L47 42C48.652344 42 50 40.652344 50 39L50 12C50 10.347656 48.652344 9 47 9L37.03125 9C36.753906 8.898438 36.183594 7.992188 35.875 7.5C35.105469 6.273438 34.316406 5 33 5 Z M 25 11C32.167969 11 38 16.832031 38 24C38 31.167969 32.167969 37 25 37C17.832031 37 12 31.167969 12 24C12 16.832031 17.832031 11 25 11 Z M 25 13C18.933594 13 14 17.933594 14 24C14 30.066406 18.933594 35 25 35C31.066406 35 36 30.066406 36 24C36 17.933594 31.066406 13 25 13 Z M 8 14L9 14C10.105469 14 11 14.894531 11 16C11 17.105469 10.105469 18 9 18L8 18C6.894531 18 6 17.105469 6 16C6 14.894531 6.894531 14 8 14 Z M 25 15C29.964844 15 34 19.039063 34 24C34 28.964844 29.964844 33 25 33C20.039063 33 16 28.964844 16 24C16 19.039063 20.039063 15 25 15 Z M 25 17C21.140625 17 18 20.140625 18 24C18 27.859375 21.140625 31 25 31C28.859375 31 32 27.859375 32 24C32 20.140625 28.859375 17 25 17Z" fill="#4B4B4B" />
</svg>