<svg xmlns="http://www.w3.org/2000/svg" viewBox="0 0 50 50">
  <path d="M39.9375 8.875C39.457031 8.917969 39.074219 9.300781 39.03125 9.78125L38.96875 10L30 10L30 12L38.53125 12L37.53125 16.4375C37.328125 17.359375 36.539063 18 35.59375 18L14.40625 18C13.464844 18 12.671875 17.355469 12.46875 16.4375L10.96875 9.78125C10.917969 9.511719 10.757813 9.277344 10.527344 9.128906C10.296875 8.980469 10.015625 8.933594 9.75 9C9.296875 9.117188 8.984375 9.53125 9 10L0 10L0 12L9.4375 12L10.5 16.875C10.90625 18.699219 12.535156 20 14.40625 20L19 20L19 21.625C19 21.75 19.019531 21.878906 19.03125 22L18.90625 22C14.003906 22 10 26.003906 10 30.90625L10 39C9.996094 39.359375 10.183594 39.695313 10.496094 39.878906C10.808594 40.058594 11.191406 40.058594 11.503906 39.878906C11.816406 39.695313 12.003906 39.359375 12 39L12 30.90625C12 27.085938 15.085938 24 18.90625 24L19.71875 24C20.496094 25.191406 21.847656 26 23.375 26L26.625 26C28.152344 26 29.503906 25.191406 30.28125 24L31.09375 24C34.914063 24 38 27.085938 38 30.90625L38 39C37.996094 39.359375 38.183594 39.695313 38.496094 39.878906C38.808594 40.058594 39.191406 40.058594 39.503906 39.878906C39.816406 39.695313 40.003906 39.359375 40 39L40 30.90625C40 26.003906 35.996094 22 31.09375 22L30.96875 22C30.980469 21.878906 31 21.75 31 21.625L31 20L35.59375 20C37.464844 20 39.09375 18.699219 39.5 16.875L40.96875 10.21875C41.089844 9.894531 41.035156 9.535156 40.824219 9.261719C40.613281 8.988281 40.28125 8.84375 39.9375 8.875 Z M 12.5625 10L13 12L20 12L20 10 Z M 42.4375 10L42 12L50 12L50 10Z" fill="#4B4B4B" />
</svg>