<svg xmlns="http://www.w3.org/2000/svg" viewBox="0 0 26 26">
  <path d="M2 6C1.476563 6 0.941406 6.183594 0.5625 6.5625C0.183594 6.941406 0 7.476563 0 8L0 14C0 16.082031 0.390625 17.667969 0.84375 18.71875C0.855469 18.746094 0.863281 18.789063 0.875 18.8125L0.90625 18.8125C1.058594 19.175781 1.285156 19.433594 1.5625 19.625C1.871094 19.835938 2.238281 20 2.6875 20L23.3125 20C24.210938 20 24.839844 19.398438 25.125 18.96875C25.179688 18.890625 25.21875 18.808594 25.25 18.71875C25.570313 17.753906 26 16.132813 26 14L26 8C26 7.476563 25.816406 6.941406 25.4375 6.5625C25.058594 6.183594 24.523438 6 24 6 Z M 2 8L24 8L24 14C24 15.796875 23.648438 17.09375 23.375 17.9375C23.363281 17.945313 23.351563 18 23.3125 18L2.71875 18C2.386719 17.25 2 15.867188 2 14 Z M 9 9L9 11L11 11L11 9 Z M 12 9L12 11L14 11L14 9 Z M 15 9L15 11L17 11L17 9 Z M 18 9L18 11L20 11L20 9 Z M 21 9L21 11L23 11L23 9 Z M 3 12L3 14L7 14L7 12 Z M 9 12L9 14L11 14L11 12 Z M 12 12L12 14L14 14L14 12 Z M 15 12L15 14L17 14L17 12 Z M 18 12L18 14L20 14L20 12 Z M 21 12L21 14L23 14L23 12 Z M 9 15L9 17L11 17L11 15 Z M 12 15L12 17L14 17L14 15 Z M 15 15L15 17L17 17L17 15 Z M 18 15L18 17L20 17L20 15 Z M 21 15L21 17L23 17L23 15Z" fill="#4B4B4B" />
</svg>