<svg xmlns="http://www.w3.org/2000/svg" viewBox="0 0 50 50">
  <path d="M13 3C6.574219 3 3.292969 8.007813 3.15625 8.222656C3.054688 8.382813 3 8.570313 3 8.761719L3 17.09375C3 17.28125 3.050781 17.464844 3.148438 17.621094C3.289063 17.839844 6.566406 23 13 23C13.601563 23 14.164063 22.941406 14.703125 22.832031C14.390625 21.492188 13.746094 19.835938 12.390625 18.792969C11.953125 18.457031 11.871094 17.828125 12.207031 17.390625C12.546875 16.953125 13.171875 16.867188 13.609375 17.207031C16.960938 19.789063 17 24.789063 17 25L17 45C17 46.101563 17.898438 47 19 47L22 47C23.101563 47 24 46.101563 24 45L24 44L21 44C20.445313 44 20 43.554688 20 43C20 42.445313 20.445313 42 21 42L24 42L24 25.429688C24.023438 24.90625 24.589844 11.40625 19.066406 5.621094C17.40625 3.882813 15.367188 3 13 3 Z M 37 3C34.632813 3 32.59375 3.882813 30.933594 5.621094C25.410156 11.40625 25.976563 24.902344 26 25.429688L26 42L29 42C29.554688 42 30 42.445313 30 43C30 43.554688 29.554688 44 29 44L26 44L26 45C26 46.101563 26.898438 47 28 47L31 47C32.101563 47 33 46.101563 33 45L33 25C33 24.789063 33.039063 19.789063 36.390625 17.207031C36.828125 16.867188 37.453125 16.953125 37.792969 17.390625C38.128906 17.828125 38.046875 18.457031 37.609375 18.792969C36.253906 19.835938 35.609375 21.492188 35.296875 22.832031C35.835938 22.941406 36.398438 23 37 23C43.433594 23 46.710938 17.839844 46.847656 17.621094C46.949219 17.464844 47 17.28125 47 17.09375L47 8.761719C47 8.570313 46.945313 8.382813 46.84375 8.222656C46.707031 8.007813 43.425781 3 37 3 Z M 15.984375 8C16.238281 7.996094 16.496094 8.089844 16.695313 8.28125C17.390625 8.957031 18.019531 9.847656 18.566406 10.933594C18.8125 11.425781 18.617188 12.027344 18.125 12.277344C17.980469 12.347656 17.828125 12.378906 17.675781 12.378906C17.308594 12.378906 16.957031 12.179688 16.78125 11.828125C16.335938 10.945313 15.839844 10.234375 15.304688 9.71875C14.910156 9.335938 14.898438 8.699219 15.28125 8.304688C15.472656 8.105469 15.726563 8.007813 15.984375 8 Z M 34.015625 8C34.273438 8.007813 34.527344 8.105469 34.71875 8.304688C35.105469 8.699219 35.09375 9.335938 34.695313 9.71875C34.160156 10.238281 33.664063 10.945313 33.21875 11.828125C33.042969 12.179688 32.691406 12.378906 32.324219 12.378906C32.171875 12.378906 32.019531 12.347656 31.875 12.277344C31.382813 12.027344 31.183594 11.425781 31.433594 10.933594C31.976563 9.847656 32.609375 8.953125 33.304688 8.28125C33.503906 8.089844 33.757813 7.996094 34.015625 8 Z M 8 12C8.550781 12 9 12.449219 9 13C9 13.550781 8.550781 14 8 14C7.449219 14 7 13.550781 7 13C7 12.449219 7.449219 12 8 12 Z M 42 12C42.550781 12 43 12.449219 43 13C43 13.550781 42.550781 14 42 14C41.449219 14 41 13.550781 41 13C41 12.449219 41.449219 12 42 12Z" fill="#4B4B4B" />
</svg>