<svg xmlns="http://www.w3.org/2000/svg" viewBox="0 0 50 50">
  <path d="M28.980469 3.9902344 A 1.0001 1.0001 0 0 0 28.292969 4.2929688C27.834844 4.7510937 27.377477 5.4697799 26.894531 6.5273438C26.411586 7.5849075 25.982748 8.9141843 25.978516 10.34375C25.974316 11.773316 26.449665 13.33081 27.722656 14.548828C28.995647 15.766847 30.972684 16.622364 33.873047 16.992188C36.394843 17.313659 38.097844 17.751572 39.146484 18.380859C40.195125 19.010147 40.70372 19.76433 41.023438 21.214844 A 1.0001 1.0001 0 1 0 42.976562 20.785156C42.577281 18.97367 41.658938 17.557228 40.173828 16.666016C38.688719 15.774803 36.751157 15.342341 34.126953 15.007812C31.498316 14.672636 29.960962 13.925888 29.103516 13.105469C28.246069 12.28505 27.975498 11.368794 27.978516 10.349609C27.981516 9.3304254 28.313727 8.2357956 28.714844 7.3574219C29.115961 6.4790482 29.665156 5.7489063 29.707031 5.7070312 A 1.0001 1.0001 0 0 0 28.980469 3.9902344 z M 35 5 A 1.0001 1.0001 0 1 0 35 7C36.051826 7 37.507096 7.1158736 38.664062 7.7714844C39.82103 8.4270952 40.789134 9.5381181 41.003906 12.083984 A 1.0001 1.0001 0 0 0 42 13C42.92523 13 44.814546 13.245851 45.892578 14.1875C46.431594 14.658324 46.820261 15.26457 46.939453 16.263672C47.058646 17.262774 46.870303 18.681663 46.074219 20.619141 A 1.0010615 1.0010615 0 1 0 47.925781 21.380859C48.809197 19.230837 49.099339 17.482148 48.925781 16.027344C48.752224 14.57254 48.075968 13.438941 47.208984 12.681641C45.743276 11.401361 43.999588 11.151467 42.742188 11.083984C42.293362 8.6021639 41.133133 6.8714661 39.650391 6.03125C37.981607 5.0856108 36.173174 5 35 5 z M 7 24C6.447 24 6 24.448 6 25L6 26L6 32L6 33C6 33.553 6.447 34 7 34L10 34L10 24L7 24 z M 12 24L12 28L20 28L20 24L12 24 z M 22 24L22 34L49 34C49.553 34 50 33.553 50 33L50 25C50 24.448 49.553 24 49 24L22 24 z M 1 26C0.447 26 0 26.448 0 27L0 31C0 31.553 0.447 32 1 32L4 32L4 26L1 26 z M 27 27C28.105 27 29 27.895 29 29C29 30.105 28.105 31 27 31C25.895 31 25 30.105 25 29C25 27.895 25.895 27 27 27 z M 12 30L12 34L20 34L20 30L12 30 z" fill="#4B4B4B" />
</svg>