<svg xmlns="http://www.w3.org/2000/svg" viewBox="0 0 50 50">
  <path d="M35.1875 0L21.8125 13.40625L24.59375 16.1875L27.1875 13.59375L38 2.8125 Z M 20.375 0.5C20.125 0.507813 19.867188 0.601563 19.6875 0.78125L10.4375 9.96875C12.613281 15.367188 19.730469 22.597656 23.5 26.40625L24.8125 27.65625C30.242188 32.878906 35.445313 37.859375 39.8125 39.59375L49.21875 30.21875C49.738281 29.699219 50.371094 29.042969 44.5 21.9375L38 28.40625C37.609375 28.796875 37.105469 29 36.59375 29C36.082031 29 35.578125 28.796875 35.1875 28.40625L32.375 25.625C32 25.25 31.8125 24.71875 31.8125 24.1875C31.8125 23.65625 32 23.15625 32.375 22.78125L35 20.1875L39.15625 16.03125C38.34375 15.160156 37.480469 14.292969 36.59375 13.40625C35.503906 12.316406 34.453125 11.265625 33.375 10.25L26 17.625C25.625 18 25.125 18.1875 24.59375 18.1875C24.0625 18.1875 23.5625 18 23.1875 17.625L20.375 14.8125C20 14.4375 19.8125 13.9375 19.8125 13.40625C19.8125 12.875 20 12.375 20.375 12L27.375 5C24.773438 2.898438 21.859375 0.804688 20.625 0.53125C20.542969 0.511719 20.457031 0.496094 20.375 0.5 Z M 47.1875 10.8125L33.8125 24.1875L36.59375 27L50 13.59375 Z M 9.09375 11.9375L5.625 26.4375C5.503906 26.867188 5.132813 28.15625 13.375 36.59375C16.300781 39.585938 21.296875 44.375 23.3125 44.375C23.382813 44.375 23.46875 44.386719 23.53125 44.375L37.90625 40.9375C33.511719 38.78125 28.742188 34.191406 23.4375 29.09375L22.09375 27.8125C15.925781 21.582031 11.257813 16.320313 9.09375 11.9375 Z M 6.84375 32.46875L4.34375 34.96875C4.171875 35.140625 4.09375 35.351563 4.09375 35.59375C4.09375 35.835938 4.171875 36.078125 4.34375 36.25L13.75 45.65625C13.925781 45.835938 14.175781 45.90625 14.40625 45.90625C14.636719 45.90625 14.855469 45.835938 15.03125 45.65625L17.46875 43.1875C16.015625 41.972656 14.242188 40.324219 11.96875 38C9.742188 35.71875 8.070313 33.929688 6.84375 32.46875 Z M 5.4375 40.15625L0.28125 45.28125C0.09375 45.46875 0 45.734375 0 46C0 46.265625 0.09375 46.53125 0.28125 46.71875L3.28125 49.71875C3.476563 49.914063 3.742188 50 4 50C4.257813 50 4.523438 49.914063 4.71875 49.71875L9.84375 44.5625Z" fill="#4B4B4B" />
</svg>