<svg xmlns="http://www.w3.org/2000/svg" viewBox="0 0 50 50">
  <path d="M12.984375 0.98632812 A 1.0001 1.0001 0 0 0 12 2L12 3L12 5L14 5L14 3L14 2 A 1.0001 1.0001 0 0 0 12.984375 0.98632812 z M 18.984375 0.98632812 A 1.0001 1.0001 0 0 0 18 2L18 3L18 5L20 5L20 3L20 2 A 1.0001 1.0001 0 0 0 18.984375 0.98632812 z M 24.984375 0.98632812 A 1.0001 1.0001 0 0 0 24 2L24 3L24 5L26 5L26 3L26 2 A 1.0001 1.0001 0 0 0 24.984375 0.98632812 z M 30.984375 0.98632812 A 1.0001 1.0001 0 0 0 30 2L30 3L30 5L32 5L32 3L32 2 A 1.0001 1.0001 0 0 0 30.984375 0.98632812 z M 36.984375 0.98632812 A 1.0001 1.0001 0 0 0 36 2L36 3L36 5L38 5L38 3L38 2 A 1.0001 1.0001 0 0 0 36.984375 0.98632812 z M 9 6C7.343 6 6 7.343 6 9L6 41C6 42.657 7.343 44 9 44L41 44C42.657 44 44 42.657 44 41L44 9C44 7.343 42.657 6 41 6L9 6 z M 2 12 A 1.0001 1.0001 0 1 0 2 14L3 14L5 14L5 12L3 12L2 12 z M 45 12L45 14L47 14L48 14 A 1.0001 1.0001 0 1 0 48 12L47 12L45 12 z M 2 18 A 1.0001 1.0001 0 1 0 2 20L3 20L5 20L5 18L3 18L2 18 z M 16 18L34 18L34 32L16 32L16 18 z M 45 18L45 20L47 20L48 20 A 1.0001 1.0001 0 1 0 48 18L47 18L45 18 z M 2 24 A 1.0001 1.0001 0 1 0 2 26L3 26L5 26L5 24L3 24L2 24 z M 45 24L45 26L47 26L48 26 A 1.0001 1.0001 0 1 0 48 24L47 24L45 24 z M 2 30 A 1.0001 1.0001 0 1 0 2 32L3 32L5 32L5 30L3 30L2 30 z M 45 30L45 32L47 32L48 32 A 1.0001 1.0001 0 1 0 48 30L47 30L45 30 z M 2 36 A 1.0001 1.0001 0 1 0 2 38L3 38L5 38L5 36L3 36L2 36 z M 45 36L45 38L47 38L48 38 A 1.0001 1.0001 0 1 0 48 36L47 36L45 36 z M 12 45L12 47L12 48 A 1.0001 1.0001 0 1 0 14 48L14 47L14 45L12 45 z M 18 45L18 47L18 48 A 1.0001 1.0001 0 1 0 20 48L20 47L20 45L18 45 z M 24 45L24 47L24 48 A 1.0001 1.0001 0 1 0 26 48L26 47L26 45L24 45 z M 30 45L30 47L30 48 A 1.0001 1.0001 0 1 0 32 48L32 47L32 45L30 45 z M 36 45L36 47L36 48 A 1.0001 1.0001 0 1 0 38 48L38 47L38 45L36 45 z" fill="#4B4B4B" />
</svg>