<svg xmlns="http://www.w3.org/2000/svg" viewBox="0 0 50 50">
  <path d="M9 4C6.2504839 4 4 6.2504839 4 9L4 41C4 43.749516 6.2504839 46 9 46L41 46C43.749516 46 46 43.749516 46 41L46 9C46 6.2504839 43.749516 4 41 4L9 4 z M 9 6L41 6C42.668484 6 44 7.3315161 44 9L44 41C44 42.668484 42.668484 44 41 44L9 44C7.3315161 44 6 42.668484 6 41L6 9C6 7.3315161 7.3315161 6 9 6 z M 11 13L11 31L12 31L15 31L15 34L16 34L19 34L19 37L20 37L30 37L31 37L31 34L34 34L35 34L35 31L38 31L39 31L39 13L35 13L35 16L33 16L33 13L32 13L32 16L30 16L30 13L29 13L29 16L27 16L27 13L26 13L26 16L24 16L24 13L23 13L23 16L21 16L21 13L20 13L20 16L18 16L18 13L17 13L17 16L15 16L15 13L11 13 z" fill="#4B4B4B" />
</svg>