<svg xmlns="http://www.w3.org/2000/svg" viewBox="0 0 50 50">
  <path d="M25 2C12.316406 2 2 12.316406 2 25C2 37.683594 12.316406 48 25 48C37.683594 48 48 37.683594 48 25C48 12.316406 37.683594 2 25 2 Z M 25 8C28 8 30 11 30 13C30 14.578125 28.210938 19.671875 27.421875 21.84375C26.746094 21.324219 25.914063 21 25 21C24.089844 21 23.253906 21.320313 22.578125 21.84375C21.792969 19.671875 20 14.578125 20 13C20 11 22 8 25 8 Z M 25 23C26.117188 23 27 23.882813 27 25C27 26.117188 26.117188 27 25 27C23.882813 27 23 26.117188 23 25C23 23.882813 23.882813 23 25 23 Z M 21.050781 24.484375C21.03125 24.652344 21 24.824219 21 25C21 26.65625 22.023438 28.082031 23.464844 28.6875C21.96875 30.464844 18.46875 34.542969 17.109375 35.328125C15.375 36.328125 11.777344 36.097656 10.277344 33.5C8.777344 30.902344 10.375 27.671875 12.109375 26.671875C13.472656 25.882813 18.777344 24.886719 21.050781 24.484375 Z M 28.949219 24.484375C31.222656 24.886719 36.527344 25.882813 37.890625 26.671875C39.625 27.671875 41.222656 30.902344 39.722656 33.5C38.222656 36.097656 34.625 36.328125 32.890625 35.328125C31.53125 34.542969 28.03125 30.464844 26.535156 28.6875C27.976563 28.082031 29 26.65625 29 25C29 24.824219 28.96875 24.652344 28.949219 24.484375Z" fill="#4B4B4B" />
</svg>