<svg xmlns="http://www.w3.org/2000/svg" viewBox="0 0 50 50">
  <path d="M4 4L4 31L46 31L46 4L4 4 z M 6 6L12 6C12.55 6 13 6.45 13 7C13 7.55 12.55 8 12 8L8 8L8 12C8 12.55 7.55 13 7 13C6.45 13 6 12.55 6 12L6 6 z M 38 6L44 6L44 12C44 12.55 43.55 13 43 13C42.45 13 42 12.55 42 12L42 8L38 8C37.45 8 37 7.55 37 7C37 6.45 37.45 6 38 6 z M 23.044922 7C25.504453 6.9926758 27.234297 7.4752344 27.279297 7.4902344C27.809297 7.6402344 28.110938 8.1907031 27.960938 8.7207031C27.810938 9.2507031 27.250703 9.5601563 26.720703 9.4101562C26.290703 9.2801562 16.060625 6.4909375 10.890625 16.460938C10.710625 16.800937 10.36 17 10 17C9.84 17 9.6890625 16.960625 9.5390625 16.890625C9.0490625 16.630625 8.859375 16.029063 9.109375 15.539062C12.821875 8.3828125 18.945703 7.012207 23.044922 7 z M 23.390625 10.007812C33.124839 9.6961475 37.884375 21.813281 37.929688 21.949219C37.949688 21.999219 37.970703 22.059375 37.970703 22.109375C37.990703 22.179375 38 22.259844 38 22.339844C38 22.379844 37.990234 22.420938 37.990234 22.460938C37.980234 22.620938 37.930078 22.779922 37.830078 22.919922C36.830078 24.379922 35.779766 25.350234 34.759766 25.990234C34.579766 26.120234 34.400703 26.220547 34.220703 26.310547L34.210938 26.310547C32.450938 27.260547 30.880547 27.269922 30.060547 27.169922C28.070547 26.949922 26.450078 25.810938 25.830078 24.210938C25.520078 23.430937 25.069062 22.259062 24.539062 22.039062C24.219062 21.919062 23.719375 22.089766 23.359375 22.259766C21.989375 22.899766 21.580703 25.180859 22.470703 27.130859C22.670703 27.550859 23.160469 28.26 23.980469 29L21.279297 29C21.149297 28.82 21.033438 28.6425 20.929688 28.46875C20.825937 28.295 20.735156 28.125938 20.660156 27.960938C20.573281 27.772813 20.495469 27.582881 20.425781 27.392578C20.356094 27.202275 20.295 27.011523 20.242188 26.820312C20.136563 26.437891 20.063437 26.054219 20.023438 25.675781C19.983438 25.297344 19.976875 24.922891 20 24.558594C20.023125 24.194297 20.076406 23.84 20.160156 23.5C20.243906 23.16 20.358125 22.834844 20.5 22.529297C20.570937 22.376523 20.647422 22.228193 20.732422 22.085938C20.817422 21.943682 20.909063 21.808203 21.007812 21.677734C21.106562 21.547266 21.213984 21.4221 21.326172 21.304688C21.438359 21.187275 21.556328 21.077695 21.681641 20.974609C21.806953 20.871523 21.938047 20.77499 22.076172 20.6875C22.214297 20.60001 22.359141 20.519844 22.509766 20.449219C22.774766 20.324219 23.030469 20.227109 23.277344 20.154297C23.524219 20.081484 23.762187 20.032969 23.992188 20.011719C24.222188 19.990469 24.443828 19.995703 24.658203 20.025391C24.872578 20.055078 25.079297 20.109453 25.279297 20.189453C25.611797 20.321953 25.899609 20.516719 26.150391 20.753906C26.275781 20.8725 26.391465 21.001523 26.5 21.138672C26.608535 21.27582 26.710625 21.421641 26.804688 21.572266C26.992812 21.873516 27.154297 22.196797 27.298828 22.521484C27.443359 22.846172 27.569453 23.172969 27.689453 23.480469C27.728203 23.580469 27.77541 23.677793 27.830078 23.771484C27.884746 23.865176 27.948281 23.954375 28.017578 24.041016C28.433359 24.560859 29.100859 24.946641 29.880859 25.119141C29.740859 24.714141 29.590547 24.32793 29.433594 23.958984C29.276641 23.590039 29.112266 23.239609 28.939453 22.908203C28.766641 22.576797 28.586016 22.265039 28.398438 21.972656C28.210859 21.680273 28.015703 21.406172 27.814453 21.154297C27.411953 20.650547 26.983828 20.229297 26.533203 19.896484C26.307891 19.730078 26.0775 19.586289 25.841797 19.464844C25.606094 19.343398 25.364141 19.244922 25.119141 19.169922C24.957891 19.121172 24.797363 19.082578 24.634766 19.054688C24.30957 18.998906 23.982461 18.985 23.658203 19.011719C23.333945 19.038438 23.012148 19.106875 22.697266 19.214844C22.539824 19.268828 22.383984 19.332187 22.230469 19.40625C21.923437 19.554375 21.624844 19.743203 21.339844 19.970703C21.094844 20.164453 20.872883 20.361099 20.671875 20.5625C20.470867 20.763901 20.291143 20.968457 20.130859 21.175781C19.970576 21.383105 19.829856 21.593169 19.707031 21.804688C19.584207 22.016206 19.479258 22.229375 19.390625 22.443359C19.301992 22.657344 19.229583 22.873169 19.171875 23.087891C19.114167 23.302612 19.071064 23.516738 19.041016 23.730469C19.010967 23.944199 18.993938 24.15813 18.988281 24.369141C18.982625 24.580151 18.988437 24.787578 19.003906 24.994141C19.019375 25.200703 19.044797 25.405083 19.078125 25.605469C19.111453 25.805854 19.153252 26.002832 19.201172 26.195312C19.297012 26.580273 19.418125 26.948047 19.552734 27.291016C19.687344 27.633984 19.835176 27.953086 19.982422 28.240234C20.129668 28.527383 20.276406 28.7825 20.410156 29L18.130859 29C17.928359 28.58875 17.746445 28.161914 17.591797 27.724609C17.359824 27.068652 17.187954 26.387896 17.09375 25.697266C17.062349 25.467056 17.038809 25.23584 17.025391 25.003906C17.011973 24.771973 17.007769 24.539233 17.013672 24.306641C17.019575 24.074048 17.035937 23.841562 17.0625 23.609375C17.089063 23.377188 17.127222 23.146733 17.175781 22.916016C17.224341 22.685298 17.283574 22.454746 17.355469 22.226562C17.427363 21.998379 17.510854 21.77146 17.607422 21.546875C17.703989 21.32229 17.812969 21.100781 17.935547 20.880859C18.058125 20.660937 18.193823 20.44271 18.34375 20.228516C18.493677 20.014321 18.657324 19.803105 18.835938 19.595703C19.193164 19.180898 19.609844 18.781641 20.089844 18.400391C20.297344 18.236641 20.510117 18.086621 20.728516 17.951172C20.946914 17.815723 21.171094 17.694688 21.398438 17.587891C21.625781 17.481094 21.857461 17.38834 22.091797 17.310547C22.326133 17.232754 22.563359 17.169531 22.802734 17.121094C23.281484 17.024219 23.768672 16.987109 24.255859 17.009766C24.499453 17.021094 24.743555 17.046152 24.986328 17.087891C25.229102 17.129629 25.470938 17.187266 25.710938 17.259766C25.949687 17.333516 26.19875 17.426328 26.457031 17.542969C26.973594 17.77625 27.522813 18.104219 28.078125 18.5625C28.355781 18.791641 28.634609 19.052813 28.912109 19.351562C29.189609 19.650312 29.465547 19.987969 29.736328 20.365234C30.007109 20.7425 30.27375 21.160312 30.53125 21.625C30.78875 22.089688 31.037734 22.601094 31.275391 23.162109C31.513047 23.723125 31.737969 24.33375 31.949219 25C31.959219 25.02 31.960703 25.040547 31.970703 25.060547C32.240703 25.000547 32.529844 24.899766 32.839844 24.759766C32.727969 24.331016 32.605679 23.921809 32.472656 23.529297C32.339634 23.136785 32.195215 22.761689 32.042969 22.404297C31.890723 22.046904 31.730093 21.706204 31.560547 21.382812C31.391001 21.059421 31.214219 20.753398 31.029297 20.462891C30.844375 20.172383 30.651499 19.897415 30.453125 19.638672C30.254751 19.379929 30.049746 19.136299 29.839844 18.908203C29.629941 18.680107 29.414819 18.468098 29.195312 18.269531C28.975806 18.070964 28.752578 17.886953 28.525391 17.716797C28.298203 17.546641 28.066929 17.388958 27.833984 17.246094C27.368096 16.960366 26.893389 16.728188 26.416016 16.544922C26.177329 16.453289 25.937891 16.374336 25.699219 16.306641C25.460547 16.238945 25.223062 16.183547 24.986328 16.138672C24.749595 16.093796 24.514121 16.060283 24.28125 16.037109C24.048379 16.013936 23.816929 16.000637 23.589844 15.998047C23.362759 15.995457 23.139297 16.002656 22.919922 16.019531C22.697422 16.036406 22.472986 16.064021 22.248047 16.101562C22.023108 16.139104 21.797646 16.187803 21.572266 16.246094C21.346885 16.304385 21.122263 16.372048 20.898438 16.451172C20.674612 16.530295 20.450742 16.620664 20.230469 16.720703C19.789922 16.920781 19.359668 17.163027 18.945312 17.447266C18.530957 17.731504 18.133906 18.056719 17.761719 18.425781C17.575625 18.610312 17.395212 18.805857 17.222656 19.011719C17.0501 19.217581 16.885537 19.434834 16.728516 19.662109C16.571494 19.889385 16.422693 20.126228 16.283203 20.375C15.864734 21.121316 15.529424 21.964971 15.304688 22.90625C15.229775 23.22001 15.16658 23.545271 15.117188 23.880859C15.067795 24.216448 15.031641 24.562422 15.009766 24.919922C14.992266 25.204922 14.998984 25.509766 15.029297 25.830078C15.059609 26.150391 15.113203 26.485781 15.189453 26.832031C15.265703 27.178281 15.364062 27.535625 15.484375 27.898438C15.604688 28.26125 15.747656 28.63 15.910156 29L13.759766 29C13.619766 28.625 13.497344 28.253125 13.394531 27.886719C13.291719 27.520312 13.208281 27.159766 13.144531 26.806641C13.080781 26.453516 13.038437 26.108594 13.015625 25.773438C12.992813 25.438281 12.989766 25.113281 13.009766 24.800781C13.032891 24.430156 13.070088 24.065322 13.121094 23.707031C13.1721 23.34874 13.23668 22.99707 13.314453 22.652344C13.392227 22.307617 13.484463 21.968604 13.587891 21.638672C13.794746 20.978809 14.050723 20.351113 14.353516 19.757812C14.656309 19.164512 15.004707 18.606738 15.394531 18.089844C15.589443 17.831396 15.794766 17.583203 16.009766 17.345703C16.224766 17.108203 16.449619 16.881338 16.683594 16.666016C16.917568 16.450693 17.160273 16.246602 17.412109 16.054688C17.915781 15.670859 18.455 15.335547 19.023438 15.052734C19.307656 14.911328 19.599697 14.782275 19.898438 14.667969C20.197178 14.553662 20.502305 14.453164 20.814453 14.367188C21.126602 14.281211 21.445088 14.210713 21.769531 14.154297C22.093975 14.097881 22.424141 14.054922 22.759766 14.029297C23.021641 14.009297 23.28812 14.000332 23.558594 14.001953C24.099541 14.005195 24.656475 14.053398 25.21875 14.150391C25.499888 14.198887 25.78125 14.260234 26.064453 14.333984C26.347656 14.407734 26.632925 14.493535 26.916016 14.59375C27.199106 14.693965 27.480918 14.807656 27.761719 14.935547C28.04252 15.063437 28.321323 15.206504 28.597656 15.363281C28.873989 15.520059 29.148281 15.690078 29.417969 15.876953C29.687656 16.063828 29.953979 16.266191 30.214844 16.484375C30.736572 16.920742 31.237568 17.421367 31.710938 17.990234C31.947622 18.274668 32.177109 18.577109 32.398438 18.896484C32.619766 19.215859 32.833315 19.552676 33.037109 19.908203C33.240903 20.26373 33.435059 20.636406 33.619141 21.029297C33.803223 21.422187 33.976479 21.83416 34.138672 22.265625C34.300864 22.69709 34.451719 23.147891 34.589844 23.619141C34.799844 23.434141 35.012813 23.225234 35.226562 22.990234C35.440312 22.755234 35.654141 22.495938 35.869141 22.210938C35.756641 21.953437 35.595156 21.598437 35.382812 21.175781C35.170469 20.753125 34.907578 20.261094 34.595703 19.730469C33.971953 18.669219 33.150859 17.450781 32.130859 16.300781C31.713359 15.828281 31.287754 15.392949 30.855469 14.998047C30.639326 14.800596 30.42093 14.613562 30.201172 14.435547C29.981414 14.257532 29.76043 14.090195 29.537109 13.931641C29.313789 13.773086 29.088157 13.623445 28.861328 13.484375C28.6345 13.345305 28.406064 13.215264 28.175781 13.095703C27.945498 12.976143 27.714153 12.867605 27.480469 12.767578C27.246785 12.667551 27.010469 12.576562 26.773438 12.496094C26.536406 12.415625 26.298918 12.346042 26.058594 12.285156C25.818269 12.22427 25.575596 12.172139 25.332031 12.130859C24.601338 12.007021 23.856541 11.972327 23.097656 12.025391C22.591733 12.060767 22.078462 12.133804 21.560547 12.248047C21.301589 12.305168 21.041172 12.372344 20.779297 12.449219C20.323047 12.581719 19.884941 12.729844 19.462891 12.890625C19.04084 13.051406 18.635625 13.225312 18.248047 13.414062C17.472891 13.791562 16.766484 14.225391 16.130859 14.712891C15.813047 14.956641 15.512988 15.213594 15.230469 15.484375C14.947949 15.755156 14.6825 16.038438 14.435547 16.335938C14.188594 16.633437 13.961113 16.945625 13.75 17.269531C13.538887 17.593438 13.344922 17.929297 13.169922 18.279297C12.986172 18.650547 12.823906 19.035957 12.683594 19.433594C12.543281 19.83123 12.425 20.241563 12.328125 20.662109C12.23125 21.082656 12.156953 21.513145 12.103516 21.953125C12.050078 22.393105 12.017812 22.842891 12.007812 23.298828C11.997813 23.754766 12.009531 24.217129 12.042969 24.685547C12.109844 25.622383 12.263281 26.580977 12.503906 27.546875C12.624219 28.029824 12.765937 28.515 12.929688 29L10.839844 29C9.5598438 24.83 9.7608594 20.660625 11.380859 17.390625C13.020859 14.110625 16.070938 11.739297 20.210938 10.529297C21.324687 10.203984 22.383637 10.040054 23.390625 10.007812 z M 24.023438 24.001953C24.415312 24.011797 24.779688 24.248359 24.929688 24.630859C24.949687 24.680859 26.209062 27.749453 29.039062 28.439453C31.349062 28.989453 34.149844 27.869844 37.339844 25.089844C37.759844 24.729844 38.39 24.769453 38.75 25.189453C39.12 25.609453 39.070156 26.239609 38.660156 26.599609C37.530156 27.579609 36.429375 28.38 35.359375 29L25.800781 29C23.930781 27.51 23.110312 25.479141 23.070312 25.369141C22.870313 24.849141 23.120859 24.270312 23.630859 24.070312C23.760859 24.020312 23.892813 23.998672 24.023438 24.001953 z M 38.886719 28.007812C39.273438 27.964219 39.666641 28.149766 39.869141 28.509766C39.959141 28.659766 40 28.83 40 29L36.769531 29C37.359531 28.74 37.949766 28.440859 38.509766 28.130859C38.629766 28.063359 38.757812 28.022344 38.886719 28.007812 z M 4 33L4 46L46 46L46 33L19 33C19.25 33 19.509219 33.099062 19.699219 33.289062C21.539219 35.089062 26.789922 38.950312 35.669922 35.820312C36.189922 35.640313 36.759453 35.909688 36.939453 36.429688C37.129453 36.949688 36.850078 37.519219 36.330078 37.699219C33.680078 38.639219 31.300938 39.009766 29.210938 39.009766C23.470938 39.009766 19.850781 36.230937 18.300781 34.710938C17.910781 34.330937 17.899062 33.700781 18.289062 33.300781C18.479062 33.100781 18.74 33 19 33L14 33C14.29 33 14.579297 33.129141 14.779297 33.369141C18.019297 37.369141 24.419062 41.060469 30.789062 39.730469C31.339063 39.610469 31.870469 39.96 31.980469 40.5C32.090469 41.04 31.750937 41.569688 31.210938 41.679688C30.170938 41.899687 29.129375 42 28.109375 42C22.009375 42 16.310703 38.440859 13.220703 34.630859C12.880703 34.200859 12.939141 33.570703 13.369141 33.220703C13.559141 33.070703 13.78 33 14 33L4 33 z M 34.0625 33.066406C34.450625 33.090781 34.804453 33.340469 34.939453 33.730469C35.129453 34.250469 34.850078 34.829766 34.330078 35.009766C33.220078 35.399766 30.869844 36.009766 28.589844 36.009766C26.999844 36.009766 25.439141 35.709844 24.369141 34.839844C23.939141 34.499844 23.880703 33.869453 24.220703 33.439453C24.570703 33.009453 25.200859 32.939063 25.630859 33.289062C27.200859 34.569063 31.349922 33.949141 33.669922 33.119141C33.799922 33.074141 33.933125 33.058281 34.0625 33.066406 z M 7 37C7.55 37 8 37.45 8 38L8 42L12 42C12.55 42 13 42.45 13 43C13 43.55 12.55 44 12 44L6 44L6 38C6 37.45 6.45 37 7 37 z M 43 37C43.55 37 44 37.45 44 38L44 44L38 44C37.45 44 37 43.55 37 43C37 42.45 37.45 42 38 42L42 42L42 38C42 37.45 42.45 37 43 37 z" fill="#4B4B4B" />
</svg>