<svg xmlns="http://www.w3.org/2000/svg" viewBox="0 0 50 50">
  <path d="M10.5 9C10.133333 9 9.5946754 9.1671822 9.203125 9.5C8.8115746 9.8328178 8.4758203 10.282701 8.0488281 10.976562C7.5491072 11.788609 5.6473354 15.297647 3.7714844 18.761719C1.9304009 22.161586 0.25156596 25.281403 0.1875 25.400391 A 1.0001 1.0001 0 0 0 0 26.158203L0 32 A 1.0001 1.0001 0 0 0 0.99023438 33L1.5195312 36.707031C1.8685312 39.154031 3.99675 41 6.46875 41L15.767578 41C18.109578 41 20.164766 39.337859 20.634766 37.130859L23.34375 28.292969L23.34375 28.291016C23.57675 27.531016 24.258 27 25 27C25.742 27 26.42325 27.531016 26.65625 28.291016C26.65725 28.293016 26.657203 28.294875 26.658203 28.296875L29.345703 37.046875C29.836703 39.337875 31.891422 41 34.232422 41L43.53125 41C46.00325 41 48.131469 39.153031 48.480469 36.707031L49.966797 26.300781 A 1.0001 1.0001 0 0 0 49.816406 25.404297C49.754657 25.289612 48.070891 22.163971 46.228516 18.761719C44.352665 15.297647 42.450893 11.788609 41.951172 10.976562C41.524208 10.282665 41.188425 9.8328178 40.796875 9.5C40.405325 9.1671822 39.866667 9 39.5 9C39.05 9 38.55358 9.2224137 38.195312 9.5429688C37.837046 9.8635236 37.530462 10.275234 37.15625 10.863281L37.148438 10.875L37.142578 10.884766C36.552666 11.867952 36.167969 12.445312 36.167969 12.445312 A 1.0001 1.0001 0 1 0 37.832031 13.554688C37.832031 13.554688 38.24764 12.92914 38.84375 11.9375C39.164378 11.433657 39.398765 11.15539 39.517578 11.046875C39.630207 11.145865 39.88299 11.43022 40.248047 12.023438C40.548326 12.51139 42.596554 16.251962 44.470703 19.712891C45.936219 22.41921 46.781444 23.991205 47.324219 25L10 25L2.6757812 25C3.2185555 23.991205 4.0637808 22.41921 5.5292969 19.712891C7.4034459 16.251962 9.4516741 12.511391 9.7519531 12.023438C10.11701 11.430221 10.369793 11.145862 10.482422 11.046875C10.601235 11.15539 10.835622 11.433657 11.15625 11.9375C11.75236 12.92914 12.167969 13.554687 12.167969 13.554688 A 1.0001 1.0001 0 1 0 13.832031 12.445312C13.832031 12.445312 13.447334 11.867952 12.857422 10.884766 A 1.0001 1.0001 0 0 0 12.84375 10.863281C12.469536 10.275239 12.162954 9.8635236 11.804688 9.5429688C11.446419 9.2224137 10.95 9 10.5 9 z M 2 27L9 27L9 31L2 31L2 27 z M 11 27L15 27L15 31L11 31L11 27 z M 5 28 A 1 1 0 0 0 4 29 A 1 1 0 0 0 5 30 A 1 1 0 0 0 6 29 A 1 1 0 0 0 5 28 z" fill="#4B4B4B" />
</svg>