<svg xmlns="http://www.w3.org/2000/svg" viewBox="0 0 50 50">
  <path d="M7.6875 0C6.777344 0 5.964844 0.6875 5.8125 1.59375L0.625 32.25C1.050781 32.09375 1.519531 32 2 32L48 32C48.46875 32 48.894531 32.101563 49.3125 32.25L44.1875 1.59375C44.035156 0.683594 43.226563 0 42.3125 0 Z M 25 8C32.726563 8 39 12.476563 39 18C39 23.519531 32.726563 28 25 28C17.273438 28 11 23.519531 11 18C11 12.476563 17.273438 8 25 8 Z M 25 15C23.34375 15 22 15.894531 22 17C22 18.105469 23.34375 19 25 19C26.65625 19 28 18.105469 28 17C28 15.894531 26.65625 15 25 15 Z M 2 34C0.898438 34 0 34.898438 0 36L0 48C0 49.101563 0.898438 50 2 50L48 50C49.101563 50 50 49.101563 50 48L50 36C50 34.898438 49.101563 34 48 34 Z M 40 40C41.105469 40 42 40.894531 42 42C42 43.105469 41.105469 44 40 44C38.894531 44 38 43.105469 38 42C38 40.894531 38.894531 40 40 40Z" fill="#4B4B4B" />
</svg>