<svg xmlns="http://www.w3.org/2000/svg" viewBox="0 0 50 50">
  <path d="M29.625 -0.0625C29.371094 -0.0625 29.101563 0.0234375 28.90625 0.21875L22.875 6.25C22.664063 6.355469 22.5 6.535156 22.40625 6.75L20.34375 8.78125L18.71875 7.09375C17.867188 6.238281 16.652344 5.75 15.40625 5.75C14.160156 5.75 12.945313 6.238281 12.09375 7.09375L8.5 10.6875C7.648438 11.539063 7.15625 12.75 7.15625 14C7.15625 15.25 7.648438 16.460938 8.5 17.3125L32.6875 41.5C33.539063 42.351563 34.753906 42.84375 36 42.84375C37.246094 42.84375 38.460938 42.355469 39.3125 41.5L42.90625 37.90625C44.699219 36.113281 44.699219 33.074219 42.90625 31.28125L41.21875 29.625L43.3125 27.5C43.355469 27.472656 43.398438 27.441406 43.4375 27.40625L43.5625 27.28125C43.597656 27.242188 43.628906 27.199219 43.65625 27.15625L49.75 21.0625C50.140625 20.671875 50.140625 20.046875 49.75 19.65625L30.3125 0.21875C30.117188 0.0234375 29.878906 -0.0625 29.625 -0.0625 Z M 29.625 2.34375L47.65625 20.375L42.8125 25.1875L40.3125 22.6875C40.160156 22.535156 39.960938 22.4375 39.75 22.40625L34.375 21.5625L28.4375 15.625L27.59375 10.25C27.5625 10.039063 27.464844 9.839844 27.3125 9.6875L24.78125 7.1875 Z M 31.28125 7.28125C30.945313 7.339844 30.664063 7.5625 30.53125 7.875L29 9.40625L30.40625 10.8125L31.5 9.71875L32.65625 10.84375L31.5 12L32.90625 13.40625L34.0625 12.25L35.21875 13.375L34.09375 14.5L35.5 15.90625L36.625 14.78125L37.8125 15.96875L36.6875 17.09375L38.09375 18.5L39.25 17.375L40.28125 18.40625L39.09375 19.59375L40.5 21L42.21875 19.28125C42.492188 19.121094 42.671875 18.84375 42.710938 18.53125C42.746094 18.21875 42.632813 17.90625 42.40625 17.6875L32.21875 7.59375C32.003906 7.363281 31.691406 7.246094 31.375 7.28125C31.34375 7.28125 31.3125 7.28125 31.28125 7.28125 Z M 23.375 8.59375L25.5625 10.78125L18.40625 18L16.1875 15.78125 Z M 25.8125 11.90625L26.5 16.25C26.507813 16.28125 26.519531 16.3125 26.53125 16.34375L21.59375 21.1875L19.09375 18.6875 Z M 5.5 16.125L0.75 30.96875C0.015625 33.050781 0.605469 35.445313 2.1875 36.90625L13.09375 47.8125C14.203125 48.921875 15.703125 49.5625 17.21875 49.5625C17.839844 49.5625 18.449219 49.445313 19 49.25L33.9375 44.53125C32.929688 44.214844 32.023438 43.648438 31.28125 42.90625L7.09375 18.71875C6.371094 17.996094 5.820313 17.097656 5.5 16.125 Z M 27.125 17.15625L32.84375 22.875L28.09375 27.6875L22.3125 21.90625 Z M 33.625 23.46875C33.664063 23.480469 33.707031 23.492188 33.75 23.5L38.09375 24.1875L31.3125 30.90625L28.8125 28.40625 Z M 39.21875 24.4375L41.40625 26.625L34.21875 33.8125L32 31.59375 Z M 2.53125 40.0625L0.28125 42.28125C-0.109375 42.671875 -0.109375 43.328125 0.28125 43.71875L6.28125 49.71875C6.476563 49.914063 6.742188 50 7 50C7.257813 50 7.523438 49.914063 7.71875 49.71875L9.9375 47.46875Z" fill="#4B4B4B" />
</svg>