<svg xmlns="http://www.w3.org/2000/svg" viewBox="0 0 50 50">
  <path d="M25 1C16.429688 1 9.242188 7.03125 7.4375 15.0625C7.621094 15.042969 7.8125 15 8 15C8.511719 15 9.003906 15.105469 9.46875 15.25C11.164063 8.238281 17.472656 3 25 3C32.527344 3 38.835938 8.238281 40.53125 15.25C40.996094 15.105469 41.488281 15 42 15C42.1875 15 42.378906 15.042969 42.5625 15.0625C40.757813 7.03125 33.566406 1 25 1 Z M 8 17C6.347656 17 5 18.347656 5 20L5 35C5 36.652344 6.347656 38 8 38C9.652344 38 11 36.652344 11 35L11 20C11 18.347656 9.652344 17 8 17 Z M 42 17C40.347656 17 39 18.347656 39 20L39 35C39 36.652344 40.347656 38 42 38C43.652344 38 45 36.652344 45 35L45 20C45 18.347656 43.652344 17 42 17 Z M 3 20.125C1.195313 21.574219 0 24.292969 0 27.5C0 30.707031 1.195313 33.425781 3 34.875 Z M 47 20.125L47 34.875C48.804688 33.425781 50 30.707031 50 27.5C50 24.292969 48.804688 21.574219 47 20.125Z" fill="#4B4B4B" />
</svg>