<svg xmlns="http://www.w3.org/2000/svg" viewBox="0 0 50 50">
  <path d="M25 2C21 2 20 4 20 4L20 18L30 18L30 4C30 4 29 2 25 2 z M 18 7.5683594C17.209 8.1253594 15.859734 8.9514688 13.552734 10.105469C9.3197344 12.222469 6.6821875 15.560875 6.1171875 19.421875C7.8861875 18.519875 9.882 18 12 18L12.578125 18C13.517125 16.32 15.524 14.791422 18 14.232422L18 7.5683594 z M 32 7.5683594L32 14.230469C34.476 14.790469 36.482875 16.32 37.421875 18L38 18C40.143 18 42.109844 18.419063 43.839844 19.164062C43.196844 15.412063 40.586266 12.175469 36.447266 10.105469C34.140266 8.9524688 32.791 8.1263594 32 7.5683594 z M 12 20C5.935 20 1 24.935 1 31L1 37C1 43.065 5.935 48 12 48L38 48C44.065 48 49 43.065 49 37L49 30C49 23.935 44.065 20 38 20L12 20 z M 16 22L34 22C34 24.209 32.209 26 30 26L26 26L26 38.140625C27.722 38.586625 29 40.138 29 42C29 44.209 27.209 46 25 46C22.791 46 21 44.209 21 42C21 40.138 22.278 38.586625 24 38.140625L24 26L20 26C17.791 26 16 24.209 16 22 z M 12.5 24C13.881 24 15 25.119 15 26.5C15 27.881 13.881 29 12.5 29C11.119 29 10 27.881 10 26.5C10 25.119 11.119 24 12.5 24 z M 37.5 24C38.881 24 40 25.119 40 26.5C40 27.881 38.881 29 37.5 29C36.119 29 35 27.881 35 26.5C35 25.119 36.119 24 37.5 24 z M 19.5 28C20.881 28 22 29.119 22 30.5C22 31.881 20.881 33 19.5 33C18.119 33 17 31.881 17 30.5C17 29.119 18.119 28 19.5 28 z M 30.5 28C31.881 28 33 29.119 33 30.5C33 31.881 31.881 33 30.5 33C29.119 33 28 31.881 28 30.5C28 29.119 29.119 28 30.5 28 z M 7.5 33C8.881 33 10 34.119 10 35.5C10 36.881 8.881 38 7.5 38C6.119 38 5 36.881 5 35.5C5 34.119 6.119 33 7.5 33 z M 42.5 33C43.881 33 45 34.119 45 35.5C45 36.881 43.881 38 42.5 38C41.119 38 40 36.881 40 35.5C40 34.119 41.119 33 42.5 33 z M 25 41 A 1 1 0 0 0 24 42 A 1 1 0 0 0 25 43 A 1 1 0 0 0 26 42 A 1 1 0 0 0 25 41 z M 12.5 42C13.881 42 15 43.119 15 44.5C15 45.065 14.804281 45.581 14.488281 46L12 46C11.453 46 10.920391 45.943609 10.400391 45.849609C10.149391 45.460609 10 44.998 10 44.5C10 43.119 11.119 42 12.5 42 z M 37.5 42C38.881 42 40 43.119 40 44.5C40 44.998 39.850609 45.460609 39.599609 45.849609C39.079609 45.943609 38.547 46 38 46L35.511719 46C35.195719 45.581 35 45.065 35 44.5C35 43.119 36.119 42 37.5 42 z" fill="#4B4B4B" />
</svg>