<svg xmlns="http://www.w3.org/2000/svg" viewBox="0 0 50 50">
  <path d="M24.984375 0.98632812 A 1.0001 1.0001 0 0 0 24 2L24 8 A 1.0001 1.0001 0 1 0 26 8L26 2 A 1.0001 1.0001 0 0 0 24.984375 0.98632812 z M 32.212891 2.5800781 A 1.0001 1.0001 0 0 0 31.279297 3.1699219L28.742188 8.6074219 A 1.0001 1.0001 0 1 0 30.554688 9.453125L33.091797 4.015625 A 1.0001 1.0001 0 0 0 32.212891 2.5800781 z M 17.757812 2.5820312 A 1.0001 1.0001 0 0 0 16.908203 4.015625L19.445312 9.453125 A 1.0001 1.0001 0 1 0 21.257812 8.6074219L18.720703 3.1699219 A 1.0001 1.0001 0 0 0 17.757812 2.5820312 z M 25 12C14.85 12 8.4992969 26.37 8.0292969 35L41.970703 35C41.500703 26.37 35.15 12 25 12 z M 23 16L27 16C27.553 16 28 16.448 28 17C28 17.552 27.553 18 27 18L23 18C22.447 18 22 17.552 22 17C22 16.448 22.447 16 23 16 z M 25 23C26.037 24.038 28 26.418 28 28C28 29.654 26.654 31 25 31C23.346 31 22 29.654 22 28C22 26.418 23.963 24.038 25 23 z M 8.0195312 37C8.4395312 49 16.49 49 25 49C33.51 49 41.560469 49 41.980469 37L8.0195312 37 z M 25 40C26.639 40 27.96875 41.32975 27.96875 42.96875C27.96875 44.60775 26.639 45.935547 25 45.935547C23.361 45.935547 22.03125 44.60775 22.03125 42.96875C22.03125 41.32975 23.361 40 25 40 z" fill="#4B4B4B" />
</svg>