<svg xmlns="http://www.w3.org/2000/svg" viewBox="0 0 50 50">
  <path d="M3 5C1.300781 5 0 6.300781 0 8L0 37C0 38.699219 1.300781 40 3 40L47 40C48.699219 40 50 38.699219 50 37L50 8C50 6.300781 48.699219 5 47 5 Z M 3 7L47 7C47.601563 7 48 7.398438 48 8L48 32L2 32L2 8C2 7.398438 2.398438 7 3 7 Z M 25 34.90625C25.601563 34.90625 26.09375 35.398438 26.09375 36C26.09375 36.601563 25.601563 37.09375 25 37.09375C24.398438 37.09375 23.90625 36.601563 23.90625 36C23.90625 35.398438 24.398438 34.90625 25 34.90625 Z M 20.09375 42L19.90625 43.40625C19.707031 44.304688 18.898438 45 18 45L17 45C16.398438 45 16 45.398438 16 46C16 46.601563 16.398438 47 17 47L33 47C33.601563 47 34 46.601563 34 46C34 45.398438 33.601563 45 33 45L32 45C31.101563 45 30.292969 44.304688 30.09375 43.40625L29.90625 42Z" fill="#4B4B4B" />
</svg>