<svg xmlns="http://www.w3.org/2000/svg" viewBox="0 0 50 50">
  <path d="M15 2C12.250484 2 10 4.2504839 10 7L10 43C10 45.749516 12.250484 48 15 48L35 48C37.749516 48 40 45.749516 40 43L40 7C40 4.2504839 37.749516 2 35 2L15 2 z M 35.646484 4.0722656C36.998596 4.3651885 38 5.5544775 38 7L38 43C38 44.668484 36.668484 46 35 46L15 46C13.331516 46 12 44.668484 12 43L12 7C12 5.5738985 12.9763 4.4006127 14.300781 4.0878906C14.304489 4.0891134 14.306816 4.0925674 14.310547 4.09375C15.030547 4.32275 15.555687 4.926875 15.679688 5.671875L15.982422 7.4921875C16.223422 8.9451875 17.468406 10 18.941406 10L30.941406 10C32.415406 10 33.659391 8.9441875 33.900391 7.4921875L34.203125 5.671875C34.330881 4.9053365 34.897613 4.2784813 35.646484 4.0722656 z M 22 5L25 5C25.553 5 26 5.448 26 6C26 6.552 25.553 7 25 7L22 7C21.447 7 21 6.552 21 6C21 5.448 21.447 5 22 5 z M 28 5C28.552 5 29 5.448 29 6C29 6.552 28.552 7 28 7C27.448 7 27 6.552 27 6C27 5.448 27.448 5 28 5 z" fill="#4B4B4B" />
</svg>