<svg xmlns="http://www.w3.org/2000/svg" viewBox="0 0 50 50">
  <path d="M36.9375 2.84375C36.9375 8.507813 34.578125 8.828125 31.3125 9.28125C28.707031 9.640625 25.578125 10.09375 24.4375 14L26.5625 14C27.433594 11.859375 29.253906 11.601563 31.5625 11.28125C34.835938 10.828125 38.9375 10.25 38.9375 2.84375 Z M 4 16C1.792969 16 0 17.792969 0 20L0 40C0 42.207031 1.792969 44 4 44L46 44C48.207031 44 50 42.207031 50 40L50 20C50 17.792969 48.207031 16 46 16 Z M 5 22L9 22L9 26L5 26 Z M 11 22L15 22L15 26L11 26 Z M 17 22L21 22L21 26L17 26 Z M 23 22L27 22L27 26L23 26 Z M 29 22L33 22L33 26L29 26 Z M 35 22L39 22L39 26L35 26 Z M 41 22L45 22L45 26L41 26 Z M 5 28L12 28L12 32L5 32 Z M 14 28L18 28L18 32L14 32 Z M 20 28L24 28L24 32L20 32 Z M 26 28L30 28L30 32L26 32 Z M 32 28L36 28L36 32L32 32 Z M 38 28L45 28L45 32L38 32 Z M 5 34L9 34L9 38L5 38 Z M 11 34L15 34L15 38L11 38 Z M 17 34L33 34L33 38L17 38 Z M 35 34L39 34L39 38L35 38 Z M 41 34L45 34L45 38L41 38Z" fill="#4B4B4B" />
</svg>