<svg xmlns="http://www.w3.org/2000/svg" viewBox="0 0 50 50">
  <path d="M5.9511719 4.0058594C4.8995605 4.0058594 4.0058594 4.8668605 4.0058594 5.9316406L4.0058594 31.011719C4.0058594 31.369856 4.1015109 31.695661 4.2578125 31.980469C4.1925211 32.093579 4.1334738 32.21502 4.0898438 32.353516 A 0.89558955 0.89558955 0 0 0 4.0878906 32.355469L1.265625 41.351562 A 0.97959795 0.97959795 0 0 0 1.0195312 42L1.0195312 45C1.0195314 46.059495 1.875018 46.980469 2.9570312 46.980469L47.042969 46.980469C48.124982 46.980469 48.980469 46.059495 48.980469 45L48.980469 42 A 0.97959795 0.97959795 0 0 0 48.734375 41.351562L45.912109 32.355469C45.868237 32.214915 45.808338 32.092899 45.742188 31.978516C45.89797 31.69405 45.994141 31.36922 45.994141 31.011719L45.994141 5.9316406C45.994141 4.8668605 45.10044 4.0058594 44.048828 4.0058594L5.9511719 4.0058594 z M 5.9941406 5.9941406L44.005859 5.9941406L44.005859 31.011719C44.005859 30.914319 43.92732 31.005859 44 31.005859L6 31.005859C6.072717 31.005859 5.9941406 30.914279 5.9941406 31.011719L5.9941406 5.9941406 z M 11 33L39 33L40 36L10 36L11 33 z M 21 38L29 38L30 40L20 40L21 38 z M 2.9804688 42.980469L47.019531 42.980469L47.019531 45C47.019531 45.015929 47.020478 45.017072 47.021484 45.019531L2.9785156 45.019531C2.9795216 45.017072 2.9804684 45.015925 2.9804688 45L2.9804688 42.980469 z" fill="#4B4B4B" />
</svg>