<svg xmlns="http://www.w3.org/2000/svg" viewBox="0 0 50 50">
  <path d="M25 4C18.9375 4 14 8.9375 14 15L14 20.84375C11.527344 23.519531 10 27.078125 10 31C10 39.269531 16.730469 46 25 46C33.269531 46 40 39.269531 40 31C40 27.078125 38.472656 23.519531 36 20.84375L36 15C36 8.9375 31.0625 4 25 4 Z M 25 6C29.984375 6 34 10.015625 34 15L34 19.03125C31.488281 17.136719 28.378906 16 25 16C21.621094 16 18.511719 17.136719 16 19.03125L16 15C16 10.015625 20.015625 6 25 6 Z M 25 28C26.65625 28 28 29.34375 28 31C28 32.304688 27.164063 33.398438 26 33.8125L26 36C26 36.550781 25.550781 37 25 37C24.449219 37 24 36.550781 24 36L24 33.8125C22.835938 33.398438 22 32.304688 22 31C22 29.34375 23.34375 28 25 28Z" fill="#4B4B4B" />
</svg>