<svg xmlns="http://www.w3.org/2000/svg" viewBox="0 0 50 50">
  <path d="M27 5C25.347656 5 24 6.296875 24 7.90625L24 9L13.90625 9C12.308594 9 11 10.347656 11 12L11 32C11 33.652344 12.308594 35 13.90625 35L46.09375 35C47.691406 35 49 33.652344 49 32L49 12C49 10.347656 47.691406 9 46.09375 9L36 9L36 7.90625C36 6.296875 34.652344 5 33 5 Z M 27 7L33 7C33.550781 7 34 7.398438 34 7.90625L34 9L26 9L26 7.90625C26 7.398438 26.449219 7 27 7 Z M 1 8C0.449219 8 0 8.449219 0 9C0 9.550781 0.449219 10 1 10L2.90625 10C5.339844 10 6 11.886719 6 13L6 33C6 37.644531 8.1875 40 12.5 40L49 40C49.554688 40 50 39.554688 50 39C50 38.445313 49.554688 38 49 38L12.5 38C9.347656 38 8 36.503906 8 33L8 13C8 10.515625 6.242188 8 2.90625 8 Z M 44 40C41.242188 40 39 42.242188 39 45C39 47.757813 41.242188 50 44 50C46.757813 50 49 47.757813 49 45C49 42.242188 46.757813 40 44 40 Z M 13 40C10.242188 40 8 42.242188 8 45C8 47.757813 10.242188 50 13 50C15.757813 50 18 47.757813 18 45C18 42.242188 15.757813 40 13 40 Z M 13 42C14.652344 42 16 43.347656 16 45C16 46.652344 14.652344 48 13 48C11.347656 48 10 46.652344 10 45C10 43.347656 11.347656 42 13 42 Z M 44 42C45.652344 42 47 43.347656 47 45C47 46.652344 45.652344 48 44 48C42.347656 48 41 46.652344 41 45C41 43.347656 42.347656 42 44 42Z" fill="#4B4B4B" />
</svg>