<svg xmlns="http://www.w3.org/2000/svg" viewBox="0 0 50 50">
  <path d="M16 9C7.178 9 9.9614761e-17 16.178 0 25C0 33.822 7.178 41 16 41C19.335259 41 22.433735 39.971623 25 38.21875C27.56594 39.970775 30.664249 41 34 41C42.824711 41 50 33.824711 50 25C50 16.175289 42.824711 9 34 9C30.664249 9 27.56594 10.029225 25 11.78125C22.433735 10.028377 19.335259 9 16 9 z M 34 11C41.743831 11 48 17.256169 48 25C48 32.743831 41.743831 39 34 39C31.299287 39 28.788886 38.225862 26.652344 36.90625C29.925796 33.974411 32 29.729602 32 25C32 20.270398 29.925796 16.025589 26.652344 13.09375C28.788886 11.774138 31.299287 11 34 11 z" fill="#4B4B4B" />
</svg>