<svg xmlns="http://www.w3.org/2000/svg" viewBox="0 0 50 50">
  <path d="M7 9C4.243 9 2 11.243 2 14L2 36C2 38.757 4.243 41 7 41L43 41C45.757 41 48 38.757 48 36L48 14C48 11.243 45.757 9 43 9L7 9 z M 4 16L46 16L46 21L4 21L4 16 z M 32.5 27C33.658 27 34.703 27.449969 35.5 28.167969C36.297 27.449969 37.342 27 38.5 27C40.985 27 43 29.015 43 31.5C43 33.985 40.985 36 38.5 36C37.342 36 36.297 35.550031 35.5 34.832031C34.703 35.550031 33.658 36 32.5 36C30.015 36 28 33.985 28 31.5C28 29.015 30.015 27 32.5 27 z M 35.5 34.832031 A 1.5 3.332 0 0 0 37 31.5 A 1.5 3.332 0 0 0 35.5 28.167969 A 1.5 3.332 0 0 0 34 31.5 A 1.5 3.332 0 0 0 35.5 34.832031 z" fill="#4B4B4B" />
</svg>