<svg xmlns="http://www.w3.org/2000/svg" viewBox="0 0 50 50">
  <path d="M9 0C7.898438 0 7 0.898438 7 2L7 48C7 49.105469 7.898438 50 9 50L35 50C35.554688 50 36 49.554688 36 49L36 1C36 0.449219 35.554688 0 35 0 Z M 37 2L37 6L39 6L39 8L37 8L37 10L39 10L39 12L37 12L37 14L39 14L39 16L37 16L37 18L39 18L39 20L37 20L37 30L39 30L39 32L37 32L37 34L39 34L39 36L37 36L37 38L39 38L39 40L37 40L37 42L39 42L39 44L37 44L37 48L41 48C42.105469 48 43 47.105469 43 46L43 27C43 26.445313 42.554688 26 42 26L40 26C39.449219 26 39 25.550781 39 25C39 24.449219 39.449219 24 40 24L42 24C42.554688 24 43 23.550781 43 23L43 4C43 2.898438 42.105469 2 41 2 Z M 15 5L28 5L28 12L15 12 Z M 15 16L28 16L28 23L15 23 Z M 15 27L28 27L28 34L15 34 Z M 15 38L28 38L28 45L15 45Z" fill="#4B4B4B" />
</svg>