<svg xmlns="http://www.w3.org/2000/svg" viewBox="0 0 50 50">
  <path d="M18 4L18 6L7 6C5.347656 6 4 7.347656 4 9L4 43C4 44.652344 5.347656 46 7 46L43 46C44.652344 46 46 44.652344 46 43L46 9C46 7.347656 44.652344 6 43 6L39 6L39 4L26 4L26 6L24 6L24 4 Z M 20 6L22 6L22 11L20 11 Z M 28 6L37 6L37 11L28 11 Z M 8 9C8.550781 9 9 9.449219 9 10C9 10.550781 8.550781 11 8 11C7.449219 11 7 10.550781 7 10C7 9.449219 7.449219 9 8 9 Z M 42 9C42.550781 9 43 9.449219 43 10C43 10.550781 42.550781 11 42 11C41.449219 11 41 10.550781 41 10C41 9.449219 41.449219 9 42 9 Z M 12 17L15 17L15 28L12 28 Z M 17 17L20 17L20 28L17 28 Z M 28 17L39 17L39 28L28 28 Z M 31 20L31 25L36 25L36 20 Z M 11 33L31 33L31 35L11 35 Z M 37 34C38.101563 34 39 34.898438 39 36C39 37.101563 38.101563 38 37 38C35.898438 38 35 37.101563 35 36C35 34.898438 35.898438 34 37 34 Z M 11 37L31 37L31 39L11 39 Z M 8 41C8.550781 41 9 41.449219 9 42C9 42.550781 8.550781 43 8 43C7.449219 43 7 42.550781 7 42C7 41.449219 7.449219 41 8 41 Z M 42 41C42.550781 41 43 41.449219 43 42C43 42.550781 42.550781 43 42 43C41.449219 43 41 42.550781 41 42C41 41.449219 41.449219 41 42 41Z" fill="#4B4B4B" />
</svg>