<svg xmlns="http://www.w3.org/2000/svg" viewBox="0 0 50 50">
  <path d="M2 6L2 8L6 8C6.566406 8 7 8.433594 7 9L7 43L9 43L9 38L13 38L13 35C13 34.449219 13.449219 34 14 34L24 34C24.550781 34 25 34.449219 25 35L25 38L47 38L47 15L9 15L9 9C9 7.355469 7.644531 6 6 6 Z M 31 18L33 18L33 21L31 21L31 23L28 23L28 21L31 21 Z M 35 18L37 18L37 21L35 21 Z M 39 18L41 18L41 21L44 21L44 23L41 23L41 21L39 21 Z M 21 20C22.105469 20 23 20.894531 23 22C23 23.105469 22.105469 24 21 24C19.894531 24 19 23.105469 19 22C19 20.894531 19.894531 20 21 20 Z M 9 21L13 21L13 29L9 29 Z M 28 25L31 25L31 27L28 27 Z M 41 25L44 25L44 27L41 27 Z M 28 29L31 29L31 31L33 31L33 34L31 34L31 31L28 31 Z M 41 29L44 29L44 31L41 31L41 34L39 34L39 31L41 31 Z M 35 31L37 31L37 34L35 34Z" fill="#4B4B4B" />
</svg>