<svg xmlns="http://www.w3.org/2000/svg" viewBox="0 0 50 50">
  <path d="M6 0C4.346 0 3 1.346 3 3L3 11C3 12.979 3.2296094 14.241172 3.4746094 15.576172C3.7326094 16.990172 4 18.451 4 21C4 23.498 3.7440938 24.386141 3.4960938 25.244141C3.2520938 26.093141 3 26.971 3 29L3 38C3 39.654 4.346 41 6 41L15 41C16.654 41 18 39.654 18 38L18 29C18 26.971 17.747906 26.093141 17.503906 25.244141C17.255906 24.386141 17 23.498 17 21C17 18.451 17.267391 16.990172 17.525391 15.576172C17.770391 14.241172 18 12.979 18 11L18 3C18 1.346 16.654 0 15 0L6 0 z M 23 0C21.346 0 20 1.346 20 3L20 38C20 39.654 21.346 41 23 41L43 41C45.229 41 49 36.577 49 20C49 1.442 44.407 0 43 0L23 0 z M 27 5L41 5C41.553 5 42 5.448 42 6L42 12C42 12.552 41.553 13 41 13L27 13C26.447 13 26 12.552 26 12L26 6C26 5.448 26.447 5 27 5 z M 27 17L29 17C29.553 17 30 17.447 30 18L30 20C30 20.553 29.553 21 29 21L27 21C26.447 21 26 20.553 26 20L26 18C26 17.447 26.447 17 27 17 z M 33 17L35 17C35.553 17 36 17.447 36 18L36 20C36 20.553 35.553 21 35 21L33 21C32.447 21 32 20.553 32 20L32 18C32 17.447 32.447 17 33 17 z M 39 17L41 17C41.553 17 42 17.447 42 18L42 20C42 20.553 41.553 21 41 21L39 21C38.447 21 38 20.553 38 20L38 18C38 17.447 38.447 17 39 17 z M 27 23L29 23C29.553 23 30 23.447 30 24L30 26C30 26.553 29.553 27 29 27L27 27C26.447 27 26 26.553 26 26L26 24C26 23.447 26.447 23 27 23 z M 33 23L35 23C35.553 23 36 23.447 36 24L36 26C36 26.553 35.553 27 35 27L33 27C32.447 27 32 26.553 32 26L32 24C32 23.447 32.447 23 33 23 z M 39 23L41 23C41.553 23 42 23.447 42 24L42 26C42 26.553 41.553 27 41 27L39 27C38.447 27 38 26.553 38 26L38 24C38 23.447 38.447 23 39 23 z M 27 29L29 29C29.553 29 30 29.447 30 30L30 32C30 32.553 29.553 33 29 33L27 33C26.447 33 26 32.553 26 32L26 30C26 29.447 26.447 29 27 29 z M 33 29L35 29C35.553 29 36 29.447 36 30L36 32C36 32.553 35.553 33 35 33L33 33C32.447 33 32 32.553 32 32L32 30C32 29.447 32.447 29 33 29 z M 39 29L41 29C41.553 29 42 29.447 42 30L42 32C42 32.553 41.553 33 41 33L39 33C38.447 33 38 32.553 38 32L38 30C38 29.447 38.447 29 39 29 z M 11.070312 43.013672C11.571313 46.946672 14.933 50 19 50L20 50C24.067 50 27.428687 46.946672 27.929688 43.013672L25.908203 43.013672C25.424203 45.840672 22.963 48 20 48L19 48C16.037 48 13.575797 45.840672 13.091797 43.013672L11.070312 43.013672 z" fill="#4B4B4B" />
</svg>