<svg xmlns="http://www.w3.org/2000/svg" viewBox="0 0 50 50">
  <path d="M15 3L15 4L15 14C13.35 14 12 15.35 12 17L12 42C12 44.76 14.24 47 17 47L33 47C35.76 47 38 44.76 38 42L38 17C38 15.35 36.65 14 35 14L35 3L15 3 z M 17 5L33 5L33 14L17 14L17 5 z M 19 8L19 11L23 11L23 8L19 8 z M 27 8L27 11L31 11L31 8L27 8 z M 25.070312 18L28 23L26 23L26 31.25L29.939453 29.130859L29.970703 28L29 28L29 24L33 24L33 28L32 28L32 29.080078C32 29.830078 31.570625 30.520625 30.890625 30.890625L26 33.519531L26 37.179688C27.16 37.599688 28 38.7 28 40C28 41.66 26.66 43 25 43C23.34 43 22 41.66 22 40C22 38.7 22.84 37.599688 24 37.179688L24 35.630859L18.970703 32.480469C18.360703 32.080469 18 31.439766 18 30.759766L18 29.720703C17.4 29.380703 17 28.74 17 28C17 26.9 17.9 26 19 26C20.1 26 21 26.9 21 28C21 28.74 20.6 29.380703 20 29.720703L20 30.759766L24 33.269531L24 23L22 23L25.070312 18 z" fill="#4B4B4B" />
</svg>