<svg xmlns="http://www.w3.org/2000/svg" viewBox="0 0 50 50">
  <path d="M9 4C6.243 4 4 6.243 4 9L4 41C4 43.757 6.243 46 9 46L33.621094 46L35.894531 41L30.763672 41L34.763672 33L30 33L30 36L20 36L20 33L16 33L16 30L12 30L12 14L38 14L38 25L38.720703 25L38.763672 25L46 25L46 9C46 6.243 43.757 4 41 4L9 4 z M 15 17L15 24L17 24L17 17L15 17 z M 18 17L18 24L20 24L20 17L18 17 z M 21 17L21 24L23 24L23 17L21 17 z M 24 17L24 24L26 24L26 17L24 17 z M 27 17L27 24L29 24L29 17L27 17 z M 30 17L30 24L32 24L32 17L30 17 z M 33 17L33 24L35 24L35 17L33 17 z M 40 27L34 39L39 39L34 50L50 34L43 34L47.96875 27L40 27 z" fill="#4B4B4B" />
</svg>