<svg xmlns="http://www.w3.org/2000/svg" viewBox="0 0 50 50">
  <path d="M5 5C3.346 5 2 6.346 2 8L2 22C2 23.654 3.346 25 5 25L41 25C42.654 25 44 23.654 44 22L44 16C45.104545 16 46 16.895455 46 18L46 28C46 29.104545 45.104545 30 44 30L6 30C3.8026661 30 2 31.802666 2 34L2 38C2 40.195455 3.8045455 42 6 42L33 42L33 42.332031C33 42.835031 33.177969 43.257047 33.542969 43.623047L36.126953 46.207031C36.637953 46.718031 37.302 47 38 47L42 47C43.103 47 44 46.103 44 45L48 45L48 43L44 43L44 39L48 39L48 37L44 37C44 35.897 43.103 35 42 35L38 35C37.302 35 36.637953 35.281969 36.126953 35.792969L33.542969 38.376953C33.177969 38.741953 33 39.163016 33 39.666016L33 40L6 40C4.8954545 40 4 39.104545 4 38L4 34C4 32.883334 4.8833339 32 6 32L44 32C46.195455 32 48 30.195455 48 28L48 18C48 15.804545 46.195455 14 44 14L44 8C44 6.346 42.654 5 41 5L5 5 z M 12 10C14.761 10 17 12.239 17 15C17 17.761 14.761 20 12 20C9.239 20 7 17.761 7 15C7 12.239 9.239 10 12 10 z M 26 10C28.761 10 31 12.239 31 15C31 17.761 28.761 20 26 20C23.239 20 21 17.761 21 15C21 12.239 23.239 10 26 10 z M 35 10L39 10L39 14L35 14L35 10 z M 12 12 A 1 1 0 0 0 12 14 A 1 1 0 0 0 12 12 z M 26 12 A 1 1 0 0 0 26 14 A 1 1 0 0 0 26 12 z M 12 16 A 1 1 0 0 0 12 18 A 1 1 0 0 0 12 16 z M 26 16 A 1 1 0 0 0 26 18 A 1 1 0 0 0 26 16 z M 35 16L39 16L39 20L35 20L35 16 z" fill="#4B4B4B" />
</svg>