<svg xmlns="http://www.w3.org/2000/svg" viewBox="0 0 50 50">
  <path d="M11 2L11 13L5 13C3.346 13 2 14.346 2 16L2 36C2 37.654 3.346 39 5 39L11 39L11 48L39 48L39 39L45 39C46.654 39 48 37.654 48 36L48 16C48 14.346 46.654 13 45 13L39 13L39 2L11 2 z M 13 4L37 4L37 13L13 13L13 4 z M 24.130859 17L25.869141 17.017578L26.273438 19.185547C26.728437 19.306547 27.157734 19.487609 27.552734 19.724609L29.300781 18.529297L30.548828 19.736328L29.283203 21.460938C29.538203 21.888938 29.735516 22.352609 29.853516 22.849609L32 23.199219L31.982422 24.933594L29.810547 25.289062C29.705547 25.679063 29.552328 26.045578 29.361328 26.392578L30.675781 28.3125L29.462891 29.554688L27.603516 28.248047C27.209516 28.490047 26.778266 28.674781 26.322266 28.800781L25.869141 31.007812L24.130859 30.990234L23.697266 28.804688C23.263266 28.686688 22.854563 28.514016 22.476562 28.291016L20.732422 29.544922L19.482422 28.337891L20.740234 26.580078C20.498234 26.182078 20.313453 25.748109 20.189453 25.287109L18 24.949219L18.017578 23.216797L20.144531 22.859375C20.260531 22.366375 20.455078 21.907422 20.705078 21.482422L19.460938 19.71875L20.673828 18.476562L22.408203 19.744141C22.805203 19.502141 23.238266 19.318359 23.697266 19.193359L24.130859 17 z M 25 21C23.346 21 22 22.346 22 24C22 25.654 23.346 27 25 27C26.654 27 28 25.654 28 24C28 22.55 26.966656 21.338547 25.597656 21.060547L25.59375 21.0625C25.59175 21.0615 25.593797 21.059594 25.591797 21.058594C25.399797 21.020594 25.203 21 25 21 z M 13 35L37 35L37 46L13 46L13 38L13 35 z" fill="#4B4B4B" />
</svg>