<svg xmlns="http://www.w3.org/2000/svg" viewBox="0 0 50 50">
  <path d="M36.46875 0C36.285156 0 36.113281 0.0117188 35.9375 0.03125C35.230469 0.117188 34.605469 0.394531 34.09375 0.90625C34.078125 0.921875 34.078125 0.953125 34.0625 0.96875C34.042969 0.984375 34.019531 0.980469 34 1L29.75 5.21875C25.929688 3.621094 22.828125 3.65625 21.09375 5.375C19.613281 6.75 19.382813 9.304688 20.4375 12.59375C21.453125 15.742188 23.632813 19.25 26.75 22.6875C31.226563 27.578125 36.765625 30.84375 40.5 30.84375C41.429688 30.84375 42.234375 30.640625 42.90625 30.25C42.957031 30.21875 43.015625 30.195313 43.0625 30.15625C43.386719 29.878906 43.679688 29.636719 43.9375 29.4375C44.265625 29.183594 44.542969 28.988281 44.71875 28.8125C46.476563 27.054688 46.464844 24.007813 44.78125 20.21875L49 16C49.011719 15.988281 49.019531 15.980469 49.03125 15.96875C49.054688 15.949219 49.074219 15.925781 49.09375 15.90625C50.136719 14.859375 50.257813 13.273438 49.84375 11.71875C49.492188 10.394531 48.742188 8.992188 47.71875 7.59375L48.90625 6.40625C50.371094 4.941406 50.371094 2.558594 48.90625 1.09375C48.175781 0.363281 47.210938 0 46.25 0C45.289063 0 44.328125 0.363281 43.59375 1.09375L42.375 2.3125C40.9375 1.324219 39.503906 0.601563 38.1875 0.25C37.609375 0.0976563 37.019531 0 36.46875 0 Z M 46.25 1.9375C46.691406 1.9375 47.132813 2.132813 47.5 2.5C48.234375 3.234375 48.234375 4.265625 47.5 5L45.84375 6.6875C45.730469 6.761719 45.636719 6.855469 45.5625 6.96875L40.625 11.875C40.179688 11.507813 39.75 11.113281 39.3125 10.6875C38.875 10.261719 38.46875 9.84375 38.09375 9.40625L42.84375 4.65625C43.203125 4.558594 43.480469 4.269531 43.5625 3.90625L45 2.5C45.367188 2.132813 45.808594 1.9375 46.25 1.9375 Z M 36.25 2.03125C36.613281 1.996094 37.09375 2.03125 37.6875 2.1875C38.621094 2.4375 39.757813 2.984375 40.9375 3.75L36.90625 7.78125C36.332031 6.9375 35.851563 6.121094 35.5625 5.375C35.253906 4.578125 35.140625 3.871094 35.15625 3.34375C35.171875 2.816406 35.285156 2.527344 35.5 2.3125C35.640625 2.171875 35.886719 2.066406 36.25 2.03125 Z M 33.25 4.5625C33.34375 5.074219 33.511719 5.589844 33.71875 6.125C34.476563 8.078125 35.917969 10.1875 37.90625 12.125C38.621094 12.820313 39.355469 13.414063 40.09375 13.96875C40.125 13.992188 40.15625 14.011719 40.1875 14.03125C41.46875 14.980469 42.753906 15.75 43.96875 16.21875C44.488281 16.421875 45.003906 16.585938 45.5 16.6875L41.1875 21C40.25 21.9375 36.539063 20.914063 32.8125 17.1875C29.957031 14.40625 28.667969 11.558594 28.65625 9.96875C28.652344 9.449219 28.753906 9.058594 29 8.8125 Z M 46.28125 9.03125C47.089844 10.191406 47.660156 11.320313 47.90625 12.25C48.21875 13.421875 48.042969 14.144531 47.6875 14.5C47.511719 14.675781 47.238281 14.808594 46.71875 14.8125C46.199219 14.816406 45.492188 14.65625 44.6875 14.34375C43.9375 14.054688 43.132813 13.585938 42.28125 13.03125 Z M 17.84375 9.8125C12.632813 17.21875 4.886719 28.59375 4.34375 29.5C2.75 32.285156 2.542969 38.261719 7.09375 42.8125C9.621094 45.339844 12.742188 46.71875 15.875 46.71875C17.59375 46.71875 19.226563 46.308594 20.46875 45.53125L20.90625 45.21875C28.601563 40.105469 34.945313 35.835938 39.34375 32.78125C35.144531 32.253906 29.777344 28.945313 25.28125 24.03125C21.976563 20.382813 19.632813 16.636719 18.53125 13.21875C18.140625 12.007813 17.929688 10.871094 17.84375 9.8125 Z M 3.625 41.65625L0.28125 45C-0.109375 45.390625 -0.109375 46.015625 0.28125 46.40625L3.59375 49.71875C3.789063 49.914063 4.054688 50 4.3125 50C4.570313 50 4.804688 49.914063 5 49.71875L8.34375 46.375C7.410156 45.765625 6.519531 45.050781 5.6875 44.21875C4.878906 43.410156 4.199219 42.542969 3.625 41.65625Z" fill="#4B4B4B" />
</svg>