<svg xmlns="http://www.w3.org/2000/svg" viewBox="0 0 50 50">
  <path d="M37.84375 3.96875C37.769531 3.976563 37.699219 3.984375 37.625 4C36.816406 4.128906 36.171875 4.738281 35.992188 5.539063C35.8125 6.335938 36.136719 7.164063 36.8125 7.625C42.433594 11.664063 46 17.621094 46 25C46 32.375 42.460938 38.273438 36.84375 42.3125C36.199219 42.699219 35.828125 43.414063 35.878906 44.164063C35.933594 44.914063 36.398438 45.570313 37.089844 45.867188C37.78125 46.160156 38.578125 46.042969 39.15625 45.5625C45.648438 40.890625 50 33.683594 50 25C50 16.308594 45.664063 9.050781 39.15625 4.375C38.78125 4.089844 38.316406 3.945313 37.84375 3.96875 Z M 11.84375 4.03125C11.457031 4.0625 11.089844 4.203125 10.78125 4.4375C4.3125 9.117188 0 16.339844 0 25C0 33.699219 4.359375 40.921875 10.875 45.59375C11.453125 46.074219 12.25 46.191406 12.941406 45.898438C13.632813 45.601563 14.097656 44.945313 14.152344 44.195313C14.203125 43.445313 13.832031 42.730469 13.1875 42.34375C7.554688 38.300781 4 32.386719 4 25C4 17.644531 7.539063 11.695313 13.125 7.65625C13.851563 7.136719 14.148438 6.203125 13.847656 5.359375C13.550781 4.519531 12.734375 3.976563 11.84375 4.03125 Z M 32.96875 9.1875C32.121094 9.277344 31.421875 9.898438 31.230469 10.730469C31.039063 11.5625 31.398438 12.425781 32.125 12.875C36.355469 15.597656 39 19.691406 39 25C39 30.269531 36.375 34.257813 32.1875 37C31.265625 37.613281 31.011719 38.859375 31.625 39.78125C32.238281 40.703125 33.484375 40.957031 34.40625 40.34375C39.496094 37.011719 43 31.644531 43 25C43 18.308594 39.445313 12.855469 34.28125 9.53125C33.949219 9.304688 33.558594 9.1875 33.15625 9.1875C33.09375 9.183594 33.03125 9.183594 32.96875 9.1875 Z M 16.5625 9.21875C16.246094 9.261719 15.949219 9.378906 15.6875 9.5625C10.550781 12.890625 7 18.328125 7 25C7 31.636719 10.507813 37.039063 15.59375 40.375C16.527344 40.980469 17.769531 40.714844 18.375 39.78125C18.980469 38.847656 18.714844 37.605469 17.78125 37C13.601563 34.257813 11 30.265625 11 25C11 19.703125 13.632813 15.632813 17.84375 12.90625C18.640625 12.414063 18.988281 11.433594 18.679688 10.550781C18.371094 9.664063 17.492188 9.113281 16.5625 9.21875 Z M 20.65625 14.9375C20.34375 14.972656 20.042969 15.078125 19.78125 15.25C16.453125 17.265625 14 20.660156 14 25C14 29.296875 16.429688 32.636719 19.6875 34.65625C20.296875 35.058594 21.078125 35.097656 21.722656 34.757813C22.367188 34.414063 22.777344 33.75 22.789063 33.019531C22.800781 32.289063 22.414063 31.613281 21.78125 31.25C19.347656 29.742188 18 27.890625 18 25C18 22.082031 19.414063 20.144531 21.875 18.65625C22.691406 18.183594 23.066406 17.199219 22.773438 16.304688C22.476563 15.40625 21.59375 14.835938 20.65625 14.9375 Z M 28.875 14.9375C28.023438 15.042969 27.332031 15.683594 27.160156 16.527344C26.992188 17.371094 27.378906 18.226563 28.125 18.65625C30.585938 20.148438 32 22.078125 32 25C32 27.898438 30.632813 29.742188 28.1875 31.25C27.554688 31.613281 27.167969 32.289063 27.179688 33.019531C27.191406 33.75 27.601563 34.414063 28.246094 34.757813C28.890625 35.097656 29.671875 35.058594 30.28125 34.65625C33.546875 32.640625 36 29.304688 36 25C36 20.65625 33.542969 17.261719 30.21875 15.25C29.820313 14.988281 29.347656 14.878906 28.875 14.9375 Z M 25 21C22.789063 21 21 22.789063 21 25C21 27.210938 22.789063 29 25 29C27.210938 29 29 27.210938 29 25C29 22.789063 27.210938 21 25 21Z" fill="#4B4B4B" />
</svg>