<svg xmlns="http://www.w3.org/2000/svg" viewBox="0 0 50 50">
  <path fill-rule="evenodd" d="M29.21875 2.332031C28.925781 2.304688 28.628906 2.40625 28.414063 2.621094L6.113281 24.921875C5.925781 25.109375 5.820313 25.367188 5.820313 25.628906L5.820313 35.921875C5.820313 36.328125 6.0625 36.691406 6.4375 36.847656C6.5625 36.898438 6.691406 36.921875 6.820313 36.921875C6.882813 36.921875 6.941406 36.898438 7 36.890625L7 41.5C7 42.605469 7.894531 43.5 9 43.5L43 43.5C44.105469 43.5 45 42.605469 45 41.5L45 26.5C45 25.394531 44.105469 24.5 43 24.5L19.65625 24.5L29.828125 14.328125C30.015625 14.140625 30.121094 13.886719 30.121094 13.621094L30.121094 3.328125C30.121094 2.925781 29.878906 2.558594 29.503906 2.40625C29.410156 2.367188 29.3125 2.339844 29.21875 2.332031 Z M 17.65625 26.5L33 26.5L33 35L9.15625 35 Z M 35 26.5L43 26.5L43 35L35 35 Z M 39 38L41 38L41 40L39 40Z" fill="#4B4B4B" />
</svg>