<svg xmlns="http://www.w3.org/2000/svg" viewBox="0 0 50 50">
  <path d="M40 3L13.585938 3L7 9.585938L7 45C7 46.101563 7.898438 47 9 47L40 47C41.101563 47 42 46.101563 42 45L42 5C42 3.898438 41.101563 3 40 3 Z M 26 7L28 7L28 14L26 14 Z M 26.875 36.621094L24.21875 37.582031C24.152344 37.546875 24.054688 37.476563 23.957031 37.4375L26.285156 36.40625C26.480469 36.476563 26.679688 36.515625 26.875 36.621094 Z M 23.335938 37.226563C22.613281 37.011719 21.761719 37.011719 21.761719 37.011719L22.058594 36.015625C22.058594 36.015625 23.433594 35.941406 24.875 36.121094 Z M 21 7L23 7L23 14L21 14 Z M 16 7L18 7L18 14L16 14 Z M 11 10.851563L13 8.84375L13 14L11 14 Z M 17.078125 41.964844C16.488281 42 15.863281 41.964844 15.273438 41.964844C13.375 41.964844 11.996094 41.859375 11.996094 41.859375L12.621094 40.078125C12.621094 40.078125 13.703125 40.21875 14.390625 40.21875C15.046875 40.21875 16.945313 40.433594 16.945313 40.003906C16.945313 39.292969 13.800781 39.328125 13.800781 37.511719C13.800781 36.585938 15.570313 36.085938 17.074219 36.085938C18.617188 36.085938 21.007813 36.015625 21.007813 36.015625L20.683594 37.046875C20.683594 37.046875 17.601563 37.046875 17.210938 37.046875C16.78125 37.046875 15.667969 37.046875 15.667969 37.476563C15.667969 38.257813 19.664063 38.152344 19.664063 40.144531C19.664063 41.5 18.453125 41.859375 17.078125 41.964844 Z M 28.972656 38.722656C28.183594 41.964844 20.125 42 20.125 42L20.878906 39.648438C20.878906 39.648438 24.089844 39.507813 24.449219 38.296875C24.480469 38.152344 24.480469 38.046875 24.449219 37.902344L27.691406 36.976563C28.578125 37.476563 29.136719 38.117188 28.972656 38.722656 Z M 33 14L31 14L31 7L33 7 Z M 38 14L36 14L36 7L38 7Z" fill="#4B4B4B" />
</svg>