<svg xmlns="http://www.w3.org/2000/svg" viewBox="0 0 50 50">
  <path d="M4 1C1.792969 1 0 2.792969 0 5L0 43C0 45.207031 1.792969 47 4 47L25 47L25 39L5 39L5 6L31 6L31 14L36 14L36 5C36 2.792969 34.207031 1 32 1 Z M 29 15C27.347656 15 26 16.347656 26 18L26 47C26 48.652344 27.347656 50 29 50L47 50C48.652344 50 50 48.652344 50 47L50 18C50 16.347656 48.652344 15 47 15 Z M 31 20L45 20L45 42L31 42 Z M 18 41C18.828125 41 19.5 41.671875 19.5 42.5C19.5 43.328125 18.828125 44 18 44C17.171875 44 16.5 43.328125 16.5 42.5C16.5 41.671875 17.171875 41 18 41 Z M 38 44C38.828125 44 39.5 44.671875 39.5 45.5C39.5 46.328125 38.828125 47 38 47C37.171875 47 36.5 46.328125 36.5 45.5C36.5 44.671875 37.171875 44 38 44Z" fill="#4B4B4B" />
</svg>