<svg xmlns="http://www.w3.org/2000/svg" viewBox="0 0 50 50">
  <path d="M25 3C11.171875 3 4 7.34375 4 9L5.75 16L8.0625 19.15625C8.285156 19.003906 8.558594 18.8125 8.9375 18.59375L9.9375 20.34375C9.34375 20.6875 8.992188 20.941406 8.875 21.03125L9.5 23.90625C9.625 23.835938 9.726563 23.765625 9.875 23.6875L10.8125 25.46875C10.472656 25.648438 10.21875 25.789063 10.03125 25.90625C11.1875 27.257813 17.625 29 25 29C32.375 29 38.8125 27.257813 39.96875 25.90625C39.78125 25.789063 39.527344 25.648438 39.1875 25.46875L40.125 23.6875C40.273438 23.765625 40.375 23.835938 40.5 23.90625L41.125 21.03125C41.007813 20.941406 40.65625 20.6875 40.0625 20.34375L41.0625 18.59375C41.441406 18.8125 41.714844 19.003906 41.9375 19.15625L44.25 16L46 9C46 7.34375 38.828125 3 25 3 Z M 23.96875 15L24.03125 17C23.035156 17.019531 22.050781 17.097656 21.09375 17.1875L20.90625 15.1875C21.910156 15.09375 22.925781 15.023438 23.96875 15 Z M 26.03125 15C27.074219 15.023438 28.121094 15.09375 29.125 15.1875L28.9375 17.1875C27.980469 17.097656 26.996094 17.019531 26 17 Z M 18.84375 15.4375L19.125 17.40625C18.136719 17.550781 17.175781 17.71875 16.25 17.9375L15.78125 16C16.761719 15.769531 17.796875 15.589844 18.84375 15.4375 Z M 31.1875 15.4375C32.234375 15.589844 33.238281 15.769531 34.21875 16L33.78125 17.9375C32.859375 17.71875 31.863281 17.550781 30.875 17.40625 Z M 13.78125 16.53125L14.375 18.46875C13.414063 18.765625 12.5 19.097656 11.65625 19.46875L10.84375 17.625C11.757813 17.21875 12.746094 16.851563 13.78125 16.53125 Z M 36.25 16.5625C37.285156 16.882813 38.273438 17.25 39.1875 17.65625L38.375 19.46875C37.53125 19.09375 36.617188 18.765625 35.65625 18.46875 Z M 24.0625 20.5L24.09375 22.5C23.160156 22.519531 22.242188 22.578125 21.34375 22.65625L21.15625 20.65625C22.101563 20.574219 23.085938 20.519531 24.0625 20.5 Z M 25.96875 20.5C26.945313 20.519531 27.933594 20.570313 28.875 20.65625L28.6875 22.65625C27.789063 22.578125 26.871094 22.519531 25.9375 22.5 Z M 19.21875 20.875L19.5 22.875C18.578125 23.003906 17.683594 23.148438 16.8125 23.34375L16.375 21.40625C17.300781 21.199219 18.246094 21.011719 19.21875 20.875 Z M 30.78125 20.875C31.757813 21.011719 32.730469 21.199219 33.65625 21.40625L33.21875 23.34375C32.347656 23.148438 31.453125 23.003906 30.53125 22.875 Z M 14.46875 21.875L15.03125 23.8125C14.132813 24.074219 13.273438 24.355469 12.46875 24.6875L11.6875 22.84375C12.558594 22.484375 13.5 22.15625 14.46875 21.875 Z M 35.5625 21.875C36.535156 22.15625 37.445313 22.484375 38.3125 22.84375L37.5625 24.71875C36.761719 24.386719 35.902344 24.078125 35 23.8125 Z M 15.84375 32C15.535156 32.050781 15.265625 32.242188 15.121094 32.515625C14.972656 32.792969 14.960938 33.121094 15.09375 33.40625C15.09375 33.40625 15.324219 33.945313 15.5625 34.53125C15.683594 34.824219 15.824219 35.125 15.90625 35.375C15.972656 35.582031 15.964844 35.691406 15.96875 35.6875C15.925781 35.742188 15.824219 36.117188 15.625 36.5C15.359375 37.011719 15 37.65625 15 38.5C15 39.34375 15.363281 39.984375 15.625 40.46875C15.886719 40.953125 16 41.332031 16 41.25C16 41.167969 15.796875 41.9375 15.5625 42.5C15.328125 43.0625 15.09375 43.5625 15.09375 43.5625C14.851563 44.0625 15.0625 44.664063 15.5625 44.90625C16.0625 45.148438 16.664063 44.9375 16.90625 44.4375C16.90625 44.4375 17.171875 43.910156 17.4375 43.28125C17.703125 42.652344 18 42.070313 18 41.25C18 40.429688 17.613281 39.972656 17.375 39.53125C17.136719 39.089844 17 38.714844 17 38.5C17 38.285156 17.140625 37.859375 17.375 37.40625C17.609375 36.953125 18 36.609375 18 35.75C18 35.320313 17.886719 35.070313 17.78125 34.75C17.675781 34.429688 17.566406 34.101563 17.4375 33.78125C17.175781 33.140625 16.90625 32.59375 16.90625 32.59375C16.726563 32.179688 16.292969 31.933594 15.84375 32 Z M 33.84375 32C33.535156 32.050781 33.265625 32.242188 33.121094 32.515625C32.972656 32.792969 32.960938 33.121094 33.09375 33.40625C33.09375 33.40625 33.324219 33.945313 33.5625 34.53125C33.683594 34.824219 33.824219 35.125 33.90625 35.375C33.972656 35.582031 33.964844 35.691406 33.96875 35.6875C33.925781 35.742188 33.824219 36.117188 33.625 36.5C33.359375 37.011719 33 37.65625 33 38.5C33 39.34375 33.363281 39.984375 33.625 40.46875C33.886719 40.953125 34 41.332031 34 41.25C34 41.167969 33.796875 41.9375 33.5625 42.5C33.328125 43.0625 33.09375 43.5625 33.09375 43.5625C32.851563 44.0625 33.0625 44.664063 33.5625 44.90625C34.0625 45.148438 34.664063 44.9375 34.90625 44.4375C34.90625 44.4375 35.171875 43.910156 35.4375 43.28125C35.703125 42.652344 36 42.070313 36 41.25C36 40.429688 35.613281 39.972656 35.375 39.53125C35.136719 39.089844 35 38.714844 35 38.5C35 38.285156 35.140625 37.859375 35.375 37.40625C35.609375 36.953125 36 36.609375 36 35.75C36 35.320313 35.886719 35.070313 35.78125 34.75C35.675781 34.429688 35.566406 34.101563 35.4375 33.78125C35.175781 33.140625 34.90625 32.59375 34.90625 32.59375C34.726563 32.179688 34.292969 31.933594 33.84375 32 Z M 24.96875 33.96875C24.90625 33.972656 24.84375 33.984375 24.78125 34C24.484375 34.066406 24.230469 34.261719 24.097656 34.539063C23.964844 34.8125 23.960938 35.132813 24.09375 35.40625C24.09375 35.40625 24.320313 35.949219 24.5625 36.59375C24.683594 36.914063 24.792969 37.253906 24.875 37.53125C24.953125 37.792969 24.996094 38.015625 25 37.96875C24.96875 37.945313 24.824219 38.390625 24.59375 38.875C24.332031 39.429688 24 40.132813 24 41C24 41.867188 24.332031 42.535156 24.59375 43.0625C24.855469 43.589844 25 44.011719 25 44C25 43.988281 24.800781 44.820313 24.5625 45.4375C24.324219 46.054688 24.09375 46.59375 24.09375 46.59375C23.894531 46.925781 23.90625 47.339844 24.117188 47.660156C24.332031 47.980469 24.710938 48.152344 25.09375 48.097656C25.472656 48.042969 25.792969 47.773438 25.90625 47.40625C25.90625 47.40625 26.175781 46.839844 26.4375 46.15625C26.699219 45.472656 27 44.816406 27 44C27 43.183594 26.644531 42.671875 26.40625 42.1875C26.167969 41.703125 26 41.289063 26 41C26 40.710938 26.167969 40.246094 26.40625 39.75C26.644531 39.253906 27 38.839844 27 38C27 37.582031 26.917969 37.316406 26.8125 36.96875C26.707031 36.621094 26.566406 36.253906 26.4375 35.90625C26.179688 35.210938 25.90625 34.59375 25.90625 34.59375C25.753906 34.210938 25.378906 33.964844 24.96875 33.96875Z" fill="#4B4B4B" />
</svg>