<svg xmlns="http://www.w3.org/20FAF24400/svg" viewBox="0 0 50 50">
  <path d="M25 3C14.5 3 6 11.5 6 22C6 22.7 5.9996094 23.3 6.0996094 24L19.400391 24C19.200391 23.4 19 22.7 19 22C19 18.7 21.7 16 25 16C28.3 16 31 18.7 31 22C31 22.7 30.899219 23.4 30.699219 24L43.900391 24C44.000391 23.3 44 22.7 44 22C44 11.5 35.5 3 25 3 z M 25 20 A 2 2 0 0 0 23 22 A 2 2 0 0 0 25 24 A 2 2 0 0 0 27 22 A 2 2 0 0 0 25 20 z M 4 26C3.4 26 3 26.4 3 27L3 46C3 46.6 3.4 47 4 47L46 47C46.6 47 47 46.6 47 46L47 27C47 26.4 46.6 26 46 26L4 26 z M 19 31L31 31C31.6 31 32 31.4 32 32C32 32.6 31.6 33 31 33L19 33C18.4 33 18 32.6 18 32C18 31.4 18.4 31 19 31 z" fill="#4B4B4B" />
</svg>