<svg xmlns="http://www.w3.org/2000/svg" viewBox="0 0 50 50">
  <path d="M12 5C5.09375 5 2 7.511719 2 10L2 42C2 43.652344 3.347656 45 5 45L45 45C46.652344 45 48 43.652344 48 42L48 10C48 7.511719 44.90625 5 38 5 Z M 11 13L28 13L28 20L11 20 Z M 37.5 17C39.984375 17 42 19.015625 42 21.5C42 23.984375 39.984375 26 37.5 26C35.015625 26 33 23.984375 33 21.5C33 19.015625 35.015625 17 37.5 17 Z M 37.5 20C36.671875 20 36 20.671875 36 21.5C36 22.328125 36.671875 23 37.5 23C38.328125 23 39 22.328125 39 21.5C39 20.671875 38.328125 20 37.5 20 Z M 23.5 25C24.328125 25 25 25.671875 25 26.5C25 27.328125 24.328125 28 23.5 28C22.671875 28 22 27.328125 22 26.5C22 25.671875 22.671875 25 23.5 25 Z M 12 34L38 34C39.65625 34 41 35.34375 41 37L41 43L37.9375 43C37.972656 42.835938 38 42.671875 38 42.5L38 39.5C38 38.121094 36.878906 37 35.5 37C34.121094 37 33 38.121094 33 39.5L33 42.5C33 42.671875 33.027344 42.835938 33.0625 43L30.9375 43C30.972656 42.835938 31 42.671875 31 42.5L31 39.5C31 38.121094 29.878906 37 28.5 37C27.121094 37 26 38.121094 26 39.5L26 42.5C26 42.671875 26.027344 42.835938 26.0625 43L23.9375 43C23.972656 42.835938 24 42.671875 24 42.5L24 39.5C24 38.121094 22.878906 37 21.5 37C20.121094 37 19 38.121094 19 39.5L19 42.5C19 42.671875 19.027344 42.835938 19.0625 43L16.9375 43C16.972656 42.835938 17 42.671875 17 42.5L17 39.5C17 38.121094 15.878906 37 14.5 37C13.121094 37 12 38.121094 12 39.5L12 42.5C12 42.671875 12.027344 42.835938 12.0625 43L9 43L9 37C9 35.34375 10.34375 34 12 34Z" fill="#4F51C0" />
</svg>