<svg xmlns="http://www.w3.org/2000/svg" viewBox="0 0 50 50">
  <path d="M5 5L5 17L3 17C1.300781 17 0 18.300781 0 20L0 42C0 43.699219 1.300781 45 3 45L47 45C48.699219 45 50 43.699219 50 42L50 20C50 18.300781 48.699219 17 47 17L45 17L45 5L43 5L43 17L41 17L41 5L37 5L37 17L35 17L35 5L33 5L33 17L31 17L31 5L28 5L28 17L26 17L26 5L24 5L24 17L22 17L22 5L14 5L14 17L12 17L12 5L9 5L9 17L7 17L7 5 Z M 5 19L7 19L7 35L5 35 Z M 9 19L12 19L12 35L9 35 Z M 14 19L22 19L22 35L14 35 Z M 24 19L26 19L26 35L24 35 Z M 28 19L31 19L31 35L28 35 Z M 33 19L35 19L35 35L33 35 Z M 37 19L41 19L41 35L37 35 Z M 43 19L45 19L45 35L43 35Z" fill="#4F51C0" />
</svg>