<svg xmlns="http://www.w3.org/2000/svg" viewBox="0 0 50 50">
  <path d="M7.6875 0C6.785156 0 6.003906 0.664063 5.8125 1.625L0.65625 32.21875C1.078125 32.078125 1.519531 32 2 32L48 32C48.488281 32 48.949219 32.105469 49.375 32.25L44.28125 1.59375C44.097656 0.664063 43.3125 0 42.40625 0 Z M 2 34C0.839844 34 0 34.839844 0 36L0 48C0 49.160156 0.839844 50 2 50L48 50C49.160156 50 50 49.160156 50 48L50 36C50 34.839844 49.160156 34 48 34 Z M 7 40L9 40L9 43L12 43L12 40L14 40L14 43L17 43L17 40L19 40L19 43L22 43L22 40L24 40L24 43L27 43L27 40L29 40L29 43L32 43L32 40L34 40L34 45L7 45 Z M 41 40C42.101563 40 43 40.898438 43 42C43 43.101563 42.101563 44 41 44C39.898438 44 39 43.101563 39 42C39 40.898438 39.898438 40 41 40Z" fill="#4F51C0" />
</svg>