<svg xmlns="http://www.w3.org/2000/svg" viewBox="0 0 50 50">
  <path d="M19 2C18.602 2 18.240031 2.2365625 18.082031 2.6015625C17.923031 2.9675625 17.999484 3.3925938 18.271484 3.6835938L29.521484 15.683594C29.710484 15.885594 29.974 16 30.25 16L45 16L45 29L47 29L47 16L48 16C48.404 16 48.769828 15.755813 48.923828 15.382812C49.078828 15.008812 48.993031 14.578969 48.707031 14.292969L36.707031 2.2929688C36.520031 2.1049688 36.266 2 36 2L19 2 z M 20.421875 8.9023438L18.15625 12.462891C17.91825 12.837891 17.954094 13.323203 18.246094 13.658203L26.121094 22.658203C26.311094 22.874203 26.587 23 26.875 23L41 23C41.553 23 42 22.552 42 22L42 18L30.25 18C29.425 18 28.627547 17.655734 28.060547 17.052734L20.421875 8.9023438 z M 6.625 13C5.178 13 4 14.183719 4 15.636719L4 39.363281C4 40.816281 5.178 42 6.625 42L39.375 42C40.822 42 42 40.816281 42 39.363281L42 25L41 25L40 25L40 36L6 36L6 15.636719C6 15.286719 6.28 15 6.625 15L16.666016 15C16.202016 14.422 15.987578 13.709 16.017578 13L6.625 13 z M 46 31C44.895 31 44 31.895 44 33C44 34.105 46 37 46 37C46 37 48 34.105 48 33C48 31.895 47.105 31 46 31 z M 23 38C23.552 38 24 38.448 24 39C24 39.552 23.552 40 23 40C22.448 40 22 39.552 22 39C22 38.448 22.448 38 23 38 z M 18.808594 44C18.384594 45.15 17.276 46 16 46C15.447 46 15 46.448 15 47C15 47.552 15.447 48 16 48L30 48C30.553 48 31 47.552 31 47C31 46.448 30.553 46 30 46C28.724 46 27.615406 45.15 27.191406 44L18.808594 44 z" fill="#4F51C0" />
</svg>