<svg xmlns="http://www.w3.org/2000/svg" viewBox="0 0 50 50">
  <path d="M11.4375 1.90625C10.152344 1.972656 8.75 2.535156 7.9375 4.15625C7.347656 5.332031 7.257813 6.535156 7.6875 7.65625C8.148438 8.867188 9.195313 9.917969 10.5 10.4375C11.492188 10.832031 14.460938 11.859375 17.34375 12.875C19.597656 13.667969 21.746094 14.429688 22.5 14.71875C23.039063 14.925781 23.988281 15.386719 24.34375 16.28125C24.609375 16.945313 24.496094 17.785156 24.03125 18.75C23.238281 20.402344 20.652344 25.417969 20.625 25.46875L22.40625 26.375C22.511719 26.167969 25.035156 21.304688 25.84375 19.625C26.558594 18.136719 26.667969 16.765625 26.1875 15.5625C25.714844 14.375 24.644531 13.402344 23.1875 12.84375C22.410156 12.546875 20.296875 11.796875 18.03125 11C15.300781 10.039063 12.203125 8.941406 11.25 8.5625C10.46875 8.25 9.824219 7.625 9.5625 6.9375C9.335938 6.339844 9.382813 5.703125 9.71875 5.03125C10.542969 3.382813 12.585938 3.988281 12.8125 4.0625C12.8125 4.0625 27.203125 8.910156 29.6875 9.75C31.890625 10.496094 32.480469 11.410156 33.03125 13.28125C33.511719 14.914063 38.71875 35.160156 40.46875 42L42.53125 42C40.910156 35.652344 35.480469 14.449219 34.96875 12.71875C34.289063 10.40625 33.308594 8.878906 30.34375 7.875C27.859375 7.035156 13.4375 2.1875 13.4375 2.1875C12.933594 2.019531 12.207031 1.867188 11.4375 1.90625 Z M 13.125 25C5.765625 25 1 29.53125 1 36.53125L1 37.9375C2.359375 36.8125 4.101563 36.15625 6 36.15625C10.332031 36.15625 13.84375 39.667969 13.84375 44C13.84375 45.898438 13.1875 47.640625 12.0625 49L13.125 49C18.964844 49 30 47.1875 30 40.34375C30 34.003906 21.277344 25 13.125 25 Z M 6 38.15625C2.769531 38.15625 0.15625 40.769531 0.15625 44C0.15625 47.230469 2.769531 49.84375 6 49.84375C9.230469 49.84375 11.84375 47.230469 11.84375 44C11.84375 40.769531 9.230469 38.15625 6 38.15625 Z M 35 43C33.898438 43 33 43.898438 33 45L33 49L50 49L50 45C50 43.898438 49.101563 43 48 43Z" fill="#4F51C0" />
</svg>