<svg xmlns="http://www.w3.org/2000/svg" viewBox="0 0 50 50">
  <path d="M29 3C29 6.0943034 28.283136 7.442811 27.355469 8.1875C26.427802 8.932189 25.025898 9.1584826 23.412109 9.3632812C21.798321 9.5680799 19.973915 9.7510533 18.476562 10.933594C17.091035 12.02782 16.224776 13.925801 16.101562 16.890625C15.984908 16.869668 15.865392 16.861534 15.75 16.835938L8.1015625 15.121094C7.7385625 15.040094 7.368 15 7 15C4.9 15 3.0932031 16.250672 2.2832031 18.263672C2.1852031 18.505672 2.1183125 18.784625 2.0703125 19.140625L0.044921875 34.339844C-0.21907813 36.318844 0.7166875 38.261062 2.4296875 39.289062C3.0636875 39.668062 8.856 43 17 43C22.823 43 28.144922 41.552625 32.419922 40.390625C35.053922 39.673625 39.486 39 41 39L44.8125 39C45.7345 39 46.542891 38.827281 47.212891 38.488281C49.165891 37.503281 50.240078 35.483844 49.955078 33.339844L47.839844 17.472656C47.576844 15.493656 45.872 14 43.875 14L33.748047 14C31.491047 14 29.241547 14.293047 27.060547 14.873047L20.015625 16.748047C19.392383 16.914486 18.744373 17.001455 18.09375 17.029297C18.182843 14.395161 18.854547 13.18292 19.716797 12.501953C20.642508 11.770868 22.047101 11.552858 23.664062 11.347656C25.281025 11.142455 27.112026 10.948483 28.607422 9.7480469C30.102818 8.5476109 31 6.4246966 31 3L29 3 z M 34.167969 19L37.167969 19L37.667969 22L34.667969 22L34.167969 19 z M 39.167969 19L42.167969 19L42.667969 22L39.667969 22L39.167969 19 z M 32.177734 19.064453L32.671875 22.035156C31.683875 22.086156 30.700469 22.199672 29.730469 22.388672L29.248047 19.496094C30.213047 19.284094 31.192734 19.138453 32.177734 19.064453 z M 27.328125 19.976562L27.808594 22.849609L24.775391 23.65625L24.296875 20.783203L27.328125 19.976562 z M 7.4667969 20.205078L10.693359 20.841797L10.208984 23.746094L6.9824219 23.109375L7 23L7.4667969 20.205078 z M 12.623047 21.263672L15.552734 21.914062L15.105469 24.814453L12.140625 24.15625L12.623047 21.263672 z M 22.382812 21.292969L22.861328 24.166016L19.914062 24.949219L19.472656 22.068359L22.382812 21.292969 z M 35.167969 25L38.167969 25L38.667969 28L35.667969 28L35.167969 25 z M 40.167969 25L43.167969 25L43.667969 28L40.667969 28L40.167969 25 z M 33.169922 25.019531L33.667969 28.003906C32.674969 28.007906 31.685078 28.086469 30.705078 28.230469L30.21875 25.308594C31.19475 25.142594 32.178922 25.046531 33.169922 25.019531 z M 28.287109 25.720703L28.767578 28.607422C28.627578 28.641422 28.486656 28.667078 28.347656 28.705078L25.734375 29.400391L25.255859 26.527344L28.287109 25.720703 z M 6 25.917969L9.7246094 26.650391L9.2402344 29.554688L6 28.917969L6 25.917969 z M 23.339844 27.037109L23.818359 29.910156L20.802734 30.712891L20.359375 27.830078L23.339844 27.037109 z M 11.658203 27.048828L14.660156 27.716797L14.214844 30.617188L11.177734 29.941406L11.658203 27.048828 z M 32.392578 31L34.167969 31L34.667969 34L32.392578 34C32.151578 34 31.910922 34.011531 31.669922 34.019531L31.173828 31.035156C31.578828 31.012156 31.985578 31 32.392578 31 z M 36.167969 31L39.167969 31L39.667969 34L36.667969 34L36.167969 31 z M 41.167969 31L44.167969 31L44.667969 34L41.667969 34L41.167969 31 z M 29.208984 31.25L29.697266 34.179688C29.016266 34.267688 28.338922 34.382109 27.669922 34.537109L26.636719 34.820312L26.158203 31.951172L27.669922 31.537109C28.178922 31.420109 28.692984 31.329 29.208984 31.25 z M 5 32L8.71875 32.689453L8.2324219 35.599609L5 35L5 32 z M 24.246094 32.474609L24.724609 35.34375L19.880859 36.667969C18.220859 37.050969 16.500312 37.102266 14.820312 36.822266L10.173828 35.960938L10.658203 33.050781L14.820312 33.822266C16.501313 34.102266 18.220859 34.050969 19.880859 33.667969L24.246094 32.474609 z" fill="#4F51C0" />
</svg>