<svg xmlns="http://www.w3.org/2000/svg" viewBox="0 0 50 50">
  <path d="M9 0C6.757813 0 5 1.757813 5 4L5 44.5C5 46.425781 6.386719 48.085938 8.3125 48.46875C10.746094 48.925781 17.25 50 25 50C32.75 50 39.257813 48.929688 41.71875 48.46875C43.65625 48.054688 45 46.429688 45 44.5L45 4C45 1.757813 43.242188 0 41 0 Z M 10 5L40 5L40 39L10 39 Z M 13.90625 11L13.90625 13L35.90625 13L35.90625 11 Z M 13.90625 16L13.90625 18L29.90625 18L29.90625 16 Z M 13.90625 21L13.90625 23L35.90625 23L35.90625 21 Z M 13.90625 26L13.90625 28L29.90625 28L29.90625 26 Z M 13.90625 31L13.90625 33L35.90625 33L35.90625 31 Z M 23 42L27 42C27.601563 42 28 42.398438 28 43L28 45C28 45.601563 27.601563 46 27 46L23 46C22.398438 46 22 45.601563 22 45L22 43C22 42.398438 22.398438 42 23 42 Z M 15 43C15.550781 43 16 43.445313 16 44C16 44.554688 15.550781 45 15 45C14.449219 45 14 44.554688 14 44C14 43.445313 14.449219 43 15 43 Z M 19 43C19.550781 43 20 43.445313 20 44C20 44.554688 19.550781 45 19 45C18.449219 45 18 44.554688 18 44C18 43.445313 18.449219 43 19 43 Z M 31 43C31.554688 43 32 43.445313 32 44C32 44.554688 31.554688 45 31 45C30.445313 45 30 44.554688 30 44C30 43.445313 30.445313 43 31 43 Z M 35 43C35.554688 43 36 43.445313 36 44C36 44.554688 35.554688 45 35 45C34.445313 45 34 44.554688 34 44C34 43.445313 34.445313 43 35 43Z" fill="#4B4B4B" />
</svg>