<svg xmlns="http://www.w3.org/2000/svg" viewBox="0 0 50 50">
  <path d="M23 6C21.894531 6 21 6.894531 21 8L21 35C21 36.105469 21.894531 37 23 37L32 37L32 32L39.5 32C40.867188 32 42 30.867188 42 29.5C42 28.132813 40.867188 27 39.5 27L32 27L32 16L39.5 16C40.867188 16 42 14.867188 42 13.5C42 12.132813 40.867188 11 39.5 11L32 11L32 6 Z M 12.636719 10C10.628906 10 9 11.871094 9 14.183594L9 33L19 33L19 10 Z M 32 13L39.5 13C39.785156 13 40 13.214844 40 13.5C40 13.785156 39.785156 14 39.5 14L32 14 Z M 32 29L39.5 29C39.785156 29 40 29.214844 40 29.5C40 29.785156 39.785156 30 39.5 30L32 30 Z M 12 35L13.199219 48L16.800781 48L18 35Z" fill="#4B4B4B" />
</svg>