<svg xmlns="http://www.w3.org/2000/svg" width="43.502" height="38.98" viewBox="0 0 43.502 38.98">
  <g id="surface1" transform="translate(-0.445 -1.75)">
    <path id="Path_48" data-name="Path 48" d="M4.918,1.75A1.762,1.762,0,0,0,3.157,3.5V26.241a1.77,1.77,0,0,0,.227.885,1.318,1.318,0,0,0-.154.341L.664,35.625a.915.915,0,0,0-.219.584v2.727A1.791,1.791,0,0,0,2.2,40.73h40a1.786,1.786,0,0,0,1.753-1.794V36.209a.872.872,0,0,0-.219-.584l-2.565-8.158a1.672,1.672,0,0,0-.146-.341,1.859,1.859,0,0,0,.227-.885V3.5A1.769,1.769,0,0,0,39.475,1.75Zm.041,1.8H39.434V26.241c0-.081-.065,0,0,0H4.959c.073,0,0-.081,0,0ZM9.5,28.051H34.9l.909,2.719H8.587Zm9.075,4.529h7.257l.9,1.818H17.663ZM2.223,37.1H42.169v1.851H2.223V37.1Z" transform="translate(0 0)" fill="#4B4B4B"/>
  </g>
</svg>
