<svg xmlns="http://www.w3.org/2000/svg" viewBox="0 0 50 50">
  <path d="M36 3L14 3C12.347656 3 11 4.347656 11 6L11 44C11 45.652344 12.347656 47 14 47L36 47C37.652344 47 39 45.652344 39 44L39 6C39 4.347656 37.652344 3 36 3 Z M 25 5.5C25.554688 5.5 26 5.949219 26 6.5C26 7.050781 25.554688 7.5 25 7.5C24.449219 7.5 24 7.050781 24 6.5C24 5.949219 24.449219 5.5 25 5.5 Z M 28 44L22 44C21.449219 44 21 43.554688 21 43C21 42.445313 21.449219 42 22 42L28 42C28.554688 42 29 42.445313 29 43C29 43.554688 28.554688 44 28 44 Z M 34 40L16 40L16 9L34 9Z" fill="#4B4B4B" />
</svg>