<svg xmlns="http://www.w3.org/2000/svg" viewBox="0 0 50 50">
  <path d="M5.9511719 4.0058594C4.8995605 4.0058594 4.0058594 4.8668605 4.0058594 5.9316406L4.0058594 31.011719C4.0058594 31.369856 4.1015109 31.695661 4.2578125 31.980469C4.1925211 32.093579 4.1334738 32.21502 4.0898438 32.353516 A 0.89558955 0.89558955 0 0 0 4.0878906 32.355469L1.265625 41.351562 A 0.97959795 0.97959795 0 0 0 1.0195312 42L1.0195312 45C1.0195314 46.059495 1.875018 46.980469 2.9570312 46.980469L47.042969 46.980469C48.124982 46.980469 48.980469 46.059495 48.980469 45L48.980469 42 A 0.97959795 0.97959795 0 0 0 48.734375 41.351562L45.912109 32.355469C45.868237 32.214915 45.808338 32.092899 45.742188 31.978516C45.89797 31.69405 45.994141 31.36922 45.994141 31.011719L45.994141 5.9316406C45.994141 4.8668605 45.10044 4.0058594 44.048828 4.0058594L5.9511719 4.0058594 z M 5.9941406 5.9941406L44.005859 5.9941406L44.005859 31.011719C44.005859 30.914319 43.92732 31.005859 44 31.005859L6 31.005859C6.072717 31.005859 5.9941406 30.914279 5.9941406 31.011719L5.9941406 5.9941406 z M 26 10C21.041282 10 17 14.041282 17 19C17 22.192914 18.680142 24.997494 21.197266 26.595703 A 1.0004882 1.0004882 0 0 0 21.880859 26.992188C23.116918 27.632523 24.515793 28 26 28C30.958718 28 35 23.958718 35 19C35 14.041282 30.958718 10 26 10 z M 26 12C28.387393 12 30.485708 13.185455 31.748047 15L26.142578 15 A 1.0001 1.0001 0 0 0 26.056641 15.003906C26.045273 15.003809 26.034827 15 26.023438 15C24.751914 15 23.629382 15.621449 22.900391 16.5625L21.455078 13.673828C22.676843 12.631023 24.260564 12 26 12 z M 20.042969 15.324219L22.089844 19.416016C22.246661 20.896434 23.207956 22.146763 24.527344 22.697266L21.980469 24.734375C20.177005 23.470569 19 21.378787 19 19C19 17.648309 19.384508 16.392058 20.042969 15.324219 z M 29.441406 17L32.707031 17C32.894572 17.633742 33 18.303862 33 19C33 22.877838 29.877838 26 26 26C25.294758 26 24.615629 25.893467 23.974609 25.701172L27.625 22.78125 A 1.0001 1.0001 0 0 0 27.855469 22.525391C29.12249 21.85297 30 20.528299 30 19C30 18.269874 29.786521 17.592084 29.441406 17 z M 11 33L39 33L40 36L10 36L11 33 z M 21 38L29 38L30 40L20 40L21 38 z M 2.9804688 42.980469L47.019531 42.980469L47.019531 45C47.019531 45.015929 47.020478 45.017072 47.021484 45.019531L2.9785156 45.019531C2.9795216 45.017072 2.9804684 45.015925 2.9804688 45L2.9804688 42.980469 z" fill="#4F51C0" />
</svg>