<svg xmlns="http://www.w3.org/2000/svg" viewBox="0 0 50 50">
  <path d="M17 2C14.609375 2 11.660156 2.535156 9.226563 4.34375C6.792969 6.15625 5 9.285156 5 14C5 19.75 6.148438 23.765625 7.324219 26.359375C7.910156 27.65625 8.523438 28.609375 8.992188 29.246094L6.070313 39.511719C6.027344 39.671875 6.011719 39.835938 6.011719 40L44 40C44 39.828125 43.980469 39.660156 43.9375 39.484375L39.976563 25.511719C39.75 24.621094 38.945313 24 38.019531 24L38 24L38 9L36 9L36 13L29 13L29 15L36 15L36 29L35.007813 29L35.007813 24L15.007813 24L15.007813 29L14 29L14 15L21 15L21 13L14 13L14 9L12 9L12 24C11.078125 24.003906 10.277344 24.625 10.0625 25.484375L9.726563 26.664063C9.535156 26.320313 9.347656 25.976563 9.148438 25.535156C8.085938 23.203125 7 19.484375 7 14C7 9.773438 8.46875 7.402344 10.421875 5.949219C12.371094 4.496094 14.917969 4 17 4C20.65625 4 22.253906 5.308594 23.109375 6.5625C23.46875 7.09375 23.664063 7.59375 23.792969 8.023438C22.789063 8.125 22 8.96875 22 10L22 18C22 19.101563 22.898438 20 24 20L24 22L26 22L26 20C27.101563 20 28 19.101563 28 18L28 10C28 8.898438 27.101563 8 26 8L25.851563 8C25.703125 7.320313 25.40625 6.386719 24.761719 5.4375C23.570313 3.691406 21.167969 2 17 2 Z M 16.832031 26L20.921875 26L20.074219 37L15 37 Z M 22.925781 26L27.074219 26L27.921875 37L22.078125 37 Z M 29.078125 26L33.167969 26L35 37L29.925781 37 Z M 6 42L6 46C6 47.101563 6.898438 48 8 48L42 48C43.101563 48 44 47.101563 44 46L44 42 Z M 25 44C25.550781 44 26 44.449219 26 45C26 45.550781 25.550781 46 25 46C24.449219 46 24 45.550781 24 45C24 44.449219 24.449219 44 25 44Z" fill="#4F51C0" />
</svg>