<svg xmlns="http://www.w3.org/2000/svg" viewBox="0 0 26 26">
  <path d="M3 4C1.34375 4 0 5.34375 0 7L0 19C0 20.65625 1.34375 22 3 22L23 22C24.65625 22 26 20.65625 26 19L26 7C26 5.34375 24.65625 4 23 4 Z M 3 8.875L23 8.875L23 17.125L3 17.125 Z M 8 9.1875C5.894531 9.1875 4.1875 10.894531 4.1875 13C4.1875 15.105469 5.894531 16.8125 8 16.8125C10.105469 16.8125 11.8125 15.105469 11.8125 13C11.8125 10.894531 10.105469 9.1875 8 9.1875 Z M 18 9.1875C15.894531 9.1875 14.1875 10.894531 14.1875 13C14.1875 15.105469 15.894531 16.875 18 16.875C20.105469 16.875 21.8125 15.167969 21.8125 13.0625C21.8125 10.957031 20.105469 9.1875 18 9.1875 Z M 8 11.53125C8.808594 11.53125 9.46875 12.191406 9.46875 13C9.46875 13.808594 8.808594 14.46875 8 14.46875C7.191406 14.46875 6.53125 13.808594 6.53125 13C6.53125 12.191406 7.191406 11.53125 8 11.53125 Z M 18 11.53125C18.808594 11.53125 19.46875 12.191406 19.46875 13C19.46875 13.808594 18.808594 14.46875 18 14.46875C17.191406 14.46875 16.53125 13.808594 16.53125 13C16.53125 12.191406 17.191406 11.53125 18 11.53125Z" fill="#4B4B4B" />
</svg>