<svg xmlns="http://www.w3.org/2000/svg" viewBox="0 0 50 50">
  <path d="M12 0C8.300781 0 6 1.914063 6 5L6 27.59375C2.28125 29.699219 0 33.636719 0 38C0 44.617188 5.382813 50 12 50C18.617188 50 24 44.617188 24 38C24 33.636719 21.71875 29.699219 18 27.59375L18 23L12 23L12 21L18 21L18 19L14 19L14 17L18 17L18 15L12 15L12 13L18 13L18 5C18 1.914063 15.699219 0 12 0 Z M 12 2C13.824219 2 16 2.519531 16 5L16 9L8 9L8 5C8 2.519531 10.175781 2 12 2 Z M 34.59375 5C33.710938 5 32.996094 5.675781 33 6.40625L32.75 8.90625C32.246094 9.136719 31.789063 9.421875 31.34375 9.75L28.90625 8.65625C28.273438 8.445313 27.574219 8.617188 27.09375 9.09375L24.46875 13.53125C24.210938 13.917969 24.136719 14.390625 24.25 14.8125C24.351563 15.183594 24.582031 15.503906 24.90625 15.71875L27 17.21875L27 18C27 18.253906 27.003906 18.535156 27.03125 18.84375L25.03125 20.28125C24.394531 20.707031 24.171875 21.421875 24.4375 22.21875L27.0625 26.75C27.542969 27.472656 28.4375 27.699219 29.15625 27.28125L31.5 26.25C31.917969 26.523438 32.34375 26.765625 32.84375 27.03125L33.09375 29.5C33.09375 30.328125 33.804688 31 34.6875 31L39.59375 31C40.476563 31 41.191406 30.324219 41.1875 29.59375L41.4375 27.09375C41.941406 26.863281 42.402344 26.578125 42.84375 26.25L45.1875 27.3125L45.28125 27.34375C45.460938 27.402344 45.65625 27.4375 45.84375 27.4375C46.320313 27.4375 46.75 27.25 47.09375 26.90625L49.75 22.46875C50.246094 21.71875 50.039063 20.777344 49.25 20.25L46.96875 18.8125C46.992188 18.515625 47 18.246094 47 18C47 17.746094 46.996094 17.464844 46.96875 17.15625L48.96875 15.71875C49.605469 15.292969 49.828125 14.578125 49.5625 13.78125L46.9375 9.25C46.457031 8.523438 45.5625 8.296875 44.84375 8.71875L42.5 9.75C42.082031 9.476563 41.65625 9.234375 41.15625 8.96875L40.90625 6.5625C40.957031 6.210938 40.890625 5.84375 40.6875 5.5625C40.421875 5.199219 39.984375 5 39.5 5 Z M 37 13C39.800781 13 42 15.199219 42 18C42 20.800781 39.800781 23 37 23C34.199219 23 32 20.800781 32 18C32 15.199219 34.199219 13 37 13Z" fill="#4B4B4B" />
</svg>