<svg xmlns="http://www.w3.org/2000/svg" viewBox="0 0 26 26">
  <path d="M13.5 0L11 4.40625L13.40625 4.40625L12.1875 6.5L11.59375 5.8125L11.09375 9L14 7.1875L12.90625 6.8125L15.5 3.40625L13 3.40625L15.40625 0 Z M 2 10C0.898438 10 0 10.898438 0 12L0 22.59375C0 22.894531 0.113281 23.113281 0.3125 23.3125L2.6875 25.6875C2.886719 25.886719 3.105469 26 3.40625 26L22.59375 26C22.894531 26 23.113281 25.886719 23.3125 25.6875L25.6875 23.3125C25.886719 23.113281 26 22.894531 26 22.59375L26 12C26 10.898438 25.101563 10 24 10 Z M 3 15L23 15L23 19L3 19Z" fill="#4B4B4B" />
</svg>