<svg xmlns="http://www.w3.org/2000/svg" viewBox="0 0 50 50">
  <path d="M35.21875 0C35.015625 0.0351563 34.832031 0.136719 34.6875 0.28125L30.90625 4.09375C30.859375 4.140625 30.816406 4.195313 30.78125 4.25L29.6875 5.3125C26.050781 3.710938 22.890625 3.722656 21.125 5.375C21.101563 5.398438 21.054688 5.410156 21.03125 5.4375C21.023438 5.441406 21.039063 5.464844 21.03125 5.46875C19.964844 6.445313 18.984375 8.503906 20.4375 12.71875C21.453125 15.867188 23.632813 19.34375 26.75 22.78125C31.226563 27.671875 36.765625 30.96875 40.5 30.96875C41.433594 30.96875 42.234375 30.769531 42.90625 30.375C42.957031 30.347656 43.015625 30.289063 43.0625 30.25C43.382813 29.972656 43.679688 29.761719 43.9375 29.5625C44.265625 29.308594 44.542969 29.085938 44.71875 28.90625C46.488281 27.136719 46.46875 24.074219 44.75 20.25L45.78125 19.1875C45.824219 19.160156 45.867188 19.128906 45.90625 19.09375L45.9375 19.0625L49.71875 15.3125C49.90625 15.121094 50.007813 14.859375 50 14.59375L50 12C50.007813 11.734375 49.90625 11.472656 49.71875 11.28125L46.875 8.4375L48.90625 6.40625C50.371094 4.941406 50.371094 2.558594 48.90625 1.09375C48.171875 0.363281 47.210938 0 46.25 0C45.289063 0 44.324219 0.363281 43.59375 1.09375L41.5625 3.125L38.71875 0.28125C38.527344 0.09375 38.265625 -0.0078125 38 0L35.40625 0C35.375 0 35.34375 0 35.3125 0C35.28125 0 35.25 0 35.21875 0 Z M 46.25 1.96875C46.6875 1.96875 47.132813 2.132813 47.5 2.5C48.234375 3.234375 48.234375 4.265625 47.5 5L45.21875 7.3125C44.769531 7.363281 44.410156 7.710938 44.34375 8.15625L43.90625 8.59375C43.171875 9.328125 42.140625 9.328125 41.40625 8.59375C41.039063 8.226563 40.84375 7.785156 40.84375 7.34375C40.84375 7.234375 40.851563 7.109375 40.875 7C40.945313 6.671875 41.128906 6.371094 41.40625 6.09375L41.8125 5.6875C42.25 5.625 42.59375 5.28125 42.65625 4.84375L45 2.5C45.367188 2.132813 45.8125 1.96875 46.25 1.96875 Z M 35.8125 2L37.5625 2L40.125 4.5625L40 4.6875C38.535156 6.152344 38.535156 8.535156 40 10C41.464844 11.464844 43.847656 11.464844 45.3125 10L45.4375 9.875L48 12.4375L48 14.1875L45.21875 16.96875L33.03125 4.78125 Z M 31.625 6.21875L37 11.59375L32.78125 15.8125L27.40625 10.4375 Z M 17.78125 9.9375C12.570313 17.34375 4.882813 28.597656 4.34375 29.5C2.75 32.285156 2.542969 38.261719 7.09375 42.8125C9.621094 45.339844 12.742188 46.71875 15.875 46.71875C17.59375 46.71875 19.226563 46.308594 20.46875 45.53125L20.90625 45.21875C28.53125 40.152344 34.828125 35.890625 39.21875 32.84375C35.039063 32.265625 29.738281 28.992188 25.28125 24.125C21.976563 20.476563 19.652344 16.722656 18.5625 13.34375C18.121094 12.0625 17.882813 10.9375 17.78125 9.9375 Z M 38.40625 13L43.78125 18.375L39.5625 22.59375L34.1875 17.21875 Z M 3.625 41.65625L0.28125 45C-0.109375 45.390625 -0.109375 46.015625 0.28125 46.40625L3.59375 49.71875C3.789063 49.914063 4.054688 50 4.3125 50C4.570313 50 4.804688 49.914063 5 49.71875L8.34375 46.375C7.410156 45.765625 6.519531 45.050781 5.6875 44.21875C4.878906 43.410156 4.199219 42.542969 3.625 41.65625Z" fill="#4B4B4B" />
</svg>