<svg xmlns="http://www.w3.org/2000/svg" viewBox="0 0 50 50">
  <path d="M25.015625 1.953125L19.269531 12.015625L21.007813 12L24 11.976563L24 32.082031L16.414063 26.785156C16.152344 26.597656 16 26.300781 16 25.980469L16 24.855469C17.714844 24.40625 19 22.851563 19 21C19 18.800781 17.199219 17 15 17C12.800781 17 11 18.800781 11 21C11 22.851563 12.285156 24.40625 14 24.855469L14 25.980469C14 26.941406 14.464844 27.847656 15.246094 28.40625L15.25 28.410156L24 34.519531L24 36.09375C21.171875 36.570313 19 39.039063 19 42C19 45.300781 21.699219 48 25 48C28.300781 48 31 45.300781 31 42C31 39.039063 28.828125 36.570313 26 36.09375L26 30.566406L34.542969 25.441406C35.445313 24.898438 36 23.917969 36 22.863281L36 21L39 21L39 13L31 13L31 21L34 21L34 22.863281C34 23.21875 33.816406 23.542969 33.515625 23.726563L26 28.234375L26 11.957031L30.496094 11.921875Z" fill="#4B4B4B" />
</svg>