<svg xmlns="http://www.w3.org/2000/svg" viewBox="0 0 50 50">
  <path d="M36.984375 2 A 1.0001 1.0001 0 0 0 36.289062 2.296875L28.097656 10.582031L27.394531 9.8789062C26.839531 9.3239063 26.1015 9.013 25.3125 9C24.4995 9.019 23.729391 9.3009062 23.150391 9.8789062L5.515625 27.515625C0.836625 32.194625 0.836625 39.807328 5.515625 44.486328C7.855625 46.826328 10.927 47.994141 14 47.994141C17.073 47.994141 20.145375 46.826328 22.484375 44.486328L40.121094 26.849609C41.291094 25.679609 41.291094 23.775469 40.121094 22.605469L39.417969 21.902344L47.703125 13.710938 A 1.0001 1.0001 0 0 0 47.707031 12.292969L37.707031 2.2929688 A 1.0001 1.0001 0 0 0 36.984375 2 z M 37.003906 4.4179688L45.582031 12.996094L38.003906 20.488281L29.511719 11.996094L37.003906 4.4179688 z M 36 8L34 10L36 12L38 10L36 8 z M 40 12L38 14L40 16L42 14L40 12 z M 14.5 33C15.881 33 17 34.119 17 35.5C17 36.881 15.881 38 14.5 38C13.119 38 12 36.881 12 35.5C12 34.119 13.119 33 14.5 33 z" fill="#4B4B4B" />
</svg>