<svg xmlns="http://www.w3.org/2000/svg" viewBox="0 0 50 50">
  <path d="M1 4 A 1.0001 1.0001 0 1 0 1 6L2 6C3.1166661 6 4 6.8833339 4 8L4 10L4 40L4 45 A 1.0001 1.0001 0 1 0 6 45L6 40L9 40L9 43 A 1.0001 1.0001 0 0 0 10 44L14 44 A 1.0001 1.0001 0 0 0 15 43L15 40L17 40L17 43 A 1.0001 1.0001 0 0 0 18 44L33 44 A 1.0001 1.0001 0 0 0 34 43L34 40L36 40L36 43 A 1.0001 1.0001 0 0 0 37 44L39 44 A 1.0001 1.0001 0 1 0 39 42L38 42L38 40L47 40C48.657 40 50 38.657 50 37L50 13C50 11.343 48.657 10 47 10L6 10L6 8C6 5.8026661 4.1973339 4 2 4L1 4 z M 10 16L22 16C22.552 16 23 16.448 23 17C23 17.552 22.552 18 22 18L10 18C9.448 18 9 17.552 9 17C9 16.448 9.448 16 10 16 z M 36 16C38.292625 16 40.377743 16.864244 41.966797 18.275391C41.4353 18.48145 40.856052 18.7319 40.236328 19.089844C38.451803 20.12017 37.380994 21.159838 36.666016 22.078125 A 3 3 0 0 0 36 22 A 3 3 0 0 0 35.570312 22.033203C35.239438 21.195261 35 20.115482 35 18.375C35 17.363044 35.138618 16.592895 35.267578 16.037109C35.509892 16.017537 35.752641 16 36 16 z M 33.162109 16.462891C33.074393 17.02741 33 17.656501 33 18.375C33 20.433474 33.368385 21.876602 33.808594 22.957031 A 3 3 0 0 0 33.214844 23.888672C32.324446 23.756435 31.270496 23.424678 29.763672 22.554688C28.887523 22.048635 28.290346 21.542273 27.873047 21.152344C28.917513 18.950041 30.8236 17.240127 33.162109 16.462891 z M 43.400391 19.884766C44.40687 21.337912 45 23.098284 45 25C45 25.621375 44.936283 26.228545 44.816406 26.814453C44.370484 26.455327 43.860689 26.075466 43.236328 25.714844C41.452364 24.684841 40.022384 24.284644 38.869141 24.126953 A 3 3 0 0 0 38.357422 23.148438C38.915804 22.441024 39.725139 21.692824 41.236328 20.820312C42.116937 20.311685 42.855034 20.049883 43.400391 19.884766 z M 10 21L22 21C22.552 21 23 21.448 23 22C23 22.552 22.552 23 22 23L10 23C9.448 23 9 22.552 9 22C9 21.448 9.448 21 10 21 z M 27.183594 23.185547C27.629516 23.544673 28.139311 23.924534 28.763672 24.285156C30.54445 25.31332 31.977554 25.715541 33.132812 25.875 A 3 3 0 0 0 33.644531 26.857422C33.084857 27.56293 32.27025 28.309839 30.763672 29.179688C29.883063 29.688315 29.144966 29.950117 28.599609 30.115234C27.59313 28.662088 27 26.901716 27 25C27 24.378625 27.063717 23.771455 27.183594 23.185547 z M 38.785156 26.113281C39.676032 26.244373 40.726838 26.573782 42.236328 27.445312C43.112477 27.951365 43.709654 28.457727 44.126953 28.847656C43.082487 31.049959 41.1764 32.759873 38.837891 33.537109C38.925607 32.97259 39 32.343499 39 31.625C39 29.562853 38.629908 28.12482 38.189453 27.046875 A 3 3 0 0 0 38.785156 26.113281 z M 10 27L22 27C22.552 27 23 27.448 23 28C23 28.552 22.552 29 22 29L10 29C9.448 29 9 28.552 9 28C9 27.448 9.448 27 10 27 z M 35.326172 27.919922 A 3 3 0 0 0 36 28 A 3 3 0 0 0 36.4375 27.962891C36.765572 28.803364 37 29.890506 37 31.625C37 32.636956 36.861382 33.407105 36.732422 33.962891C36.490108 33.982463 36.247359 34 36 34C33.707375 34 31.622257 33.135756 30.033203 31.724609C30.5647 31.51855 31.143948 31.2681 31.763672 30.910156C33.545894 29.88116 34.610511 28.841084 35.326172 27.919922 z M 10 32L22 32C22.552 32 23 32.448 23 33C23 33.552 22.552 34 22 34L10 34C9.448 34 9 33.552 9 33C9 32.448 9.448 32 10 32 z M 11 40L13 40L13 42L11 42L11 40 z M 19 40L32 40L32 42L19 42L19 40 z" fill="#4B4B4B" />
</svg>