<svg xmlns="http://www.w3.org/2000/svg" viewBox="0 0 50 50">
  <path d="M8.84375 0C8.007813 0 7.226563 0.613281 7 1.4375L1.03125 23.125C1.34375 23.046875 1.664063 23 2 23L48 23C48.335938 23 48.65625 23.046875 48.96875 23.125L43 1.4375C42.773438 0.613281 41.992188 0 41.15625 0 Z M 25 8C33.726563 8 36.082031 10.523438 36.65625 11.0625C37.230469 11.601563 36.933594 14.527344 36.8125 15.21875C36.6875 15.910156 36.1875 16.242188 35.84375 16.1875C35.449219 16.125 31.367188 15.289063 30.90625 15.1875C30.59375 15.117188 30.300781 14.722656 30.15625 14.25C30.007813 13.777344 29.5 11.9375 29.5 11.9375C29.5 11.9375 28.222656 11.0625 25 11.0625C21.777344 11.058594 20.5 11.9375 20.5 11.9375C20.5 11.9375 19.992188 13.777344 19.84375 14.25C19.699219 14.722656 19.40625 15.082031 19.09375 15.15625C18.621094 15.269531 14.507813 16.125 14.15625 16.1875C13.804688 16.25 13.308594 15.910156 13.1875 15.21875C13.066406 14.527344 12.769531 11.601563 13.34375 11.0625C13.917969 10.523438 16.273438 8 25 8 Z M 2 25C0.898438 25 0 25.894531 0 27L0 37C0 38.105469 0.898438 39 2 39L24 39L24 44L7 44C6.96875 44 6.9375 44 6.90625 44C6.355469 44.027344 5.925781 44.496094 5.953125 45.046875C5.980469 45.597656 6.449219 46.027344 7 46L43 46C43.359375 46.003906 43.695313 45.816406 43.878906 45.503906C44.058594 45.191406 44.058594 44.808594 43.878906 44.496094C43.695313 44.183594 43.359375 43.996094 43 44L26 44L26 39L48 39C49.105469 39 50 38.105469 50 37L50 27C50 25.894531 49.105469 25 48 25 Z M 7 30C8.105469 30 9 30.894531 9 32C9 33.105469 8.105469 34 7 34C5.894531 34 5 33.105469 5 32C5 30.894531 5.894531 30 7 30 Z M 13 30C14.105469 30 15 30.894531 15 32C15 33.105469 14.105469 34 13 34C11.894531 34 11 33.105469 11 32C11 30.894531 11.894531 30 13 30 Z M 19 30C20.105469 30 21 30.894531 21 32C21 33.105469 20.105469 34 19 34C17.894531 34 17 33.105469 17 32C17 30.894531 17.894531 30 19 30 Z M 43 30C44.105469 30 45 30.894531 45 32C45 33.105469 44.105469 34 43 34C41.894531 34 41 33.105469 41 32C41 30.894531 41.894531 30 43 30 Z M 6.8125 48C6.261719 48.050781 5.855469 48.542969 5.90625 49.09375C5.957031 49.644531 6.449219 50.050781 7 50L43 50C43.359375 50.003906 43.695313 49.816406 43.878906 49.503906C44.058594 49.191406 44.058594 48.808594 43.878906 48.496094C43.695313 48.183594 43.359375 47.996094 43 48L7 48C6.96875 48 6.9375 48 6.90625 48C6.875 48 6.84375 48 6.8125 48Z" fill="#4B4B4B" />
</svg>