<svg xmlns="http://www.w3.org/2000/svg" viewBox="0 0 50 50">
  <path d="M2.59375 1C1.164063 1 0 2.164063 0 3.59375L0 34.40625C0 35.835938 1.164063 37 2.59375 37L29.375 37L39.03125 46.65625C39.542969 47.171875 40.199219 47.4375 40.90625 47.4375C41.390625 47.4375 41.839844 47.296875 42.25 47.09375C42.597656 47.441406 43.152344 47.996094 43.34375 48.1875C44.402344 49.246094 46.128906 49.246094 47.1875 48.1875C48.246094 47.128906 48.246094 45.402344 47.1875 44.34375C46.992188 44.148438 46.402344 43.558594 46.0625 43.21875C46.570313 42.226563 46.726563 41.105469 45.65625 40.03125L42.625 37L47.5 37C48.886719 36.949219 50 35.804688 50 34.40625L50 3.59375C50 2.164063 48.835938 1 47.40625 1 Z M 4 5L8 5L8 13L4 13 Z M 12 5L46 5L46 33C46 33 42.074219 33 38.625 33L36.625 31L44 31L44 7L14 7L14 31L23.03125 31C23.023438 31.199219 23.039063 31.394531 23.09375 31.59375C23.277344 32.28125 23.808594 32.816406 24.5 33C18.5625 33 12 33 12 33 Z M 6 16C7.65625 16 9 17.34375 9 19C9 20.65625 7.65625 22 6 22C4.34375 22 3 20.65625 3 19C3 17.34375 4.34375 16 6 16 Z M 6 18C5.449219 18 5 18.449219 5 19C5 19.550781 5.449219 20 6 20C6.550781 20 7 19.550781 7 19C7 18.449219 6.550781 18 6 18 Z M 21.65625 22C21.828125 22 22.023438 22.054688 22.15625 22.1875C22.234375 22.265625 23.160156 23.222656 23.46875 23.53125L23.625 23.375L29.0625 25.625L24.625 30.0625L22.375 24.625L22.53125 24.46875C22.222656 24.160156 21.265625 23.230469 21.1875 23.15625C20.925781 22.894531 20.925781 22.449219 21.1875 22.1875C21.316406 22.054688 21.484375 22 21.65625 22 Z M 4 25L8 25L8 33L4 33 Z M 30.4375 27.0625C30.644531 27.566406 30.933594 28.152344 31.34375 28.5625L33.78125 31C34.546875 31.765625 34.898438 32.117188 35.78125 33C37.550781 34.769531 38.328125 35.515625 39.8125 37C41.453125 38.640625 44.25 41.4375 44.25 41.4375C44.859375 42.046875 44.019531 42.917969 42.96875 43.96875C42.167969 44.769531 41.464844 45.4375 40.90625 45.4375C40.734375 45.4375 40.582031 45.363281 40.4375 45.21875C40.4375 45.21875 35.96875 40.78125 32.1875 37C30.359375 35.171875 28.761719 33.542969 28.21875 33C28.203125 33 28.203125 33 28.1875 33C28.097656 32.910156 27.5625 32.375 27.53125 32.34375C27.136719 31.949219 26.570313 31.648438 26.0625 31.4375 Z M 32 32.125C31.75 32.101563 31.519531 32.167969 31.34375 32.34375C30.996094 32.695313 31.050781 33.300781 31.46875 33.71875C31.609375 33.863281 33.609375 35.859375 33.75 36C34.167969 36.421875 34.777344 36.476563 35.125 36.125C35.476563 35.777344 35.417969 35.167969 35 34.75C34.859375 34.609375 32.863281 32.609375 32.71875 32.46875C32.507813 32.257813 32.25 32.148438 32 32.125 Z M 44.875 44.84375C45.226563 45.195313 45.632813 45.601563 45.78125 45.75C46.074219 46.042969 46.078125 46.484375 45.78125 46.78125C45.484375 47.078125 45.042969 47.074219 44.75 46.78125C44.601563 46.632813 44.222656 46.222656 43.875 45.875C44.046875 45.710938 44.207031 45.542969 44.375 45.375C44.511719 45.238281 44.703125 45.027344 44.875 44.84375Z" fill="#4B4B4B" />
</svg>