<svg xmlns="http://www.w3.org/2000/svg" viewBox="0 0 50 50">
  <path d="M9 4C6.24 4 4 6.24 4 9L4 41C4 43.76 6.24 46 9 46L21 46L21 40.630859C20.68 40.270859 20.429766 39.860156 20.259766 39.410156C20.209766 39.300156 20.180391 39.190312 20.150391 39.070312C20.080391 38.850312 20.039531 38.620625 20.019531 38.390625C20.009531 38.260625 20 38.13 20 38L20 37C19.83 36.93 19.66 36.859297 19.5 36.779297C15.07 34.699297 12 30.2 12 25C12 17.83 17.83 12 25 12C32.17 12 38 17.83 38 25C38 30.2 34.929766 34.699297 30.509766 36.779297C30.339766 36.849297 30.17 36.93 30 37L30 38C30 38.12 29.990469 38.239375 29.980469 38.359375C29.970469 38.479375 29.959688 38.600703 29.929688 38.720703C29.909688 38.840703 29.889609 38.960313 29.849609 39.070312C29.819609 39.190313 29.790234 39.300156 29.740234 39.410156C29.570234 39.860156 29.32 40.270859 29 40.630859L29 46L41 46C43.76 46 46 43.76 46 41L46 9C46 6.24 43.76 4 41 4L9 4 z M 25 18C21.34 18 18.329297 20.810391 18.029297 24.400391C18.009297 24.590391 18 24.8 18 25C18 27.79 19.64 30.200078 22 31.330078L22 38C22 39.11 22.9 40 24 40L26 40C27.1 40 28 39.11 28 38L28 31.330078C30.37 30.200078 32 27.79 32 25C32 21.13 28.87 18 25 18 z M 23 42L23 47L27 47L27 42L23 42 z" fill="#4B4B4B" />
</svg>