<svg xmlns="http://www.w3.org/2000/svg" viewBox="0 0 50 50">
  <path d="M15 2C14.503906 2 14.070313 2.351563 14 2.84375L13 9.84375C12.96875 10.066406 12.964844 10.121094 12.9375 10.3125C8.695313 13.800781 6 19.089844 6 25C6 30.910156 8.695313 36.199219 12.9375 39.6875C12.96875 39.878906 12.96875 39.933594 13 40.15625L14 47.15625C14.070313 47.648438 14.503906 48 15 48L35 48C35.496094 48 35.929688 47.648438 36 47.15625L37 40.15625C37.03125 39.933594 37.035156 39.878906 37.0625 39.6875C40.570313 36.804688 43 32.675781 43.75 28L45 28C45.550781 28 46 27.550781 46 27L46 23C46 22.449219 45.550781 22 45 22L43.75 22C43 17.324219 40.570313 13.195313 37.0625 10.3125C37.03125 10.121094 37.03125 10.066406 37 9.84375L36 2.84375C35.929688 2.351563 35.496094 2 35 2 Z M 25 8C34.402344 8 42 15.597656 42 25C42 34.402344 34.402344 42 25 42C15.597656 42 8 34.402344 8 25C8 15.597656 15.597656 8 25 8 Z M 24 10.0625C16.507813 10.550781 10.554688 16.507813 10.0625 24C10.589844 24.027344 11 24.464844 11 25C11 25.535156 10.589844 25.972656 10.0625 26C10.550781 33.492188 16.507813 39.449219 24 39.9375C24.027344 39.410156 24.464844 39 25 39C25.535156 39 25.972656 39.410156 26 39.9375C33.492188 39.449219 39.449219 33.492188 39.9375 26C39.410156 25.972656 39 25.535156 39 25C39 24.464844 39.410156 24.027344 39.9375 24C39.445313 16.507813 33.492188 10.554688 26 10.0625C25.972656 10.589844 25.535156 11 25 11C24.464844 11 24.027344 10.589844 24 10.0625 Z M 31.5 17.5C31.753906 17.5 32.023438 17.585938 32.21875 17.78125C32.609375 18.171875 32.609375 18.828125 32.21875 19.21875L26.9375 24.5C26.980469 24.664063 27 24.820313 27 25C27 25.179688 26.980469 25.335938 26.9375 25.5L29.71875 28.28125C30.109375 28.671875 30.109375 29.328125 29.71875 29.71875C29.523438 29.914063 29.257813 30 29 30C28.742188 30 28.476563 29.914063 28.28125 29.71875L25.5 26.9375C25.335938 26.980469 25.179688 27 25 27C23.894531 27 23 26.105469 23 25C23 23.894531 23.894531 23 25 23C25.179688 23 25.335938 23.019531 25.5 23.0625L30.78125 17.78125C30.976563 17.585938 31.246094 17.5 31.5 17.5Z" fill="#4B4B4B" />
</svg>