<svg xmlns="http://www.w3.org/2000/svg" viewBox="0 0 50 50">
  <path d="M14 2C11.24 2 9 4.24 9 7L9 30L41 30L41 7C41 4.24 38.76 2 36 2L14 2 z M 16 9L34 9L34 25L16 25L16 9 z M 26.371094 12C26.371094 12 21 14.445859 21 18.630859C21 21.239859 24.210938 22 24.210938 22C24.210938 22 23.160156 20.587859 23.160156 18.630859C23.160156 16.239859 25.320312 14.826172 25.320312 14.826172C24.620312 17.652172 25.845703 18.630859 25.845703 18.630859C25.845703 18.630859 25.728906 17.759797 26.253906 17.216797C26.603906 18.466797 27.480469 19.011344 27.480469 20.152344C27.480469 20.967344 26.546875 22 26.546875 22C28.006875 21.511 29.056047 20.098859 28.998047 18.630859C28.998047 16.075859 27.772266 15.476766 27.947266 14.009766C27.538266 14.118766 27.188484 14.499797 26.896484 14.716797C26.371484 14.064797 26.196094 13.087 26.371094 12 z M 9 32L9 37C9 40.86 12.14 44 16 44L16 47C16 47.553 16.447 48 17 48L21 48C21.553 48 22 47.553 22 47L22 44L28 44L28 47C28 47.553 28.447 48 29 48L33 48C33.553 48 34 47.553 34 47L34 44C37.86 44 41 40.86 41 37L41 32L9 32 z M 17.5 35C18.88 35 20 36.12 20 37.5C20 38.88 18.88 40 17.5 40C16.12 40 15 38.88 15 37.5C15 36.12 16.12 35 17.5 35 z M 32.5 35C33.88 35 35 36.12 35 37.5C35 38.88 33.88 40 32.5 40C31.12 40 30 38.88 30 37.5C30 36.12 31.12 35 32.5 35 z" fill="#4B4B4B" />
</svg>