<svg xmlns="http://www.w3.org/2000/svg" viewBox="0 0 50 50">
  <path d="M10 4C6.69 4 4 6.69 4 10L4 40C4 43.31 6.69 46 10 46L40 46C43.31 46 46 43.31 46 40L46 10C46 6.69 43.31 4 40 4L10 4 z M 25 11C32.72 11 39 17.28 39 25C39 32.72 32.72 39 25 39C17.28 39 11 32.72 11 25C11 17.28 17.28 11 25 11 z M 25 13C18.38 13 13 18.38 13 25C13 31.62 18.38 37 25 37C31.62 37 37 31.62 37 25C37 18.38 31.62 13 25 13 z M 25 15.949219C29.99 15.949219 34.050781 20.01 34.050781 25C34.050781 29.99 29.99 34.050781 25 34.050781C20.01 34.050781 15.949219 29.99 15.949219 25C15.949219 20.01 20.01 15.949219 25 15.949219 z M 25 18.050781C21.17 18.050781 18.050781 21.17 18.050781 25C18.050781 28.83 21.17 31.949219 25 31.949219C28.83 31.949219 31.949219 28.83 31.949219 25C31.949219 21.17 28.83 18.050781 25 18.050781 z" fill="#4B4B4B" />
</svg>