<svg xmlns="http://www.w3.org/2000/svg" viewBox="0 0 50 50">
  <path d="M25 9C20.445313 9 16.179688 10.777344 12.96875 14L9 14C4.039063 14 0 18.039063 0 23L0 29C0 33.964844 4.039063 38 9 38L12.96875 38C16.179688 41.21875 20.433594 43 25 43C29.558594 43 33.820313 41.222656 37.03125 38L41 38C45.964844 38 50 33.964844 50 29L50 23C50 18.039063 45.964844 14 41 14L36.96875 14C36.925781 13.925781 36.878906 13.84375 36.8125 13.78125C33.625 10.695313 29.4375 9 25 9 Z M 30 16L41 16C44.859375 16 48 19.140625 48 23L48 29C48 32.859375 44.859375 36 41 36L19.25 36C20.398438 35.917969 25 35.25 25 30L25 21C25 16.175781 29.492188 16.003906 30 16 Z M 20.53125 20.0625C21.410156 20.0625 22.125 20.71875 22.125 21.53125C22.125 22.34375 21.410156 23 20.53125 23C19.652344 23 18.9375 22.34375 18.9375 21.53125C18.9375 20.71875 19.652344 20.0625 20.53125 20.0625 Z M 41.875 20.0625C40.996094 20.0625 40.28125 20.71875 40.28125 21.53125C40.28125 22.34375 40.996094 23 41.875 23C42.753906 23 43.46875 22.34375 43.46875 21.53125C43.46875 20.71875 42.753906 20.0625 41.875 20.0625 Z M 14.875 20.71875L17.84375 20.71875L15.34375 32.125L12.625 32.125L11.4375 25.125L10.28125 32.125L7.59375 32.125L5.0625 20.75L8.09375 20.75L8.96875 27.40625L10.125 20.75L12.8125 20.75L13.96875 27.40625 Z M 29.6875 20.75L29.6875 32.03125L32.625 32.03125L32.625 28.59375L38.1875 28.59375L38.1875 25.9375L32.625 25.9375L32.625 23.40625L38.78125 23.40625L38.78125 20.75 Z M 19.125 23.84375L21.875 23.84375L21.875 32.0625L19.125 32.0625 Z M 40.46875 23.84375L40.46875 32.0625L43.21875 32.0625L43.21875 23.84375Z" fill="#4B4B4B" />
</svg>