<svg xmlns="http://www.w3.org/2000/svg" viewBox="0 0 50 50">
  <path d="M27.490234 3.4902344 A 1.0001 1.0001 0 0 0 26.792969 5.2070312C31.111833 9.5258958 31.111833 16.474104 26.792969 20.792969 A 1.0001 1.0001 0 1 0 28.207031 22.207031C33.288167 17.125896 33.288167 8.8741042 28.207031 3.7929688 A 1.0001 1.0001 0 0 0 27.490234 3.4902344 z M 24.689453 6.2890625 A 1.0001 1.0001 0 0 0 23.992188 8.0078125C26.704418 10.720044 26.704418 15.180346 23.992188 17.892578 A 1.0001 1.0001 0 1 0 25.40625 19.306641C28.894018 15.818872 28.894018 10.081518 25.40625 6.59375 A 1.0001 1.0001 0 0 0 24.689453 6.2890625 z M 21.789062 9.1894531 A 1.0001 1.0001 0 0 0 21.09375 10.90625C22.325465 12.137965 22.325465 13.961644 21.09375 15.193359 A 1.0001 1.0001 0 1 0 22.507812 16.607422C24.476098 14.639137 24.476098 11.460472 22.507812 9.4921875 A 1.0001 1.0001 0 0 0 21.789062 9.1894531 z M 10 12C9.4 12 9 12.4 9 13L9 32L11 32L11 13C11 12.4 10.6 12 10 12 z M 18 12C17.4 12 17 12.4 17 13L17 32L19 32L19 13C19 12.4 18.6 12 18 12 z M 7 34C5.3 34 4 35.3 4 37L4 43C4 44.7 5.3 46 7 46L43 46C44.7 46 46 44.7 46 43L46 37C46 35.3 44.7 34 43 34L7 34 z M 10 39C10.6 39 11 39.4 11 40C11 40.6 10.6 41 10 41C9.4 41 9 40.6 9 40C9 39.4 9.4 39 10 39 z M 14 39C14.6 39 15 39.4 15 40C15 40.6 14.6 41 14 41C13.4 41 13 40.6 13 40C13 39.4 13.4 39 14 39 z M 18 39C18.6 39 19 39.4 19 40C19 40.6 18.6 41 18 41C17.4 41 17 40.6 17 40C17 39.4 17.4 39 18 39 z M 22 39C22.6 39 23 39.4 23 40C23 40.6 22.6 41 22 41C21.4 41 21 40.6 21 40C21 39.4 21.4 39 22 39 z M 26 39C26.6 39 27 39.4 27 40C27 40.6 26.6 41 26 41C25.4 41 25 40.6 25 40C25 39.4 25.4 39 26 39 z" fill="#4B4B4B" />
</svg>