<svg xmlns="http://www.w3.org/2000/svg" viewBox="0 0 50 50">
  <path d="M8 3C6.346 3 5 4.346 5 6L5 44C5 45.654 6.346 47 8 47L42 47C43.654 47 45 45.654 45 44L45 6C45 4.346 43.654 3 42 3L8 3 z M 10 10L40 10L40 27L10 27L10 10 z M 14 13 A 1.0001 1.0001 0 0 0 13 14L13 15 A 1.0001 1.0001 0 0 0 13.292969 15.707031L18 20.414062L18 24L20 24L20 20.414062L24.707031 15.707031 A 1.0001 1.0001 0 0 0 25 15L25 14 A 1.0001 1.0001 0 0 0 24 13L14 13 z M 15.414062 15L18 15L18 17.585938L15.414062 15 z M 20 15L22.585938 15L20 17.585938L20 15 z M 35 15L35 24L37 24L37 15L35 15 z M 31 17L31 24L33 24L33 17L31 17 z M 27 19L27 24L29 24L29 19L27 19 z M 23 22L23 24L25 24L25 22L23 22 z M 10 41L18 41L18 43L10 43L10 41 z" fill="#4B4B4B" />
</svg>