<svg xmlns="http://www.w3.org/2000/svg" viewBox="0 0 50 50">
  <path d="M25 10 A 2 2 0 0 0 23.306641 13.060547C16.073626 13.52463 9.3994311 16.934381 5.2070312 22.390625C4.9750312 22.692625 4.9355156 23.100406 5.1035156 23.441406C5.2715156 23.783406 5.619 24 6 24L44 24C44.381 24 44.728484 23.783406 44.896484 23.441406C45.064484 23.100406 45.024969 22.692625 44.792969 22.390625C40.600945 16.934871 33.927577 13.525118 26.695312 13.060547 A 2 2 0 0 0 25 10 z M 0.984375 22.986328 A 1.0001 1.0001 0 0 0 0 24C0 24 -0.01378821 24.958752 0.48046875 25.947266C0.97472571 26.93578 2.1666667 28 4 28L4.3359375 28C7.5394553 35.80053 15.737995 41 25 41C34.262005 41 42.461413 35.799661 45.664062 28L46 28C47.833333 28 49.025274 26.93578 49.519531 25.947266C50.013788 24.958752 50 24 50 24 A 1.0001 1.0001 0 1 0 48 24C48 24 47.98621 24.541248 47.730469 25.052734C47.474726 25.56422 47.166667 26 46 26L4 26C2.8333333 26 2.5252743 25.56422 2.2695312 25.052734C2.0137883 24.541248 2 24 2 24 A 1.0001 1.0001 0 0 0 0.984375 22.986328 z" fill="#4B4B4B" />
</svg>