<svg xmlns="http://www.w3.org/2000/svg" viewBox="0 0 26 26">
  <path d="M1 2C0.449219 2 0 2.449219 0 3L0 25C0 25.554688 0.449219 26 1 26L6 26C6.550781 26 7 25.554688 7 25L7 3C7 2.449219 6.550781 2 6 2 Z M 9 2L9 4L23 4C23.550781 4 24 4.449219 24 5L24 16C24 16.550781 23.550781 17 23 17L9 17L9 21L11 21L11 22C11 22.550781 11.449219 23 12 23L16 23C16.550781 23 17 22.5625 17 22L17 21L23 21C24.65625 21 26 19.65625 26 18L26 5C26 3.34375 24.65625 2 23 2 Z M 3.5 18.84375C4.414063 18.84375 5.15625 19.585938 5.15625 20.5C5.15625 21.414063 4.414063 22.15625 3.5 22.15625C2.585938 22.15625 1.84375 21.414063 1.84375 20.5C1.84375 19.585938 2.585938 18.84375 3.5 18.84375 Z M 10 24C9.449219 24 9 24.433594 9 25L9 26L19 26L19 25C19 24.449219 18.550781 24 18 24Z" fill="#4B4B4B" />
</svg>