<svg xmlns="http://www.w3.org/2000/svg" width="75.96" height="75.994" viewBox="0 0 75.96 75.994">
  <g id="surface1" transform="translate(-20.078 -39.922)">
    <path id="Path_50" data-name="Path 50" d="M33.033,39.922,20.078,40l.045,7.6,7.865-.045L40.5,77.57l-4.556,7.286a8.019,8.019,0,0,0,6.693,12.065h45.81v-7.6H42.634c-.415,0-.475-.089-.252-.445l4.482-7.153H75.222a7.6,7.6,0,0,0,6.648-3.918L95.552,53.174a3.792,3.792,0,0,0-3.309-5.639H65.651v11.4h11.4l-15.2,15.2-15.2-15.2h11.4v-11.4H36.209Zm25.02,7.613h7.6v-7.6h-7.6Zm-15.2,53.185a7.6,7.6,0,1,0,7.6,7.6A7.594,7.594,0,0,0,42.857,100.72Zm37.989,0a7.6,7.6,0,1,0,7.6,7.6A7.594,7.594,0,0,0,80.846,100.72Z" transform="translate(0 0)" fill="#4f81bc"/>
  </g>
</svg>
