<svg xmlns="http://www.w3.org/2000/svg" width="75.96" height="75.987" viewBox="0 0 75.96 75.987">
  <g id="surface1" transform="translate(-20.078 -39.922)">
    <path id="Path_51" data-name="Path 51" d="M33.032,39.922,20.078,40l.045,7.6,7.864-.045L40.5,77.567,35.94,84.852a8.018,8.018,0,0,0,6.692,12.064H88.438v-7.6H42.632c-.415,0-.475-.089-.252-.445l4.481-7.152H75.217A7.6,7.6,0,0,0,81.865,77.8l13.7-24.631a3.8,3.8,0,0,0-3.324-5.639H36.207Zm28.816,13.31,11.4,11.4h-7.6v9.5h-7.6v-9.5h-7.6ZM42.855,100.714a7.6,7.6,0,1,0,7.6,7.6A7.593,7.593,0,0,0,42.855,100.714Zm37.986,0a7.6,7.6,0,1,0,7.6,7.6A7.593,7.593,0,0,0,80.841,100.714Z" transform="translate(0)" fill="#4f81bc"/>
  </g>
</svg>
