<svg xmlns="http://www.w3.org/2000/svg" width="40.717" height="40.451" viewBox="0 0 40.717 40.451">
  <g id="surface1" transform="translate(387.179 27.112)">
    <path id="Path_40" data-name="Path 40" d="M41.218,21.952l-2.081-3.286,1.237-3.688a2.105,2.105,0,0,0-.938-2.467l-3.373-1.939-.615-3.846A2.1,2.1,0,0,0,33.47,4.984l-3.885-.15L27.26,1.721a2.093,2.093,0,0,0-2.569-.63L21.184,2.753,17.669,1.091a2.092,2.092,0,0,0-2.561.63L12.775,4.834l-3.885.15a2.093,2.093,0,0,0-1.97,1.75L6.3,10.571,2.931,12.51a2.089,2.089,0,0,0-.938,2.467l1.237,3.688L1.142,21.952a2.082,2.082,0,0,0,.323,2.617l2.806,2.7-.315,3.878a2.087,2.087,0,0,0,1.5,2.167L9.189,34.38l1.521,3.586a2.082,2.082,0,0,0,2.333,1.222l3.814-.78,3,2.467a2.116,2.116,0,0,0,1.324.465,2.094,2.094,0,0,0,1.316-.465l3.011-2.467,3.807.78a2.087,2.087,0,0,0,2.341-1.222l1.521-3.586,3.735-1.072a2.1,2.1,0,0,0,1.5-2.175l-.315-3.87,2.8-2.7A2.082,2.082,0,0,0,41.218,21.952ZM15.9,24.639H14.477l-3.5-5.21v5.21H9.733V17.594h1.419l3.5,5.209V17.594H15.9Zm7.046-5.974H18.922v1.592h3.7v1h-3.7v2.3h4.019v1.08h-5.28V17.594h5.28Zm8.567,5.974H30.231L28.71,19.28,27.1,24.639H25.747l-1.923-7.046H25.1l1.363,5.438,1.521-5.438h1.363l1.434,5.438,1.363-5.438H33.51Z" transform="translate(-388 -28)" fill="#4f51c0"/>
  </g>
</svg>
