<svg xmlns="http://www.w3.org/2000/svg" width="40.103" height="38.357" viewBox="0 0 40.103 38.357">
  <g id="surface1" transform="translate(-0.871 -1.309)">
    <path id="Path_44" data-name="Path 44" d="M34,1.309a.856.856,0,0,0-.64.281,12.676,12.676,0,0,0-2.691,4.7A10.9,10.9,0,0,1,34,8.493a10.958,10.958,0,0,1,3.331-2.208,12.757,12.757,0,0,0-2.691-4.7A.869.869,0,0,0,34,1.309Zm5.586,6.1a.969.969,0,0,0-.257.031,9.313,9.313,0,0,0-4.454,2.668v3.729a11.444,11.444,0,0,1,4.057-2,2.657,2.657,0,0,1,1.88.265,5.973,5.973,0,0,0-.57-4.322A.905.905,0,0,0,39.587,7.409Zm-11.179.008a.882.882,0,0,0-.648.367,5.935,5.935,0,0,0-.569,4.322,2.611,2.611,0,0,1,1.864-.273,11.458,11.458,0,0,1,4.072,2V10.108A9.281,9.281,0,0,0,28.666,7.44.723.723,0,0,0,28.409,7.417Zm11.179,6.1a.723.723,0,0,0-.257.023,9.387,9.387,0,0,0-4.454,2.668v3.729a11.533,11.533,0,0,1,4.057-2,2.619,2.619,0,0,1,1.88.273,5.955,5.955,0,0,0-.57-4.33A.872.872,0,0,0,39.587,13.517Zm-11.179,0a.882.882,0,0,0-.648.367,5.956,5.956,0,0,0-.569,4.33,2.572,2.572,0,0,1,1.864-.273,11.229,11.229,0,0,1,4.072,1.989V16.209a9.281,9.281,0,0,0-4.462-2.668A.723.723,0,0,0,28.409,13.517ZM20.514,17.87a6.679,6.679,0,0,0-2.481.523c4.228,2.6,5.437,7.739,5.5,8.012a.877.877,0,0,1-.663,1.037.77.77,0,0,1-.187.024.881.881,0,0,1-.85-.687c-.07-.3-1.7-7.216-7.926-8.027a7.223,7.223,0,0,0-3.12.764,16.869,16.869,0,0,1,4.868,6.771.881.881,0,0,1-.515,1.123,1.045,1.045,0,0,1-.3.055.881.881,0,0,1-.819-.57c-.016-.055-1.669-4.345-4.813-6.35a.383.383,0,0,0-.062.055C7.291,21.256.871,24.29.871,30.952a6.313,6.313,0,0,0,1.9,4.61c3.659,3.651,12.053,4.1,18.184,4.1h.3A76.453,76.453,0,0,0,31.4,38.949V36.1a6.543,6.543,0,0,1-4.977-2.941A8.372,8.372,0,0,1,25.8,26.1l-.3-1.428a8.148,8.148,0,0,1,.382-4.821A7.778,7.778,0,0,0,20.514,17.87Zm7.895,1.748a.882.882,0,0,0-.648.367,5.956,5.956,0,0,0-.569,4.329,2.655,2.655,0,0,1,1.849-.281c.039.016.117.031.25.063a7.577,7.577,0,0,1,3.838,2.52v-4.3a9.189,9.189,0,0,0-4.462-2.676A.724.724,0,0,0,28.409,19.618Zm11.179,0a.724.724,0,0,0-.257.023,9.386,9.386,0,0,0-4.454,2.668v4.322a7.506,7.506,0,0,1,3.651-2.473c.234-.07.382-.109.413-.117a2.625,2.625,0,0,1,1.872.265,5.972,5.972,0,0,0-.57-4.322A.9.9,0,0,0,39.587,19.618Zm0,6.1a1.438,1.438,0,0,0-.257.023c-.023.008-.133.031-.3.086a5.918,5.918,0,0,0-4.15,5.679v2.933c.882,0,3.768.141,5.227-2.208a6.3,6.3,0,0,0,.14-6.147A.9.9,0,0,0,39.587,25.718Zm-4.712,8.721H33.128v4.353a.874.874,0,0,0,1.747,0Zm-1.747,0V31.506a5.915,5.915,0,0,0-4.306-5.726c-.086-.023-.14-.031-.156-.039a.883.883,0,0,0-.905.343,6.32,6.32,0,0,0,.133,6.147C29.36,34.58,32.247,34.439,33.128,34.439Z" transform="translate(0)" fill="#4f51c0"/>
  </g>
</svg>
