<svg xmlns="http://www.w3.org/2000/svg" width="25.022" height="39.656" viewBox="0 0 25.022 39.656">
  <g id="surface1" transform="translate(-5.238 -0.871)">
    <path id="Path_47" data-name="Path 47" d="M10.838.871a3.888,3.888,0,0,0-3.88,3.88v.432a.867.867,0,0,0,.864.864,3.435,3.435,0,0,1,3.325,2.584H21.73a2.976,2.976,0,0,1,.208-.571,14.314,14.314,0,0,0,1.188,2.715c1.041,1.844,2.769,3.888,5.384,3.888a.848.848,0,0,0,.756-.424.879.879,0,0,0,0-.872.864.864,0,0,0-.756-.424c-1.689,0-2.977-1.4-3.88-3.008A15.049,15.049,0,0,1,23.312,6.7a.538.538,0,0,0-.046-.147,3.5,3.5,0,0,1,1.8-.509h3.448a.862.862,0,0,0,.864-.864V1.735a.867.867,0,0,0-.864-.864Zm-.147,9.488C5.3,21.012,5.238,38.877,5.238,39.663a.863.863,0,0,0,.864.864H29.374a.872.872,0,0,0,.864-.833c.016-.471.3-11.424-1.751-19.207a.866.866,0,0,0-.841-.648c-3.664,0-6.032-2.037-6.032-5.176v-4.3Zm8.971,13.792a19.717,19.717,0,0,1,4.536.586c-2.152,2.816-.17,6.657-3.078,9.364a4.576,4.576,0,0,1-5.276.725c.363-2.322,2.515-5.531,4.428-6.456a.863.863,0,0,0-.756-1.551c-2.044,1-4.173,3.857-5.045,6.472a13.358,13.358,0,0,0-.617,2.923.86.86,0,1,1-1.72,0A9.914,9.914,0,0,1,12.4,34a8.329,8.329,0,0,1,.224-.833l.077-.231a3.556,3.556,0,0,1-1.427-3.2C11.27,27.453,13.862,24.136,19.663,24.151Z" transform="translate(0 0)" fill="#4f51c0"/>
  </g>
</svg>
