<svg id="surface1" xmlns="http://www.w3.org/2000/svg" width="40.36" height="40.36" viewBox="0 0 40.36 40.36">
  <path id="Path_41" data-name="Path 41" d="M23.413,0a1.614,1.614,0,0,0-1.618,1.611V3.229A1.614,1.614,0,0,0,23.413,4.84h8.069A1.614,1.614,0,0,0,33.1,3.229V1.611A1.614,1.614,0,0,0,31.482,0Zm-.737,6.357a30.077,30.077,0,0,0-1.864,4.667l11.9,6.733h2.8V17.6A34.5,34.5,0,0,0,32.161,6.379a3.012,3.012,0,0,1-.679.079H23.413A3.551,3.551,0,0,1,22.676,6.357ZM11.8,11.125a8.135,8.135,0,0,0-8.047,6.632H9.89l5.931-5.6A8.21,8.21,0,0,0,11.8,11.125Zm6.913.73a.835.835,0,0,0-.455.231l-6.025,5.671h17.2l-10.215-5.8A.888.888,0,0,0,18.717,11.854ZM2.3,19.375a2.294,2.294,0,0,0-2.3,2.3v2.673a2.3,2.3,0,0,0,2.3,2.3H38.07a2.3,2.3,0,0,0,2.29-2.3V21.672a2.292,2.292,0,0,0-2.29-2.3Zm.123,8.878v.809c0,.159.007.246,2.774,9.232.022.051.072.173.1.224.484.867,1.011,1.842,2.146,1.842H32.919c1.4,0,1.885-1.2,2.247-2.066,2.767-8.986,2.774-9.073,2.774-9.232v-.809H29.871v8.076H27.443V28.253H24.215v8.076h-2.42V28.253H18.565v8.076h-2.42V28.253H12.916v8.076H10.5V28.253Z" fill="#4f51c0"/>
</svg>
