<svg xmlns="http://www.w3.org/2000/svg" width="31.753" height="38.103" viewBox="0 0 31.753 38.103">
  <g id="surface1" transform="translate(-2.184 -0.438)">
    <path id="Path_45" data-name="Path 45" d="M18.06.438c-7.7,0-15.877,2.223-15.877,6.351s8.176,6.351,15.877,6.351,15.876-2.231,15.876-6.351S25.753.438,18.06.438ZM16.469,3.613h.4A2.777,2.777,0,0,1,19.644,6.39v.8a2.782,2.782,0,0,1-2.778,2.777h-.4c-1.634,0-6.287-.767-6.479-.8a2.476,2.476,0,0,1-2.252-2.38A2.492,2.492,0,0,1,10.026,4.4,61.6,61.6,0,0,1,16.469,3.613Zm0,1.584a32.131,32.131,0,0,0-3.452.348,2.9,2.9,0,0,1,.277,1.243,2.861,2.861,0,0,1-.27,1.229,31.908,31.908,0,0,0,3.445.355h.4A1.2,1.2,0,0,0,18.06,7.186v-.8A1.2,1.2,0,0,0,16.867,5.2Zm-13.5,5.868V30.123a3.28,3.28,0,0,0-.789,2.067c0,4.12,8.176,6.351,15.877,6.351s15.876-2.23,15.876-6.351a3.289,3.289,0,0,0-.8-2.067V11.064c-3.246,2.493-9.313,3.658-15.081,3.658S6.226,13.558,2.972,11.064ZM18.06,17.9c3.154,0,6.351.831,6.351,1.591v3.175c.881.227,1.584.582,1.584.888L24.61,32.19c-.2.789-3.4,1.584-6.549,1.584s-6.351-.8-6.55-1.584l-1.392-8.638c0-.305.7-.66,1.591-.888V19.489C11.709,18.729,14.9,17.9,18.06,17.9Zm-3.971,7.146a.781.781,0,0,0-.7.391.809.809,0,0,0,0,.8.781.781,0,0,0,.7.391h7.935a.792.792,0,0,0,.7-.391.809.809,0,0,0,0-.8.792.792,0,0,0-.7-.391Zm1.584,3.175a.789.789,0,0,0-.7.391.809.809,0,0,0,0,.8.789.789,0,0,0,.7.391H20.44a.781.781,0,0,0,.7-.391.809.809,0,0,0,0-.8.781.781,0,0,0-.7-.391Z" transform="translate(0 0)" fill="#4f51c0"/>
  </g>
</svg>
