<svg xmlns="http://www.w3.org/2000/svg" width="30.758" height="37.232" viewBox="0 0 30.758 37.232">
  <g id="surface1" transform="translate(-2.617 -0.871)">
    <path id="Path_46" data-name="Path 46" d="M9.092.871c-.724,0-2.426.246-2.426,2.839,0,1.267.492,3.462,1.622,4.193V20.295H9.9V7.9c1.13-.731,1.622-2.926,1.622-4.193C11.525,1.117,9.823.871,9.092.871Zm13.76,8.908v3.237h8.1V9.779Zm-1.615,4.852a.764.764,0,0,0-.811.811v4.852a130.51,130.51,0,0,0,1.615,17.15.8.8,0,0,0,.811.659h8.1a.8.8,0,0,0,.8-.659,116.841,116.841,0,0,0,1.622-17.15V15.443a.768.768,0,0,0-.811-.811Zm.8,4.86h9.712v.8c0,.811.007,1.622-.072,2.433H22.041ZM3.428,21.106a.768.768,0,0,0-.811.811v2.426a70.816,70.816,0,0,0,1.622,13.1.8.8,0,0,0,.811.659h8.09a.8.8,0,0,0,.811-.659,71.082,71.082,0,0,0,1.615-13.1V21.917a.762.762,0,0,0-.8-.811Z" transform="translate(0 0)" fill="#4f51c0"/>
  </g>
</svg>
