<?xml version="1.0" encoding="iso-8859-1"?>
<!-- Generator: Adobe Illustrator 19.0.0, SVG Export Plug-In . SVG Version: 6.00 Build 0)  -->
<svg version="1.1" id="Capa_1" xmlns="http://www.w3.org/2000/svg" xmlns:xlink="http://www.w3.org/1999/xlink" x="0px" y="0px"
	 viewBox="0 0 503.818 503.818" style="enable-background:new 0 0 503.818 503.818;" xml:space="preserve">
<g>
	<g transform="translate(0 2)">
		<path style="fill:#A2C0F5;" d="M227.876,352.678c-3.142,3.129-7.4,4.881-11.835,4.868c-0.929,0-1.856-0.085-2.77-0.252
			c-18.632-4.091-38.091,1.102-52.207,13.933c-24.173,24.173-30.216,54.306-42.303,66.392l-24.173,24.173l-24.089,24.173
			c-1.161,1.149-2.425,2.189-3.777,3.106c-10.182,6.847-23.783,5.547-32.483-3.106l-13.933-13.933
			c10.023,9.988,26.237,9.988,36.26,0l10.156-10.156l27.866-27.95l10.24-10.24c12.087-12.087,18.214-42.135,42.303-66.308
			c14.123-12.881,33.619-18.107,52.291-14.017c0.913,0.175,1.841,0.259,2.77,0.252c4.407-0.004,8.632-1.755,11.751-4.868
			c3.102-3.073,4.847-7.258,4.847-11.625c0-4.366-1.745-8.552-4.847-11.625l13.933,13.933
			C234.255,335.866,234.255,346.241,227.876,352.678L227.876,352.678z"/>
		<path style="fill:#D3DFF2;" d="M213.943,338.745c-3.119,3.113-7.344,4.863-11.751,4.868c-0.929,0.007-1.857-0.077-2.77-0.252
			c-18.672-4.09-38.168,1.136-52.291,14.017c-24.089,24.173-30.216,54.222-42.303,66.308l-48.262,48.347
			c-10.023,9.988-26.237,9.988-36.26,0l-4.197-4.197c-9.96-10.035-9.96-26.225,0-36.26l48.346-48.262
			c12.087-12.087,42.219-18.13,66.392-42.303c12.831-14.116,18.024-33.575,13.933-52.207c-0.892-5.327,0.825-10.758,4.616-14.605
			c4.809-4.74,12.007-6.1,18.214-3.441c1.891,0.8,3.604,1.97,5.036,3.441l4.616,4.616l9.149,9.149l8.981,9.065l18.549,18.466
			c3.102,3.073,4.847,7.258,4.847,11.625C218.79,331.487,217.045,335.672,213.943,338.745L213.943,338.745z"/>
		<g>
			<path style="fill:#FFFFFF;" d="M147.719,271.598c-3.129,3.142-4.881,7.4-4.868,11.835c0,0.929,0.085,1.856,0.252,2.77
				c4.091,18.632-1.102,38.091-13.933,52.207c-24.173,24.173-54.306,30.216-66.392,42.303l-48.346,48.262
				c-9.988,10.023-9.988,26.237,0,36.26l13.933,13.933c-9.988-10.023-9.988-26.237,0-36.26l48.346-48.262
				c12.087-12.087,42.135-18.214,66.308-42.303c12.881-14.123,18.107-33.619,14.017-52.291c-0.175-0.913-0.259-1.841-0.252-2.77
				c0.005-4.407,1.755-8.632,4.868-11.751c3.073-3.102,7.258-4.847,11.625-4.847c4.366,0,8.552,1.745,11.625,4.847l-13.933-13.933
				C164.531,265.219,154.156,265.219,147.719,271.598L147.719,271.598z"/>
			<path style="fill:#FFFFFF;" d="M487.065,24.831c-34.581-8.645-117.172-17.794-195.148,60.181l-88.131,88.131
				c-8.646,8.678-8.646,22.713,0,31.391l3.945,12.674c-1.892-2.819-3.967-5.51-6.211-8.058l-0.671-0.755l-16.451-16.451
				c-8.646-8.678-8.646-22.713,0-31.391l88.131-88.131C362.591-17.64,458.78,8.463,480.099,15.85
				c2.098,0.671,3.525,1.259,4.113,1.511h0.084c0.044,0.048,0.103,0.078,0.168,0.084v0.084l0.084,0.168
				c0.252,0.588,0.839,2.014,1.511,4.113C486.444,22.799,486.781,23.807,487.065,24.831z"/>
		</g>
		<path style="fill:#A2C0F5;" d="M425.458,233.576l-88.131,88.131c-8.678,8.646-22.713,8.646-31.391,0l-12.758-12.758l-3.693-3.693
			l-0.755-0.671c-6.547-5.875-32.902-26.943-53.382-6.463l-31.391-31.391c1.153-1.121,2.219-2.327,3.189-3.609l15.612,15.612
			c20.48-20.48,46.835,0.588,53.382,6.463l0.755,0.671l3.693,3.693l12.758,12.758c8.678,8.646,22.713,8.646,31.392,0l88.131-88.131
			c77.975-77.975,68.826-160.567,60.181-195.148c1.023,0.285,2.032,0.621,3.022,1.007c2.098,0.671,3.525,1.259,4.113,1.511
			l0.168,0.084h0.084c0.006,0.064,0.036,0.124,0.084,0.168v0.084c0.252,0.588,0.839,2.014,1.511,4.113
			C489.416,47.325,515.519,143.514,425.458,233.576z"/>
		
			<linearGradient id="SVGID_1_" gradientUnits="userSpaceOnUse" x1="-52.7901" y1="641.8499" x2="-51.7901" y2="641.8499" gradientTransform="matrix(304.7006 0 0 -289.5271 16259.0674 185996.9688)">
			<stop  offset="0" style="stop-color:#DAE5F4"/>
			<stop  offset="0.1717" style="stop-color:#DAE5F4"/>
			<stop  offset="0.2" style="stop-color:#DAE5F4"/>
			<stop  offset="0.2006" style="stop-color:#EBECF4"/>
			<stop  offset="0.2013" style="stop-color:#F6F1F4"/>
			<stop  offset="0.2022" style="stop-color:#FDF4F4"/>
			<stop  offset="0.205" style="stop-color:#FFF5F4"/>
			<stop  offset="0.2522" style="stop-color:#FFF5F4"/>
			<stop  offset="0.26" style="stop-color:#FFF5F4"/>
			<stop  offset="0.26" style="stop-color:#DAE5F4"/>
			<stop  offset="0.3974" style="stop-color:#DAE5F4"/>
			<stop  offset="0.42" style="stop-color:#DAE5F4"/>
			<stop  offset="0.4206" style="stop-color:#EBECF4"/>
			<stop  offset="0.4212" style="stop-color:#F6F1F4"/>
			<stop  offset="0.4222" style="stop-color:#FDF4F4"/>
			<stop  offset="0.425" style="stop-color:#FFF5F4"/>
			<stop  offset="0.4894" style="stop-color:#FFF5F4"/>
			<stop  offset="0.5" style="stop-color:#FFF5F4"/>
			<stop  offset="0.5001" style="stop-color:#EEEEF4"/>
			<stop  offset="0.5002" style="stop-color:#E3E9F4"/>
			<stop  offset="0.5004" style="stop-color:#DCE6F4"/>
			<stop  offset="0.501" style="stop-color:#DAE5F4"/>
			<stop  offset="0.7062" style="stop-color:#DAE5F4"/>
			<stop  offset="0.74" style="stop-color:#DAE5F4"/>
			<stop  offset="0.741" style="stop-color:#FFF5F4"/>
			<stop  offset="0.8346" style="stop-color:#FFF5F4"/>
			<stop  offset="0.85" style="stop-color:#FFF5F4"/>
			<stop  offset="0.851" style="stop-color:#DAE5F4"/>
		</linearGradient>
		<path style="fill:url(#SVGID_1_);" d="M412.867,214.187l-88.131,88.131c-8.678,8.646-22.713,8.646-31.392,0
			c0,0-29.209-30.804-49.689-10.324l-1.091-0.923l-28.622-22.578l-6.799-5.372c14.94-19.809-4.113-43.562-9.652-49.773l-0.504-0.504
			l-3.861-3.945l-12.758-12.758c-3.545-3.509-5.769-8.134-6.295-13.094c-0.85-6.745,1.475-13.503,6.295-18.298l2.518-2.518
			c-7.205,8.821-6.552,21.668,1.511,29.713l16.451,16.451l0.671,0.755c2.244,2.547,4.319,5.239,6.211,8.058l-3.945-12.674
			c-8.646-8.678-8.646-22.713,0-31.391l88.131-88.131c69.246-69.246,142.101-69.75,181.802-62.951
			C482.113,58.153,488.66,138.394,412.867,214.187z"/>
		<g>
			<path style="fill:#A2C0F5;" d="M223.236,328.975l-48.296-48.296l12.278-12.278c6.556-6.556,17.185-6.556,23.74,0l24.556,24.556
				c6.556,6.556,6.556,17.185,0,23.74L223.236,328.975L223.236,328.975z"/>
			<path style="fill:#A2C0F5;" d="M94.588,365.94v67.987l-27.866,27.95v-80.661C75.532,375.297,84.859,370.184,94.588,365.94
				L94.588,365.94z"/>
		</g>
		<polygon style="fill:#7FAAF8;" points="94.588,433.927 94.588,459.863 66.722,487.813 66.722,461.877 		"/>
		<g>
			<path style="fill:#FFFFFF;" d="M487.065,24.831c-3.861-1.007-8.31-1.93-13.346-2.77c-0.166-1.019-0.39-2.028-0.671-3.022
				C446.861,10.73,354.869-9.75,268.5,76.618l-85.613,85.613c0.459-0.598,0.964-1.16,1.511-1.679l88.131-88.131
				C362.591-17.64,458.78,8.463,480.099,15.85c2.098,0.671,3.525,1.259,4.113,1.511h0.084c0.044,0.048,0.103,0.078,0.168,0.084
				v0.084l0.084,0.168c0.252,0.588,0.839,2.014,1.511,4.113C486.444,22.799,486.781,23.807,487.065,24.831z"/>
			<path style="fill:#FFFFFF;" d="M94.588,365.94v17.374c-6.488,2.869-12.514,6.688-17.878,11.331l-9.988,9.988v-23.418
				C75.532,375.297,84.859,370.184,94.588,365.94L94.588,365.94z"/>
		</g>
	</g>
	<g>
		<path style="fill:#438CFF;" d="M274.735,84.254c3.298-3.258,3.33-8.572,0.073-11.87c-3.258-3.298-8.572-3.33-11.87-0.073
			s-3.33,8.572-0.073,11.87c1.564,1.584,3.694,2.481,5.92,2.495S273.151,85.818,274.735,84.254z"/>
		<path style="fill:#438CFF;" d="M487.934,11.728c-4.074-1.746-101.189-41.955-199.607,37.357c-3.61,2.911-4.177,8.197-1.266,11.807
			c2.911,3.61,8.197,4.177,11.807,1.266c71.837-57.911,142.481-46.83,170.257-39.08L330.41,161.801
			c-2.751-1.529-5.728-2.609-8.82-3.197c-56.342-10.547-104.431,25.119-121.057,39.439L190.5,188.01
			c-5.385-5.394-5.385-14.13,0-19.525l60.517-60.517c3.277-3.277,3.277-8.591,0-11.869c-3.277-3.277-8.591-3.277-11.869,0
			l-60.517,60.517c-11.926,11.955-11.926,31.307,0,43.262l15.68,15.684c1.012,1.016,23.715,24.404,9.135,41.559
			c-6.73-0.061-13.202,2.585-17.963,7.343l-6.344,6.344l-0.525-0.525c-9.843-9.382-25.319-9.384-35.164-0.004
			c-5.73,5.763-8.304,13.95-6.902,21.955c3.565,15.96-0.766,32.661-11.639,44.877c-12.202,11.323-26.256,20.469-41.549,27.041
			c-9.035,3.735-17.425,8.87-24.861,15.217l-48.295,48.295c-13.254,13.292-13.254,34.802,0,48.094l18.115,18.111
			c13.287,13.262,34.803,13.262,48.09,0l48.295-48.299c6.348-7.433,11.483-15.822,15.213-24.857
			c6.57-15.293,15.717-29.346,27.041-41.545c12.216-10.872,28.917-15.204,44.877-11.64c9.255,1.672,18.659-2.04,24.276-9.584
			c5.617-7.543,6.478-17.617,2.223-26.004l7.312-7.31c7.081-7.039,9.296-17.616,5.636-26.905
			c16.491-8.08,36.295,11.109,37.217,12.019l15.697,15.701c11.958,11.92,31.306,11.918,43.262-0.004l88.131-88.131
			c104.869-104.869,57.246-220.025,56.754-221.176C491.495,14.155,489.916,12.576,487.934,11.728z M236.238,306.826
			c0.008,2.228-0.878,4.365-2.459,5.934l-6.342,6.342l-18.314-18.313l11.707-11.707l12.778,12.776
			c0.455,0.381,0.951,0.711,1.479,0.983C235.804,304.049,236.201,305.421,236.238,306.826L236.238,306.826z M197.352,276.338
			c2.321-2.305,5.774-3.045,8.836-1.894l2.771,2.771l-11.707,11.707l-6.244-6.244L197.352,276.338z M40.188,482.002l-18.115-18.115
			c-6.713-6.73-6.713-17.623,0-24.352l36.262-36.262v82.659C52.039,488.28,44.95,486.745,40.188,482.002L40.188,482.002z
			 M75.123,471.419v-83.833c3.584-2.251,7.292-4.298,11.107-6.131v78.856L75.123,471.419z M221.918,348.768
			c-1.919,1.86-4.615,2.684-7.246,2.213c-21.332-4.565-43.552,1.52-59.582,16.316c-12.648,13.5-22.879,29.076-30.246,46.045
			c-3.031,7.315-7.073,14.168-12.008,20.361l-9.82,9.82v-70.488c12.408-6.26,23.793-14.37,33.762-24.053
			c14.799-16.028,20.883-38.251,16.312-59.582c-0.494-2.634,0.336-5.342,2.221-7.246c3.159-3.153,8.275-3.153,11.434,0l6.458,6.457
			l0.001,0.002l48.295,48.295l0.012,0.008l0.414,0.414c1.518,1.517,2.37,3.575,2.369,5.721
			C224.294,345.197,223.438,347.254,221.918,348.768L221.918,348.768z M240.846,284.221l-19.756-19.76
			c-0.42-0.419-0.907-0.716-1.348-1.1c7.029-11.81,7.376-26.435,0.914-38.564c-2.367-5.089-5.292-9.899-8.72-14.343
			c15.132-12.747,58.39-44.333,106.572-35.35c5.277,1.059,9.402,5.185,10.459,10.463c8.993,48.122-22.501,91.319-35.29,106.502
			C280.467,281.904,259.302,272.612,240.846,284.221L240.846,284.221z M423.721,225.445l-88.131,88.131
			c-5.398,5.377-14.127,5.377-19.525,0l-10.039-10.039c14.314-16.638,49.968-64.747,39.448-121.056
			c-0.589-3.089-1.667-6.064-3.196-8.813L480.999,34.942C489.511,65.319,502.094,147.068,423.721,225.445z"/>
	</g>
</g>
<g>
</g>
<g>
</g>
<g>
</g>
<g>
</g>
<g>
</g>
<g>
</g>
<g>
</g>
<g>
</g>
<g>
</g>
<g>
</g>
<g>
</g>
<g>
</g>
<g>
</g>
<g>
</g>
<g>
</g>
</svg>
