<?xml version="1.0" encoding="iso-8859-1"?>
<!-- Generator: Adobe Illustrator 19.0.0, SVG Export Plug-In . SVG Version: 6.00 Build 0)  -->
<svg version="1.1" id="Capa_1" xmlns="http://www.w3.org/2000/svg" xmlns:xlink="http://www.w3.org/1999/xlink" x="0px" y="0px"
	 viewBox="0 0 512.006 512.006" style="enable-background:new 0 0 512.006 512.006;" xml:space="preserve">
<g transform="translate(-1 -1)">
	<g transform="translate(16 2)">
		<path style="fill:#A2C0F5;" d="M471.661,145.957c-5.875-0.65-11.821-0.108-17.482,1.593h-0.085
			c-10.267,3.175-19.506,9.022-26.772,16.941c-10.776,12.655-18.723,27.466-23.309,43.442c-2.086,7.94-5.422,15.499-9.882,22.391
			c-10.725,14.173-29.643,10.987-43.832,4.026c-6.634-3.358-12.843-7.497-18.495-12.328c-4.645-3.773-8.952-7.967-13.175-12.076
			c-14.104-14.089-29.643-33.042-25.843-54.344c2.227-10.175,7.858-19.287,15.962-25.83c9.247-7.796,20.128-13.414,31.839-16.437
			c9.406-2.547,19.145-3.65,28.883-3.271c12.072,0.528,24.037,2.499,35.64,5.871c5.658,1.593,11.232,3.438,16.722,5.451
			c7.892,2.794,15.594,6.1,23.056,9.896c0.422,0.168,0.76,0.42,1.182,0.587c3.462,1.929,7.01,3.858,10.472,5.703v0.084
			c0.929,0.419,1.774,0.923,2.703,1.426C463.077,141.888,467.249,144.198,471.661,145.957z"/>
		<path style="fill:#FFFFFF;" d="M432.408,123.739c-9.416-1.679-18.941-2.677-28.501-2.987c-11.964-0.419-23.931,0.757-35.584,3.499
			c-14.2,3.083-27.599,9.1-39.339,17.664c-9.665,6.545-16.636,16.365-19.627,27.648c-4.267,20.907,11.264,39.68,27.307,54.187
			c-2.156-0.515-4.267-1.199-6.315-2.048c-4.693-3.84-9.045-8.107-13.312-12.288c-14.251-14.336-29.952-33.621-26.112-55.296
			c2.24-10.336,7.927-19.604,16.128-26.283c9.328-7.925,20.325-13.642,32.171-16.725c9.501-2.591,19.343-3.714,29.184-3.328
			c12.2,0.538,24.291,2.543,36.011,5.973c5.717,1.621,11.349,3.499,16.896,5.547C424.984,120.667,428.738,122.118,432.408,123.739z"
			/>
		<path style="fill:#D3DFF2;" d="M444.61,129.371c-4.846-0.215-9.693,0.39-14.336,1.792h-0.085
			c-10.388,3.24-19.726,9.19-27.051,17.237c-10.898,12.896-18.927,27.964-23.552,44.203c-2.105,8.074-5.475,15.764-9.984,22.784
			c-8.028,9.598-21.304,12.968-32.939,8.363c-16.043-14.507-31.573-33.28-27.307-54.187c2.991-11.283,9.962-21.103,19.627-27.648
			c11.739-8.564,25.139-14.581,39.339-17.664c11.653-2.741,23.62-3.918,35.584-3.499c9.56,0.31,19.085,1.308,28.501,2.987
			C436.591,125.355,440.667,127.236,444.61,129.371L444.61,129.371z"/>
		<path style="fill:#A2C0F5;" d="M453.485,93.873c-8.187-2.119-16.561-3.433-25.003-3.925c-6.848-0.465-13.721-0.436-20.565,0.085
			c-2.091-10.248-6.338-19.935-12.459-28.416c6.884-3.285,13.334-7.412,19.2-12.288c5.382-3.679,8.779-9.623,9.216-16.128
			C423.874,33.201,460.824,59.825,453.485,93.873z"/>
		<g>
			<path style="fill:#D3DFF2;" d="M428.482,89.947c-6.848-0.465-13.721-0.436-20.565,0.085
				c-2.091-10.248-6.338-19.935-12.459-28.416c6.884-3.285,13.334-7.412,19.2-12.288C424.491,60.488,429.466,75.107,428.482,89.947z
				"/>
			<path style="fill:#D3DFF2;" d="M404.418,113.67v0.085c-11.72-3.43-23.811-5.436-36.011-5.973
				c-9.841-0.386-19.683,0.737-29.184,3.328v-0.085c26.51-9.438,44.773-33.855,46.336-61.952c3.624,3.915,6.934,8.109,9.899,12.544
				c6.121,8.481,10.368,18.168,12.459,28.416C409.562,98.078,408.323,106.446,404.418,113.67z"/>
		</g>
		<path style="fill:#A2C0F5;" d="M488.472,111.963c-13.841,2.455-25.724,11.272-32.085,23.808c-3.499-1.877-7.083-3.84-10.581-5.803
			c-7.91-4.111-16.093-7.675-24.491-10.667c-5.547-2.048-11.179-3.925-16.896-5.547v-0.085c0.729-1.257,1.357-2.569,1.877-3.925
			c2.356-6.294,2.917-13.118,1.621-19.712c15.297-1.174,30.683,0.123,45.568,3.84c2.133,0.597,4.352,1.28,6.571,2.048
			C470.454,99.429,480.096,104.872,488.472,111.963L488.472,111.963z"/>
		<g>
			<path style="fill:#D3DFF2;" d="M462.872,98.225c-13.841,2.455-25.724,11.272-32.085,23.808c-3.499-1.877-7.083-3.84-10.581-5.803
				c-4.486-2.47-9.133-4.636-13.909-6.485c2.356-6.294,2.917-13.118,1.621-19.712c15.297-1.174,30.683,0.123,45.568,3.84
				c2.133,0.597,4.352,1.28,6.571,2.048L462.872,98.225z"/>
			<path style="fill:#D3DFF2;" d="M226.754,236.721c-3.699,7.915-11.084,13.478-19.712,14.848c-0.504,0.127-1.018,0.212-1.536,0.256
				c-0.633,0.073-1.26,0.187-1.877,0.341c-0.256,0.091-0.489,0.236-0.683,0.427c-0.622,0.521-1.093,1.199-1.365,1.963
				c-0.512,1.28-0.939,2.56-1.451,3.669c-2.015,6.657-7.088,11.952-13.653,14.251c-15.445,5.888-36.608,0.341-43.093-16.043
				c-3.656-10.246-5.812-20.967-6.4-31.829c-0.101-10.597-1.331-21.152-3.669-31.488c-2.213-5.934-5.136-11.578-8.704-16.811
				l-1.28-2.048c-1.28-2.219-2.645-4.523-4.011-6.741c0,0,3.413-0.341,9.045-0.427c25.901-1.013,51.515,5.732,73.557,19.371
				C236.226,210.438,226.84,236.635,226.754,236.721z"/>
			<path style="fill:#D3DFF2;" d="M365.592,428.038c-2.475,5.035-4.267,7.936-4.267,7.936c-1.365-2.048-2.816-4.181-4.267-6.315
				c-0.427-0.768-0.939-1.451-1.451-2.219c-3.143-5.482-6.987-10.53-11.435-15.019c-8.353-6.52-17.362-12.154-26.88-16.811
				c-9.585-5.177-18.378-11.7-26.112-19.371c-12.032-12.8-7.936-34.389,3.925-45.824c4.972-4.901,11.945-7.204,18.859-6.229
				c1.195,0,2.475,0.085,3.84,0.171c0.785,0.146,1.596,0.026,2.304-0.341c0.256-0.09,0.489-0.236,0.683-0.427
				c0.398-0.491,0.768-1.004,1.109-1.536c0.284-0.475,0.597-0.931,0.939-1.365c4.953-7.178,13.124-11.455,21.845-11.435
				c0.085,0,27.819,2.645,34.816,43.947C384.706,383.579,372.418,414.043,365.592,428.038z"/>
			<path style="fill:#D3DFF2;" d="M355.656,238.987c0,0-19.947,11.5-7.409,36.286c0,0-39.074-15.746-28.139-62.839
				c-47.093,10.935-62.839-28.139-62.839-28.139c24.786,12.539,36.286-7.409,36.286-7.409L355.656,238.987z"/>
		</g>
	</g>
	<g>
		<path style="fill:#438CFF;" d="M311.96,129.067c-2.116,2.221-2.878,5.406-1.998,8.344c0.88,2.938,3.268,5.179,6.256,5.871
			c2.988,0.692,6.118-0.271,8.2-2.524c3.186-3.446,2.995-8.817-0.428-12.028S315.196,125.669,311.96,129.067L311.96,129.067z"/>
		<path style="fill:#438CFF;" d="M478.884,90.022c2.205-35.09-32.452-60.612-34.029-61.754c-2.698-1.949-6.282-2.152-9.183-0.521
			c-2.901,1.631-4.589,4.799-4.326,8.117c0.328,4.108-8.029,11.33-17.342,16.736c-3.459-4.469-6.13-7.277-6.283-7.436
			c-2.305-2.371-5.773-3.197-8.9-2.121c-3.127,1.077-5.351,3.862-5.708,7.15c-1.189,24.642-17.034,46.171-40.208,54.633
			c-0.299,0.13-0.591,0.278-0.872,0.444c-2.559,0.734-5.116,1.484-7.586,2.414c-4.411,1.661-6.641,6.584-4.979,10.996
			c1.661,4.411,6.584,6.641,10.996,4.979c10.737-4.015,22.172-5.833,33.625-5.346c17.209,0.927,34.155,4.628,50.183,10.958
			c8.011,2.851,15.821,6.241,23.375,10.146c1.375,0.771,2.75,1.539,4.125,2.304c-9.593,3.95-18.192,9.978-25.175,17.65
			c-11.707,13.798-20.361,29.918-25.392,47.3l-0.783,2.383c-1.69,6.366-4.364,12.43-7.925,17.971
			c-9.267,12.317-28.108,4.313-33.708,1.558c-11.068-6.097-21.091-13.922-29.692-23.179c-10.889-9.608-19.004-21.959-23.5-35.767
			c-0.658-2.977-2.854-5.377-5.762-6.296c-2.907-0.919-6.084-0.217-8.333,1.842c-2.249,2.058-3.23,5.16-2.572,8.138
			c0.297,1.343,0.739,2.634,1.132,3.943c-3.265,3.327-10.439,7.727-22.941,1.415c-3.171-1.603-7.003-1.073-9.62,1.329
			s-3.472,6.175-2.147,9.471c8.985,20.443,28.73,34.071,51.031,35.223c-10.439,32.009-33.44,58.4-63.722,73.115
			c-7.126,3.382-13.988,7.296-20.527,11.707c2.928-16.251,1.991-32.962-2.736-48.783c9.671-2.907,17.54-9.977,21.462-19.282
			c0.458-1.333,10.75-32.879-28.033-60c-36.567-25.571-86.317-20.658-88.392-20.446c-0.777,0.089-1.537,0.285-2.26,0.581
			c-0.102,0.041-0.188,0.107-0.289,0.152c-0.803,0.363-1.544,0.848-2.197,1.44c-0.161,0.143-0.322,0.268-0.473,0.424
			c-0.613,0.614-1.129,1.317-1.53,2.087c-0.056,0.111-0.07,0.234-0.121,0.347c-0.028,0.063-0.085,0.102-0.112,0.166
			c-0.05,0.119-0.028,0.244-0.072,0.365c-0.319,0.853-0.498,1.753-0.531,2.664c-0.004,0.14-0.037,0.275-0.035,0.415
			c0.027,0.958,0.216,1.905,0.559,2.801c0.079,0.211,0.172,0.402,0.267,0.606c0.108,0.287,0.231,0.569,0.37,0.842l6.925,11.475
			c2.566,3.797,4.657,7.894,6.225,12.2c1.753,6.915,2.682,14.013,2.767,21.146c0.158,2.896,0.317,5.771,0.558,8.596
			c0.631,11.707,2.972,23.259,6.95,34.288c6.612,15.009,21.756,24.423,38.142,23.708c5.429,0.018,10.817-0.939,15.908-2.825
			c3.667-1.333,7.045-3.357,9.95-5.961c3.876,19.504-0.067,39.749-10.979,56.373c-7.3,7.584-13.926,15.789-19.805,24.522
			c-7.946,12.367-15.107,25.222-21.442,38.488c-5.672,11.805-11.978,23.294-18.892,34.417
			c-8.967,13.825-27.392,37.379-50.008,39.792c-14.855,0.294-28.954-6.534-37.934-18.371c-19-22.792-28.142-56.212-36.208-85.696
			l-2.408-8.775c-1.261-4.543-5.966-7.203-10.508-5.942c-4.543,1.261-7.203,5.966-5.942,10.508l2.4,8.708
			c8.525,31.162,18.183,66.483,39.55,92.121c11.501,14.864,28.973,23.896,47.75,24.683c1.709,0.001,3.417-0.089,5.117-0.271
			c29.642-3.158,51.883-31.095,62.508-47.471c7.26-11.642,13.878-23.673,19.825-36.037c6.013-12.629,12.812-24.868,20.358-36.646
			c10.466-15.689,23.643-29.389,38.913-40.457c1.043-0.073,2.065-0.337,3.012-0.78c0.442-0.228,38.502-18.307,71.37-4.617
			c-2.538,1.407-4.874,3.15-6.945,5.183c-14.783,14.296-20.008,40.933-4.217,57.8c8.27,8.308,17.712,15.36,28.025,20.933
			c2.442,1.421,4.966,2.796,7.517,4.175c6.416,3.126,12.439,7.001,17.942,11.546c3.222,3.247,6.029,6.88,8.358,10.817l7.442,11.183
			c0.196,0.255,0.406,0.499,0.63,0.731c0.128,0.153,0.244,0.301,0.383,0.444c0.667,0.699,1.449,1.278,2.312,1.713
			c0.128,0.064,0.266,0.096,0.397,0.154c0.865,0.377,1.787,0.606,2.728,0.678c0.097,0.008,0.177,0.064,0.275,0.068l0.333,0.007
			l0.042,0.005h0.175c0.937-0.038,1.862-0.231,2.735-0.572c0.216-0.079,0.415-0.166,0.622-0.262
			c0.821-0.363,1.579-0.854,2.246-1.454l0.129-0.097c0.534-0.509,0.999-1.086,1.384-1.715c1.092-1.8,26.775-44.671,19.283-88.642
			c-7.975-46.9-40.925-50.85-42.408-51.004c-10.229-0.384-20.084,3.877-26.811,11.594c-14.736-10.732-32.639-16.226-50.859-15.607
			c18.803-14.44,33.696-33.353,43.325-55.017c4.027,18.439,16.623,33.843,33.894,41.451c3.298,1.326,7.072,0.471,9.476-2.147
			c2.404-2.618,2.935-6.451,1.333-9.624c-7.303-14.418-0.221-21.855,3.052-24.334c4.257,1.154,8.645,1.756,13.056,1.792
			c11.061,0.326,21.586-4.762,28.2-13.633c4.715-6.996,8.25-14.718,10.467-22.858l0.767-2.329
			c4.304-15.066,11.707-29.068,21.733-41.108c9.371-10.862,23.21-16.822,37.541-16.166c4.462,0.52,8.563-2.509,9.379-6.927
			c0.816-4.418-1.934-8.711-6.287-9.819c-2.038-0.749-3.949-1.804-5.67-3.129c5.728-6.378,13.338-10.765,21.728-12.525
			c3.272-0.527,5.943-2.901,6.85-6.088c0.907-3.187-0.113-6.612-2.617-8.783C500.882,99.743,490.298,93.807,478.884,90.022z
			 M344.63,394.159c-2.392-1.292-4.767-2.579-7.058-3.917c-8.868-4.759-17.005-10.771-24.158-17.85
			c-8.542-9.121-5.133-25.4,3.625-33.862c2.665-2.816,6.471-4.26,10.333-3.921c1.474,0,3.206,0.096,5.194,0.234
			c18.105,20.855,29.855,46.462,33.857,73.789c-0.18-0.17-0.3-0.363-0.484-0.531C359.431,402.601,352.275,397.919,344.63,394.159
			L344.63,394.159z M359.78,319.747c0.875,0.108,21.558,3.058,27.317,36.888c2.173,15.629,0.743,31.549-4.18,46.541
			c-4.678-28.514-16.956-55.24-35.544-77.363C350.475,322.139,354.977,319.938,359.78,319.747L359.78,319.747z M234.763,235.78
			c-2.25,4.282-6.176,7.439-10.842,8.716c-12.058-26.244-30.965-48.753-54.733-65.16c15.656,1.956,30.658,7.465,43.859,16.107
			C241.18,215.113,234.997,235.076,234.763,235.78L234.763,235.78z M199.472,266.522c-11.383,4.296-27.567,0.421-32.167-11.196
			c-3.336-9.496-5.295-19.42-5.817-29.471c-0.225-2.65-0.375-5.35-0.525-8.067c-0.123-8.518-1.293-16.988-3.483-25.221
			c-0.079-0.258-0.212-0.463-0.295-0.717c23.017,15.298,41.154,36.887,52.253,62.197
			C206.44,261.724,204.886,264.481,199.472,266.522z M307.293,193.261c3.138,5.074,6.685,9.883,10.605,14.38
			c-8.893-0.302-17.457-3.437-24.443-8.948C298.429,197.988,303.168,196.128,307.293,193.261L307.293,193.261z M342.817,231.877
			c4.774,3.842,9.881,7.252,15.26,10.188c-3.359,4.446-5.513,9.684-6.255,15.206C346.085,250.041,342.917,241.107,342.817,231.877
			L342.817,231.877z M443.555,49.801c10.158,9.325,16.626,21.99,18.226,35.685c-10.289-1.854-20.743-2.633-31.193-2.324
			c-1.751-5.676-4.125-11.142-7.077-16.296C431.269,62.578,438.085,56.775,443.555,49.801z M406.138,71.063
			c4.585,6.801,7.774,14.445,9.383,22.487c0.758,4.016,0.645,8.147-0.329,12.116c-8.838-2.142-17.844-3.518-26.918-4.112
			C396.485,92.892,402.596,82.461,406.138,71.063L406.138,71.063z M469.162,126.282c-1.086-0.605-2.158-1.184-3.249-1.793
			c-8.274-4.307-16.833-8.042-25.617-11.179c-2.971-1.111-5.83-1.986-8.726-2.942c0.896-3.32,1.383-6.737,1.451-10.175
			c11.522-0.228,23.023,1.095,34.192,3.933l0.051,0.017c0.147,0.041,0.256,0.146,0.407,0.179l0.192,0.021
			c6.324,1.739,12.436,4.172,18.224,7.254C479.382,115.11,473.587,120.138,469.162,126.282L469.162,126.282z"/>
	</g>
</g>
<g>
</g>
<g>
</g>
<g>
</g>
<g>
</g>
<g>
</g>
<g>
</g>
<g>
</g>
<g>
</g>
<g>
</g>
<g>
</g>
<g>
</g>
<g>
</g>
<g>
</g>
<g>
</g>
<g>
</g>
</svg>
