<?xml version="1.0" encoding="iso-8859-1"?>
<!-- Generator: Adobe Illustrator 19.0.0, SVG Export Plug-In . SVG Version: 6.00 Build 0)  -->
<svg version="1.1" id="Capa_1" xmlns="http://www.w3.org/2000/svg" xmlns:xlink="http://www.w3.org/1999/xlink" x="0px" y="0px"
	 viewBox="0 0 512 512" style="enable-background:new 0 0 512 512;" xml:space="preserve">
<g>
	<g transform="translate(1 1)">
		<path style="fill:#A2C0F5;" d="M170.961,228.12c-2.521,13.604,3.81,27.32,15.8,34.226c11.989,6.906,27.031,5.501,37.534-3.506
			h61.44c10.503,9.007,25.544,10.412,37.534,3.506c11.989-6.906,18.321-20.622,15.8-34.226l30.72-53.333
			c12.791-4.906,21.376-17.025,21.76-30.72c-0.384-13.695-8.969-25.814-21.76-30.72l-30.72-53.333
			c2.047-13.536-4.16-26.991-15.787-34.219c-12.088-6.452-26.859-5.075-37.547,3.499h-61.44c-10.688-8.574-25.459-9.95-37.547-3.499
			c-11.626,7.228-17.834,20.683-15.787,34.219l-30.72,53.333c-12.791,4.906-21.376,17.025-21.76,30.72
			c0.384,13.695,8.969,25.814,21.76,30.72"/>
		<g>
			<path style="fill:#D3DFF2;" d="M297.681,422.467c19.733-33.6,20.267-30.222,29.952-39.467
				c45.262-43.201,117.419-78.848,174.763-52.736l0.085,0.085l-0.085-0.085C498.641,326.168,394.364,215.32,256.721,383h-3.413
				C115.665,215.32,11.388,326.168,7.633,330.264l-0.085,0.085l0.085-0.085c57.344-26.112,129.501,9.535,174.763,52.736
				c9.685,9.244,10.219,5.867,29.952,39.467H297.681z"/>
			<path style="fill:#D3DFF2;" d="M289.148,45.933c-0.356,9.241-2.052,18.382-5.035,27.136c-18.628-7.737-39.569-7.737-58.197,0
				c-2.983-8.754-4.679-17.895-5.035-27.136c-0.032-5.724,1.13-11.391,3.413-16.64c4.585-13.037,16.9-21.76,30.72-21.76
				s26.135,8.723,30.72,21.76C288.017,34.542,289.18,40.21,289.148,45.933z"/>
			<path style="fill:#D3DFF2;" d="M289.148,242.2c0.032,5.724-1.131,11.391-3.413,16.64c-4.585,13.037-16.9,21.76-30.72,21.76
				s-26.135-8.723-30.72-21.76c-2.283-5.249-3.445-10.916-3.413-16.64c0.356-9.241,2.052-18.382,5.035-27.136
				c18.628,7.737,39.569,7.737,58.197,0C287.095,223.818,288.791,232.959,289.148,242.2z"/>
			<path style="fill:#D3DFF2;" d="M207.996,83.395c-15.95,12.297-26.406,30.388-29.099,50.347
				c-9.055-1.772-17.798-4.878-25.941-9.216c-4.927-2.861-9.247-6.658-12.715-11.179c-8.574-10.688-9.951-25.459-3.499-37.547
				c7.228-11.626,20.683-17.834,34.219-15.787c5.689,0.716,11.174,2.574,16.128,5.461C194.924,70.356,201.973,76.398,207.996,83.395
				z"/>
			<path style="fill:#D3DFF2;" d="M373.286,212.333c-7.228,11.626-20.683,17.834-34.219,15.787
				c-5.689-0.716-11.174-2.574-16.128-5.461c-7.835-4.882-14.884-10.924-20.907-17.92c15.95-12.297,26.406-30.388,29.099-50.347
				c9.055,1.772,17.797,4.878,25.941,9.216c4.927,2.861,9.246,6.659,12.715,11.179C378.362,185.475,379.738,200.245,373.286,212.333
				z"/>
			<path style="fill:#D3DFF2;" d="M207.996,204.739c-6.022,6.996-13.072,13.038-20.907,17.92
				c-4.954,2.888-10.439,4.745-16.128,5.461c-13.536,2.047-26.991-4.16-34.219-15.787c-6.452-12.088-5.075-26.859,3.499-37.547
				c3.468-4.52,7.788-8.318,12.715-11.179c8.144-4.338,16.886-7.444,25.941-9.216C181.59,174.351,192.046,192.442,207.996,204.739
				L207.996,204.739z"/>
			<path style="fill:#D3DFF2;" d="M369.788,113.347c-3.468,4.52-7.788,8.318-12.715,11.179c-8.144,4.338-16.886,7.444-25.941,9.216
				c-2.693-19.959-13.149-38.05-29.099-50.347c6.022-6.996,13.072-13.038,20.907-17.92c4.954-2.887,10.439-4.745,16.128-5.461
				c13.536-2.047,26.991,4.16,34.219,15.787C379.738,87.888,378.362,102.659,369.788,113.347L369.788,113.347z"/>
		</g>
		<path style="fill:#A2C0F5;" d="M331.814,144.067c-0.012,3.453-0.24,6.901-0.683,10.325c-2.693,19.959-13.149,38.05-29.099,50.347
			c-5.446,4.286-11.481,7.763-17.92,10.325c-18.628,7.737-39.569,7.737-58.197,0c-6.439-2.562-12.474-6.04-17.92-10.325
			c-15.95-12.297-26.406-30.388-29.099-50.347c-0.91-6.853-0.91-13.797,0-20.651c2.693-19.959,13.149-38.05,29.099-50.347
			c5.445-4.286,11.481-7.764,17.92-10.325c18.628-7.737,39.569-7.737,58.197,0c6.439,2.562,12.475,6.039,17.92,10.325
			c15.95,12.297,26.406,30.388,29.099,50.347C331.574,137.166,331.802,140.614,331.814,144.067z"/>
		<path style="fill:#D3DFF2;" d="M306.214,144.067c-0.01,3.449-0.2,6.896-0.569,10.325c-1.836,19.133-10.433,36.984-24.249,50.347
			c-4.41,4.198-9.449,7.681-14.933,10.325c-15.24,7.737-33.257,7.737-48.497,0c-5.485-2.644-10.523-6.128-14.933-10.325
			c-13.815-13.363-22.413-31.214-24.249-50.347c-0.759-6.863-0.759-13.788,0-20.651c1.836-19.133,10.433-36.984,24.249-50.347
			c4.41-4.198,9.449-7.682,14.933-10.325c15.24-7.737,33.257-7.737,48.497,0c5.485,2.644,10.523,6.127,14.933,10.325
			c13.815,13.363,22.413,31.214,24.249,50.347C306.015,137.171,306.204,140.617,306.214,144.067z"/>
		
			<linearGradient id="SVGID_1_" gradientUnits="userSpaceOnUse" x1="-49.3605" y1="650.4961" x2="-48.6536" y2="649.7892" gradientTransform="matrix(102.3997 0 0 -102.4002 5273.3169 66718.7891)">
			<stop  offset="0" style="stop-color:#DAE5F4"/>
			<stop  offset="0.1717" style="stop-color:#DAE5F4"/>
			<stop  offset="0.2" style="stop-color:#DAE5F4"/>
			<stop  offset="0.2006" style="stop-color:#EBECF4"/>
			<stop  offset="0.2013" style="stop-color:#F6F1F4"/>
			<stop  offset="0.2022" style="stop-color:#FDF4F4"/>
			<stop  offset="0.205" style="stop-color:#FFF5F4"/>
			<stop  offset="0.2522" style="stop-color:#FFF5F4"/>
			<stop  offset="0.26" style="stop-color:#FFF5F4"/>
			<stop  offset="0.26" style="stop-color:#DAE5F4"/>
			<stop  offset="0.3974" style="stop-color:#DAE5F4"/>
			<stop  offset="0.42" style="stop-color:#DAE5F4"/>
			<stop  offset="0.4206" style="stop-color:#EBECF4"/>
			<stop  offset="0.4212" style="stop-color:#F6F1F4"/>
			<stop  offset="0.4222" style="stop-color:#FDF4F4"/>
			<stop  offset="0.425" style="stop-color:#FFF5F4"/>
			<stop  offset="0.4894" style="stop-color:#FFF5F4"/>
			<stop  offset="0.5" style="stop-color:#FFF5F4"/>
			<stop  offset="0.5001" style="stop-color:#EEEEF4"/>
			<stop  offset="0.5002" style="stop-color:#E3E9F4"/>
			<stop  offset="0.5004" style="stop-color:#DCE6F4"/>
			<stop  offset="0.501" style="stop-color:#DAE5F4"/>
			<stop  offset="0.7062" style="stop-color:#DAE5F4"/>
			<stop  offset="0.74" style="stop-color:#DAE5F4"/>
			<stop  offset="0.741" style="stop-color:#FFF5F4"/>
			<stop  offset="0.8346" style="stop-color:#FFF5F4"/>
			<stop  offset="0.85" style="stop-color:#FFF5F4"/>
			<stop  offset="0.851" style="stop-color:#DAE5F4"/>
		</linearGradient>
		<path style="fill:url(#SVGID_1_);" d="M306.214,144.067c-0.008,2.302-0.16,4.601-0.455,6.883
			c-1.795,13.306-8.766,25.367-19.399,33.565c-3.63,2.857-7.654,5.176-11.947,6.884c-12.418,5.158-26.38,5.158-38.798,0
			c-4.293-1.708-8.316-4.026-11.947-6.884c-10.633-8.198-17.604-20.259-19.399-33.565c-0.607-4.569-0.607-9.198,0-13.767
			c1.795-13.306,8.766-25.367,19.399-33.564c3.63-2.857,7.654-5.176,11.947-6.884c12.418-5.158,26.38-5.158,38.798,0
			c4.293,1.708,8.316,4.026,11.947,6.884c10.633,8.198,17.604,20.259,19.399,33.564
			C306.054,139.466,306.206,141.765,306.214,144.067z"/>
		<path style="fill:#A2C0F5;" d="M357.414,400.067c0.073,4.381-1.414,8.646-4.196,12.032c-2.397,3.122-6.091,4.977-10.027,5.035
			l-12.729,76.203c-0.443,4.891-4.349,8.748-9.245,9.131h-98.275c-4.896-0.382-8.802-4.24-9.245-9.131l-12.729-76.203
			c-8.591-0.878-14.908-8.458-14.222-17.067c-0.073-4.381,1.414-8.646,4.196-12.032c2.397-3.122,6.091-4.977,10.027-5.035h142.222
			C351.784,383.878,358.1,391.458,357.414,400.067L357.414,400.067z"/>
		<path style="fill:#FFFFFF;" d="M323.281,400.067c0.073,4.381-1.414,8.646-4.196,12.032c-2.397,3.122-6.091,4.977-10.027,5.035
			l-12.729,76.203c-0.443,4.891-4.349,8.748-9.245,9.131H188.81c-4.896-0.382-8.802-4.24-9.245-9.131l-12.729-76.203
			c-8.591-0.878-14.908-8.458-14.222-17.067c-0.073-4.381,1.414-8.646,4.196-12.032c2.397-3.122,6.091-4.977,10.027-5.035h142.222
			C317.65,383.878,323.967,391.458,323.281,400.067L323.281,400.067z"/>
		<path style="fill:#D3DFF2;" d="M331.814,400.067c0.068,4.401-1.466,8.677-4.316,12.032c-2.507,3.142-6.294,4.991-10.313,5.035
			l-13.092,76.203c-0.525,4.952-4.539,8.807-9.509,9.131h-79.14c-4.97-0.323-8.984-4.178-9.509-9.131l-13.092-76.203
			c-8.714-0.748-15.222-8.34-14.629-17.067c-0.067-4.401,1.466-8.677,4.316-12.032c2.507-3.142,6.294-4.991,10.313-5.035h124.343
			C325.9,383.748,332.408,391.341,331.814,400.067L331.814,400.067z"/>
		<path style="fill:#A2C0F5;" d="M340.348,417.133l-12.22,76.203c-0.331,4.802-4.084,8.663-8.875,9.131h-94.345
			c-4.791-0.468-8.543-4.328-8.875-9.131l-12.22-76.203H340.348z"/>
		<path style="fill:#FFFFFF;" d="M306.214,417.133l-12.22,76.203c-0.331,4.802-4.084,8.663-8.875,9.131h-94.345
			c-4.791-0.468-8.543-4.328-8.875-9.131l-12.22-76.203H306.214z"/>
		<path style="fill:#D3DFF2;" d="M314.748,417.133l-12.579,76.203c-0.41,4.865-4.271,8.724-9.136,9.131h-76.037
			c-4.865-0.407-8.726-4.266-9.136-9.131l-12.579-76.203H314.748z"/>
	</g>
	<g>
		<path style="fill:#438CFF;" d="M315.748,145.067c-0.008-2.679-0.185-5.356-0.529-8.013c-2.059-15.532-10.189-29.615-22.608-39.167
			c-4.229-3.323-8.911-6.025-13.904-8.025c-14.482-5.963-30.729-5.987-45.229-0.067c-5.04,2.009-9.767,4.728-14.037,8.075
			c-12.447,9.572-20.589,23.691-22.638,39.259c-0.697,5.294-0.694,10.657,0.009,15.95c2.059,15.532,10.189,29.615,22.608,39.167
			c4.229,3.323,8.911,6.025,13.904,8.025c14.472,6.016,30.74,6.04,45.229,0.067c5.04-2.009,9.767-4.728,14.037-8.075
			c12.447-9.572,20.589-23.691,22.638-39.258C315.567,150.372,315.741,147.721,315.748,145.067z M298.302,150.821
			c-1.481,11.099-7.304,21.156-16.192,27.967c-3.036,2.385-6.402,4.319-9.992,5.742c-10.366,4.295-22.019,4.271-32.367-0.067
			c-3.541-1.414-6.86-3.331-9.854-5.692c-8.86-6.79-14.671-16.812-16.162-27.875c-0.249-1.933-0.378-3.88-0.388-5.829
			c0.008-1.924,0.135-3.846,0.379-5.754c1.481-11.099,7.304-21.156,16.192-27.967c3.036-2.385,6.402-4.319,9.992-5.742
			c10.366-4.295,22.019-4.271,32.367,0.067c3.541,1.414,6.86,3.331,9.854,5.692c8.86,6.79,14.671,16.812,16.162,27.875
			c0.249,1.933,0.378,3.88,0.388,5.829C298.673,146.991,298.546,148.912,298.302,150.821L298.302,150.821z"/>
		<path style="fill:#438CFF;" d="M511.565,329.25c-0.035-0.303-0.087-0.603-0.155-0.9c-0.28-0.613-0.63-1.192-1.043-1.725
			c-0.197-0.396-0.426-0.775-0.685-1.133l-0.087-0.092l-0.013-0.021l-0.02-0.015c-26.999-27.48-64.042-42.753-102.563-42.29
			c-47.981,1.323-95.829,28.265-142.45,79.984v-73.997c10.352-2.457,19.402-8.717,25.352-17.538
			c5.878,2.839,12.309,4.345,18.836,4.413c6.96,0.032,13.805-1.772,19.846-5.229c11.728-7.009,19.23-19.364,20.04-33.003
			c13.655-0.81,26.024-8.326,33.035-20.072l0.021-0.038c6.59-11.975,6.884-26.422,0.786-38.655
			c11.406-7.536,18.369-20.206,18.618-33.875c-0.249-13.665-7.208-26.332-18.609-33.869c6.096-12.251,5.792-26.714-0.816-38.698
			c-7.011-11.74-19.382-19.246-33.033-20.044c-0.807-13.663-8.326-26.039-20.08-33.052c-11.976-6.592-26.424-6.889-38.661-0.796
			C282.517,7.02,269.739,0.001,256.008,0c-13.731-0.001-26.509,7.018-33.876,18.605c-12.249-6.089-26.705-5.782-38.684,0.82
			c-11.732,7.011-19.235,19.372-20.041,33.015c-13.668,0.806-26.049,8.333-33.055,20.097c-6.59,11.975-6.884,26.422-0.786,38.655
			c-11.406,7.536-18.37,20.206-18.618,33.874c0.248,13.665,7.208,26.332,18.609,33.869c-6.36,12.18-6.058,26.765,0.8,38.671
			s19.323,19.485,33.05,20.094c0.814,13.654,8.331,26.02,20.078,33.029c6.027,3.447,12.857,5.245,19.8,5.213
			c6.535-0.069,12.973-1.579,18.857-4.423c5.946,8.82,14.991,15.081,25.339,17.543v73.998
			c-46.621-51.719-94.469-78.661-142.45-79.984c-38.605-0.579-75.745,14.762-102.687,42.417c-0.102,0.111-0.129,0.256-0.224,0.371
			c-2.936,3.411-2.678,8.526,0.586,11.625c0.838,0.767,1.825,1.353,2.899,1.722c0.164,0.062,0.326,0.094,0.492,0.146
			c0.798,0.244,1.628,0.369,2.462,0.37c0.257,0.002,0.501,0.012,0.757-0.009c0.831-0.074,1.646-0.27,2.42-0.581
			c0.178-0.07,0.361-0.091,0.535-0.172l0.143-0.046c47.315-21.372,104.134,6.342,148.399,38.537
			c-9.997,4.147-16.288,14.151-15.695,24.958c0.594,10.806,7.943,20.062,18.334,23.089l14.099,70.491
			c1.879,9.297,10.04,15.988,19.525,16.009h117.875c9.484-0.02,17.644-6.709,19.525-16.004l14.099-70.496
			c10.391-3.027,17.74-12.282,18.334-23.089s-5.698-20.811-15.696-24.957c44.13-32.092,100.748-59.708,147.976-38.729
			c0.161,0.094,0.347,0.113,0.513,0.195c0.165,0.079,0.331,0.122,0.499,0.19c0.833,0.351,1.719,0.562,2.62,0.626
			c0.143,0.01,0.278,0.015,0.421,0.017c0.965,0.022,1.927-0.122,2.843-0.428c0.086-0.028,0.171-0.041,0.256-0.072
			c3.293-1.094,5.532-4.153,5.58-7.622l0-0.003C511.915,330.823,511.795,330.022,511.565,329.25z M242.856,212.031
			c-4.389-0.87-8.68-2.179-12.809-3.906c-5.687-2.268-11.017-5.344-15.825-9.133c-14.195-10.892-23.494-26.966-25.861-44.701
			c-0.816-6.113-0.818-12.307-0.005-18.42c0.296-2.22,0.697-4.408,1.204-6.566c3.584-15.193,12.307-28.682,24.692-38.184
			c4.849-3.814,10.224-6.906,15.958-9.179c14.248-5.872,30.073-6.708,44.86-2.37c0.178,0.053,0.362,0.083,0.54,0.137
			c1.047,0.318,2.059,0.74,3.089,1.11c1.095,0.394,2.2,0.736,3.282,1.189c5.687,2.268,11.017,5.344,15.825,9.133
			c14.195,10.892,23.494,26.966,25.861,44.701c0.816,6.113,0.818,12.307,0.005,18.42c-0.296,2.22-0.697,4.408-1.204,6.566
			c-3.661,15.161-12.368,28.626-24.692,38.184c-4.849,3.814-10.224,6.906-15.958,9.179
			C269.493,213.283,255.938,214.619,242.856,212.031L242.856,212.031z M320.019,255.946c-7.188,3.833-15.804,3.874-23.029,0.111
			c1.113-4.195,1.681-8.517,1.691-12.857c-0.206-7.643-1.344-15.233-3.389-22.601c2.225-1.148,4.389-2.403,6.521-3.769
			c5.323,5.462,11.312,10.232,17.827,14.198c3.78,2.175,7.822,3.858,12.028,5.008C331.341,244.199,326.974,251.663,320.019,255.946
			L320.019,255.946z M366.906,209.046c-5.48,8.698-15.634,13.27-25.779,11.608c-4.565-0.583-8.967-2.079-12.942-4.4
			c-4.625-2.82-8.91-6.163-12.771-9.963c0.307-0.296,0.549-0.643,0.851-0.943c2.145-2.136,4.176-4.385,6.082-6.737
			c0.602-0.741,1.198-1.479,1.773-2.238c2.07-2.693,3.975-5.51,5.705-8.433c0.057-0.097,0.126-0.186,0.183-0.284
			c1.709-3.009,3.23-6.121,4.554-9.317c0.39-0.922,0.746-1.853,1.104-2.79c1.021-2.673,1.906-5.397,2.651-8.16
			c0.137-0.512,0.361-0.991,0.489-1.506c5.202,1.463,10.223,3.508,14.967,6.096c3.944,2.28,7.404,5.311,10.183,8.921
			C370.452,188.859,371.611,199.913,366.906,209.046L366.906,209.046z M372.49,165.166c-3.038-3.051-6.44-5.717-10.13-7.937
			c-6.674-3.656-13.774-6.472-21.14-8.383c0.058-1.269,0.127-2.544,0.127-3.779c0-1.233-0.069-2.509-0.128-3.779
			c7.37-1.913,14.475-4.732,21.153-8.392c3.685-2.217,7.084-4.88,10.118-7.928c7.138,4.178,11.524,11.829,11.524,20.099
			C384.014,153.338,379.628,160.988,372.49,165.166L372.49,165.166z M366.894,81.063c4.713,9.121,3.571,20.169-2.908,28.133
			c-2.782,3.621-6.248,6.662-10.2,8.95c-4.748,2.591-9.773,4.639-14.979,6.104c-0.111-0.446-0.305-0.86-0.423-1.303
			c-0.768-2.873-1.687-5.702-2.754-8.478c-0.334-0.872-0.666-1.74-1.029-2.599c-1.339-3.239-2.879-6.391-4.613-9.438l-0.015-0.022
			c-1.779-3.021-3.745-5.927-5.887-8.703c-0.548-0.722-1.115-1.424-1.687-2.13c-1.946-2.407-4.023-4.707-6.219-6.889
			c-0.272-0.269-0.489-0.581-0.765-0.847c3.875-3.815,8.179-7.17,12.825-9.996c3.939-2.293,8.297-3.775,12.817-4.358
			C351.21,67.821,361.378,72.376,366.894,81.063L366.894,81.063z M319.981,34.167c6.971,4.28,11.353,11.752,11.686,19.925
			c-4.185,1.144-8.208,2.817-11.969,4.979c-6.536,3.972-12.545,8.753-17.883,14.23c-2.143-1.375-4.303-2.626-6.52-3.77
			c2.043-7.367,3.18-14.956,3.386-22.598c-0.01-4.342-0.577-8.666-1.688-12.864C304.202,30.304,312.805,30.341,319.981,34.167
			L319.981,34.167z M256.014,17.067c10.317,0.369,19.38,6.96,22.908,16.663c1.809,4.165,2.726,8.663,2.692,13.204
			c-0.153,5.425-0.909,10.817-2.254,16.075c-0.698-0.202-1.429-0.271-2.131-0.455c-2.376-0.612-4.767-1.131-7.186-1.533
			c-1.362-0.229-2.724-0.437-4.1-0.598c-2.554-0.297-5.113-0.465-7.68-0.533c-0.755-0.02-1.489-0.156-2.248-0.156
			c-0.695,0-1.368,0.127-2.061,0.143c-2.682,0.063-5.351,0.243-8.008,0.555c-1.273,0.152-2.534,0.345-3.795,0.554
			c-2.615,0.428-5.197,0.978-7.747,1.653c-0.572,0.152-1.167,0.206-1.735,0.37c-1.345-5.258-2.101-10.65-2.254-16.075
			c-0.031-4.58,0.902-9.116,2.738-13.313C236.697,23.967,245.736,17.422,256.014,17.067z M192.01,34.188
			c7.188-3.833,15.804-3.874,23.028-0.11c-1.112,4.195-1.68,8.516-1.691,12.856c0.207,7.644,1.344,15.233,3.388,22.602
			c-2.224,1.147-4.388,2.402-6.519,3.768c-5.321-5.463-11.311-10.234-17.826-14.198c-3.78-2.175-7.822-3.858-12.028-5.008
			C180.688,45.934,185.055,38.471,192.01,34.188z M145.115,81.1c4.709-7.63,13.148-12.148,22.108-11.838
			c1.23,0,2.458,0.073,3.679,0.217c4.567,0.584,8.969,2.08,12.946,4.4c4.624,2.82,8.908,6.163,12.767,9.963
			c-0.307,0.296-0.548,0.642-0.851,0.942c-2.147,2.138-4.178,4.388-6.086,6.742c-0.6,0.738-1.194,1.474-1.767,2.23
			c-2.071,2.695-3.977,5.512-5.708,8.438c-0.057,0.097-0.127,0.186-0.183,0.284c-1.709,3.01-3.231,6.124-4.556,9.322
			c-0.389,0.918-0.742,1.846-1.099,2.778c-1.022,2.676-1.908,5.403-2.654,8.169c-0.137,0.511-0.36,0.989-0.489,1.504
			c-5.202-1.463-10.223-3.508-14.967-6.096c-3.944-2.28-7.404-5.311-10.183-8.921C141.576,101.28,140.414,90.231,145.115,81.1
			L145.115,81.1z M139.539,124.967c3.038,3.051,6.44,5.717,10.13,7.937c6.674,3.656,13.774,6.472,21.14,8.383
			c-0.058,1.269-0.127,2.544-0.127,3.779c0,1.233,0.069,2.509,0.128,3.779c-7.37,1.913-14.475,4.732-21.153,8.392
			c-3.685,2.218-7.082,4.881-10.115,7.93c-7.139-4.178-11.526-11.828-11.527-20.1S132.401,129.146,139.539,124.967L139.539,124.967z
			 M145.135,209.071c-4.714-9.106-3.582-20.141,2.883-28.1c2.787-3.635,6.261-6.687,10.225-8.983
			c4.748-2.591,9.773-4.639,14.979-6.104c0.111,0.446,0.305,0.86,0.423,1.303c0.768,2.873,1.687,5.702,2.754,8.478
			c0.334,0.872,0.666,1.74,1.029,2.6c1.338,3.238,2.878,6.389,4.61,9.434l0.027,0.042c1.774,3.01,3.733,5.907,5.867,8.674
			c0.556,0.732,1.13,1.444,1.711,2.159c1.925,2.378,3.976,4.65,6.144,6.808c0.292,0.29,0.526,0.625,0.822,0.911
			c-3.875,3.814-8.177,7.168-12.821,9.996c-3.939,2.293-8.297,3.775-12.817,4.358C160.817,222.323,150.644,217.765,145.135,209.071
			L145.135,209.071z M192.048,255.967c-6.971-4.28-11.353-11.752-11.685-19.925c4.186-1.144,8.21-2.818,11.973-4.979
			c6.533-3.974,12.54-8.755,17.879-14.23c2.144,1.375,4.304,2.627,6.522,3.771c-2.044,7.367-3.182,14.955-3.388,22.597
			c0.01,4.34,0.576,8.66,1.686,12.856C207.825,259.817,199.227,259.783,192.048,255.967L192.048,255.967z M233.106,256.404
			c-1.809-4.165-2.726-8.663-2.692-13.204c0.153-5.425,0.909-10.817,2.254-16.075c0.454,0.131,0.934,0.172,1.391,0.295
			c2.88,0.775,5.799,1.395,8.746,1.855c0.843,0.132,1.675,0.267,2.523,0.374c7.098,1.001,14.301,1.001,21.398-0.002
			c0.821-0.104,1.629-0.234,2.446-0.361c3.038-0.469,6.047-1.107,9.013-1.912c0.385-0.105,0.791-0.139,1.175-0.25
			c1.345,5.258,2.101,10.65,2.254,16.075c0.031,4.58-0.902,9.116-2.737,13.313c-3.254,9.898-12.506,16.579-22.925,16.554
			C245.533,273.042,236.313,266.317,233.106,256.404L233.106,256.404z M45.316,314.533c18.157-9.882,38.581-14.846,59.248-14.4
			c43.442,1.199,87.496,26.573,131.138,75.333h-49.357C147.356,344.462,95.295,313.205,45.316,314.533L45.316,314.533z
			 M170.681,392.533h41.979L195.594,409.6h-24.912c-4.713,0-8.533-3.82-8.533-8.533S165.968,392.533,170.681,392.533z
			 M181.09,426.667h82.771l-67.875,67.875c-0.846-0.311-1.482-1.021-1.7-1.896L181.09,426.667z M317.744,492.65
			c-0.271,1.327-1.437,2.281-2.792,2.283h-95.225l68.267-68.267h42.946L317.744,492.65z M341.348,409.6H219.727l17.067-17.067
			h104.554c4.713,0,8.533,3.821,8.533,8.533S346.061,409.6,341.348,409.6z M325.683,375.467h-49.356
			c43.642-48.761,87.696-74.135,131.138-75.333c20.661-0.46,41.08,4.506,59.222,14.404
			C416.714,313.221,364.657,344.469,325.683,375.467z"/>
	</g>
</g>
<g>
</g>
<g>
</g>
<g>
</g>
<g>
</g>
<g>
</g>
<g>
</g>
<g>
</g>
<g>
</g>
<g>
</g>
<g>
</g>
<g>
</g>
<g>
</g>
<g>
</g>
<g>
</g>
<g>
</g>
</svg>
