<?xml version="1.0" encoding="iso-8859-1"?>
<!-- Generator: Adobe Illustrator 19.0.0, SVG Export Plug-In . SVG Version: 6.00 Build 0)  -->
<svg version="1.1" id="Capa_1" xmlns="http://www.w3.org/2000/svg" xmlns:xlink="http://www.w3.org/1999/xlink" x="0px" y="0px"
	 viewBox="0 0 512 512" style="enable-background:new 0 0 512 512;" xml:space="preserve">
<g>
	<g transform="translate(1 1)">
		<g>
			<path style="fill:#D3DFF2;" d="M112.664,282.729c2.507,5.077,2.539,11.025,0.085,16.128
				c-5.915,14.044-21.612,21.206-36.096,16.469c-8.479-4.017-16.327-9.249-23.296-15.531c-6.55-6.367-13.726-12.056-21.419-16.981
				c-4.96-2.247-10.175-3.881-15.531-4.864c-0.341-0.085-0.768-0.171-1.109-0.256c-2.56-0.683-5.035-1.28-7.509-1.963
				c0,0,2.133-2.645,6.144-6.656c15.014-15.943,34.396-27.104,55.722-32.085c35.584-6.315,45.824,15.36,45.824,15.445
				c2.525,6.905,1.538,14.605-2.645,20.651c-0.342,0.532-0.712,1.045-1.109,1.536c-0.361,0.42-0.676,0.878-0.939,1.365
				c-0.106,0.212-0.165,0.445-0.171,0.683c-0.024,0.707,0.123,1.409,0.427,2.048C111.64,280.169,112.237,281.449,112.664,282.729z"
				/>
			<path style="fill:#D3DFF2;" d="M502.467,291.945c-2.56-0.512-5.035-1.024-7.595-1.621h-0.085
				c-0.347-0.015-0.691-0.073-1.024-0.171c-5.272-1.349-10.686-2.065-16.128-2.133c-9.07,1.082-17.997,3.142-26.625,6.144
				c-9.003,2.678-18.341,4.057-27.733,4.096c-15.102-1.988-26.201-15.158-25.6-30.379c0.067-5.787,2.73-11.238,7.253-14.848
				c0.853-0.853,1.877-1.707,2.901-2.645c0.607-0.37,1.061-0.945,1.28-1.621c0.07-0.22,0.099-0.452,0.085-0.683
				c-0.001-0.55-0.088-1.097-0.256-1.621c-0.155-0.646-0.269-1.302-0.341-1.963c-1.157-7.233,1.26-14.579,6.485-19.712
				c0,0,18.517-15.275,47.957,5.547c17.176,13.636,29.941,32.042,36.693,52.907C501.613,288.532,502.467,291.945,502.467,291.945z"
				/>
		</g>
		<path style="fill:#FFFFFF;" d="M425.667,374.462v8.533H50.2v-8.533c-0.582-13.547,9.921-25.004,23.467-25.6H402.2
			C415.746,349.459,426.248,360.916,425.667,374.462z"/>
		<path style="fill:#A2C0F5;" d="M459.8,374.462v8.533H84.333v-8.533c-0.582-13.547,9.921-25.004,23.467-25.6h328.533
			C449.879,349.459,460.382,360.916,459.8,374.462z"/>
		<path style="fill:#D3DFF2;" d="M434.2,374.462v8.533H75.8v-8.533c-0.841-13.241,9.165-24.676,22.4-25.6h313.6
			C425.035,349.786,435.042,361.222,434.2,374.462z"/>
		<rect x="41.667" y="382.996" style="fill:#A2C0F5;" width="460.8" height="34.133"/>
		<rect x="7.533" y="382.996" style="fill:#FFFFFF;" width="460.8" height="34.133"/>
		<rect x="33.133" y="382.996" style="fill:#D3DFF2;" width="443.733" height="34.133"/>
		<polygon style="fill:#A2C0F5;" points="50.2,417.129 58.127,502.462 486.006,502.462 493.933,417.129 		"/>
		<polygon style="fill:#FFFFFF;" points="16.067,417.129 23.994,502.462 451.873,502.462 459.8,417.129 		"/>
		
			<linearGradient id="SVGID_1_" gradientUnits="userSpaceOnUse" x1="-49.6807" y1="651.3892" x2="-49.0896" y2="648.4338" gradientTransform="matrix(426.6667 0 0 -85.3333 21326.002 55915.1016)">
			<stop  offset="0" style="stop-color:#DAE5F4"/>
			<stop  offset="0.1717" style="stop-color:#DAE5F4"/>
			<stop  offset="0.2" style="stop-color:#DAE5F4"/>
			<stop  offset="0.2006" style="stop-color:#EBECF4"/>
			<stop  offset="0.2013" style="stop-color:#F6F1F4"/>
			<stop  offset="0.2022" style="stop-color:#FDF4F4"/>
			<stop  offset="0.205" style="stop-color:#FFF5F4"/>
			<stop  offset="0.2522" style="stop-color:#FFF5F4"/>
			<stop  offset="0.26" style="stop-color:#FFF5F4"/>
			<stop  offset="0.26" style="stop-color:#DAE5F4"/>
			<stop  offset="0.3974" style="stop-color:#DAE5F4"/>
			<stop  offset="0.42" style="stop-color:#DAE5F4"/>
			<stop  offset="0.4206" style="stop-color:#EBECF4"/>
			<stop  offset="0.4212" style="stop-color:#F6F1F4"/>
			<stop  offset="0.4222" style="stop-color:#FDF4F4"/>
			<stop  offset="0.425" style="stop-color:#FFF5F4"/>
			<stop  offset="0.4894" style="stop-color:#FFF5F4"/>
			<stop  offset="0.5" style="stop-color:#FFF5F4"/>
			<stop  offset="0.5001" style="stop-color:#EEEEF4"/>
			<stop  offset="0.5002" style="stop-color:#E3E9F4"/>
			<stop  offset="0.5004" style="stop-color:#DCE6F4"/>
			<stop  offset="0.501" style="stop-color:#DAE5F4"/>
			<stop  offset="0.7062" style="stop-color:#DAE5F4"/>
			<stop  offset="0.74" style="stop-color:#DAE5F4"/>
			<stop  offset="0.741" style="stop-color:#FFF5F4"/>
			<stop  offset="0.8346" style="stop-color:#FFF5F4"/>
			<stop  offset="0.85" style="stop-color:#FFF5F4"/>
			<stop  offset="0.851" style="stop-color:#DAE5F4"/>
		</linearGradient>
		<polygon style="fill:url(#SVGID_1_);" points="41.667,417.129 49.287,502.462 460.713,502.462 468.333,417.129 		"/>
		<g>
			<path style="fill:#A2C0F5;" d="M187.673,176.318c-11.231,3.349-22.933,4.847-34.645,4.437c-3.499,0-7.253-0.085-10.923-0.341
				c7.888-0.295,15.698-1.674,23.211-4.096c12.971-4.437,26.709-14.08,24.405-29.44c-1.516-7.025-4.137-13.765-7.765-19.968
				c-7.161-12.723-11.497-26.838-12.715-41.387c-0.555-10.415,2.095-20.749,7.595-29.611c2.048-0.768,4.011-1.451,6.059-2.048
				c3.328-0.939,6.741-1.877,10.069-2.901v-0.085c0.853-0.256,1.621-0.512,2.475-0.768c4.097-0.563,8.092-1.713,11.861-3.413
				c-10.994,9.791-16.799,24.146-15.701,38.827c1.217,14.548,5.554,28.664,12.715,41.387c3.628,6.203,6.249,12.943,7.765,19.968
				C214.382,162.238,200.644,171.881,187.673,176.318z"/>
			<path style="fill:#A2C0F5;" d="M169.497,25.022c-1.365,0.768-2.645,1.451-3.925,2.133c-11.364,6.772-21.54,15.363-30.123,25.429
				c-2.867-2.053-5.959-3.77-9.216-5.12c-5.072-2.042-10.33-3.585-15.701-4.608c2.881-8.042,4.241-16.549,4.011-25.088
				c-0.168-3.484-1.593-6.788-4.011-9.301l-0.171-0.171c0,0,30.72-5.035,48.896,11.691c2.395,2.069,4.466,4.485,6.144,7.168
				C166.721,26.361,168.089,25.648,169.497,25.022z"/>
		</g>
		<path style="fill:#D3DFF2;" d="M146.713,33.47c-1.365,0.768-2.645,1.451-3.925,2.133c-5.863,3.448-11.404,7.418-16.555,11.861
			c-5.072-2.042-10.33-3.585-15.701-4.608c2.881-8.042,4.241-16.549,4.011-25.088c8.133,1.53,15.706,5.214,21.931,10.667
			c2.395,2.068,4.466,4.485,6.144,7.168C143.937,34.809,145.305,34.096,146.713,33.47z"/>
		<path style="fill:#FFFFFF;" d="M155.503,178.793c-4.418,0.881-8.897,1.423-13.397,1.621c-14.866,0.365-29.101-6.001-38.741-17.323
			c-4.973-7.652-7.172-16.779-6.229-25.856c0.876-10.501,4.083-20.675,9.387-29.781l0.256-0.512l-0.085-0.085h0.085
			c4.156-7.19,9.362-13.718,15.445-19.371c7.728-7.105,16.297-13.238,25.515-18.261c4.437-2.475,9.045-4.779,13.739-6.912
			c2.133-0.939,4.267-1.963,6.4-2.816c-7.553,5.031-14.559,10.836-20.906,17.323c-6.14,6.433-11.34,13.701-15.445,21.589h-0.085
			l0.085,0.085c-0.07,0.205-0.155,0.405-0.256,0.597c-5.352,10.312-8.546,21.607-9.387,33.195
			c-0.963,10.027,1.214,20.106,6.229,28.843C134.452,170.505,144.346,176.885,155.503,178.793z"/>
		<path style="fill:#D3DFF2;" d="M165.316,176.318c-3.191,1.114-6.475,1.942-9.813,2.475c-11.157-1.908-21.051-8.288-27.392-17.664
			c-5.015-8.736-7.192-18.815-6.229-28.843c0.841-11.588,4.035-22.883,9.387-33.195c0.101-0.192,0.186-0.392,0.256-0.597
			l-0.085-0.085h0.085c4.106-7.888,9.306-15.156,15.445-21.589c6.347-6.486,13.354-12.292,20.907-17.323
			c2.987-1.28,5.973-2.475,8.96-3.584c-5.499,8.862-8.15,19.196-7.595,29.611c1.217,14.548,5.554,28.664,12.715,41.387
			c3.628,6.203,6.249,12.943,7.765,19.968C192.025,162.238,178.286,171.881,165.316,176.318z"/>
		<path style="fill:#D8625E;" d="M165.657,27.241c0-0.023-0.008-0.045-0.024-0.061c-0.016-0.016-0.038-0.025-0.061-0.024"/>
		<path style="fill:#D3DFF2;" d="M147.737,69.14v0.085c-9.218,5.024-17.786,11.156-25.515,18.261
			c-6.084,5.652-11.29,12.181-15.445,19.371h-0.085l-0.085-0.085c0.484-0.912,0.911-1.852,1.28-2.816
			c0-0.023,0.008-0.045,0.024-0.061c0.016-0.016,0.038-0.025,0.061-0.024c0.597-1.536,1.28-3.499,1.963-5.803
			c0.773-2.858,1.343-5.766,1.707-8.704c0.171-1.109,0.256-2.304,0.341-3.499c0.318-4.565,0.06-9.153-0.768-13.653
			c-0.05-0.574-0.135-1.144-0.256-1.707c0.023-0.022,0.036-0.053,0.036-0.085s-0.013-0.063-0.036-0.085
			c-0.171-0.853-0.341-1.621-0.512-2.475c-0.256-0.768-0.427-1.536-0.683-2.304c-0.073-0.436-0.188-0.865-0.341-1.28
			c-0.146-0.492-0.317-0.976-0.512-1.451c-0.256-0.853-0.597-1.707-0.939-2.56c-0.512-1.28-1.024-2.56-1.707-3.925
			c-0.597-1.28-1.28-2.645-2.048-4.011c0-0.171-0.085-0.256-0.256-0.341c-0.36-0.831-0.788-1.63-1.28-2.389v-0.085
			c-1.702-2.867-3.613-5.605-5.717-8.192l-0.085-0.085c4.588,0.168,9.154,0.71,13.653,1.621c8.899,1.449,17.39,4.765,24.917,9.728
			C141.369,56.481,145.722,62.345,147.737,69.14L147.737,69.14z"/>
		<path style="fill:#A2C0F5;" d="M192.879,50.878h0.085v0.085c-3.328,1.024-6.741,1.963-10.069,2.901
			c-2.048,0.597-4.011,1.28-6.059,2.048c-5.206,1.877-10.325,4.096-15.36,6.4c-4.693,2.133-9.301,4.437-13.739,6.912V69.14
			c-0.341-1.195-0.768-2.304-1.195-3.413v-0.085c-2.385-5.316-6.233-9.844-11.093-13.056c8.583-10.067,18.759-18.657,30.123-25.429
			c1.28-0.683,2.56-1.365,3.925-2.133c0.597-0.256,1.195-0.597,1.877-0.939l0.085-0.085c0.171-0.085,0.256-0.085,0.427-0.171
			c1.28-0.512,2.56-1.109,3.925-1.707c1.195-0.427,2.389-0.939,3.584-1.365c0.427-0.171,0.853-0.256,1.28-0.427
			c2.738-0.937,5.531-1.706,8.363-2.304c2.816-0.512,5.717-0.939,8.619-1.195h0.256c-5.636,8.269-8.035,18.322-6.741,28.245v0.171
			c0.267,1.428,0.667,2.828,1.195,4.181c0.008,0.25,0.098,0.49,0.256,0.683L192.879,50.878z"/>
		<path style="fill:#D3DFF2;" d="M170.606,57.449h0.085v0.085c-3.328,1.024-6.741,1.963-10.069,2.901
			c-2.048,0.597-4.011,1.28-6.059,2.048c-2.73,0.939-5.376,2.048-8.021,3.157c-2.385-5.316-6.233-9.844-11.093-13.056
			c8.583-10.067,18.759-18.657,30.123-25.429c1.28-0.683,2.56-1.365,3.925-2.133c0.597-0.256,1.195-0.597,1.877-0.939l0.085-0.085
			c0.171-0.085,0.256-0.085,0.427-0.171c1.195-0.171,2.304-0.341,3.499-0.427h0.256c-5.636,8.269-8.035,18.322-6.741,28.245v0.171
			c0.268,1.428,0.668,2.828,1.195,4.181c0.008,0.25,0.098,0.489,0.256,0.683L170.606,57.449z"/>
		<g>
			<path style="fill:#A2C0F5;" d="M372.562,176.318c-11.231,3.349-22.933,4.847-34.645,4.437c-3.499,0-7.253-0.085-10.923-0.341
				c7.888-0.295,15.698-1.674,23.211-4.096c12.971-4.437,26.709-14.08,24.405-29.44c-1.516-7.025-4.137-13.765-7.765-19.968
				c-7.161-12.723-11.497-26.838-12.715-41.387c-0.555-10.415,2.095-20.749,7.595-29.611c2.048-0.768,4.011-1.451,6.059-2.048
				c3.328-0.939,6.741-1.877,10.069-2.901v-0.085c0.853-0.256,1.621-0.512,2.475-0.768c4.097-0.563,8.092-1.713,11.861-3.413
				c-10.994,9.792-16.799,24.146-15.701,38.827c1.217,14.548,5.554,28.664,12.715,41.387c3.628,6.203,6.249,12.943,7.765,19.968
				C399.271,162.238,385.533,171.881,372.562,176.318z"/>
			<path style="fill:#A2C0F5;" d="M354.386,25.022c-1.365,0.768-2.645,1.451-3.925,2.133c-11.364,6.772-21.54,15.363-30.123,25.429
				c-2.867-2.053-5.959-3.77-9.216-5.12c-5.072-2.042-10.33-3.585-15.701-4.608c2.881-8.042,4.241-16.549,4.011-25.088
				c-0.168-3.484-1.593-6.788-4.011-9.301l-0.171-0.171c0,0,30.72-5.035,48.896,11.691c2.395,2.069,4.466,4.485,6.144,7.168
				C351.61,26.361,352.978,25.648,354.386,25.022z"/>
		</g>
		<path style="fill:#D3DFF2;" d="M331.602,33.47c-1.365,0.768-2.645,1.451-3.925,2.133c-5.863,3.448-11.404,7.418-16.554,11.861
			c-5.072-2.042-10.33-3.585-15.701-4.608c2.881-8.042,4.241-16.549,4.011-25.088c8.133,1.53,15.706,5.214,21.931,10.667
			c2.395,2.068,4.466,4.485,6.144,7.168C328.826,34.809,330.194,34.096,331.602,33.47z"/>
		<path style="fill:#FFFFFF;" d="M340.391,178.793c-4.418,0.881-8.897,1.423-13.397,1.621c-14.865,0.365-29.101-6.001-38.741-17.323
			c-4.973-7.652-7.171-16.779-6.229-25.856c0.876-10.501,4.083-20.675,9.387-29.781l0.256-0.512l-0.085-0.085h0.085
			c4.156-7.19,9.362-13.718,15.445-19.371c7.728-7.105,16.297-13.238,25.515-18.261c4.437-2.475,9.045-4.779,13.739-6.912
			c2.133-0.939,4.267-1.963,6.4-2.816c-7.553,5.031-14.56,10.836-20.907,17.323c-6.14,6.433-11.34,13.701-15.445,21.589h-0.085
			l0.085,0.085c-0.07,0.205-0.155,0.405-0.256,0.597c-5.352,10.312-8.546,21.607-9.387,33.195
			c-0.963,10.027,1.214,20.106,6.229,28.843C319.341,170.505,329.235,176.885,340.391,178.793L340.391,178.793z"/>
		<path style="fill:#D3DFF2;" d="M350.205,176.318c-3.191,1.114-6.475,1.942-9.813,2.475c-11.157-1.908-21.051-8.288-27.392-17.664
			c-5.015-8.736-7.192-18.815-6.229-28.843c0.841-11.588,4.035-22.883,9.387-33.195c0.101-0.192,0.186-0.392,0.256-0.597
			l-0.085-0.085h0.085c4.106-7.888,9.306-15.156,15.445-21.589c6.347-6.486,13.354-12.292,20.907-17.323
			c2.987-1.28,5.974-2.475,8.96-3.584c-5.499,8.862-8.15,19.196-7.595,29.611c1.217,14.548,5.554,28.664,12.715,41.387
			c3.628,6.203,6.249,12.943,7.765,19.968C376.914,162.238,363.175,171.881,350.205,176.318z"/>
		<path style="fill:#D8625E;" d="M350.546,27.241c0-0.023-0.008-0.045-0.024-0.061c-0.016-0.016-0.038-0.025-0.061-0.024"/>
		<path style="fill:#D3DFF2;" d="M332.626,69.14v0.085c-9.218,5.024-17.786,11.156-25.515,18.261
			c-6.084,5.652-11.29,12.181-15.445,19.371h-0.085l-0.085-0.085c0.484-0.912,0.911-1.852,1.28-2.816
			c0-0.023,0.008-0.045,0.024-0.061c0.016-0.016,0.038-0.025,0.061-0.024c0.597-1.536,1.28-3.499,1.963-5.803
			c0.773-2.858,1.343-5.766,1.707-8.704c0.171-1.109,0.256-2.304,0.341-3.499c0.318-4.565,0.06-9.153-0.768-13.653
			c-0.05-0.574-0.135-1.144-0.256-1.707c0.023-0.022,0.036-0.053,0.036-0.085s-0.013-0.063-0.036-0.085
			c-0.171-0.853-0.341-1.621-0.512-2.475c-0.256-0.768-0.427-1.536-0.683-2.304c-0.073-0.436-0.188-0.865-0.341-1.28
			c-0.146-0.492-0.317-0.976-0.512-1.451c-0.256-0.853-0.597-1.707-0.939-2.56c-0.512-1.28-1.024-2.56-1.707-3.925
			c-0.597-1.28-1.28-2.645-2.048-4.011c0-0.171-0.085-0.256-0.256-0.341c-0.359-0.831-0.788-1.63-1.28-2.389v-0.085
			c-1.702-2.867-3.613-5.605-5.717-8.192l-0.085-0.085c4.588,0.168,9.154,0.71,13.653,1.621c8.899,1.449,17.39,4.765,24.917,9.728
			C326.258,56.481,330.611,62.345,332.626,69.14L332.626,69.14z"/>
		<path style="fill:#A2C0F5;" d="M377.768,50.878h0.085v0.085c-3.328,1.024-6.741,1.963-10.069,2.901
			c-2.048,0.597-4.011,1.28-6.059,2.048c-5.205,1.877-10.325,4.096-15.36,6.4c-4.693,2.133-9.301,4.437-13.739,6.912V69.14
			c-0.341-1.195-0.768-2.304-1.195-3.413v-0.085c-2.385-5.316-6.233-9.844-11.093-13.056c8.583-10.067,18.759-18.657,30.123-25.429
			c1.28-0.683,2.56-1.365,3.925-2.133c0.597-0.256,1.195-0.597,1.877-0.939l0.085-0.085c0.171-0.085,0.256-0.085,0.427-0.171
			c1.28-0.512,2.56-1.109,3.925-1.707c1.194-0.427,2.389-0.939,3.584-1.365c0.427-0.171,0.853-0.256,1.28-0.427
			c2.738-0.937,5.531-1.706,8.363-2.304c2.816-0.512,5.717-0.939,8.619-1.195h0.256c-5.636,8.269-8.035,18.322-6.741,28.245v0.171
			c0.267,1.428,0.667,2.828,1.195,4.181c0.008,0.25,0.098,0.49,0.256,0.683L377.768,50.878z"/>
		<g>
			<path style="fill:#D3DFF2;" d="M355.495,57.449h0.085v0.085c-3.328,1.024-6.741,1.963-10.069,2.901
				c-2.048,0.597-4.011,1.28-6.059,2.048c-2.73,0.939-5.376,2.048-8.021,3.157c-2.385-5.316-6.233-9.844-11.093-13.056
				c8.583-10.067,18.759-18.657,30.123-25.429c1.28-0.683,2.56-1.365,3.925-2.133c0.597-0.256,1.195-0.597,1.877-0.939l0.085-0.085
				c0.171-0.085,0.256-0.085,0.427-0.171c1.195-0.171,2.304-0.341,3.499-0.427h0.256c-5.636,8.269-8.035,18.322-6.741,28.245v0.171
				c0.268,1.428,0.667,2.828,1.194,4.181c0.008,0.25,0.098,0.489,0.256,0.683L355.495,57.449z"/>
			<path style="fill:#D3DFF2;" d="M207.727,200.907c-18.575,7.126-39.619,0.81-51.2-15.367
				c-11.581,16.177-32.625,22.493-51.2,15.367c5.94-1.241,11.141-4.795,14.455-9.877c3.314-5.083,4.469-11.275,3.209-17.211
				l33.536,4.949l33.621-4.949c-1.264,5.923-0.122,12.106,3.175,17.187C196.62,196.087,201.802,199.649,207.727,200.907
				L207.727,200.907z"/>
			<path style="fill:#D3DFF2;" d="M391.448,200.907c-18.575,7.126-39.619,0.81-51.2-15.367
				c-11.581,16.177-32.625,22.493-51.2,15.367c5.939-1.241,11.141-4.795,14.455-9.877c3.314-5.083,4.469-11.275,3.209-17.211
				l33.536,4.949l33.621-4.949c-1.264,5.923-0.122,12.106,3.175,17.187C380.342,196.087,385.523,199.649,391.448,200.907z"/>
		</g>
	</g>
	<g>
		<path style="fill:#438CFF;" d="M503.467,375.462h-34.133c-0.022-18.842-15.291-34.112-34.133-34.133h-84.768
			c-0.837-10.328-0.432-20.719,1.205-30.951c0.516-0.691,0.923-1.456,1.209-2.27c0.137-0.393,11.535-32.542,37.969-44.785
			c-0.38,1.792-0.592,3.616-0.631,5.447c-0.308,18.292,13.2,38.329,33.804,39.004c0.746,0.025,1.487,0.038,2.225,0.038
			c9.472-0.249,18.872-1.729,27.962-4.4c2.371-0.625,4.767-1.333,7.175-2.05c5.726-1.974,11.664-3.266,17.692-3.85
			c3.853,0.019,7.69,0.516,11.421,1.479l11.342,2.283c0.459,0.071,0.923,0.103,1.387,0.097c0.094,0.003,0.181,0.057,0.276,0.057
			l0.146-0.027c0.932-0.015,1.854-0.184,2.731-0.5c0.153-0.055,0.29-0.137,0.44-0.202c0.772-0.329,1.491-0.772,2.132-1.314
			c0.096-0.08,0.216-0.106,0.309-0.191c0.046-0.043,0.062-0.104,0.107-0.147c0.093-0.089,0.207-0.147,0.297-0.241
			c0.595-0.642,1.087-1.372,1.458-2.165c0.087-0.179,0.145-0.356,0.219-0.539c0.34-0.818,0.55-1.685,0.621-2.569
			c0.009-0.117,0.043-0.225,0.047-0.341c0.034-0.777-0.039-1.555-0.217-2.312c-0.438-1.783-11.017-43.988-42.742-66.487
			c-29.425-20.858-52.312-10.642-58.379-5.179c-6.492,5.952-10.041,14.456-9.709,23.257c-14.24,2.419-27.399,9.138-37.707,19.256
			c1.853-18.255-0.392-36.694-6.572-53.971c7.726,4.318,16.429,6.585,25.28,6.587c6.482,0.052,12.911-1.165,18.925-3.583
			c3.27-1.393,5.335-4.666,5.183-8.218s-2.489-6.637-5.867-7.745c-11.858-3.891-12.644-11.357-12.229-15.04
			c12.275-6.202,19.433-19.351,17.979-33.027c-1.401-7.307-3.999-14.332-7.692-20.792l-0.912-1.808
			c-6.488-11.675-10.473-24.574-11.7-37.875c-0.876-11.961,3.765-23.665,12.6-31.775c3.525-2.805,4.263-7.868,1.684-11.562
			c-2.579-3.694-7.585-4.747-11.434-2.405c-1.135,0.545-2.345,0.919-3.591,1.108c-0.031-6.657,1.869-13.18,5.47-18.779
			c1.941-2.684,2.152-6.25,0.542-9.145c-1.61-2.895-4.75-4.596-8.055-4.364c-10.206,0.835-20.165,3.578-29.359,8.086
			C332.871-4.987,296.33,0.523,294.654,0.796c-3.285,0.53-5.962,2.921-6.859,6.125s0.151,6.637,2.684,8.795
			c2.012,1.715,1.619,10.055-0.493,18.579c-4.37-0.514-7.291-0.572-7.47-0.575c-3.301-0.025-6.327,1.837-7.792,4.796
			c-1.45,2.972-1.05,6.513,1.025,9.087c13.976,15.384,17.395,37.634,8.683,56.504c-0.127,0.225-0.125,0.475-0.229,0.705
			c-5.697,10.022-9.174,21.15-10.196,32.633c-1.109,11.039,1.609,22.123,7.7,31.396c3.784,5.326,8.745,9.707,14.498,12.803
			c-0.141,3.956-2.203,9.844-12.29,13.155c-3.376,1.109-5.711,4.194-5.862,7.744c-0.151,3.55,1.914,6.822,5.183,8.214
			c6.012,2.422,12.44,3.641,18.921,3.588c12.366-0.013,24.32-4.443,33.709-12.49c12.459,25.31,14.27,54.553,5.029,81.206
			c-6.629,18.667-9.279,38.514-7.778,58.267H166.454c-0.207-2.634-0.334-5.346-0.382-8.136l0.024-0.122
			c0-0.119-0.028-0.238-0.033-0.356c-0.296-14.94,2.134-29.809,7.17-43.877c9.339-26.241,9.228-54.919-0.311-81.088
			c7.73,4.323,16.438,6.594,25.295,6.596c6.482,0.052,12.911-1.165,18.925-3.583c3.27-1.393,5.335-4.666,5.183-8.218
			s-2.489-6.637-5.867-7.745c-11.812-3.876-12.635-11.293-12.231-14.991c12.403-6.088,19.625-19.331,18.027-33.055
			c-1.338-7.079-3.829-13.891-7.375-20.162l-1.217-2.433c-6.495-11.668-10.487-24.561-11.721-37.858
			c-0.853-11.976,3.776-23.691,12.583-31.85c3.543-2.827,4.257-7.932,1.626-11.623c-2.631-3.691-7.69-4.68-11.518-2.252
			c-1.095,0.532-2.265,0.89-3.469,1.064c-0.034-6.662,1.866-13.19,5.469-18.793c1.94-2.685,2.151-6.25,0.542-9.145
			c-1.629-2.876-4.756-4.57-8.054-4.362c-10.206,0.835-20.165,3.578-29.358,8.087C149.16-4.988,112.614,0.523,110.942,0.796
			c-3.285,0.53-5.962,2.921-6.858,6.125c-0.897,3.204,0.151,6.637,2.683,8.795c2.012,1.715,1.619,10.055-0.493,18.579
			c-4.37-0.514-7.291-0.572-7.47-0.575c-3.306-0.046-6.342,1.821-7.791,4.794c-1.449,2.972-1.05,6.514,1.024,9.09
			c13.976,15.383,17.395,37.634,8.683,56.504c-0.287,0.612-0.496,1.258-0.624,1.922c-0.118,0.303-0.219,0.613-0.302,0.928
			c-0.101,0.792-0.088,1.595,0.04,2.384c-0.008,1.079,0.335,2.132,0.976,3c0.125,0.29,0.266,0.573,0.423,0.847
			c0.458,0.586,0.991,1.11,1.587,1.556c0.225,0.251,0.466,0.488,0.721,0.708c0.057,0.037,0.123,0.036,0.18,0.071
			c0.093,0.057,0.144,0.154,0.241,0.208c0.793,0.431,1.65,0.732,2.539,0.891c0.187,0.038,0.367,0.045,0.555,0.07
			c0.36,0.069,0.723,0.115,1.089,0.138c0.462-0.022,0.921-0.082,1.373-0.18c0.21-0.033,0.415-0.033,0.621-0.081
			c0.89-0.217,1.739-0.577,2.514-1.065c0.825-0.572,1.564-1.26,2.194-2.041c0.151-0.193,0.367-0.303,0.503-0.512
			c4.275-6.503,9.131-12.604,14.508-18.229c10.935-9.851,23.417-17.836,36.946-23.633c6.562-3.127,13.327-5.806,20.25-8.021
			l1.646-0.471c-2.861,7.791-4.156,16.07-3.813,24.363c1.283,15.722,5.884,30.994,13.5,44.809l1.237,2.475
			c2.683,4.648,4.619,9.689,5.738,14.938c1.754,12.125-13.954,18.487-18.783,20.137c-10.357,3.009-21.132,4.326-31.908,3.9
			c-12.938,0.957-25.866-1.985-37.117-8.446c-3.769-2.828-9.118-2.065-11.946,1.704c-2.828,3.769-2.065,9.118,1.704,11.946
			c1.648,1.221,3.375,2.33,5.171,3.319c-0.17,3.956-2.271,9.771-12.279,13.056c-3.376,1.109-5.711,4.194-5.862,7.744
			s1.914,6.822,5.183,8.214c6.012,2.422,12.44,3.641,18.921,3.588c12.361-0.013,24.312-4.439,33.7-12.482
			c12.456,25.303,14.267,54.539,5.03,81.186c-1.982,5.639-3.594,11.402-4.824,17.252c-7.835-10.564-17.835-19.334-29.33-25.725
			c3.868-7.758,4.196-16.809,0.901-24.827c-0.538-1.121-13.679-27.479-54.963-20.196C30.658,236.333,3.058,269.967,1.9,271.392
			c-0.483,0.607-0.881,1.278-1.182,1.993c-0.053,0.122-0.07,0.251-0.118,0.375c-0.301,0.807-0.476,1.656-0.52,2.517
			c-0.013,0.218-0.039,0.424-0.035,0.644c0.001,0.864,0.135,1.722,0.396,2.545c0.038,0.115,0.111,0.209,0.154,0.321
			c0.027,0.071,0.013,0.146,0.042,0.217c0.053,0.129,0.165,0.208,0.223,0.333c0.374,0.816,0.877,1.568,1.488,2.225
			c0.098,0.104,0.171,0.226,0.273,0.324c0.698,0.659,1.502,1.195,2.379,1.584c0.201,0.092,0.398,0.16,0.606,0.236
			c0.279,0.127,0.565,0.238,0.856,0.333l11.238,2.788c3.781,0.727,7.458,1.915,10.95,3.538c5.198,3.105,10.011,6.811,14.342,11.042
			c1.875,1.675,3.738,3.342,5.612,4.921c7.608,6.828,16.175,12.503,25.429,16.846c3.942,1.718,8.196,2.604,12.496,2.6
			c15.068-0.626,28.5-9.68,34.733-23.413c1.167-2.547,1.947-5.254,2.315-8.031c12.993,9.222,22.069,22.969,25.445,38.54
			c0.05,2.533,0.168,5.018,0.336,7.457H76.8c-18.842,0.022-34.112,15.291-34.133,34.133H8.533c-4.713,0-8.533,3.82-8.533,8.533
			v34.133c0,4.713,3.821,8.533,8.533,8.533h0.81l7.765,77.65c0.437,4.362,4.108,7.683,8.491,7.683h460.8
			c4.384,0,8.055-3.321,8.492-7.683l7.765-77.65h0.81c4.713,0,8.533-3.821,8.533-8.533v-34.133
			C512,379.283,508.18,375.462,503.467,375.462z M456.488,285.004c-2.237,0.663-4.458,1.325-6.662,1.908
			c-8.203,2.462-16.715,3.743-25.279,3.804c-10.42-1.794-17.851-11.099-17.296-21.658c0.071-4.291,1.501-6.157,6.481-10.534
			c22.232,1.616,43.596,9.299,61.764,22.215C469.039,281.554,462.674,282.983,456.488,285.004L456.488,285.004z M459.141,238.321
			c9.447,7.05,17.315,15.997,23.1,26.268c-19.177-12.904-41.289-20.784-64.305-22.917c-0.045-3.402,1.196-6.696,3.476-9.222
			C421.988,232,435.821,221.771,459.141,238.321L459.141,238.321z M359.377,189.094c4.084-0.535,8.126-1.352,12.097-2.447
			c0.598,3.577,1.872,7.007,3.755,10.106C369.371,195.617,363.908,192.977,359.377,189.094z M368.183,46.057l-2.154,0.625
			c-7.725,2.401-15.267,5.356-22.567,8.842c-2.173,0.983-4.147,2.04-6.215,3.062c-1.216-1.965-2.611-3.814-4.167-5.522
			c6.616-6.767,14.087-12.641,22.223-17.473l0.142-0.072c0.101-0.059,0.217-0.06,0.317-0.124l0.081-0.079
			c4.217-2.388,8.65-4.373,13.24-5.929C367.695,34.832,367.389,40.496,368.183,46.057L368.183,46.057z M306.085,78.653
			c-0.543-8.772-2.779-17.356-6.585-25.278c5.924,1.377,11.546,3.827,16.587,7.229c2.441,1.664,4.555,3.763,6.235,6.193
			C316.627,70.346,311.2,74.309,306.085,78.653L306.085,78.653z M338.136,26.425c-6.762,4.817-13.055,10.261-18.795,16.259
			c-4.026-2.06-8.242-3.728-12.588-4.981c1.802-6.711,2.405-13.687,1.781-20.608C319.151,16.916,329.54,20.19,338.136,26.425
			L338.136,26.425z M291.025,138.775c1.765-16.965,9.77-32.669,22.463-44.062c10.972-9.836,23.473-17.82,37.013-23.637
			c6.564-3.142,13.342-5.816,20.284-8l1.567-0.454c-2.867,7.771-4.154,16.037-3.783,24.312c1.278,15.739,5.879,31.028,13.5,44.858
			l0.937,1.858c2.808,4.82,4.841,10.052,6.025,15.504c1.746,12.212-13.938,18.538-18.779,20.187c-10.368,3-21.152,4.31-31.937,3.879
			c-15.254,0-33.883-1.604-42.596-14.129C291.881,153.053,290.225,145.884,291.025,138.775L291.025,138.775z M312.382,187.716
			c3.826,0.889,7.704,1.536,11.611,1.937c-4.384,3.578-9.583,6.018-15.135,7.105C310.545,193.97,311.737,190.91,312.382,187.716
			L312.382,187.716z M154.438,26.418c-6.768,4.819-13.065,10.265-18.81,16.267c-4.027-2.061-8.243-3.729-12.589-4.981
			c1.806-6.723,2.408-13.712,1.778-20.645C135.449,16.851,145.855,20.139,154.438,26.418z M122.377,78.717
			c-0.536-8.794-2.774-17.401-6.589-25.342c5.924,1.377,11.546,3.828,16.588,7.229c2.447,1.668,4.565,3.774,6.246,6.212
			C132.918,70.373,127.487,74.351,122.377,78.717L122.377,78.717z M159.779,55.537c-2.181,0.985-4.159,2.044-6.232,3.068
			c-1.218-1.972-2.617-3.827-4.178-5.541c6.617-6.768,14.091-12.642,22.231-17.473l0.169-0.087c0.09-0.053,0.193-0.053,0.281-0.109
			l0.073-0.07c4.219-2.393,8.654-4.381,13.248-5.938c-1.389,5.444-1.695,11.109-0.901,16.671l-2.17,0.62
			C174.598,49.11,167.073,52.07,159.779,55.537L159.779,55.537z M71.933,246.362c28.158-5.004,36.296,10.175,36.563,10.696
			c1.025,3.286,0.755,6.84-0.754,9.934c-21.713-7.904-45.064-10.228-67.91-6.759C49.449,253.423,60.383,248.698,71.933,246.362
			L71.933,246.362z M105.712,296.329c-4.019,9.775-14.706,15.007-24.892,12.188c-7.721-3.709-14.87-8.506-21.229-14.246
			c-1.746-1.471-3.475-3.021-5.217-4.579c-4.744-4.485-9.905-8.506-15.414-12.008c21.966-3.923,44.588-1.728,65.39,6.345
			C106.989,290.119,107.484,292.414,105.712,296.329z M187.76,186.641c0.598,3.579,1.873,7.012,3.757,10.113
			c-5.861-1.137-11.325-3.778-15.858-7.664C179.744,188.552,183.787,187.734,187.76,186.641L187.76,186.641z M128.666,187.734
			c3.844,0.874,7.74,1.502,11.664,1.882c-4.394,3.598-9.61,6.052-15.183,7.142C126.829,193.974,128.02,190.922,128.666,187.734
			L128.666,187.734z M76.8,358.396h358.4c9.422,0.009,17.057,7.645,17.067,17.067H59.733
			C59.743,366.041,67.378,358.405,76.8,358.396L76.8,358.396z M17.067,392.529h477.867v17.067H17.067V392.529z M54.733,494.929
			L123,426.662h44.133l-68.267,68.267H54.733z M98.867,426.662l-65.793,65.793l-6.577-65.793H98.867z M478.679,494.929H123
			l68.267-68.267h294.237L478.679,494.929z"/>
		<path style="fill:#438CFF;" d="M107.192,137.812c-0.309-3.438-2.659-6.35-5.953-7.38c-3.294-1.03-6.884,0.026-9.096,2.676
			s-2.61,6.37-1.009,9.428c1.601,3.058,4.887,4.849,8.324,4.54c2.254-0.203,4.335-1.292,5.786-3.03S107.395,140.066,107.192,137.812
			L107.192,137.812z"/>
	</g>
</g>
<g>
</g>
<g>
</g>
<g>
</g>
<g>
</g>
<g>
</g>
<g>
</g>
<g>
</g>
<g>
</g>
<g>
</g>
<g>
</g>
<g>
</g>
<g>
</g>
<g>
</g>
<g>
</g>
<g>
</g>
</svg>
