<?xml version="1.0" encoding="iso-8859-1"?>
<!-- Generator: Adobe Illustrator 19.0.0, SVG Export Plug-In . SVG Version: 6.00 Build 0)  -->
<svg version="1.1" id="Capa_1" xmlns="http://www.w3.org/2000/svg" xmlns:xlink="http://www.w3.org/1999/xlink" x="0px" y="0px"
	 viewBox="0 0 511.991 511.991" style="enable-background:new 0 0 511.991 511.991;" xml:space="preserve">
<g>
	<g transform="translate(1 1)">
		<g>
			<path style="fill:#D3DFF2;" d="M204.258,282.725c2.507,5.077,2.539,11.025,0.085,16.128
				c-5.915,14.044-21.612,21.206-36.096,16.469c-8.479-4.017-16.327-9.249-23.296-15.531c-6.55-6.367-13.726-12.056-21.419-16.981
				c-4.96-2.247-10.175-3.881-15.531-4.864c-0.341-0.085-0.768-0.171-1.109-0.256c-2.56-0.683-5.035-1.28-7.509-1.963
				c0,0,2.133-2.645,6.144-6.656c15.014-15.943,34.396-27.104,55.722-32.085c35.584-6.315,45.824,15.36,45.824,15.445
				c2.525,6.905,1.538,14.605-2.645,20.651c-0.342,0.532-0.712,1.044-1.109,1.536c-0.361,0.42-0.676,0.878-0.939,1.365
				c-0.106,0.212-0.165,0.445-0.171,0.683c-0.024,0.707,0.123,1.409,0.427,2.048C203.234,280.165,203.831,281.445,204.258,282.725z"
				/>
			<path style="fill:#D3DFF2;" d="M410.594,291.941c-2.56-0.512-5.035-1.024-7.595-1.621h-0.085
				c-0.347-0.015-0.691-0.072-1.024-0.171c-5.272-1.349-10.686-2.065-16.128-2.133c-9.07,1.082-17.997,3.142-26.625,6.144
				c-9.003,2.677-18.341,4.057-27.733,4.096c-15.102-1.988-26.201-15.158-25.6-30.379c0.041-5.621,2.572-10.934,6.913-14.507
				c0.939-0.939,2.048-1.963,3.242-2.987c0.607-0.37,1.061-0.945,1.28-1.621c0.07-0.22,0.099-0.452,0.085-0.683
				c-0.001-0.55-0.088-1.097-0.256-1.621c-0.155-0.646-0.269-1.302-0.341-1.963c-1.157-7.233,1.26-14.579,6.485-19.712
				c0,0,18.517-15.275,47.957,5.547c17.176,13.636,29.941,32.042,36.693,52.907C409.74,288.527,410.594,291.941,410.594,291.941z"/>
		</g>
		<polygon style="fill:#A2C0F5;" points="308.194,408.591 308.194,417.125 302.502,502.458 245.619,502.458 239.927,417.125 
			239.927,408.591 		"/>
		<polygon style="fill:#FFFFFF;" points="274.06,408.591 274.06,417.125 268.368,502.458 211.485,502.458 205.794,417.125 
			205.794,408.591 		"/>
		<polygon style="fill:#D3DFF2;" points="282.594,408.591 282.594,417.125 281.996,426.255 276.876,502.458 237.111,502.458 
			235.148,473.103 233.527,448.783 231.394,417.125 231.394,408.591 		"/>
		<path style="fill:#A2C0F5;" d="M222.86,382.991h102.4c4.713,0,8.533,3.82,8.533,8.533v17.067c0,4.713-3.82,8.533-8.533,8.533
			h-102.4c-4.713,0-8.533-3.821-8.533-8.533v-17.067C214.327,386.812,218.147,382.991,222.86,382.991z"/>
		<path style="fill:#FFFFFF;" d="M188.727,382.991h102.4c4.713,0,8.533,3.82,8.533,8.533v17.067c0,4.713-3.821,8.533-8.533,8.533
			h-102.4c-4.713,0-8.533-3.821-8.533-8.533v-17.067C180.194,386.812,184.014,382.991,188.727,382.991z"/>
		<path style="fill:#D3DFF2;" d="M214.327,382.991h85.333c4.713,0,8.533,3.82,8.533,8.533v17.067c0,4.713-3.82,8.533-8.533,8.533
			h-85.333c-4.713,0-8.533-3.821-8.533-8.533v-17.067C205.794,386.812,209.614,382.991,214.327,382.991z"/>
		<polygon style="fill:#FFFFFF;" points="235.148,473.103 213.559,494.693 211.17,470.885 233.527,448.783 		"/>
		<path style="fill:#D3DFF2;" d="M300.343,197.647c-18.523,6.996-39.44,0.826-51.2-15.104c-11.76,15.93-32.677,22.1-51.2,15.104
			c22.784-7.509,17.664-26.624,17.664-26.624l33.536,4.864l33.621-4.864c-1.254,5.867-0.098,11.991,3.207,16.997
			C289.277,193.027,294.455,196.496,300.343,197.647L300.343,197.647z"/>
		<g>
			<path style="fill:#A2C0F5;" d="M280.29,176.314c-11.231,3.349-22.933,4.847-34.645,4.437c-3.499,0-7.253-0.085-10.923-0.341
				c7.888-0.295,15.698-1.674,23.211-4.096c12.971-4.437,26.709-14.08,24.405-29.44c-1.516-7.025-4.137-13.765-7.765-19.968
				c-7.161-12.723-11.497-26.838-12.715-41.387c-0.555-10.415,2.095-20.749,7.595-29.611c2.048-0.768,4.011-1.451,6.059-2.048
				c3.328-0.939,6.741-1.877,10.069-2.901v-0.085c0.853-0.256,1.621-0.512,2.475-0.768c4.097-0.563,8.092-1.713,11.861-3.413
				c-10.994,9.792-16.799,24.146-15.701,38.827c1.217,14.548,5.554,28.664,12.715,41.387c3.628,6.203,6.249,12.943,7.765,19.968
				C306.999,162.234,293.26,171.877,280.29,176.314z"/>
			<path style="fill:#A2C0F5;" d="M262.114,25.018c-1.365,0.768-2.645,1.451-3.925,2.133c-11.364,6.772-21.54,15.363-30.123,25.429
				c-2.867-2.053-5.959-3.77-9.216-5.12c-5.072-2.042-10.33-3.585-15.701-4.608c2.881-8.042,4.241-16.549,4.011-25.088
				c-0.168-3.484-1.593-6.788-4.011-9.301l-0.171-0.171c0,0,30.72-5.035,48.896,11.691c2.395,2.069,4.466,4.485,6.144,7.168
				C259.337,26.356,260.705,25.644,262.114,25.018L262.114,25.018z"/>
		</g>
		<path style="fill:#D3DFF2;" d="M239.33,33.466c-1.365,0.768-2.645,1.451-3.925,2.133c-5.864,3.448-11.404,7.418-16.555,11.861
			c-5.072-2.042-10.33-3.585-15.701-4.608c2.881-8.042,4.241-16.549,4.011-25.088c8.133,1.53,15.706,5.214,21.931,10.667
			c2.395,2.068,4.466,4.485,6.144,7.168C236.554,34.804,237.922,34.092,239.33,33.466L239.33,33.466z"/>
		<path style="fill:#FFFFFF;" d="M248.119,178.789c-4.418,0.881-8.897,1.423-13.397,1.621c-14.866,0.365-29.101-6.001-38.741-17.323
			c-4.973-7.652-7.172-16.779-6.229-25.856c0.876-10.501,4.083-20.675,9.387-29.781l0.256-0.512l-0.085-0.085h0.085
			c4.156-7.19,9.362-13.718,15.445-19.371c7.728-7.105,16.297-13.238,25.515-18.261c4.437-2.475,9.045-4.779,13.739-6.912
			c2.133-0.939,4.267-1.963,6.4-2.816c-7.553,5.031-14.56,10.836-20.907,17.323c-6.14,6.433-11.34,13.701-15.445,21.589h-0.085
			l0.085,0.085c-0.07,0.205-0.155,0.405-0.256,0.597c-5.352,10.312-8.546,21.607-9.387,33.195
			c-0.963,10.027,1.214,20.106,6.229,28.843C227.068,170.5,236.962,176.881,248.119,178.789z"/>
		<path style="fill:#D3DFF2;" d="M257.932,176.314c-3.191,1.114-6.475,1.942-9.813,2.475c-11.157-1.908-21.051-8.288-27.392-17.664
			c-5.015-8.736-7.192-18.815-6.229-28.843c0.841-11.588,4.035-22.883,9.387-33.195c0.101-0.192,0.186-0.392,0.256-0.597
			l-0.085-0.085h0.085c4.106-7.888,9.306-15.156,15.445-21.589c6.347-6.486,13.354-12.292,20.907-17.323
			c2.987-1.28,5.974-2.475,8.96-3.584c-5.499,8.862-8.15,19.196-7.595,29.611c1.217,14.548,5.554,28.664,12.715,41.387
			c3.628,6.203,6.249,12.943,7.765,19.968C284.642,162.234,270.903,171.877,257.932,176.314z"/>
		<path style="fill:#D8625E;" d="M258.274,27.237c0.001-0.023-0.008-0.045-0.024-0.061s-0.038-0.025-0.061-0.024"/>
		<path style="fill:#D3DFF2;" d="M240.354,69.135v0.085c-9.218,5.024-17.786,11.156-25.515,18.261
			c-6.084,5.652-11.29,12.181-15.445,19.371h-0.085l-0.085-0.085c0.484-0.912,0.911-1.852,1.28-2.816
			c0-0.023,0.008-0.045,0.024-0.061c0.016-0.016,0.038-0.025,0.061-0.024c0.597-1.536,1.28-3.499,1.963-5.803
			c0.773-2.858,1.343-5.766,1.707-8.704c0.171-1.109,0.256-2.304,0.341-3.499c0.318-4.565,0.06-9.152-0.768-13.653
			c-0.05-0.574-0.135-1.144-0.256-1.707c0.023-0.022,0.036-0.053,0.036-0.085s-0.013-0.063-0.036-0.085
			c-0.171-0.853-0.341-1.621-0.512-2.475c-0.256-0.768-0.427-1.536-0.683-2.304c-0.073-0.436-0.188-0.865-0.341-1.28
			c-0.146-0.492-0.317-0.976-0.512-1.451c-0.256-0.853-0.597-1.707-0.939-2.56c-0.512-1.28-1.024-2.56-1.707-3.925
			c-0.597-1.28-1.28-2.645-2.048-4.011c0-0.171-0.085-0.256-0.256-0.341c-0.36-0.831-0.788-1.63-1.28-2.389v-0.085
			c-1.702-2.867-3.613-5.605-5.717-8.192l-0.085-0.085c4.588,0.168,9.154,0.71,13.653,1.621c8.899,1.449,17.39,4.765,24.917,9.728
			C233.986,56.477,238.338,62.34,240.354,69.135L240.354,69.135z"/>
		<path style="fill:#A2C0F5;" d="M285.495,50.874h0.085v0.085c-3.328,1.024-6.741,1.963-10.069,2.901
			c-2.048,0.597-4.011,1.28-6.059,2.048c-5.205,1.877-10.325,4.096-15.36,6.4c-4.693,2.133-9.301,4.437-13.739,6.912v-0.085
			c-0.341-1.195-0.768-2.304-1.195-3.413v-0.085c-2.385-5.316-6.233-9.844-11.093-13.056c8.583-10.067,18.759-18.657,30.123-25.429
			c1.28-0.683,2.56-1.365,3.925-2.133c0.597-0.256,1.195-0.597,1.877-0.939l0.085-0.085c0.171-0.085,0.256-0.085,0.427-0.171
			c1.28-0.512,2.56-1.109,3.925-1.707c1.195-0.427,2.389-0.939,3.584-1.365c0.427-0.171,0.853-0.256,1.28-0.427
			c2.738-0.937,5.531-1.706,8.363-2.304c2.816-0.512,5.717-0.939,8.619-1.195h0.256c-5.636,8.269-8.035,18.322-6.741,28.245v0.171
			c0.267,1.428,0.667,2.828,1.195,4.181c0.008,0.25,0.098,0.49,0.256,0.683L285.495,50.874z"/>
		<path style="fill:#D3DFF2;" d="M263.223,57.445h0.085v0.085c-3.328,1.024-6.741,1.963-10.069,2.901
			c-2.048,0.597-4.011,1.28-6.059,2.048c-2.73,0.939-5.376,2.048-8.021,3.157c-2.385-5.316-6.233-9.844-11.093-13.056
			c8.583-10.067,18.759-18.657,30.123-25.429c1.28-0.683,2.56-1.365,3.925-2.133c0.597-0.256,1.195-0.597,1.877-0.939l0.085-0.085
			c0.171-0.085,0.256-0.085,0.427-0.171c1.195-0.171,2.304-0.341,3.499-0.427h0.256c-5.636,8.269-8.035,18.322-6.741,28.245v0.171
			c0.268,1.428,0.667,2.828,1.194,4.181c0.008,0.25,0.098,0.489,0.256,0.683L263.223,57.445z"/>
	</g>
	<g>
		<path style="fill:#438CFF;" d="M419.885,290.879c-0.438-1.783-11.017-43.988-42.742-66.487
			c-29.425-20.858-52.308-10.642-58.379-5.179c-6.492,5.952-10.041,14.456-9.709,23.257c-14.24,2.419-27.399,9.139-37.707,19.257
			c1.853-18.255-0.392-36.694-6.572-53.971c7.726,4.318,16.429,6.585,25.28,6.587c6.482,0.052,12.911-1.165,18.925-3.583
			c3.27-1.393,5.335-4.666,5.183-8.218s-2.489-6.637-5.867-7.745c-11.833-3.883-12.639-11.322-12.23-15.014
			c12.381-6.097,19.584-19.325,17.988-33.033c-1.338-7.079-3.829-13.891-7.375-20.162l-1.217-2.433
			c-6.497-11.667-10.489-24.561-11.721-37.858c-0.853-11.976,3.776-23.691,12.583-31.85c3.543-2.827,4.257-7.932,1.626-11.623
			c-2.631-3.691-7.69-4.68-11.518-2.252c-1.082,0.527-2.24,0.884-3.432,1.056c-0.033-6.659,1.867-13.185,5.469-18.785
			c1.94-2.685,2.151-6.25,0.542-9.145c-1.629-2.876-4.756-4.57-8.054-4.362c-10.206,0.835-20.165,3.578-29.36,8.087
			C240.995-4.992,204.453,0.518,202.781,0.791c-3.285,0.53-5.962,2.921-6.859,6.125c-0.897,3.204,0.151,6.637,2.684,8.795
			c2.012,1.715,1.619,10.055-0.493,18.579c-4.37-0.514-7.291-0.572-7.47-0.575c-3.314-0.071-6.362,1.805-7.792,4.796
			c-1.45,2.972-1.05,6.513,1.025,9.087c13.976,15.384,17.395,37.634,8.683,56.504c-0.188,0.441-0.337,0.898-0.444,1.365
			c-0.225,0.514-0.399,1.048-0.518,1.596c-0.047,0.55-0.038,1.104,0.026,1.653c-0.086,1.09,0.183,2.179,0.767,3.104
			c0.192,0.501,0.432,0.982,0.718,1.437c0.364,0.437,0.77,0.837,1.214,1.193c0.307,0.36,0.646,0.693,1.011,0.994
			c0.081,0.053,0.176,0.053,0.257,0.102c0.082,0.049,0.126,0.133,0.209,0.181c0.768,0.419,1.596,0.716,2.456,0.881
			c0.222,0.046,0.435,0.055,0.659,0.083c0.353,0.068,0.71,0.113,1.068,0.136c0.451-0.023,0.899-0.081,1.34-0.175
			c0.204-0.033,0.401-0.032,0.602-0.079c0.926-0.22,1.809-0.595,2.612-1.107c0.193-0.122,0.356-0.273,0.54-0.411
			c0.669-0.504,1.259-1.104,1.751-1.782c0.091-0.124,0.23-0.19,0.315-0.32c4.278-6.504,9.137-12.607,14.517-18.233
			c10.935-9.851,23.417-17.836,36.946-23.633c6.561-3.128,13.326-5.808,20.25-8.021l1.646-0.471
			c-2.861,7.79-4.156,16.067-3.813,24.358c1.281,15.724,5.882,30.997,13.5,44.812l1.237,2.475c2.682,4.647,4.618,9.686,5.737,14.933
			c1.75,12.129-13.954,18.492-18.783,20.142c-10.357,3.009-21.132,4.326-31.908,3.9c-12.938,0.956-25.866-1.985-37.117-8.446
			c-3.769-2.828-9.118-2.065-11.946,1.704c-2.828,3.769-2.065,9.118,1.704,11.946c1.658,1.23,3.397,2.346,5.205,3.342
			c-0.177,3.955-2.287,9.754-12.277,13.033c-3.376,1.109-5.711,4.194-5.862,7.744c-0.151,3.55,1.914,6.822,5.183,8.214
			c6.012,2.422,12.44,3.641,18.921,3.587c12.366-0.013,24.32-4.443,33.709-12.49c12.459,25.311,14.27,54.556,5.029,81.21
			c-2.001,5.602-3.639,11.328-4.903,17.141c-7.826-10.521-17.8-19.258-29.261-25.63c3.868-7.758,4.196-16.809,0.901-24.827
			c-0.538-1.121-13.675-27.479-54.963-20.196c-38.3,6.779-65.9,40.412-67.058,41.837c-0.483,0.607-0.881,1.278-1.182,1.993
			c-0.053,0.122-0.07,0.251-0.118,0.375c-0.301,0.807-0.476,1.656-0.52,2.517c-0.013,0.218-0.039,0.424-0.035,0.644
			c0.001,0.864,0.135,1.722,0.396,2.545c0.038,0.115,0.111,0.209,0.154,0.321c0.027,0.071,0.013,0.146,0.042,0.217
			c0.053,0.129,0.165,0.208,0.223,0.333c0.374,0.816,0.877,1.568,1.488,2.225c0.098,0.104,0.171,0.226,0.273,0.324
			c0.698,0.659,1.502,1.195,2.379,1.584c0.201,0.092,0.398,0.16,0.606,0.236c0.279,0.127,0.564,0.238,0.856,0.333l11.238,2.787
			c3.781,0.727,7.458,1.915,10.95,3.538c5.198,3.105,10.013,6.811,14.344,11.043c1.875,1.675,3.738,3.342,5.613,4.921
			c7.608,6.828,16.175,12.503,25.429,16.846c3.942,1.718,8.196,2.604,12.496,2.6c15.068-0.626,28.5-9.68,34.733-23.413
			c1.167-2.546,1.947-5.253,2.315-8.029c13.019,9.239,22.104,23.019,25.464,38.625c0.317,14.052,2.459,28.004,6.371,41.504h-57.526
			c-9.422,0.009-17.057,7.645-17.067,17.067v17.067c0.009,9.422,7.645,17.057,17.067,17.067h9.343l7.765,77.65
			c0.437,4.362,4.108,7.683,8.491,7.683h85.333c4.384,0,8.055-3.321,8.492-7.683l7.765-77.65h9.343
			c9.422-0.009,17.057-7.645,17.067-17.067v-17.067c-0.009-9.422-7.645-17.057-17.067-17.067h-61.163
			c-4.47-13.686-6.887-27.959-7.17-42.353l0.008-0.038l-0.01-0.114c-0.128-7.448,0.394-14.892,1.56-22.249
			c0.647-0.771,1.151-1.651,1.488-2.6c0.137-0.393,11.535-32.542,37.969-44.785c-0.38,1.792-0.592,3.616-0.631,5.447
			c-0.308,18.292,13.2,38.329,33.804,39.004c0.746,0.025,1.487,0.038,2.225,0.038c9.472-0.249,18.872-1.729,27.962-4.4
			c2.371-0.625,4.767-1.333,7.175-2.05c5.726-1.974,11.664-3.266,17.692-3.85c3.854,0.018,7.69,0.515,11.421,1.479l11.342,2.283
			c0.459,0.071,0.923,0.103,1.387,0.097c0.094,0.003,0.181,0.057,0.276,0.057l0.146-0.027c0.932-0.015,1.854-0.184,2.731-0.5
			c0.153-0.055,0.29-0.137,0.44-0.202c0.772-0.329,1.491-0.772,2.132-1.314c0.096-0.08,0.216-0.106,0.309-0.191
			c0.046-0.043,0.062-0.104,0.107-0.147c0.093-0.089,0.207-0.147,0.297-0.241c0.595-0.641,1.087-1.372,1.458-2.165
			c0.087-0.179,0.145-0.356,0.219-0.539c0.34-0.818,0.55-1.685,0.621-2.569c0.009-0.117,0.043-0.225,0.047-0.341
			C420.135,292.414,420.062,291.636,419.885,290.879z M246.262,26.421c-6.762,4.817-13.055,10.261-18.795,16.259
			c-4.026-2.06-8.242-3.728-12.588-4.981c1.802-6.711,2.405-13.687,1.781-20.608C227.278,16.912,237.666,20.186,246.262,26.421
			L246.262,26.421z M214.214,78.683c-0.54-8.784-2.777-17.38-6.587-25.313c5.924,1.377,11.546,3.827,16.587,7.229
			c2.442,1.665,4.557,3.765,6.237,6.196C224.751,70.349,219.323,74.322,214.214,78.683z M251.581,55.533
			c-2.171,0.981-4.139,2.035-6.203,3.054c-1.216-1.967-2.613-3.817-4.171-5.527c6.616-6.767,14.087-12.641,22.223-17.473
			l0.143-0.072c0.101-0.06,0.217-0.06,0.316-0.123l0.081-0.079c4.217-2.388,8.65-4.373,13.24-5.929
			c-1.388,5.441-1.694,11.102-0.902,16.661l-2.206,0.63C266.4,49.106,258.875,52.065,251.581,55.533L251.581,55.533z
			 M163.773,246.358c28.162-5.004,36.296,10.175,36.562,10.696c1.025,3.286,0.755,6.84-0.754,9.934
			c-21.714-7.905-45.065-10.229-67.911-6.759C141.288,253.418,152.222,248.694,163.773,246.358L163.773,246.358z M197.552,296.325
			c-4.019,9.775-14.706,15.007-24.892,12.188c-7.721-3.709-14.87-8.506-21.229-14.246c-1.746-1.471-3.475-3.021-5.217-4.579
			c-4.744-4.485-9.905-8.506-15.414-12.009c21.966-3.923,44.589-1.728,65.391,6.346C198.828,290.114,199.324,292.41,197.552,296.325
			z M216.223,426.658h29.705l-27.004,27.004L216.223,426.658z M292.94,494.925h-69.892l-1.94-19.4
			c0.077-0.071,0.178-0.093,0.252-0.167l48.7-48.7h29.705L292.94,494.925z M326.273,409.591H189.727v-17.067h69.265l0.027,0.004
			l0.023-0.004h67.219L326.273,409.591z M279.597,186.627c0.597,3.583,1.873,7.019,3.759,10.123
			c-5.863-1.138-11.331-3.78-15.865-7.668C271.578,188.542,275.623,187.722,279.597,186.627z M220.503,187.738
			c3.843,0.872,7.738,1.499,11.661,1.877c-4.393,3.596-9.608,6.049-15.179,7.139C218.667,193.973,219.857,190.923,220.503,187.738
			L220.503,187.738z M367.268,238.316c9.447,7.05,17.315,15.997,23.1,26.268c-19.177-12.904-41.289-20.784-64.305-22.917
			c-0.045-3.402,1.196-6.696,3.476-9.222C330.114,231.996,343.948,221.766,367.268,238.316L367.268,238.316z M364.614,285
			c-2.237,0.663-4.458,1.325-6.662,1.908c-8.203,2.462-16.715,3.743-25.279,3.804c-10.42-1.794-17.851-11.099-17.296-21.658
			c0.071-4.291,1.5-6.157,6.481-10.534c22.232,1.616,43.596,9.299,61.764,22.215C377.165,281.55,370.801,282.978,364.614,285
			L364.614,285z"/>
		<path style="fill:#438CFF;" d="M198.994,137.808c-0.309-3.438-2.659-6.35-5.953-7.38c-3.294-1.03-6.884,0.026-9.096,2.676
			s-2.61,6.37-1.009,9.428c1.601,3.058,4.887,4.849,8.324,4.54C195.953,146.649,199.416,142.502,198.994,137.808L198.994,137.808z"
			/>
	</g>
</g>
<g>
</g>
<g>
</g>
<g>
</g>
<g>
</g>
<g>
</g>
<g>
</g>
<g>
</g>
<g>
</g>
<g>
</g>
<g>
</g>
<g>
</g>
<g>
</g>
<g>
</g>
<g>
</g>
<g>
</g>
</svg>
