<?xml version="1.0" encoding="iso-8859-1"?>
<!-- Generator: Adobe Illustrator 19.0.0, SVG Export Plug-In . SVG Version: 6.00 Build 0)  -->
<svg version="1.1" id="Capa_1" xmlns="http://www.w3.org/2000/svg" xmlns:xlink="http://www.w3.org/1999/xlink" x="0px" y="0px"
	 viewBox="0 0 512 512" style="enable-background:new 0 0 512 512;" xml:space="preserve">
<g>
	<g transform="translate(1 8)">
		<rect x="237.933" y="454.421" style="fill:#D3DFF2;" width="34.133" height="41.054"/>
		<path style="fill:#A2C0F5;" d="M383,239.467c0,0-68.267,68.267-68.267,145.067v26.88c-0.046,9.25-5.066,17.76-13.141,22.272
			c-7.84,4.321-14.93,9.882-20.992,16.469c-5.165,5.302-8.202,12.317-8.533,19.712H255c-0.332-7.395-3.368-14.41-8.533-19.712
			c-6.062-6.587-13.152-12.149-20.992-16.469c-8.075-4.512-13.096-13.022-13.141-22.272v-26.88
			c0-76.8-68.267-145.067-68.267-145.067v-6.756l240,0.711L383,239.467z"/>
		
			<linearGradient id="SVGID_1_" gradientUnits="userSpaceOnUse" x1="-49.6847" y1="644.484" x2="-48.8485" y2="643.7499" gradientTransform="matrix(208.2036 0 0 -237.1556 10511.4404 153059.0625)">
			<stop  offset="0" style="stop-color:#DAE5F4"/>
			<stop  offset="0.1717" style="stop-color:#DAE5F4"/>
			<stop  offset="0.2" style="stop-color:#DAE5F4"/>
			<stop  offset="0.2006" style="stop-color:#EBECF4"/>
			<stop  offset="0.2013" style="stop-color:#F6F1F4"/>
			<stop  offset="0.2022" style="stop-color:#FDF4F4"/>
			<stop  offset="0.205" style="stop-color:#FFF5F4"/>
			<stop  offset="0.2522" style="stop-color:#FFF5F4"/>
			<stop  offset="0.26" style="stop-color:#FFF5F4"/>
			<stop  offset="0.26" style="stop-color:#DAE5F4"/>
			<stop  offset="0.3974" style="stop-color:#DAE5F4"/>
			<stop  offset="0.42" style="stop-color:#DAE5F4"/>
			<stop  offset="0.4206" style="stop-color:#EBECF4"/>
			<stop  offset="0.4212" style="stop-color:#F6F1F4"/>
			<stop  offset="0.4222" style="stop-color:#FDF4F4"/>
			<stop  offset="0.425" style="stop-color:#FFF5F4"/>
			<stop  offset="0.4894" style="stop-color:#FFF5F4"/>
			<stop  offset="0.5" style="stop-color:#FFF5F4"/>
			<stop  offset="0.5001" style="stop-color:#EEEEF4"/>
			<stop  offset="0.5002" style="stop-color:#E3E9F4"/>
			<stop  offset="0.5004" style="stop-color:#DCE6F4"/>
			<stop  offset="0.501" style="stop-color:#DAE5F4"/>
			<stop  offset="0.7062" style="stop-color:#DAE5F4"/>
			<stop  offset="0.74" style="stop-color:#DAE5F4"/>
			<stop  offset="0.741" style="stop-color:#FFF5F4"/>
			<stop  offset="0.8346" style="stop-color:#FFF5F4"/>
			<stop  offset="0.85" style="stop-color:#FFF5F4"/>
			<stop  offset="0.851" style="stop-color:#DAE5F4"/>
		</linearGradient>
		<path style="fill:url(#SVGID_1_);" d="M357.542,239.467c0,0-59.202,68.267-59.202,145.067v26.88
			c0.162,8.862-4.114,17.219-11.397,22.272c-6.938,4.444-13.089,10.01-18.204,16.469c-4.579,5.571-7.182,12.504-7.401,19.712
			h-14.871c-0.218-7.208-2.821-14.141-7.4-19.712c-5.115-6.459-11.267-12.025-18.204-16.469
			c-7.282-5.053-11.559-13.41-11.397-22.272v-26.88c0-76.8-59.202-145.067-59.202-145.067v-6.756l208.204,0.711L357.542,239.467z"/>
		<path style="fill:#D3DFF2;" d="M314.733,239.467L297.667,273.6c-0.244-0.113-0.525-0.113-0.769,0h-83.626
			c-0.303-0.11-0.635-0.11-0.939,0l-17.067-34.133H314.733z"/>
		<path style="fill:#A2C0F5;" d="M408.6,205.333h-17.067v25.6c-0.014,4.707-3.826,8.52-8.533,8.533H127
			c-4.707-0.014-8.52-3.826-8.533-8.533v-25.6H101.4c25.6-42.667,76.8-59.733,76.8-59.733h2.731
			c8.959-28.672,38.058-52.821,57.002-66.048c2.56-1.707,4.95-3.328,7.083-4.693c0.937-0.597,1.877-1.195,2.73-1.707
			C252.183,70.336,255,68.8,255,68.8s2.817,1.536,7.253,4.352c0.853,0.512,1.793,1.109,2.73,1.707
			c17.835,11.52,53.931,38.229,64.085,70.741h2.731C331.8,145.6,383,162.667,408.6,205.333z"/>
		
			<linearGradient id="SVGID_2_" gradientUnits="userSpaceOnUse" x1="-49.9305" y1="643.9847" x2="-49.0942" y2="643.2505" gradientTransform="matrix(273.0667 0 0 -159.9147 13705.7285 103085.5156)">
			<stop  offset="0" style="stop-color:#DAE5F4"/>
			<stop  offset="0.1717" style="stop-color:#DAE5F4"/>
			<stop  offset="0.2" style="stop-color:#DAE5F4"/>
			<stop  offset="0.2006" style="stop-color:#EBECF4"/>
			<stop  offset="0.2013" style="stop-color:#F6F1F4"/>
			<stop  offset="0.2022" style="stop-color:#FDF4F4"/>
			<stop  offset="0.205" style="stop-color:#FFF5F4"/>
			<stop  offset="0.2522" style="stop-color:#FFF5F4"/>
			<stop  offset="0.26" style="stop-color:#FFF5F4"/>
			<stop  offset="0.26" style="stop-color:#DAE5F4"/>
			<stop  offset="0.3974" style="stop-color:#DAE5F4"/>
			<stop  offset="0.42" style="stop-color:#DAE5F4"/>
			<stop  offset="0.4206" style="stop-color:#EBECF4"/>
			<stop  offset="0.4212" style="stop-color:#F6F1F4"/>
			<stop  offset="0.4222" style="stop-color:#FDF4F4"/>
			<stop  offset="0.425" style="stop-color:#FFF5F4"/>
			<stop  offset="0.4894" style="stop-color:#FFF5F4"/>
			<stop  offset="0.5" style="stop-color:#FFF5F4"/>
			<stop  offset="0.5001" style="stop-color:#EEEEF4"/>
			<stop  offset="0.5002" style="stop-color:#E3E9F4"/>
			<stop  offset="0.5004" style="stop-color:#DCE6F4"/>
			<stop  offset="0.501" style="stop-color:#DAE5F4"/>
			<stop  offset="0.7062" style="stop-color:#DAE5F4"/>
			<stop  offset="0.74" style="stop-color:#DAE5F4"/>
			<stop  offset="0.741" style="stop-color:#FFF5F4"/>
			<stop  offset="0.8346" style="stop-color:#FFF5F4"/>
			<stop  offset="0.85" style="stop-color:#FFF5F4"/>
			<stop  offset="0.851" style="stop-color:#DAE5F4"/>
		</linearGradient>
		<path style="fill:url(#SVGID_2_);" d="M374.467,205.333H357.4v25.6c-0.014,4.707-3.826,8.52-8.533,8.533H127
			c-4.707-0.014-8.52-3.826-8.533-8.533v-25.6H101.4c25.6-42.667,76.8-59.733,76.8-59.733h2.731
			c8.959-28.672,38.058-52.821,57.002-66.048c18.944,13.227,48.043,37.376,57.002,66.048h2.731
			C297.667,145.6,348.867,162.667,374.467,205.333z"/>
		<path style="fill:#A2C0F5;" d="M329.069,145.6h-31.402c-7.595-32.512-34.646-59.221-47.957-70.741
			c-0.69-0.526-1.346-1.096-1.963-1.707C252.183,70.336,255,68.8,255,68.8s2.817,1.536,7.253,4.352
			c0.853,0.512,1.793,1.109,2.73,1.707C282.819,86.379,318.915,113.088,329.069,145.6z"/>
		<path style="fill:#D3DFF2;" d="M289.133,145.6H180.931c4.877-13.787,12.712-26.34,22.954-36.779
			c12.272-12.958,26.085-24.364,41.131-33.963c0.937-0.597,1.792-1.195,2.645-1.707h0.085c0.597,0.597,6.485-4.949,7.253-4.352
			C268.311,80.32,281.539,113.088,289.133,145.6z"/>
		<path style="fill:#A2C0F5;" d="M391.533,205.333v25.6c-0.014,4.707-3.826,8.52-8.533,8.533H127
			c-4.707-0.014-8.52-3.826-8.533-8.533v-25.6H391.533z"/>
		<path style="fill:#D3DFF2;" d="M365.933,205.333v25.6c0.197,4.483-3.253,8.289-7.733,8.533h-232
			c-4.481-0.244-7.93-4.05-7.733-8.533v-25.6H365.933z"/>
		<path style="fill:#FFFFFF;" d="M101.4,205.333h17.067v25.6c0.014,4.707,3.826,8.52,8.533,8.533c0,0,68.267,68.267,68.267,145.067
			v26.88c0.046,9.25,5.066,17.76,13.141,22.272c7.84,4.321,14.93,9.882,20.992,16.469c5.165,5.302,8.202,12.317,8.533,19.712h10.752
			c-0.234-7.209-2.844-14.139-7.424-19.712c-5.119-6.445-11.259-12.008-18.176-16.469c-7.311-5.032-11.607-13.398-11.435-22.272
			v-26.88c0-76.8-59.221-145.067-59.221-145.067h-0.598c-3.586-0.115-6.639-2.643-7.423-6.144c-0.245-0.772-0.36-1.579-0.342-2.389
			v-25.6h-8.533c25.6-42.667,76.8-59.733,76.8-59.733h2.731c8.959-28.672,38.058-52.821,57.002-66.048
			c-2.56-1.707-4.95-3.328-7.083-4.693c-0.937-0.597-1.877-1.195-2.73-1.707C257.817,70.336,255,68.8,255,68.8
			s-2.817,1.536-7.253,4.352c-0.853,0.512-1.793,1.109-2.73,1.707c-17.835,11.52-53.931,38.229-64.085,70.741H178.2
			C178.2,145.6,127,162.667,101.4,205.333z"/>
		
			<linearGradient id="SVGID_3_" gradientUnits="userSpaceOnUse" x1="-49.3698" y1="644.3214" x2="-48.5335" y2="643.5872" gradientTransform="matrix(83.6259 0 0 -196.2667 4345.5659 126726.6094)">
			<stop  offset="0" style="stop-color:#DAE5F4"/>
			<stop  offset="0.1717" style="stop-color:#DAE5F4"/>
			<stop  offset="0.2" style="stop-color:#DAE5F4"/>
			<stop  offset="0.2006" style="stop-color:#EBECF4"/>
			<stop  offset="0.2013" style="stop-color:#F6F1F4"/>
			<stop  offset="0.2022" style="stop-color:#FDF4F4"/>
			<stop  offset="0.205" style="stop-color:#FFF5F4"/>
			<stop  offset="0.2522" style="stop-color:#FFF5F4"/>
			<stop  offset="0.26" style="stop-color:#FFF5F4"/>
			<stop  offset="0.26" style="stop-color:#DAE5F4"/>
			<stop  offset="0.3974" style="stop-color:#DAE5F4"/>
			<stop  offset="0.42" style="stop-color:#DAE5F4"/>
			<stop  offset="0.4206" style="stop-color:#EBECF4"/>
			<stop  offset="0.4212" style="stop-color:#F6F1F4"/>
			<stop  offset="0.4222" style="stop-color:#FDF4F4"/>
			<stop  offset="0.425" style="stop-color:#FFF5F4"/>
			<stop  offset="0.4894" style="stop-color:#FFF5F4"/>
			<stop  offset="0.5" style="stop-color:#FFF5F4"/>
			<stop  offset="0.5001" style="stop-color:#EEEEF4"/>
			<stop  offset="0.5002" style="stop-color:#E3E9F4"/>
			<stop  offset="0.5004" style="stop-color:#DCE6F4"/>
			<stop  offset="0.501" style="stop-color:#DAE5F4"/>
			<stop  offset="0.7062" style="stop-color:#DAE5F4"/>
			<stop  offset="0.74" style="stop-color:#DAE5F4"/>
			<stop  offset="0.741" style="stop-color:#FFF5F4"/>
			<stop  offset="0.8346" style="stop-color:#FFF5F4"/>
			<stop  offset="0.85" style="stop-color:#FFF5F4"/>
			<stop  offset="0.851" style="stop-color:#DAE5F4"/>
		</linearGradient>
		<path style="fill:url(#SVGID_3_);" d="M296.898,273.6c-3.242,0.939-16.127,15.019-16.298,176.555
			c-5.165,5.302-8.202,12.317-8.533,19.712h-34.133c-0.332-7.395-3.368-14.41-8.533-19.712
			c-0.171-158.891-12.629-175.104-16.128-176.555H296.898z"/>
	</g>
	<g>
		<path style="fill:#438CFF;" d="M183.448,311.334c-2.076-4.231-7.189-5.978-11.42-3.902c-4.231,2.076-5.978,7.189-3.902,11.42
			c2.076,4.231,7.189,5.978,11.42,3.902C183.776,320.677,185.523,315.565,183.448,311.334z"/>
		<path style="fill:#438CFF;" d="M238.933,512h34.133c2.263,0.001,4.434-0.898,6.035-2.499c1.6-1.6,2.499-3.771,2.499-6.035v-25.6
			c0-9.012,9.208-19.508,25.208-28.763c10.727-6.046,17.39-17.378,17.458-29.692v-26.879c0-65.751,53.74-126.218,63.965-137.129
			c7.533-1.922,12.812-8.697,12.835-16.471v-17.067h8.533c3.074,0,5.911-1.654,7.426-4.33c1.515-2.675,1.473-5.959-0.109-8.595
			c-25.699-42.829-74.417-60.989-80.705-63.191c-14.659-37.238-57.689-65.481-71.678-73.863v-3.621h8.533
			c4.713,0,8.533-3.821,8.533-8.533s-3.82-8.533-8.533-8.533h-8.533V8.533C264.533,3.821,260.713,0,256,0
			c-4.713,0-8.533,3.821-8.533,8.533V51.2h-8.533c-4.713,0-8.533,3.821-8.533,8.533s3.821,8.533,8.533,8.533h8.533v3.621
			c-13.99,8.382-57.019,36.625-71.678,73.863c-6.289,2.202-55.006,20.362-80.705,63.191c-1.582,2.636-1.623,5.92-0.109,8.595
			c1.515,2.675,4.351,4.33,7.426,4.33h8.533v17.067c0.023,7.78,5.308,14.558,12.848,16.476
			c10.098,10.918,19.326,22.609,27.602,34.966c2.635,3.899,7.929,4.929,11.834,2.303c3.905-2.626,4.949-7.917,2.333-11.828
			c-6.717-9.979-13.217-18.392-18.55-24.85h43.992l14.708,29.417c0.416,0.804,0.959,1.536,1.606,2.168
			c0.214,0.198,0.439,0.383,0.673,0.556c0.453,0.379,0.945,0.708,1.468,0.984c0.137,0.071,0.245,0.195,0.386,0.259
			c2.641,5.389,11.018,31.823,11.946,150.076c-2.733-1.889-5.485-3.652-8.154-5.196c-5.394-3.007-8.763-8.675-8.825-14.85v-26.879
			c-0.139-16.417-2.807-32.715-7.908-48.321c-0.923-2.906-3.326-5.098-6.304-5.752c-2.978-0.654-6.078,0.331-8.133,2.583
			c-2.055,2.252-2.752,5.43-1.829,8.335c4.569,13.935,6.967,28.49,7.108,43.154v26.879c0.062,12.291,6.702,23.607,17.4,29.658
			c16.058,9.288,25.267,19.783,25.267,28.796v25.6c-0.001,2.263,0.898,4.434,2.499,6.035
			C234.499,511.102,236.67,512.001,238.933,512L238.933,512z M256,290.133h27.93c-5.613,19.746-10.65,64.007-10.852,165.062
			c-3.365,4.184-5.877,8.987-7.394,14.138h-19.367c-1.517-5.15-4.029-9.952-7.394-14.134
			c-0.206-101.578-5.38-145.571-10.895-165.066H256z M191.633,238.933c-4.08-5.131-7.291-10.897-9.506-17.067h65.34v17.067H191.633z
			 M288.034,162.133c12.161,6.447,37.193,23.348,43.358,42.667h-66.859v-42.667H288.034z M264.533,145.067v-40.814
			c7.576,12.612,12.976,26.41,15.972,40.814H264.533z M247.467,145.067h-15.974c2.999-14.404,8.399-28.201,15.974-40.814V145.067z
			 M223.973,162.133h23.494V204.8h-66.852C186.796,185.538,211.817,168.607,223.973,162.133z M264.533,221.867h65.342
			c-2.227,6.157-5.423,11.918-9.468,17.067h-55.874V221.867z M264.533,494.933h-17.067V486.4h17.067V494.933z M307.2,392.533v26.879
			c-0.068,6.198-3.461,11.881-8.883,14.883c-2.648,1.532-5.38,3.284-8.096,5.159c0.931-118.708,9.369-144.853,11.971-150.084
			c0.165-0.074,0.302-0.206,0.462-0.291c0.682-0.371,1.314-0.829,1.879-1.362c0.291-0.284,0.561-0.588,0.808-0.91
			c0.137-0.178,0.316-0.308,0.442-0.499c0.071-0.108,0.074-0.235,0.14-0.346c0.116-0.191,0.276-0.344,0.377-0.546L321.008,256
			h43.925C344.45,280.7,307.2,333.7,307.2,392.533z M384,238.933h-43.151c2.897-5.447,5.258-11.163,7.049-17.067H384V238.933z
			 M393.083,204.8h-44.16c-4.931-17.243-15.588-32.292-30.217-42.667h11.334l0.026,0.004l0.027-0.004h1.231
			C355.059,171.152,376.251,185.792,393.083,204.8L393.083,204.8z M317.239,145.067h-19.4c-2.146-12.749-6.131-25.118-11.831-36.722
			C298.606,118.542,309.197,130.994,317.239,145.067z M225.993,108.345c-5.7,11.604-9.685,23.973-11.831,36.722h-19.4
			C202.803,130.994,213.394,118.542,225.993,108.345L225.993,108.345z M180.683,162.133h12.61
			c-14.628,10.375-25.286,25.424-30.217,42.667h-44.152C135.787,185.826,156.97,171.191,180.683,162.133L180.683,162.133z
			 M128,238.933v-17.067h36.102c1.791,5.904,4.152,11.62,7.049,17.067H128z M301.925,256l-8.533,17.067h-74.783L210.075,256H301.925
			z"/>
	</g>
</g>
<g>
</g>
<g>
</g>
<g>
</g>
<g>
</g>
<g>
</g>
<g>
</g>
<g>
</g>
<g>
</g>
<g>
</g>
<g>
</g>
<g>
</g>
<g>
</g>
<g>
</g>
<g>
</g>
<g>
</g>
</svg>
