<?xml version="1.0" encoding="iso-8859-1"?>
<!-- Generator: Adobe Illustrator 19.0.0, SVG Export Plug-In . SVG Version: 6.00 Build 0)  -->
<svg version="1.1" id="Capa_1" xmlns="http://www.w3.org/2000/svg" xmlns:xlink="http://www.w3.org/1999/xlink" x="0px" y="0px"
	 viewBox="0 0 512 512" style="enable-background:new 0 0 512 512;" xml:space="preserve">
<g>
	<g transform="translate(1 1)">
		<g>
			<path style="fill:#FFFFFF;" d="M50.2,408.6H383v76.8c0,9.426-7.641,17.067-17.067,17.067H67.267
				c-9.426,0-17.067-7.641-17.067-17.067V408.6z"/>
			<path style="fill:#FFFFFF;" d="M400.067,357.4v59.733c0.218,4.458-3.19,8.262-7.644,8.533H40.778
				c-4.455-0.271-7.863-4.076-7.644-8.533V357.4c-0.218-4.458,3.19-8.262,7.644-8.533h351.645
				C396.877,349.138,400.285,352.942,400.067,357.4z"/>
		</g>
		<path style="fill:#A2C0F5;" d="M92.867,408.6h332.8v76.8c0,9.426-7.641,17.067-17.067,17.067H109.933
			c-9.426,0-17.067-7.641-17.067-17.067V408.6z"/>
		
			<linearGradient id="SVGID_1_" gradientUnits="userSpaceOnUse" x1="-49.6635" y1="651.1596" x2="-49.0341" y2="648.9856" gradientTransform="matrix(324.2667 0 0 -93.8667 16240.1035 61470.6836)">
			<stop  offset="0" style="stop-color:#DAE5F4"/>
			<stop  offset="0.1717" style="stop-color:#DAE5F4"/>
			<stop  offset="0.2" style="stop-color:#DAE5F4"/>
			<stop  offset="0.2006" style="stop-color:#EBECF4"/>
			<stop  offset="0.2013" style="stop-color:#F6F1F4"/>
			<stop  offset="0.2022" style="stop-color:#FDF4F4"/>
			<stop  offset="0.205" style="stop-color:#FFF5F4"/>
			<stop  offset="0.2522" style="stop-color:#FFF5F4"/>
			<stop  offset="0.26" style="stop-color:#FFF5F4"/>
			<stop  offset="0.26" style="stop-color:#DAE5F4"/>
			<stop  offset="0.3974" style="stop-color:#DAE5F4"/>
			<stop  offset="0.42" style="stop-color:#DAE5F4"/>
			<stop  offset="0.4206" style="stop-color:#EBECF4"/>
			<stop  offset="0.4212" style="stop-color:#F6F1F4"/>
			<stop  offset="0.4222" style="stop-color:#FDF4F4"/>
			<stop  offset="0.425" style="stop-color:#FFF5F4"/>
			<stop  offset="0.4894" style="stop-color:#FFF5F4"/>
			<stop  offset="0.5" style="stop-color:#FFF5F4"/>
			<stop  offset="0.5001" style="stop-color:#EEEEF4"/>
			<stop  offset="0.5002" style="stop-color:#E3E9F4"/>
			<stop  offset="0.5004" style="stop-color:#DCE6F4"/>
			<stop  offset="0.501" style="stop-color:#DAE5F4"/>
			<stop  offset="0.7062" style="stop-color:#DAE5F4"/>
			<stop  offset="0.74" style="stop-color:#DAE5F4"/>
			<stop  offset="0.741" style="stop-color:#FFF5F4"/>
			<stop  offset="0.8346" style="stop-color:#FFF5F4"/>
			<stop  offset="0.85" style="stop-color:#FFF5F4"/>
			<stop  offset="0.851" style="stop-color:#DAE5F4"/>
		</linearGradient>
		<path style="fill:url(#SVGID_1_);" d="M75.8,408.6h324.267v76.8c0,9.426-7.641,17.067-17.067,17.067H92.867
			c-9.426,0-17.067-7.641-17.067-17.067V408.6z"/>
		<g>
			<rect x="67.267" y="87.772" style="fill:#D3DFF2;" width="34.133" height="283.221"/>
			<rect x="374.467" y="94.172" style="fill:#D3DFF2;" width="34.133" height="270.131"/>
		</g>
		<path style="fill:#A2C0F5;" d="M442.733,357.4v59.733c0.218,4.458-3.19,8.262-7.644,8.533H83.444
			c-4.455-0.271-7.863-4.076-7.644-8.533V357.4c-0.218-4.458,3.19-8.262,7.644-8.533h351.645
			C439.544,349.138,442.952,352.942,442.733,357.4z"/>
		
			<linearGradient id="SVGID_2_" gradientUnits="userSpaceOnUse" x1="-49.6921" y1="650.8264" x2="-49.0628" y2="648.6524" gradientTransform="matrix(358.4288 0 0 -76.8 17931.125 50283.4805)">
			<stop  offset="0" style="stop-color:#DAE5F4"/>
			<stop  offset="0.1717" style="stop-color:#DAE5F4"/>
			<stop  offset="0.2" style="stop-color:#DAE5F4"/>
			<stop  offset="0.2006" style="stop-color:#EBECF4"/>
			<stop  offset="0.2013" style="stop-color:#F6F1F4"/>
			<stop  offset="0.2022" style="stop-color:#FDF4F4"/>
			<stop  offset="0.205" style="stop-color:#FFF5F4"/>
			<stop  offset="0.2522" style="stop-color:#FFF5F4"/>
			<stop  offset="0.26" style="stop-color:#FFF5F4"/>
			<stop  offset="0.26" style="stop-color:#DAE5F4"/>
			<stop  offset="0.3974" style="stop-color:#DAE5F4"/>
			<stop  offset="0.42" style="stop-color:#DAE5F4"/>
			<stop  offset="0.4206" style="stop-color:#EBECF4"/>
			<stop  offset="0.4212" style="stop-color:#F6F1F4"/>
			<stop  offset="0.4222" style="stop-color:#FDF4F4"/>
			<stop  offset="0.425" style="stop-color:#FFF5F4"/>
			<stop  offset="0.4894" style="stop-color:#FFF5F4"/>
			<stop  offset="0.5" style="stop-color:#FFF5F4"/>
			<stop  offset="0.5001" style="stop-color:#EEEEF4"/>
			<stop  offset="0.5002" style="stop-color:#E3E9F4"/>
			<stop  offset="0.5004" style="stop-color:#DCE6F4"/>
			<stop  offset="0.501" style="stop-color:#DAE5F4"/>
			<stop  offset="0.7062" style="stop-color:#DAE5F4"/>
			<stop  offset="0.74" style="stop-color:#DAE5F4"/>
			<stop  offset="0.741" style="stop-color:#FFF5F4"/>
			<stop  offset="0.8346" style="stop-color:#FFF5F4"/>
			<stop  offset="0.85" style="stop-color:#FFF5F4"/>
			<stop  offset="0.851" style="stop-color:#DAE5F4"/>
		</linearGradient>
		<path style="fill:url(#SVGID_2_);" d="M417.133,357.4v59.733c0.261,4.407-3.064,8.207-7.467,8.533H66.2
			c-4.403-0.326-7.728-4.126-7.467-8.533V357.4c-0.261-4.407,3.064-8.207,7.467-8.533h343.467
			C414.069,349.193,417.395,352.993,417.133,357.4z"/>
		<path style="fill:#A2C0F5;" d="M432.661,109.933H83.492c-2.504-0.176-4.795-1.468-6.241-3.52
			c-1.445-2.052-1.891-4.645-1.213-7.061l17.75-78.933c1.318-7.268,7.526-12.633,14.908-12.885h298.761
			c7.382,0.252,13.589,5.618,14.908,12.885l17.75,78.933c0.678,2.417,0.232,5.01-1.213,7.062S435.164,109.758,432.661,109.933
			L432.661,109.933z"/>
		<path style="fill:#FFFFFF;" d="M392.375,109.933H43.206c-2.504-0.176-4.795-1.468-6.241-3.52
			c-1.445-2.052-1.891-4.645-1.213-7.061l17.75-78.933c1.318-7.268,7.526-12.633,14.908-12.885h298.761
			c7.382,0.252,13.589,5.618,14.908,12.885l17.75,78.933c0.678,2.417,0.232,5.01-1.213,7.061
			C397.17,108.465,394.878,109.758,392.375,109.933L392.375,109.933z"/>
		
			<linearGradient id="SVGID_3_" gradientUnits="userSpaceOnUse" x1="-49.7186" y1="651.2702" x2="-49.0892" y2="649.0962" gradientTransform="matrix(349.4639 0 0 -102.4 17487.1133 66633.3516)">
			<stop  offset="0" style="stop-color:#DAE5F4"/>
			<stop  offset="0.1717" style="stop-color:#DAE5F4"/>
			<stop  offset="0.2" style="stop-color:#DAE5F4"/>
			<stop  offset="0.2006" style="stop-color:#EBECF4"/>
			<stop  offset="0.2013" style="stop-color:#F6F1F4"/>
			<stop  offset="0.2022" style="stop-color:#FDF4F4"/>
			<stop  offset="0.205" style="stop-color:#FFF5F4"/>
			<stop  offset="0.2522" style="stop-color:#FFF5F4"/>
			<stop  offset="0.26" style="stop-color:#FFF5F4"/>
			<stop  offset="0.26" style="stop-color:#DAE5F4"/>
			<stop  offset="0.3974" style="stop-color:#DAE5F4"/>
			<stop  offset="0.42" style="stop-color:#DAE5F4"/>
			<stop  offset="0.4206" style="stop-color:#EBECF4"/>
			<stop  offset="0.4212" style="stop-color:#F6F1F4"/>
			<stop  offset="0.4222" style="stop-color:#FDF4F4"/>
			<stop  offset="0.425" style="stop-color:#FFF5F4"/>
			<stop  offset="0.4894" style="stop-color:#FFF5F4"/>
			<stop  offset="0.5" style="stop-color:#FFF5F4"/>
			<stop  offset="0.5001" style="stop-color:#EEEEF4"/>
			<stop  offset="0.5002" style="stop-color:#E3E9F4"/>
			<stop  offset="0.5004" style="stop-color:#DCE6F4"/>
			<stop  offset="0.501" style="stop-color:#DAE5F4"/>
			<stop  offset="0.7062" style="stop-color:#DAE5F4"/>
			<stop  offset="0.74" style="stop-color:#DAE5F4"/>
			<stop  offset="0.741" style="stop-color:#FFF5F4"/>
			<stop  offset="0.8346" style="stop-color:#FFF5F4"/>
			<stop  offset="0.85" style="stop-color:#FFF5F4"/>
			<stop  offset="0.851" style="stop-color:#DAE5F4"/>
		</linearGradient>
		<path style="fill:url(#SVGID_3_);" d="M404.444,109.933H70.919c-2.537-0.126-4.881-1.395-6.372-3.452
			c-1.491-2.057-1.97-4.678-1.302-7.129l18.274-78.933c1.469-7.358,7.846-12.712,15.347-12.885h281.63
			c7.501,0.173,13.879,5.527,15.347,12.885l18.274,78.933c0.669,2.451,0.19,5.073-1.301,7.129
			C409.325,108.538,406.982,109.808,404.444,109.933z"/>
		<path style="fill:#A2C0F5;" d="M152.6,144.067h170.667c9.426,0,17.067,7.641,17.067,17.067V178.2
			c0,9.426-7.641,17.067-17.067,17.067H152.6c-9.426,0-17.067-7.641-17.067-17.067v-17.067
			C135.533,151.708,143.174,144.067,152.6,144.067z"/>
		<path style="fill:#D3DFF2;" d="M314.733,161.133V178.2c0.522,8.814-6.128,16.414-14.933,17.067H150.467
			c-8.805-0.652-15.456-8.253-14.933-17.067v-17.067c-0.522-8.814,6.128-16.414,14.933-17.067H299.8
			C308.605,144.719,315.256,152.32,314.733,161.133L314.733,161.133z"/>
		<path style="fill:#7FAAF8;" d="M264.344,314.733h-52.821c-4.384,0-8.054-3.322-8.491-7.684l-6.827-68.267
			c-0.24-2.399,0.546-4.787,2.164-6.575c1.618-1.788,3.916-2.807,6.327-2.808h66.475c2.411,0,4.709,1.02,6.327,2.808
			c1.618,1.788,2.404,4.176,2.164,6.575l-6.827,68.267C272.399,311.411,268.728,314.733,264.344,314.733L264.344,314.733z"/>
		<path style="fill:#D3DFF2;" d="M244.017,314.733H206.25c-3.135,0-5.759-3.322-6.071-7.684l-4.881-68.267
			c-0.359-5.023,2.461-9.382,6.071-9.382h47.529c3.61,0,6.43,4.359,6.071,9.382l-4.881,68.267
			C249.776,311.412,247.152,314.733,244.017,314.733z"/>
		<path style="fill:#7FAAF8;" d="M279.661,238.787L278.04,255h-80.213l-1.621-16.213c-0.251-2.394,0.525-4.783,2.136-6.572
			c1.611-1.79,3.904-2.812,6.312-2.814h66.56c2.408,0.002,4.701,1.025,6.312,2.814C279.136,234.004,279.912,236.392,279.661,238.787
			z"/>
		<path style="fill:#D3DFF2;" d="M254.968,238.787L253.809,255h-57.351l-1.159-16.213c-0.366-5.035,2.441-9.387,6.04-9.387h47.589
			C252.527,229.4,255.334,233.752,254.968,238.787z"/>
	</g>
	<g>
		<path style="fill:#438CFF;" d="M45.329,68.115c4.629,0.886,9.099-2.148,9.985-6.777c0.886-4.629-2.148-9.099-6.777-9.985
			c-4.629-0.886-9.099,2.148-9.985,6.777c-0.426,2.223,0.049,4.524,1.32,6.396C41.143,66.398,43.106,67.689,45.329,68.115
			L45.329,68.115z"/>
		<path style="fill:#438CFF;" d="M25.6,179.2h34.133v162.133H42.667c-9.421,0.011-17.056,7.645-17.067,17.067v59.733
			c0.011,9.421,7.645,17.056,17.067,17.067v51.2c0.015,14.132,11.468,25.585,25.6,25.6H409.6c14.132-0.015,25.585-11.468,25.6-25.6
			v-51.2c9.421-0.011,17.056-7.645,17.067-17.067V358.4c-0.011-9.421-7.645-17.056-17.067-17.067h-17.067V179.2H435.2v34.133
			c-0.001,2.263,0.898,4.434,2.499,6.035c1.6,1.6,3.771,2.499,6.035,2.499H486.4c4.713,0,8.533-3.821,8.533-8.533
			s-3.821-8.533-8.533-8.533h-34.133v-34.133c0.001-2.263-0.898-4.434-2.499-6.035c-1.6-1.6-3.771-2.499-6.035-2.499h-25.6v-42.667
			h14.675c5.254,0.009,10.219-2.407,13.454-6.546c3.236-4.14,4.381-9.54,3.104-14.637l-19.708-78.913
			C426.837,7.961,416.579-0.041,404.825,0H73.042C61.287-0.04,51.028,7.963,48.208,19.375l-1.283,5.208
			c-0.738,2.963,0.163,6.094,2.363,8.211c2.2,2.117,5.364,2.897,8.296,2.045c2.932-0.852,5.185-3.206,5.908-6.172l1.283-5.204
			c0.953-3.782,4.367-6.423,8.267-6.396h331.783c3.907-0.024,7.325,2.626,8.275,6.417l19.708,78.917l-23.201,0.002L409.6,102.4
			h-34.133l-0.018,0.004l-272.943,0.018L102.4,102.4H68.267l-0.117,0.023l-23.1,0.002l1.883-7.509
			c1.135-4.566-1.641-9.189-6.204-10.333c-4.563-1.144-9.192,1.622-10.346,6.183L28.5,98.262
			c-1.282,5.099-0.139,10.505,3.097,14.649c3.236,4.144,8.204,6.563,13.462,6.555h14.675v42.667H25.6
			c-4.713,0-8.533,3.821-8.533,8.533C17.067,175.38,20.887,179.2,25.6,179.2z M418.133,486.4c-0.005,4.711-3.822,8.529-8.533,8.533
			H68.267c-4.711-0.005-8.529-3.822-8.533-8.533v-51.2h358.4V486.4z M435.209,418.134H42.667V358.4H435.2L435.209,418.134z
			 M366.933,162.133h-17.067c-0.015-14.132-11.468-25.585-25.6-25.6H153.6c-14.132,0.015-25.585,11.468-25.6,25.6h-17.067v-42.667
			h256V162.133z M247.467,187.734V153.6H281.6v34.133H247.467z M153.6,187.734c-4.711-0.005-8.529-3.822-8.533-8.533v-17.067
			c0.005-4.711,3.822-8.529,8.533-8.533h25.6v34.133H153.6z M196.267,153.6H230.4v34.133h-34.133V153.6z M298.667,153.6h25.6
			c4.711,0.005,8.529,3.822,8.533,8.533V179.2c-0.005,4.711-3.822,8.529-8.533,8.533h-25.6V153.6z M110.933,179.2H128
			c0.015,14.132,11.468,25.585,25.6,25.6h76.8v17.067h-24.7c-4.823-0.001-9.421,2.038-12.657,5.614
			c-3.236,3.576-4.808,8.354-4.327,13.153l6.825,68.258c0.843,8.741,8.202,15.404,16.983,15.375h52.817
			c8.779,0.029,16.137-6.629,16.984-15.367l6.825-68.258c0.483-4.8-1.087-9.58-4.324-13.158c-3.236-3.578-7.836-5.618-12.66-5.617
			h-24.7V204.8h76.8c14.132-0.015,25.585-11.468,25.6-25.6h17.067v162.133h-256V179.2z M265.35,307.2l-0.009,8.533V307.2h-52.816
			l-4.266-42.667h61.348l-4.266,42.667H265.35z M271.314,247.467h-64.76l-0.853-8.533h66.467L271.314,247.467z M401.067,341.333H384
			V119.467h17.067V341.333z M93.867,119.467v221.867H76.8V119.467H93.867z"/>
		<path style="fill:#438CFF;" d="M119.467,42.667c-2.263-0.001-4.434,0.898-6.035,2.499c-1.6,1.6-2.499,3.771-2.499,6.035v17.067
			H93.867c-4.713,0-8.533,3.821-8.533,8.533c0,4.713,3.821,8.533,8.533,8.533h17.067c3.005-0.017,5.951-0.837,8.533-2.374
			c2.582,1.537,5.528,2.357,8.533,2.374h34.133c3.005-0.017,5.951-0.837,8.533-2.374c2.582,1.537,5.528,2.357,8.533,2.374h34.133
			c3.005-0.017,5.951-0.837,8.533-2.374c2.582,1.537,5.528,2.357,8.533,2.374h34.133c3.005-0.017,5.951-0.837,8.533-2.374
			c2.582,1.537,5.528,2.357,8.533,2.374h34.133c3.005-0.017,5.951-0.837,8.533-2.374c2.582,1.537,5.528,2.357,8.533,2.374h34.133
			c3.005-0.017,5.951-0.837,8.533-2.374c2.582,1.537,5.528,2.357,8.533,2.374h17.067c4.713,0,8.533-3.821,8.533-8.533
			c0-4.713-3.82-8.533-8.533-8.533H384V51.2c0-4.713-3.82-8.533-8.533-8.533s-8.533,3.821-8.533,8.533v17.067H332.8V51.2
			c0-4.713-3.821-8.533-8.533-8.533s-8.533,3.821-8.533,8.533v17.067H281.6V51.2c0-4.713-3.821-8.533-8.533-8.533
			c-4.713,0-8.533,3.821-8.533,8.533v17.067H230.4V51.2c0-4.713-3.821-8.533-8.533-8.533c-4.713,0-8.533,3.821-8.533,8.533v17.067
			H179.2V51.2c0-4.713-3.821-8.533-8.533-8.533c-4.713,0-8.533,3.821-8.533,8.533v17.067H128V51.2
			c0.001-2.263-0.898-4.434-2.499-6.035C123.901,43.565,121.73,42.666,119.467,42.667z"/>
		<path style="fill:#438CFF;" d="M76.8,375.467c-2.263-0.001-4.434,0.898-6.035,2.499c-1.6,1.6-2.499,3.771-2.499,6.035v17.067
			c0,4.713,3.821,8.533,8.533,8.533s8.533-3.821,8.533-8.533V384c0.001-2.263-0.898-4.434-2.499-6.035
			C81.234,376.365,79.063,375.466,76.8,375.467L76.8,375.467z"/>
		<path style="fill:#438CFF;" d="M119.467,375.467c-2.263-0.001-4.434,0.898-6.035,2.499c-1.6,1.6-2.499,3.771-2.499,6.035v17.067
			c0,4.713,3.821,8.533,8.533,8.533c4.713,0,8.533-3.821,8.533-8.533V384c0.001-2.263-0.898-4.434-2.499-6.035
			C123.901,376.365,121.73,375.466,119.467,375.467L119.467,375.467z"/>
		<path style="fill:#438CFF;" d="M162.133,375.467c-2.263-0.001-4.434,0.898-6.035,2.499c-1.6,1.6-2.499,3.771-2.499,6.035v17.067
			c0,4.713,3.821,8.533,8.533,8.533s8.533-3.821,8.533-8.533V384c0.001-2.263-0.898-4.434-2.499-6.035
			C166.568,376.365,164.397,375.466,162.133,375.467L162.133,375.467z"/>
		<path style="fill:#438CFF;" d="M204.8,375.467c-2.263-0.001-4.434,0.898-6.035,2.499c-1.6,1.6-2.499,3.771-2.499,6.035v17.067
			c0,4.713,3.821,8.533,8.533,8.533c4.713,0,8.533-3.821,8.533-8.533V384c0.001-2.263-0.898-4.434-2.499-6.035
			C209.234,376.365,207.063,375.466,204.8,375.467L204.8,375.467z"/>
		<path style="fill:#438CFF;" d="M247.467,375.467c-2.263-0.001-4.434,0.898-6.035,2.499c-1.6,1.6-2.499,3.771-2.499,6.035v17.067
			c0,4.713,3.821,8.533,8.533,8.533c4.713,0,8.533-3.821,8.533-8.533V384c0.001-2.263-0.898-4.434-2.499-6.035
			C251.901,376.365,249.73,375.466,247.467,375.467L247.467,375.467z"/>
		<path style="fill:#438CFF;" d="M290.133,375.467c-2.263-0.001-4.434,0.898-6.035,2.499c-1.6,1.6-2.499,3.771-2.499,6.035v17.067
			c0,4.713,3.82,8.533,8.533,8.533s8.533-3.821,8.533-8.533V384c0.001-2.263-0.898-4.434-2.499-6.035
			C294.568,376.365,292.397,375.466,290.133,375.467L290.133,375.467z"/>
		<path style="fill:#438CFF;" d="M332.8,375.467c-2.263-0.001-4.434,0.898-6.035,2.499c-1.6,1.6-2.499,3.771-2.499,6.035v17.067
			c0,4.713,3.821,8.533,8.533,8.533c4.713,0,8.533-3.821,8.533-8.533V384c0.001-2.263-0.898-4.434-2.499-6.035
			C337.234,376.365,335.063,375.466,332.8,375.467L332.8,375.467z"/>
		<path style="fill:#438CFF;" d="M375.467,375.467c-2.263-0.001-4.434,0.898-6.035,2.499c-1.6,1.6-2.499,3.771-2.499,6.035v17.067
			c0,4.713,3.82,8.533,8.533,8.533S384,405.78,384,401.067V384c0.001-2.263-0.898-4.434-2.499-6.035
			C379.901,376.365,377.73,375.466,375.467,375.467L375.467,375.467z"/>
		<path style="fill:#438CFF;" d="M85.333,477.867H358.4c4.713,0,8.533-3.821,8.533-8.533c0-4.713-3.821-8.533-8.533-8.533h-34.133
			v-8.533c0-4.713-3.82-8.533-8.533-8.533s-8.533,3.82-8.533,8.533v8.533H256v-8.533c0-4.713-3.821-8.533-8.533-8.533
			c-4.713,0-8.533,3.82-8.533,8.533v8.533h-51.2v-8.533c0-4.713-3.82-8.533-8.533-8.533s-8.533,3.82-8.533,8.533v8.533h-51.2v-8.533
			c0-4.713-3.821-8.533-8.533-8.533c-4.713,0-8.533,3.82-8.533,8.533v8.533H85.333c-4.713,0-8.533,3.821-8.533,8.533
			C76.8,474.046,80.621,477.867,85.333,477.867z"/>
	</g>
</g>
<g>
</g>
<g>
</g>
<g>
</g>
<g>
</g>
<g>
</g>
<g>
</g>
<g>
</g>
<g>
</g>
<g>
</g>
<g>
</g>
<g>
</g>
<g>
</g>
<g>
</g>
<g>
</g>
<g>
</g>
</svg>
