<?xml version="1.0" encoding="iso-8859-1"?>
<!-- Generator: Adobe Illustrator 19.0.0, SVG Export Plug-In . SVG Version: 6.00 Build 0)  -->
<svg version="1.1" id="Capa_1" xmlns="http://www.w3.org/2000/svg" xmlns:xlink="http://www.w3.org/1999/xlink" x="0px" y="0px"
	 viewBox="0 0 512 512" style="enable-background:new 0 0 512 512;" xml:space="preserve">
<g>
	<g transform="translate(1)">
		<polygon style="fill:#A2C0F5;" points="331.8,469.333 331.8,503.467 92.867,503.467 92.867,469.333 129.901,427.008 
			294.765,427.008 		"/>
		<polygon style="fill:#FFFFFF;" points="297.667,469.333 297.667,503.467 58.733,503.467 58.733,469.333 95.768,427.008 
			260.632,427.008 		"/>
		<path style="fill:#A2C0F5;" d="M288.963,101.803H144.067l17.023-80.64c0.774-6.36,5.628-11.459,11.943-12.544
			c0.258-0.07,0.525-0.099,0.792-0.085h85.38c6.688,0.688,11.991,5.947,12.735,12.629L288.963,101.803z"/>
		<path style="fill:#FFFFFF;" d="M246.467,101.803H101.571l17.023-80.64c0.774-6.36,5.629-11.459,11.943-12.544
			c0.258-0.07,0.525-0.099,0.792-0.085h85.38c6.688,0.688,11.991,5.947,12.735,12.629L246.467,101.803z"/>
		<g>
			<polygon style="fill:#D3DFF2;" points="306.968,503.467 84.333,503.467 84.333,469.333 114.874,435.285 268.781,434.773 
				306.891,477.013 			"/>
			<path style="fill:#D3DFF2;" d="M255,101.547l-69.404,0.256h-50.062l16.308-80.64c0.627-6.248,5.277-11.346,11.441-12.544
				l22.124-0.085l40.897-0.171c0.47-0.032,0.942,0.026,1.39,0.171c5.86,1.419,10.19,6.376,10.809,12.373L255,101.547z"/>
		</g>
		<ellipse style="fill:#A2C0F5;" cx="212.333" cy="264.533" rx="170.667" ry="187.733"/>
		<ellipse style="fill:#FFFFFF;" cx="178.2" cy="264.533" rx="170.667" ry="187.733"/>
		<ellipse style="fill:#D3DFF2;" cx="195.267" cy="264.533" rx="162.133" ry="187.733"/>
		
			<linearGradient id="SVGID_1_" gradientUnits="userSpaceOnUse" x1="-49.7024" y1="652.4249" x2="-48.9953" y2="651.7178" gradientTransform="matrix(324.2667 0 0 -324.2667 16197.4639 211709.5469)">
			<stop  offset="0" style="stop-color:#DAE5F4"/>
			<stop  offset="0.1717" style="stop-color:#DAE5F4"/>
			<stop  offset="0.2" style="stop-color:#DAE5F4"/>
			<stop  offset="0.2006" style="stop-color:#EBECF4"/>
			<stop  offset="0.2013" style="stop-color:#F6F1F4"/>
			<stop  offset="0.2022" style="stop-color:#FDF4F4"/>
			<stop  offset="0.205" style="stop-color:#FFF5F4"/>
			<stop  offset="0.2522" style="stop-color:#FFF5F4"/>
			<stop  offset="0.26" style="stop-color:#FFF5F4"/>
			<stop  offset="0.26" style="stop-color:#DAE5F4"/>
			<stop  offset="0.3974" style="stop-color:#DAE5F4"/>
			<stop  offset="0.42" style="stop-color:#DAE5F4"/>
			<stop  offset="0.4206" style="stop-color:#EBECF4"/>
			<stop  offset="0.4212" style="stop-color:#F6F1F4"/>
			<stop  offset="0.4222" style="stop-color:#FDF4F4"/>
			<stop  offset="0.425" style="stop-color:#FFF5F4"/>
			<stop  offset="0.4894" style="stop-color:#FFF5F4"/>
			<stop  offset="0.5" style="stop-color:#FFF5F4"/>
			<stop  offset="0.5001" style="stop-color:#EEEEF4"/>
			<stop  offset="0.5002" style="stop-color:#E3E9F4"/>
			<stop  offset="0.5004" style="stop-color:#DCE6F4"/>
			<stop  offset="0.501" style="stop-color:#DAE5F4"/>
			<stop  offset="0.7062" style="stop-color:#DAE5F4"/>
			<stop  offset="0.74" style="stop-color:#DAE5F4"/>
			<stop  offset="0.741" style="stop-color:#FFF5F4"/>
			<stop  offset="0.8346" style="stop-color:#FFF5F4"/>
			<stop  offset="0.85" style="stop-color:#FFF5F4"/>
			<stop  offset="0.851" style="stop-color:#DAE5F4"/>
		</linearGradient>
		<circle style="fill:url(#SVGID_1_);" cx="195.267" cy="264.533" r="162.133"/>
		<path style="fill:#D3DFF2;" d="M306.2,290.133h-47.693c-0.142,0.349-0.254,0.713-0.401,1.058l33.673,33.673
			c9.991,9.991,9.991,26.19,0,36.181c-9.991,9.991-26.19,9.991-36.181,0l-33.673-33.673c-0.346,0.147-0.709,0.259-1.058,0.401
			v47.693c0,14.138-11.462,25.6-25.6,25.6c-14.139,0-25.6-11.462-25.6-25.6v-47.693c-0.349-0.142-0.713-0.254-1.058-0.401
			l-33.673,33.673c-6.452,6.517-15.899,9.082-24.761,6.723c-8.862-2.359-15.784-9.281-18.143-18.143
			c-2.359-8.862,0.206-18.309,6.723-24.761l33.673-33.673c-0.147-0.346-0.259-0.709-0.401-1.058H84.333
			c-14.138,0-25.6-11.462-25.6-25.6c0-14.138,11.462-25.6,25.6-25.6h47.693c0.142-0.349,0.254-0.713,0.401-1.058l-33.673-33.673
			c-6.517-6.452-9.082-15.899-6.723-24.762c2.359-8.862,9.281-15.784,18.143-18.143c8.862-2.359,18.309,0.206,24.761,6.723
			l33.673,33.673c0.346-0.147,0.709-0.259,1.058-0.401V153.6c0-14.139,11.462-25.6,25.6-25.6c14.138,0,25.6,11.462,25.6,25.6v47.693
			c0.349,0.142,0.713,0.254,1.058,0.401l33.673-33.673c9.991-9.991,26.19-9.991,36.181,0c9.991,9.991,9.991,26.19,0,36.181
			l-33.673,33.673c0.147,0.346,0.259,0.709,0.401,1.058H306.2c14.138,0,25.6,11.462,25.6,25.6
			C331.8,278.672,320.339,290.133,306.2,290.133z"/>
		<circle style="fill:#A2C0F5;" cx="195.267" cy="264.533" r="51.2"/>
		<path style="fill:#D3DFF2;" d="M485.4,179.2v110.933c-0.028,9.414-7.652,17.039-17.067,17.067h-17.067
			c-9.414-0.028-17.039-7.653-17.067-17.067V179.2c0-14.138,11.462-25.6,25.6-25.6C473.939,153.6,485.4,165.062,485.4,179.2z"/>
		<g>
			<path style="fill:#A2C0F5;" d="M220.867,307.2l0.768,1.195c-16.217,9.785-36.519,9.785-52.737,0l0.769-1.195v-85.333
				l-0.768-1.195c16.217-9.785,36.519-9.785,52.737,0l-0.769,1.195V307.2z"/>
			<rect x="434.2" y="196.267" style="fill:#A2C0F5;" width="51.2" height="34.133"/>
		</g>
	</g>
	<g>
		<path style="fill:#438CFF;" d="M61.208,240.408c-9.769,9.756-12.695,24.438-7.413,37.194
			c5.282,12.756,17.731,21.071,31.538,21.065h28.55l-20.167,20.162c-9.737,9.774-12.643,24.444-7.368,37.192
			c5.275,12.748,17.696,21.075,31.493,21.112h0.004c9.065,0.024,17.76-3.599,24.125-10.054l20.162-20.162v28.55
			c0,18.851,15.282,34.133,34.133,34.133s34.133-15.282,34.133-34.133v-28.55l20.137,20.137c8.606,8.664,21.187,12.067,32.988,8.923
			c11.8-3.144,21.021-12.354,24.176-24.151c3.156-11.797-0.234-24.381-8.889-32.997l-20.162-20.162h28.55
			c18.851,0,34.133-15.282,34.133-34.133c0-18.851-15.282-34.133-34.133-34.133h-28.55l20.137-20.137
			c9.753-9.768,12.673-24.443,7.403-37.2c-5.27-12.757-17.696-21.093-31.499-21.129h-0.004c-9.065-0.024-17.76,3.599-24.125,10.054
			L230.4,182.15V153.6c0-18.851-15.282-34.133-34.133-34.133s-34.133,15.282-34.133,34.133v28.55l-20.162-20.167
			c-13.443-13.002-34.771-13.011-48.225-0.021c-6.446,6.377-10.075,15.065-10.079,24.132c-0.005,9.067,3.615,17.759,10.054,24.143
			l20.162,20.162h-28.55C76.278,230.38,67.59,233.984,61.208,240.408z M213.333,327.775v47.692c0,9.426-7.641,17.067-17.067,17.067
			c-9.426,0-17.067-7.641-17.067-17.067v-47.692c-0.383-3.711-2.803-6.898-6.275-8.262c-3.199-1.349-6.896-0.626-9.35,1.829
			l-33.696,33.696c-3.173,3.224-7.51,5.036-12.033,5.029h-0.004c-9.415-0.102-17.028-7.698-17.15-17.113
			c0.022-4.538,1.857-8.879,5.096-12.058l33.671-33.671c2.375-2.477,3.097-6.107,1.85-9.304l-0.012-0.031
			c12.705,30.018,47.166,44.265,77.36,31.983C215.439,321.178,213.334,324.303,213.333,327.775z M230.4,239.197
			c11.378,14.975,11.378,35.697,0,50.672V239.197z M213.333,303.583c-10.867,4.822-23.267,4.822-34.133,0v-78.1
			c10.867-4.822,23.266-4.822,34.133,0V303.583z M162.133,289.869c-11.378-14.975-11.378-35.697,0-50.672V289.869z M307.2,247.467
			c9.426,0,17.067,7.641,17.067,17.067S316.626,281.6,307.2,281.6h-47.692c-3.711,0.383-6.898,2.803-8.262,6.275
			c-1.349,3.199-0.626,6.896,1.829,9.35l33.696,33.696c3.227,3.186,5.039,7.535,5.029,12.069c-0.009,4.535-1.84,8.875-5.079,12.048
			c-6.719,6.501-17.387,6.49-24.092-0.025l-33.671-33.671c-2.482-2.366-6.106-3.086-9.304-1.85l-0.031,0.012
			c30.018-12.706,44.265-47.166,31.983-77.36c1.305,3.217,4.43,5.323,7.902,5.323L307.2,247.467z M179.2,201.292V153.6
			c0-9.426,7.641-17.067,17.067-17.067c9.426,0,17.067,7.641,17.067,17.067v47.692c0.383,3.711,2.803,6.898,6.275,8.262
			c3.199,1.343,6.893,0.62,9.35-1.829l33.696-33.696c3.173-3.224,7.51-5.036,12.033-5.029h0.004
			c6.923-0.022,13.172,4.142,15.816,10.54c2.644,6.398,1.158,13.759-3.762,18.63l-33.671,33.672
			c-2.375,2.477-3.097,6.107-1.85,9.304l0.012,0.031c-12.705-30.018-47.166-44.265-77.36-31.983
			C177.095,207.89,179.2,204.764,179.2,201.292z M139.458,231.842l-33.696-33.696c-3.222-3.181-5.034-7.521-5.029-12.049
			c0.005-4.528,1.825-8.864,5.054-12.038c6.695-6.572,17.419-6.574,24.117-0.004l33.671,33.671c2.479,2.371,6.107,3.093,9.304,1.85
			l0.031-0.012c-30.018,12.705-44.265,47.166-31.983,77.36c-1.305-3.217-4.43-5.323-7.902-5.323H85.333
			c-9.426,0-17.067-7.641-17.067-17.067s7.641-17.067,17.067-17.067h47.692c3.711-0.383,6.898-2.803,8.262-6.275
			C142.637,237.993,141.913,234.296,139.458,231.842z"/>
		<path style="fill:#438CFF;" d="M469.333,68.267c0-1.046,0.387-25.6,34.133-25.6c4.713,0,8.533-3.821,8.533-8.533
			s-3.821-8.533-8.533-8.533c-16.339-1.278-32.272,5.511-42.667,18.182c-10.395-12.671-26.327-19.461-42.667-18.182
			c-4.713,0-8.533,3.821-8.533,8.533s3.82,8.533,8.533,8.533c32.721,0,34.087,23.046,34.133,25.6v26.786
			c-10.029-6.843-22.004-10.253-34.133-9.719c-4.713,0-8.533,3.821-8.533,8.533c0,4.713,3.82,8.533,8.533,8.533
			c32.721,0,34.087,23.046,34.133,25.6v18.278c-15.031,3.869-25.553,17.401-25.6,32.922v110.933
			c0.015,14.132,11.468,25.585,25.6,25.6v23.675c-0.004,5.391-1.393,10.691-4.033,15.392l-60.221,107.062
			c-5.567,9.879-16.023,15.995-27.362,16.004h-19.317v-8.533c-0.001-2.263-0.9-4.433-2.5-6.033l-34.831-34.831
			c56.422-37.015,89.849-100.439,88.492-167.905c-1.357-67.466-37.308-129.495-95.173-164.211l-21.125-77.37
			C273.214,7.783,263.069-0.008,251.479,0H141.054c-11.567-0.015-21.7,7.746-24.7,18.917L95.22,96.327
			c-48.3,28.879-81.801,77.183-91.924,132.54c-0.552,3.001,0.54,6.07,2.865,8.047s5.529,2.562,8.402,1.535s4.98-3.511,5.524-6.514
			C36.938,140.852,120.426,77.622,212.666,86.082s162.832,85.824,162.832,178.451s-70.592,169.99-162.832,178.451
			c-92.24,8.461-175.727-54.769-192.578-145.851c-0.544-3.003-2.651-5.487-5.524-6.514c-2.874-1.028-6.077-0.442-8.402,1.535
			c-2.325,1.977-3.417,5.045-2.865,8.047c9.631,52.631,40.439,99.004,85.224,128.28L53.7,463.3c-1.6,1.6-2.5,3.77-2.5,6.033v34.133
			c0,4.713,3.821,8.533,8.533,8.533H332.8c4.713,0,8.533-3.821,8.533-8.533v-8.533h19.317c17.504-0.015,33.644-9.455,42.238-24.704
			l60.221-107.063c4.075-7.256,6.219-15.437,6.225-23.759v-23.675c14.132-0.015,25.585-11.468,25.6-25.6V179.2
			c-0.047-15.521-10.569-29.052-25.6-32.922V128c0-1.046,0.387-25.6,34.133-25.6c4.713,0,8.533-3.821,8.533-8.533
			c0-4.713-3.821-8.533-8.533-8.533c-12.129-0.533-24.105,2.877-34.133,9.719V68.267L469.333,68.267z M115.856,85.547l16.982-62.205
			c1.034-3.69,4.385-6.249,8.217-6.275h110.425c3.855,0.033,7.218,2.623,8.233,6.342l16.971,62.16
			C225.556,62.507,166.989,62.499,115.856,85.547L115.856,85.547z M324.267,494.933h-256v-22.067l35.4-35.399
			c57.828,31.097,127.399,31.111,185.239,0.038l35.361,35.361V494.933z M477.867,221.867h-34.133V204.8h34.133V221.867z
			 M469.333,298.667h-17.067c-4.71-0.006-8.527-3.823-8.533-8.533v-51.2h34.133v51.2
			C477.861,294.844,474.044,298.661,469.333,298.667L469.333,298.667z M477.867,179.2v8.533h-34.133V179.2
			c0-9.426,7.641-17.067,17.067-17.067C470.226,162.133,477.867,169.774,477.867,179.2z"/>
		<circle style="fill:#438CFF;" cx="8.533" cy="264.533" r="8.533"/>
	</g>
</g>
<g>
</g>
<g>
</g>
<g>
</g>
<g>
</g>
<g>
</g>
<g>
</g>
<g>
</g>
<g>
</g>
<g>
</g>
<g>
</g>
<g>
</g>
<g>
</g>
<g>
</g>
<g>
</g>
<g>
</g>
</svg>
