<?xml version="1.0" encoding="iso-8859-1"?>
<!-- Generator: Adobe Illustrator 19.0.0, SVG Export Plug-In . SVG Version: 6.00 Build 0)  -->
<svg version="1.1" id="Capa_1" xmlns="http://www.w3.org/2000/svg" xmlns:xlink="http://www.w3.org/1999/xlink" x="0px" y="0px"
	 viewBox="0 0 511.876 511.876" style="enable-background:new 0 0 511.876 511.876;" xml:space="preserve">
<g>
	<g transform="translate(1 1)">
		<g>
			<polygon style="fill:#FFFFFF;" points="323.142,408.476 323.142,417.01 317.45,502.343 260.567,502.343 254.875,417.01 
				254.875,408.476 			"/>
			<path style="fill:#FFFFFF;" d="M237.808,382.876h102.4c4.713,0,8.533,3.821,8.533,8.533v17.067c0,4.713-3.821,8.533-8.533,8.533
				h-102.4c-4.713,0-8.533-3.82-8.533-8.533V391.41C229.275,386.697,233.096,382.876,237.808,382.876z"/>
		</g>
		<polygon style="fill:#A2C0F5;" points="357.275,408.476 357.275,417.01 351.583,502.343 294.7,502.343 289.008,417.01 
			289.008,408.476 		"/>
		<polygon style="fill:#D3DFF2;" points="331.675,408.476 331.675,417.01 331.078,426.14 325.958,502.343 286.192,502.343 
			284.23,472.988 282.608,448.668 280.475,417.01 280.475,408.476 		"/>
		<path style="fill:#A2C0F5;" d="M271.942,382.876h102.4c4.713,0,8.533,3.821,8.533,8.533v17.067c0,4.713-3.821,8.533-8.533,8.533
			h-102.4c-4.713,0-8.533-3.82-8.533-8.533V391.41C263.408,386.697,267.229,382.876,271.942,382.876z"/>
		<path style="fill:#D3DFF2;" d="M263.408,382.876h85.333c4.713,0,8.533,3.821,8.533,8.533v17.067c0,4.713-3.821,8.533-8.533,8.533
			h-85.333c-4.713,0-8.533-3.82-8.533-8.533V391.41C254.875,386.697,258.696,382.876,263.408,382.876z"/>
		<path style="fill:#7FAAF8;" d="M417.008,263.41c0,0,0,93.867-110.933,68.267c1.403-3.046,3.028-5.983,4.864-8.789
			C321.776,305.991,352.155,269.895,417.008,263.41z"/>
		<path style="fill:#D3DFF2;" d="M417.008,263.41c-25.055,34.274-63.759,55.977-106.069,59.477
			C321.776,305.991,352.155,269.895,417.008,263.41z"/>
		<g>
			<path style="fill:#EC9130;" d="M165.36,177.223c1.021,3.269,2.335,6.439,3.925,9.472c-21.862,15.835-34.48,41.454-33.707,68.437
				h-0.256c-0.765-27.001,11.889-52.629,33.792-68.437c-1.555-3.049-2.867-6.217-3.925-9.472
				c-26.673,4.256-53.727-4.943-72.277-24.576c-0.001-0.023,0.008-0.045,0.024-0.061s0.038-0.025,0.061-0.024
				c18.09,18.968,44.164,28.135,70.144,24.661h0.171c0.657-0.018,1.312-0.075,1.963-0.171
				C165.36,177.138,165.36,177.138,165.36,177.223z"/>
			<path style="fill:#EC9130;" d="M204.016,221.34c0.817,0.408,1.655,0.765,2.484,1.146c-0.847-0.385-1.744-0.636-2.569-1.061
				L204.016,221.34z"/>
			<path style="fill:#EC9130;" d="M206.501,222.486c1.512,0.688,3.034,1.33,4.586,1.893
				C209.538,223.806,208.009,223.18,206.501,222.486z"/>
			<path style="fill:#EC9130;" d="M237.894,297.458l-0.085,0.085c-19.61-18.565-28.805-45.606-24.576-72.277
				c-0.728-0.236-1.419-0.622-2.145-0.886c0.801,0.296,1.59,0.63,2.402,0.886C209.289,251.876,218.409,278.854,237.894,297.458
				L237.894,297.458z"/>
			<path style="fill:#EC9130;" d="M318.192,252.743c-18.467-5.065-34.751-16.071-46.336-31.317c0.085,0,0.085-0.085,0.171-0.085
				C283.571,236.572,299.786,247.602,318.192,252.743L318.192,252.743z"/>
			<path style="fill:#EC9130;" d="M382.875,152.476c0,0.023-0.008,0.045-0.024,0.061c-0.016,0.016-0.038,0.025-0.061,0.024
				c-18.599-19.493-45.581-28.614-72.192-24.405c0-0.085-0.085-0.171-0.085-0.256C337.21,123.658,364.283,132.853,382.875,152.476z"
				/>
		</g>
		<path style="fill:#D3DFF2;" d="M310.427,177.223c-1.021,3.269-2.335,6.439-3.925,9.472c21.862,15.835,34.48,41.454,33.707,68.437
			c-6.012,0.399-12.05-0.09-17.92-1.451c-1.365-0.256-2.731-0.597-4.096-0.939c-18.407-5.142-34.622-16.172-46.165-31.403
			c-0.085,0-0.085,0.085-0.171,0.085l-0.085-0.085c-3.049,1.555-6.216,2.868-9.472,3.925c4.199,26.61-4.921,53.588-24.405,72.192
			c-19.484-18.604-28.605-45.582-24.405-72.192c-3.255-1.058-6.423-2.37-9.472-3.925l-0.085,0.085c-0.085,0-0.085-0.085-0.171-0.085
			c-12.372,16.417-30.193,27.885-50.261,32.341c-5.875,1.325-11.908,1.814-17.92,1.451c-0.774-26.983,11.845-52.603,33.707-68.438
			c-1.591-3.033-2.904-6.203-3.925-9.472c0-0.085,0-0.085-0.085-0.171c-0.65,0.096-1.306,0.153-1.963,0.171h-0.171
			c-25.98,3.474-52.054-5.693-70.144-24.661c18.599-19.493,45.581-28.614,72.192-24.405c0-0.085,0.085-0.171,0.085-0.256
			c1.03-3.17,2.314-6.252,3.84-9.216c-21.892-15.817-34.543-41.439-33.792-68.437c26.983-0.773,52.603,11.845,68.437,33.707
			c0.866-0.433,1.793-0.72,2.673-1.12c1.17-0.539,2.361-1.033,3.557-1.491c0.92-0.357,1.793-0.832,2.729-1.143
			c-0.171-2.529-0.171-5.066,0-7.595c-1.977-24.415,7.254-48.404,25.088-65.195l0.085,0.085l0.085-0.085
			c17.834,16.791,27.065,40.78,25.088,65.195c0.17,2.529,0.17,5.066,0,7.595c0.936,0.312,1.809,0.787,2.729,1.143
			c1.195,0.458,2.385,0.951,3.555,1.49c0.882,0.401,1.809,0.688,2.676,1.121c15.835-21.862,41.454-34.48,68.437-33.707
			c0.751,26.998-11.9,52.62-33.792,68.437c1.526,2.964,2.81,6.046,3.84,9.216c0,0.085,0.085,0.171,0.085,0.256
			c26.611-4.209,53.594,4.913,72.192,24.406c-18.09,18.968-44.164,28.135-70.144,24.661h-0.171
			c-0.657-0.018-1.312-0.075-1.963-0.171C310.427,177.138,310.427,177.138,310.427,177.223z"/>
		<g>
			<path style="fill:#EC9130;" d="M203.76,221.34c0.085,0,0.085,0.085,0.171,0.085c-12.412,16.438-30.304,27.882-50.432,32.256
				C173.567,249.225,191.388,237.757,203.76,221.34L203.76,221.34z"/>
			<path style="fill:#EC9130;" d="M92.998,152.562c-0.023,0-0.045-0.008-0.061-0.024c-0.016-0.016-0.025-0.038-0.024-0.061
				c18.592-19.624,45.665-28.818,72.363-24.576c0,0.085-0.085,0.171-0.085,0.256C138.578,123.947,111.596,133.069,92.998,152.562
				L92.998,152.562z"/>
			<path style="fill:#EC9130;" d="M264.701,224.379c-0.726,0.264-1.417,0.65-2.145,0.886c4.229,26.671-4.966,53.712-24.576,72.278
				l-0.085-0.085c19.484-18.604,28.605-45.582,24.405-72.192C263.111,225.009,263.9,224.676,264.701,224.379z"/>
			<path style="fill:#EC9130;" d="M269.285,222.487c-1.508,0.693-3.036,1.32-4.584,1.893
				C266.253,223.816,267.773,223.174,269.285,222.487z"/>
			<path style="fill:#EC9130;" d="M271.856,221.426c-0.826,0.425-1.723,0.676-2.571,1.061c0.829-0.381,1.669-0.738,2.486-1.146
				L271.856,221.426z"/>
			<path style="fill:#EC9130;" d="M310.598,177.223c-1.058,3.255-2.371,6.422-3.925,9.472
				c21.903,15.809,34.557,41.436,33.792,68.437h-0.256c0.773-26.983-11.845-52.603-33.707-68.437
				c1.591-3.033,2.905-6.203,3.925-9.472c0-0.085,0-0.085,0.085-0.171c0.65,0.096,1.306,0.153,1.963,0.171h0.171
				c25.98,3.474,52.054-5.693,70.144-24.661c0.023-0.001,0.045,0.008,0.061,0.024c0.016,0.016,0.025,0.038,0.024,0.061
				C364.324,172.28,337.271,181.479,310.598,177.223L310.598,177.223z"/>
		</g>
		
			<linearGradient id="SVGID_1_" gradientUnits="userSpaceOnUse" x1="-49.6789" y1="650.8304" x2="-48.9588" y2="650.11" gradientTransform="matrix(153.476 0 0 -153.4062 7804.9785 99938.8203)">
			<stop  offset="0" style="stop-color:#DAE5F4"/>
			<stop  offset="0.1717" style="stop-color:#DAE5F4"/>
			<stop  offset="0.2" style="stop-color:#DAE5F4"/>
			<stop  offset="0.2006" style="stop-color:#EBECF4"/>
			<stop  offset="0.2013" style="stop-color:#F6F1F4"/>
			<stop  offset="0.2022" style="stop-color:#FDF4F4"/>
			<stop  offset="0.205" style="stop-color:#FFF5F4"/>
			<stop  offset="0.2522" style="stop-color:#FFF5F4"/>
			<stop  offset="0.26" style="stop-color:#FFF5F4"/>
			<stop  offset="0.26" style="stop-color:#DAE5F4"/>
			<stop  offset="0.3974" style="stop-color:#DAE5F4"/>
			<stop  offset="0.42" style="stop-color:#DAE5F4"/>
			<stop  offset="0.4206" style="stop-color:#EBECF4"/>
			<stop  offset="0.4212" style="stop-color:#F6F1F4"/>
			<stop  offset="0.4222" style="stop-color:#FDF4F4"/>
			<stop  offset="0.425" style="stop-color:#FFF5F4"/>
			<stop  offset="0.4894" style="stop-color:#FFF5F4"/>
			<stop  offset="0.5" style="stop-color:#FFF5F4"/>
			<stop  offset="0.5001" style="stop-color:#EEEEF4"/>
			<stop  offset="0.5002" style="stop-color:#E3E9F4"/>
			<stop  offset="0.5004" style="stop-color:#DCE6F4"/>
			<stop  offset="0.501" style="stop-color:#DAE5F4"/>
			<stop  offset="0.7062" style="stop-color:#DAE5F4"/>
			<stop  offset="0.74" style="stop-color:#DAE5F4"/>
			<stop  offset="0.741" style="stop-color:#FFF5F4"/>
			<stop  offset="0.8346" style="stop-color:#FFF5F4"/>
			<stop  offset="0.85" style="stop-color:#FFF5F4"/>
			<stop  offset="0.851" style="stop-color:#DAE5F4"/>
		</linearGradient>
		<path style="fill:url(#SVGID_1_);" d="M310.394,128.115c-1.02-3.265-2.332-6.431-3.921-9.46
			c-7.409-15.079-19.607-27.277-34.686-34.686c-3.045-1.553-6.209-2.864-9.46-3.92c-7.898-2.716-16.193-4.099-24.545-4.091
			c-2.351,0-4.669,0.129-6.963,0.34c-8.94-1.023-17.993,0.269-26.29,3.751c-2.742,1.071-5.383,2.383-7.893,3.92
			c-13.166,8.103-23.328,20.282-28.942,34.686c-1.306,3.075-2.399,6.235-3.271,9.46c-1.449,5.319-2.398,10.761-2.835,16.256
			c-0.209,1.9-0.337,3.821-0.402,5.761c-0.024,0.855-0.176,1.666-0.176,2.528c0,0.862,0.152,1.673,0.176,2.528
			c0.065,1.941,0.193,3.862,0.402,5.762c0.437,5.495,1.386,10.937,2.835,16.255c0.873,3.224,1.966,6.385,3.271,9.46
			c5.614,14.405,15.776,26.583,28.942,34.686c2.51,1.538,5.151,2.85,7.893,3.92c8.297,3.482,17.35,4.774,26.29,3.751
			c2.294,0.211,4.612,0.34,6.963,0.34c8.352,0.007,16.647-1.375,24.545-4.091c3.251-1.056,6.414-2.367,9.46-3.92
			c15.079-7.409,27.277-19.607,34.686-34.686c1.589-3.029,2.901-6.195,3.921-9.46C315.848,161.296,315.848,144.024,310.394,128.115
			L310.394,128.115z"/>
	</g>
	<path style="fill:#438CFF;" d="M85.475,151.852c-0.39,2.136,0.039,4.341,1.202,6.176c0.121,0.27,0.256,0.532,0.406,0.786
		c17.238,18.765,41.758,29.145,67.229,28.459c1.01,0,2.135-0.155,3.168-0.184c-19.93,17.634-30.849,43.313-29.722,69.901
		c0.065,0.261,0.144,0.519,0.235,0.772c0.323,1.521,1.053,2.927,2.111,4.067c0.386,0.401,0.811,0.762,1.27,1.078
		c0.399,0.296,0.825,0.555,1.271,0.774c0.52,0.227,1.061,0.4,1.616,0.517c0.337,0.134,0.683,0.244,1.035,0.331
		c1.525,0.148,3.056,0.214,4.588,0.2c24.908-0.555,48.485-11.352,65.178-29.847c-1.552,26.514,8.875,52.326,28.409,70.322
		c0.692,0.383,1.385,0.766,2.078,1.149c1.019,0.452,2.117,0.697,3.231,0.722l0.007-0.002l0.026,0.006
		c1.132-0.025,2.246-0.277,3.279-0.74c0.685-0.378,1.369-0.757,2.054-1.135c14.361-13.109,23.845-30.707,26.898-49.91
		c10.796,20.258,24.814,58.266,27.077,120.052h-59.313c-9.422,0.009-17.057,7.645-17.067,17.067v17.067
		c0.009,9.422,7.645,17.057,17.067,17.067h9.343l7.765,77.65c0.437,4.362,4.108,7.683,8.491,7.683h85.333
		c4.384,0,8.055-3.321,8.492-7.683l7.765-77.65h9.343c9.422-0.009,17.057-7.645,17.067-17.067V392.41
		c-0.009-9.422-7.645-17.057-17.067-17.067h-60.147c-0.411-11.639-1.148-22.644-2.284-32.756c9.741,1.942,19.644,2.965,29.577,3.056
		c19.434,0.773,38.538-5.196,54.075-16.896c29.638-23.579,29.979-62.683,29.979-64.337c-0.001-2.411-1.022-4.708-2.809-6.326
		c-1.787-1.618-4.175-2.404-6.574-2.166c-62.372,6.239-94.53,38.231-108.676,57.887c-4.186-23.372-11.841-45.988-22.712-67.097
		c14.966,11.375,33.167,17.687,51.962,18.018c1.532,0.014,3.063-0.052,4.588-0.2c0.307-0.078,0.608-0.175,0.904-0.289
		c0.616-0.123,1.216-0.314,1.789-0.572c0.407-0.204,0.797-0.442,1.165-0.711c1.739-1.205,2.959-3.022,3.413-5.089
		c0.106-0.287,0.195-0.58,0.268-0.878c1.127-26.588-9.791-52.267-29.722-69.901c1.033,0.029,2.157,0.184,3.168,0.184
		c25.471,0.683,49.99-9.696,67.229-28.459c0.168-0.209,0.209-0.466,0.354-0.685c1.821-2.792,1.841-6.391,0.052-9.204
		c-0.121-0.27-0.256-0.532-0.406-0.786c-17.984-19.516-43.77-29.942-70.265-28.409c19.844-17.629,30.709-43.246,29.59-69.766
		c-0.029-0.264-0.18-0.472-0.232-0.727c-0.241-1.082-0.669-2.114-1.264-3.05c-0.886-1.342-2.156-2.386-3.645-2.995
		c-0.525-0.232-1.074-0.407-1.636-0.523c-0.249-0.094-0.503-0.175-0.76-0.243c-26.521-1.124-52.141,9.743-69.767,29.592
		c1.535-26.495-8.891-52.283-28.409-70.266c-0.21-0.168-0.468-0.21-0.688-0.355c-0.48-0.316-0.991-0.58-1.526-0.788
		c-0.483-0.203-0.985-0.359-1.498-0.466c-2.141-0.394-4.352,0.038-6.188,1.208c-0.265,0.119-0.524,0.253-0.775,0.401
		c-19.518,17.983-29.944,43.77-28.409,70.265c-17.625-19.849-43.245-30.715-69.766-29.59c-0.253,0.028-0.452,0.173-0.697,0.222
		c-1.078,0.236-2.106,0.658-3.04,1.247c-1.799,1.24-3.063,3.114-3.539,5.247c-0.102,0.269-0.19,0.543-0.262,0.821
		c-1.12,26.525,9.75,52.148,29.601,69.777c-26.489-1.491-52.26,8.923-70.276,28.398c-0.168,0.209-0.209,0.466-0.354,0.685
		C86.136,149.752,85.712,150.777,85.475,151.852L85.475,151.852z M270.331,476.821l-5.026-50.278h55.305L270.331,476.821z
		 M342.021,494.81h-65.546l68.267-68.267h4.105L342.021,494.81z M375.354,409.476H238.808V392.41h136.533L375.354,409.476z
		 M408.404,274.26c-2.306,16.016-10.327,30.658-22.583,41.225c-15.279,12.088-37.246,15.812-65.442,11.146
		C341.071,297.594,373.013,278.59,408.404,274.26L408.404,274.26z M105.921,153.481c13.877-11.27,31.34-17.183,49.21-16.661
		c-2.209,10.995-2.209,22.32,0.001,33.316C137.263,170.662,119.798,164.752,105.921,153.481z M309.735,200.848
		c13.042,12.255,21.226,28.803,23.049,46.607c-17.803-1.825-34.35-10.009-46.604-23.052
		C295.492,218.162,303.494,210.16,309.735,200.848L309.735,200.848z M286.18,82.55c12.253-13.04,28.798-21.223,46.598-23.047
		c-1.821,17.801-10.003,34.348-23.044,46.602C303.494,96.793,295.492,88.791,286.18,82.55L286.18,82.55z M307.075,153.476
		c0,37.703-30.564,68.267-68.267,68.267s-68.267-30.564-68.267-68.267s30.564-68.267,68.267-68.267
		C276.493,85.253,307.032,115.792,307.075,153.476L307.075,153.476z M191.437,224.403c-12.253,13.039-28.798,21.221-46.598,23.044
		c1.822-17.8,10.004-34.346,23.043-46.599C174.123,210.16,182.125,218.162,191.437,224.403L191.437,224.403z M167.882,106.105
		c-13.041-12.254-21.225-28.801-23.049-46.603c17.802,1.823,34.35,10.006,46.604,23.047
		C182.125,88.791,174.123,96.793,167.882,106.105L167.882,106.105z M238.811,286.367c-11.273-13.877-17.186-31.343-16.661-49.214
		c10.996,2.21,22.321,2.21,33.317,0C255.992,255.023,250.081,272.488,238.811,286.367L238.811,286.367z M322.483,170.142
		c2.211-11.002,2.211-22.333-0.001-33.335c17.878-0.534,35.351,5.384,49.225,16.672C357.836,164.77,340.361,170.686,322.483,170.142
		L322.483,170.142z M238.806,20.586c11.273,13.877,17.186,31.343,16.661,49.214c-10.996-2.21-22.321-2.21-33.317,0
		C221.625,51.93,227.536,34.465,238.806,20.586L238.806,20.586z"/>
</g>
<g>
</g>
<g>
</g>
<g>
</g>
<g>
</g>
<g>
</g>
<g>
</g>
<g>
</g>
<g>
</g>
<g>
</g>
<g>
</g>
<g>
</g>
<g>
</g>
<g>
</g>
<g>
</g>
<g>
</g>
</svg>
