<svg id="Слой_1" data-name="Слой 1" xmlns="http://www.w3.org/2000/svg" xmlns:xlink="http://www.w3.org/1999/xlink" viewBox="0 0 758.24 758.24"><defs><style>.cls-1{fill:#fff;stroke-width:34px;stroke:url(#Безымянный_градиент_137);}.cls-1,.cls-3,.cls-4{stroke-miterlimit:10;}.cls-2{fill:url(#Безымянный_градиент_102);}.cls-3,.cls-4{fill:none;stroke-width:21.61px;}.cls-3{stroke:url(#Безымянный_градиент_36);}.cls-4{stroke:url(#Безымянный_градиент_36-2);}.cls-5{fill:url(#Безымянный_градиент_102-2);}.cls-6{fill:url(#Безымянный_градиент_102-3);}.cls-7{fill:url(#Безымянный_градиент_102-4);}</style><linearGradient id="Безымянный_градиент_137" x1="189.53" y1="707.5" x2="568.71" y2="50.74" gradientUnits="userSpaceOnUse"><stop offset="0" stop-color="#0091bf"/><stop offset="1" stop-color="#041230"/></linearGradient><radialGradient id="Безымянный_градиент_102" cx="397.76" cy="526.22" r="143.78" gradientUnits="userSpaceOnUse"><stop offset="0" stop-color="#00cce9"/><stop offset="1" stop-color="#041230"/></radialGradient><radialGradient id="Безымянный_градиент_36" cx="384.82" cy="536.18" r="53.76" gradientUnits="userSpaceOnUse"><stop offset="0" stop-color="#00c5e9"/><stop offset="1" stop-color="#041230"/></radialGradient><radialGradient id="Безымянный_градиент_36-2" cx="192.4" cy="543.92" r="46.01" xlink:href="#Безымянный_градиент_36"/><radialGradient id="Безымянный_градиент_102-2" cx="557.1" cy="488.49" r="119.84" gradientTransform="translate(129.13 -116.35) rotate(13.47)" xlink:href="#Безымянный_градиент_102"/><radialGradient id="Безымянный_градиент_102-3" cx="655.52" cy="619.94" r="59.53" gradientTransform="translate(162.47 -135.66) rotate(13.47)" xlink:href="#Безымянный_градиент_102"/><radialGradient id="Безымянный_градиент_102-4" cx="634.5" cy="450.75" r="122.93" xlink:href="#Безымянный_градиент_102"/></defs><circle class="cls-1" cx="379.12" cy="379.12" r="362.12"/><path class="cls-2" d="M483.94,392.62H411.3v-21.9H389.4v21.9H322.59V520.75h-33.4a22.44,22.44,0,0,0-22.45,22.45v81.64a67.69,67.69,0,0,1,46.73-18.64,65.27,65.27,0,0,1,9.12.63,67.93,67.93,0,0,1,58.8,67.29,63.61,63.61,0,0,1-.45,7.61H430.1a100.73,100.73,0,0,1,98.68-96.13ZM420.42,558V543.2A22.44,22.44,0,0,0,398,520.75H348.88V417.81H454.74L492,558Z" transform="translate(-121.27 -121.09)"/><circle class="cls-3" cx="384.82" cy="536.18" r="42.95"/><circle class="cls-4" cx="192.4" cy="543.92" r="35.21"/><rect class="cls-5" x="541.89" y="322.51" width="30.42" height="331.95" rx="15.21" transform="translate(-219.74 22.14) rotate(-13.47)"/><rect class="cls-6" x="575.22" y="604.73" width="160.6" height="30.42" rx="15.21" transform="translate(-247.66 48.69) rotate(-13.47)"/><path class="cls-7" d="M655,377.61l-4.5-18.75a34.08,34.08,0,0,0-41.08-25.21L603.85,335a34.11,34.11,0,0,0-25.22,41.12l13.56,56.62a12.18,12.18,0,0,0,14.69,9l71.85-17.21a12.18,12.18,0,0,1,14.69,9l27.08,113a34.12,34.12,0,0,1-25.23,41.13l-52.9,12.67a34.12,34.12,0,0,1-41.12-25.23l-10.91-45.56a12.17,12.17,0,0,1,9-14.68h0a12.17,12.17,0,0,1,14.68,9l4.5,18.75a34.11,34.11,0,0,0,41.12,25.23l5.5-1.32a34.11,34.11,0,0,0,25.23-41.12l-13.57-56.65a12.18,12.18,0,0,0-14.69-9L590.27,477a12.18,12.18,0,0,1-14.69-9L548.5,355a34.13,34.13,0,0,1,25.23-41.13l52.92-12.67a34.07,34.07,0,0,1,41.09,25.2l10.92,45.59a12.17,12.17,0,0,1-9,14.68h0A12.17,12.17,0,0,1,655,377.61Z" transform="translate(-121.27 -121.09)"/></svg>