<svg id="Слой_1" data-name="Слой 1" xmlns="http://www.w3.org/2000/svg" xmlns:xlink="http://www.w3.org/1999/xlink" viewBox="0 0 732.46 288.62"><defs><style>.cls-1,.cls-8,.cls-9{fill:#fff;}.cls-1,.cls-3,.cls-4{stroke-miterlimit:10;}.cls-1{stroke-width:12.94px;stroke:url(#Безымянный_градиент_137);}.cls-2{fill:url(#Безымянный_градиент_102);}.cls-3,.cls-4{fill:none;stroke-width:8.23px;}.cls-3{stroke:url(#Безымянный_градиент_36);}.cls-4{stroke:url(#Безымянный_градиент_36-2);}.cls-5{fill:url(#Безымянный_градиент_102-2);}.cls-6{fill:url(#Безымянный_градиент_102-3);}.cls-7{fill:url(#Безымянный_градиент_102-4);}.cls-9{font-size:32.93px;font-family:Bauhaus93, "Bauhaus 93";}</style><linearGradient id="Безымянный_градиент_137" x1="72.14" y1="269.31" x2="216.48" y2="19.31" gradientUnits="userSpaceOnUse"><stop offset="0" stop-color="#0091bf"/><stop offset="1" stop-color="#041230"/></linearGradient><radialGradient id="Безымянный_градиент_102" cx="238.95" cy="510.11" r="54.73" gradientUnits="userSpaceOnUse"><stop offset="0" stop-color="#00cce9"/><stop offset="1" stop-color="#041230"/></radialGradient><radialGradient id="Безымянный_градиент_36" cx="146.48" cy="204.1" r="20.46" gradientUnits="userSpaceOnUse"><stop offset="0" stop-color="#00c5e9"/><stop offset="1" stop-color="#041230"/></radialGradient><radialGradient id="Безымянный_градиент_36-2" cx="73.24" cy="207.04" r="17.52" xlink:href="#Безымянный_градиент_36"/><radialGradient id="Безымянный_градиент_102-2" cx="299.6" cy="495.75" r="45.62" gradientTransform="translate(123.74 -56.16) rotate(13.47)" xlink:href="#Безымянный_градиент_102"/><radialGradient id="Безымянный_градиент_102-3" cx="337.06" cy="545.78" r="22.66" gradientTransform="translate(136.43 -63.51) rotate(13.47)" xlink:href="#Безымянный_градиент_102"/><radialGradient id="Безымянный_градиент_102-4" cx="329.06" cy="481.38" r="46.79" xlink:href="#Безымянный_градиент_102"/></defs><circle class="cls-1" cx="144.31" cy="144.31" r="137.84"/><path class="cls-2" d="M271.75,459.26H244.1v-8.34h-8.34v8.34H210.34V508H197.62a8.54,8.54,0,0,0-8.54,8.54v31.08a25.75,25.75,0,0,1,17.78-7.1,23.56,23.56,0,0,1,3.48.25,25.85,25.85,0,0,1,22.38,25.61,22.88,22.88,0,0,1-.18,2.89h18.72a38.35,38.35,0,0,1,37.56-36.59ZM247.57,522.2v-5.63A8.54,8.54,0,0,0,239,508H220.34V468.84h40.3l14.17,53.36Z" transform="translate(-133.7 -355.9)"/><circle class="cls-3" cx="146.48" cy="204.1" r="16.35"/><circle class="cls-4" cx="73.24" cy="207.04" r="13.4"/><rect class="cls-5" x="293.81" y="432.57" width="11.58" height="126.36" rx="5.79" transform="translate(-240.95 -272.46) rotate(-13.47)"/><rect class="cls-6" x="306.5" y="540" width="61.13" height="11.58" rx="5.79" transform="translate(-251.58 -262.35) rotate(-13.47)"/><path class="cls-7" d="M336.85,453.54l-1.71-7.13a13,13,0,0,0-15.64-9.6l-2.1.5A13,13,0,0,0,307.79,453L313,474.52a4.63,4.63,0,0,0,5.59,3.43l27.35-6.55a4.64,4.64,0,0,1,5.59,3.43l10.31,43a13,13,0,0,1-9.61,15.66l-20.13,4.82a13,13,0,0,1-15.65-9.6l-4.16-17.34a4.64,4.64,0,0,1,3.43-5.59h0a4.63,4.63,0,0,1,5.59,3.43l1.71,7.14a13,13,0,0,0,15.66,9.6l2.09-.5a13,13,0,0,0,9.6-15.66l-5.16-21.56a4.64,4.64,0,0,0-5.59-3.43l-27.35,6.55a4.63,4.63,0,0,1-5.59-3.43l-10.31-43a13,13,0,0,1,9.6-15.66l20.15-4.82A13,13,0,0,1,341.72,434l4.15,17.35a4.63,4.63,0,0,1-3.43,5.59h0A4.64,4.64,0,0,1,336.85,453.54Z" transform="translate(-133.7 -355.9)"/><path class="cls-8" d="M444.61,461.14h13v25.91c0,2,.33,3.37,1,4.05s1.93,1,3.85,1h.67v12.66h-3.45q-7.1,0-11.06-4.14t-4-11.49Z" transform="translate(-133.7 -355.9)"/><path class="cls-8" d="M488.13,460.05A21.5,21.5,0,0,1,504,466.8a22.91,22.91,0,1,1-39.19,16.13,21.88,21.88,0,0,1,6.76-16.23A22.67,22.67,0,0,1,488.13,460.05Zm-.38,12.85a9.08,9.08,0,0,0-6.81,2.94A10.34,10.34,0,0,0,481,490a9.38,9.38,0,0,0,13.61,0,10.45,10.45,0,0,0,0-14.22A9.08,9.08,0,0,0,487.75,472.9Z" transform="translate(-133.7 -355.9)"/><path class="cls-8" d="M515.87,504.76V473.31a13.25,13.25,0,0,1,3.54-9.55,12.17,12.17,0,0,1,9.2-3.71q6.72,0,10.33,6.17a14.18,14.18,0,0,1,4.72-4.74,12.55,12.55,0,0,1,6.24-1.43q5.86,0,9,3.71T562,474.43v30.33h-13V476.38a7.63,7.63,0,0,0-.33-2.8,1.37,1.37,0,0,0-1.36-.68c-1.28,0-1.92,1.09-1.92,3.26v28.6h-13V476.38a7.31,7.31,0,0,0-.35-2.78,1.37,1.37,0,0,0-1.37-.7q-1.92,0-1.92,3.48v28.38Z" transform="translate(-133.7 -355.9)"/><path class="cls-8" d="M585.71,482.87v11.5H582v10.39H569V477q0-8.06,4.4-12.51t12.35-4.46q7.66,0,11.34,4.05t3.67,12.47v28.19h-13V477.44a7.25,7.25,0,0,0-.61-3.55,2.33,2.33,0,0,0-2.17-1q-3,0-3,4.54v5.43Z" transform="translate(-133.7 -355.9)"/><path class="cls-8" d="M639.36,461.14,627,480.53v24.23h-13V480.53l-12.43-19.39h13.16l5.62,9,6-9Zm-6.29-12.33-8.92,8.72H616.2l7.95-8.72Z" transform="translate(-133.7 -355.9)"/><path class="cls-8" d="M678.38,461v12.43a7.33,7.33,0,0,0-2.18-.48,3.36,3.36,0,0,0-2.52,1.09,3.61,3.61,0,0,0-1,2.61,7.12,7.12,0,0,0,1.15,3.33l1,1.72a18.07,18.07,0,0,1,2.68,9,14.48,14.48,0,0,1-4.52,10.77,15.22,15.22,0,0,1-11,4.41,14.47,14.47,0,0,1-6.2-1.44V491.78A6.32,6.32,0,0,0,659,493a4.19,4.19,0,0,0,2.83-1,3.06,3.06,0,0,0,1.13-2.44c0-.64-.6-2-1.82-4.19a20.51,20.51,0,0,1-2.9-10.22,14.6,14.6,0,0,1,4.39-10.63,14.23,14.23,0,0,1,10.49-4.46A16,16,0,0,1,678.38,461Z" transform="translate(-133.7 -355.9)"/><path class="cls-8" d="M705.63,460.05a21.5,21.5,0,0,1,15.9,6.75,22.91,22.91,0,1,1-39.19,16.13,21.88,21.88,0,0,1,6.76-16.23A22.67,22.67,0,0,1,705.63,460.05ZM697.74,447a5.74,5.74,0,0,1,5.72,5.72,5.73,5.73,0,1,1-5.72-5.72Zm7.51,25.95a9.09,9.09,0,0,0-6.81,2.94,10.34,10.34,0,0,0,0,14.19,9.38,9.38,0,0,0,13.61,0,10.43,10.43,0,0,0,0-14.22A9.07,9.07,0,0,0,705.25,472.9ZM712.76,447a5.74,5.74,0,0,1,0,11.47,5.74,5.74,0,1,1,0-11.47Z" transform="translate(-133.7 -355.9)"/><path class="cls-8" d="M779.54,461.14v31.41a13.3,13.3,0,0,1-3.55,9.59,12.12,12.12,0,0,1-9.17,3.7c-4.51,0-8-2-10.35-6.16a14.49,14.49,0,0,1-4.73,4.74,12.51,12.51,0,0,1-6.23,1.42q-5.88,0-9-3.7c-2.09-2.48-3.13-6-3.13-10.68V461.14h13v28.37a7.16,7.16,0,0,0,.34,2.78A1.35,1.35,0,0,0,748,493c1.28,0,1.92-1.07,1.92-3.22v-28.6h13v28.37a6.91,6.91,0,0,0,.36,2.75,1.37,1.37,0,0,0,1.37.7q1.92,0,1.92-3.45V461.14Z" transform="translate(-133.7 -355.9)"/><path class="cls-8" d="M800.37,473.67v31.09h-13V461.14h16.9q11.13,0,17.42,5.05,7.47,6,7.47,16.39,0,9.9-6.39,16.17T806.35,505c-.79,0-2.08,0-3.87-.13V492.07h2.08q11.34,0,11.34-9.49,0-8.91-11.15-8.91Z" transform="translate(-133.7 -355.9)"/><path class="cls-8" d="M851.11,482.87v11.5h-3.74v10.39h-13V477q0-8.06,4.39-12.51t12.35-4.46q7.68,0,11.35,4.05t3.67,12.47v28.19h-13V477.44a7.25,7.25,0,0,0-.61-3.55,2.33,2.33,0,0,0-2.17-1c-2,0-3,1.51-3,4.54v5.43Z" transform="translate(-133.7 -355.9)"/><text class="cls-9" transform="translate(331.37 189.34)">ÖNDÜRIJIDEN - SARP EDIJÄ</text></svg>