<svg id="Слой_1" data-name="Слой 1" xmlns="http://www.w3.org/2000/svg" viewBox="0 0 704.27 158.89"><defs><style>.cls-1,.cls-2{fill:#fff;}.cls-2{font-size:40.97px;font-family:Bauhaus93, "Bauhaus 93";}.cls-3,.cls-4{fill:none;stroke:#fff;stroke-miterlimit:10;}.cls-3{stroke-width:5px;}.cls-4{stroke-width:1.19px;}</style></defs><path class="cls-1" d="M395.46,456h14.7v29.36c0,2.3.37,3.82,1.1,4.59s2.2,1.14,4.37,1.14h.76v14.33h-3.91q-8,0-12.53-4.69t-4.49-13Z" transform="translate(-168.89 -422.36)"/><path class="cls-1" d="M444.78,454.78a24.34,24.34,0,0,1,18,7.64,26,26,0,1,1-44.41,18.28A24.79,24.79,0,0,1,426,462.31,25.7,25.7,0,0,1,444.78,454.78Zm-.44,14.55a10.27,10.27,0,0,0-7.71,3.33,11.7,11.7,0,0,0,0,16.08,10.61,10.61,0,0,0,15.42,0,11.82,11.82,0,0,0,0-16.11A10.29,10.29,0,0,0,444.34,469.33Z" transform="translate(-168.89 -422.36)"/><path class="cls-1" d="M476.21,505.43V469.8a15,15,0,0,1,4-10.82,13.79,13.79,0,0,1,10.43-4.2q7.61,0,11.7,7a16.13,16.13,0,0,1,5.36-5.38,14.12,14.12,0,0,1,7.06-1.61q6.66,0,10.21,4.2t3.55,12.09v34.36h-14.7V473.28a8.59,8.59,0,0,0-.38-3.17,1.55,1.55,0,0,0-1.54-.78c-1.45,0-2.18,1.24-2.18,3.7v32.4H495V473.28a8.3,8.3,0,0,0-.39-3.15,1.59,1.59,0,0,0-1.56-.8q-2.18,0-2.17,3.95v32.15Z" transform="translate(-168.89 -422.36)"/><path class="cls-1" d="M555.36,480.63v13h-4.24v11.76h-14.7V474q0-9.12,5-14.17t14-5.05q8.7,0,12.86,4.58t4.16,14.14v31.93h-14.7v-31a8.21,8.21,0,0,0-.69-4,2.65,2.65,0,0,0-2.46-1.13c-2.29,0-3.44,1.72-3.44,5.14v6.16Z" transform="translate(-168.89 -422.36)"/><path class="cls-1" d="M616.15,456l-14,22v27.44H587.47V478l-14.08-22h14.92l6.37,10.17L601.52,456ZM609,442l-10.1,9.89h-9l9-9.89Z" transform="translate(-168.89 -422.36)"/><path class="cls-1" d="M660.36,455.79v14.09a8.09,8.09,0,0,0-2.46-.55,3.83,3.83,0,0,0-2.86,1.24,4.08,4.08,0,0,0-1.2,3,8.14,8.14,0,0,0,1.31,3.77l1.12,1.95a20.48,20.48,0,0,1,3,10.22,16.41,16.41,0,0,1-5.12,12.2,17.25,17.25,0,0,1-12.51,5,16.37,16.37,0,0,1-7-1.63v-14.3a7.14,7.14,0,0,0,3.73,1.34,4.74,4.74,0,0,0,3.21-1.1,3.49,3.49,0,0,0,1.28-2.77c0-.73-.68-2.31-2.06-4.74a23.26,23.26,0,0,1-3.29-11.59,16.55,16.55,0,0,1,5-12,16.12,16.12,0,0,1,11.9-5.05A18.26,18.26,0,0,1,660.36,455.79Z" transform="translate(-168.89 -422.36)"/><path class="cls-1" d="M691.25,454.78a24.34,24.34,0,0,1,18,7.64,26,26,0,1,1-44.41,18.28,24.79,24.79,0,0,1,7.66-18.39A25.72,25.72,0,0,1,691.25,454.78Zm-9-14.85a6.49,6.49,0,1,1-4.61,1.9A6.25,6.25,0,0,1,682.3,439.93Zm8.51,29.4a10.3,10.3,0,0,0-7.71,3.33,11.73,11.73,0,0,0,0,16.08,10.61,10.61,0,0,0,15.42,0,11.82,11.82,0,0,0,0-16.11A10.29,10.29,0,0,0,690.81,469.33Zm8.51-29.4a6.49,6.49,0,1,1-4.61,1.9A6.25,6.25,0,0,1,699.32,439.93Z" transform="translate(-168.89 -422.36)"/><path class="cls-1" d="M775,456V491.6a15.1,15.1,0,0,1-4,10.87,13.76,13.76,0,0,1-10.39,4.19q-7.68,0-11.73-7a16.37,16.37,0,0,1-5.36,5.37,14.15,14.15,0,0,1-7.06,1.61q-6.68,0-10.22-4.19t-3.54-12.1V456h14.7v32.15a8.15,8.15,0,0,0,.38,3.15,1.54,1.54,0,0,0,1.54.76c1.44,0,2.17-1.22,2.17-3.65V456h14.7v32.15a8,8,0,0,0,.4,3.12,1.56,1.56,0,0,0,1.55.79q2.18,0,2.18-3.91V456Z" transform="translate(-168.89 -422.36)"/><path class="cls-1" d="M798.61,470.2v35.23h-14.7V456h19.15q12.6,0,19.73,5.72,8.48,6.84,8.48,18.58,0,11.22-7.25,18.32t-18.64,7.09c-.9,0-2.36-.05-4.38-.14V491.06h2.35q12.85,0,12.85-10.75,0-10.11-12.63-10.11Z" transform="translate(-168.89 -422.36)"/><path class="cls-1" d="M856.11,480.63v13h-4.24v11.76h-14.7V474q0-9.12,5-14.17t14-5.05q8.68,0,12.86,4.58t4.16,14.14v31.93h-14.7v-31a8.21,8.21,0,0,0-.69-4,2.65,2.65,0,0,0-2.46-1.13c-2.29,0-3.44,1.72-3.44,5.14v6.16Z" transform="translate(-168.89 -422.36)"/><text class="cls-2" transform="translate(226.57 130.1) scale(0.98 1)"><tspan xml:space="preserve">ÖNDÜRIJIDEN    SARP EDIJÄ</tspan></text><line class="cls-3" y1="156.39" x2="704.27" y2="156.39"/><path class="cls-1" d="M270.67,457.54H243V449.2h-8.33v8.34H209.26v48.77H196.55a8.54,8.54,0,0,0-8.55,8.54v31.08a25.77,25.77,0,0,1,17.79-7.1,23.43,23.43,0,0,1,3.47.25,25.85,25.85,0,0,1,22.38,25.61,25.06,25.06,0,0,1-.17,2.89h18.71A38.35,38.35,0,0,1,287.74,531ZM246.5,520.48v-5.63a8.54,8.54,0,0,0-8.55-8.54H219.26V467.12h40.3l14.17,53.36Z" transform="translate(-168.89 -422.36)"/><rect class="cls-1" x="292.73" y="430.85" width="11.58" height="126.36" rx="5.79" transform="translate(-275.77 -339.21) rotate(-13.47)"/><rect class="cls-1" x="305.42" y="538.28" width="61.13" height="11.58" rx="5.79" transform="translate(-286.39 -329.11) rotate(-13.47)"/><path class="cls-1" d="M335.78,451.82l-1.71-7.14a13,13,0,0,0-15.64-9.59l-2.11.5a13,13,0,0,0-9.6,15.66l5.16,21.55a4.64,4.64,0,0,0,5.59,3.43l27.35-6.55a4.63,4.63,0,0,1,5.59,3.43l10.31,43a13,13,0,0,1-9.6,15.66L331,536.61a13,13,0,0,1-15.65-9.6l-4.15-17.34a4.63,4.63,0,0,1,3.43-5.59h0a4.64,4.64,0,0,1,5.59,3.43l1.71,7.14a13,13,0,0,0,15.65,9.6l2.09-.5a13,13,0,0,0,9.61-15.66l-5.17-21.56a4.64,4.64,0,0,0-5.59-3.43l-27.35,6.55a4.64,4.64,0,0,1-5.59-3.43l-10.31-43a13,13,0,0,1,9.6-15.66L325,422.72a13,13,0,0,1,15.64,9.59l4.16,17.35a4.64,4.64,0,0,1-3.43,5.59h0A4.63,4.63,0,0,1,335.78,451.82Z" transform="translate(-168.89 -422.36)"/><path class="cls-1" d="M279.11,578.74a20.47,20.47,0,1,1,20.46-20.47A20.49,20.49,0,0,1,279.11,578.74Zm0-32.7a12.24,12.24,0,1,0,12.23,12.23A12.25,12.25,0,0,0,279.11,546Z" transform="translate(-168.89 -422.36)"/><path class="cls-1" d="M205.86,578.74a17.52,17.52,0,1,1,17.52-17.52A17.53,17.53,0,0,1,205.86,578.74Zm0-26.81a9.29,9.29,0,1,0,9.29,9.29A9.3,9.3,0,0,0,205.86,551.93Z" transform="translate(-168.89 -422.36)"/><rect class="cls-4" x="666.7" y="525.28" width="1.98" height="16.38" rx="0.99" transform="translate(-350.54 206.03) rotate(-45)"/><rect class="cls-4" x="470.95" y="115.17" width="33.68" height="1.98" rx="0.99"/><rect class="cls-4" x="659.5" y="542.66" width="16.38" height="1.98" rx="0.99" transform="translate(-357.74 209.01) rotate(-45)"/></svg>