<svg id="Слой_1" data-name="Слой 1" xmlns="http://www.w3.org/2000/svg" viewBox="0 0 32 32"><defs><style>.cls-1,.cls-2{fill:none;stroke:#000;stroke-miterlimit:10;}.cls-1{stroke-width:0.75px;}.cls-2{stroke-width:0.25px;}</style></defs><title>esma logo</title><path class="cls-1" d="M28.85,13.1H25.19a.58.58,0,0,1,0-.14C23.9,9.55,20.61,5.88,16,5.88S8.2,9.45,6.75,12.79c0,.11-.06.21-.09.31H3.15a1.66,1.66,0,0,0-1.77,1.52v10a1.66,1.66,0,0,0,1.77,1.52h25.7a1.67,1.67,0,0,0,1.78-1.52v-10A1.67,1.67,0,0,0,28.85,13.1Z"/><path class="cls-2" d="M3.63,16v.3s.68-.11.67.75l.13,3.24V23.3l3.46.05s.32.1.62-.47a3,3,0,0,0,.34-1.18l-.21-.07a2.86,2.86,0,0,1-.69,1,1.34,1.34,0,0,1-.66.15H5.66l-.07-2.95L8,19.78v-.51H5.6l-.08-2.5s-.19-.29.35-.31H7.16a1.15,1.15,0,0,1,.82.48,2.53,2.53,0,0,1,.22.89h.27a5.07,5.07,0,0,0-.11-1.56s0-.29-.54-.32A37.73,37.73,0,0,0,3.63,16Z"/><path class="cls-2" d="M9.82,21H9.5l0,1.37s-.12.36.71.88a2.82,2.82,0,0,0,2.28.21,2,2,0,0,0,1.42-1.84c.12-1-.84-1.82-1.7-2.33a5.63,5.63,0,0,1-1.07-.8,1.78,1.78,0,0,1-.64-1,1.46,1.46,0,0,1,.13-.74,1.21,1.21,0,0,1,1.46-.42,1.77,1.77,0,0,1,.79.66,2.51,2.51,0,0,1,.44,1.38l.25.09s.06-.83.06-.91a2.3,2.3,0,0,0-.23-1A1.79,1.79,0,0,0,12,15.8a2,2,0,0,0-2.36,2.9,3.59,3.59,0,0,0,1.46,1.37,6.45,6.45,0,0,1,1,.83,1.8,1.8,0,0,1,.57,1,1.11,1.11,0,0,1-1.05,1.22s-.64.23-1.32-.55C10.37,22.54,9.71,21.56,9.82,21Z"/><path class="cls-2" d="M14.89,16s-.07,6.79,0,7.42h.47s.05-1.66,0-2.49c0,0,0-2.95,0-3.26,0,0,2.32,5.36,2.36,5.71h.37l2-5.37s0,2.27,0,3.81c0,0,0,1.74,1.21,2l.63.06v-.28s-.63,0-.63-1.88L21.41,16H20.22l-1.95,5.57L16,16Z"/><path class="cls-2" d="M22.22,23.39h.48l.8-2h2.41s.33,1.29.83,1.58a1.83,1.83,0,0,0,1.61.35v-.23a1.54,1.54,0,0,1-.87-.94l-2-6.13h-.42Z"/><polygon class="cls-2" points="23.72 20.81 25.77 20.81 24.85 18.01 23.72 20.81"/><ellipse cx="16" cy="8.87" rx="0.75" ry="0.64"/><path d="M16,11.18s-.55.67-.11,2.35a3.48,3.48,0,0,1-.29-1,3.43,3.43,0,0,1,.13-1.59s.15-.17-.17-.5a2.91,2.91,0,0,0-.79-.59,1.56,1.56,0,0,0-.71-.18c-.38,0-.41.43-.42.68a1.72,1.72,0,0,0,.44,1.1,1.41,1.41,0,0,0,1.11.43,1.21,1.21,0,0,1-1.13-.13s-.61-.29-.71-1.44c0-.38,0-1,.6-1a2.33,2.33,0,0,1,1.3.35,1.48,1.48,0,0,1,.33.28l.42.52.42-.53a2.13,2.13,0,0,1,1.71-.59c.59.1.55.76.5,1.15a2,2,0,0,1-.84,1.37s0,0-.06,0-.62.24-.92,0A1.52,1.52,0,0,0,18,11.26a2.27,2.27,0,0,0,.22-.54,1.51,1.51,0,0,0,.06-.52.78.78,0,0,0-.09-.42c-.12-.18-.39-.17-.59-.12a3,3,0,0,0-1.17.69,1.06,1.06,0,0,0-.17.2.38.38,0,0,0,0,.37,2.33,2.33,0,0,1,.16.74,3.43,3.43,0,0,1,0,1,4.23,4.23,0,0,1-.27.86A3.67,3.67,0,0,0,16,11.18Z"/><path d="M13.44,11.12l.19.27-.35.46s.06.15.08.17a.8.8,0,0,0,.15.21,1,1,0,0,0,1,.27,1.08,1.08,0,0,0,.67-.57s0,.08,0,.11a.85.85,0,0,1-.11.26.94.94,0,0,1-.73.44,1.45,1.45,0,0,1-1.42-.87Z"/><path d="M15.35,11.93a.82.82,0,0,1,0,.31,1.35,1.35,0,0,1-.15.65,1.23,1.23,0,0,1-1,.64c-.18,0-.18-.18-.18-.28A1.48,1.48,0,0,0,14,13a1.11,1.11,0,0,0,0-.19l-.29-.1a2.27,2.27,0,0,0,.16,1l.1,0,.27,0a1.16,1.16,0,0,0,.71-.26A1.46,1.46,0,0,0,15.35,11.93Z"/><path d="M14.59,13.84l.27-.15.38.4a2,2,0,0,0,.5-.61,2.13,2.13,0,0,1-.54,1Z"/><path d="M18.53,11.12l-.2.27.35.46s-.06.15-.07.17a.83.83,0,0,1-.16.21,1,1,0,0,1-1,.27,1.06,1.06,0,0,1-.67-.57s0,.08,0,.11a1.17,1.17,0,0,0,.1.26,1,1,0,0,0,.74.44A1.43,1.43,0,0,0,19,11.87Z"/><path d="M16.61,11.93a1.09,1.09,0,0,0,0,.31,1.47,1.47,0,0,0,.15.65,1.26,1.26,0,0,0,1,.64c.17,0,.17-.18.17-.28a1.49,1.49,0,0,1,0-.21s0-.19,0-.19l.28-.1a2.37,2.37,0,0,1-.15,1l-.1,0a1.27,1.27,0,0,1-.28,0,1.16,1.16,0,0,1-.7-.26A1.47,1.47,0,0,1,16.61,11.93Z"/><path d="M17.37,13.84l-.26-.15-.39.4a2.2,2.2,0,0,1-.5-.61,2.19,2.19,0,0,0,.55,1Z"/></svg>