<svg id="Слой_1" data-name="Слой 1" xmlns="http://www.w3.org/2000/svg" viewBox="0 0 32 32"><defs><style>.cls-1{fill:none;stroke:#000;stroke-miterlimit:10;stroke-width:0.25px;}</style></defs><title>galam ruler</title><path class="cls-1" d="M12.12,30.28h0a1.2,1.2,0,0,1-1.2-1.19V22.58H13.3v6.51a1.18,1.18,0,0,1-1.17,1.19Z"/><rect class="cls-1" x="10.91" y="5.8" width="2.4" height="16.45"/><path class="cls-1" d="M19.8,29.77H16.09a1.37,1.37,0,0,1-1.35-1.35h0v-25a1.35,1.35,0,0,1,1.35-1.31H19.8a1.34,1.34,0,0,1,1.35,1.35h0v25A1.35,1.35,0,0,1,19.8,29.77Z"/><path class="cls-1" d="M16,6.24V8.11H17v.32H16v1.94h1.81v.55H16v1.87H17v.28H16V15h1.81v.52H16v1.91H17v.34H16v1.78h1.81v.61H16V22.1H17v.3H16v1.91h1.81v.52H16v3.29a1.33,1.33,0,0,0,1.32,1.33h-.61a1.33,1.33,0,0,1-1.33-1.33V3.76a1.32,1.32,0,0,1,1.31-1.32h.61a1.32,1.32,0,0,0-1.32,1.32v2h1.83v.5H16Z"/><path class="cls-1" d="M12.42,2.67c0,.49-.17.81-.33.81s-.39-.35-.35-.82.17-.94.33-.94S12.42,2.18,12.42,2.67Z"/><path class="cls-1" d="M11.7,3l-.8,2.4h2.4L12.47,3v.14l-.12.28c0,.08-.13.28-.25.24s-.25-.33-.31-.47S11.68,3.08,11.7,3Z"/></svg>