<svg id="Слой_1" data-name="Слой 1" xmlns="http://www.w3.org/2000/svg" viewBox="0 0 32 32" fill="#fff"><defs><style>.cls-1{fill:#fff;}</style></defs><title>homepage_Монтажная область 1</title><path class="cls-1" d="M24,32H19a.49.49,0,0,1-.46-.51V21.39a.69.69,0,0,0-.66-.72H14.06a.67.67,0,0,0-.66.7V31.49a.49.49,0,0,1-.47.51H8.18a3.45,3.45,0,0,1-3.29-3.6V16L3.56,17.27a2,2,0,0,1-3-.24A2.53,2.53,0,0,1,0,15.49a2.47,2.47,0,0,1,.74-1.78L14.56.61a2.1,2.1,0,0,1,2.88,0l4.24,4V1.17A1.14,1.14,0,0,1,22.76,0h2.41a1.12,1.12,0,0,1,1.07,1.17h0V9l5,4.75h0A2.44,2.44,0,0,1,32,15.48,2.55,2.55,0,0,1,31.48,17a2,2,0,0,1-3,.24l-1.16-1.11V28.4A3.45,3.45,0,0,1,24,32Zm-4.5-1H24a2.44,2.44,0,0,0,2.33-2.54V15a.48.48,0,0,1,.26-.45.42.42,0,0,1,.5.07L29,16.48a1.1,1.1,0,0,0,.89.32,1.3,1.3,0,0,0,1.16-1.27,1.44,1.44,0,0,0-.43-1h0L25.47,9.64a.55.55,0,0,1-.16-.39V1.17A.15.15,0,0,0,25.17,1H22.76a.14.14,0,0,0-.15.14h0V5.75a.52.52,0,0,1-.27.47.43.43,0,0,1-.53-.09l-5-4.74a1.23,1.23,0,0,0-.76-.32h0a1.09,1.09,0,0,0-.88.32L1.36,14.47a1.4,1.4,0,0,0-.43,1,1.29,1.29,0,0,0,1.16,1.27A1.09,1.09,0,0,0,3,16.43l2.12-2a.41.41,0,0,1,.45,0,.52.52,0,0,1,.28.47V28.4a2.44,2.44,0,0,0,2.33,2.54h4.36V21.39a1.68,1.68,0,0,1,1.58-1.75h3.85a1.69,1.69,0,0,1,1.55,1.75Z"/></svg>