<svg id="Слой_1" data-name="Слой 1" xmlns="http://www.w3.org/2000/svg" viewBox="0 0 32 32" fill="#fff"><title>language _Монтажная область 1_Монтажная область 1</title><path d="M4,7.35A14.77,14.77,0,0,1,30.6,18.54l1.12.5A16,16,0,0,0,2.77,7Z"/><polygon points="4.63 7.35 2.52 8.84 2.4 6.23 4.63 7.35"/><path d="M29.73,25.63l-.13-2.74-2.36,1.5.63.37A14.79,14.79,0,0,1,1.4,13.5L.29,13A16,16,0,0,0,29,25.32Z"/><path d="M16,2.31a13.68,13.68,0,0,0,0,27.36h0A13.68,13.68,0,0,0,16,2.31Zm-.59,1.24V9.44A24.62,24.62,0,0,1,11.13,9a16.66,16.66,0,0,1,.78-2A5.89,5.89,0,0,1,15.41,3.55Zm1.24,0A5.87,5.87,0,0,1,20.14,7a17.16,17.16,0,0,1,.79,2,26.68,26.68,0,0,1-4.28.46Zm-4,.4a10.44,10.44,0,0,0-1.72,2.49A15.65,15.65,0,0,0,10,8.65,15.74,15.74,0,0,1,6.9,7.47,12.35,12.35,0,0,1,12.59,4Zm6.82,0a12.56,12.56,0,0,1,5.74,3.58A14.47,14.47,0,0,1,22,8.78a16.24,16.24,0,0,0-.9-2.25A10.06,10.06,0,0,0,19.41,4ZM6.06,8.43A17,17,0,0,0,9.64,9.77a25,25,0,0,0-.73,5.57H3.58A12.44,12.44,0,0,1,6.06,8.43Zm19.88,0a12.4,12.4,0,0,1,2.48,6.93H23.09a24.68,24.68,0,0,0-.72-5.54,15.55,15.55,0,0,0,3.57-1.29ZM10.8,10.1a26.35,26.35,0,0,0,4.61.52v4.77H10.1A23.06,23.06,0,0,1,10.8,10.1Zm10.41,0a23.36,23.36,0,0,1,.69,5.27H16.6V10.63a25.52,25.52,0,0,0,4.61-.51ZM3.58,16.59H9a25.79,25.79,0,0,0,.72,5.53,15.41,15.41,0,0,0-3.63,1.4A12.5,12.5,0,0,1,3.58,16.59Zm6.58,0h5.31v4.76a25.52,25.52,0,0,0-4.61.51,22.88,22.88,0,0,1-.76-5.27Zm6.5,0H22a23.13,23.13,0,0,1-.69,5.3,24.66,24.66,0,0,0-4.61-.52Zm6.5,0h5.39a12.44,12.44,0,0,1-2.61,7,17,17,0,0,0-3.58-1.34,24.81,24.81,0,0,0,.73-5.62Zm-7.69,6v5.88A5.83,5.83,0,0,1,12,25a18,18,0,0,1-.8-2,25,25,0,0,1,4.23-.46Zm1.24,0A23.46,23.46,0,0,1,21,23a17.53,17.53,0,0,1-.78,2,5.85,5.85,0,0,1-3.6,3.43Zm-6.63.72A16.7,16.7,0,0,0,11,25.52,10.23,10.23,0,0,0,12.71,28a12.53,12.53,0,0,1-5.9-3.56A14.76,14.76,0,0,1,10,23.27Zm12.06,0a16.64,16.64,0,0,1,3.13,1.18A12.34,12.34,0,0,1,19.53,28a10.42,10.42,0,0,0,1.73-2.48,19.11,19.11,0,0,0,.77-2.2Z"/></svg>