<?xml version="1.0" encoding="utf-8"?>
<!-- Generator: Adobe Illustrator 22.1.0, SVG Export Plug-In . SVG Version: 6.00 Build 0)  -->
<svg version="1.1" xmlns="http://www.w3.org/2000/svg" xmlns:xlink="http://www.w3.org/1999/xlink" x="0px" y="0px"
	 viewBox="0 0 32 32" fill="#fff" style="enable-background:new 0 0 32 32;" xml:space="preserve">
<g id="Layer_4">
</g>
<g id="Layer_3">
</g>
<g id="Layer_5">
	<g>
		<path d="M27.8,0H11.1C8.8,0,6.9,1.7,6.9,3.9v7.6h2V3.9c0-1.1,1-2,2.2-2h16.7c1.2,0,2.2,0.9,2.2,2v24.3c0,1.1-1,2-2.2,2H11.1
			c-1.2,0-2.2-0.9-2.2-2v-8.7h-2v8.7c0,2.1,1.9,3.9,4.2,3.9h16.7c2.3,0,4.2-1.7,4.2-3.9V3.9C32,1.7,30.1,0,27.8,0z"/>
		<path d="M14.5,22.2c-0.4,0.4-0.4,1,0,1.3c0.4,0.4,1.1,0.4,1.5,0l8.2-7.5c0.4-0.4,0.4-1,0-1.3L16,7.2c-0.4-0.4-1.1-0.4-1.5,0
			c-0.4,0.4-0.4,1,0,1.3l6.3,5.8H0.9c-0.5,0-0.9,0.4-0.9,0.9c0,0.5,0.4,0.9,0.9,0.9h20.2L14.5,22.2z"/>
	</g>
</g>
</svg>
