<svg id="Слой_1" data-name="Слой 1" xmlns="http://www.w3.org/2000/svg" viewBox="0 0 32 32" fill="#fff"><title>logout-01</title><path d="M3.41,0H17.06a3.66,3.66,0,0,1,3.41,3.85v7.57H18.86V3.85a1.94,1.94,0,0,0-1.8-2H3.41a1.94,1.94,0,0,0-1.8,2v24.3a1.94,1.94,0,0,0,1.8,2H17.06a1.94,1.94,0,0,0,1.8-2V19.4h1.61v8.75A3.66,3.66,0,0,1,17.06,32H3.41A3.66,3.66,0,0,1,0,28.15V3.85A3.66,3.66,0,0,1,3.41,0Z"/><path d="M23.9,22.82a1.06,1.06,0,0,0,0,1.34h0a.78.78,0,0,0,1.19,0l6.67-7.46a1.06,1.06,0,0,0,0-1.34h0L25.14,7.83a.78.78,0,0,0-1.19,0,1,1,0,0,0,0,1.33h0L29.07,15H12.84a.87.87,0,0,0,0,1.73h16.5Z"/></svg>