<svg xmlns="http://www.w3.org/2000/svg" viewBox="0 0 24 24">
  <path d="M5 3C3.897 3 3 3.897 3 5L3 9C3 10.103 3.897 11 5 11L9 11C10.103 11 11 10.103 11 9L11 5C11 3.897 10.103 3 9 3L5 3 z M 15 3C13.897 3 13 3.897 13 5L13 9C13 10.103 13.897 11 15 11L19 11C20.103 11 21 10.103 21 9L21 5C21 3.897 20.103 3 19 3L15 3 z M 6 6L8 6L8 8L6 8L6 6 z M 17 6C17.552 6 18 6.448 18 7C18 7.552 17.552 8 17 8C16.448 8 16 7.552 16 7C16 6.448 16.448 6 17 6 z M 5 13C3.897 13 3 13.897 3 15L3 19C3 20.103 3.897 21 5 21L9 21C10.103 21 11 20.103 11 19L11 15C11 13.897 10.103 13 9 13L5 13 z M 15 13C13.897 13 13 13.897 13 15L13 19C13 20.103 13.897 21 15 21L19 21C20.103 21 21 20.103 21 19L21 15C21 13.897 20.103 13 19 13L15 13 z M 7 16C7.552 16 8 16.448 8 17C8 17.552 7.552 18 7 18C6.448 18 6 17.552 6 17C6 16.448 6.448 16 7 16 z M 16 16L18 16L18 18L16 18L16 16 z" fill="#5B5B5B" />
</svg>