<svg id="Слой_1" data-name="Слой 1" xmlns="http://www.w3.org/2000/svg" viewBox="0 0 32 32"><title>penti svg</title><path d="M11,8.63A5.66,5.66,0,0,0,9.26,4.49a3.78,3.78,0,0,0-3.4-.9,7,7,0,0,0-2.52.91A11.67,11.67,0,0,0,1.55,5.9a3.31,3.31,0,0,0-1,1.74c-.08.56.08.84.29.79l.1,0c.64-.45,1.26-1.12,1.9-1.58a3.9,3.9,0,0,1,1.61-.66c-.24,1-.85,9.23-.85,9.23S2.81,27.85,2.84,28.2s.3.42.65.08a2.91,2.91,0,0,0,.75-1.88c.06-1.64.15-3.27.25-4.91,0-.28,0-.56,0-.84a24.16,24.16,0,0,0,2.21-1.56,17.23,17.23,0,0,0,2.43-3.3,17.68,17.68,0,0,0,1.34-3.48A13.32,13.32,0,0,0,11,8.63ZM9.21,13.1A10.22,10.22,0,0,1,7.9,15.86a7.8,7.8,0,0,1-3.19,2.62s.35-6.9.93-12.54A3.64,3.64,0,0,1,8.22,7,4.41,4.41,0,0,1,9.47,9.22,8.36,8.36,0,0,1,9.21,13.1Z"/><path d="M15.22,22c-.15-1-1.11,0-1.11,0a11.29,11.29,0,0,1-2.26,1.62c-1.69,1-2.45-.13-2.45-.13a6.19,6.19,0,0,0,3.91-3.26c1.13-2.59,0-3.93,0-3.93s-1-1.34-2.84.28S8,21.36,7.92,22.2,7.7,25,8.79,25.8s3.07-.08,3.07-.08a9.5,9.5,0,0,0,2.79-2A2.34,2.34,0,0,0,15.22,22Zm-6-.4a4.5,4.5,0,0,1,1.62-3.42A1.51,1.51,0,0,1,12,17.69a.65.65,0,0,1,.48.47,2.27,2.27,0,0,1,0,1.24,1.83,1.83,0,0,1-.47.87,4,4,0,0,1-1.33.86A8,8,0,0,1,9.26,21.55Z"/><path d="M16,19.07a3.88,3.88,0,0,1,.47-1.33c.2-.29.47-.62.72-.57.07,0,.14.08.18.23a1.78,1.78,0,0,1,0,.65,9.05,9.05,0,0,0-.07,2.7c.09.5.28.51.48.27s.47-.79.72-1.12a3.06,3.06,0,0,1,.83-.82,1.07,1.07,0,0,1,1.28.17c.77.58,1.29,2.22,2,3.11a3.45,3.45,0,0,0,.3.34.65.65,0,0,0,.54.25c.19-.05.52-.43.67,0s-.31,1.45-.31,1.45c-.38.81-.94,1.06-1.44.95s-1.05-.75-1.49-1.56c-.25-.44-.48-.92-.73-1.35a2.75,2.75,0,0,0-.72-.93c-.58-.39-.94.48-1.39,1.16a2.89,2.89,0,0,1-.79.86c-.39.25-.83.2-1.13-.47a5.79,5.79,0,0,1-.27-2.41A12.52,12.52,0,0,1,16,19.07Z"/><path d="M24.77,17.1s.05-4.56,1.74-5.41c0,0,.51-.1.37.61a9.53,9.53,0,0,0-.52,2,21.88,21.88,0,0,0-.13,2.51l2.61-.13s.64-.14.65.7a2.07,2.07,0,0,1-.33,1.05c-.21.34-.38.54-.63.58s-.71,0-1.07,0-.76,0-1.14,0a13.89,13.89,0,0,0,.48,3.08,2,2,0,0,0,.53,1c.24.18.47,0,.71-.14s.59-.2.51.47a2.23,2.23,0,0,1-.87,1.6c-.68.56-1.64.56-2.15-.74a12.05,12.05,0,0,1-.61-3.19c-.05-.64-.09-1.29-.12-1.94a11.66,11.66,0,0,0-1.42.33c-.11.09-.54.15-.35-.89a1.91,1.91,0,0,1,.46-1A1.94,1.94,0,0,1,24.77,17.1Z"/><path d="M30.08,17.28a.76.76,0,0,1,0-.15c0-.32,0-.64,0-1a2.47,2.47,0,0,1,.11-.85,1.44,1.44,0,0,1,1-.92.18.18,0,0,1,.19.06.82.82,0,0,1,.15.45,5.86,5.86,0,0,1,0,.59c0,.21,0,.42,0,.62a1.91,1.91,0,0,1-.23.85,1,1,0,0,1-.45.31c-.21.11-.39.4-.6.21a.34.34,0,0,1-.1-.2Z"/><path d="M30.1,20.14a3.16,3.16,0,0,1,.64-1.82c.61-.64.73.08.73.08s0,.21,0,.3c0,.28,0,.55,0,.83,0,.71-.06,1.39-.1,2.09a11.68,11.68,0,0,1-.2,2A2.94,2.94,0,0,1,30.62,25c-.15.17-.53.56-.66.13a.71.71,0,0,1,0-.26C29.92,24.43,30.1,20.14,30.1,20.14Z"/></svg>