<svg id="Слой_1" data-name="Слой 1" xmlns="http://www.w3.org/2000/svg" viewBox="0 0 32 32" fill="#fff"><title>person</title><path d="M16,16A7.74,7.74,0,0,1,8.5,8,7.8,7.8,0,0,1,16,0a7.74,7.74,0,0,1,7.5,8A7.74,7.74,0,0,1,16,16ZM16,1A6.88,6.88,0,0,0,9.4,8,6.75,6.75,0,0,0,16,15a6.81,6.81,0,0,0,6.6-7A6.82,6.82,0,0,0,16,1Zm0,31H7.9C3.2,32,0,31.5,0,29.1,0,24,6.8,18.2,16,18.2S32,23.9,32,29c0,2.4-3.2,2.9-7.9,3Zm0-12.8c-8.5,0-15,5.3-15,9.9C1,30,1.7,31,7.9,31H24.1c6.1-.1,6.9-1.1,6.9-2C31,24.5,24.5,19.2,16,19.2Z"/></svg>