<svg id="Слой_1" data-name="Слой 1" xmlns="http://www.w3.org/2000/svg" viewBox="0 0 32 32" fill="#fff"><title>wallet _Монтажная область 1-01</title><path d="M30.09,14.8h0l-.15-7.69a1.9,1.9,0,0,0-1.72-2H26.36V3.77a2.24,2.24,0,0,0-.57-1.51,2.92,2.92,0,0,0-2.72-.67L2.57,5.13a1.85,1.85,0,0,0-1.28.33A1.9,1.9,0,0,0,.43,7.11V28.52a1.91,1.91,0,0,0,1.72,2H28.26a1.9,1.9,0,0,0,1.72-2V20.83h.15a1.39,1.39,0,0,0,1.28-1.51v-3a1.41,1.41,0,0,0-1.32-1.51ZM22.62,2.54a5.08,5.08,0,0,1,1.81-.16,1.47,1.47,0,0,1,.35.08,1.52,1.52,0,0,1,1,1.35c0,.12,0,1.32,0,1.32H8l2.08-.36L14.78,4c2.46-.43,4.91-.88,7.36-1.32Zm6.61,26a1,1,0,0,1-.86,1H2.46a1,1,0,0,1-.85-1V7.11A.86.86,0,0,1,2,6.28a1.91,1.91,0,0,1,1-.17H28.51a1,1,0,0,1,.86,1V14.8H24.54a1.4,1.4,0,0,0-1.29,1.51v3.51a1.12,1.12,0,0,0,1.14,1h4.84Zm1.43-9.2c0,.33-.15.5-.44.5H24.5c-.15,0-.44-.17-.44-.33V16.31c0-.34.15-.5.44-.5h5.72c.29,0,.44.16.44.5Z"/></svg>