<svg xmlns="http://www.w3.org/2000/svg" viewBox="0 0 50 50">
  <path d="M21.6875 2C21.085938 2 20.6875 2.398438 20.6875 3C20.6875 3.601563 21.1875 4 21.6875 4C22.488281 4 24.085938 4.414063 24.6875 7.3125C24.988281 7.113281 25.292969 7.011719 25.59375 6.8125L26.59375 6.5C25.492188 2.398438 22.6875 2 21.6875 2 Z M 22 8C13.601563 8 8 15.414063 8 26.3125C8 37.113281 16.601563 48 25 48C33.398438 48 42 36.898438 42 26C42 17 38.105469 8 29.40625 8C28.707031 8 28.101563 8.113281 27.5 8.3125C31.398438 12.210938 32 20.3125 32 24.8125C32 34.3125 29.007813 39.792969 28.90625 40.09375C28.707031 40.394531 28.398438 40.59375 28 40.59375C27.800781 40.59375 27.699219 40.601563 27.5 40.5C27 40.199219 26.792969 39.59375 27.09375 39.09375C27.09375 38.992188 30 33.710938 30 24.8125C30 17.613281 28.59375 12.09375 26.09375 9.59375C24.992188 8.59375 23.6875 8 22.1875 8Z" fill="#4F51C0" />
</svg>