<svg xmlns="http://www.w3.org/2000/svg" viewBox="0 0 50 50">
  <path d="M40.90625 0.09375L40.1875 0.78125L0.78125 40.1875L0.09375 40.90625L0.78125 41.59375C12.0625 52.875 30.3125 52.875 41.59375 41.59375C52.875 30.3125 52.875 12.0625 41.59375 0.78125 Z M 40.8125 3C50.621094 13.558594 50.464844 29.910156 40.1875 40.1875C29.910156 50.464844 13.558594 50.621094 3 40.8125L5.03125 38.78125C14.375 47.382813 28.9375 47.15625 38 38.09375C47.0625 29.03125 47.285156 14.46875 38.6875 5.125 Z M 38.8125 12.5C39.421875 12.523438 40.011719 12.898438 40.3125 13.5C40.613281 14.300781 40.207031 15.195313 39.40625 15.59375C38.605469 15.894531 35.8125 15.1875 35.8125 15.1875C35.8125 15.1875 37.386719 12.992188 38.1875 12.59375C38.386719 12.519531 38.609375 12.492188 38.8125 12.5 Z M 40.59375 19.59375C41.492188 19.59375 42.195313 20.414063 42.09375 21.3125C41.996094 22.113281 41.304688 22.8125 40.40625 22.8125C39.507813 22.8125 37.3125 21.09375 37.3125 21.09375C37.3125 21.09375 39.695313 19.59375 40.59375 19.59375 Z M 39.09375 26.5C39.46875 26.496094 39.800781 26.519531 40 26.59375C40.800781 26.992188 41.210938 28.011719 40.8125 28.8125C40.414063 29.613281 39.488281 29.992188 38.6875 29.59375C37.886719 29.195313 36.40625 26.8125 36.40625 26.8125C36.40625 26.8125 37.96875 26.515625 39.09375 26.5 Z M 32.8125 32.59375C32.8125 32.59375 35.492188 33.300781 36.09375 34C36.695313 34.699219 36.699219 35.710938 36 36.3125C35.300781 36.914063 34.289063 36.792969 33.6875 36.09375C33.085938 35.394531 32.8125 32.59375 32.8125 32.59375 Z M 15.8125 35.90625C15.8125 35.90625 16.085938 38.792969 15.6875 39.59375C15.289063 40.394531 14.300781 40.6875 13.5 40.1875C12.699219 39.789063 12.40625 38.800781 12.90625 38C13.304688 37.199219 15.8125 35.90625 15.8125 35.90625 Z M 27.40625 36.1875C27.40625 36.1875 29.613281 38.011719 29.8125 38.8125C30.113281 39.710938 29.585938 40.613281 28.6875 40.8125C27.886719 41.011719 26.988281 40.488281 26.6875 39.6875C26.488281 38.886719 27.40625 36.1875 27.40625 36.1875 Z M 21.5 37.1875C21.5 37.1875 22.789063 39.695313 22.6875 40.59375C22.6875 41.492188 21.898438 42.101563 21 42C20.101563 41.898438 19.492188 41.085938 19.59375 40.1875C19.695313 39.289063 21.5 37.1875 21.5 37.1875Z" fill="#4F51C0" />
</svg>