<svg xmlns="http://www.w3.org/2000/svg" viewBox="0 0 50 50">
  <path d="M30.40625 0C30.140625 0 29.875 0.09375 29.6875 0.28125C28.46875 1.496094 27.96875 4.3125 28.15625 6.90625L43.0625 21.71875C45.941406 22.246094 48.5 21.4375 49.71875 20.21875C50.109375 19.828125 50.109375 19.171875 49.71875 18.78125C47.53125 16.59375 39.484375 13.359375 37.375 12.53125C36.558594 10.449219 33.367188 2.554688 31.09375 0.28125C30.90625 0.09375 30.671875 0 30.40625 0 Z M 36.59375 0C36.339844 0 36.101563 0.0859375 35.90625 0.28125C35.480469 0.707031 35.125 1.390625 34.84375 2.1875C36.449219 5.03125 37.992188 8.710938 38.90625 11C41.503906 12.039063 45.03125 13.546875 47.75 15.0625C48.601563 14.828125 49.316406 14.496094 49.71875 14.09375C49.90625 13.90625 50 13.671875 50 13.40625C50 13.140625 49.90625 12.875 49.71875 12.6875C48.199219 11.167969 42.875 9.457031 41.09375 8.90625C40.542969 7.125 38.832031 1.800781 37.3125 0.28125C37.117188 0.0859375 36.847656 0 36.59375 0 Z M 45.75 3.0625C45.019531 3.0625 43.386719 3.867188 41.8125 4.78125C42.125 5.625 42.421875 6.492188 42.6875 7.3125C43.511719 7.578125 44.375 7.871094 45.21875 8.1875C47.488281 4.3125 47.035156 3.847656 46.59375 3.40625C46.4375 3.25 46.183594 3.0625 45.75 3.0625 Z M 25.53125 9.9375C19.9375 9.9375 13.878906 12.984375 8 18.78125C5.050781 21.757813 3.039063 24.550781 1.78125 27.125C1.722656 27.203125 1.6875 27.28125 1.65625 27.375C-1.992188 35.117188 1.09375 41 5 44.90625C6.125 46.03125 7.257813 46.941406 8.40625 47.6875C8.496094 47.777344 8.597656 47.855469 8.71875 47.90625C10.972656 49.300781 13.308594 50 15.75 50C20.578125 50 25.582031 47.324219 31.09375 41.8125C39.945313 32.964844 40.757813 25.929688 39.875 21.59375C39.835938 21.398438 39.734375 21.234375 39.59375 21.09375L28.90625 10.5C28.765625 10.363281 28.597656 10.257813 28.40625 10.21875C27.472656 10.03125 26.507813 9.9375 25.53125 9.9375 Z M 25.53125 11.9375C25.996094 11.9375 26.453125 11.980469 26.90625 12.03125C27.097656 13.058594 27.125 14.132813 27.125 14.90625L21.84375 13.84375L21.5625 12.5C22.910156 12.132813 24.242188 11.9375 25.53125 11.9375 Z M 29.09375 13.5L32.6875 17.0625L29.84375 16.5625C29.765625 16.464844 29.679688 16.367188 29.59375 16.28125C29.449219 16.136719 29.304688 16.027344 29.125 15.90625C29.148438 15.46875 29.164063 14.5625 29.09375 13.5 Z M 17.3125 14.21875C17.382813 14.25 17.480469 14.269531 17.5625 14.28125C18.734375 14.460938 19.625 14.796875 20.125 15.1875C20.203125 15.332031 20.332031 15.441406 20.46875 15.53125C20.746094 15.921875 20.945313 16.5 21.09375 17.1875L21.1875 17.65625C21.34375 18.566406 21.429688 19.601563 21.4375 20.5L16.15625 19.4375L15.34375 15.375C16.003906 14.949219 16.65625 14.566406 17.3125 14.21875 Z M 23 16.59375C25.535156 16.621094 27.515625 17.046875 28.1875 17.71875C29.011719 18.542969 29.292969 20.964844 29.3125 22.875L24.0625 21.84375L23.125 17.09375C23.121094 17.085938 23.097656 17.070313 23.09375 17.0625 Z M 13.5625 16.625L13.96875 18.78125C13.171875 18.511719 12.320313 18.347656 11.53125 18.25C12.210938 17.664063 12.886719 17.132813 13.5625 16.625 Z M 30.84375 18.78125L35.125 19.5C35.128906 19.5 35.152344 19.5 35.15625 19.5L36.96875 21.28125C37.128906 22.355469 37.09375 23.5625 37.03125 24.40625L31.3125 23.28125C31.324219 22.207031 31.265625 20.394531 30.84375 18.78125 Z M 9.5 20.09375C11.417969 20.132813 13.664063 20.539063 14.40625 21.21875C15.230469 22.042969 15.511719 24.464844 15.53125 26.375L10.25 25.34375L9.28125 20.34375C9.328125 20.292969 9.359375 20.265625 9.40625 20.21875C9.441406 20.183594 9.464844 20.128906 9.5 20.09375 Z M 7.59375 22.1875L8.0625 24.625C7.382813 24.386719 6.664063 24.222656 6 24.125C6.488281 23.476563 7.015625 22.847656 7.59375 22.1875 Z M 17.21875 22.28125C19.753906 22.308594 21.734375 22.734375 22.40625 23.40625C23.230469 24.230469 23.511719 26.683594 23.53125 28.59375L18.25 27.5625 Z M 24.9375 24.0625L29.65625 25C30.429688 25.886719 30.699219 28.238281 30.71875 30.09375L25.53125 29.0625C25.546875 27.910156 25.476563 25.796875 24.9375 24.0625 Z M 4.71875 26C6.476563 26.125 7.953125 26.546875 8.5 27.09375C9.3125 27.90625 9.597656 30.320313 9.625 32.21875C8.941406 32.054688 8.222656 31.9375 7.5 31.875L4.34375 31.25L3.65625 27.875C3.960938 27.257813 4.328125 26.628906 4.71875 26 Z M 11.40625 28.1875C13.941406 28.214844 15.921875 28.640625 16.59375 29.3125C17.417969 30.136719 17.699219 32.589844 17.71875 34.5L12.4375 33.4375 Z M 19.0625 29.75L23.875 30.6875C23.878906 30.691406 23.902344 30.714844 23.90625 30.71875C24.730469 31.542969 25.011719 33.964844 25.03125 35.875L19.71875 34.84375C19.726563 33.621094 19.648438 31.46875 19.0625 29.75 Z M 2.125 32.875C2.820313 32.988281 3.308594 33.167969 3.59375 33.34375L4.625 38.6875L2.90625 38.40625C2.1875 36.632813 1.921875 34.777344 2.125 32.875 Z M 5.71875 33.78125C6.253906 33.789063 6.742188 33.804688 7.21875 33.84375L10.03125 34.40625C10.3125 34.515625 10.539063 34.648438 10.71875 34.78125C10.796875 34.929688 10.921875 35.035156 11.0625 35.125C11.753906 36.097656 12.011719 38.324219 12.03125 40.09375L6.75 39.0625 Z M 13.46875 35.6875L17.96875 36.5625C17.976563 36.574219 17.988281 36.585938 18 36.59375C18.820313 37.410156 19.101563 39.84375 19.125 41.75L14.03125 40.59375C14.042969 39.472656 13.976563 37.410156 13.46875 35.6875 Z M 7.375 41.21875L12.46875 42.21875C13.214844 43.105469 13.503906 45.359375 13.53125 47.1875L9.625 46.09375C9.339844 45.910156 9.066406 45.738281 8.78125 45.53125Z" fill="#4F51C0" />
</svg>