<svg xmlns="http://www.w3.org/2000/svg" width="38.824" height="38.73" viewBox="0 0 38.824 38.73">
  <g id="surface1" transform="translate(0 -0.053)">
    <path id="Path_38" data-name="Path 38" d="M22.494.056A4.09,4.09,0,0,0,21.57.2a7.037,7.037,0,0,0-3.106,4.7c-3.732-3.2-6.539.737-8.054-3.176,0,6.24,3.419,4.746,5.24,5.531-5.733-.473-2.655,4.413-6.817,5.24,3.947,1.751,7.811,2.022,9.249-1.841-.229,1.508-1.223,4.538,3.711,7.5,1.223-3.94,2.3-4.67.535-8.054,2.411,3.1,4.461,4.739,8.756,2.015-3.447-.9-1.807-3.266-6.087-4.01,3.21.139,4.3.354,5.747-3.468-3.148,1.2-4.531-3.607-9.27.459-.014.014-.264-2.015,2.6-4.559A2.113,2.113,0,0,0,22.494.056ZM9.388,5.275C3.322,7.478,0,12.78,0,20.368c0,9.986,8.888,18.415,19.416,18.415,9.346,0,19.409-6.351,19.409-20.284,0-6.282-2.467-10.6-6.984-12.425a6.137,6.137,0,0,1-2.286,2.988,3.251,3.251,0,0,1,.195.264,2.466,2.466,0,0,0,1.723,1.286,1.582,1.582,0,0,1,1.168,1.265,1.562,1.562,0,0,1-.7,1.55,8.858,8.858,0,0,1-4.684,1.626,5.58,5.58,0,0,1-2.6-.653,17.425,17.425,0,0,1-.681,2.182c-.215.591-.459,1.244-.7,2.036a1.519,1.519,0,0,1-1.48,1.1,1.559,1.559,0,0,1-.8-.222c-2.7-1.619-3.9-3.315-4.392-4.85a6.564,6.564,0,0,1-2.912.625A13.932,13.932,0,0,1,8.2,13.912a1.526,1.526,0,0,1-.9-1.577A1.573,1.573,0,0,1,8.54,10.973c.945-.188,1.112-.563,1.508-1.7A6.9,6.9,0,0,1,10.9,7.457,4.753,4.753,0,0,1,9.388,5.275Z" transform="translate(0 0)" fill="#4f51c0"/>
  </g>
</svg>
