<svg xmlns="http://www.w3.org/2000/svg" viewBox="0 0 50 50">
  <path d="M30.470703 -0.017578125C30.365248 -0.0084543353 30.260533 0.01170133 30.158203 0.04296875C29.757782 0.16531966 29.446724 0.41808912 29.173828 0.72070312C28.599341 1.3038046 28.179466 2.0226767 27.896484 2.6054688C27.225805 2.2781736 26.36165 2 25 2C19.826 2 6 17.123609 6 33.099609C6 42.418609 14.523 50 25 50C35.477 50 44 42.418609 44 33.099609C44 28.351609 42.391938 25.469641 40.835938 22.681641C39.377938 20.070641 38 17.602609 38 13.599609C38 9.6576081 36.289944 5.6769211 32.992188 4.3027344C33.261175 4.0580475 33.495329 3.7417766 33.578125 3.3632812C33.666175 2.9607865 33.578185 2.5688455 33.447266 2.2832031C33.185427 1.7119181 32.807812 1.39375 32.507812 1.09375C32.247096 0.83303371 31.973947 0.41864164 31.341797 0.12890625C31.104741 0.020255475 30.787069 -0.044949494 30.470703 -0.017578125 z M 30.638672 2.0722656C30.711452 2.1420506 30.830185 2.2442475 31.09375 2.5078125C31.304171 2.7182336 31.380112 2.8243687 31.46875 2.9355469C31.43639 2.9295369 31.352039 2.9722069 31.039062 3.0839844C30.837074 3.1561234 30.601117 3.2424813 30.34375 3.4121094C30.236175 3.4830112 30.122881 3.5880543 30.015625 3.7011719C29.896813 3.6679275 29.788326 3.6285304 29.683594 3.5859375C29.930347 3.0683877 30.254054 2.4607896 30.607422 2.1074219L30.626953 2.0859375L30.638672 2.0722656 z M 25 22C27.4 22 33 27.099609 33 32.599609C33 38.099609 29.6 42 25 42C20.4 42 17 38.099609 17 32.599609C17 27.099609 22.6 22 25 22 z" fill="#4F51C0" />
</svg>