<svg xmlns="http://www.w3.org/2000/svg" viewBox="0 0 50 50">
  <path d="M35.5625 0.03125C30.433594 1.039063 27.585938 3.746094 26 6.59375C26.882813 8.199219 27.5625 10.117188 27.8125 12.3125C29.453125 12.699219 30.722656 13.417969 31.6875 14.34375C32.847656 13.738281 33.808594 12.972656 34.59375 12.03125C37.65625 8.363281 37.003906 3.113281 36.71875 0.875C36.683594 0.605469 36.53125 0.375 36.3125 0.21875C36.09375 0.0625 35.828125 -0.0234375 35.5625 0.03125 Z M 18.8125 2.09375C18.582031 2.140625 18.359375 2.289063 18.21875 2.5C17.9375 2.925781 18.074219 3.5 18.5 3.78125C18.550781 3.8125 22.929688 6.832031 23.875 12.0625C24.234375 12.035156 24.609375 12 25 12C25.265625 12 25.5 12.019531 25.75 12.03125C24.804688 5.828125 19.738281 2.375 19.5 2.21875C19.289063 2.078125 19.042969 2.046875 18.8125 2.09375 Z M 25 14C19.382813 14 18.140625 17.5 16.8125 21.21875C16.457031 22.210938 16.089844 23.242188 15.625 24.28125C14.902344 25.886719 13.945313 27.011719 12.9375 28.1875C11.003906 30.441406 9 32.765625 9 38.375C9 45.761719 14.832031 50 25 50C35.167969 50 41 45.761719 41 38.375C41 32.761719 38.996094 30.441406 37.0625 28.1875C36.054688 27.011719 35.097656 25.886719 34.375 24.28125C33.910156 23.246094 33.542969 22.210938 33.1875 21.21875C31.859375 17.5 30.617188 14 25 14Z" fill="#4F51C0" />
</svg>