<svg xmlns="http://www.w3.org/2000/svg" viewBox="0 0 50 50">
  <path d="M28.945312 3.0019531C28.830734 3.0079687 28.715219 3.0330781 28.605469 3.0800781C28.352377 3.1889662 22.507296 5.7820934 21.246094 12.460938C21.150818 12.536468 21.050432 12.597145 20.957031 12.677734C20.094414 12.304268 19.199579 12 18.25 12C16.788188 12 15.412344 12.468299 14.169922 13.289062C13.544559 13.105291 12.894473 13 12.230469 13C9.2423421 13 6.6410501 14.96129 4.8515625 17.869141C3.0620749 20.776991 2 24.691695 2 29C2 33.308305 3.0620749 37.223009 4.8515625 40.130859C6.6410501 43.03871 9.2423421 45 12.230469 45C12.856349 45 13.46651 44.900019 14.058594 44.736328C15.255218 45.53959 16.580475 46 17.992188 46C19.012427 46 19.994964 45.73759 20.90625 45.289062C22.133835 46.363642 23.533018 47 25 47C26.421663 47 27.782321 46.408775 28.982422 45.394531C29.855623 45.778179 30.787033 46 31.75 46C33.211812 46 34.587656 45.531701 35.830078 44.710938C36.455441 44.894709 37.105527 45 37.769531 45C40.757658 45 43.35895 43.03871 45.148438 40.130859C46.937925 37.223009 48 33.308305 48 29C48 24.691695 46.937925 20.776991 45.148438 17.869141C43.35895 14.96129 40.757658 13 37.769531 13C37.104731 13 36.456078 13.107023 35.830078 13.291016C34.587427 12.46989 33.212156 12 31.75 12C30.876987 12 30.028508 12.177835 29.226562 12.496094C29.828838 9.1163251 31.488788 7.8771495 31.554688 7.8300781C32.014688 7.5230781 32.139031 6.9033594 31.832031 6.4433594L29.832031 3.4433594C29.631031 3.1426094 29.289047 2.9839062 28.945312 3.0019531 z M 25 13C26.638571 13 28.75406 14.565884 30.09375 17.423828 A 1.0004595 1.0004595 0 0 0 31.90625 16.576172C31.492924 15.694428 31.005306 14.894872 30.464844 14.185547C30.885601 14.066532 31.312494 14 31.75 14C34.636576 14 37.58999 16.807278 39.048828 21.308594 A 1.0001 1.0001 0 1 0 40.951172 20.691406C40.227894 18.4597 39.142134 16.496379 37.798828 15.001953C39.89798 15.0149 41.901028 16.408563 43.445312 18.917969C44.996825 21.439118 46 25.024305 46 29C46 32.975695 44.996825 36.560882 43.445312 39.082031C41.901028 41.591437 39.89798 42.9851 37.798828 42.998047C39.142134 41.503621 40.227894 39.5403 40.951172 37.308594 A 1.0001 1.0001 0 0 0 40.001953 35.986328 A 1.0001 1.0001 0 0 0 39.048828 36.691406C37.58999 41.192722 34.636576 44 31.75 44C31.312494 44 30.885601 43.933468 30.464844 43.814453C31.005306 43.105128 31.492924 42.305572 31.90625 41.423828 A 1.0004595 1.0004595 0 0 0 30.09375 40.576172C28.75406 43.434116 26.638571 45 25 45C23.361429 45 21.24594 43.434116 19.90625 40.576172 A 1.0001 1.0001 0 0 0 18.941406 39.988281 A 1.0001 1.0001 0 0 0 18.09375 41.423828C18.490701 42.270638 18.954007 43.045776 19.46875 43.734375C18.986615 43.904716 18.495605 44 17.992188 44C15.234407 44 12.369402 41.208264 10.955078 36.701172 A 1.0001 1.0001 0 0 0 9.9765625 35.986328 A 1.0001 1.0001 0 0 0 9.0449219 37.298828C9.7445473 39.528358 10.79557 41.491138 12.099609 42.988281C10.037772 42.931375 8.0738571 41.550625 6.5546875 39.082031C5.0031751 36.560882 4 32.975695 4 29C4 25.024305 5.0031751 21.439118 6.5546875 18.917969C8.0989725 16.408563 10.10202 15.0149 12.201172 15.001953C10.857866 16.496379 9.7721056 18.4597 9.0488281 20.691406 A 1.0001 1.0001 0 1 0 10.951172 21.308594C12.41001 16.807278 15.363424 14 18.25 14C18.66024 14 19.04388 14.196137 19.439453 14.300781C18.93599 14.979999 18.483503 15.744716 18.09375 16.576172 A 1.0004595 1.0004595 0 0 0 19.90625 17.423828C21.24594 14.565884 23.361429 13 25 13 z M 15 25 A 3 3 0 0 0 15 31 A 3 3 0 0 0 15 25 z M 35 25 A 3 3 0 0 0 35 31 A 3 3 0 0 0 35 25 z M 28.029297 30.986328 A 1.0001 1.0001 0 0 0 27.056641 31.666016C26.81197 32.357862 25.879762 33 25 33C24.120238 33 23.18803 32.357862 22.943359 31.666016 A 1.0007355 1.0007355 0 1 0 21.056641 32.333984C21.63597 33.972138 23.267762 35 25 35C26.732238 35 28.36403 33.972138 28.943359 32.333984 A 1.0001 1.0001 0 0 0 28.029297 30.986328 z" fill="#4F51C0" />
</svg>