<svg xmlns="http://www.w3.org/2000/svg" viewBox="0 0 50 50">
  <path d="M35.40625 1C32.265625 1 30 2.980469 30 5.6875C30 7.097656 30.578125 7.894531 31.0625 8.3125C31.421875 8.625 31.835938 8.789063 32.21875 8.90625C32.039063 9.5 31.960938 10.210938 32.21875 10.9375C32.550781 11.871094 33.324219 12.601563 34.53125 13.0625C33.425781 16.242188 31.046875 19.835938 24.375 26.09375C22.148438 27.96875 20.160156 29.5625 18.875 30.5625C18.539063 30.757813 18.34375 31.132813 18.382813 31.519531C18.417969 31.910156 18.675781 32.242188 19.042969 32.371094C19.410156 32.5 19.820313 32.40625 20.09375 32.125C21.1875 31.273438 22.78125 30.003906 24.5625 28.53125C25.601563 27.683594 26.734375 26.722656 27.96875 25.65625C28.648438 25.070313 29.398438 24.425781 30.125 23.78125C30.285156 23.640625 30.464844 23.457031 30.625 23.3125C31.539063 22.496094 32.464844 21.648438 33.4375 20.75C34.417969 19.839844 35.390625 18.945313 36.4375 17.9375C36.617188 17.761719 36.816406 17.582031 37 17.40625C37.824219 16.605469 38.667969 15.769531 39.53125 14.90625C39.578125 14.859375 39.621094 14.804688 39.65625 14.75C42.546875 11.773438 43.691406 7.832031 42.46875 4.875C41.867188 3.429688 40.140625 1 35.40625 1 Z M 24.5 7C18.457031 7 18 10.847656 18 12.03125C18 13.992188 19.589844 16.105469 22 16.34375C22.058594 17.144531 22.335938 17.839844 22.8125 18.40625C23.726563 19.496094 25.363281 19.902344 26.8125 19.40625C26.789063 19.792969 26.699219 20.273438 26.5625 20.84375C28.851563 18.457031 30.601563 16.25 31.6875 14.375C31.480469 13.480469 31.195313 12.636719 30.84375 11.875C29.4375 8.820313 27.058594 7 24.5 7 Z M 41.96875 15.1875C41.65625 15.570313 41.328125 15.953125 40.96875 16.3125C37.996094 19.285156 35.246094 21.863281 32.71875 24.125C32.902344 24.066406 33.070313 24.015625 33.21875 23.96875C33.871094 25 34.960938 25.5625 36.28125 25.5625C36.882813 25.5625 37.496094 25.433594 38.0625 25.21875C38.449219 26.46875 39.402344 28 42.0625 28C45.191406 28 47 25.566406 47 21.34375C47 18.054688 44.609375 15.828125 41.96875 15.1875 Z M 12.59375 23.96875C9.855469 23.925781 7.601563 25.105469 6.15625 26.65625C2.53125 30.542969 3.367188 34.777344 4.125 38.5C4.859375 42.101563 5.457031 44.953125 2.4375 47.25C1.996094 47.585938 1.914063 48.183594 2.25 48.625C2.445313 48.882813 2.730469 49.03125 3.03125 49.03125C3.242188 49.03125 3.476563 48.980469 3.65625 48.84375C4.457031 48.238281 5.042969 47.570313 5.5 46.90625C5.566406 46.871094 5.628906 46.863281 5.6875 46.8125C7.207031 45.503906 9.613281 46.039063 12.40625 46.65625C14.105469 47.03125 16.019531 47.4375 17.9375 47.4375C20.203125 47.4375 22.492188 46.863281 24.5625 44.9375C27.476563 42.226563 28.164063 36.375 24.28125 31.28125C23.945313 30.84375 23.34375 30.757813 22.90625 31.09375C22.46875 31.429688 22.382813 32.0625 22.71875 32.5C23.195313 33.128906 23.558594 33.753906 23.875 34.375C23.839844 34.5625 23.695313 34.683594 23.5 34.78125C22.839844 35.230469 19.371094 34.789063 17.3125 33C16.117188 31.957031 15.363281 30.535156 15.3125 29.28125C15.277344 28.429688 15.558594 27.679688 16.15625 27.0625C16.195313 27.023438 16.1875 26.984375 16.21875 26.9375C16.953125 27.296875 17.746094 27.75 18.53125 28.34375C18.972656 28.679688 19.574219 28.566406 19.90625 28.125C20.238281 27.683594 20.160156 27.082031 19.71875 26.75C17.132813 24.796875 14.722656 24.003906 12.59375 23.96875Z" fill="#4F51C0" />
</svg>