<svg xmlns="http://www.w3.org/2000/svg" viewBox="0 0 50 50">
  <path d="M30.09375 2.1875C25.394531 4.085938 23.789063 7.199219 23.1875 10.5C23.886719 10.898438 24.492188 11.414063 25.09375 11.8125C25.394531 8.414063 26.804688 5.699219 30.90625 4 Z M 14.90625 5C14.507813 5 14.195313 5.292969 14.09375 5.59375C12.292969 10.394531 13.207031 13.800781 13.90625 15.5C14.707031 15.199219 15.601563 15 16.5 15C18 15 19.394531 15.511719 20.59375 16.3125C21.792969 15.511719 23.300781 15 25 15C25.5 15 26 15.085938 26.5 15.1875C25.699219 14.6875 19.914063 11.199219 15.8125 5.5C15.613281 5.101563 15.207031 5 14.90625 5 Z M 34.90625 7C34.605469 7 34.199219 7.105469 34 7.40625C31.800781 10.507813 28.398438 11.804688 26 12.40625C26.800781 13.007813 27.394531 13.304688 27.59375 13.40625L31.09375 15.40625C31.894531 15.105469 32.695313 14.90625 33.59375 14.90625C34.292969 14.90625 34.898438 14.988281 35.5 15.1875C36.5 12.6875 37.085938 9.605469 35.6875 7.40625C35.488281 7.207031 35.207031 7 34.90625 7 Z M 6.75 10.9375C6.585938 10.960938 6.460938 11.039063 6.3125 11.1875C6.011719 11.488281 5.898438 11.789063 6 12.1875C6.300781 13.1875 6.6875 14.113281 7.1875 14.8125C8.1875 14.3125 9.394531 14 10.59375 14L11.3125 14C11.210938 13.398438 11.101563 12.707031 11 11.90625C9.898438 11.707031 8.613281 11.5 7.3125 11C7.113281 10.949219 6.914063 10.914063 6.75 10.9375 Z M 41.84375 11C41.757813 11.015625 41.667969 11.042969 41.59375 11.09375C40.695313 11.492188 39.507813 11.792969 38.40625 12.09375C38.304688 12.792969 38.199219 13.488281 38 14.1875C38.398438 14.085938 38.90625 14 39.40625 14C40.304688 14 41.292969 14.199219 42.09375 14.5C42.492188 13.800781 42.898438 12.992188 43 12.09375C43 11.695313 42.894531 11.386719 42.59375 11.1875C42.367188 11.039063 42.097656 10.953125 41.84375 11 Z M 10.59375 16C7.792969 16 5.09375 18.105469 5.09375 20.90625C5.09375 22.804688 6.59375 25 10.09375 25C10.492188 25 11 24.914063 11.5 24.8125C10.601563 23.8125 10 22.398438 10 21C10 19.101563 11 17.414063 12.5 16.3125C11.898438 16.113281 11.195313 16 10.59375 16 Z M 39.40625 16C38.804688 16 38.101563 16.113281 37.5 16.3125C39 17.414063 39.90625 19.101563 39.90625 21C39.90625 22.398438 39.304688 23.8125 38.40625 24.8125C38.90625 24.914063 39.414063 25 39.8125 25C43.3125 25 44.8125 22.804688 44.8125 20.90625C44.914063 18.105469 42.304688 16 39.40625 16 Z M 16.5 17C14 17 12 18.800781 12 21C12 23.199219 14 25 16.5 25C17.5 25 18.394531 24.6875 19.09375 24.1875C18.394531 23.289063 18 22.199219 18 21C18 19.800781 18.394531 18.710938 19.09375 17.8125C18.292969 17.3125 17.398438 17 16.5 17 Z M 25 17C22.199219 17 20 18.800781 20 21C20 23.199219 22.199219 25 25 25C27.800781 25 30 23.199219 30 21C30 18.800781 27.800781 17 25 17 Z M 33.5 17C32.601563 17 31.605469 17.3125 30.90625 17.8125C31.605469 18.710938 32 19.800781 32 21C32 22.199219 31.605469 23.289063 30.90625 24.1875C31.707031 24.6875 32.601563 25 33.5 25C36 25 38 23.199219 38 21C38 18.800781 36 17 33.5 17 Z M 20.59375 25.6875C19.394531 26.488281 18 27 16.5 27C16.199219 27 15.894531 27.007813 15.59375 26.90625C15.195313 27.507813 14.90625 28.199219 14.90625 29C14.90625 31.199219 17.007813 33 19.40625 33C20.605469 33 21.789063 32.511719 22.6875 31.8125C22.1875 31.011719 21.90625 30 21.90625 29C21.90625 28.199219 22.101563 27.292969 22.5 26.59375C21.800781 26.394531 21.195313 25.988281 20.59375 25.6875 Z M 29.40625 25.6875C28.207031 26.488281 26.699219 27 25 27L24.59375 27C24.195313 27.601563 24 28.300781 24 29C24 31.199219 26 33 28.5 33C31 33 33 31.199219 33 29C33 28.199219 32.8125 27.507813 32.3125 26.90625C31.210938 26.707031 30.207031 26.289063 29.40625 25.6875 Z M 6.3125 26C5.414063 27.199219 5.300781 32.800781 11.5 32C12.199219 31.898438 12.898438 31.804688 13.5 31.40625C13.199219 30.707031 13 29.898438 13 29C13 28.101563 13.1875 27.207031 13.6875 26.40625C13.585938 26.40625 13.507813 26.289063 13.40625 26.1875C12.507813 26.6875 8.8125 27.800781 6.3125 26 Z M 36.59375 26.1875C35.894531 26.488281 35.199219 26.804688 34.5 26.90625C34.800781 27.605469 34.90625 28.300781 34.90625 29C34.90625 29.601563 34.792969 30.09375 34.59375 30.59375C35.292969 31.492188 36.710938 32 37.8125 32C42.710938 32 43.210938 27.5 42.8125 26.5C42.011719 26.898438 40.90625 27 39.90625 27C38.90625 27 37.59375 26.6875 36.59375 26.1875 Z M 33.6875 32.5C33.488281 32.800781 33.207031 33.105469 32.90625 33.40625C33.605469 34.304688 34 35.398438 34 36.5C34 37.199219 33.894531 37.804688 33.59375 38.40625C34.195313 38.804688 35.113281 39 35.8125 39C40.210938 39 41.292969 34.886719 40.59375 33.6875C37.894531 34.488281 34.6875 33.5 33.6875 32.5 Z M 14.59375 33C13.695313 33.601563 10.710938 34.585938 8.3125 33.6875C7.613281 34.886719 8.695313 39 13.09375 39C13.792969 39 14.710938 38.804688 15.3125 38.40625C15.113281 37.804688 14.90625 37.199219 14.90625 36.5C14.90625 35.601563 15.1875 34.707031 15.6875 33.90625C15.289063 33.605469 14.894531 33.300781 14.59375 33 Z M 25.09375 34.09375C24.394531 34.695313 24 35.601563 24 36.5C24 38.398438 25.800781 40 28 40C30.199219 40 32 38.398438 32 36.5C32 35.699219 31.6875 35.007813 31.1875 34.40625C30.386719 34.804688 29.5 35 28.5 35C27.300781 35 26.09375 34.695313 25.09375 34.09375 Z M 22.5 34.3125C21.601563 34.8125 20.601563 35 19.5 35C18.800781 35 18.195313 34.886719 17.59375 34.6875C17.195313 35.1875 17 35.800781 17 36.5C17 38.398438 18.800781 40 21 40C21.699219 40 22.398438 39.800781 23 39.5C22.398438 38.601563 22 37.601563 22 36.5C22 35.699219 22.199219 35.011719 22.5 34.3125 Z M 16.40625 40.09375C15.507813 40.695313 14.507813 41 13.40625 41C13.40625 41 12.304688 41.011719 11.90625 40.8125C11.90625 41.011719 11.8125 41.300781 11.8125 41.5C11.8125 44.5 14.3125 47 17.3125 47C18.011719 47 18.707031 46.792969 19.40625 46.59375C19.207031 45.792969 18.90625 44.898438 18.90625 44C18.90625 43.199219 19.113281 42.511719 19.3125 41.8125C18.210938 41.511719 17.207031 40.894531 16.40625 40.09375 Z M 32.5 40.09375C31.898438 40.695313 31.207031 41.199219 30.40625 41.5C30.707031 42.300781 30.90625 43.101563 30.90625 44C30.90625 45 30.585938 46.007813 30.1875 46.90625C30.585938 47.007813 31.007813 47 31.40625 47C34.40625 47 36.90625 44.5 36.90625 41.5L36.90625 40.90625C36.507813 40.90625 36.113281 41 35.8125 41C34.710938 41 33.5 40.695313 32.5 40.09375 Z M 24.40625 41C23.507813 41.601563 22.5 41.898438 21.5 42C21.101563 42.601563 20.90625 43.300781 20.90625 44C20.90625 46.199219 22.707031 48 24.90625 48C27.105469 48 28.90625 46.199219 28.90625 44C28.90625 43.300781 28.710938 42.601563 28.3125 42L27.90625 42C26.605469 42 25.40625 41.601563 24.40625 41Z" fill="#4F51C0" />
</svg>