<svg xmlns="http://www.w3.org/2000/svg" viewBox="0 0 50 50">
  <path d="M24 0L24 8.25C24.328125 8.433594 24.652344 8.609375 24.96875 8.8125C24.980469 8.820313 24.988281 8.835938 25 8.84375C25.324219 8.632813 25.660156 8.4375 26 8.25C28.609375 6.789063 31.566406 6 34.59375 6C35.480469 6 36.335938 6.09375 37.1875 6.21875C38.316406 3.671875 38.492188 1.214844 38.5 1.0625C38.515625 0.789063 38.378906 0.511719 38.1875 0.3125C38 0.113281 37.714844 0 37.4375 0C36.859375 0 31.699219 0.101563 28.3125 3.28125C27.300781 4.234375 26.570313 5.320313 26 6.40625L26 0 Z M 15.40625 8C6.914063 8 0 14.769531 0 23.09375C0 38.066406 14.492188 50 20.1875 50C21.855469 50 23.480469 49.617188 25 48.84375C26.519531 49.617188 28.144531 50 29.8125 50C35.984375 50 50 39.832031 50 23.09375C50 14.769531 43.085938 8 34.59375 8C31.085938 8 27.71875 9.179688 25 11.3125C22.28125 9.179688 18.914063 8 15.40625 8 Z M 21 23.96875C21.164063 23.96875 21.304688 24.039063 21.40625 24.1875C22.007813 24.886719 23 26.398438 23 28C23 29.601563 22 31.113281 21.5 31.8125C21.199219 32.113281 20.792969 32.113281 20.59375 31.8125C19.992188 31.113281 19 29.601563 19 28C19 26.398438 20 24.886719 20.5 24.1875C20.648438 24.039063 20.835938 23.96875 21 23.96875 Z M 30 23.96875C30.164063 23.96875 30.304688 24.039063 30.40625 24.1875C31.007813 24.886719 32 26.398438 32 28C32 29.601563 31 31.113281 30.5 31.8125C30.199219 32.113281 29.792969 32.113281 29.59375 31.8125C28.992188 31.113281 28 29.601563 28 28C28 26.398438 29 24.886719 29.5 24.1875C29.648438 24.039063 29.835938 23.96875 30 23.96875Z" fill="#4F51C0" />
</svg>