<svg xmlns="http://www.w3.org/2000/svg" viewBox="0 0 50 50">
  <path d="M37.40625 0.875L36.4375 1C34.988281 1.183594 33.8125 1.769531 33.09375 2.1875C32.972656 2.253906 32.808594 2.320313 32.71875 2.375C32.710938 2.378906 32.695313 2.402344 32.6875 2.40625C32.511719 2.515625 32.390625 2.613281 32.375 2.625L31.5 3.25L32.1875 4.0625C32.195313 4.070313 32.328125 4.257813 32.5625 4.59375C32.570313 4.605469 32.554688 4.613281 32.5625 4.625C33.25 5.652344 34.644531 7.933594 34.78125 9.96875C34.773438 9.992188 34.742188 10.054688 34.6875 10.15625C34.667969 10.191406 34.679688 10.210938 34.65625 10.25C34.597656 10.355469 34.464844 10.507813 34.375 10.65625C34.371094 10.664063 34.378906 10.679688 34.375 10.6875C34.371094 10.695313 34.378906 10.710938 34.375 10.71875C34.300781 10.84375 34.246094 10.910156 34.15625 11.0625C34.097656 11.164063 34.0625 11.261719 34 11.375C33.898438 11.558594 33.792969 11.753906 33.6875 11.96875C33.617188 12.105469 33.570313 12.253906 33.5 12.40625C33.453125 12.515625 33.390625 12.632813 33.34375 12.75C33.257813 12.953125 33.175781 13.148438 33.09375 13.375C33.085938 13.398438 33.070313 13.414063 33.0625 13.4375C32.949219 13.765625 32.847656 14.121094 32.75 14.5L32.71875 14.59375C32.582031 15.136719 32.40625 15.871094 32.125 16.71875C32.023438 17.027344 31.882813 17.378906 31.75 17.71875C31.695313 17.859375 31.652344 17.980469 31.59375 18.125C31.582031 18.15625 31.574219 18.1875 31.5625 18.21875C31.511719 18.339844 31.429688 18.46875 31.375 18.59375C30.976563 19.5 30.476563 20.460938 29.8125 21.5C29.636719 21.773438 29.480469 22.0625 29.28125 22.34375C29.128906 22.558594 28.945313 22.78125 28.78125 23C28.714844 23.085938 28.660156 23.164063 28.59375 23.25C28.570313 23.28125 28.554688 23.3125 28.53125 23.34375C28.304688 23.628906 28.0625 23.929688 27.8125 24.21875C27.785156 24.25 27.746094 24.28125 27.71875 24.3125C27.46875 24.597656 27.214844 24.871094 26.9375 25.15625C26.921875 25.171875 26.921875 25.203125 26.90625 25.21875C26.609375 25.523438 26.296875 25.816406 25.96875 26.125C25.621094 26.453125 25.257813 26.765625 24.875 27.09375C24.480469 27.429688 24.097656 27.761719 23.71875 28.0625C23.691406 28.085938 23.652344 28.101563 23.625 28.125C23.277344 28.398438 22.960938 28.660156 22.625 28.90625C22.566406 28.949219 22.496094 28.988281 22.4375 29.03125C21.773438 29.515625 21.105469 29.96875 20.46875 30.375C20.375 30.433594 20.277344 30.503906 20.1875 30.5625C18.898438 31.375 17.65625 32.066406 16.375 32.78125C16.171875 32.894531 15.957031 33.042969 15.75 33.15625C14.230469 34.007813 12.609375 34.941406 10.78125 36.15625C10.324219 36.460938 9.859375 36.78125 9.375 37.125C8.964844 37.414063 8.527344 37.707031 8.09375 38.03125C7.855469 38.207031 7.617188 38.40625 7.375 38.59375C7.058594 38.835938 6.765625 39.050781 6.4375 39.3125C6.390625 39.351563 6.359375 39.398438 6.3125 39.4375C5.773438 39.871094 5.199219 40.324219 4.625 40.8125C4.476563 40.9375 4.332031 41.109375 4.1875 41.3125C4.179688 41.324219 4.164063 41.332031 4.15625 41.34375C4.085938 41.441406 4.035156 41.546875 3.96875 41.65625C3.917969 41.742188 3.863281 41.816406 3.8125 41.90625C3.742188 42.035156 3.695313 42.179688 3.625 42.3125C3.484375 42.589844 3.339844 42.84375 3.21875 43.125C3.210938 43.144531 3.195313 43.167969 3.1875 43.1875C3.117188 43.351563 3.125 43.347656 3.0625 43.5C2.84375 44.035156 2.652344 44.523438 2.5625 44.78125L2.40625 45.21875L2.65625 45.625L3.84375 47.5625L4.125 47.6875C4.359375 47.804688 4.625 47.953125 4.90625 48.09375C4.957031 48.117188 5.011719 48.132813 5.0625 48.15625C5.363281 48.304688 5.667969 48.433594 6 48.5625C6.566406 48.785156 7.171875 48.972656 7.78125 49C7.84375 49.003906 7.96875 49 8.125 49C8.363281 49.003906 8.679688 48.992188 9.15625 48.96875C9.164063 48.96875 9.179688 48.96875 9.1875 48.96875C9.21875 48.96875 9.277344 48.972656 9.3125 48.96875C9.839844 48.941406 10.421875 48.875 11.1875 48.78125C11.589844 48.734375 12.035156 48.667969 12.5 48.59375C13.804688 48.386719 15.3125 48.101563 17.03125 47.625C17.183594 47.582031 17.347656 47.511719 17.5 47.46875C18.765625 47.101563 20.109375 46.65625 21.53125 46.09375C23.65625 45.253906 25.933594 44.167969 28.28125 42.78125C28.917969 42.40625 29.574219 42.015625 30.21875 41.59375C30.363281 41.5 30.511719 41.410156 30.65625 41.3125C31.421875 40.800781 32.195313 40.238281 32.96875 39.65625C33 39.632813 33.03125 39.617188 33.0625 39.59375C33.445313 39.304688 33.835938 38.996094 34.21875 38.6875C34.632813 38.351563 35.054688 38.011719 35.46875 37.65625C36.046875 37.160156 36.574219 36.652344 37.09375 36.15625C37.507813 35.761719 37.902344 35.390625 38.28125 35C38.375 34.902344 38.46875 34.816406 38.5625 34.71875C38.671875 34.601563 38.769531 34.488281 38.875 34.375C39.21875 34 39.53125 33.621094 39.84375 33.25C40.183594 32.847656 40.476563 32.457031 40.78125 32.0625C40.839844 31.984375 40.910156 31.921875 40.96875 31.84375C41.167969 31.582031 41.347656 31.320313 41.53125 31.0625C41.679688 30.851563 41.828125 30.648438 41.96875 30.4375C42.125 30.199219 42.261719 29.984375 42.40625 29.75C42.546875 29.527344 42.683594 29.316406 42.8125 29.09375C42.933594 28.886719 43.042969 28.675781 43.15625 28.46875C43.378906 28.066406 43.59375 27.671875 43.78125 27.28125C43.792969 27.261719 43.800781 27.238281 43.8125 27.21875C43.933594 26.96875 44.046875 26.714844 44.15625 26.46875C44.230469 26.300781 44.304688 26.136719 44.375 25.96875C44.527344 25.605469 44.652344 25.261719 44.78125 24.90625C44.796875 24.863281 44.828125 24.824219 44.84375 24.78125C44.933594 24.527344 45.015625 24.28125 45.09375 24.03125C45.140625 23.878906 45.175781 23.742188 45.21875 23.59375C45.226563 23.5625 45.242188 23.53125 45.25 23.5C45.351563 23.136719 45.421875 22.78125 45.5 22.4375C45.585938 22.058594 45.660156 21.699219 45.71875 21.34375C45.78125 20.976563 45.835938 20.617188 45.875 20.28125C45.910156 19.957031 45.949219 19.667969 45.96875 19.375C45.972656 19.332031 45.964844 19.292969 45.96875 19.25C45.988281 18.917969 46 18.597656 46 18.28125C46 17.863281 45.972656 17.480469 45.9375 17.09375C45.902344 16.714844 45.847656 16.347656 45.78125 16C45.714844 15.648438 45.625 15.320313 45.53125 15C45.488281 14.851563 45.457031 14.703125 45.40625 14.5625C45.347656 14.394531 45.285156 14.222656 45.21875 14.0625C45.179688 13.960938 45.136719 13.878906 45.09375 13.78125C45.011719 13.59375 44.933594 13.421875 44.84375 13.25C44.816406 13.195313 44.78125 13.148438 44.75 13.09375C44.636719 12.882813 44.527344 12.691406 44.40625 12.5C44.398438 12.488281 44.382813 12.480469 44.375 12.46875C44.230469 12.246094 44.089844 12.011719 43.9375 11.8125C43.777344 11.601563 43.601563 11.402344 43.4375 11.21875C43.332031 11.097656 43.230469 11.015625 43.125 10.90625C42.890625 10.664063 42.695313 10.445313 42.46875 10.25C42.414063 10.203125 42.367188 10.171875 42.3125 10.125C42.046875 9.902344 41.792969 9.699219 41.5625 9.53125C41.550781 9.523438 41.542969 9.539063 41.53125 9.53125C41.296875 9.363281 41.082031 9.210938 40.90625 9.09375C40.726563 8.972656 40.582031 8.886719 40.5 8.8125C40.359375 8.6875 40.222656 8.550781 40.09375 8.40625C40.089844 8.398438 40.097656 8.382813 40.09375 8.375C39.976563 8.242188 39.859375 8.113281 39.75 7.96875C39.738281 7.949219 39.730469 7.925781 39.71875 7.90625C39.492188 7.59375 39.277344 7.257813 39.09375 6.90625C39.085938 6.894531 39.070313 6.886719 39.0625 6.875C39.03125 6.816406 39.03125 6.746094 39 6.6875C38.84375 6.371094 38.691406 6.046875 38.5625 5.71875C38.414063 5.34375 38.265625 4.953125 38.15625 4.59375C38.152344 4.582031 38.160156 4.574219 38.15625 4.5625C38.042969 4.195313 37.953125 3.851563 37.875 3.53125C37.640625 2.570313 37.535156 1.894531 37.53125 1.875 Z M 38.28125 11.53125C38.835938 11.53125 39.28125 11.980469 39.28125 12.53125C39.28125 17.1875 37.980469 26.136719 29.1875 33.8125C24.054688 38.292969 21.015625 39.609375 17.15625 41.25C14.09375 42.550781 12.511719 42.828125 7 46.3125C6.835938 46.417969 6.621094 46.46875 6.4375 46.46875C6.367188 46.46875 6.320313 46.453125 6.25 46.4375C6.242188 46.433594 6.226563 46.441406 6.21875 46.4375C6.109375 46.390625 6.015625 46.328125 5.90625 46.28125C5.792969 46.207031 5.671875 46.125 5.59375 46C5.296875 45.53125 5.4375 44.921875 5.90625 44.625C11.554688 41.054688 13.242188 40.738281 16.375 39.40625C20.070313 37.835938 22.980469 36.582031 27.875 32.3125C36.074219 25.160156 37.28125 16.84375 37.28125 12.53125C37.28125 11.980469 37.726563 11.53125 38.28125 11.53125Z" fill="#4F51C0" />
</svg>