<svg xmlns="http://www.w3.org/2000/svg" viewBox="0 0 50 50">
  <path d="M25 1C20.029 1 16 5.029 16 10C16 12.351295 16.908622 14.484788 18.384766 16.087891L12.041016 14.818359L9.3828125 23.466797L15.185547 24.626953C16.241547 24.837953 17 25.764844 17 26.839844L17 28.914062C17 29.610063 16.854266 30.298547 16.572266 30.935547L12.773438 39.535156L21.349609 42.394531L25 34.134766L28.650391 42.394531L37.226562 39.535156L33.425781 30.935547C33.144781 30.299547 33 29.612016 33 28.916016L33 26.839844C33 25.763844 33.759453 24.837953 34.814453 24.626953L40.617188 23.466797L37.960938 14.818359L31.615234 16.087891C33.091378 14.484788 34 12.351295 34 10C34 5.029 29.971 1 25 1 z M 22.5 7C23.328 7 24 7.672 24 8.5C24 9.328 23.328 10 22.5 10C21.672 10 21 9.328 21 8.5C21 7.672 21.672 7 22.5 7 z M 27.5 7C28.328 7 29 7.672 29 8.5C29 9.328 28.328 10 27.5 10C26.672 10 26 9.328 26 8.5C26 7.672 26.672 7 27.5 7 z M 27.53125 12C27.658875 12.00825 27.784 12.066922 27.875 12.169922C28.058 12.376922 28.038078 12.693 27.830078 12.875C26.995078 13.611 26.017 14 25 14C23.983 14 23.004922 13.611953 22.169922 12.876953C21.961922 12.693953 21.942 12.376922 22.125 12.169922C22.308 11.962922 22.623078 11.943 22.830078 12.125C24.131078 13.27 25.868922 13.27 27.169922 12.125C27.273422 12.033 27.403625 11.99175 27.53125 12 z M 42.576172 13.998047C42.260588 13.993014 41.939062 14.023266 41.617188 14.087891L39.931641 14.423828L42.587891 23.070312L43.197266 22.949219C45.501266 22.489219 47.220516 20.392688 46.978516 18.054688C46.735266 15.707937 44.78526 14.033279 42.576172 13.998047 z M 7.4238281 14.001953C5.214918 14.038895 3.2656094 15.706859 3.0214844 18.052734C2.7784844 20.390734 4.4977344 22.490172 6.8027344 22.951172L7.4121094 23.072266L10.070312 14.425781L8.3828125 14.087891C8.0609375 14.023766 7.7393867 13.996676 7.4238281 14.001953 z M 25 20C26.105 20 27 20.895 27 22C27 23.105 26.105 24 25 24C23.895 24 23 23.105 23 22C23 20.895 23.895 20 25 20 z M 25 27C26.105 27 27 27.895 27 29C27 30.105 26.105 31 25 31C23.895 31 23 30.105 23 29C23 27.895 23.895 27 25 27 z M 11.962891 41.373047L11.46875 42.490234C10.51875 44.640234 11.234297 47.256062 13.279297 48.414062C15.625297 49.742063 18.552188 48.730359 19.617188 46.318359L20.539062 44.232422L11.962891 41.373047 z M 38.037109 41.373047L29.462891 44.232422L30.384766 46.318359C31.127766 48.001359 32.774953 49.001953 34.501953 49.001953C35.167953 49.001953 35.845328 48.853062 36.486328 48.539062C38.689328 47.460062 39.515438 44.719563 38.523438 42.476562L38.037109 41.373047 z" fill="#4F51C0" />
</svg>