<svg xmlns="http://www.w3.org/2000/svg" viewBox="0 0 50 50">
  <path d="M34.8125 0C34.726563 0 34.640625 0.015625 34.5625 0.0625C34.410156 0.152344 34.308594 0.320313 34.3125 0.5C34.316406 0.699219 34.371094 5.421875 35.71875 7.75C36.523438 9.152344 37.421875 9.84375 38.46875 9.84375C38.945313 9.84375 39.453125 9.710938 40 9.40625C40.652344 9.042969 41.355469 8.546875 41.59375 7.6875C41.800781 6.9375 41.597656 6.070313 41 5.03125C39.652344 2.699219 35.25 0.167969 35.0625 0.0625C34.984375 0.0195313 34.898438 0 34.8125 0 Z M 46.875 3.6875C46.789063 3.695313 46.699219 3.730469 46.625 3.78125C46.460938 3.898438 42.625 6.632813 41.46875 9.0625C40.457031 11.195313 40.800781 12.648438 42.5625 13.5C43.011719 13.714844 43.566406 13.9375 44.15625 13.9375C45.21875 13.9375 46.066406 13.238281 46.75 11.8125C47.902344 9.382813 47.425781 4.339844 47.40625 4.125C47.390625 3.945313 47.285156 3.792969 47.125 3.71875C47.042969 3.683594 46.960938 3.679688 46.875 3.6875 Z M 36.59375 10C33.964844 10 30.820313 10.839844 30.6875 10.875C30.511719 10.921875 30.386719 11.042969 30.34375 11.21875C30.296875 11.394531 30.335938 11.59375 30.46875 11.71875C30.613281 11.859375 34.089844 15.160156 36.75 15.875C37.335938 16.03125 37.878906 16.125 38.34375 16.125C39.738281 16.125 40.605469 15.4375 41 14.03125C41.195313 13.324219 41.347656 12.492188 40.90625 11.71875C40.511719 11.03125 39.726563 10.539063 38.53125 10.21875C38.003906 10.078125 37.359375 10 36.59375 10 Z M 49.59375 13.0625C49.507813 13.046875 49.398438 13.0625 49.3125 13.09375C49.125 13.164063 44.710938 14.824219 42.96875 16.875C41.4375 18.675781 41.394531 20.167969 42.875 21.4375C43.394531 21.882813 44.027344 22.34375 44.84375 22.34375C45.679688 22.34375 46.507813 21.886719 47.34375 20.90625C49.085938 18.855469 49.964844 13.867188 50 13.65625C50.03125 13.480469 49.949219 13.300781 49.8125 13.1875C49.742188 13.128906 49.679688 13.078125 49.59375 13.0625 Z M 32.0625 16.0625C31.910156 16.085938 31.714844 16.15625 31.625 16.3125C31.535156 16.46875 31.5625 16.691406 31.65625 16.84375C31.761719 17.019531 34.296875 21.117188 36.6875 22.5C37.574219 23.015625 38.316406 23.25 39 23.25C40.398438 23.25 41.066406 22.171875 41.28125 21.8125C41.65625 21.179688 42.003906 20.421875 41.78125 19.5625C41.582031 18.792969 40.953125 18.128906 39.875 17.5C37.476563 16.117188 32.28125 16.0625 32.0625 16.0625 Z M 31.28125 20.25C31.195313 20.261719 31.101563 20.285156 31.03125 20.34375C30.890625 20.457031 30.8125 20.632813 30.84375 20.8125C30.878906 21.011719 31.699219 25.769531 33.40625 27.9375C34.332031 29.113281 35.246094 29.6875 36.1875 29.6875C36.773438 29.6875 37.339844 29.460938 37.9375 29C38.519531 28.550781 39.140625 27.976563 39.25 27.09375C39.347656 26.304688 39.023438 25.449219 38.25 24.46875C36.539063 22.308594 31.734375 20.363281 31.53125 20.28125C31.445313 20.246094 31.367188 20.238281 31.28125 20.25 Z M 48.625 23.34375C48.425781 23.347656 43.679688 23.410156 41.34375 24.75C39.289063 25.925781 38.757813 27.332031 39.71875 29.03125C40 29.523438 40.675781 30.65625 42.0625 30.65625C42.671875 30.65625 43.347656 30.445313 44.125 30C46.464844 28.660156 48.988281 24.28125 49.09375 24.09375C49.183594 23.9375 49.152344 23.746094 49.0625 23.59375C48.972656 23.441406 48.835938 23.347656 48.625 23.34375 Z M 29.4375 24.96875C29.351563 24.960938 29.269531 24.992188 29.1875 25.03125C29.023438 25.109375 28.917969 25.257813 28.90625 25.4375C28.890625 25.640625 28.582031 30.472656 29.75 32.96875C30.496094 34.574219 31.445313 35.34375 32.59375 35.34375C33.007813 35.34375 33.417969 35.25 33.90625 35.03125C34.582031 34.726563 35.316406 34.304688 35.625 33.46875C35.898438 32.722656 35.773438 31.8125 35.25 30.6875C34.089844 28.191406 29.867188 25.1875 29.6875 25.0625C29.613281 25.011719 29.523438 24.976563 29.4375 24.96875 Z M 35.625 33.46875C35.378906 33.972656 35.316406 34.59375 35.4375 35.3125C35.570313 36.066406 35.875 37.84375 38.1875 37.84375C38.503906 37.84375 38.871094 37.785156 39.25 37.71875C41.898438 37.242188 45.773438 33.984375 45.9375 33.84375C46.074219 33.726563 46.125 33.519531 46.09375 33.34375C46.0625 33.167969 45.921875 33.027344 45.75 32.96875C45.605469 32.917969 42.199219 31.75 39.5625 31.75C39.144531 31.75 38.746094 31.785156 38.40625 31.84375C36.949219 32.105469 36.035156 32.632813 35.625 33.46875 Z M 25.96875 28.59375C25.789063 28.625 25.652344 28.734375 25.59375 28.90625C25.527344 29.097656 23.992188 33.691406 24.46875 36.40625C24.832031 38.476563 25.800781 39.53125 27.3125 39.53125C27.53125 39.53125 27.746094 39.503906 27.96875 39.46875C28.695313 39.34375 29.519531 39.101563 30.03125 38.375C30.488281 37.726563 30.589844 36.847656 30.375 35.625C29.894531 32.910156 26.609375 28.917969 26.46875 28.75C26.351563 28.613281 26.148438 28.558594 25.96875 28.59375 Z M 20.9375 32.15625C20.757813 32.171875 20.605469 32.273438 20.53125 32.4375C20.445313 32.625 18.46875 37.03125 18.65625 39.78125C18.824219 42.078125 19.761719 43.1875 21.53125 43.1875C21.621094 43.1875 21.714844 43.191406 21.8125 43.1875C21.894531 43.183594 21.980469 43.164063 22.0625 43.15625C18.023438 44.824219 10.40625 47.339844 1.375 47C0.125 48.390625 2.25 49 2.25 49C2.25 49 14.777344 48.988281 22.84375 43.59375C22.757813 43.757813 22.695313 43.933594 22.625 44.125C22.375 44.8125 22.152344 45.632813 22.53125 46.4375C22.871094 47.15625 23.601563 47.707031 24.78125 48.125C25.546875 48.394531 26.597656 48.53125 27.90625 48.53125C30.242188 48.53125 32.617188 48.109375 32.71875 48.09375C32.898438 48.0625 33.035156 47.921875 33.09375 47.75C33.152344 47.578125 33.121094 47.386719 33 47.25C32.863281 47.097656 29.605469 43.515625 27 42.59375C26.027344 42.25 25.226563 42.15625 24.5625 42.28125C24.769531 42.105469 24.988281 41.9375 25.1875 41.75C25.1875 41.75 24.675781 42.015625 23.90625 42.375C23.925781 42.351563 23.949219 42.335938 23.96875 42.3125C24.488281 41.714844 24.714844 40.828125 24.625 39.59375C24.433594 36.847656 21.527344 32.558594 21.40625 32.375C21.304688 32.226563 21.117188 32.144531 20.9375 32.15625 Z M 31.71875 37.6875C30.324219 37.839844 29.546875 38.644531 29.3125 40.09375C29.203125 40.820313 29.160156 41.660156 29.6875 42.375C30.160156 43.015625 30.984375 43.410156 32.21875 43.59375C32.488281 43.632813 32.757813 43.65625 33.0625 43.65625C35.835938 43.65625 39.800781 42.097656 39.96875 42.03125C40.136719 41.964844 40.257813 41.835938 40.28125 41.65625C40.304688 41.476563 40.238281 41.296875 40.09375 41.1875C39.929688 41.066406 36.046875 38.15625 33.3125 37.75C32.710938 37.660156 32.183594 37.636719 31.71875 37.6875Z" fill="#4F51C0" />
</svg>