<svg xmlns="http://www.w3.org/2000/svg" viewBox="0 0 50 50">
  <path d="M15.59375 4C4.195313 4 0 13.800781 0 20C0 38.199219 16.210938 45.898438 24.8125 46L25 46C33.699219 46 50 38.398438 50 20C50 13.800781 45.804688 4 34.40625 4C25.007813 4 18 10 18 18C18 20 18.507813 21.886719 19.40625 23.6875C22.007813 22.289063 24 20.398438 24 18C24 17.699219 23.992188 17.488281 24.09375 17.1875L24.09375 17C24.09375 16.800781 24.1875 16.605469 24.1875 16.40625C24.1875 16.207031 24.304688 16.105469 24.40625 15.90625C24.40625 15.804688 24.5 15.6875 24.5 15.6875C24.699219 15.1875 25.011719 14.804688 25.3125 14.40625L25.3125 14.3125C25.414063 14.210938 25.488281 14.007813 25.6875 13.90625L25.8125 13.8125C26.210938 13.414063 26.6875 12.988281 27.1875 12.6875C27.1875 12.6875 27.3125 12.695313 27.3125 12.59375C29.3125 11.394531 31.800781 10.8125 33.5 10.8125C38.300781 10.8125 42 14.8125 42 19.8125C42 23.113281 41.300781 25.40625 40.5 26.90625C42.300781 27.90625 43.398438 29.992188 43 32.09375C42.601563 34.492188 40.492188 36.1875 38.09375 36.1875C37.792969 36.1875 37.511719 36.195313 37.3125 36.09375C36.914063 35.992188 34.414063 35.601563 31.3125 34.5C29.210938 35.601563 27 36 25 36C22.898438 36 20.601563 35.605469 18.5 34.90625C16.5 35.605469 14.695313 35.988281 13.59375 36.1875C13.09375 36.289063 12.886719 36.304688 12.6875 36.40625C12.386719 36.40625 12.105469 36.5 11.90625 36.5C9.507813 36.5 7.398438 34.804688 7 32.40625C6.601563 30.105469 7.6875 28 9.6875 27C8.886719 25.199219 8 22.699219 8 20C8 13.398438 13.011719 11 16.3125 11C16.8125 11 17.289063 10.992188 17.6875 11.09375C18.886719 8.792969 20.613281 6.90625 22.8125 5.40625C20.710938 4.507813 18.195313 4 15.59375 4 Z M 31.09375 13.40625C28.792969 14.007813 26 15.398438 26 18C26 26 11.507813 28.5 11.40625 28.5C9.804688 28.800781 8.699219 30.300781 9 32C9.300781 33.5 10.5 34.5 12 34.5L12.5 34.5C12.601563 34.5 12.914063 34.40625 13.3125 34.40625C17.613281 33.40625 32 29.5 32 18C32 16.398438 31.695313 14.804688 31.09375 13.40625 Z M 47 20C47.601563 20 48 20.398438 48 21C48 21.601563 47.601563 22 47 22C46.398438 22 46 21.601563 46 21C46 20.398438 46.398438 20 47 20 Z M 6 21C6.601563 21 7 21.398438 7 22C7 22.601563 6.601563 23 6 23C5.398438 23 5 22.601563 5 22C5 21.398438 5.398438 21 6 21 Z M 45 24C45.601563 24 46 24.398438 46 25C46 25.601563 45.601563 26 45 26C44.398438 26 44 25.601563 44 25C44 24.398438 44.398438 24 45 24 Z M 31.40625 26.3125C30.207031 28.113281 28.605469 29.488281 26.90625 30.6875C31.707031 33.289063 36.992188 34.304688 37.59375 34.40625L38.09375 34.40625C39.492188 34.40625 40.792969 33.40625 41.09375 31.90625C41.394531 30.304688 40.292969 28.800781 38.59375 28.5C38.195313 28.398438 34.804688 27.8125 31.40625 26.3125 Z M 5 27C5.601563 27 6 27.398438 6 28C6 28.601563 5.601563 29 5 29C4.398438 29 4 28.601563 4 28C4 27.398438 4.398438 27 5 27 Z M 46 28C46.601563 28 47 28.398438 47 29C47 29.601563 46.601563 30 46 30C45.398438 30 45 29.601563 45 29C45 28.398438 45.398438 28 46 28 Z M 16 37C16.601563 37 17 37.398438 17 38C17 38.601563 16.601563 39 16 39C15.398438 39 15 38.601563 15 38C15 37.398438 15.398438 37 16 37 Z M 12 38C12.601563 38 13 38.398438 13 39C13 39.601563 12.601563 40 12 40C11.398438 40 11 39.601563 11 39C11 38.398438 11.398438 38 12 38 Z M 35 38C35.601563 38 36 38.398438 36 39C36 39.601563 35.601563 40 35 40C34.398438 40 34 39.601563 34 39C34 38.398438 34.398438 38 35 38 Z M 30 40C30.601563 40 31 40.398438 31 41C31 41.601563 30.601563 42 30 42C29.398438 42 29 41.601563 29 41C29 40.398438 29.398438 40 30 40Z" fill="#4F51C0" />
</svg>