<svg id="Слой_1" data-name="Слой 1" xmlns="http://www.w3.org/2000/svg" viewBox="0 0 512.67 286.97"><defs><style>.cls-1,.cls-2{fill:#1d1d1b;}.cls-2{font-size:21px;font-family:MyriadPro-Regular, Myriad Pro;}</style></defs><title>404</title><path class="cls-1" d="M125.22,369.23V290.6c0-3-4.29-5.29-6.4-2.66L71.16,347.35c-2,2.45-.84,6.35,2.65,6.4l58.72.85c4.83.07,4.83-7.43,0-7.5l-58.72-.85,2.65,6.4,47.66-59.4-6.4-2.65v78.63c0,4.83,7.5,4.84,7.5,0Z" transform="translate(-70.2 -283.71)"/><path class="cls-1" d="M204.36,328.3c-.16,12.15-3.45,28-14.69,34.91-10.35,6.38-20-2.2-24.58-11.29-6.46-12.72-6.76-29.06-2.06-42.39,3.27-9.28,11.73-21.5,23.23-17.76,14,4.54,17.94,24,18.1,36.53.06,4.82,7.56,4.83,7.5,0-.19-15.14-5.07-34.65-19.8-42.19-13.26-6.78-26.35,1.77-32.82,13.6-8.45,15.44-9,35.8-2.43,52,5,12.25,16.43,24.58,30.94,20.5,17.87-5,23.9-27.73,24.11-43.9C211.92,323.47,204.42,323.47,204.36,328.3Z" transform="translate(-70.2 -283.71)"/><path class="cls-1" d="M290.32,369.23V290.6c0-3-4.28-5.29-6.4-2.66l-47.66,59.41c-2,2.45-.83,6.35,2.65,6.4,23.13.34,46.26.86,69.4.84l111.41-.12,34.17,0-2.65-1.1,19.92,19.41-1.1-2.65v48c0,4.82,7.5,4.83,7.5,0v-31.3c0-5,.12-10.07,0-15.1-.09-3.64-2-5.11-4.48-7.55L458.9,350.32c-1.84-1.79-3.1-3.17-5.75-3.39-6.41-.51-13.09,0-19.52,0-45.1.05-90.22.35-135.32.15-19.8-.09-39.6-.56-59.4-.85l2.66,6.4,47.66-59.4-6.41-2.65v78.63c0,4.83,7.5,4.84,7.5,0Z" transform="translate(-70.2 -283.71)"/><path class="cls-1" d="M485.72,445.15h-23l-3.1-.13q1.55-13.08,3.1-26.17h23q1.5,13,3,26Z" transform="translate(-70.2 -283.71)"/><rect class="cls-1" x="385.19" y="163.35" width="37.57" height="11.36"/><rect class="cls-1" x="393.27" y="171.84" width="5.17" height="21" rx="2.59"/><rect class="cls-1" x="408.97" y="171.84" width="4.85" height="20.74" rx="2.43"/><rect class="cls-1" x="384.72" y="212.33" width="38.04" height="15.15"/><path class="cls-1" d="M485.38,539.87H462.49l-2.89-26,2.89.26h22.89l3.07-.26Q486.92,526.9,485.38,539.87Z" transform="translate(-70.2 -283.71)"/><path class="cls-1" d="M470.19,534.64l.06,14.63c0,4.19.72,5.87,3.66,8.86,3.27,3.32,6.49,7.71,10.27,10.44,1.92,1.39,4,1.11,6.25,1.13l66.9.74,21.91.25c4.83,0,4.84-7.45,0-7.5l-80.67-.9-11.74-.13,2.65,1.1-12.81-13,1.1,2.65-.08-18.25c0-4.83-7.53-4.84-7.5,0Z" transform="translate(-70.2 -283.71)"/><text class="cls-2" transform="translate(245.7 55.35)">oops!</text></svg>