<svg id="Слой_1" data-name="Слой 1" xmlns="http://www.w3.org/2000/svg" viewBox="0 0 472.48 289.34"><defs><style>.cls-1,.cls-2{fill:#d8d8d8;}.cls-2{font-size:35.66px;font-family:CooperBlack, Cooper Black;letter-spacing:0.06em;}.cls-3{letter-spacing:0.01em;}.cls-4{letter-spacing:0.06em;}</style></defs><path class="cls-1" d="M95.6,277.65H64.77v-14l4.36-.5q-.06-15.83-.13-31.65-2.16.79-4.32,1.62v-14q14.56-7.42,29.56-13.61.17,8.64.32,17.28l-3.65,1.16q.09,5.39.19,10.77,6.63-1.69,13.32-3.24c-.08-3.86-.17-7.72-.25-11.58l-3.72,1.09q-.18-8.92-.37-17.85,15-5.93,30.38-10.64.25,10.2.49,20.4l-4.4,1q.53,21.86,1,43.69l4.42-.33.48,20.4H101.62q-.18-8.92-.37-17.85l3.77-.34L104.75,247q-6.7,1-13.4,2.15.11,5.79.2,11.58l3.72-.36Z" transform="translate(-14.24 -105.11)"/><path class="cls-1" d="M198.68,277.65h-33.4q-.24-11.22-.47-22.46l5.41-.27q-.5-24.75-1-49.49c-1.81.28-3.63.57-5.44.87q-.23-11.24-.46-22.46,16.88-3.68,34-5.91l.33,23.87-5.44.57L193,254l5.38-.18Z" transform="translate(-14.24 -105.11)"/><path class="cls-1" d="M286.47,277.65H230.7q-.06-12.28-.13-24.58l5.3-.06q-.1-26.82-.22-53.64-2.68.07-5.37.18-.08-12.3-.14-24.58,17.21-.85,34.44-.27l-.09,24.65-5.68-.12q-.06,26.86-.13,53.74,7,0,13.95.13.06-8.22.1-16.44,7.08.15,14.14.41Q286.66,257.37,286.47,277.65Z" transform="translate(-14.24 -105.11)"/><path class="cls-1" d="M372.57,277.65H316.81q.19-11.67.4-23.34l5.29.22q.45-25.15.91-50.33l-5.33-.71q.19-11.67.4-23.34,17,2.86,33.86,7.19-.24,10.8-.49,21.62-2.79-.56-5.58-1.06l-1,47.8c4.62.27,9.25.56,13.86.86l.33-14.12q7,.78,14,1.67Q373,260.88,372.57,277.65Z" transform="translate(-14.24 -105.11)"/><path class="cls-1" d="M436.27,277.65h-33.4q.18-8.76.35-17.52l5.35.52.66-37L404,222q.16-8.76.34-17.52,16.21,6.59,32,14.6v14q-2.55-1-5.12-1.92-.07,15.92-.16,31.85l5.28.61Z" transform="translate(-14.24 -105.11)"/><path class="cls-1" d="M250.48,105.11q3.33,9.44,6.39,18.91,10.35.14,20.69.74-8.7,5.34-17,11,2.9,9.49,5.55,19-7.61-6.11-15.64-11.94-8,5.83-15.64,11.94,2.64-9.54,5.55-19-8.29-5.64-17-11,10.33-.6,20.68-.74Q247.15,114.54,250.48,105.11Z" transform="translate(-14.24 -105.11)"/><path class="cls-1" d="M313.36,112.34q1.8,8.55,3.39,17.12,9,1.31,17.89,2.95-8.14,3.68-16,7.64,1.47,8.56,2.73,17.14-6-6.15-12.33-12.14-7.68,4.14-15.05,8.52,3.45-7.95,7.08-15.84-6.54-5.86-13.43-11.54,9,.74,18,1.81Q309.4,120.14,313.36,112.34Z" transform="translate(-14.24 -105.11)"/><path class="cls-1" d="M367.83,126q.66,7.47,1.18,14.92,7.53,2,15,4.25-7.32,2.37-14.44,5,.42,7.44.7,14.87-4.57-5.83-9.43-11.58-7,2.73-13.8,5.68,3.79-6.39,7.71-12.74-5-5.67-10.28-11.23,7.61,1.57,15.18,3.42Q363.67,132.19,367.83,126Z" transform="translate(-14.24 -105.11)"/><path class="cls-1" d="M413.77,143.41q-.09,6.24-.28,12.47,6.12,2.31,12.18,4.8-6.29,1.35-12.45,2.89-.25,6.21-.61,12.41-3.39-5.25-7-10.44-6.09,1.64-12.05,3.45,3.74-5,7.56-9.85-3.7-5.16-7.58-10.26,6.19,2,12.34,4.22Q409.79,148.23,413.77,143.41Z" transform="translate(-14.24 -105.11)"/><path class="cls-1" d="M451.44,162.53c-.35,3.32-.71,6.62-1.09,9.93q4.74,2.28,9.46,4.68-5.13.66-10.2,1.44-.62,4.93-1.29,9.86-2.42-4.44-4.94-8.86-5,.85-10,1.83,3.36-3.66,6.79-7.28-2.61-4.4-5.33-8.77,4.81,2.1,9.58,4.32Q447.92,166.08,451.44,162.53Z" transform="translate(-14.24 -105.11)"/><path class="cls-1" d="M187.59,112.34q-1.78,8.55-3.38,17.12-9,1.31-17.89,2.95,8.15,3.68,16,7.64-1.47,8.56-2.73,17.14,6-6.15,12.33-12.14,7.67,4.14,15.05,8.52-3.45-7.95-7.09-15.84,6.56-5.86,13.44-11.54-9,.74-18,1.81Q191.55,120.14,187.59,112.34Z" transform="translate(-14.24 -105.11)"/><path class="cls-1" d="M133.13,126q-.66,7.47-1.18,14.92-7.53,2-15,4.25,7.32,2.37,14.44,5-.44,7.44-.71,14.87,4.59-5.83,9.43-11.58,7,2.73,13.8,5.68-3.78-6.39-7.7-12.74,5-5.67,10.28-11.23-7.62,1.57-15.18,3.42Q137.27,132.19,133.13,126Z" transform="translate(-14.24 -105.11)"/><path class="cls-1" d="M87.19,143.41q.09,6.24.28,12.47-6.12,2.31-12.19,4.8,6.28,1.35,12.46,2.89.26,6.21.6,12.41,3.41-5.25,7-10.44,6.09,1.64,12.06,3.45-3.74-5-7.56-9.85,3.69-5.16,7.58-10.26-6.19,2-12.34,4.22Q91.17,148.23,87.19,143.41Z" transform="translate(-14.24 -105.11)"/><path class="cls-1" d="M49.52,162.53c.34,3.32.7,6.62,1.09,9.93q-4.76,2.28-9.46,4.68,5.13.66,10.19,1.44c.41,3.29.85,6.58,1.3,9.86q2.4-4.44,4.93-8.86,5,.85,10,1.83-3.37-3.66-6.79-7.28,2.59-4.4,5.33-8.77-4.81,2.1-9.59,4.32Q53,166.08,49.52,162.53Z" transform="translate(-14.24 -105.11)"/><rect class="cls-1" x="50.45" y="185.01" width="371.59" height="72.88"/><polygon class="cls-1" points="42.98 196.69 42.98 267.01 0 267.01 18.2 231.85 0 196.69 42.98 196.69"/><polygon class="cls-1" points="429.5 196.69 429.5 267.01 472.48 267.01 454.29 231.85 472.48 196.69 429.5 196.69"/><path class="cls-1" d="M164.52,382.9a2,2,0,0,1-1.13-.32,2,2,0,0,1-.72-.87,3,3,0,0,1-.25-1.25,4,4,0,0,1,.47-1.86,3.75,3.75,0,0,1,1.42-1.49,4.49,4.49,0,0,1,2.4-.58,5.55,5.55,0,0,1,1.18.12,9.65,9.65,0,0,1,1,.27c.33.11.65.21,1,.29a5.61,5.61,0,0,0,1,.17l-2.09.73,0-.1-.48-.21a2.66,2.66,0,0,0-.91-.12,2.21,2.21,0,0,0-1.75.71,2.91,2.91,0,0,0-.63,2,4.45,4.45,0,0,0,.13,1.09,4.65,4.65,0,0,0,.43,1.09,1.5,1.5,0,0,1-.52.26A2.08,2.08,0,0,1,164.52,382.9Zm1.89,8a2.14,2.14,0,0,1-.87-.17.82.82,0,0,1-.48-.49,1.33,1.33,0,0,0,.44-.38,2,2,0,0,0,.29-.63,6.45,6.45,0,0,0,.22-.95l1.47-7.74a4.73,4.73,0,0,1,.64-1.69,2.8,2.8,0,0,1,1.13-1,4.69,4.69,0,0,1,1.67-.46l-2.21,11.24a4.88,4.88,0,0,1-.42,1.29,1.79,1.79,0,0,1-.73.76A2.45,2.45,0,0,1,166.41,390.92Z" transform="translate(-14.24 -105.11)"/><path class="cls-1" d="M175,383a2,2,0,0,1-1.13-.31,2,2,0,0,1-.69-.84,3,3,0,0,1-.24-1.23,3.69,3.69,0,0,1,.27-1.38A3.58,3.58,0,0,1,174,378a4.05,4.05,0,0,1,1.4-.89,5.55,5.55,0,0,1,2-.33,12.41,12.41,0,0,1,1.78.13l1.65.28a13,13,0,0,0,1.71.19l-1.35,1.35-1.89-.52-.1-.17a4.41,4.41,0,0,0-1.23-.16,2.34,2.34,0,0,0-1.8.71,2.88,2.88,0,0,0-.68,2.05,4.79,4.79,0,0,0,.11,1,4.38,4.38,0,0,0,.37,1,1.33,1.33,0,0,1-.5.26A2.06,2.06,0,0,1,175,383Zm.88,7.94a1.45,1.45,0,0,1-1.05-.38,1.15,1.15,0,0,1-.4-.87.71.71,0,0,1,.08-.36,2.08,2.08,0,0,0,1.14-.36,3,3,0,0,0,.91-1,8.6,8.6,0,0,0,.76-1.63c.23-.65.46-1.41.68-2.29s.46-1.88.7-3,.49-2.34.75-3.69l1.17,2c-.24,1.71-.48,3.2-.73,4.44s-.51,2.29-.77,3.14a14.61,14.61,0,0,1-.78,2.06,4.52,4.52,0,0,1-.82,1.2,2.19,2.19,0,0,1-.82.55A2.57,2.57,0,0,1,175.84,390.94Zm9.13-.22a1.61,1.61,0,0,1-.93-.25,2,2,0,0,1-.64-.68,4.51,4.51,0,0,1-.42-1l-2.42-8.47-1.29-2.9h3.28l2.81,10,.78,3.16a2.59,2.59,0,0,1-.57.16A3.29,3.29,0,0,1,185,390.72Zm-1.39-14.17L181,374.38l.83-.79,2.15,1,2.66-1,.57.79-3.15,2.17Zm2.56,13.95-1.09-2.32q.57-3.31,1.11-5.7c.36-1.59.71-2.92,1.05-4a18,18,0,0,1,1-2.6,6.17,6.17,0,0,1,1-1.49,2.83,2.83,0,0,1,1-.68,2.73,2.73,0,0,1,1-.18,1.58,1.58,0,0,1,1.25.51,1.67,1.67,0,0,1,.46,1.18,1.37,1.37,0,0,1-.24.77,1.92,1.92,0,0,0-.68-.14,2.45,2.45,0,0,0-1.08.25,2.78,2.78,0,0,0-.92.85,7.68,7.68,0,0,0-.84,1.68c-.27.72-.56,1.61-.86,2.69s-.62,2.37-1,3.88S186.56,388.48,186.14,390.5Z" transform="translate(-14.24 -105.11)"/><path class="cls-1" d="M198.82,390.88a3.55,3.55,0,0,1-2.11-.6,3.5,3.5,0,0,1-1.26-1.71,7.46,7.46,0,0,1-.42-2.64,12,12,0,0,1,.29-2.58,10.88,10.88,0,0,1,.86-2.44,8.43,8.43,0,0,1,1.43-2,6.32,6.32,0,0,1,2-1.39,6.1,6.1,0,0,1,2.54-.51,5.94,5.94,0,0,1,1.35.16,3.66,3.66,0,0,1,1.12.49,2.55,2.55,0,0,1,.77.8,2.14,2.14,0,0,1,.29,1.11,2.19,2.19,0,0,1-.27,1.12,1.89,1.89,0,0,1-.7.73,1.87,1.87,0,0,1-1,.26,2.24,2.24,0,0,1-.46-.07,1.34,1.34,0,0,1-.45-.21,1.8,1.8,0,0,0,.24-.6,3.84,3.84,0,0,0,.08-.79,2,2,0,0,0-.16-.81,1.33,1.33,0,0,0-.5-.6,1.58,1.58,0,0,0-.85-.22,2.1,2.1,0,0,0-1.36.5,4.44,4.44,0,0,0-1.05,1.32,9.52,9.52,0,0,0-.74,1.81,15.06,15.06,0,0,0-.43,2,12.13,12.13,0,0,0-.15,1.81A8.77,8.77,0,0,0,198,387a3.1,3.1,0,0,0,.32,1,1.66,1.66,0,0,0,.63.68,1.93,1.93,0,0,0,1,.25,3.29,3.29,0,0,0,.76-.09,2.61,2.61,0,0,0,.69-.27,1.31,1.31,0,0,0,.48-.41v1.43a6,6,0,0,1-.85.57,5,5,0,0,1-1,.46A3.87,3.87,0,0,1,198.82,390.88Zm1.93,3.57a2.17,2.17,0,0,1-1.21-.36,1.43,1.43,0,0,1-.64-1.13.47.47,0,0,0,.17,0h.15a1.8,1.8,0,0,0,1.16-.38,2.54,2.54,0,0,0,.74-1,5.29,5.29,0,0,0,.41-1.41q.14-.78.21-1.62l.64-4.3,2.85-.36a9.63,9.63,0,0,0-.5,1.49c-.14.54-.28,1.16-.41,1.86s-.28,1.52-.46,2.45c-.13.76-.27,1.44-.43,2a6.73,6.73,0,0,1-.57,1.48,2.27,2.27,0,0,1-.83.9A2.4,2.4,0,0,1,200.75,394.45Z" transform="translate(-14.24 -105.11)"/><path class="cls-1" d="M211.92,390.92a4.17,4.17,0,0,1-3.25-1.21,5.36,5.36,0,0,1-1.09-3.68,12.68,12.68,0,0,1,.29-2.76,12,12,0,0,1,.87-2.57,8.8,8.8,0,0,1,1.37-2.14,6.05,6.05,0,0,1,1.83-1.45,4.91,4.91,0,0,1,2.26-.52,3.54,3.54,0,0,1,.48,0,2.26,2.26,0,0,1,.44.08v.08a4.62,4.62,0,0,0-2,.81,5.32,5.32,0,0,0-1.39,1.55,8.38,8.38,0,0,0-.87,2.05,14.67,14.67,0,0,0-.45,2.34c-.08.82-.12,1.63-.12,2.44a4.89,4.89,0,0,0,.56,2.68,1.84,1.84,0,0,0,1.64.85,2.34,2.34,0,0,0,1.53-.58,5.24,5.24,0,0,0,1.21-1.52,11.6,11.6,0,0,0,.87-2.08,15.64,15.64,0,0,0,.54-2.3,14.17,14.17,0,0,0,.18-2.16,4.28,4.28,0,0,0-.25-1.63.85.85,0,0,0-.81-.57.94.94,0,0,0-.74.34,2.17,2.17,0,0,0-.47.91,5.16,5.16,0,0,0-.16,1.31,3.13,3.13,0,0,0,.21,1.25,1.93,1.93,0,0,0,.57.76,1.65,1.65,0,0,1-1.29.59,1.49,1.49,0,0,1-1.17-.52,2.24,2.24,0,0,1-.48-1.54,4.81,4.81,0,0,1,1.08-3,4,4,0,0,1,1.26-1,3.5,3.5,0,0,1,1.61-.38,2.87,2.87,0,0,1,1.76.52,3.11,3.11,0,0,1,1.06,1.46,6.32,6.32,0,0,1,.36,2.27,10.8,10.8,0,0,1-.28,2.54,11.22,11.22,0,0,1-.9,2.51,9.4,9.4,0,0,1-1.5,2.15,6.85,6.85,0,0,1-2.09,1.52A6,6,0,0,1,211.92,390.92Z" transform="translate(-14.24 -105.11)"/><path class="cls-1" d="M223.1,390.7a2.77,2.77,0,0,1-.42,0,1.9,1.9,0,0,1-.36-.09c.07-.72.13-1.45.18-2.21s.1-1.51.13-2.24.05-1.38.05-2a23.32,23.32,0,0,0-.13-2.75,9.13,9.13,0,0,0-.35-1.79,4.22,4.22,0,0,0-.49-1.08,3.45,3.45,0,0,0-.6-.65,2.73,2.73,0,0,1,.84-.64A2.39,2.39,0,0,1,223,377a1.59,1.59,0,0,1,1.22.57,3.88,3.88,0,0,1,.77,1.73,13.38,13.38,0,0,1,.27,3c0,.59,0,1.23-.06,1.95s-.09,1.45-.17,2.22-.15,1.52-.25,2.26h.06a7.24,7.24,0,0,0,1.78-1.37,9.25,9.25,0,0,0,1.4-1.86,9.66,9.66,0,0,0,.93-2.17,7.8,7.8,0,0,0,.34-2.26,5.82,5.82,0,0,0-.22-1.67,4.6,4.6,0,0,0-.65-1.4,1.84,1.84,0,0,1,.58-.68,1.53,1.53,0,0,1,2.05.21,3.43,3.43,0,0,1,.66,1.58,14,14,0,0,1,.22,2.78c0,.61,0,1.32-.1,2.13s-.15,1.64-.24,2.46-.19,1.59-.3,2.27h.06a4.48,4.48,0,0,0,1.43-1A8.4,8.4,0,0,0,234.1,386a13.28,13.28,0,0,0,1-2,14.76,14.76,0,0,0,.67-2.18,9.41,9.41,0,0,0,.25-2.12,5.84,5.84,0,0,0-.2-1.56,3.3,3.3,0,0,0-.6-1.2,1.53,1.53,0,0,1,.68-.81,2,2,0,0,1,1-.3,1.33,1.33,0,0,1,.79.25,1.66,1.66,0,0,1,.54.75,3.62,3.62,0,0,1,.2,1.28,11,11,0,0,1-.31,2.48,18.74,18.74,0,0,1-2.25,5.49,14.6,14.6,0,0,1-1.77,2.35,8.16,8.16,0,0,1-2.09,1.64,4.8,4.8,0,0,1-2.33.61,2.25,2.25,0,0,1-.38,0l-.36-.07c.07-.42.13-.89.18-1.39l.15-1.52c.05-.51.09-1,.13-1.42h-.08a11.77,11.77,0,0,1-1.81,2.31,8.18,8.18,0,0,1-2.18,1.57A5.12,5.12,0,0,1,223.1,390.7Z" transform="translate(-14.24 -105.11)"/><path class="cls-1" d="M241.62,387.86c0-.45,0-.94,0-1.46s0-1.07,0-1.66q-.06-1.25-.21-2.31a12.29,12.29,0,0,0-.42-1.93,8.1,8.1,0,0,0-.63-1.53,3.51,3.51,0,0,0-.89-1.07,2.49,2.49,0,0,1,.78-.69,1.8,1.8,0,0,1,.87-.23,1.88,1.88,0,0,1,1.4.63,4.66,4.66,0,0,1,1,1.81,10.61,10.61,0,0,1,.45,2.88c0,1,0,1.93-.07,2.88s-.16,1.83-.25,2.62Zm.13,6.37a1.74,1.74,0,0,1-1.39-.65,2.25,2.25,0,0,1-.51-1.61,4,4,0,0,1,.55-2,9.11,9.11,0,0,1,1.42-1.84c.61-.62,1.29-1.27,2.06-2a16.44,16.44,0,0,0,1.49-1.62,14.2,14.2,0,0,0,1.22-1.83,10.61,10.61,0,0,0,.84-2,7.13,7.13,0,0,0,.34-2,5,5,0,0,0-.12-1.14,3.63,3.63,0,0,0-.38-1,2,2,0,0,1,.78-.63,2.18,2.18,0,0,1,.93-.21,1.23,1.23,0,0,1,.77.26,1.75,1.75,0,0,1,.55.75,2.79,2.79,0,0,1,.17,1.24,7.23,7.23,0,0,1-.66,3,13.45,13.45,0,0,1-1.59,2.67,26.11,26.11,0,0,1-2.06,2.37c-.65.64-1.25,1.26-1.81,1.85a11.83,11.83,0,0,0-1.39,1.73,3.25,3.25,0,0,0-.59,1.64,2.1,2.1,0,0,0,.29,1.15,4.24,4.24,0,0,0,.94,1.06,3,3,0,0,1-.87.55A2.67,2.67,0,0,1,241.75,394.23Z" transform="translate(-14.24 -105.11)"/><path class="cls-1" d="M259.24,390.9a5.41,5.41,0,0,1-2.18-.39,2.93,2.93,0,0,1-1.34-1.08,2.89,2.89,0,0,1-.15-2.83,2.23,2.23,0,0,1,.81-.88,2.25,2.25,0,0,1,1.19-.32,2,2,0,0,1,.87.18,1.5,1.5,0,0,1,.57.48,1.28,1.28,0,0,1,.21.73,1.77,1.77,0,0,1,0,.22.46.46,0,0,1,0,.21.72.72,0,0,0-.22,0h-.21a1,1,0,0,0-.7.27,1.11,1.11,0,0,0-.28.8,1.17,1.17,0,0,0,.52,1,2.27,2.27,0,0,0,1.33.37,2.53,2.53,0,0,0,1.1-.24,2,2,0,0,0,.83-.73,2,2,0,0,0,.33-1.18,2.15,2.15,0,0,0-.33-1.17,4.43,4.43,0,0,0-.84-1c-.34-.31-.7-.6-1.07-.89s-.78-.63-1.13-1a4.5,4.5,0,0,1-.89-1.14,3.13,3.13,0,0,1-.34-1.5,3.21,3.21,0,0,1,.42-1.65,3.77,3.77,0,0,1,1.14-1.21,5.18,5.18,0,0,1,1.59-.75,6.81,6.81,0,0,1,1.87-.26,6.09,6.09,0,0,1,1.79.25,2.79,2.79,0,0,1,1.25.76,1.75,1.75,0,0,1,.45,1.22,2.18,2.18,0,0,1-.28,1.13,2,2,0,0,1-.71.73,1.86,1.86,0,0,1-.95.26,1.88,1.88,0,0,1-.65-.11,1,1,0,0,1-.42-.27,1.76,1.76,0,0,0,.37-.57,1.79,1.79,0,0,0,.16-.76,1.45,1.45,0,0,0-.35-1,1.47,1.47,0,0,0-1.16-.39,2,2,0,0,0-1.34.49,1.66,1.66,0,0,0-.54,1.3,1.9,1.9,0,0,0,.33,1.1,4.05,4.05,0,0,0,.86.9c.34.28.7.56,1.07.84s.78.63,1.15,1a4.22,4.22,0,0,1,.89,1.18,3.41,3.41,0,0,1,.34,1.58,3.62,3.62,0,0,1-.46,1.84,4.3,4.3,0,0,1-1.23,1.36,5.66,5.66,0,0,1-1.71.83A6.88,6.88,0,0,1,259.24,390.9Z" transform="translate(-14.24 -105.11)"/><path class="cls-1" d="M278.65,393.66a1.51,1.51,0,0,1-1-.36,2.74,2.74,0,0,1-.74-1.13,8.48,8.48,0,0,1-.48-2c-.11-.82-.19-1.81-.23-3h-3.33a15.4,15.4,0,0,1-1.57,2.36,4.4,4.4,0,0,1-1.27,1.1,2.43,2.43,0,0,1-1.07.29,1.4,1.4,0,0,1-1-.33,1,1,0,0,1-.31-.76,1.14,1.14,0,0,1,0-.28,1.17,1.17,0,0,1,.09-.24,2.43,2.43,0,0,0,1.17-.3,4.69,4.69,0,0,0,1.11-.87,10,10,0,0,0,1.12-1.47c.38-.6.78-1.3,1.2-2.11s.88-1.73,1.36-2.76,1-2.19,1.58-3.45l-.1-.2c-.19-.06-.42-.12-.7-.18a4.33,4.33,0,0,0-.89-.09,2.45,2.45,0,0,0-1.92.76,3,3,0,0,0-.72,2,4.1,4.1,0,0,0,.1,1.06,4.2,4.2,0,0,0,.42,1,1.67,1.67,0,0,1-.53.28,2.08,2.08,0,0,1-.58.1,1.82,1.82,0,0,1-1.12-.34,2.1,2.1,0,0,1-.67-.88,3.24,3.24,0,0,1-.2-1.23,3.87,3.87,0,0,1,.54-1.85,4,4,0,0,1,1.56-1.5,5.06,5.06,0,0,1,2.57-.6,11.54,11.54,0,0,1,1.33.09l1.55.21,1.57.21a12.3,12.3,0,0,0,1.42.09c0,.61,0,1.29-.06,2.05s-.05,1.57-.07,2.41,0,1.68,0,2.53.05,1.72.1,2.55.14,1.6.26,2.32a10.32,10.32,0,0,0,.49,1.92,3.69,3.69,0,0,0,.8,1.33,1.7,1.7,0,0,1-.36.54,2.25,2.25,0,0,1-.6.45A1.67,1.67,0,0,1,278.65,393.66Zm-5.06-7.92h2.6c0-.43,0-1,0-1.61s0-1.36.07-2.14l.09-2.37h0q-.74,1.9-1.47,3.45C274.37,384.09,274,385,273.59,385.74Z" transform="translate(-14.24 -105.11)"/><path class="cls-1" d="M284.83,387.86c0-.45,0-.94.05-1.46s0-1.07,0-1.66q-.06-1.25-.21-2.31a12.29,12.29,0,0,0-.42-1.93,8.1,8.1,0,0,0-.63-1.53,3.51,3.51,0,0,0-.89-1.07,2.49,2.49,0,0,1,.78-.69,1.8,1.8,0,0,1,.87-.23,1.88,1.88,0,0,1,1.4.63,4.66,4.66,0,0,1,1,1.81,10.61,10.61,0,0,1,.45,2.88c0,1,0,1.93-.07,2.88s-.16,1.83-.25,2.62Zm.14,6.37a1.75,1.75,0,0,1-1.4-.65,2.25,2.25,0,0,1-.51-1.61,4,4,0,0,1,.55-2,9.11,9.11,0,0,1,1.42-1.84c.61-.62,1.29-1.27,2.06-2a16.44,16.44,0,0,0,1.49-1.62,14.2,14.2,0,0,0,1.22-1.83,10.61,10.61,0,0,0,.84-2,7.13,7.13,0,0,0,.34-2,5,5,0,0,0-.12-1.14,3.32,3.32,0,0,0-.38-1,2.06,2.06,0,0,1,.78-.63,2.18,2.18,0,0,1,.93-.21,1.23,1.23,0,0,1,.77.26,1.75,1.75,0,0,1,.55.75,2.79,2.79,0,0,1,.17,1.24,7.23,7.23,0,0,1-.66,3,13.45,13.45,0,0,1-1.59,2.67,26.11,26.11,0,0,1-2.06,2.37c-.65.64-1.25,1.26-1.81,1.85a11.83,11.83,0,0,0-1.39,1.73,3.25,3.25,0,0,0-.59,1.64,2.1,2.1,0,0,0,.29,1.15,4.24,4.24,0,0,0,.94,1.06,3,3,0,0,1-.87.55A2.65,2.65,0,0,1,285,394.23Zm1.78-18.85-.18-.9,4.71-1.82a.88.88,0,0,1,.34.38,1.18,1.18,0,0,1,.11.55,1.3,1.3,0,0,1-.4,1,2.25,2.25,0,0,1-1,.49,8.54,8.54,0,0,1-1.25.15Z" transform="translate(-14.24 -105.11)"/><path class="cls-1" d="M301.78,394.05a4.3,4.3,0,0,1-1.8-.38,9.38,9.38,0,0,1-1.57-.95c-.49-.37-1-.74-1.46-1.12a9,9,0,0,0-1.45-1,3.21,3.21,0,0,0-2-.35l-.36.1a1,1,0,0,1-.14-.25.75.75,0,0,1-.06-.29,1,1,0,0,1,.16-.53,1.09,1.09,0,0,1,.48-.38,2.14,2.14,0,0,1,.83-.14,4.18,4.18,0,0,1,1.44.28,11.53,11.53,0,0,1,1.53.71l1.58.85a11.74,11.74,0,0,0,1.56.7,4.27,4.27,0,0,0,1.5.28,3.62,3.62,0,0,0,.82-.09,2.89,2.89,0,0,0,.7-.25,1.09,1.09,0,0,1,.41.47,1.34,1.34,0,0,1-.13,1.37,2,2,0,0,1-.76.65A2.61,2.61,0,0,1,301.78,394.05Zm-6.32-4.6-1.25-.44a3.78,3.78,0,0,0,1.06-1.34,6.71,6.71,0,0,0,.51-1.8c.11-.7.2-1.51.28-2.44A9,9,0,0,1,297,380a5.62,5.62,0,0,1,2-2.24,5.39,5.39,0,0,1,2.94-.79,4,4,0,0,1,1.69.35,2.85,2.85,0,0,1,1.18,1,2.59,2.59,0,0,1,.42,1.53A2.79,2.79,0,0,1,305,381a2.35,2.35,0,0,1-.7.91,1.77,1.77,0,0,1-1.09.34,1.69,1.69,0,0,1-.56-.09,1.43,1.43,0,0,1-.44-.24,1.77,1.77,0,0,0,.41-.8,4.13,4.13,0,0,0,.15-1.11,2,2,0,0,0-.37-1.36,1.27,1.27,0,0,0-1-.47,1.76,1.76,0,0,0-1.13.36,2.57,2.57,0,0,0-.76,1.06,8.76,8.76,0,0,0-.47,1.7c-.12.66-.22,1.41-.3,2.24a9.48,9.48,0,0,1-.57,2.64,7.19,7.19,0,0,1-1.12,2A5,5,0,0,1,295.46,389.45Z" transform="translate(-14.24 -105.11)"/><path class="cls-1" d="M317.72,393.66a1.54,1.54,0,0,1-1-.36,2.74,2.74,0,0,1-.74-1.13,8.48,8.48,0,0,1-.48-2c-.11-.82-.19-1.81-.23-3h-3.33a15.4,15.4,0,0,1-1.57,2.36,4.4,4.4,0,0,1-1.27,1.1,2.43,2.43,0,0,1-1.07.29,1.41,1.41,0,0,1-1-.33,1,1,0,0,1-.31-.76,1.14,1.14,0,0,1,0-.28,1.17,1.17,0,0,1,.09-.24A2.43,2.43,0,0,0,308,389a4.69,4.69,0,0,0,1.11-.87,9.38,9.38,0,0,0,1.12-1.47c.38-.6.78-1.3,1.2-2.11s.88-1.73,1.36-2.76,1-2.19,1.58-3.45l-.1-.2a6.93,6.93,0,0,0-.7-.18,4.33,4.33,0,0,0-.89-.09,2.45,2.45,0,0,0-1.92.76,3,3,0,0,0-.72,2,4.1,4.1,0,0,0,.1,1.06,4.2,4.2,0,0,0,.42,1,1.67,1.67,0,0,1-.53.28,2.08,2.08,0,0,1-.58.1,1.82,1.82,0,0,1-1.12-.34,2.1,2.1,0,0,1-.67-.88,3.24,3.24,0,0,1-.2-1.23,4,4,0,0,1,.54-1.85,4,4,0,0,1,1.56-1.5,5.06,5.06,0,0,1,2.57-.6,11.54,11.54,0,0,1,1.33.09l1.56.21,1.56.21a12.3,12.3,0,0,0,1.42.09c0,.61,0,1.29-.06,2.05s-.05,1.57-.07,2.41,0,1.68,0,2.53.05,1.72.1,2.55.14,1.6.26,2.32a10.32,10.32,0,0,0,.49,1.92,3.69,3.69,0,0,0,.8,1.33,1.42,1.42,0,0,1-.36.54,2.25,2.25,0,0,1-.6.45A1.66,1.66,0,0,1,317.72,393.66Zm-5.07-7.92h2.6c0-.43,0-1,0-1.61s0-1.36.07-2.14.07-1.57.09-2.37h0q-.74,1.9-1.47,3.45C313.43,384.09,313,385,312.65,385.74Z" transform="translate(-14.24 -105.11)"/><path class="cls-1" d="M323.39,390.7a2.73,2.73,0,0,1-.41,0,1.58,1.58,0,0,1-.36-.09c.06-.72.12-1.45.18-2.21s.09-1.51.13-2.24.05-1.38.05-2a25.7,25.7,0,0,0-.13-2.75,10.89,10.89,0,0,0-.35-1.79,4.2,4.2,0,0,0-.5-1.08,3.12,3.12,0,0,0-.59-.65,2.68,2.68,0,0,1,.83-.64,2.42,2.42,0,0,1,1.09-.28,1.56,1.56,0,0,1,1.22.57,3.87,3.87,0,0,1,.78,1.73,13.38,13.38,0,0,1,.27,3c0,.59,0,1.23-.06,1.95s-.1,1.45-.17,2.22-.16,1.52-.25,2.26h.06A7,7,0,0,0,327,387.3a8.89,8.89,0,0,0,1.4-1.86,10.18,10.18,0,0,0,.94-2.17,8.13,8.13,0,0,0,.33-2.26,6.21,6.21,0,0,0-.21-1.67,4.87,4.87,0,0,0-.66-1.4,1.87,1.87,0,0,1,.59-.68,1.44,1.44,0,0,1,.88-.3,1.47,1.47,0,0,1,1.16.51,3.43,3.43,0,0,1,.67,1.58,14.91,14.91,0,0,1,.21,2.78q0,.92-.09,2.13c-.07.81-.15,1.64-.24,2.46s-.2,1.59-.3,2.27h.06a4.59,4.59,0,0,0,1.43-1A8.8,8.8,0,0,0,334.4,386a12.39,12.39,0,0,0,1-2,16.12,16.12,0,0,0,.68-2.18,10,10,0,0,0,.24-2.12,5.85,5.85,0,0,0-.19-1.56,3.65,3.65,0,0,0-.6-1.2,1.51,1.51,0,0,1,.67-.81,2,2,0,0,1,1-.3,1.27,1.27,0,0,1,.78.25,1.75,1.75,0,0,1,.55.75,3.64,3.64,0,0,1,.19,1.28,11.6,11.6,0,0,1-.3,2.48,19.14,19.14,0,0,1-2.26,5.49,14.55,14.55,0,0,1-1.76,2.35,8.21,8.21,0,0,1-2.1,1.64,4.74,4.74,0,0,1-2.33.61,2.34,2.34,0,0,1-.38,0l-.35-.07c.06-.42.12-.89.18-1.39s.1-1,.14-1.52.09-1,.13-1.42h-.08a11.36,11.36,0,0,1-1.8,2.31,8.38,8.38,0,0,1-2.19,1.57A5.06,5.06,0,0,1,323.39,390.7Z" transform="translate(-14.24 -105.11)"/><text class="cls-2" transform="translate(104.02 235.41)">ÝOKA<tspan class="cls-3" x="123.1" y="0">R</tspan><tspan class="cls-4" x="151.12" y="0">Y HIL</tspan></text><line class="cls-1" x1="331.94" y1="281.07" x2="412.3" y2="281.07"/><line class="cls-1" x1="60.18" y1="281.07" x2="140.54" y2="281.07"/></svg>