<svg xmlns="http://www.w3.org/2000/svg" viewBox="0 0 26 26">
  <path d="M0.90625 -0.03125C0.863281 -0.0234375 0.820313 -0.0117188 0.78125 0C0.40625 0.0664063 0.105469 0.339844 0 0.703125C-0.105469 1.070313 0.00390625 1.460938 0.28125 1.71875L24.28125 25.71875C24.679688 26.117188 25.320313 26.117188 25.71875 25.71875C26.117188 25.320313 26.117188 24.679688 25.71875 24.28125L23.40625 21.96875C24.902344 21.78125 26 20.5625 26 19L26 7C26 5.300781 24.699219 4 23 4L18.46875 4L17.5 2.09375C17.199219 1.394531 16.488281 1 15.6875 1L10.1875 1C9.488281 1 8.804688 1.394531 8.40625 2.09375L7.46875 4L5.4375 4L1.71875 0.28125C1.511719 0.0585938 1.210938 -0.0546875 0.90625 -0.03125 Z M 0.8125 5C0.3125 5.5 0 6.199219 0 7L0 19C0 20.699219 1.300781 22 3 22L17.8125 22L15.40625 19.59375C14.605469 19.792969 13.800781 20 13 20C9.101563 20 6 16.898438 6 13C6 12.199219 6.207031 11.394531 6.40625 10.59375 Z M 13 6C16.898438 6 20 9.101563 20 13C20 14.605469 19.464844 16.007813 18.59375 17.15625L17.15625 15.71875C17.667969 14.933594 18 14.011719 18 13C18 10.199219 15.800781 8 13 8C11.988281 8 11.066406 8.332031 10.28125 8.84375L8.84375 7.40625C10.015625 6.535156 11.460938 6 13 6 Z M 8 12.1875L8 13C8 15.800781 10.199219 18 13 18C13.300781 18 13.488281 18.007813 13.6875 17.90625Z" fill="#4f51c0" />
</svg>