<svg xmlns="http://www.w3.org/2000/svg" viewBox="0 0 50 50">
  <path d="M1 0C0.449219 0 0 0.445313 0 1L0 35C0 35.554688 0.449219 36 1 36L35 36C35.550781 36 36 35.554688 36 35L36 1C36 0.445313 35.550781 0 35 0 Z M 6 6L30 6L30 27L27.96875 27C27.972656 26.957031 28.003906 26.917969 28 26.875C27.808594 23.703125 25.222656 22.699219 23.34375 21.96875C22.472656 21.628906 21.574219 21.296875 21.3125 20.875C21.277344 20.421875 21.277344 20.019531 21.28125 19.59375C21.703125 19.082031 22.070313 18.285156 22.25 17.5625C22.648438 17.277344 23.058594 16.742188 23.1875 15.6875C23.253906 15.152344 23.132813 14.714844 22.9375 14.375C23.242188 13.257813 23.675781 10.9375 22.6875 9.34375C22.238281 8.617188 21.558594 8.121094 20.6875 7.90625C20.117188 7.316406 19.160156 7 17.9375 7C16.011719 7.035156 14.589844 7.625 13.71875 8.78125C12.75 10.0625 12.546875 11.945313 13.09375 14.34375C12.890625 14.6875 12.746094 15.136719 12.8125 15.6875C12.941406 16.742188 13.351563 17.277344 13.75 17.5625C13.933594 18.285156 14.285156 19.082031 14.71875 19.59375C14.722656 20.023438 14.753906 20.417969 14.71875 20.875C14.457031 21.296875 13.53125 21.628906 12.65625 21.96875C10.769531 22.699219 8.191406 23.703125 8 26.875C7.996094 26.917969 8.027344 26.957031 8.03125 27L6 27 Z M 38 7.09375L38 13.1875L38.4375 13.25L38 15.8125L38 35C38 36.652344 36.652344 38 35 38L4.9375 38L38.34375 43.6875C38.402344 43.695313 38.445313 43.6875 38.5 43.6875C38.980469 43.6875 39.417969 43.332031 39.5 42.84375L45.1875 9.34375C45.28125 8.800781 44.921875 8.28125 44.375 8.1875 Z M 46.375 14.25L41.46875 43.1875C41.222656 44.632813 39.96875 45.6875 38.5 45.6875C38.34375 45.6875 38.1875 45.683594 38 45.65625L7.4375 40.46875L7.28125 41.15625C7.222656 41.414063 7.265625 41.679688 7.40625 41.90625C7.546875 42.132813 7.773438 42.316406 8.03125 42.375L41.15625 49.96875C41.230469 49.984375 41.300781 50 41.375 50C41.5625 50 41.746094 49.945313 41.90625 49.84375C42.132813 49.703125 42.316406 49.476563 42.375 49.21875L49.96875 16.09375C50.027344 15.835938 49.984375 15.570313 49.84375 15.34375C49.703125 15.117188 49.476563 14.933594 49.21875 14.875Z" fill="#5B5B5B" />
</svg>