<svg xmlns="http://www.w3.org/2000/svg" width="38.491" height="38.279" viewBox="0 0 38.491 38.279">
  <g id="surface1" transform="translate(-0.851 -0.897)">
    <path id="Path_49" data-name="Path 49" d="M15.748.9a2.036,2.036,0,0,0-1.446.783L12.139,4.6l-3.75.171A1.885,1.885,0,0,0,6.555,6.431l-.582,3.586L2.812,11.844A2.02,2.02,0,0,0,1.9,14.178l1.163,3.5L1.142,20.843a2.037,2.037,0,0,0,.335,2.505l2.58,2.5-.335,3.668a1.983,1.983,0,0,0,1.424,2.08l3.5,1,1.417,3.415A2.046,2.046,0,0,0,12.3,37.17l3.586-.745,2.833,2.334a2.231,2.231,0,0,0,1.253.417,2.207,2.207,0,0,0,1.245-.417l2.833-2.334,3.579.745a2.116,2.116,0,0,0,2.252-1.163L31.3,32.593l3.5-1a1.922,1.922,0,0,0,1.424-2.08l-.171-3.668,2.669-2.58a1.932,1.932,0,0,0,.336-2.423l-2-3.079,1.163-3.5a1.93,1.93,0,0,0-.917-2.326l-3.168-1.916-.582-3.668a2.028,2.028,0,0,0-1.834-1.663l-3.668-.171L25.805,1.682A1.956,1.956,0,0,0,23.39,1.1L20.057,2.681,16.724,1.1A1.97,1.97,0,0,0,15.748.9Zm-.276,9.946a2.78,2.78,0,0,1,2.751,2.006,7.708,7.708,0,0,1,.164,2.58,10.846,10.846,0,0,1-.164,2.58,2.878,2.878,0,0,1-2.751,2.006,2.78,2.78,0,0,1-2.751-2.006,7.711,7.711,0,0,1-.164-2.58,10.848,10.848,0,0,1,.164-2.58A2.878,2.878,0,0,1,15.472,10.845Zm9.163,0h1.171c.164,0,.164.171.164.253l-10,17.826c-.082.172-.164.253-.335.253H14.473c-.164,0-.253-.164-.171-.253L24.217,11.1A.4.4,0,0,1,24.635,10.845ZM15.472,12.6a1.189,1.189,0,0,0-1.171.835,8.312,8.312,0,0,0-.082,2.08,18.112,18.112,0,0,0,.082,2,1.1,1.1,0,0,0,1.171.835,1.181,1.181,0,0,0,1.171-.835,7.847,7.847,0,0,0,.082-2c0-1.581-.082-1.834-.082-2.08A1.1,1.1,0,0,0,15.472,12.6Zm9.163,7.418a2.773,2.773,0,0,1,2.751,2,7.716,7.716,0,0,1,.164,2.58,10.8,10.8,0,0,1-.164,2.58,2.878,2.878,0,0,1-2.751,2.005,2.78,2.78,0,0,1-2.751-2.005,7.686,7.686,0,0,1-.164-2.58,10.848,10.848,0,0,1,.164-2.58A2.872,2.872,0,0,1,24.635,20.015Zm0,1.663a1.174,1.174,0,0,0-1.163.835,8.324,8.324,0,0,0-.082,2.08,18.736,18.736,0,0,0,.082,2.006,1.083,1.083,0,0,0,1.163.828,1.192,1.192,0,0,0,1.171-.828,7.971,7.971,0,0,0,.082-2.006c0-1.581-.082-1.834-.082-2.08A1.189,1.189,0,0,0,24.635,21.678Z" transform="translate(0 0)" fill="#4f51c0"/>
  </g>
</svg>
