<svg xmlns="http://www.w3.org/2000/svg" viewBox="0 0 50 50">
  <path d="M20.625 9C20.226563 9 19.855469 9.058594 19.5 9.15625C19.222656 9.230469 18.9375 9.3125 18.6875 9.4375C18.675781 9.441406 18.667969 9.460938 18.65625 9.46875C18.386719 9.609375 18.140625 9.785156 17.90625 9.96875C17.894531 9.976563 17.886719 9.992188 17.875 10C17.644531 10.1875 17.441406 10.375 17.25 10.59375C17.242188 10.605469 17.226563 10.613281 17.21875 10.625C17.015625 10.859375 16.839844 11.121094 16.6875 11.375C16.207031 11.191406 15.726563 11.085938 15.28125 11.0625C14.542969 11.027344 13.882813 11.1875 13.3125 11.5C12.175781 12.125 11.375 13.074219 10.53125 13.78125C9.667969 14.503906 7.085938 16.402344 4.78125 18.0625C2.476563 19.722656 0.4375 21.1875 0.4375 21.1875C0.0820313 21.359375 -0.136719 21.722656 -0.125 22.117188C-0.113281 22.511719 0.128906 22.863281 0.492188 23.011719C0.859375 23.164063 1.277344 23.085938 1.5625 22.8125C1.5625 22.8125 3.65625 21.355469 5.96875 19.6875C8.28125 18.019531 10.808594 16.179688 11.84375 15.3125C12.847656 14.46875 13.621094 13.613281 14.28125 13.25C14.824219 12.953125 15.246094 12.867188 16.03125 13.25C16.015625 13.386719 16 13.523438 16 13.65625L16 25.5625L14.625 26.1875C14.257813 26.300781 13.988281 26.621094 13.933594 27C13.878906 27.382813 14.050781 27.761719 14.371094 27.976563C14.691406 28.1875 15.105469 28.199219 15.4375 28L24.6875 23.75L24.71875 23.75C26.035156 23.046875 27.414063 22.402344 28.46875 22.1875C29.523438 21.972656 30.050781 22.0625 30.5 22.65625C31.027344 23.351563 31.148438 24.117188 30.90625 24.96875C30.664063 25.820313 30.019531 26.746094 28.90625 27.53125C26.574219 29.179688 22.96875 30.40625 22.96875 30.40625L22.78125 30.46875L22.625 30.59375C20.769531 32.171875 19.695313 33.671875 18.34375 34.6875C16.992188 35.703125 15.320313 36.375 11.875 36.375L11.8125 36.375L0.9375 37C0.386719 37.035156 -0.0351563 37.511719 0 38.0625C0.0351563 38.613281 0.511719 39.035156 1.0625 39L11.875 38.375C11.898438 38.375 11.914063 38.375 11.9375 38.375C14.492188 38.367188 16.347656 37.945313 17.8125 37.28125C18.066406 38.03125 18.589844 38.671875 19.40625 38.9375C20.554688 39.308594 21.6875 39.199219 22.59375 38.8125C22.996094 38.640625 23.363281 38.40625 23.6875 38.15625C24.003906 38.882813 24.570313 39.5625 25.4375 39.875C26.347656 40.203125 27.253906 40.277344 28.0625 40.0625C28.871094 39.847656 29.53125 39.390625 30.15625 38.8125C30.261719 38.714844 30.332031 38.640625 30.40625 38.5625C30.617188 38.707031 30.859375 38.804688 31.125 38.875C32.421875 39.214844 33.9375 38.84375 35.09375 37.6875C36.109375 36.671875 36.71875 35.113281 36.9375 33L45.65625 33C45.957031 33 46.246094 32.964844 46.53125 32.90625C47.945313 32.613281 49.105469 31.621094 49.65625 30.3125C49.765625 30.050781 49.847656 29.785156 49.90625 29.5C49.964844 29.214844 50 28.925781 50 28.625L50 13.5625C50 13.410156 49.984375 13.273438 49.96875 13.125C49.917969 12.683594 49.808594 12.25 49.625 11.84375C49.503906 11.558594 49.363281 11.316406 49.1875 11.0625C49.183594 11.054688 49.191406 11.039063 49.1875 11.03125C48.5 10.050781 47.441406 9.332031 46.25 9.09375C45.957031 9.03125 45.679688 9 45.375 9 Z M 18 14L48 14L48 18L18 18 Z M 23 33L23.6875 33C23.628906 33.703125 23.527344 34.761719 23.40625 35.4375C23.390625 35.519531 23.386719 35.601563 23.375 35.6875C23.320313 35.722656 23.265625 35.765625 23.21875 35.8125C22.789063 36.324219 22.292969 36.75 21.78125 36.96875C21.269531 37.1875 20.757813 37.265625 20.03125 37.03125C19.851563 36.972656 19.648438 36.683594 19.625 36.21875C20.914063 35.234375 21.863281 34.117188 23 33 Z M 25.71875 33L29.46875 33C29.398438 33.464844 29.335938 33.996094 29.28125 34.53125C29.214844 35.183594 29.15625 35.964844 29.3125 36.75C29.257813 36.824219 29.234375 36.839844 29.15625 36.9375C28.992188 37.144531 28.703125 37.445313 28.8125 37.34375C28.324219 37.796875 27.90625 38.054688 27.53125 38.15625C27.15625 38.257813 26.761719 38.230469 26.125 38C25.785156 37.878906 25.609375 37.660156 25.46875 37.25C25.328125 36.839844 25.289063 36.257813 25.375 35.78125C25.546875 34.835938 25.667969 33.628906 25.71875 33 Z M 31.5 33L34.90625 33C34.703125 34.683594 34.238281 35.730469 33.6875 36.28125C32.945313 37.023438 32.316406 37.117188 31.625 36.9375C31.394531 36.875 31.375 36.820313 31.28125 36.40625C31.1875 35.992188 31.1875 35.34375 31.25 34.75C31.316406 34.109375 31.414063 33.488281 31.5 33Z" fill="#4F51C0" />
</svg>