<svg xmlns="http://www.w3.org/2000/svg" viewBox="0 0 50 50">
  <path d="M2 2C0.894531 2 0 2.894531 0 4C0 5.105469 0.894531 6 2 6C3.105469 6 4 5.105469 4 4L8.6875 4C10.757813 4 11.554688 4.664063 12.21875 6.9375L20.21875 39.25C20.636719 40.855469 21.128906 42.613281 22.9375 43.46875C22.359375 44.164063 22 45.035156 22 46C22 48.199219 23.800781 50 26 50C28.199219 50 30 48.199219 30 46C30 45.265625 29.785156 44.59375 29.4375 44L35.5625 44C35.214844 44.59375 35 45.265625 35 46C35 48.199219 36.800781 50 39 50C41.199219 50 43 48.199219 43 46C43 44.957031 42.570313 44.027344 41.90625 43.3125C41.941406 43.207031 42 43.117188 42 43C42 42.445313 41.554688 42 41 42L25.6875 42C23.003906 42 22.71875 40.902344 22.15625 38.75L21.5 36L39.8125 36C40.226563 36 40.601563 35.734375 40.75 35.34375L47.9375 16.34375C48.054688 16.035156 48 15.707031 47.8125 15.4375C47.625 15.167969 47.328125 15 47 15L43.25 15L41.8125 16.40625L36.125 22.125C35.558594 22.691406 34.800781 23 34 23C33.199219 23 32.441406 22.691406 31.875 22.125C31.308594 21.558594 31 20.800781 31 20C31 19.253906 31.257813 18.550781 31.75 18L23 18C21.347656 18 20 16.652344 20 15L16.28125 15L14.15625 6.40625C13.488281 4.109375 12.351563 2 8.6875 2 Z M 34 9C33.746094 9 33.476563 9.085938 33.28125 9.28125C32.890625 9.671875 32.890625 10.328125 33.28125 10.71875L36.59375 14L23 14C22.449219 14 22 14.449219 22 15C22 15.550781 22.449219 16 23 16L36.59375 16L33.28125 19.28125C32.890625 19.671875 32.890625 20.328125 33.28125 20.71875C33.476563 20.914063 33.742188 21 34 21C34.257813 21 34.523438 20.914063 34.71875 20.71875L40.40625 15L34.71875 9.28125C34.523438 9.085938 34.253906 9 34 9 Z M 26 44C27.117188 44 28 44.882813 28 46C28 47.117188 27.117188 48 26 48C24.882813 48 24 47.117188 24 46C24 44.882813 24.882813 44 26 44 Z M 39 44C40.117188 44 41 44.882813 41 46C41 47.117188 40.117188 48 39 48C37.882813 48 37 47.117188 37 46C37 44.882813 37.882813 44 39 44Z" fill="#4F51C0" />
</svg>