<svg xmlns="http://www.w3.org/2000/svg" viewBox="0 0 30 30">
  <path d="M13 0.98632812 A 1.0001 1.0001 0 0 0 12.072266 2.3710938L12.970703 4.6171875L10.513672 3.1425781 A 1.0001 1.0001 0 0 0 9.9433594 2.9941406 A 1.0001 1.0001 0 0 0 9.4863281 4.8574219L11.390625 6L5 6C3.895 6 3 6.895 3 8L3 10L14 10L14 8L14.710938 8 A 1.0001 1.0001 0 0 0 14.990234 8.0390625 A 1.0001 1.0001 0 0 0 14.994141 8.0390625 A 1.0001 1.0001 0 0 0 15.291016 8L16 8L16 10L27 10L27 8C27 6.895 26.105 6 25 6L18.609375 6L20.513672 4.8574219 A 1.0001 1.0001 0 0 0 20.027344 2.9921875 A 1.0001 1.0001 0 0 0 19.486328 3.1425781L17.029297 4.6171875L17.927734 2.3710938 A 1.0001 1.0001 0 0 0 16.970703 0.98828125 A 1.0001 1.0001 0 0 0 16.072266 1.6289062L15 4.3105469L13.927734 1.6289062 A 1.0001 1.0001 0 0 0 13 0.98632812 z M 4 12L4 24C4 25.105 4.895 26 6 26L14 26L14 12L4 12 z M 16 12L16 26L24 26C25.105 26 26 25.105 26 24L26 12L16 12 z" fill="#4f51c0" />
</svg>