<svg xmlns="http://www.w3.org/2000/svg" viewBox="0 0 128 128">
  <path d="M24 1C20.9 1 16.9 3.2996094 14 21.099609C12.1 32.599609 11 47.8 11 64C11 70 11.100391 76.000781 11.400391 81.800781C11.500391 83.400781 12.800391 84.599609 14.400391 84.599609L14.599609 84.599609C16.299609 84.499609 17.500391 83.1 17.400391 81.5C17.100391 75.8 17 69.9 17 64C17 30.3 21.3 11.3 24 7.5C26.7 11.4 31 30.3 31 64C31 65.7 32.3 67 34 67C35.7 67 37 65.7 37 64C37 47.8 35.9 32.599609 34 21.099609C32.9 14.499609 31.700391 10 30.400391 7L38.599609 7C39.799609 8.2 42.799219 14.900781 44.699219 34.300781C44.799219 35.900781 46.199219 37 47.699219 37L107.69922 37L108 37L108.19922 37L108.30078 37C109.80078 36.7 110.79922 35.300781 110.69922 33.800781C109.29922 19.700781 107.4 11.599609 105.5 7.0996094L113.69922 7.0996094C116.29922 9.5996094 121.09961 28.699609 121.09961 64.099609C121.09961 99.499609 116.29922 118.59961 113.69922 121.09961L74 121.09961C72.3 121.09961 71 122.39961 71 124.09961C71 125.79961 72.3 127.09961 74 127.09961L114 127.09961C117.1 127.09961 121.1 124.8 124 107C125.9 95.5 127 80.299609 127 64.099609C127 47.899609 125.9 32.699219 124 21.199219C121.1 3.2992188 117.1 1 114 1L99 1C95.9 1 91.900391 3.3 88.900391 21.5C88.600391 23.1 89.700391 24.700391 91.400391 24.900391C93.000391 25.200391 94.600781 24.100391 94.800781 22.400391C96.400781 12.500391 98.1 8.8 99 7.5C100.3 9.5 102.60078 15.9 104.30078 31L50.300781 31C47.100781 1 41.3 1 39 1L24 1 z M 38.841797 81.970703C38.598438 81.983203 38.349609 82.024609 38.099609 82.099609L34.699219 83.099609C31.699219 83.999609 29.200391 86.199219 27.900391 89.199219L25.800781 93.900391C24.000781 94.100391 21.200781 94.899609 19.800781 96.099609C17.700781 97.799609 16.399219 100.39961 16.199219 103.09961L16.199219 105.59961C16.199219 107.29961 14.899219 108.59961 13.199219 108.59961L9.6992188 108.59961C4.5992188 108.89961 0.59960937 113.39961 1.0996094 118.59961C1.4996094 123.39961 5.7 126.90039 10.5 126.90039L52.900391 126.90039C58.000391 126.90039 62.099609 122.79922 62.099609 117.69922L62.099609 115.40039C62.099609 112.90039 61.099219 110.49922 59.199219 108.69922C57.499219 107.29922 55.200391 106.30078 52.900391 106.30078L52.400391 106.30078L52.099609 106.30078L52.099609 105.30078C52.099609 100.20078 48.199609 95.900781 43.099609 95.300781L42.099609 95.199219L42 85C42 83.25 40.545312 81.883203 38.841797 81.970703 z" fill="#4f51c0" />
</svg>