<svg xmlns="http://www.w3.org/2000/svg" viewBox="0 0 24 24">
  <path d="M12 0C9.800781 0 8 1.800781 8 4L8 6L10 6L10 4C10 2.882813 10.882813 2 12 2C13.117188 2 14 2.882813 14 4L14 6L16 6L16 4C16 1.800781 14.199219 0 12 0 Z M 4 7L0.5 24L23.5 24L20 7 Z M 8.5 9C9.328125 9 10 9.671875 10 10.5C10 11.328125 9.328125 12 8.5 12C7.671875 12 7 11.328125 7 10.5C7 9.671875 7.671875 9 8.5 9 Z M 15.5 9C16.328125 9 17 9.671875 17 10.5C17 11.328125 16.328125 12 15.5 12C14.671875 12 14 11.328125 14 10.5C14 9.671875 14.671875 9 15.5 9Z" fill="#4f51c0" />
</svg>