<?xml version="1.0" encoding="utf-8"?>
<!-- Generator: Adobe Illustrator 22.1.0, SVG Export Plug-In . SVG Version: 6.00 Build 0)  -->
<svg version="1.1" id="Слой_1" xmlns="http://www.w3.org/2000/svg" xmlns:xlink="http://www.w3.org/1999/xlink" x="0px" y="0px"
	 viewBox="0 0 1190.6 841.9" style="enable-background:new 0 0 1190.6 841.9;" xml:space="preserve">
<g>
	<path d="M714.2,397.7c-0.9-2.4-2.5-5-4.9-7.3v-41.8c-1.7-16.3-14.9-29.4-31.1-29.4H502.8c-16.3,0-29.5,13.2-29.5,29.4v143.4
		c0,16.3,13.2,29.5,29.5,29.5h175.4c16.3,0,29.5-13.2,31.1-29.5v-41.7c2.4-2.2,4-4.8,4.9-7.3c2.4-6.1,2.4-13.5,2.3-21.5v-2.4
		C716.6,411.3,716.6,403.8,714.2,397.7z M694.4,399.9c5.1,0,5.7,1.6,6.3,3.1c1.4,3.5,1.4,9.7,1.4,16.2v2.5c0,6.5,0,12.7-1.4,16.2
		c-0.6,1.5-1.2,3.1-6.3,3.1h-70.1c-11.3,0-20.5-9.2-20.5-20.5c0-11.3,9.2-20.5,20.5-20.5H694.4z M678.2,507H502.8
		c-8.2,0-14.9-6.7-14.9-14.9V348.7c0-8.2,6.7-14.9,14.9-14.9h175.4c8.2,0,14.9,6.7,14.9,14.9v36.6h-68.8c-19.3,0-35,15.7-35,35
		c0,19.3,15.7,35,35,35h68.8v36.6C693.1,500.3,686.4,507,678.2,507z"/>
	<path d="M616.8,420.4c0,5.2,4.2,9.4,9.4,9.4c5.2,0,9.4-4.2,9.4-9.4c0-5.2-4.2-9.4-9.4-9.4C621,411,616.8,415.2,616.8,420.4z"/>
</g>
</svg>
