<svg xmlns="http://www.w3.org/2000/svg" viewBox="0 0 50 50">
  <path d="M36.332031 2.0039062C35.909336 1.9893164 35.482813 2.0728125 35.070312 2.3203125C33.830312 3.0603125 33.900469 4.73 33.980469 6.5C34.000469 6.87 34.009531 7.2508594 34.019531 7.6308594C35.119531 8.0008594 36.160234 8.560625 36.990234 9.390625L37.609375 10.019531C37.849375 9.2895313 38.019531 8.4600781 38.019531 7.5800781C38.019531 7.0200781 38.469531 6.5800781 39.019531 6.5800781C39.579531 6.5800781 40.019531 7.0200781 40.019531 7.5800781C40.019531 8.5700781 39.849375 9.5098437 39.609375 10.339844C40.159375 10.189844 40.770703 10.099609 41.470703 10.099609C42.020703 10.099609 42.470703 10.549609 42.470703 11.099609C42.470703 11.649609 42.020703 12.099609 41.470703 12.099609C40.870703 12.099609 40.359687 12.190078 39.929688 12.330078L40.619141 13.029297C41.339141 13.749297 41.899062 14.700078 42.289062 15.830078C42.309063 15.830078 42.339375 15.820312 42.359375 15.820312C44.449375 15.550312 46.619609 15.260938 47.599609 13.960938C48.439609 12.830937 47.769141 11.869063 47.369141 11.289062C47.049141 10.839063 46.75 10.419766 46.75 9.7597656C46.75 9.4997656 46.759297 9.2292187 46.779297 8.9492188C46.839297 7.7892187 46.909453 6.3395313 46.189453 4.0195312C46.109453 3.7895313 45.96 3.5907031 45.75 3.4707031C43.88 2.3207031 42.400937 2.6291406 41.210938 2.8691406C40.760937 2.9591406 40.330156 3.0407813 39.910156 3.0507812C39.460156 3.0807813 38.890078 2.8100781 38.330078 2.5800781C37.730078 2.3238281 37.036523 2.0282227 36.332031 2.0039062 z M 29.570312 9C27.100313 9 20.780938 9.5994531 15.210938 15.189453C11.120938 19.279453 9.7004688 23.760781 9.2304688 26.800781C8.6304688 30.630781 9.2290625 33.990781 10.789062 35.550781L14.419922 39.189453C15.989922 40.769453 18.869219 41 20.449219 41C22.909219 41 29.240547 40.400312 34.810547 34.820312C38.890547 30.730313 40.309297 26.249219 40.779297 23.199219C41.369297 19.369219 40.770938 16.009453 39.210938 14.439453L35.570312 10.800781C34.010312 9.2307812 31.140312 9 29.570312 9 z M 25 15C25.55 15 26 15.45 26 16L26 17.380859L26.609375 16.779297C27.009375 16.399297 27.639297 16.410781 28.029297 16.800781C28.409297 17.200781 28.399766 17.830703 28.009766 18.220703L26 20.169922L26 23.289062L28.810547 21.710938L29.550781 19.039062C29.690781 18.499063 30.239297 18.189844 30.779297 18.339844C31.309297 18.479844 31.620469 19.030312 31.480469 19.570312L31.269531 20.330078L32.509766 19.630859C32.989766 19.360859 33.599141 19.529766 33.869141 20.009766C34.139141 20.489766 33.970234 21.099141 33.490234 21.369141L32.320312 22.029297L33.070312 22.230469C33.610312 22.370469 33.929063 22.919219 33.789062 23.449219C33.669063 23.899219 33.260312 24.199219 32.820312 24.199219C32.740313 24.199219 32.650312 24.189922 32.570312 24.169922L29.800781 23.439453L27.039062 25L29.800781 26.560547L32.570312 25.830078C33.100313 25.700078 33.649062 26.010781 33.789062 26.550781C33.929063 27.080781 33.610312 27.629531 33.070312 27.769531L32.320312 27.970703L33.490234 28.630859C33.970234 28.900859 34.139141 29.510234 33.869141 29.990234C33.689141 30.320234 33.35 30.5 33 30.5C32.83 30.5 32.669766 30.459141 32.509766 30.369141L31.269531 29.669922L31.480469 30.429688C31.620469 30.969687 31.309297 31.520156 30.779297 31.660156C30.689297 31.690156 30.599766 31.699219 30.509766 31.699219C30.069766 31.699219 29.670781 31.410937 29.550781 30.960938L28.810547 28.289062L26 26.710938L26 30.419922L28.210938 32.630859C28.600938 33.020859 28.600938 33.649063 28.210938 34.039062C28.010938 34.239063 27.76 34.330078 27.5 34.330078C27.24 34.330078 26.989062 34.239062 26.789062 34.039062L26 33.25L26 34C26 34.55 25.55 35 25 35C24.45 35 24 34.55 24 34L24 33.25L23.210938 34.039062C22.820937 34.429063 22.179062 34.429063 21.789062 34.039062C21.399062 33.649062 21.399062 33.020859 21.789062 32.630859L24 30.419922L24 26.710938L20.830078 28.490234L20 31.589844C19.88 32.039844 19.479297 32.330078 19.029297 32.330078C18.949297 32.330078 18.859531 32.320781 18.769531 32.300781C18.239531 32.150781 17.920313 31.610313 18.070312 31.070312L18.390625 29.859375L17.490234 30.369141C17.330234 30.459141 17.17 30.5 17 30.5C16.65 30.5 16.310859 30.320234 16.130859 29.990234C15.860859 29.510234 16.029766 28.900859 16.509766 28.630859L17.230469 28.220703L16.269531 27.970703C15.739531 27.820703 15.420312 27.280234 15.570312 26.740234C15.710313 26.210234 16.259063 25.889062 16.789062 26.039062L19.720703 26.820312L22.960938 25L19.720703 23.179688L16.789062 23.960938C16.709063 23.990937 16.619297 24 16.529297 24C16.089297 24 15.690312 23.699766 15.570312 23.259766C15.420312 22.719766 15.739531 22.179297 16.269531 22.029297L17.230469 21.779297L16.509766 21.369141C16.029766 21.099141 15.860859 20.489766 16.130859 20.009766C16.400859 19.529766 17.010234 19.360859 17.490234 19.630859L18.390625 20.140625L18.070312 18.929688C17.920313 18.389688 18.239531 17.849219 18.769531 17.699219C19.309531 17.559219 19.86 17.880156 20 18.410156L20.830078 21.509766L24 23.289062L24 20.169922L21.990234 18.220703C21.600234 17.830703 21.590703 17.200781 21.970703 16.800781C22.360703 16.410781 22.990625 16.399297 23.390625 16.779297L24 17.380859L24 16C24 15.45 24.45 15 25 15 z M 7.6992188 34.169922C7.6792187 34.169922 7.660625 34.179688 7.640625 34.179688C5.540625 34.449688 3.3803906 34.739063 2.4003906 36.039062C1.5603906 37.169062 2.2308594 38.130938 2.6308594 38.710938C2.9508594 39.160938 3.25 39.580234 3.25 40.240234C3.25 40.500234 3.2407031 40.770781 3.2207031 41.050781C3.1607031 42.210781 3.0905469 43.660469 3.8105469 45.980469C3.8905469 46.210469 4.04 46.409297 4.25 46.529297C6.12 47.679297 7.5990625 47.380859 8.7890625 47.130859C9.2390625 47.040859 9.6698438 46.959219 10.089844 46.949219C10.529844 46.919219 11.109922 47.189922 11.669922 47.419922C12.299922 47.689922 13.029766 48 13.759766 48C14.149766 48 14.549688 47.909687 14.929688 47.679688C16.169688 46.939687 16.099531 45.27 16.019531 43.5C15.999531 43.13 15.990469 42.749375 15.980469 42.359375C14.880469 41.989375 13.839766 41.439375 13.009766 40.609375L12.390625 39.980469C12.150625 40.710469 11.980469 41.539922 11.980469 42.419922C11.980469 42.979922 11.530469 43.419922 10.980469 43.419922C10.420469 43.419922 9.9804688 42.979922 9.9804688 42.419922C9.9804688 41.429922 10.150625 40.490156 10.390625 39.660156C9.840625 39.810156 9.2292969 39.900391 8.5292969 39.900391C7.9792969 39.900391 7.5292969 39.450391 7.5292969 38.900391C7.5292969 38.350391 7.9792969 37.900391 8.5292969 37.900391C9.1292969 37.900391 9.6403125 37.809922 10.070312 37.669922L9.3808594 36.970703C8.6608594 36.250703 8.0992187 35.299922 7.6992188 34.169922 z" fill="#4f51c0" />
</svg>