<svg xmlns="http://www.w3.org/2000/svg" viewBox="0 0 26 26">
  <path d="M13 3C9.765625 3 6.597656 3.871094 4.15625 5.5625C1.714844 7.253906 0 9.847656 0 13C0 16.152344 1.714844 18.746094 4.15625 20.4375C6.597656 22.128906 9.765625 23 13 23C16.234375 23 19.402344 22.128906 21.84375 20.4375C24.285156 18.746094 26 16.152344 26 13C26 9.847656 24.285156 7.253906 21.84375 5.5625C19.402344 3.871094 16.234375 3 13 3 Z M 11 5.1875L12.8125 5.5C12.8125 5.398438 13.195313 5.605469 13.09375 5.90625C12.992188 6.207031 12.59375 6.3125 12.59375 6.3125L11 6.09375C10.699219 6.09375 10.59375 5.792969 10.59375 5.59375C10.59375 5.292969 11 5.1875 11 5.1875 Z M 17.21875 5.625C17.269531 5.640625 17.324219 5.640625 17.375 5.65625C17.421875 5.675781 17.5 5.695313 17.5625 5.71875C17.570313 5.722656 17.585938 5.714844 17.59375 5.71875C17.707031 5.769531 17.8125 5.859375 17.8125 6C17.8125 6.300781 17.5 6.5 17.5 6.5L15.90625 7C15.605469 7.101563 15.40625 6.886719 15.40625 6.6875C15.304688 6.386719 15.59375 6.09375 15.59375 6.09375 Z M 7.84375 5.90625C7.855469 5.90625 7.863281 5.90625 7.875 5.90625C8.054688 5.90625 8.1875 6 8.1875 6L9.09375 7.40625C9.09375 7.507813 9.105469 7.894531 8.90625 8.09375C8.605469 8.195313 8.3125 8 8.3125 8L7.5 6.59375C7.3125 6.40625 7.382813 6.21875 7.5625 6.03125C7.574219 6.019531 7.582031 6.011719 7.59375 6C7.675781 5.96875 7.761719 5.9375 7.84375 5.90625 Z M 5.1875 7.4375C5.289063 7.4375 5.398438 7.492188 5.5 7.59375C5.699219 7.792969 5.59375 8.1875 5.59375 8.1875L4.40625 9.40625C4.40625 9.40625 4.011719 9.605469 3.8125 9.40625C3.613281 9.207031 3.8125 8.8125 3.8125 8.8125L4.90625 7.59375C5.007813 7.492188 5.085938 7.4375 5.1875 7.4375 Z M 13 8C15.199219 8 17 9.101563 17 10.5C17 11.898438 15.199219 13 13 13C10.800781 13 9 11.898438 9 10.5C9 9.101563 10.800781 8 13 8 Z M 20.21875 8.28125C20.429688 8.324219 20.59375 8.5 20.59375 8.5L21.3125 10.40625C21.414063 10.207031 21.398438 10.710938 21 10.8125C20.699219 10.914063 20.40625 10.59375 20.40625 10.59375L19.6875 8.90625C19.585938 8.605469 19.699219 8.414063 20 8.3125C20.074219 8.289063 20.148438 8.265625 20.21875 8.28125 Z M 4.6875 11.875C4.800781 11.863281 4.90625 11.90625 4.90625 11.90625L6.40625 12.40625C6.605469 12.507813 6.695313 12.707031 6.59375 12.90625C6.492188 13.207031 6.09375 13.1875 6.09375 13.1875L4.5 12.59375C4.601563 12.59375 4.207031 12.292969 4.40625 12.09375C4.457031 11.945313 4.574219 11.886719 4.6875 11.875 Z M 18.59375 11.90625L20.3125 12.5C20.613281 12.601563 20.695313 12.792969 20.59375 13.09375C20.492188 13.394531 20.09375 13.5 20.09375 13.5L18.3125 12.90625C18.3125 12.90625 17.898438 12.488281 18 12.1875C18.199219 11.886719 18.59375 11.90625 18.59375 11.90625 Z M 8.78125 13.28125C8.90625 13.269531 9 13.3125 9 13.3125L10.59375 14.1875C10.894531 14.386719 10.886719 14.605469 10.6875 14.90625C10.488281 15.207031 10.09375 15.09375 10.09375 15.09375L8.5 14.09375C8.5 14.09375 8.105469 13.699219 8.40625 13.5C8.507813 13.351563 8.65625 13.292969 8.78125 13.28125 Z M 2.125 14.28125C2.6875 14.652344 2.746094 15.316406 3.6875 16C4.6875 16.699219 5.511719 15.914063 6.3125 16.3125C7.011719 16.511719 8.5 17.800781 10 18C11.199219 18.101563 12.394531 17.1875 13.09375 17.1875C13.894531 17.1875 14.707031 18.113281 15.90625 17.8125C16.707031 17.613281 17.292969 17.011719 18.09375 16.8125C18.792969 16.613281 19.800781 16.894531 21 16.59375C22 16.394531 21.8125 15.511719 22.8125 14.8125C23.246094 14.523438 23.542969 14.554688 23.8125 14.625C23.386719 16.320313 22.28125 17.699219 20.71875 18.78125C18.683594 20.191406 15.863281 21 13 21C10.136719 21 7.316406 20.191406 5.28125 18.78125C3.613281 17.625 2.480469 16.132813 2.125 14.28125 Z M 15.96875 14.5C16.140625 14.453125 16.332031 14.539063 16.40625 14.6875C16.605469 14.988281 16.40625 15.3125 16.40625 15.3125L14.8125 16.3125C14.8125 16.414063 14.289063 16.488281 14.1875 16.1875C14.085938 15.886719 14.3125 15.59375 14.3125 15.59375L15.8125 14.59375C15.863281 14.542969 15.910156 14.515625 15.96875 14.5Z" fill="#4f51c0" />
</svg>