<svg xmlns="http://www.w3.org/2000/svg" viewBox="0 0 50 50">
  <path d="M18.75 2C17.960938 2.09375 17.5 2.460938 17.25 2.78125C16.941406 3.183594 16.625 3.925781 16.9375 5.125C17.503906 7.304688 18.277344 10.207031 19.125 12.90625C23.070313 12.289063 26.355469 12.09375 28.03125 12.09375C29.425781 12.105469 30.691406 12.664063 31.5625 13.65625C32.261719 14.453125 32.664063 15.453125 32.75 16.59375C32.8125 16.542969 32.859375 16.523438 32.9375 16.5C33.25 16.40625 33.59375 16.5625 33.6875 16.875C33.785156 17.1875 33.59375 17.53125 33.28125 17.625C33.078125 17.6875 32.898438 17.628906 32.75 17.5C32.742188 17.628906 32.734375 17.746094 32.71875 17.875C32.625 18.636719 31.988281 21.304688 31 24.9375C31.070313 24.855469 31.136719 24.816406 31.25 24.78125C31.5625 24.6875 31.90625 24.84375 32 25.15625C32.09375 25.46875 31.90625 25.8125 31.59375 25.90625C31.28125 26.003906 30.96875 25.8125 30.875 25.5C30.867188 25.476563 30.847656 25.460938 30.84375 25.4375C30.089844 28.195313 29.144531 31.441406 28.09375 34.8125C28.601563 35.101563 29.078125 35.1875 29.40625 35.1875C29.949219 35.1875 30.484375 35.011719 30.9375 34.6875C31.042969 34.609375 41.792969 26.695313 47.65625 15.71875C48.320313 14.476563 48.007813 13.253906 46.84375 12.5C38.023438 6.800781 21.121094 2.21875 19.65625 2.03125C19.316406 1.988281 19.011719 1.96875 18.75 2 Z M 23.375 8.3125C23.605469 8.335938 23.804688 8.515625 23.875 8.75C23.96875 9.0625 23.78125 9.375 23.46875 9.46875C23.15625 9.5625 22.84375 9.40625 22.75 9.09375C22.65625 8.78125 22.8125 8.4375 23.125 8.34375C23.203125 8.320313 23.296875 8.304688 23.375 8.3125 Z M 32.15625 11.09375C32.476563 11.128906 32.742188 11.328125 32.84375 11.65625C32.972656 12.09375 32.75 12.554688 32.3125 12.6875C31.875 12.820313 31.414063 12.59375 31.28125 12.15625C31.148438 11.71875 31.375 11.257813 31.8125 11.125C31.921875 11.09375 32.050781 11.082031 32.15625 11.09375 Z M 28.03125 14.09375C24.347656 14.09375 12.738281 15.085938 3.4375 19.59375C2.167969 20.207031 1.6875 21.390625 2.1875 22.6875C5.960938 32.476563 16.957031 46.140625 18.03125 47.15625C18.636719 47.726563 19.25 48.03125 19.875 48.03125C20.417969 48.03125 21.421875 47.769531 22.03125 46.21875C26.242188 35.507813 30.476563 19.5625 30.71875 17.625C30.890625 16.253906 30.464844 15.425781 30.0625 14.96875C29.578125 14.417969 28.871094 14.101563 28.03125 14.09375 Z M 39.78125 14.53125C39.964844 14.550781 40.101563 14.6875 40.15625 14.875C40.230469 15.125 40.09375 15.394531 39.84375 15.46875C39.59375 15.542969 39.324219 15.40625 39.25 15.15625C39.175781 14.90625 39.34375 14.636719 39.59375 14.5625C39.65625 14.542969 39.71875 14.523438 39.78125 14.53125 Z M 37.84375 18.71875C38.449219 18.664063 39.003906 19.050781 39.1875 19.65625C39.398438 20.351563 39.003906 21.070313 38.3125 21.28125C37.621094 21.492188 36.898438 21.097656 36.6875 20.40625C36.476563 19.714844 36.871094 18.992188 37.5625 18.78125C37.648438 18.753906 37.757813 18.726563 37.84375 18.71875 Z M 22.1875 20.78125C22.265625 20.777344 22.328125 20.785156 22.40625 20.8125C22.714844 20.917969 22.886719 21.253906 22.78125 21.5625C22.675781 21.871094 22.339844 22.042969 22.03125 21.9375C21.722656 21.832031 21.550781 21.496094 21.65625 21.1875C21.738281 20.957031 21.957031 20.796875 22.1875 20.78125 Z M 13.78125 21C13.886719 20.992188 13.984375 20.992188 14.09375 21.03125C14.523438 21.179688 14.742188 21.664063 14.59375 22.09375C14.445313 22.523438 13.992188 22.742188 13.5625 22.59375C13.128906 22.445313 12.882813 21.964844 13.03125 21.53125C13.144531 21.207031 13.460938 21.019531 13.78125 21 Z M 9.40625 24.25C9.484375 24.246094 9.546875 24.253906 9.625 24.28125C9.933594 24.386719 10.105469 24.722656 10 25.03125C9.890625 25.339844 9.558594 25.511719 9.25 25.40625C8.941406 25.300781 8.769531 24.964844 8.875 24.65625C8.957031 24.425781 9.175781 24.265625 9.40625 24.25 Z M 21.84375 26.09375C21.984375 26.085938 22.140625 26.105469 22.28125 26.15625C22.847656 26.355469 23.167969 26.964844 22.96875 27.53125C22.769531 28.097656 22.128906 28.382813 21.5625 28.1875C20.996094 27.988281 20.707031 27.382813 20.90625 26.8125C21.054688 26.386719 21.421875 26.121094 21.84375 26.09375 Z M 15.9375 27.3125C16.03125 27.304688 16.125 27.3125 16.21875 27.34375C16.601563 27.476563 16.820313 27.902344 16.6875 28.28125C16.554688 28.664063 16.132813 28.851563 15.75 28.71875C15.367188 28.585938 15.179688 28.164063 15.3125 27.78125C15.410156 27.496094 15.652344 27.332031 15.9375 27.3125 Z M 14.25 30.75C14.40625 30.738281 14.5625 30.757813 14.71875 30.8125C15.34375 31.03125 15.65625 31.714844 15.4375 32.34375C15.21875 32.972656 14.53125 33.3125 13.90625 33.09375C13.277344 32.875 12.96875 32.1875 13.1875 31.5625C13.351563 31.089844 13.78125 30.78125 14.25 30.75 Z M 20.5 32.03125C20.578125 32.027344 20.640625 32.035156 20.71875 32.0625C21.027344 32.171875 21.199219 32.503906 21.09375 32.8125C20.988281 33.121094 20.652344 33.292969 20.34375 33.1875C20.035156 33.082031 19.863281 32.746094 19.96875 32.4375C20.050781 32.207031 20.269531 32.046875 20.5 32.03125 Z M 19.375 38.46875C19.4375 38.464844 19.5 38.476563 19.5625 38.5C19.808594 38.585938 19.929688 38.847656 19.84375 39.09375C19.757813 39.339844 19.5 39.492188 19.25 39.40625C19.003906 39.320313 18.851563 39.058594 18.9375 38.8125C19.003906 38.625 19.191406 38.480469 19.375 38.46875Z" fill="#4f51c0" />
</svg>