<svg xmlns="http://www.w3.org/2000/svg" viewBox="0 0 50 50">
  <path d="M22 5C11.612 5 2 5.908 2 12.5C2 14.591 2.7934219 16.251547 4.3574219 17.435547C4.7594219 17.738547 5 18.271281 5 18.863281L5 40C5 42.206 6.794 44 9 44L19.701172 44L36 44L41.167969 44C43.245969 44 45 42.168 45 40L45 18.863281C45 18.474281 45.065859 17.770203 45.505859 17.408203C47.160859 16.043203 48 14.392 48 12.5C48 6.005 39.403 5.0309062 30 5.0039062L30 5L22 5 z M 29.582031 7C41.089031 7 46 8.645 46 12.5C46 13.783 45.422422 14.884234 44.232422 15.865234C43.438422 16.521234 43 17.584281 43 18.863281L43 40C43 41.084 42.160969 42 41.167969 42L36 42L19.701172 42C18.747172 42 18 41.121 18 40L18 18.863281C18 17.689281 17.489719 16.569234 16.636719 15.865234C15.534719 14.957234 15 13.856 15 12.5C15 8.439 18.815031 7 29.582031 7 z M 23 13 A 1 1 0 0 0 22 14 A 1 1 0 0 0 23 15 A 1 1 0 0 0 24 14 A 1 1 0 0 0 23 13 z M 38 13 A 1 1 0 0 0 37 14 A 1 1 0 0 0 38 15 A 1 1 0 0 0 39 14 A 1 1 0 0 0 38 13 z M 29.5 18 A 1.5 1.5 0 0 0 28 19.5 A 1.5 1.5 0 0 0 29.5 21 A 1.5 1.5 0 0 0 31 19.5 A 1.5 1.5 0 0 0 29.5 18 z M 37.5 23 A 1.5 1.5 0 0 0 36 24.5 A 1.5 1.5 0 0 0 37.5 26 A 1.5 1.5 0 0 0 39 24.5 A 1.5 1.5 0 0 0 37.5 23 z M 23.5 25 A 1.5 1.5 0 0 0 22 26.5 A 1.5 1.5 0 0 0 23.5 28 A 1.5 1.5 0 0 0 25 26.5 A 1.5 1.5 0 0 0 23.5 25 z M 29 30 A 1 1 0 0 0 28 31 A 1 1 0 0 0 29 32 A 1 1 0 0 0 30 31 A 1 1 0 0 0 29 30 z M 35.5 34 A 1.5 1.5 0 0 0 34 35.5 A 1.5 1.5 0 0 0 35.5 37 A 1.5 1.5 0 0 0 37 35.5 A 1.5 1.5 0 0 0 35.5 34 z M 22 36 A 1 1 0 0 0 21 37 A 1 1 0 0 0 22 38 A 1 1 0 0 0 23 37 A 1 1 0 0 0 22 36 z" fill="#4F51C0" />
</svg>