<svg xmlns="http://www.w3.org/2000/svg" viewBox="0 0 50 50">
  <path d="M30.412109 2.0175781C27.236268 1.941325 24.273016 2.9500781 22.111328 5.1113281L8.5664062 19C6.0104062 21.555 4.3481406 25.423656 4.1191406 29.347656C3.8901327 33.247626 5.0856122 36.968188 7.4902344 40.025391C5.9309935 40.095882 4.1305805 40.370343 2.4589844 41.445312C2.1239844 41.660312 1.9486719 42.053266 2.0136719 42.447266C2.0776719 42.840266 2.3708125 43.158859 2.7578125 43.255859C4.7138125 43.745859 5.9875781 45.037266 6.7675781 47.322266C6.8925781 47.689266 7.2185156 47.951141 7.6035156 47.994141C7.6405156 47.998141 7.6778438 48 7.7148438 48C8.0598437 48 8.3824531 47.822391 8.5644531 47.525391C9.6175117 45.820404 9.8958158 44.114985 9.9707031 42.587891C12.844857 44.975058 16.348868 46.253906 20.048828 46.253906C20.362828 46.253906 20.679094 46.243609 20.996094 46.224609C24.919094 45.995609 28.443047 44.333344 30.998047 41.777344L44.888672 27.888672C49.830672 22.946672 48.741891 13.816109 42.462891 7.5371094C38.930391 4.0051719 34.495334 2.1156179 30.412109 2.0175781 z M 30.089844 3.9980469C33.734844 3.9980469 37.802828 5.707125 41.048828 8.953125C46.547828 14.452125 47.635609 22.312609 43.474609 26.474609C39.312609 30.635609 31.454125 29.548828 25.953125 24.048828C20.453125 18.548828 19.364391 10.687391 23.525391 6.5253906C25.231391 4.8203906 27.557844 3.9980469 30.089844 3.9980469 z M 29 8 A 1 1 0 0 0 29 10 A 1 1 0 0 0 29 8 z M 36 10 A 1 1 0 0 0 36 12 A 1 1 0 0 0 36 10 z M 26.5 13 A 1.5 1.5 0 0 0 26.5 16 A 1.5 1.5 0 0 0 26.5 13 z M 33 16 A 1 1 0 0 0 33 18 A 1 1 0 0 0 33 16 z M 40.5 18 A 1.5 1.5 0 0 0 40.5 21 A 1.5 1.5 0 0 0 40.5 18 z M 35 23 A 1 1 0 0 0 35 25 A 1 1 0 0 0 35 23 z" fill="#4F51C0" />
</svg>