<svg xmlns="http://www.w3.org/2000/svg" viewBox="0 0 50 50">
  <path d="M25 2C24.45 2 24 2.45 24 3C24 4.03 23.059531 4.6598438 21.519531 5.5898438C20.179531 6.3798437 18.569141 7.3490625 18.119141 9.0390625C13.899141 9.4390625 12.31 12.65 12 15C12 18.78 19.41 20 23 20C23.55 20 24 20.45 24 21C24 21.55 23.55 22 23 22C22.87 22 10.860781 21.929688 10.050781 15.679688C7.9007812 16.809688 6.0195312 19.073234 6.0195312 22.490234C6.0195313 24.810234 7.0102344 27.290703 9.7402344 28.970703C11.720234 30.200703 14.67 31 19 31C24.14 31 28.260313 28.839375 31.570312 27.109375L31.75 27.019531C32.9 26.419531 33.959922 25.870234 34.919922 25.490234C35.689922 25.190234 36.39 25 37 25C37.38 25 37.739531 25.069219 38.019531 25.199219L38.589844 25.460938C38.589844 25.460938 38.620859 26.180703 38.630859 26.220703C38.670859 26.470703 38.819766 26.719609 39.009766 26.849609C39.309766 27.069609 39.867266 27.020625 40.197266 26.890625C40.427266 26.790625 40.459453 26.770625 40.689453 26.640625C42.239453 25.780625 43.990234 24.142844 43.990234 20.589844C43.990234 16.930844 40.149609 13.659453 34.849609 12.189453C33.479609 6.8394531 27.41 2 25 2 z M 36.769531 27.019531C35.839531 27.149531 34.229922 27.979062 32.669922 28.789062L32.550781 28.859375C29.000781 30.719375 24.64 33 19 33C16.74 33 12.959531 32.729219 9.7695312 31.199219L12.480469 45.449219C12.810469 46.949219 14.120156 48 15.660156 48L33.919922 48C35.459922 48 36.769609 46.949688 37.099609 45.429688L40.240234 29C39.400234 29.17 38.539844 28.980703 37.839844 28.470703C37.349844 28.140703 36.969531 27.609531 36.769531 27.019531 z M 18 35C19.1 35 20 35.9 20 37C20 38.1 19.1 39 18 39C16.9 39 16 38.1 16 37C16 35.9 16.9 35 18 35 z M 32 35C33.1 35 34 35.9 34 37C34 38.1 33.1 39 32 39C30.9 39 30 38.1 30 37C30 35.9 30.9 35 32 35 z M 21.154297 41.015625C21.406797 41.055625 21.645547 41.190156 21.810547 41.410156C21.850547 41.470156 23.02 43 25 43C26.98 43 28.149219 41.470156 28.199219 41.410156C28.519219 40.970156 29.149844 40.869219 29.589844 41.199219C30.029844 41.519219 30.130547 42.149844 29.810547 42.589844C29.740547 42.689844 28.01 45 25 45C21.99 45 20.259453 42.689844 20.189453 42.589844C19.869453 42.139844 19.960156 41.519453 20.410156 41.189453C20.635156 41.029453 20.901797 40.975625 21.154297 41.015625 z" fill="#4F51C0" />
</svg>