<svg xmlns="http://www.w3.org/2000/svg" viewBox="0 0 30 30">
  <path d="M17 3C11.477 3 7 7.477 7 13C7 15.401304 7.847177 17.604276 9.2578125 19.328125L3.2929688 25.292969 A 1.0001 1.0001 0 1 0 4.7070312 26.707031L10.671875 20.742188C12.395724 22.152823 14.598696 23 17 23C22.523 23 27 18.523 27 13C27 7.477 22.523 3 17 3 z M 17 6C20.051995 6 22.735042 7.5409139 24.363281 9.8710938C24.772451 10.832496 25 11.889283 25 13C25 14.765654 24.420124 16.391525 23.451172 17.714844C23.803898 16.879621 24 15.962179 24 15C24 11.14 20.86 8 17 8C14.243 8 12 10.243 12 13C12 15.757 14.243 18 17 18C18.654 18 20 16.654 20 15C20 13.346 18.654 12 17 12C16.448 12 16 12.448 16 13C16 13.552 16.448 14 17 14C17.551 14 18 14.449 18 15C18 15.551 17.551 16 17 16C15.346 16 14 14.654 14 13C14 11.346 15.346 10 17 10C19.757 10 22 12.243 22 15C22 17.757 19.757 20 17 20C13.14 20 10 16.86 10 13C10 9.14 13.14 6 17 6 z" fill="#4f51c0" />
</svg>