<svg xmlns="http://www.w3.org/2000/svg" viewBox="0 0 32 32">
  <path d="M10.333984 3C8.5945064 3 7 4.2210894 7 5.9433594L7 7.2226562L8 7.2226562C8.5141991 7.2226562 8.9708557 7.5296493 9.3671875 8.1035156C9.7135358 8.6050087 9.9274556 9.2739438 9.9785156 9.78125C5.5190169 17.369091 6 28.037109 6 28.037109L6.0371094 29L25.078125 29L24.982422 27.912109C24.982422 27.912109 24.489223 22.249285 22.962891 16.732422L22.761719 16L22 16C20.596527 16 19.950232 15.675689 19.576172 15.244141C19.202112 14.812593 19 14.081389 19 13L19 10.470703C19.105454 10.66092 19.197259 10.846393 19.322266 11.041016C20.216171 12.432742 21.748516 14 24 14L24 12C22.682484 12 21.717704 11.067258 21.005859 9.9589844C20.521076 9.2042222 20.273672 8.5818569 20.126953 8.171875C20.377727 8.0626481 20.668845 8 21 8L25 8L25 3L21.332031 3L10.667969 3L10.333984 3 z M 10.333984 5L10.667969 5L21.332031 5L23 5L23 6L21 6C19.027546 6 17.630462 7.3710612 17.195312 9L11.675781 9C11.527193 8.3045834 11.445025 7.591372 11.013672 6.9667969C10.589731 6.3529548 9.9408879 5.8925426 9.203125 5.5800781C9.3972408 5.275094 9.7367683 5 10.333984 5 z M 11.585938 11L17 11L17 13C17 14.318611 17.225013 15.586236 18.064453 16.554688C18.751421 17.347234 19.855135 17.727049 21.162109 17.869141C22.269857 22.108166 22.718941 25.710156 22.853516 27L8.0566406 27C8.040102 25.586384 8.0326815 17.22609 11.585938 11 z M 15.751953 17C10.635953 18.676 10.300375 22.265891 11.734375 23.462891C12.356375 23.989891 12.834687 23.798828 12.929688 23.798828C12.883917 22.931087 13.025085 20.853136 14.197266 19.541016C13.332572 21.616517 13.393955 23.175146 13.757812 24.234375C14.165233 25.420418 14.964844 25.994141 14.964844 25.994141L15.535156 25.171875C15.535156 25.171875 15.018455 24.828113 14.703125 23.910156C14.699658 23.900062 14.698725 23.885231 14.695312 23.875C15.377488 24.091568 16.560389 24.007861 16.898438 22.505859C17.472438 20.159859 15.416953 18.005 15.751953 17 z" fill="#4f51c0" />
</svg>