<svg xmlns="http://www.w3.org/2000/svg" viewBox="0 0 26 26">
  <path d="M11 0C8.25 0 6 2.25 6 5C6 7.75 8.25 10 11 10C13.75 10 16 7.75 16 5C16 2.25 13.75 0 11 0 Z M 11 2C12.667969 2 14 3.332031 14 5C14 6.667969 12.667969 8 11 8C9.332031 8 8 6.667969 8 5C8 3.332031 9.332031 2 11 2 Z M 10.5 3C10.089844 3 9.683594 3.128906 9.40625 3.40625C9.128906 3.683594 9 4.089844 9 4.5C8.996094 4.679688 9.09375 4.847656 9.246094 4.9375C9.402344 5.03125 9.597656 5.03125 9.753906 4.9375C9.90625 4.847656 10.003906 4.679688 10 4.5C10 4.3125 10.050781 4.199219 10.125 4.125C10.199219 4.050781 10.3125 4 10.5 4C10.679688 4.003906 10.847656 3.90625 10.9375 3.753906C11.03125 3.597656 11.03125 3.402344 10.9375 3.246094C10.847656 3.09375 10.679688 2.996094 10.5 3 Z M 19.5 4C18.132813 4 17 5.132813 17 6.5C17 7.867188 18.132813 9 19.5 9C20.867188 9 22 7.867188 22 6.5C22 5.132813 20.867188 4 19.5 4 Z M 19.5 6C19.789063 6 20 6.210938 20 6.5C20 6.789063 19.789063 7 19.5 7C19.210938 7 19 6.789063 19 6.5C19 6.210938 19.210938 6 19.5 6 Z M 16.5 9C15.125 9 13.945313 9.835938 13.375 11L6 11C2.675781 11 0 13.675781 0 17L0 20C0 23.300781 2.699219 26 6 26L20 26C23.300781 26 26 23.300781 26 20L26 17C26 13.675781 23.324219 11 20 11L19.625 11C19.054688 9.835938 17.875 9 16.5 9 Z M 16.5 11C17.339844 11 18 11.660156 18 12.5C18 13.339844 17.339844 14 16.5 14C15.660156 14 15 13.339844 15 12.5C15 11.660156 15.660156 11 16.5 11 Z M 6 13L13.03125 13C13.28125 14.679688 14.753906 16 16.5 16C18.246094 16 19.71875 14.679688 19.96875 13L20 13C22.277344 13 24 14.722656 24 17C24 17.210938 23.976563 17.429688 23.9375 17.65625C23.929688 17.699219 23.914063 17.738281 23.90625 17.78125C23.898438 17.824219 23.882813 17.863281 23.875 17.90625C23.832031 18.09375 23.785156 18.292969 23.71875 18.46875C23.5625 18.878906 23.355469 19.269531 23.0625 19.625C22.832031 19.898438 22.582031 20.144531 22.28125 20.34375C22.242188 20.371094 22.195313 20.382813 22.15625 20.40625C21.542969 20.78125 20.800781 21 20 21L6 21C5.695313 21 5.40625 20.964844 5.125 20.90625C5.011719 20.882813 4.921875 20.847656 4.8125 20.8125C4.664063 20.769531 4.511719 20.714844 4.375 20.65625C3.1875 20.105469 2.359375 18.976563 2.09375 17.8125C2.042969 17.546875 2 17.285156 2 17C2 14.722656 3.722656 13 6 13 Z M 6 14C4.355469 14 3 15.355469 3 17C2.996094 17.359375 3.183594 17.695313 3.496094 17.878906C3.808594 18.058594 4.191406 18.058594 4.503906 17.878906C4.816406 17.695313 5.003906 17.359375 5 17C5 16.445313 5.445313 16 6 16L8.90625 16C9.265625 16.003906 9.601563 15.816406 9.785156 15.503906C9.964844 15.191406 9.964844 14.808594 9.785156 14.496094C9.601563 14.183594 9.265625 13.996094 8.90625 14Z" fill="#4f51c0" />
</svg>