<svg xmlns="http://www.w3.org/2000/svg" viewBox="0 0 50 50">
  <path d="M23 2C21.445313 2 20.179688 3.199219 20.03125 4.71875C19.917969 4.671875 19.851563 4.640625 19.71875 4.59375C18.867188 4.292969 17.617188 4 16 4C13.226563 4 10.625 5.0625 10.625 5.0625C10.105469 5.269531 9.855469 5.855469 10.0625 6.375C10.269531 6.894531 10.855469 7.144531 11.375 6.9375C11.375 6.9375 13.753906 6 16 6C17.382813 6 18.40625 6.238281 19.0625 6.46875C19.71875 6.699219 19.9375 6.875 19.9375 6.875C19.957031 6.886719 19.980469 6.898438 20 6.90625L20 8C20 8.550781 20.449219 9 21 9L22 9L22 11L21 11C19.347656 11 18 12.347656 18 14L18 15L32 15L32 14C32 12.347656 30.652344 11 29 11L28 11L28 9L29 9C29.554688 9 30 8.550781 30 8L30 5C30 3.347656 28.652344 2 27 2 Z M 18 17C14.140625 17 11 20.140625 11 24L11 46C11 47.101563 11.898438 48 13 48L37 48C38.101563 48 39 47.101563 39 46L39 24C39 20.140625 35.859375 17 32 17Z" fill="#4F51C0" />
</svg>