<svg xmlns="http://www.w3.org/2000/svg" viewBox="0 0 50 50">
  <path d="M25 2C24.449219 2 24 2.449219 24 3L24 23.4375C21.175781 10.132813 16.980469 4.628906 16.78125 4.375C16.441406 3.941406 15.8125 3.878906 15.375 4.21875C14.941406 4.558594 14.882813 5.1875 15.21875 5.625C15.261719 5.679688 18.75 10.308594 21.4375 21.25C17.179688 12.648438 9.886719 8.347656 9.5 8.125C9.019531 7.851563 8.398438 8.019531 8.125 8.5C7.851563 8.980469 8.019531 9.601563 8.5 9.875C8.589844 9.925781 15.832031 14.152344 19.84375 22.53125C14.644531 15.816406 5.753906 13.167969 5.28125 13.03125C4.75 12.878906 4.183594 13.1875 4.03125 13.71875C3.878906 14.25 4.1875 14.816406 4.71875 14.96875C4.832031 15 14.257813 17.800781 18.9375 24.71875C12.296875 18.066406 3.34375 18.953125 2.90625 19C2.359375 19.058594 1.941406 19.542969 2 20.09375C2.058594 20.640625 2.539063 21.058594 3.09375 21C3.46875 20.960938 10.804688 20.285156 16.65625 25.40625C9.488281 22.722656 2.101563 24.910156 1.71875 25.03125C1.191406 25.195313 0.867188 25.753906 1.03125 26.28125C1.195313 26.808594 1.757813 27.132813 2.28125 26.96875C2.382813 26.9375 12.015625 24.058594 19.3125 29L30.6875 29C37.980469 24.054688 47.617188 26.9375 47.71875 26.96875C48.242188 27.128906 48.804688 26.808594 48.96875 26.28125C49.132813 25.753906 48.808594 25.195313 48.28125 25.03125C47.898438 24.914063 40.511719 22.722656 33.34375 25.40625C39.195313 20.285156 46.535156 20.960938 46.90625 21C47.445313 21.054688 47.941406 20.644531 48 20.09375C48.058594 19.542969 47.640625 19.058594 47.09375 19C46.652344 18.953125 37.703125 18.066406 31.0625 24.71875C35.742188 17.800781 45.167969 15.003906 45.28125 14.96875C45.8125 14.816406 46.121094 14.25 45.96875 13.71875C45.816406 13.1875 45.25 12.875 44.71875 13.03125C44.246094 13.167969 35.390625 15.792969 30.1875 22.46875C34.207031 14.160156 41.410156 9.925781 41.5 9.875C41.976563 9.597656 42.152344 8.980469 41.875 8.5C41.601563 8.019531 40.980469 7.851563 40.5 8.125C40.113281 8.347656 32.820313 12.648438 28.5625 21.25C31.25 10.308594 34.742188 5.679688 34.78125 5.625C35.121094 5.191406 35.0625 4.558594 34.625 4.21875C34.1875 3.878906 33.558594 3.941406 33.21875 4.375C33.019531 4.628906 28.824219 10.132813 26 23.4375L26 3C26 2.449219 25.550781 2 25 2 Z M 20.125 31C20.371094 32.179688 21.023438 33.234375 22 33.96875L22 37.25C22 39.363281 21.75 41.152344 21.21875 42.71875C21.003906 43.355469 20.945313 44.042969 21.0625 44.71875C21.34375 46.339844 22.664063 47.65625 24.28125 47.9375C24.519531 47.980469 24.769531 48 25 48C26.066406 48 27.058594 47.570313 27.8125 46.8125C28.570313 46.058594 29 45.066406 29 44C29 43.613281 28.953125 43.238281 28.84375 42.875C28.34375 41.203125 28 39.796875 28 38.375L28 33.96875C28.976563 33.234375 29.628906 32.175781 29.875 31Z" fill="#4F51C0" />
</svg>