<svg xmlns="http://www.w3.org/2000/svg" viewBox="0 0 50 50">
  <path d="M7 3C6.448 3 6 3.447 6 4L6 7.6835938C6 7.7325938 6.0037188 7.780125 6.0117188 7.828125L10.011719 35.144531C10.016719 35.177531 10.040828 35.204328 10.048828 35.236328C10.072828 35.331328 10.105297 35.419953 10.154297 35.501953C10.169297 35.526953 10.168547 35.556078 10.185547 35.580078L15 42.322266L15 46C15 46.553 15.448 47 16 47L22 47C22.552 47 23 46.553 23 46L23 42.304688L27.53125 35.556641C27.54625 35.534641 27.545594 35.507375 27.558594 35.484375C27.605594 35.402375 27.63425 35.31375 27.65625 35.21875C27.66425 35.18375 27.689359 35.155141 27.693359 35.119141L30.992188 7.8027344C30.998188 7.7637344 31 7.7235938 31 7.6835938L31 4C31 3.447 30.552 3 30 3L7 3 z M 38 3 A 1.0001 1.0001 0 1 0 38 5L42 5L42 7L38 7 A 1.0001 1.0001 0 1 0 38 9L42 9L42 11.001953L38 11 A 1.0001 1.0001 0 1 0 38 13L42 13.001953L42 15.001953L38 15 A 1.0001 1.0001 0 1 0 38 17L41.800781 17.001953C41.632077 18.13986 41.371493 19.262228 40.916016 20.324219L40.246094 21.888672C39.423594 23.806364 39 25.870716 39 27.957031L39 46 A 1.0001 1.0001 0 1 0 41 46L41 27.957031C41 26.141346 41.368484 24.344042 42.083984 22.675781L42.753906 21.111328C43.576406 19.193589 44 17.129284 44 15.042969L44 5C44 3.9069372 43.093063 3 42 3L38 3 z M 8 7C8.552 7 9 7.448 9 8C9 8.552 8.552 9 8 9C7.448 9 7 8.552 7 8C7 7.448 7.448 7 8 7 z M 11 7C11.552 7 12 7.448 12 8C12 8.552 11.552 9 11 9C10.448 9 10 8.552 10 8C10 7.448 10.448 7 11 7 z M 14 7C14.552 7 15 7.448 15 8C15 8.552 14.552 9 14 9C13.448 9 13 8.552 13 8C13 7.448 13.448 7 14 7 z M 17 7C17.552 7 18 7.448 18 8C18 8.552 17.552 9 17 9C16.448 9 16 8.552 16 8C16 7.448 16.448 7 17 7 z M 20 7C20.552 7 21 7.448 21 8C21 8.552 20.552 9 20 9C19.448 9 19 8.552 19 8C19 7.448 19.448 7 20 7 z M 23 7C23.552 7 24 7.448 24 8C24 8.552 23.552 9 23 9C22.448 9 22 8.552 22 8C22 7.448 22.448 7 23 7 z M 26 7C26.552 7 27 7.448 27 8C27 8.552 26.552 9 26 9C25.448 9 25 8.552 25 8C25 7.448 25.448 7 26 7 z M 29 7C29.552 7 30 7.448 30 8C30 8.552 29.552 9 29 9C28.448 9 28 8.552 28 8C28 7.448 28.448 7 29 7 z M 17.611328 16C18.130328 16 18.587422 16.074937 18.982422 16.210938C19.377422 16.074938 19.834563 16 20.351562 16C21.511563 15.999 22.443219 16.369906 23.074219 17.003906C23.674219 17.606906 24.003047 18.4475 23.998047 19.4375C23.999047 20.9065 22.933391 21.709453 22.525391 23.189453C22.062391 24.879453 21.881687 27 20.804688 27C20.543688 27.001 20.332688 26.922531 20.179688 26.769531C19.992687 26.581531 19.892578 26.282 19.892578 25.875C19.893578 24.851 19.686703 23.681828 19.470703 22.548828C19.449703 22.437828 19.400938 22.349203 19.335938 22.283203C19.079937 22.026203 18.570281 22.114828 18.488281 22.548828C18.272281 23.681828 18.066406 24.849 18.066406 25.875C18.066406 26.616 17.734297 27 17.154297 27C16.933297 27 16.750703 26.910906 16.595703 26.753906C15.991703 26.147906 15.801641 24.533453 15.431641 23.189453C15.024641 21.709453 13.958984 20.9075 13.958984 19.4375C13.960984 17.4065 15.350328 16 17.611328 16 z M 12.943359 36L24.824219 36L21.466797 41L16.513672 41L12.943359 36 z" fill="#4F51C0" />
</svg>