<svg xmlns="http://www.w3.org/2000/svg" viewBox="0 0 50 50">
  <path d="M33.816406 6.1152344C31.529688 6.1551514 29.050391 6.421875 26.650391 7.109375C19.980391 9.029375 11.209141 7.1196094 11.119141 7.0996094C10.599141 6.9796094 10.079453 7.3003125 9.9394531 7.8203125C9.8794531 8.0403125 8.9097656 11.790391 9.0097656 16.650391C9.6097656 16.290391 10.279219 16.109375 10.949219 16.109375C11.249219 16.109375 11.559141 16.150469 11.869141 16.230469C12.539141 16.400469 13.149922 16.75 13.669922 17.25L13.689453 17.269531L13.710938 17.289062C14.510937 18.099063 14.950703 19.190313 14.970703 20.320312L22.169922 13.130859C22.869922 12.420859 23.820312 12.029297 24.820312 12.029297C26.020313 12.029297 27.159141 12.609844 27.869141 13.589844C28.069141 13.869844 28.219844 14.180234 28.339844 14.490234C28.749844 14.330234 29.199922 14.25 29.669922 14.25C30.869922 14.25 32.010703 14.840312 32.720703 15.820312C33.430703 16.810312 33.569922 18.11 33.169922 19.25C33.899922 19.5 34.54 19.969375 35 20.609375C36.03 22.039375 35.870625 24.070391 34.640625 25.400391C34.840625 25.490391 35.030938 25.600469 35.210938 25.730469C36.110937 26.380469 36.669766 27.380469 36.759766 28.480469C36.849766 29.580469 36.459688 30.659688 35.679688 31.429688L29.759766 37.349609C29.299766 37.799609 28.560859 38.550703 27.630859 39.470703C34.490859 36.120703 42.449297 39.579141 42.529297 39.619141C42.799297 39.739141 43.110859 39.729609 43.380859 39.599609C43.640859 39.469609 43.840156 39.239219 43.910156 38.949219C44.000156 38.589219 46.090391 30.150078 43.900391 22.580078C41.870391 15.570078 43.880391 8.4196094 43.900391 8.3496094C43.970391 8.0896094 43.940547 7.8100781 43.810547 7.5800781C43.670547 7.3400781 43.449453 7.169375 43.189453 7.109375C42.941953 7.040625 38.847187 6.027417 33.816406 6.1152344 z M 24.949219 14.03125C24.458094 13.993875 23.953625 14.163063 23.578125 14.539062L14.992188 23.126953C14.992188 23.126953 14.990234 23.128906 14.990234 23.128906L12.470703 25.650391L12.921875 20.890625C13.081875 20.080625 12.83125 19.251406 12.28125 18.691406C12.01125 18.431406 11.701328 18.250156 11.361328 18.160156C10.881328 18.040156 10.371406 18.140156 9.9414062 18.410156C9.4614062 18.710156 9.0818125 19.262797 8.8828125 19.841797C8.8758125 19.862797 6.9690625 25.700078 6.2890625 29.580078C6.2490625 29.670078 6.1785937 33.989375 6.0585938 34.109375L3.3964844 36.978516C2.9964844 37.378516 2.9967187 37.998672 3.3867188 38.388672L13.9375 48.9375C14.3255 49.3255 14.953797 49.327453 15.341797 48.939453C19.469797 44.818453 26.43775 37.8505 28.34375 35.9375L34.261719 30.019531C35.013719 29.268531 34.939109 28.003516 34.037109 27.353516C33.330109 26.843516 32.337703 26.993375 31.720703 27.609375L25.828125 33.503906C25.539125 33.792906 25.072203 33.792906 24.783203 33.503906L24.767578 33.486328C24.478578 33.197328 24.478578 32.730406 24.767578 32.441406L33.119141 24.089844C33.736141 23.472844 33.885953 22.481437 33.376953 21.773438C32.726953 20.872438 31.461937 20.797828 30.710938 21.548828L23.292969 28.966797C23.003969 29.255797 22.537047 29.255797 22.248047 28.966797L22.232422 28.951172C21.943422 28.662172 21.943422 28.19525 22.232422 27.90625L30.835938 19.302734C31.452938 18.685734 31.601797 17.692375 31.091797 16.984375C30.441797 16.083375 29.178734 16.010719 28.427734 16.761719L19.757812 25.431641C19.469812 25.719641 19.001891 25.720641 18.712891 25.431641L18.699219 25.419922C18.408219 25.128922 18.409266 24.660094 18.697266 24.371094L25.988281 17.080078C26.605281 16.464078 26.754141 15.471672 26.244141 14.763672C25.919141 14.313172 25.440344 14.068625 24.949219 14.03125 z" fill="#4F51C0" />
</svg>