<svg xmlns="http://www.w3.org/2000/svg" viewBox="0 0 50 50">
  <path d="M11 2C5.953125 2 2 9.027344 2 18L2 47C2 47.402344 2.253906 47.78125 2.625 47.9375C2.996094 48.09375 3.433594 48.003906 3.71875 47.71875C3.949219 47.488281 4.5625 47 5 47C5.4375 47 6.050781 47.460938 6.28125 47.6875C6.667969 48.082031 7.292969 48.101563 7.6875 47.71875C7.941406 47.46875 8.59375 47 9 47C9.382813 47 10.015625 47.433594 10.3125 47.71875C10.699219 48.097656 11.296875 48.097656 11.6875 47.71875C11.984375 47.433594 12.613281 47 13 47C13.386719 47 13.988281 47.433594 14.28125 47.71875C14.671875 48.105469 15.328125 48.078125 15.71875 47.6875C15.949219 47.457031 16.558594 47 17 47C17.441406 47 18.054688 47.460938 18.28125 47.6875C18.46875 47.878906 18.734375 48 19 48C19.265625 48 19.53125 47.910156 19.71875 47.71875C19.964844 47.472656 20.582031 47 21 47C21.4375 47 22.050781 47.492188 22.28125 47.71875C22.667969 48.109375 23.324219 48.105469 23.71875 47.71875C24.007813 47.433594 24.609375 47 25 47C25.390625 47 25.992188 47.4375 26.28125 47.71875C26.671875 48.109375 27.328125 48.105469 27.71875 47.71875C28.007813 47.433594 28.605469 47 29 47C29.289063 47 29.691406 47.238281 30 47.46875L30 17L30.03125 17C30.21875 10.304688 32.238281 4.796875 35.28125 2 Z M 40 2C35.515625 2 32 9.027344 32 18C32 26.972656 35.515625 34 40 34C40.085938 34 40.164063 33.972656 40.25 33.96875C40.332031 33.972656 40.417969 34 40.5 34C44.707031 34 48 26.972656 48 18C48 9.027344 44.707031 2 40.5 2C40.417969 2 40.332031 2.027344 40.25 2.03125C40.164063 2.027344 40.085938 2 40 2 Z M 40 14.25C41.105469 14.25 42 15.929688 42 18C42 20.070313 41.105469 21.75 40 21.75C38.894531 21.75 38 20.070313 38 18C38 15.929688 38.894531 14.25 40 14.25 Z M 6 21C6.550781 21 7 21.449219 7 22C7 22.550781 6.550781 23 6 23C5.449219 23 5 22.550781 5 22C5 21.449219 5.449219 21 6 21 Z M 10 21C10.550781 21 11 21.449219 11 22C11 22.550781 10.550781 23 10 23C9.449219 23 9 22.550781 9 22C9 21.449219 9.449219 21 10 21 Z M 14 21C14.550781 21 15 21.449219 15 22C15 22.550781 14.550781 23 14 23C13.449219 23 13 22.550781 13 22C13 21.449219 13.449219 21 14 21 Z M 18 21C18.550781 21 19 21.449219 19 22C19 22.550781 18.550781 23 18 23C17.449219 23 17 22.550781 17 22C17 21.449219 17.449219 21 18 21 Z M 22 21C22.550781 21 23 21.449219 23 22C23 22.550781 22.550781 23 22 23C21.449219 23 21 22.550781 21 22C21 21.449219 21.449219 21 22 21 Z M 26 21C26.550781 21 27 21.449219 27 22C27 22.550781 26.550781 23 26 23C25.449219 23 25 22.550781 25 22C25 21.449219 25.449219 21 26 21 Z M 32 29.03125L32 34L35.28125 34C33.976563 32.800781 32.867188 31.101563 32 29.03125Z" fill="#4F51C0" />
</svg>