<svg xmlns="http://www.w3.org/2000/svg" viewBox="0 0 30 30">
  <path d="M18.980469 -0.01171875 A 1.0001 1.0001 0 0 0 18.167969 0.4453125C17.025738 2.1586587 16.969951 3.7834978 17.289062 4.9003906C17.608176 6.0172834 18.292969 6.7070312 18.292969 6.7070312 A 1.0001 1.0001 0 1 0 19.707031 5.2929688C19.707031 5.2929688 19.391824 4.9827166 19.210938 4.3496094C19.030049 3.7165022 18.974262 2.8413413 19.832031 1.5546875 A 1.0001 1.0001 0 0 0 18.980469 -0.01171875 z M 13.984375 1.9863281 A 1.0001 1.0001 0 0 0 13 3C13 4.1666667 13.29584 5.0780087 13.605469 5.6972656C13.915097 6.3165226 14.292969 6.7070312 14.292969 6.7070312 A 1.0001 1.0001 0 1 0 15.707031 5.2929688C15.707031 5.2929688 15.584903 5.1834774 15.394531 4.8027344C15.20416 4.4219913 15 3.8333333 15 3 A 1.0001 1.0001 0 0 0 13.984375 1.9863281 z M 11 5 A 1 1 0 0 0 10 6 A 1 1 0 0 0 11 7 A 1 1 0 0 0 12 6 A 1 1 0 0 0 11 5 z M 6.5 9C5.672 9 5 9.672 5 10.5C5 11.328 5.672 12 6.5 12L19 12C19.552 12 20 12.448 20 13C20 13.552 19.552 14 19 14L6 14L6 24C6 25.657 7.343 27 9 27L21 27C22.657 27 24 25.657 24 24L24 21L25 21C26.843594 21 28.340521 19.706363 28.796875 18L29 18L29 17C29 14.802666 27.197334 13 25 13L24 13L24 11.908203C24.58125 11.701513 25 11.151878 25 10.5C25 9.672 24.328 9 23.5 9L6.5 9 z M 24 15L25 15C26.116666 15 27 15.883334 27 17C27 18.116666 26.116666 19 25 19L24 19L24 15 z" fill="#4f51c0" />
</svg>