<svg xmlns="http://www.w3.org/2000/svg" viewBox="0 0 50 50">
  <path d="M22 2C20.898438 2 20 2.898438 20 4C18.355469 4 17 5.355469 17 7L17 10C17 11.644531 18.355469 13 20 13L30 13C31.644531 13 33 11.644531 33 10L33 7C33 5.355469 31.644531 4 30 4C30 2.898438 29.101563 2 28 2 Z M 20 6C20 6.738281 20.40625 7.375 21 7.71875L21 11L20 11C19.433594 11 19 10.566406 19 10L19 7C19 6.433594 19.433594 6 20 6 Z M 30 6C30.566406 6 31 6.433594 31 7L31 10C31 10.566406 30.566406 11 30 11L29 11L29 7.71875C29.59375 7.375 30 6.738281 30 6 Z M 23 8L27 8L27 11L23 11 Z M 21 14L21 14.765625L16.160156 24.441406C15.398438 25.96875 15 27.652344 15 29.359375L15 45C15 46.644531 16.355469 48 18 48L32 48C33.644531 48 35 46.644531 35 45L35 29.359375C35 27.652344 34.601563 25.96875 33.839844 24.441406L29 14.765625L29 14L27 14L27 15.234375L28.878906 19L21.121094 19L23 15.234375L23 14Z" fill="#4F51C0" />
</svg>