<svg xmlns="http://www.w3.org/2000/svg" viewBox="0 0 50 50">
  <path d="M42.46875 2.007813C41.25 2.007813 40.03125 2.46875 39.109375 3.390625L37.292969 5.207031C36.941406 5.558594 36.902344 6.117188 37.203125 6.515625L35.078125 8.640625C33.558594 10.164063 32.109375 11.3125 30.71875 12.21875L37.78125 19.28125C38.6875 17.890625 39.835938 16.445313 41.359375 14.921875L43.484375 12.796875C43.882813 13.097656 44.441406 13.058594 44.792969 12.707031L46.609375 10.890625C48.457031 9.042969 48.457031 6.019531 46.609375 4.171875L45.828125 3.390625C44.902344 2.46875 43.6875 2.003906 42.46875 2.007813 Z M 42.46875 3.992188C43.171875 3.996094 43.875 4.265625 44.417969 4.804688L45.195313 5.585938C46.277344 6.667969 46.277344 8.394531 45.195313 9.476563L44.085938 10.585938L39.414063 5.914063L40.519531 4.804688C41.0625 4.265625 41.765625 3.992188 42.46875 3.992188 Z M 25 4C24.449219 4 24 4.449219 24 5C24 5.550781 24.449219 6 25 6C25.550781 6 26 5.550781 26 5C26 4.449219 25.550781 4 25 4 Z M 31 7C30.449219 7 30 7.449219 30 8C30 8.550781 30.449219 9 31 9C31.550781 9 32 8.550781 32 8C32 7.449219 31.550781 7 31 7 Z M 28.941406 13.273438C27.730469 13.917969 26.554688 14.410156 25.40625 14.835938L27.84375 22.15625L35.160156 24.605469C35.585938 23.449219 36.078125 22.273438 36.726563 21.058594 Z M 23.515625 15.492188C23.332031 15.554688 23.144531 15.617188 22.960938 15.675781C19.539063 16.8125 16.003906 17.984375 12.371094 21.617188L3.195313 30.789063C1.601563 32.382813 1.601563 34.976563 3.195313 36.570313L13.429688 46.800781C14.226563 47.601563 15.273438 48 16.320313 48C17.367188 48 18.414063 47.601563 19.210938 46.800781L28.382813 37.628906C32.019531 33.996094 33.1875 30.460938 34.324219 27.039063C34.382813 26.859375 34.441406 26.675781 34.503906 26.496094L26.734375 23.894531C26.4375 23.796875 26.203125 23.5625 26.105469 23.265625 Z M 44 18C43.449219 18 43 18.449219 43 19C43 19.550781 43.449219 20 44 20C44.550781 20 45 19.550781 45 19C45 18.449219 44.550781 18 44 18 Z M 47 22C46.449219 22 46 22.449219 46 23C46 23.550781 46.449219 24 47 24C47.550781 24 48 23.550781 48 23C48 22.449219 47.550781 22 47 22 Z M 42 24C41.449219 24 41 24.449219 41 25C41 25.550781 41.449219 26 42 26C42.550781 26 43 25.550781 43 25C43 24.449219 42.550781 24 42 24 Z M 23 25C24.105469 25 25 25.894531 25 27C25 28.105469 24.105469 29 23 29C21.894531 29 21 28.105469 21 27C21 25.894531 21.894531 25 23 25 Z M 15.320313 26.570313L23.429688 34.679688L17.128906 40.980469L9.023438 32.871094Z" fill="#4F51C0" />
</svg>