<svg xmlns="http://www.w3.org/2000/svg" width="35.022" height="39.656" viewBox="0 0 16.665 39.997">
  <g id="surface1" transform="translate(-6.547 -0.438)">
    <path id="Path_43" data-name="Path 43" d="M18.216,4.6H11.55a.9.9,0,0,1-.9-.895V2.451A2.02,2.02,0,0,1,12.728.438h4.31a2.02,2.02,0,0,1,2.08,2.013V3.7A.9.9,0,0,1,18.216,4.6Zm3.333,27.574a16.174,16.174,0,0,1,.6-3.43,30.529,30.529,0,0,0,1.066-7.479,13.422,13.422,0,0,0-1.253-5.66v-.171h-.075c-.4-.857-.835-1.678-1.275-2.483a15.574,15.574,0,0,1-2.356-6.681H11.505A15.479,15.479,0,0,1,9.149,12.95c-.44.805-.872,1.626-1.268,2.483H7.8V15.6a13.535,13.535,0,0,0-1.253,5.66,30.893,30.893,0,0,0,1.066,7.479,15.784,15.784,0,0,1,.6,3.43,7.343,7.343,0,0,1-.88,3.08,6.616,6.616,0,0,0-.79,2.677,2.436,2.436,0,0,0,2.5,2.505h11.67a2.432,2.432,0,0,0,2.5-2.505,6.5,6.5,0,0,0-.79-2.677A7.335,7.335,0,0,1,21.549,32.172ZM16.255,12.152a.843.843,0,0,1,1.074.492l1.044,2.789H16.6l-.835-2.207A.843.843,0,0,1,16.255,12.152Zm-3.825.492A.835.835,0,1,1,14,13.225l-.828,2.207H11.386Zm.291,23.1a10.188,10.188,0,0,0-.343,2.185,2.457,2.457,0,0,0,.172.835h-1.7a2.614,2.614,0,0,1-.134-.835,11.793,11.793,0,0,1,.38-2.543A14.522,14.522,0,0,0,11.55,32.1c0-1.1-.171-3.184-.35-5h1.678c.172,1.819.336,3.877.336,5A16.154,16.154,0,0,1,12.721,35.744Zm6.189,3.02h-1.7a2.457,2.457,0,0,0,.172-.835,10.2,10.2,0,0,0-.343-2.185,16.153,16.153,0,0,1-.492-3.646c0-1.118.164-3.176.343-5h1.67c-.179,1.812-.343,3.9-.343,5a14.532,14.532,0,0,0,.455,3.288,11.768,11.768,0,0,1,.373,2.543A2.612,2.612,0,0,1,18.91,38.764ZM8.6,25.432a23.39,23.39,0,0,1-.388-4.168A11.525,11.525,0,0,1,8.985,17.1H20.774a11.365,11.365,0,0,1,.776,4.161,23.387,23.387,0,0,1-.388,4.168Z" transform="translate(0 0)" fill="#4f51c0"/>
  </g>
</svg>
