<svg xmlns="http://www.w3.org/2000/svg" viewBox="0 0 50 50">
  <path d="M13 2L13 4L23.125 4L23.8125 8.0625C16.09375 8.671875 10 15.128906 10 23C10 23.550781 10.449219 24 11 24L12.125 24L12.625 28L26 28C26.554688 28 27 28.445313 27 29C27 29.554688 26.554688 30 26 30L12.875 30L15 47.125C15.0625 47.625 15.496094 48 16 48L34 48C34.503906 48 34.9375 47.625 35 47.125L37.125 30L31 30C30.445313 30 30 29.554688 30 29C30 28.445313 30.445313 28 31 28L37.375 28L37.875 24L39 24C39.550781 24 40 23.550781 40 23C40 15.023438 33.738281 8.488281 25.875 8.03125L25 2.84375C24.921875 2.351563 24.496094 1.992188 24 2 Z M 25 10C31.847656 10 37.390625 15.285156 37.90625 22L12.09375 22C12.609375 15.285156 18.152344 10 25 10Z" fill="#4F51C0" />
</svg>