<svg xmlns="http://www.w3.org/2000/svg" viewBox="0 0 50 50">
  <path d="M23.375 0.0625C23.046875 0.0507813 22.722656 0.125 22.46875 0.21875C21.960938 0.40625 21.574219 0.671875 21.28125 0.90625C21.28125 0.90625 18.734375 2.886719 17.84375 6.34375L19.78125 6.84375C20.488281 4.101563 22.53125 2.5 22.53125 2.5C22.53125 2.488281 22.53125 2.480469 22.53125 2.46875C22.738281 2.304688 22.988281 2.15625 23.15625 2.09375C23.238281 2.0625 23.273438 2.066406 23.28125 2.0625C23.753906 2.433594 24.253906 2.777344 24.71875 3.0625C23.523438 3.738281 22.359375 4.753906 21.03125 7.21875L22.78125 8.1875C24.128906 5.6875 24.855469 5.132813 25.9375 4.59375C25.957031 4.585938 25.980469 4.574219 26 4.5625C26.574219 4.234375 27.039063 3.511719 26.9375 2.84375C26.835938 2.175781 26.417969 1.769531 25.96875 1.46875C25.949219 1.457031 25.925781 1.445313 25.90625 1.4375C25.441406 1.15625 24.886719 0.765625 24.4375 0.40625C24.40625 0.394531 24.375 0.382813 24.34375 0.375C24.027344 0.164063 23.703125 0.0742188 23.375 0.0625 Z M 31.0625 1.53125C30.898438 1.53125 30.722656 1.554688 30.5625 1.59375C29.921875 1.742188 29.382813 2.144531 28.9375 2.65625C28.1875 3.515625 26.671875 5.449219 24.25 9.28125L25.9375 10.34375C28.316406 6.574219 29.789063 4.710938 30.4375 3.96875C30.691406 3.679688 30.921875 3.554688 31.03125 3.53125C31.125 3.507813 31.175781 3.523438 31.28125 3.59375C31.292969 3.601563 31.300781 3.617188 31.3125 3.625C31.835938 4.042969 32.523438 4.503906 33.125 4.90625C33.183594 4.949219 33.128906 4.910156 33.15625 4.9375C33.144531 4.949219 33.136719 4.957031 33.125 4.96875C31.652344 6.34375 29.449219 8.207031 27.375 11.21875L29.03125 12.375C30.941406 9.601563 32.914063 7.890625 34.4375 6.46875C34.449219 6.460938 34.457031 6.445313 34.46875 6.4375C34.925781 6.035156 35.347656 5.46875 35.28125 4.78125C35.214844 4.078125 34.742188 3.609375 34.28125 3.28125C34.269531 3.28125 34.261719 3.28125 34.25 3.28125C33.671875 2.894531 32.992188 2.402344 32.53125 2.03125C32.511719 2.019531 32.488281 2.007813 32.46875 2C32.058594 1.707031 31.558594 1.53125 31.0625 1.53125 Z M 39.9375 4.6875C39.242188 4.765625 38.636719 5.078125 38.09375 5.5C38.09375 5.5 34.089844 8.585938 30.59375 13.625L32.21875 14.78125C35.523438 10.019531 39.3125 7.09375 39.3125 7.09375C39.671875 6.816406 39.976563 6.675781 40.15625 6.65625C40.3125 6.636719 40.425781 6.683594 40.59375 6.8125C40.617188 6.832031 40.628906 6.816406 40.65625 6.84375C41.246094 7.433594 41.914063 8.132813 42.5 8.71875C42.601563 8.820313 42.652344 8.910156 42.6875 8.96875C42.660156 8.976563 42.679688 8.949219 42.625 8.96875C42.613281 8.980469 42.605469 8.988281 42.59375 9C40.320313 10.023438 35.9375 13.050781 33.5625 15.75L35.0625 17.0625C37.078125 14.773438 41.628906 11.640625 43.375 10.84375C43.382813 10.839844 43.398438 10.816406 43.40625 10.8125C44.113281 10.515625 44.722656 9.839844 44.75 9.09375C44.777344 8.335938 44.375 7.75 43.90625 7.28125C43.304688 6.683594 42.601563 6.007813 42 5.40625C41.992188 5.386719 41.980469 5.363281 41.96875 5.34375C41.394531 4.839844 40.632813 4.609375 39.9375 4.6875 Z M 17.625 7.875C10.03125 7.875 1.8125 22.449219 1.8125 27.3125C1.8125 31.628906 7.292969 39.734375 13.03125 44.8125C12.363281 43.257813 12 41.484375 12 39.5C12 32.875 20.167969 16 30.40625 16C30.804688 16 31.171875 16.035156 31.53125 16.0625C29.210938 14.382813 25.730469 12.050781 20.625 8.75C19.703125 8.160156 18.707031 7.875 17.625 7.875 Z M 30.40625 18C21.804688 18 14 33.480469 14 39.5C14 46.171875 18.554688 50 26.5 50C33.25 50 41 49.25 41 43.3125C41 41.054688 40.195313 39.046875 39.25 36.71875C38.566406 35.035156 37.78125 33.125 37.15625 30.75C36.691406 29.003906 36.699219 27.25 36.6875 25.5625C36.660156 21.84375 36.628906 18 30.40625 18 Z M 28.71875 26.375C29.066406 26.40625 29.367188 26.5625 29.59375 26.8125C30.292969 27.613281 28.195313 27.589844 26.59375 30.1875C25.195313 32.585938 25.207031 34.695313 24.40625 34.59375C22.804688 34.394531 23.59375 30.785156 25.09375 28.6875C26.21875 27.109375 27.679688 26.277344 28.71875 26.375 Z M 32.6875 34.09375C33.386719 33.894531 36.707031 42.605469 34.90625 43.90625C33.707031 44.707031 26 45.210938 26 44.3125C26 43.3125 30.886719 43.40625 32.1875 41.40625C32.886719 40.40625 31.886719 34.394531 32.6875 34.09375Z" fill="#4F51C0" />
</svg>