<svg xmlns="http://www.w3.org/2000/svg" viewBox="0 0 50 50">
  <path d="M47 7c-2.089 0-3.182.596-4.146 1.122C41.989 8.593 41.243 9 39.663 9c-1.579 0-2.325-.407-3.189-.878C35.509 7.596 34.416 7 32.326 7c-2.088 0-3.18.596-4.144 1.122C27.318 8.593 26.573 9 24.995 9s-2.324-.407-3.188-.878C20.843 7.596 19.75 7 17.661 7c-2.088 0-3.181.596-4.145 1.122C12.652 8.593 11.907 9 10.329 9 8.752 9 8.007 8.594 7.145 8.122 6.181 7.597 5.088 7 3 7 2.447 7 2 7.447 2 8v12c0 .553.447 1 1 1 1.577 0 2.323.407 3.186.878C7.149 22.404 8.242 23 10.329 23c2.088 0 3.181-.596 4.145-1.122C15.338 21.407 16.083 21 17.661 21s2.324.407 3.188.878C21.813 22.404 22.906 23 24.995 23c2.088 0 3.181-.597 4.146-1.122C30.003 21.407 30.749 21 32.326 21c1.58 0 2.326.407 3.19.878C36.481 22.404 37.574 23 39.663 23c2.09 0 3.183-.596 4.147-1.122C44.675 21.407 45.421 21 47 21c.553 0 1-.447 1-1V8C48 7.447 47.553 7 47 7zM6.186 9.878C7.149 10.404 8.242 11 10.329 11c2.088 0 3.181-.596 4.145-1.122C15.338 9.407 16.083 9 17.661 9s2.324.407 3.188.878C21.813 10.404 22.906 11 24.995 11c2.088 0 3.181-.597 4.146-1.122C30.003 9.407 30.749 9 32.326 9c1.58 0 2.326.407 3.19.878C36.481 10.404 37.574 11 39.663 11c2.09 0 3.183-.596 4.147-1.122C44.469 9.52 45.059 9.197 46 9.064v1.992c-1.458.155-2.35.631-3.146 1.066C41.989 12.593 41.243 13 39.663 13c-1.579 0-2.325-.407-3.189-.878C35.509 11.596 34.416 11 32.326 11c-2.088 0-3.18.596-4.144 1.122C27.318 12.593 26.573 13 24.995 13s-2.324-.407-3.188-.878C20.843 11.596 19.75 11 17.661 11c-2.088 0-3.181.596-4.145 1.122C12.652 12.593 11.907 13 10.329 13c-1.577 0-2.322-.406-3.185-.878C6.349 11.689 5.457 11.212 4 11.057V9.064C4.94 9.198 5.529 9.52 6.186 9.878zM42.854 20.122C41.989 20.593 41.243 21 39.663 21c-1.579 0-2.325-.407-3.189-.878C35.509 19.596 34.416 19 32.326 19c-2.088 0-3.18.596-4.144 1.122C27.318 20.593 26.573 21 24.995 21s-2.324-.407-3.188-.878C20.843 19.596 19.75 19 17.661 19c-2.088 0-3.181.596-4.145 1.122C12.652 20.593 11.907 21 10.329 21c-1.577 0-2.322-.406-3.185-.878C6.348 19.688 5.462 19.204 4 19.05v-1.983c.939.133 1.53.453 2.186.812C7.149 18.404 8.242 19 10.329 19c2.088 0 3.181-.596 4.145-1.122C15.338 17.407 16.083 17 17.661 17s2.324.407 3.188.878C21.813 18.404 22.906 19 24.995 19c2.088 0 3.181-.597 4.146-1.122C30.003 17.407 30.749 17 32.326 17c1.58 0 2.326.407 3.19.878C36.481 18.404 37.574 19 39.663 19c2.09 0 3.183-.596 4.147-1.122C44.468 17.52 45.06 17.2 46 17.066v1.983C44.536 19.204 43.651 19.688 42.854 20.122zM47 27c-2.089 0-3.182.596-4.146 1.122C41.989 28.593 41.243 29 39.663 29c-1.579 0-2.325-.407-3.189-.878C35.509 27.596 34.416 27 32.326 27c-2.088 0-3.18.596-4.144 1.122C27.318 28.593 26.573 29 24.995 29s-2.324-.407-3.188-.878C20.843 27.596 19.75 27 17.661 27c-2.088 0-3.181.596-4.145 1.122C12.652 28.593 11.907 29 10.329 29c-1.577 0-2.322-.406-3.185-.878C6.181 27.597 5.088 27 3 27c-.553 0-1 .447-1 1v12c0 .553.447 1 1 1 1.577 0 2.323.407 3.186.878C7.149 42.404 8.242 43 10.329 43c2.088 0 3.181-.596 4.145-1.122C15.338 41.407 16.083 41 17.661 41s2.324.407 3.188.878C21.813 42.404 22.906 43 24.995 43c2.088 0 3.181-.597 4.146-1.122C30.003 41.407 30.749 41 32.326 41c1.58 0 2.326.407 3.19.878C36.481 42.404 37.574 43 39.663 43c2.09 0 3.183-.596 4.147-1.122C44.675 41.407 45.421 41 47 41c.553 0 1-.447 1-1V28C48 27.447 47.553 27 47 27zM6.186 29.878C7.149 30.404 8.242 31 10.329 31c2.088 0 3.181-.596 4.145-1.122C15.338 29.407 16.083 29 17.661 29s2.324.407 3.188.878C21.813 30.404 22.906 31 24.995 31c2.088 0 3.181-.597 4.146-1.122C30.003 29.407 30.749 29 32.326 29c1.58 0 2.326.407 3.19.878C36.481 30.404 37.574 31 39.663 31c2.09 0 3.183-.596 4.147-1.122.658-.358 1.248-.681 2.189-.813v1.992c-1.458.155-2.35.631-3.146 1.066C41.989 32.593 41.243 33 39.663 33c-1.579 0-2.325-.407-3.189-.878C35.509 31.596 34.416 31 32.326 31c-2.088 0-3.18.596-4.144 1.122C27.318 32.593 26.573 33 24.995 33s-2.324-.407-3.188-.878C20.843 31.596 19.75 31 17.661 31c-2.088 0-3.181.596-4.145 1.122C12.652 32.593 11.907 33 10.329 33c-1.577 0-2.322-.406-3.185-.878C6.349 31.689 5.457 31.212 4 31.057v-1.992C4.94 29.198 5.529 29.52 6.186 29.878zM42.854 40.122C41.989 40.593 41.243 41 39.663 41c-1.579 0-2.325-.407-3.189-.878C35.509 39.596 34.416 39 32.326 39c-2.088 0-3.18.596-4.144 1.122C27.318 40.593 26.573 41 24.995 41s-2.324-.407-3.188-.878C20.843 39.596 19.75 39 17.661 39c-2.088 0-3.181.596-4.145 1.122C12.652 40.593 11.907 41 10.329 41c-1.577 0-2.322-.406-3.185-.878C6.348 39.688 5.462 39.204 4 39.05v-1.983c.939.133 1.53.453 2.186.812C7.149 38.404 8.242 39 10.329 39c2.088 0 3.181-.596 4.145-1.122C15.338 37.407 16.083 37 17.661 37s2.324.407 3.188.878C21.813 38.404 22.906 39 24.995 39c2.088 0 3.181-.597 4.146-1.122C30.003 37.407 30.749 37 32.326 37c1.58 0 2.326.407 3.19.878C36.481 38.404 37.574 39 39.663 39c2.09 0 3.183-.596 4.147-1.122C44.468 37.52 45.06 37.2 46 37.066v1.983C44.536 39.204 43.651 39.688 42.854 40.122z" fill="#4F51C0" />
</svg>