<svg xmlns="http://www.w3.org/2000/svg" viewBox="0 0 50 50">
  <path d="M44 2 A 1.0001 1.0001 0 0 0 43.292969 2.2929688L37.998047 7.5878906C37.071176 7.2115769 36.060292 7 35 7C32 7 29.273641 8.4056406 28.306641 11.806641C25.635641 12.562641 23.562641 14.636641 22.806641 17.306641C20.136641 18.062641 18.062641 20.136641 17.306641 22.806641C14.636641 23.562641 12.562641 25.635641 11.806641 28.306641C8.4056406 29.273641 7 32 7 35C7 36.060292 7.2115769 37.071176 7.5878906 37.998047L2 43.585938L3.4140625 45L8.6152344 39.798828C9.0677146 40.399335 9.6006655 40.932285 10.201172 41.384766L5 46.585938L6.4140625 48L12.001953 42.412109C12.928824 42.788423 13.939708 43 15 43C18 43 20.726359 41.594359 21.693359 38.193359C24.364359 37.437359 26.437359 35.363359 27.193359 32.693359C29.863359 31.937359 31.937359 29.863359 32.693359 27.193359C35.363359 26.437359 37.437359 24.364359 38.193359 21.693359C41.594359 20.726359 43 18 43 15C43 13.939708 42.788423 12.928824 42.412109 12.001953L47.707031 6.7070312 A 1.0001 1.0001 0 0 0 48 6L48 3 A 1.0001 1.0001 0 0 0 47 2L44 2 z M 44.414062 4L46 4L46 5.5859375L41.384766 10.201172C40.932285 9.6006655 40.399335 9.0677146 39.798828 8.6152344L44.414062 4 z" fill="#4F51C0" />
</svg>