<svg xmlns="http://www.w3.org/2000/svg" viewBox="0 0 50 50">
  <path d="M47.541016 1.9589844L45.972656 2C45.972656 2 41.576552 2.0686868 38.910156 5.375L38.072266 6.2421875C37.473266 6.8621875 36.752891 7.7072969 35.837891 8.7792969C34.54267 10.296832 32.752399 12.385739 30.316406 15.007812C27.96806 17.409234 24.371669 19.038385 20.623047 20.429688C16.773385 21.85849 12.808239 23.031597 9.890625 24.851562L9.875 24.861328L9.8613281 24.871094C4.5573449 28.450694 3 32.551534 3 36.744141C3 38.364779 3.3681844 39.968195 4.0449219 41.429688C5.4841882 45.460142 9.0920321 47.763727 13.494141 48.234375C14.258141 48.316375 15.001563 48.335938 15.726562 48.335938C20.648563 48.335938 24.683813 46.469094 28.007812 42.621094C32.348813 37.596094 33.501187 32.548969 34.617188 27.667969C35.723188 22.831969 36.774781 18.259906 40.800781 13.753906L42.955078 11.439453L45.431641 9.5859375L45.462891 9.5566406C46.13845 8.9521331 46.52733 8.3912556 46.742188 7.9414062C46.957044 7.4915569 47 7.03125 47 7.03125L47.019531 6.3828125L45.865234 5.8242188L47.541016 1.9589844 z M 44.330078 4.3378906L43.267578 6.7871094L44.634766 7.4492188C44.508473 7.6328116 44.44415 7.7786707 44.140625 8.0527344L42.248047 9.4707031C40.75105 8.2474802 40.322414 7.265473 40.375 6.8085938C41.571392 5.2376296 43.076293 4.6320487 44.330078 4.3378906 z M 19.75 22.875C20.438 23.217 20.711 23.933 20.875 24.875C21.327 27.469 19.854 32.271 16.5 35.5C12.628825 39.226413 8.0559402 40.827621 5.4550781 39.548828C5.1617612 38.64461 5 37.698105 5 36.744141C5 32.999761 6.0835975 29.842501 10.962891 26.542969C13.152607 25.18012 16.396775 24.080022 19.75 22.875 z M 13.839844 27.992188C12.598969 28.015766 11.215422 28.897063 10.263672 30.007812C9.3246719 31.104813 8.8641563 32.345078 9.0351562 33.330078C9.1401563 33.937078 9.4802812 34.432656 9.9882812 34.722656C10.334281 34.919656 10.713375 35.007812 11.109375 35.007812C12.362375 35.007812 13.772328 34.118188 14.736328 32.992188C15.676328 31.895188 16.135844 30.653922 15.964844 29.669922C15.859844 29.062922 15.519719 28.567344 15.011719 28.277344C14.651469 28.071844 14.253469 27.984328 13.839844 27.992188 z" fill="#4F51C0" />
</svg>