<svg xmlns="http://www.w3.org/2000/svg" viewBox="0 0 50 50">
  <path d="M35.34375 6C34.914063 5.960938 34.453125 6.003906 33.9375 6.1875C31.84375 6.929688 31.71875 9.136719 32 10.4375C31.558594 11.59375 30.140625 13.132813 28.3125 13.875C27.992188 14.003906 27.511719 14.15625 26.84375 14.3125C28.226563 14.714844 29.59375 15.164063 30.875 15.59375C32.011719 15.976563 33.203125 16.378906 34.21875 16.65625C34.273438 16.582031 34.320313 16.507813 34.375 16.4375C35.914063 14.488281 36.667969 14.386719 37.53125 14.25C37.925781 14.1875 38.367188 14.113281 38.875 13.90625C39.992188 13.453125 40.515625 12.714844 40.75 12.1875C41.054688 11.503906 41.082031 10.722656 40.8125 10.0625C40.261719 8.707031 38.996094 8.121094 38.03125 7.9375C37.539063 7.082031 36.636719 6.121094 35.34375 6 Z M 44.03125 14C41.96875 14 41.066406 15.65625 40.90625 16.96875C39.96875 17.96875 37.867188 19 36 19C34.703125 19 32.519531 18.273438 30.21875 17.5C26.730469 16.328125 22.777344 15 19 15C10.695313 15 1 21.023438 1 38L1 38.40625L1.28125 38.71875C1.539063 38.976563 7.738281 45 21 45C36.867188 45 42 36.328125 42 32.125C42 29.753906 40.960938 27.699219 39.96875 26.28125C39.113281 26.867188 38.261719 27.585938 37.375 28.3125C34.117188 30.984375 30.429688 34 24 34C19.027344 34 15.402344 29.835938 15.25 29.65625C14.890625 29.238281 14.925781 28.609375 15.34375 28.25C15.761719 27.886719 16.390625 27.925781 16.75 28.34375C16.78125 28.378906 19.960938 32 24 32C29.714844 32 32.949219 29.328125 36.09375 26.75C37.382813 25.691406 38.601563 24.695313 39.9375 23.9375C40.746094 23.476563 41.414063 23.195313 42 23C43.167969 22.53125 43.761719 22.664063 44.40625 22.8125C44.796875 22.902344 45.234375 23 45.78125 23C47.878906 23 49 21.554688 49 20.1875C49 18.75 48.066406 17.726563 47.25 17.1875C47.207031 16.570313 47.046875 15.675781 46.40625 14.96875C46.007813 14.527344 45.261719 14 44.03125 14 Z M 10.40625 15L10.4375 15Z" fill="#4F51C0" />
</svg>