<svg xmlns="http://www.w3.org/2000/svg" viewBox="0 0 50 50">
  <path d="M42.90625 2.90625C41.800781 2.90625 40.769531 3.324219 40 4.09375L39.1875 4.90625L39.15625 4.90625C38.953125 4.800781 38.722656 4.769531 38.5 4.8125C38.308594 4.855469 38.136719 4.953125 38 5.09375L6.59375 36.5C6.582031 36.519531 6.570313 36.542969 6.5625 36.5625C6.484375 36.644531 6.421875 36.738281 6.375 36.84375L3.0625 45.65625C2.929688 46.019531 3.019531 46.429688 3.296875 46.703125C3.570313 46.980469 3.980469 47.070313 4.34375 46.9375L13.15625 43.625C13.261719 43.578125 13.355469 43.515625 13.4375 43.4375C13.457031 43.421875 13.480469 43.421875 13.5 43.40625L44.90625 12C45.242188 11.652344 45.285156 11.113281 45 10.71875L45.8125 9.90625C47.417969 8.304688 47.417969 5.695313 45.8125 4.09375C45.042969 3.324219 44.011719 2.90625 42.90625 2.90625 Z M 38.6875 7.1875L42.8125 11.3125L39.5 14.59375L35.40625 10.5 Z M 8.0625 38.0625L9 39L11 39L11 41L11.9375 41.9375L7.09375 43.78125L6.21875 42.90625Z" fill="#4F51C0" />
</svg>