<svg xmlns="http://www.w3.org/2000/svg" viewBox="0 0 50 50">
  <path d="M3.84375 4C3.375 4 2.886719 4.175781 2.53125 4.53125C1.816406 5.246094 1.816406 6.410156 2.53125 7.125L15.875 20.46875C16.234375 20.824219 16.71875 21 17.1875 21C17.65625 21 18.113281 20.824219 18.46875 20.46875C19.183594 19.753906 19.183594 18.589844 18.46875 17.875L5.125 4.53125C4.769531 4.175781 4.3125 4 3.84375 4 Z M 46.15625 4C45.6875 4 45.230469 4.175781 44.875 4.53125L31.53125 17.875C30.816406 18.589844 30.816406 19.753906 31.53125 20.46875C31.886719 20.824219 32.34375 21 32.8125 21C33.28125 21 33.765625 20.824219 34.125 20.46875L47.46875 7.125C48.183594 6.410156 48.183594 5.246094 47.46875 4.53125C47.113281 4.175781 46.625 4 46.15625 4 Z M 2 16C0.898438 16 0 16.898438 0 18L0 24C0 25.101563 0.898438 26 2 26L48 26C49.101563 26 50 25.101563 50 24L50 18C50 16.898438 49.101563 16 48 16L41.40625 16L35.53125 21.875C34.808594 22.597656 33.832031 23 32.8125 23C31.792969 23 30.851563 22.601563 30.125 21.875C28.636719 20.382813 28.632813 17.960938 30.125 16.46875L30.59375 16L19.40625 16L19.875 16.46875C21.363281 17.960938 21.363281 20.382813 19.875 21.875C19.152344 22.597656 18.210938 23 17.1875 23C16.167969 23 15.195313 22.597656 14.46875 21.875L8.59375 16 Z M 2.78125 27L7.8125 44.53125C8.054688 45.375 8.984375 46 10 46L40 46C41.015625 46 41.941406 45.375 42.1875 44.53125L47.21875 27 Z M 17.625 28.53125C18.640625 28.53125 19.46875 29.359375 19.46875 30.375L19.46875 39.46875C19.46875 40.484375 18.640625 41.3125 17.625 41.3125C16.609375 41.3125 15.78125 40.484375 15.78125 39.46875L15.78125 30.375C15.78125 29.359375 16.609375 28.53125 17.625 28.53125 Z M 25 28.53125C26.019531 28.53125 26.84375 29.359375 26.84375 30.375L26.84375 39.46875C26.84375 40.484375 26.019531 41.3125 25 41.3125C23.984375 41.3125 23.15625 40.484375 23.15625 39.46875L23.15625 30.375C23.15625 29.359375 23.984375 28.53125 25 28.53125 Z M 32.375 28.53125C33.394531 28.53125 34.21875 29.359375 34.21875 30.375L34.21875 39.46875C34.21875 40.484375 33.394531 41.3125 32.375 41.3125C31.359375 41.3125 30.53125 40.484375 30.53125 39.46875L30.53125 30.375C30.53125 29.359375 31.359375 28.53125 32.375 28.53125Z" fill="#4F51C0" />
</svg>