<svg xmlns="http://www.w3.org/2000/svg" fill-rule="evenodd" stroke-linejoin="round" stroke-miterlimit="2" clip-rule="evenodd" viewBox="0 0 500 500" fill="#fff"><path fill="#fff" d="M47.51,113.175L47.502,113.18L47.436,113.217L47.334,113.273L47.322,113.281L47.299,113.294L47.143,113.386L47.136,113.391C46.373,113.853 45.665,114.43 45.037,115.121L45.027,115.132C44.983,115.18 44.94,115.229 44.897,115.278L44.88,115.298L44.863,115.318C44.83,115.355 44.798,115.394 44.766,115.432L44.754,115.446L44.733,115.472L44.706,115.505C44.673,115.545 44.642,115.584 44.61,115.624L44.589,115.65L44.556,115.693L44.536,115.719L44.487,115.784L44.45,115.831L44.415,115.879L44.39,115.913L44.353,115.965L44.316,116.015L44.281,116.065L44.25,116.11L44.219,116.155L44.186,116.203L44.155,116.25L44.115,116.309L44.089,116.35L44.06,116.394L44.036,116.432L43.986,116.511L43.965,116.547L43.939,116.589L43.822,116.786L43.806,116.815L43.71,116.987L43.692,117.021L43.689,117.026L43.678,117.046L43.602,117.19L43.583,117.23L43.58,117.235L43.571,117.253L43.5,117.396L43.478,117.443L43.402,117.605L43.377,117.663C42.854,118.84 42.563,120.143 42.563,121.515L42.563,378.485C42.563,380.191 43.013,381.793 43.801,383.176C44.316,384.086 44.993,384.926 45.825,385.65L45.846,385.669L45.858,385.679C45.89,385.706 45.922,385.734 45.955,385.761L45.988,385.788L46.02,385.816L46.044,385.835C46.083,385.867 46.123,385.899 46.163,385.931L46.198,385.959L46.23,385.984C46.269,386.014 46.308,386.044 46.347,386.073L46.379,386.098L46.417,386.125C46.456,386.155 46.496,386.184 46.536,386.212L46.564,386.233L46.604,386.261L46.631,386.279L46.725,386.344L46.752,386.363L46.793,386.39L46.83,386.415L46.909,386.466L46.943,386.489L46.983,386.514L47.031,386.544L47.1,386.587C48.545,387.474 50.244,387.985 52.063,387.985L447.937,387.985C449.756,387.985 451.455,387.474 452.9,386.587L452.969,386.544L453.017,386.514L453.057,386.489L453.091,386.466L453.17,386.415L453.207,386.39L453.248,386.363L453.275,386.344L453.369,386.279L453.396,386.261L453.436,386.233L453.464,386.212C453.504,386.184 453.544,386.155 453.583,386.125L453.621,386.098L453.653,386.073C453.692,386.044 453.731,386.014 453.77,385.984L453.802,385.959L453.837,385.931C453.877,385.9 453.917,385.867 453.956,385.835L453.98,385.816L454.012,385.788L454.045,385.761C454.078,385.734 454.11,385.706 454.142,385.679L454.154,385.669L454.175,385.65C455.007,384.926 455.683,384.087 456.199,383.176C456.987,381.793 457.437,380.191 457.437,378.485L457.437,121.515C457.437,120.143 457.146,118.84 456.623,117.663L456.598,117.605L456.529,117.458L456.5,117.396L456.429,117.253L456.42,117.235L456.417,117.23L456.398,117.19L456.322,117.046L456.311,117.026L456.308,117.021L456.29,116.987L456.205,116.835L456.178,116.786L456.061,116.589L456.035,116.547L456.014,116.511L455.964,116.432L455.94,116.394L455.911,116.35L455.885,116.309L455.845,116.25L455.814,116.203L455.781,116.155L455.75,116.11L455.719,116.065L455.684,116.015L455.647,115.965L455.61,115.913L455.585,115.879L455.55,115.831L455.513,115.784L455.464,115.719L455.444,115.693L455.411,115.65L455.39,115.624C455.359,115.585 455.327,115.545 455.294,115.505L455.267,115.472L455.246,115.446L455.234,115.432C455.202,115.394 455.17,115.355 455.137,115.318L455.12,115.298L455.103,115.278C455.06,115.229 455.017,115.18 454.973,115.132L454.963,115.121C454.336,114.43 453.627,113.853 452.864,113.391L452.701,113.294L452.678,113.281L452.666,113.273L452.564,113.217L452.498,113.18L452.49,113.175C451.139,112.435 449.587,112.015 447.937,112.015L52.063,112.015C50.413,112.015 48.861,112.435 47.51,113.175ZM438.437,141.801L303.477,254.294C272.5,280.114 227.5,280.114 196.523,254.294L61.563,141.801L61.563,352.394L152.653,243.892C156.025,239.876 162.022,239.353 166.038,242.724C170.053,246.095 170.576,252.093 167.205,256.108L72.443,368.985L427.557,368.985L332.795,256.108C329.424,252.093 329.947,246.095 333.962,242.724C337.978,239.353 343.975,239.876 347.347,243.892L438.437,352.394L438.437,141.801ZM78.298,131.015L208.688,239.7C232.618,259.646 267.382,259.646 291.312,239.7L421.702,131.015L78.298,131.015Z"/></svg>