<svg id="Слой_1" data-name="Слой 1" xmlns="http://www.w3.org/2000/svg" viewBox="0 0 661.33 156.39"><defs><style>.cls-1,.cls-2{fill:#fff;}.cls-2{font-size:27.84px;font-family:Bauhaus93, "Bauhaus 93";}</style></defs><path class="cls-1" d="M387,467.83h11v21.91c0,1.71.27,2.85.82,3.41s1.64.86,3.26.86h.57V504.7h-2.92q-6,0-9.35-3.5T387,491.49Z" transform="translate(-169.72 -422.67)"/><path class="cls-1" d="M423.74,466.91a18.16,18.16,0,0,1,13.44,5.7,19.37,19.37,0,1,1-33.13,13.64,18.52,18.52,0,0,1,5.72-13.72A19.13,19.13,0,0,1,423.74,466.91Zm-.32,10.86a7.65,7.65,0,0,0-5.75,2.49,8.73,8.73,0,0,0,0,12,7.93,7.93,0,0,0,11.51,0,8.83,8.83,0,0,0,0-12A7.68,7.68,0,0,0,423.42,477.77Z" transform="translate(-169.72 -422.67)"/><path class="cls-1" d="M447.19,504.7V478.12a11.22,11.22,0,0,1,3-8.08,10.28,10.28,0,0,1,7.78-3.13,9.62,9.62,0,0,1,8.73,5.21,12.17,12.17,0,0,1,4-4,10.64,10.64,0,0,1,5.27-1.2q5,0,7.62,3.13c1.76,2.09,2.65,5.1,2.65,9V504.7h-11v-24a6.32,6.32,0,0,0-.29-2.37,1.13,1.13,0,0,0-1.14-.58q-1.62,0-1.62,2.76V504.7h-11v-24a6,6,0,0,0-.3-2.35,1.17,1.17,0,0,0-1.16-.6c-1.08,0-1.62,1-1.62,3v24Z" transform="translate(-169.72 -422.67)"/><path class="cls-1" d="M506.24,486.2v9.72h-3.16v8.78h-11V481.26q0-6.81,3.72-10.58c2.47-2.51,6-3.77,10.44-3.77q6.48,0,9.59,3.42T519,480.88V504.7H508V481.61a6.24,6.24,0,0,0-.51-3,2,2,0,0,0-1.84-.84q-2.56,0-2.57,3.84v4.59Z" transform="translate(-169.72 -422.67)"/><path class="cls-1" d="M551.6,467.83l-10.43,16.4V504.7h-11V484.23l-10.51-16.4h11.13l4.76,7.59,5.1-7.59Zm-5.32-10.43-7.54,7.38H532l6.73-7.38Z" transform="translate(-169.72 -422.67)"/><path class="cls-1" d="M584.58,467.67v10.51a6.2,6.2,0,0,0-1.84-.41,2.86,2.86,0,0,0-2.13.92,3,3,0,0,0-.89,2.21,6,6,0,0,0,1,2.81l.84,1.46a15.31,15.31,0,0,1,2.27,7.62,12.22,12.22,0,0,1-3.83,9.1,12.82,12.82,0,0,1-9.33,3.73,12.12,12.12,0,0,1-5.24-1.22V493.74a5.4,5.4,0,0,0,2.78,1,3.52,3.52,0,0,0,2.39-.82,2.62,2.62,0,0,0,1-2.07,10.36,10.36,0,0,0-1.54-3.53,17.38,17.38,0,0,1-2.45-8.65,12.33,12.33,0,0,1,3.71-9,12,12,0,0,1,8.87-3.77A13.4,13.4,0,0,1,584.58,467.67Z" transform="translate(-169.72 -422.67)"/><path class="cls-1" d="M607.62,466.91a18.19,18.19,0,0,1,13.44,5.7,19.37,19.37,0,1,1-33.13,13.64,18.51,18.51,0,0,1,5.71-13.72A19.17,19.17,0,0,1,607.62,466.91ZM601,455.84a4.83,4.83,0,1,1-3.44,1.41A4.69,4.69,0,0,1,601,455.84Zm6.35,21.93a7.69,7.69,0,0,0-5.76,2.49,8.74,8.74,0,0,0,0,12,7.93,7.93,0,0,0,11.51,0,8.83,8.83,0,0,0,0-12A7.68,7.68,0,0,0,607.3,477.77Zm6.35-21.93a4.85,4.85,0,0,1,0,9.69,4.85,4.85,0,1,1,0-9.69Z" transform="translate(-169.72 -422.67)"/><path class="cls-1" d="M670.1,467.83v26.55a11.24,11.24,0,0,1-3,8.11,10.22,10.22,0,0,1-7.75,3.13,9.59,9.59,0,0,1-8.75-5.21,12.19,12.19,0,0,1-4,4,10.61,10.61,0,0,1-5.27,1.2q-5,0-7.61-3.13t-2.65-9V467.83h11v24a6.22,6.22,0,0,0,.28,2.35,1.15,1.15,0,0,0,1.15.56c1.08,0,1.62-.9,1.62-2.72V467.83h11v24a6,6,0,0,0,.29,2.32,1.17,1.17,0,0,0,1.16.59c1.09,0,1.63-1,1.63-2.91v-24Z" transform="translate(-169.72 -422.67)"/><path class="cls-1" d="M687.72,478.42V504.7h-11V467.83H691q9.4,0,14.72,4.27,6.32,5.1,6.32,13.86a18.29,18.29,0,0,1-5.4,13.66q-5.4,5.29-13.91,5.3c-.67,0-1.76,0-3.27-.11V494h1.75q9.6,0,9.59-8,0-7.54-9.42-7.54Z" transform="translate(-169.72 -422.67)"/><path class="cls-1" d="M730.61,486.2v9.72h-3.16v8.78h-11V481.26q0-6.81,3.72-10.58c2.47-2.51,6-3.77,10.44-3.77q6.48,0,9.59,3.42t3.11,10.55V504.7h-11V481.61a6.09,6.09,0,0,0-.52-3,2,2,0,0,0-1.83-.84q-2.57,0-2.57,3.84v4.59Z" transform="translate(-169.72 -422.67)"/><text class="cls-2" transform="translate(234.53 116.25)">ÖNDÜRIJIDEN - SARP EDIJÄ</text><line class="cls-1" y1="156.39" x2="661.33" y2="156.39"/><path class="cls-1" d="M271.51,457.85H243.86v-8.34h-8.34v8.34H210.09v48.77H197.38a8.55,8.55,0,0,0-8.55,8.55v31.08a25.79,25.79,0,0,1,17.79-7.1,24.76,24.76,0,0,1,3.47.24A25.85,25.85,0,0,1,232.48,565a23,23,0,0,1-.18,2.9H251a38.34,38.34,0,0,1,37.57-36.59Zm-24.18,62.94v-5.62a8.54,8.54,0,0,0-8.54-8.55H220.1V467.44h40.29l14.18,53.35Z" transform="translate(-169.72 -422.67)"/><rect class="cls-1" x="293.57" y="431.16" width="11.58" height="126.36" rx="5.79" transform="translate(-276.65 -339.33) rotate(-13.47)"/><rect class="cls-1" x="306.26" y="538.59" width="61.13" height="11.58" rx="5.79" transform="translate(-287.28 -329.22) rotate(-13.47)"/><path class="cls-1" d="M336.61,452.14,334.9,445a13,13,0,0,0-15.64-9.6l-2.1.51a13,13,0,0,0-9.61,15.65l5.17,21.56a4.62,4.62,0,0,0,5.59,3.42L345.66,470a4.65,4.65,0,0,1,5.59,3.43l10.31,43A13,13,0,0,1,352,532.1l-20.13,4.83a13,13,0,0,1-15.66-9.61L312,510a4.64,4.64,0,0,1,3.43-5.59h0a4.64,4.64,0,0,1,5.59,3.43l1.71,7.14a13,13,0,0,0,15.65,9.6l2.1-.5a13,13,0,0,0,9.6-15.65l-5.16-21.57a4.65,4.65,0,0,0-5.59-3.43L312,490a4.65,4.65,0,0,1-5.59-3.43l-10.3-43a13,13,0,0,1,9.6-15.65L325.83,423a13,13,0,0,1,15.64,9.59L345.63,450a4.64,4.64,0,0,1-3.43,5.59h0A4.65,4.65,0,0,1,336.61,452.14Z" transform="translate(-169.72 -422.67)"/><path class="cls-1" d="M279.94,579.05a20.46,20.46,0,1,1,20.46-20.46A20.49,20.49,0,0,1,279.94,579.05Zm0-32.7a12.24,12.24,0,1,0,12.24,12.24A12.25,12.25,0,0,0,279.94,546.35Z" transform="translate(-169.72 -422.67)"/><path class="cls-1" d="M206.7,579.05a17.52,17.52,0,1,1,17.51-17.51A17.54,17.54,0,0,1,206.7,579.05Zm0-26.8a9.29,9.29,0,1,0,9.29,9.29A9.29,9.29,0,0,0,206.7,552.25Z" transform="translate(-169.72 -422.67)"/></svg>