<svg xmlns="http://www.w3.org/2000/svg" viewBox="0 0 24 24" fill="#fff"><path d="M5.547 21.352c-1.163 0-1.944-.944-1.944-2.352V5c0-1.407.781-2.352 1.944-2.352.45 0 .922.141 1.404.419l12.124 7c.853.492 1.321 1.179 1.321 1.933s-.469 1.441-1.321 1.934l-12.124 7c-.482.277-.954.418-1.404.418zm0-17.704c-.876 0-.944 1.035-.944 1.352v14c0 .316.068 1.352.944 1.352.269 0 .581-.099.904-.285l12.124-7c.522-.301.821-.689.821-1.066s-.299-.766-.821-1.067l-12.124-7c-.323-.187-.636-.286-.904-.286z"/><path d="M16.229 15.5a.499.499 0 0 1-.39-.186l-9.184-11.3a.5.5 0 1 1 .777-.631l9.184 11.301a.502.502 0 0 1-.387.816z"/><path d="M7.043 20.802a.5.5 0 0 1-.388-.815l9.184-11.301a.501.501 0 0 1 .777.631l-9.184 11.3a.499.499 0 0 1-.389.185z"/></svg>