<?xml version="1.0" encoding="iso-8859-1"?>
<!-- Generator: Adobe Illustrator 19.0.0, SVG Export Plug-In . SVG Version: 6.00 Build 0)  -->
<svg version="1.1" id="Capa_1" xmlns="http://www.w3.org/2000/svg" xmlns:xlink="http://www.w3.org/1999/xlink" x="0px" y="0px"
	 viewBox="0 0 512.015 512.015" style="enable-background:new 0 0 512.015 512.015;" xml:space="preserve">
<g transform="translate(0 -1)">
	<g transform="translate(0 2)">
		<path style="fill:#A2C0F5;" d="M225.715,336.982l-49.101-49.101l12.482-12.482c6.665-6.665,17.471-6.665,24.136,0l24.965,24.965
			c6.665,6.665,6.665,17.471,0,24.136L225.715,336.982L225.715,336.982z"/>
		<g>
			
				<rect x="198.944" y="292.882" transform="matrix(-0.7071 0.7071 -0.7071 -0.7071 582.5262 361.8481)" style="fill:#D3DFF2;" width="34.756" height="17.374"/>
			<path style="fill:#D3DFF2;" d="M433.267,93.132c-0.005,1.512-0.265,3.012-0.768,4.437l-11.179,33.536
				c-0.932,2.841-3.278,4.99-6.189,5.67c-2.911,0.68-5.967-0.208-8.06-2.342l-8.448-8.448h-0.085l-12.032-12.032v-0.085
				l-8.533-8.448c-2.103-2.134-2.958-5.199-2.264-8.113s2.839-5.265,5.678-6.223l33.45-11.179c1.974-0.677,4.085-0.852,6.144-0.512
				h0.085c3.072,0.342,5.934,1.727,8.107,3.925c2.183,2.184,3.566,5.04,3.926,8.107C433.242,91.982,433.299,92.557,433.267,93.132
				L433.267,93.132z"/>
			<path style="fill:#D3DFF2;" d="M503.467,185.472c-0.022,1.847-0.398,3.672-1.109,5.376c-0.773,1.942-2.002,3.668-3.583,5.035
				L472.32,219.35c-2.231,1.988-5.337,2.67-8.196,1.798c-2.858-0.872-5.056-3.17-5.798-6.065l-3.158-11.606l-4.352-16.469
				l-3.156-11.605c-0.791-2.89-0.019-5.983,2.038-8.162c2.057-2.179,5.1-3.128,8.031-2.505l34.56,7.083
				c2.023,0.409,3.923,1.285,5.546,2.56c0.085-0.085,0.085,0,0.085,0c2.485,1.857,4.261,4.506,5.035,7.509
				C503.293,183.053,503.465,184.26,503.467,185.472L503.467,185.472z"/>
			<path style="fill:#D3DFF2;" d="M339.021,66.849l-11.691-3.158l-16.469-4.352l-11.605-3.157c-2.885-0.787-5.159-3.009-6.01-5.876
				c-0.851-2.867-0.16-5.97,1.829-8.204l23.381-26.368c1.359-1.589,3.088-2.82,5.035-3.584c1.716-0.778,3.577-1.185,5.461-1.195
				c1.213,0.003,2.419,0.175,3.584,0.512c2.984,0.766,5.609,2.546,7.424,5.035c1.319,1.671,2.225,3.63,2.645,5.717l7.083,34.56
				c0.578,2.922-0.386,5.936-2.552,7.981C344.97,66.805,341.905,67.594,339.021,66.849L339.021,66.849z"/>
		</g>
		<path style="fill:#A2C0F5;" d="M229.952,357.985c-3.195,3.181-7.523,4.962-12.032,4.949c-0.944,0-1.887-0.086-2.816-0.256
			c-18.943-4.159-38.726,1.121-53.077,14.165c-24.575,24.576-30.72,55.211-43.008,67.499l-24.576,24.576l-24.491,24.576
			c-1.18,1.169-2.465,2.225-3.84,3.157c-10.352,6.961-24.179,5.639-33.024-3.157l-14.165-14.165
			c10.19,10.155,26.674,10.155,36.864,0l10.325-10.325l28.331-28.416l10.411-10.411c12.288-12.288,18.517-42.837,43.008-67.413
			c14.358-13.096,34.179-18.409,53.163-14.251c0.928,0.178,1.871,0.263,2.816,0.256c4.48-0.004,8.776-1.784,11.947-4.949
			c3.154-3.124,4.928-7.379,4.928-11.819s-1.774-8.694-4.928-11.819l14.165,14.165C236.437,340.892,236.437,351.44,229.952,357.985z
			"/>
		<path style="fill:#D3DFF2;" d="M215.787,343.82c-3.171,3.165-7.467,4.944-11.947,4.949c-0.945,0.007-1.888-0.078-2.816-0.256
			c-18.983-4.158-38.804,1.155-53.163,14.251c-24.491,24.576-30.72,55.125-43.008,67.413l-49.067,49.152
			c-10.19,10.155-26.674,10.155-36.864,0l-4.267-4.267c-10.126-10.202-10.126-26.662,0-36.864l49.152-49.067
			c12.288-12.288,42.923-18.432,67.499-43.008c13.045-14.351,18.325-34.135,14.165-53.077c-0.907-5.416,0.839-10.938,4.693-14.848
			c4.889-4.819,12.207-6.202,18.517-3.499c1.923,0.813,3.664,2.003,5.12,3.499l4.693,4.693l9.301,9.301l9.131,9.216l18.859,18.773
			c3.154,3.124,4.928,7.38,4.928,11.819S218.941,340.695,215.787,343.82z"/>
		<path style="fill:#FFFFFF;" d="M148.459,275.553c-3.181,3.195-4.962,7.523-4.949,12.032c0,0.944,0.086,1.887,0.256,2.816
			c4.159,18.943-1.121,38.726-14.165,53.077c-24.576,24.576-55.211,30.72-67.499,43.008l-49.152,49.067
			c-10.155,10.19-10.155,26.674,0,36.864l14.165,14.165c-10.155-10.19-10.155-26.674,0-36.864l49.152-49.067
			c12.288-12.288,42.837-18.517,67.413-43.008c13.096-14.358,18.409-34.179,14.251-53.163c-0.178-0.928-0.263-1.871-0.256-2.816
			c0.005-4.48,1.784-8.776,4.949-11.947c3.124-3.154,7.379-4.928,11.819-4.928c4.439,0,8.694,1.774,11.819,4.928l-14.165-14.165
			C165.551,269.068,155.003,269.068,148.459,275.553z"/>
		<path style="fill:#A2C0F5;" d="M94.443,371.468v69.12l-28.331,28.416v-82.005C75.069,380.98,84.551,375.782,94.443,371.468
			L94.443,371.468z"/>
		<polygon style="fill:#7FAAF8;" points="94.438,440.583 94.438,466.96 66.108,495.367 66.108,468.999 		"/>
		<path style="fill:#FFFFFF;" d="M94.443,371.468v17.664c-6.597,2.917-12.722,6.8-18.176,11.52l-10.155,10.155v-23.808
			C75.069,380.98,84.551,375.782,94.443,371.468L94.443,371.468z"/>
	</g>
	<g>
		<path style="fill:#438CFF;" d="M138.591,340.131c3.118,1.48,6.82,0.937,9.381-1.378c2.561-2.314,3.475-5.943,2.317-9.194
			c-1.158-3.251-4.161-5.485-7.608-5.659c-3.447-0.174-6.66,1.745-8.14,4.863C132.521,333.02,134.333,338.109,138.591,340.131z"/>
		<path style="fill:#438CFF;" d="M511.233,181.726c-2.177-8.249-8.859-14.541-17.225-16.217l-34.575-7.079
			c-5.828-1.193-11.858,0.716-15.937,5.045s-5.626,10.462-4.088,16.209l3.117,11.63l-144.422,38.702l96.366-96.366l8.505,8.504
			c3.196,3.22,7.546,5.032,12.083,5.033c1.347-0.001,2.689-0.158,4-0.467c5.795-1.349,10.467-5.622,12.325-11.275l11.167-33.483
			c2.696-8.085,0.592-16.999-5.434-23.026c-6.026-6.027-14.94-8.132-23.025-5.437l-33.483,11.163
			c-5.643,1.881-9.91,6.551-11.277,12.34c-1.367,5.79,0.362,11.874,4.568,16.08l8.502,8.501l-96.369,96.366l38.703-144.425
			l11.63,3.117c1.462,0.394,2.969,0.595,4.483,0.596c5.148-0.018,10.016-2.344,13.266-6.336c3.249-3.993,4.537-9.232,3.509-14.276
			l-7.075-34.596c-1.713-8.346-7.994-15.009-16.224-17.21c-8.231-2.202-16.999,0.435-22.651,6.81l-23.417,26.404
			c-3.95,4.45-5.312,10.628-3.601,16.326c1.712,5.698,6.253,10.103,12.001,11.64l11.596,3.107L261.9,242.086l-32.2,32.199
			l-6.308-6.308c-10.002-9.983-26.198-9.983-36.2,0l-6.304,6.304l-0.521-0.521c-9.989-9.545-25.728-9.517-35.683,0.062
			c-5.657,5.732-8.247,13.814-6.975,21.767c0.058,0.483,0.142,0.967,0.233,1.463l0.092,0.558c0.311,3.046,2.23,5.692,5.028,6.934
			c2.799,1.242,6.048,0.889,8.515-0.924s3.773-4.809,3.423-7.851c-0.067-0.629-0.167-1.225-0.275-1.8l-8.392,1.542l8.25-2.425
			c-0.478-2.639,0.355-5.345,2.233-7.258c3.22-3.05,8.263-3.05,11.483,0l6.534,6.535l0.016,0.023l48.817,48.821l0.025,0.017
			l0.417,0.417c3.126,3.145,3.159,8.214,0.075,11.4c-1.849,2.075-4.691,2.961-7.392,2.304c-21.584-4.568-44.043,1.6-60.267,16.55
			c-12.774,13.638-23.108,29.372-30.55,46.512c-3.052,7.386-7.128,14.305-12.109,20.554l-9.883,9.867v-71.122
			c6.753-3.505,13.252-7.478,19.45-11.891c2.472-1.783,3.805-4.75,3.496-7.782c-0.309-3.032-2.211-5.67-4.992-6.919
			s-6.016-0.92-8.488,0.864c-9.312,6.41-19.16,12.006-29.433,16.725c-9.124,3.785-17.597,8.98-25.108,15.396l-48.817,48.808
			C3.631,439.357,0,448.113,0,457.243c0,9.13,3.631,17.886,10.092,24.338l18.267,18.263c6.445,6.492,15.219,10.135,24.367,10.117
			h0.067c9.106,0.01,17.835-3.633,24.233-10.113l48.9-48.813c6.419-7.517,11.611-16.001,15.383-25.138
			c6.631-15.443,15.865-29.633,27.3-41.95c12.32-10.953,29.143-15.337,45.242-11.792c8.131,1.43,16.45-1.167,22.325-6.967
			c7.706-7.64,9.575-19.391,4.62-29.045l7.28-7.28c9.984-10.003,9.984-26.201,0-36.204l-6.308-6.308l32.201-32.2l172.972-46.352
			l3.11,11.607c1.536,5.749,5.942,10.291,11.641,12.001c5.699,1.71,11.878,0.344,16.325-3.609l26.408-23.421
			C510.827,198.742,513.468,189.957,511.233,181.726z M415.042,130.089l-8.475-8.534l17.148-17.148L415.042,130.089z
			 M386.008,100.856l25.689-8.564l-17.155,17.156L386.008,100.856z M329.165,57.004l6.288-23.463l5.331,26.619L329.165,57.004z
			 M301.025,49.36l17.944-20.236l-6.274,23.406L301.025,49.36z M52.758,492.893h-0.033c-4.619,0.006-9.048-1.837-12.3-5.117
			l-18.267-18.263c-3.26-3.252-5.092-7.667-5.092-12.271c0-4.604,1.832-9.019,5.092-12.271l36.567-36.56v83.355
			C56.819,492.494,54.798,492.876,52.758,492.893z M75.792,476.97v-84.503c3.591-2.257,7.305-4.313,11.125-6.156v79.553
			L75.792,476.97z M229.706,323.1l-18.444-18.444l12.335-12.339l12.41,12.41c3.325,3.337,3.325,8.734,0,12.071L229.706,323.1z
			 M199.258,280.043c3.335-3.325,8.732-3.325,12.067,0l0.206,0.207l-12.335,12.339l-6.242-6.241L199.258,280.043z M456.008,175.147
			l26.554,5.439l-23.456,6.286L456.008,175.147z M466.533,214.981l-3.068-11.61l23.395-6.269L466.533,214.981z"/>
	</g>
</g>
<g>
</g>
<g>
</g>
<g>
</g>
<g>
</g>
<g>
</g>
<g>
</g>
<g>
</g>
<g>
</g>
<g>
</g>
<g>
</g>
<g>
</g>
<g>
</g>
<g>
</g>
<g>
</g>
<g>
</g>
</svg>
