<?xml version="1.0" encoding="iso-8859-1"?>
<!-- Generator: Adobe Illustrator 19.0.0, SVG Export Plug-In . SVG Version: 6.00 Build 0)  -->
<svg version="1.1" id="Capa_1" xmlns="http://www.w3.org/2000/svg" xmlns:xlink="http://www.w3.org/1999/xlink" x="0px" y="0px"
	 viewBox="0 0 511.993 511.993" style="enable-background:new 0 0 511.993 511.993;" xml:space="preserve">
<g>
	<g transform="translate(0 1)">
		<g>
			<path style="fill:#A2C0F5;" d="M217.173,212.426c0,0,0,0.597-0.085,1.706l-1.023-1.024c-2.169-2.239-4.061-4.732-5.633-7.424
				L217.173,212.426z"/>
			<path style="fill:#A2C0F5;" d="M503.296,129.909l-12.629,25.003c-1.23,2.433-2.844,4.651-4.779,6.571L349.44,297.93
				c-6.424,6.433-15.143,10.048-24.234,10.048c-9.092,0-17.81-3.615-24.234-10.048l-17.921-17.92l-0.256-0.256
				c-15.899,0.712-31,7.17-42.497,18.176l-5.375,3.584l-24.406-22.699l1.622-1.451l5.717,5.291l5.375-3.584
				c11.497-11.006,26.598-17.464,42.497-18.176l13.909,17.664c6.424,6.433,15.143,10.048,24.234,10.048
				c9.092,0,17.81-3.615,24.234-10.048l136.448-136.448c1.935-1.92,3.549-4.138,4.779-6.571l8.533-7.936l15.36-7.765
				c2.805-0.555,5.701,0.325,7.723,2.347C502.971,124.208,503.851,127.104,503.296,129.909z"/>
		</g>
		
			<linearGradient id="SVGID_1_" gradientUnits="userSpaceOnUse" x1="-48.8197" y1="651.0076" x2="-47.8197" y2="651.0076" gradientTransform="matrix(271.8519 0 0 -278.0192 13477.7324 181142.2031)">
			<stop  offset="0" style="stop-color:#DAE5F4"/>
			<stop  offset="0.1717" style="stop-color:#DAE5F4"/>
			<stop  offset="0.2" style="stop-color:#DAE5F4"/>
			<stop  offset="0.2006" style="stop-color:#EBECF4"/>
			<stop  offset="0.2013" style="stop-color:#F6F1F4"/>
			<stop  offset="0.2022" style="stop-color:#FDF4F4"/>
			<stop  offset="0.205" style="stop-color:#FFF5F4"/>
			<stop  offset="0.2522" style="stop-color:#FFF5F4"/>
			<stop  offset="0.26" style="stop-color:#FFF5F4"/>
			<stop  offset="0.26" style="stop-color:#DAE5F4"/>
			<stop  offset="0.3974" style="stop-color:#DAE5F4"/>
			<stop  offset="0.42" style="stop-color:#DAE5F4"/>
			<stop  offset="0.4206" style="stop-color:#EBECF4"/>
			<stop  offset="0.4212" style="stop-color:#F6F1F4"/>
			<stop  offset="0.4222" style="stop-color:#FDF4F4"/>
			<stop  offset="0.425" style="stop-color:#FFF5F4"/>
			<stop  offset="0.4894" style="stop-color:#FFF5F4"/>
			<stop  offset="0.5" style="stop-color:#FFF5F4"/>
			<stop  offset="0.5001" style="stop-color:#EEEEF4"/>
			<stop  offset="0.5002" style="stop-color:#E3E9F4"/>
			<stop  offset="0.5004" style="stop-color:#DCE6F4"/>
			<stop  offset="0.501" style="stop-color:#DAE5F4"/>
			<stop  offset="0.7062" style="stop-color:#DAE5F4"/>
			<stop  offset="0.74" style="stop-color:#DAE5F4"/>
			<stop  offset="0.741" style="stop-color:#FFF5F4"/>
			<stop  offset="0.8346" style="stop-color:#FFF5F4"/>
			<stop  offset="0.85" style="stop-color:#FFF5F4"/>
			<stop  offset="0.851" style="stop-color:#DAE5F4"/>
		</linearGradient>
		<path style="fill:url(#SVGID_1_);" d="M477.867,127.605l-6.571,7.936c-1.23,2.432-2.844,4.651-4.779,6.571L330.069,278.56
			c-6.424,6.433-15.143,10.048-24.234,10.048s-17.81-3.615-24.234-10.048l-15.872-17.664c-15.899,0.712-31,7.17-42.497,18.176
			l-5.375,3.584l-5.717-5.291l3.926-3.669c10.997-11.467,17.456-26.538,18.175-42.411l-17.152-17.152
			c0.085-1.109,0.085-1.706,0.085-1.706l-6.741-6.741c-7.556-13.394-5.251-30.182,5.633-41.045L352.599,28.107
			c1.932-1.921,4.148-3.533,6.571-4.779l9.641-4.864l15.275-7.68c2.815-0.615,5.749,0.245,7.787,2.283
			c2.037,2.037,2.897,4.972,2.282,7.787L381.611,45.77c-1.246,2.423-2.858,4.639-4.779,6.571l-51.626,51.627l-24.235,24.235v0.085
			l-54.613,54.528c-3.285,3.371-3.285,8.746,0,12.117l18.176,18.176c3.353,3.328,8.763,3.328,12.117,0l78.848-78.763l24.235-24.32
			l27.392-27.392c1.944-1.883,4.159-3.465,6.571-4.693l9.643-4.864l15.359-7.765c2.805-0.555,5.701,0.325,7.723,2.347
			c2.022,2.021,2.902,4.918,2.348,7.723l-12.63,24.917c-1.207,2.472-2.822,4.722-4.778,6.656l-51.627,51.627l-24.235,24.235
			l-54.527,54.528c-2.144,2.071-3.022,5.128-2.304,8.021c0.355,1.56,1.155,2.983,2.304,4.096l18.176,18.176
			c3.354,3.328,8.764,3.328,12.118,0l130.389-130.389c1.92-1.935,4.138-3.549,6.571-4.779L477.867,127.605z"/>
		<path style="fill:#A2C0F5;" d="M225.715,333.567l-49.101-49.101l12.482-12.482c6.665-6.665,17.471-6.665,24.136,0l24.965,24.965
			c6.665,6.665,6.665,17.471,0,24.136L225.715,333.567L225.715,333.567z"/>
		<path style="fill:#D3DFF2;" d="M282.795,279.754c-15.899,0.712-31,7.17-42.497,18.176l-1.108,0.683l-24.064-23.979l0.94-0.939
			c10.997-11.467,17.456-26.538,18.175-42.411L282.795,279.754z"/>
		<path style="fill:#A2C0F5;" d="M231.424,359.37c-3.195,3.181-7.523,4.962-12.032,4.949c-0.944,0-1.887-0.086-2.816-0.256
			c-18.943-4.159-38.726,1.121-53.077,14.165c-24.575,24.576-30.72,55.211-43.008,67.499l-24.576,24.576L71.424,494.88
			c-1.18,1.169-2.465,2.225-3.84,3.157c-10.352,6.961-24.179,5.639-33.024-3.157l-14.165-14.165
			c10.19,10.155,26.674,10.155,36.864,0l10.325-10.325l28.331-28.416l10.411-10.411c12.288-12.288,18.517-42.837,43.008-67.413
			c14.358-13.096,34.179-18.409,53.163-14.251c0.928,0.178,1.871,0.263,2.816,0.256c4.48-0.005,8.776-1.784,11.947-4.949
			c3.154-3.124,4.928-7.379,4.928-11.819c0-4.439-1.774-8.694-4.928-11.819l14.165,14.165
			C237.909,342.278,237.909,352.826,231.424,359.37L231.424,359.37z"/>
		<path style="fill:#D3DFF2;" d="M217.259,345.205c-3.171,3.165-7.467,4.944-11.947,4.949c-0.945,0.007-1.888-0.078-2.816-0.256
			c-18.983-4.158-38.804,1.155-53.163,14.251c-24.491,24.576-30.72,55.125-43.008,67.413l-49.067,49.152
			c-10.19,10.155-26.674,10.155-36.864,0l-4.267-4.267c-10.126-10.202-10.126-26.662,0-36.864l49.152-49.067
			c12.288-12.288,42.923-18.432,67.499-43.008c13.045-14.351,18.325-34.135,14.165-53.077c-0.907-5.416,0.839-10.937,4.693-14.848
			c4.889-4.819,12.207-6.202,18.517-3.499c1.923,0.813,3.664,2.003,5.12,3.499l4.693,4.693l9.301,9.301l9.131,9.216l18.859,18.773
			c3.154,3.124,4.928,7.379,4.928,11.819S220.412,342.08,217.259,345.205L217.259,345.205z"/>
		<path style="fill:#FFFFFF;" d="M149.931,276.938c-3.181,3.195-4.962,7.523-4.949,12.032c0,0.944,0.086,1.887,0.256,2.816
			c4.159,18.943-1.121,38.726-14.165,53.077c-24.576,24.576-55.211,30.72-67.499,43.008l-49.152,49.067
			c-10.155,10.19-10.155,26.674,0,36.864l14.165,14.165c-10.155-10.19-10.155-26.674,0-36.864l49.152-49.067
			c12.288-12.288,42.837-18.517,67.413-43.008c13.096-14.358,18.409-34.179,14.251-53.163c-0.178-0.928-0.263-1.871-0.256-2.816
			c0.005-4.48,1.784-8.776,4.949-11.947c3.124-3.154,7.379-4.928,11.819-4.928s8.694,1.774,11.819,4.928l-14.165-14.165
			C167.024,270.453,156.475,270.453,149.931,276.938L149.931,276.938z"/>
		<path style="fill:#A2C0F5;" d="M95.915,372.853v69.12l-28.331,28.416v-82.005C76.541,382.365,86.023,377.167,95.915,372.853
			L95.915,372.853z"/>
		<polygon style="fill:#7FAAF8;" points="95.915,441.973 95.915,468.341 67.584,496.757 67.584,470.389 		"/>
		<path style="fill:#FFFFFF;" d="M95.915,372.853v17.664c-6.597,2.917-12.722,6.8-18.176,11.52l-10.155,10.155v-23.808
			C76.541,382.365,86.023,377.167,95.915,372.853L95.915,372.853z"/>
	</g>
	<g>
		<path style="fill:#438CFF;" d="M145.975,341.921c1.589-3.064,1.177-6.783-1.045-9.424c-2.222-2.641-5.816-3.683-9.107-2.641
			c-3.29,1.042-5.629,3.964-5.925,7.403c-0.296,3.439,1.509,6.717,4.572,8.307C138.654,347.736,143.804,346.104,145.975,341.921z"/>
		<path style="fill:#438CFF;" d="M491.533,112.474l-27.125,13.363c-3.243,1.635-6.202,3.779-8.767,6.35L325.15,262.62
			l-18.183-18.242l130.425-130.421c2.573-2.569,4.72-5.533,6.358-8.779l12.608-24.95l0.75-2.175
			c1.125-5.608-0.629-11.407-4.673-15.453c-4.044-4.045-9.843-5.8-15.452-4.677l-27.125,13.362c-3.243,1.635-6.202,3.779-8.767,6.35
			L270.6,208.07l-18.183-18.242L382.842,59.408c2.577-2.566,4.723-5.531,6.358-8.779l12.617-24.95l0.75-2.188
			c1.117-5.606-0.64-11.4-4.683-15.441c-4.042-4.042-9.836-5.797-15.442-4.68l-27.133,13.367c-3.245,1.637-6.207,3.782-8.775,6.354
			L210.05,159.578c-16.7,16.732-16.7,43.826,0,60.558l15.422,15.423c-1.177,10.102-4.951,19.728-10.955,27.937
			c-9.689-4.422-21.104-2.38-28.658,5.128l-6.132,6.134l-0.543-0.543c-10.004-9.214-25.414-9.178-35.375,0.083
			c-5.794,5.817-8.399,14.088-6.983,22.175c0.46,2.432,0.733,4.897,0.817,7.371c0.122,4.713,4.041,8.434,8.754,8.312
			c4.713-0.122,8.434-4.041,8.313-8.754c-0.109-3.308-0.465-6.603-1.067-9.858c-0.469-2.574,0.332-5.215,2.15-7.096
			c3.215-2.949,8.14-2.987,11.4-0.087l6.458,6.457l0.033,0.051l48.483,48.488l0.075,0.05l0.333,0.334
			c3.142,3.151,3.142,8.249,0,11.4c-1.858,1.939-4.601,2.754-7.217,2.146c-21.441-4.55-43.757,1.586-59.858,16.458
			c-12.699,13.56-22.976,29.2-30.383,46.238c-3.032,7.333-7.08,14.203-12.025,20.408l-9.7,9.7v-70.368
			c4.319-2.282,8.781-4.81,13.275-7.707c2.592-1.639,4.106-4.543,3.964-7.607c-0.142-3.064-1.917-5.816-4.649-7.208
			c-2.733-1.393-6.002-1.212-8.565,0.474c-7.731,4.805-15.746,9.138-24,12.975c-9.057,3.738-17.473,8.871-24.942,15.212
			L9.958,432.383c-13.297,13.388-13.275,35.006,0.05,48.367l18.175,18.174c13.405,13.372,35.104,13.372,48.508,0l48.467-48.467
			c6.377-7.47,11.538-15.899,15.292-24.975c6.591-15.338,15.763-29.432,27.117-41.671c12.241-10.893,28.969-15.244,44.967-11.696
			c9.316,1.692,18.786-2.033,24.453-9.618c5.667-7.585,6.554-17.723,2.29-26.177l7.148-7.143c7.494-7.546,9.539-18.941,5.138-28.622
			c8.201-6.013,17.821-9.797,27.921-10.982l15.417,15.417c16.734,16.695,43.824,16.695,60.558,0l136.483-136.483
			c2.573-2.569,4.72-5.533,6.358-8.779l12.608-24.95l0.75-2.175c1.125-5.608-0.629-11.408-4.673-15.453
			C502.941,113.106,497.142,111.351,491.533,112.474z M40.25,486.858l-18.125-18.125c-6.725-6.709-6.747-17.597-0.05-24.333
			l36.25-36.25v82.664C52.044,493.118,44.995,491.575,40.25,486.858L40.25,486.858z M75.392,476.091v-83.84
			c3.531-2.202,7.181-4.207,10.933-6.007v78.915L75.392,476.091z M413.167,89.699c1.284-1.288,2.767-2.361,4.392-3.179
			l22.158-11.204l-11.208,22.175c-0.816,1.623-1.888,3.105-3.175,4.387l-37.067,37.067v-24.347L413.167,89.699z M358.608,35.153
			l0.009-0.004c1.284-1.288,2.767-2.361,4.391-3.179l22.167-11.208l-11.217,22.179c-0.816,1.624-1.888,3.107-3.175,4.392
			l-37.067,37.066V60.045L358.608,35.153z M234.342,305.041c3.332,3.333,3.335,8.734,0.009,12.071l-6.138,6.133l-18.236-18.236
			l12.165-12.168L234.342,305.041z M197.925,280.695c3.334-3.326,8.73-3.328,12.067-0.004l0.083,0.084l-12.165,12.168l-6.117-6.116
			L197.925,280.695z M240.747,287.309l-13.016-13.016c5.548-7.263,9.679-15.505,12.177-24.297l25.135,25.137
			C256.252,277.63,248.01,281.761,240.747,287.309L240.747,287.309z M343.392,292.924c-10.067,10.038-26.358,10.038-36.425,0
			l-18.177-18.179l-0.009-0.009l-66.663-66.667c-10.042-10.065-10.042-26.36,0-36.425l94.533-94.534v24.353l-76.309,76.306
			c-6.652,6.69-6.648,17.498,0.009,24.183l18.183,18.188c6.69,6.659,17.505,6.658,24.192-0.004l88.475-88.473v24.347l-76.308,76.308
			c-6.652,6.69-6.648,17.498,0.009,24.183l18.183,18.187c6.691,6.657,17.504,6.656,24.192-0.004l88.474-88.472v24.349
			L343.392,292.924z M483.058,152.041c-0.816,1.623-1.888,3.105-3.175,4.387l-37.067,37.068v-24.348l24.9-24.899
			c1.284-1.288,2.767-2.361,4.392-3.179l22.158-11.204L483.058,152.041z"/>
	</g>
</g>
<g>
</g>
<g>
</g>
<g>
</g>
<g>
</g>
<g>
</g>
<g>
</g>
<g>
</g>
<g>
</g>
<g>
</g>
<g>
</g>
<g>
</g>
<g>
</g>
<g>
</g>
<g>
</g>
<g>
</g>
</svg>
