<?xml version="1.0" encoding="iso-8859-1"?>
<!-- Generator: Adobe Illustrator 19.0.0, SVG Export Plug-In . SVG Version: 6.00 Build 0)  -->
<svg version="1.1" id="Capa_1" xmlns="http://www.w3.org/2000/svg" xmlns:xlink="http://www.w3.org/1999/xlink" x="0px" y="0px"
	 viewBox="0 0 512.003 512.003" style="enable-background:new 0 0 512.003 512.003;" xml:space="preserve">
<g>
	<g transform="translate(2 1)">
		<path style="fill:#A2C0F5;" d="M346.035,336.07l-18.443,147.712c-0.242,7.469-5.947,13.619-13.376,14.421H215.72
			c-7.43-0.802-13.135-6.952-13.376-14.421L183.902,336.07H346.035z"/>
		<path style="fill:#FFFFFF;" d="M303.368,336.07l-18.443,147.712c-0.242,7.469-5.947,13.619-13.376,14.421h-98.496
			c-7.43-0.802-13.135-6.952-13.376-14.421L141.235,336.07H303.368z"/>
		<path style="fill:#D3DFF2;" d="M320.435,336.07l-19.968,147.712c-0.578,7.745-6.758,13.889-14.507,14.421H201.31
			c-7.748-0.532-13.929-6.676-14.507-14.421l-7.765-57.515l-3.072-22.869l-9.131-67.328H320.435z"/>
		<polygon style="fill:#FFFFFF;" points="179.038,426.267 158.643,446.662 155.144,424.048 175.966,403.398 		"/>
		<path style="fill:#A2C0F5;" d="M158.302,289.136h204.8v42.667c0,4.713-3.821,8.533-8.533,8.533H166.835
			c-4.713,0-8.533-3.821-8.533-8.533V289.136z"/>
		<path style="fill:#FFFFFF;" d="M124.168,289.136h204.8v42.667c0,4.713-3.82,8.533-8.533,8.533H132.702
			c-4.713,0-8.533-3.821-8.533-8.533V289.136z"/>
		<path style="fill:#D3DFF2;" d="M149.768,289.136h187.733v42.667c0,4.713-3.821,8.533-8.533,8.533H158.302
			c-4.713,0-8.533-3.821-8.533-8.533V289.136z"/>
		<path style="fill:#A2C0F5;" d="M448.435,7.536c0,0-5.632,211.115-154.283,197.973h-0.171c-14.488-1.358-28.774-4.364-42.581-8.96
			c-1.365-0.341-2.73-0.853-4.096-1.28c0,0-0.597-2.219-1.365-6.229c-5.291-29.184-16.043-152.917,176.725-178.773
			C430.856,9.158,439.475,8.304,448.435,7.536z"/>
		
			<linearGradient id="SVGID_1_" gradientUnits="userSpaceOnUse" x1="-52.5353" y1="650.3405" x2="-51.5281" y2="651.2633" gradientTransform="matrix(178.8998 0 0 -195.2427 9646.3428 127170.0703)">
			<stop  offset="0" style="stop-color:#DAE5F4"/>
			<stop  offset="0.1717" style="stop-color:#DAE5F4"/>
			<stop  offset="0.2" style="stop-color:#DAE5F4"/>
			<stop  offset="0.2006" style="stop-color:#EBECF4"/>
			<stop  offset="0.2013" style="stop-color:#F6F1F4"/>
			<stop  offset="0.2022" style="stop-color:#FDF4F4"/>
			<stop  offset="0.205" style="stop-color:#FFF5F4"/>
			<stop  offset="0.2522" style="stop-color:#FFF5F4"/>
			<stop  offset="0.26" style="stop-color:#FFF5F4"/>
			<stop  offset="0.26" style="stop-color:#DAE5F4"/>
			<stop  offset="0.3974" style="stop-color:#DAE5F4"/>
			<stop  offset="0.42" style="stop-color:#DAE5F4"/>
			<stop  offset="0.4206" style="stop-color:#EBECF4"/>
			<stop  offset="0.4212" style="stop-color:#F6F1F4"/>
			<stop  offset="0.4222" style="stop-color:#FDF4F4"/>
			<stop  offset="0.425" style="stop-color:#FFF5F4"/>
			<stop  offset="0.4894" style="stop-color:#FFF5F4"/>
			<stop  offset="0.5" style="stop-color:#FFF5F4"/>
			<stop  offset="0.5001" style="stop-color:#EEEEF4"/>
			<stop  offset="0.5002" style="stop-color:#E3E9F4"/>
			<stop  offset="0.5004" style="stop-color:#DCE6F4"/>
			<stop  offset="0.501" style="stop-color:#DAE5F4"/>
			<stop  offset="0.7062" style="stop-color:#DAE5F4"/>
			<stop  offset="0.74" style="stop-color:#DAE5F4"/>
			<stop  offset="0.741" style="stop-color:#FFF5F4"/>
			<stop  offset="0.8346" style="stop-color:#FFF5F4"/>
			<stop  offset="0.85" style="stop-color:#FFF5F4"/>
			<stop  offset="0.851" style="stop-color:#DAE5F4"/>
		</linearGradient>
		<path style="fill:url(#SVGID_1_);" d="M422.664,10.267c-1.109,23.04-13.653,184.32-128.512,195.243h-0.171
			c-14.488-1.358-28.774-4.364-42.581-8.96c-1.365-0.341-2.73-0.853-4.096-1.28c0,0-0.597-2.219-1.365-6.229
			C240.648,159.856,229.896,36.123,422.664,10.267z"/>
		<path style="fill:#A2C0F5;" d="M216.25,193.99c-0.514,4.011-0.964,6.315-0.964,6.315c-1.028,0.512-2.12,0.939-3.148,1.365
			c-12.733,5.895-26.878,8.055-40.79,6.229C107.304,197.488,99.532,78.619,98.633,58.48c-0.064-1.877-0.064-2.901-0.064-2.901
			C223.316,69.062,219.462,167.963,216.25,193.99z"/>
		<path style="fill:#FFFFFF;" d="M182.84,193.99c-0.514,4.011-0.964,6.315-0.964,6.315c-1.028,0.512-2.12,0.939-3.148,1.365
			c-12.733,5.895-26.878,8.055-40.79,6.229C73.894,197.488,66.121,78.619,65.222,58.48c-0.064-1.877-0.064-2.901-0.064-2.901
			C189.906,69.062,186.051,167.963,182.84,193.99z"/>
		
			<linearGradient id="SVGID_2_" gradientUnits="userSpaceOnUse" x1="-52.3539" y1="650.1483" x2="-51.3468" y2="651.0711" gradientTransform="matrix(102.352 0 0 -149.4187 5448.4639 97340.8906)">
			<stop  offset="0" style="stop-color:#DAE5F4"/>
			<stop  offset="0.1717" style="stop-color:#DAE5F4"/>
			<stop  offset="0.2" style="stop-color:#DAE5F4"/>
			<stop  offset="0.2006" style="stop-color:#EBECF4"/>
			<stop  offset="0.2013" style="stop-color:#F6F1F4"/>
			<stop  offset="0.2022" style="stop-color:#FDF4F4"/>
			<stop  offset="0.205" style="stop-color:#FFF5F4"/>
			<stop  offset="0.2522" style="stop-color:#FFF5F4"/>
			<stop  offset="0.26" style="stop-color:#FFF5F4"/>
			<stop  offset="0.26" style="stop-color:#DAE5F4"/>
			<stop  offset="0.3974" style="stop-color:#DAE5F4"/>
			<stop  offset="0.42" style="stop-color:#DAE5F4"/>
			<stop  offset="0.4206" style="stop-color:#EBECF4"/>
			<stop  offset="0.4212" style="stop-color:#F6F1F4"/>
			<stop  offset="0.4222" style="stop-color:#FDF4F4"/>
			<stop  offset="0.425" style="stop-color:#FFF5F4"/>
			<stop  offset="0.4894" style="stop-color:#FFF5F4"/>
			<stop  offset="0.5" style="stop-color:#FFF5F4"/>
			<stop  offset="0.5001" style="stop-color:#EEEEF4"/>
			<stop  offset="0.5002" style="stop-color:#E3E9F4"/>
			<stop  offset="0.5004" style="stop-color:#DCE6F4"/>
			<stop  offset="0.501" style="stop-color:#DAE5F4"/>
			<stop  offset="0.7062" style="stop-color:#DAE5F4"/>
			<stop  offset="0.74" style="stop-color:#DAE5F4"/>
			<stop  offset="0.741" style="stop-color:#FFF5F4"/>
			<stop  offset="0.8346" style="stop-color:#FFF5F4"/>
			<stop  offset="0.85" style="stop-color:#FFF5F4"/>
			<stop  offset="0.851" style="stop-color:#DAE5F4"/>
		</linearGradient>
		<path style="fill:url(#SVGID_2_);" d="M191.305,193.99c-0.527,4.011-0.987,6.315-0.987,6.315
			c-1.053,0.512-2.172,0.939-3.224,1.365c-7.238,2.998-14.819,5.091-22.571,6.229C98.918,197.488,90.957,78.619,90.035,58.48
			C198.149,79.387,194.398,169.328,191.305,193.99z"/>
	</g>
	<g>
		<path style="fill:#438CFF;" d="M85.832,133.169c-1.547-4.452-6.41-6.806-10.862-5.259c-4.452,1.547-6.806,6.41-5.259,10.862
			c1.547,4.452,6.41,6.806,10.862,5.259c2.138-0.743,3.893-2.305,4.879-4.342C86.439,137.652,86.575,135.307,85.832,133.169
			L85.832,133.169z"/>
		<path style="fill:#438CFF;" d="M449.744,0.032c-91.292,7.4-154.384,35.279-187.525,82.854
			c-22.545,33.377-30.355,74.563-21.596,113.876c-2.063,5.08-3.766,10.299-5.094,15.619c-2.929-4.425-6.218-8.601-9.835-12.484
			c6.082-30.204-0.21-61.586-17.465-87.111C182.318,75.611,133.21,53.836,62.26,48.074c-2.413-0.198-4.796,0.639-6.556,2.302
			s-2.73,3.995-2.669,6.415c0.758,16.278,2.97,32.457,6.608,48.341c1.036,4.598,5.602,7.486,10.2,6.45
			c4.598-1.036,7.486-5.602,6.45-10.2c-2.613-11.659-4.466-23.476-5.55-35.375c60.142,6.4,101.608,25.329,123.342,56.333
			c10.487,15.253,16.26,33.251,16.602,51.758c-28.03-42.95-68.2-76.594-115.402-96.653c-2.819-1.161-6.044-0.73-8.459,1.131
			c-2.415,1.861-3.654,4.869-3.25,7.892c0.404,3.022,2.39,5.599,5.209,6.76c48.495,21.048,88.939,57.129,115.363,102.918
			c-45.413,12.481-80.276,1.061-103.63-34.202c-2.603-3.93-7.899-5.007-11.829-2.404c-3.93,2.603-5.007,7.899-2.404,11.829
			c17.932,29.353,49.962,47.132,84.358,46.825c14.372-0.232,28.633-2.556,42.334-6.9c8.542,9.416,15.024,20.512,19.031,32.577
			c0.16,12.76,1.987,25.445,5.434,37.731H126.168c-2.263-0.001-4.434,0.898-6.035,2.499c-1.6,1.6-2.499,3.771-2.499,6.035v42.667
			c0.011,9.421,7.645,17.056,17.067,17.067h1.246l22.187,140.525c1.912,12.471,12.667,21.662,25.283,21.608h124.433
			c12.617,0.054,23.371-9.138,25.283-21.608l22.188-140.525h1.246c9.421-0.011,17.056-7.645,17.067-17.067v-42.667
			c0.001-2.263-0.898-4.434-2.499-6.035c-1.6-1.6-3.771-2.499-6.035-2.499H255.281c-8.025-24.243-8.133-50.409-0.307-74.717
			c17.547,5.554,35.808,8.526,54.211,8.821c25.196,0.427,49.892-7.053,70.617-21.388c74.792-52.158,79.017-180.133,79.167-185.558
			c0.059-2.421-0.91-4.754-2.667-6.421C454.55,0.662,452.16-0.179,449.744,0.032z M134.702,298.67h56.2l-34.133,34.133h-22.067
			V298.67z M225.035,349.87l-62.024,62.024l-9.793-62.024H225.035z M316.285,487.736c-0.642,4.156-4.228,7.218-8.434,7.2H183.418
			c-4.205,0.017-7.791-3.044-8.433-7.2l-8.685-55.01l0.034-0.024l82.834-82.833h88.883L316.285,487.736z M356.577,332.803H180.902
			l34.133-34.133h34.23l0.029,0.004l0.02-0.004h107.255L356.577,332.803z M370.01,180.349
			c-28.415,19.79-64.723,23.301-107.872,10.852c16.815-27.456,73.478-110.379,164.731-147.952c2.823-1.159,4.813-3.736,5.218-6.761
			c0.406-3.024-0.834-6.035-3.252-7.897c-2.418-1.862-5.646-2.291-8.466-1.125c-86.65,35.68-142.391,107.893-165.9,143.76
			c-1.594-27.874,6.051-55.495,21.751-78.581c28.933-41.529,84.433-66.646,165.075-74.713
			C438.802,48.07,426.61,140.903,370.01,180.349z"/>
	</g>
</g>
<g>
</g>
<g>
</g>
<g>
</g>
<g>
</g>
<g>
</g>
<g>
</g>
<g>
</g>
<g>
</g>
<g>
</g>
<g>
</g>
<g>
</g>
<g>
</g>
<g>
</g>
<g>
</g>
<g>
</g>
</svg>
