<?xml version="1.0" encoding="iso-8859-1"?>
<!-- Generator: Adobe Illustrator 19.0.0, SVG Export Plug-In . SVG Version: 6.00 Build 0)  -->
<svg version="1.1" id="Capa_1" xmlns="http://www.w3.org/2000/svg" xmlns:xlink="http://www.w3.org/1999/xlink" x="0px" y="0px"
	 viewBox="0 0 512 512" style="enable-background:new 0 0 512 512;" xml:space="preserve">
<g>
	<g transform="translate(1)">
		<polygon style="fill:#A2C0F5;" points="323.267,341.333 323.267,486.4 291.267,503.467 252.867,503.467 220.867,486.4 
			220.867,341.333 252.867,324.267 291.267,324.267 		"/>
		<polygon style="fill:#FFFFFF;" points="289.133,341.333 289.133,486.4 257.133,503.467 218.733,503.467 186.733,486.4 
			186.733,341.333 218.733,324.267 257.133,324.267 		"/>
		<g>
			<polygon style="fill:#D3DFF2;" points="297.667,341.333 297.667,486.4 264.847,503.467 245.152,503.467 212.333,486.4 
				212.333,341.333 245.152,324.267 264.847,324.267 			"/>
			<polygon style="fill:#D3DFF2;" points="323.267,341.333 280.6,358.4 229.4,358.4 186.733,341.333 229.4,324.267 280.6,324.267 
							"/>
			<rect x="237.933" y="136.533" style="fill:#D3DFF2;" width="34.133" height="196.267"/>
			<rect x="229.4" y="358.4" style="fill:#D3DFF2;" width="51.2" height="145.067"/>
		</g>
		<polygon style="fill:#A2C0F5;" points="306.2,75.349 281.795,145.067 228.205,145.067 203.8,75.349 204.141,73.301 
			305.859,73.301 		"/>
		<polygon style="fill:#D3DFF2;" points="280.6,75.349 256.195,145.067 228.205,145.067 203.8,75.349 204.141,73.301 
			280.259,73.301 		"/>
		<path style="fill:#A2C0F5;" d="M377.539,51.029c-22.253,11.93-46.584,19.49-71.68,22.272C289.012,75.687,272.015,76.856,255,76.8
			c-6.315,0-12.544-0.171-18.603-0.512c-10.799-0.402-21.567-1.399-32.256-2.987c-25.096-2.782-49.427-10.342-71.68-22.272
			c30.083-16.689,62.916-27.845,96.939-32.939v-1.024c-0.008-4.058,2.849-7.558,6.827-8.363h0.341
			c0.44-0.146,0.903-0.204,1.365-0.171h34.133c4.707,0.014,8.519,3.826,8.533,8.533v1.024
			C314.623,23.184,347.456,34.34,377.539,51.029z"/>
		
			<linearGradient id="SVGID_1_" gradientUnits="userSpaceOnUse" x1="-49.5364" y1="651.107" x2="-49.0079" y2="649.4703" gradientTransform="matrix(216.4053 0 0 -69.8746 10903.7373 45495.5313)">
			<stop  offset="0" style="stop-color:#DAE5F4"/>
			<stop  offset="0.1717" style="stop-color:#DAE5F4"/>
			<stop  offset="0.2" style="stop-color:#DAE5F4"/>
			<stop  offset="0.2006" style="stop-color:#EBECF4"/>
			<stop  offset="0.2013" style="stop-color:#F6F1F4"/>
			<stop  offset="0.2022" style="stop-color:#FDF4F4"/>
			<stop  offset="0.205" style="stop-color:#FFF5F4"/>
			<stop  offset="0.2522" style="stop-color:#FFF5F4"/>
			<stop  offset="0.26" style="stop-color:#FFF5F4"/>
			<stop  offset="0.26" style="stop-color:#DAE5F4"/>
			<stop  offset="0.3974" style="stop-color:#DAE5F4"/>
			<stop  offset="0.42" style="stop-color:#DAE5F4"/>
			<stop  offset="0.4206" style="stop-color:#EBECF4"/>
			<stop  offset="0.4212" style="stop-color:#F6F1F4"/>
			<stop  offset="0.4222" style="stop-color:#FDF4F4"/>
			<stop  offset="0.425" style="stop-color:#FFF5F4"/>
			<stop  offset="0.4894" style="stop-color:#FFF5F4"/>
			<stop  offset="0.5" style="stop-color:#FFF5F4"/>
			<stop  offset="0.5001" style="stop-color:#EEEEF4"/>
			<stop  offset="0.5002" style="stop-color:#E3E9F4"/>
			<stop  offset="0.5004" style="stop-color:#DCE6F4"/>
			<stop  offset="0.501" style="stop-color:#DAE5F4"/>
			<stop  offset="0.7062" style="stop-color:#DAE5F4"/>
			<stop  offset="0.74" style="stop-color:#DAE5F4"/>
			<stop  offset="0.741" style="stop-color:#FFF5F4"/>
			<stop  offset="0.8346" style="stop-color:#FFF5F4"/>
			<stop  offset="0.85" style="stop-color:#FFF5F4"/>
			<stop  offset="0.851" style="stop-color:#DAE5F4"/>
		</linearGradient>
		<path style="fill:url(#SVGID_1_);" d="M330.957,51.029c18.843,10.837,28.438,12.971,0,17.237
			c-9.778,1.536-88.573,7.595-99.248,8.021c-10.316-0.402-20.6-1.399-30.801-2.987c-24.065-2.818-47.331-10.389-68.447-22.272
			c28.543-16.631,59.933-27.802,92.566-32.939v-1.024c-0.073-3.977,2.645-7.463,6.519-8.363h0.326
			c4.868-1.415,40.194-4.267,40.194-0.171l0,0c0,0-0.186,17.067,1.853,17.664C293.785,32.359,312.912,40.687,330.957,51.029
			L330.957,51.029z"/>
		<g>
			<path style="fill:#D3DFF2;" d="M263.533,76.715V102.4c0,4.713-3.821,8.533-8.533,8.533c-4.713,0-8.533-3.821-8.533-8.533V76.715"
				/>
			<rect x="237.933" y="196.267" style="fill:#D3DFF2;" width="34.133" height="17.067"/>
			<rect x="237.933" y="230.4" style="fill:#D3DFF2;" width="34.133" height="17.067"/>
			<rect x="237.933" y="264.533" style="fill:#D3DFF2;" width="34.133" height="17.067"/>
		</g>
		<path style="fill:#FFFFFF;" d="M163.779,63.744c-2.304-2.645,5.803-5.973,17.493-12.715c17.933-10.277,36.932-18.57,56.661-24.732
			c0.114-0.034-0.114-9.198,0-9.231c1.024-0.256-8.533-8.533-8.533-8.533c-4.693,0,2.219,3.84,2.219,8.533v1.024
			c-34.023,5.093-66.856,16.25-96.939,32.939C143.852,56.385,153.617,60.653,163.779,63.744L163.779,63.744z"/>
	</g>
	<g>
		<path style="fill:#438CFF;" d="M386.936,50.814c0.014-1.124-0.242-2.234-0.748-3.238c-0.095-0.328-0.21-0.65-0.346-0.964
			c-0.105-0.173-0.28-0.266-0.395-0.43c-0.709-0.886-1.538-1.67-2.463-2.327c-0.165-0.102-0.264-0.267-0.438-0.36
			C353.325,27.438,321.66,16.3,288.821,10.528C286.175,4.161,279.962,0.008,273.067,0h-34.133
			c-6.895,0.008-13.109,4.161-15.754,10.528c-32.839,5.772-64.504,16.91-93.725,32.968c-0.172,0.092-0.27,0.255-0.433,0.356
			c-0.928,0.657-1.758,1.441-2.467,2.33c-0.116,0.164-0.291,0.257-0.396,0.431c-0.136,0.314-0.251,0.635-0.346,0.964
			c-0.506,1.004-0.763,2.114-0.748,3.238c-0.025,0.528,0.001,1.057,0.078,1.58c0.107,0.58,0.276,1.146,0.503,1.69
			c0.075,0.323,0.169,0.642,0.284,0.953c0.119,0.225,0.3,0.391,0.435,0.6c0.155,0.24,0.324,0.471,0.503,0.693
			c0.572,0.734,1.262,1.369,2.042,1.877c0.054,0.034,0.081,0.092,0.137,0.126l0.07,0.037l0.047,0.025
			c21.274,11.55,44.481,19.114,68.475,22.319l23.5,67.169c1.197,3.423,4.427,5.716,8.054,5.716h1.208v162.133
			c-1.086,0.001-2.162,0.207-3.171,0.608l-42.667,17.067l-0.071,0.046l-0.101,0.031c-0.717,0.349-1.381,0.796-1.974,1.329
			c-0.219,0.179-0.509,0.28-0.707,0.478l-0.015,0.014c-0.23,0.298-0.441,0.611-0.631,0.936l-0.069,0.102
			c-0.433,0.505-0.806,1.058-1.111,1.648l-0.03,0.1l-0.046,0.071c-0.102,0.39-0.175,0.786-0.217,1.187
			c-0.2,0.62-0.326,1.262-0.377,1.911l-0.014,0.072v26.025c0,4.713,3.82,8.533,8.533,8.533c4.713,0,8.533-3.821,8.533-8.533V353.94
			l25.6,10.24v126.683l-25.6-10.242v-44.996c0-4.713-3.82-8.533-8.533-8.533c-4.713,0-8.533,3.821-8.533,8.533V486.4l0.015,0.072
			c0.037,0.89,0.214,1.768,0.525,2.602c0.071,0.214,0.056,0.461,0.144,0.667c0.605,0.903,1.214,1.803,1.826,2.7
			c0.247,0.186,0.503,0.359,0.768,0.518c0.605,0.534,1.283,0.979,2.014,1.32l0.071,0.046l42.667,17.067
			c1.009,0.401,2.084,0.608,3.17,0.608h51.2c1.086-0.001,2.162-0.207,3.171-0.608l42.667-17.067l0.071-0.046
			c0.726-0.339,1.4-0.781,2.001-1.311c0.27-0.162,0.531-0.338,0.782-0.527c0.612-0.898,1.22-1.797,1.825-2.699
			c0.087-0.203,0.072-0.447,0.143-0.659c0.313-0.837,0.491-1.718,0.527-2.611l0.015-0.071V341.333l-0.015-0.071
			c-0.05-0.65-0.177-1.293-0.377-1.914c-0.042-0.4-0.115-0.797-0.217-1.186l-0.046-0.071l-0.03-0.099
			c-0.313-0.612-0.699-1.185-1.149-1.705c-0.076-0.101-0.131-0.216-0.212-0.314c-0.167-0.201-0.257-0.47-0.44-0.653l-0.024-0.028
			c-0.251-0.19-0.512-0.365-0.782-0.527c-0.477-0.405-0.997-0.756-1.552-1.046c-0.119-0.057-0.206-0.169-0.328-0.221l-0.121-0.044
			l-0.071-0.046l-42.667-17.067c-1.009-0.401-2.085-0.608-3.171-0.608V153.6h1.208c3.627,0,6.858-2.293,8.054-5.717l23.5-67.169
			c23.994-3.205,47.201-10.769,68.475-22.319l0.047-0.025l0.07-0.037c0.055-0.033,0.082-0.091,0.137-0.126
			c0.78-0.509,1.469-1.143,2.042-1.877c0.18-0.222,0.348-0.453,0.503-0.693c0.136-0.209,0.316-0.375,0.435-0.6
			c0.114-0.311,0.209-0.63,0.284-0.953c0.227-0.544,0.396-1.11,0.503-1.69C386.935,51.871,386.961,51.342,386.936,50.814
			L386.936,50.814z M238.933,17.067h34.133V25.6c0,4.713,3.82,8.533,8.533,8.533c3.754-0.027,7.037-2.534,8.052-6.147
			c24.126,4.554,47.544,12.273,69.65,22.956C326.239,63.071,291.21,68.946,256,68.267c-35.21,0.679-70.239-5.195-103.301-17.324
			c22.105-10.683,45.524-18.402,69.65-22.956c1.015,3.614,4.298,6.12,8.052,6.147c4.713,0,8.533-3.821,8.533-8.533V17.067z
			 M216.611,83.271c7.278,0.764,14.719,1.312,22.322,1.645V102.4c0.019,6.069,3.271,11.669,8.533,14.693v19.44h-12.221
			L216.611,83.271z M315.733,480.62l-25.6,10.243V364.18l25.6-10.24V480.62z M273.067,494.933h-34.133v-128h34.133V494.933z
			 M301.287,341.333l-21.329,8.533h-47.917l-21.329-8.533l19.81-7.925c0.286,4.441,3.96,7.903,8.41,7.925h34.133
			c4.45-0.023,8.124-3.485,8.41-7.925L301.287,341.333z M264.533,324.267h-17.067V153.6h17.067V324.267z M276.754,136.533h-12.221
			v-19.44c5.262-3.024,8.514-8.624,8.533-14.693V84.916c7.594-0.333,15.035-0.882,22.322-1.645L276.754,136.533z"/>
		<circle style="fill:#438CFF;" cx="187.349" cy="401.493" r="8.533"/>
	</g>
</g>
<g>
</g>
<g>
</g>
<g>
</g>
<g>
</g>
<g>
</g>
<g>
</g>
<g>
</g>
<g>
</g>
<g>
</g>
<g>
</g>
<g>
</g>
<g>
</g>
<g>
</g>
<g>
</g>
<g>
</g>
</svg>
