<?xml version="1.0" encoding="iso-8859-1"?>
<!-- Generator: Adobe Illustrator 19.0.0, SVG Export Plug-In . SVG Version: 6.00 Build 0)  -->
<svg version="1.1" id="Capa_1" xmlns="http://www.w3.org/2000/svg" xmlns:xlink="http://www.w3.org/1999/xlink" x="0px" y="0px"
	 viewBox="0 0 512 512" style="enable-background:new 0 0 512 512;" xml:space="preserve">
<g>
	<g transform="translate(2 1)">
		<path style="fill:#FFFFFF;" d="M260.236,452.547c35.978,3.243,62.031,12.885,62.031,24.32c0,14.165-40.113,25.6-89.6,25.6
			s-89.6-11.435-89.6-25.6c0-11.435,26.053-21.077,62.031-24.32H260.236z"/>
		<path style="fill:#A2C0F5;" d="M302.903,452.547c35.978,3.243,62.031,12.885,62.031,24.32c0,14.165-40.113,25.6-89.6,25.6
			s-89.6-11.435-89.6-25.6c0-11.435,26.053-21.077,62.031-24.32H302.903z"/>
		<path style="fill:#D3DFF2;" d="M277.631,452.547c30.838,3.243,53.169,12.885,53.169,24.32c0,14.165-34.383,25.6-76.8,25.6
			s-76.8-11.435-76.8-25.6c0-11.435,22.331-21.077,53.169-24.32H277.631z"/>
		<path style="fill:#A2C0F5;" d="M288.133,250.392v221.952c-11.121,3.043-22.603,4.564-34.133,4.523
			c-4.277,0.037-8.552-0.191-12.8-0.683c-7.212-0.635-14.352-1.92-21.333-3.84V250.392H288.133z"/>
		
			<linearGradient id="SVGID_1_" gradientUnits="userSpaceOnUse" x1="-50.9019" y1="651.1859" x2="-47.8009" y2="650.5999" gradientTransform="matrix(42.6667 0 0 -225.792 2346.8611 147327.7813)">
			<stop  offset="0" style="stop-color:#DAE5F4"/>
			<stop  offset="0.1717" style="stop-color:#DAE5F4"/>
			<stop  offset="0.2" style="stop-color:#DAE5F4"/>
			<stop  offset="0.2006" style="stop-color:#EBECF4"/>
			<stop  offset="0.2013" style="stop-color:#F6F1F4"/>
			<stop  offset="0.2022" style="stop-color:#FDF4F4"/>
			<stop  offset="0.205" style="stop-color:#FFF5F4"/>
			<stop  offset="0.2522" style="stop-color:#FFF5F4"/>
			<stop  offset="0.26" style="stop-color:#FFF5F4"/>
			<stop  offset="0.26" style="stop-color:#DAE5F4"/>
			<stop  offset="0.3974" style="stop-color:#DAE5F4"/>
			<stop  offset="0.42" style="stop-color:#DAE5F4"/>
			<stop  offset="0.4206" style="stop-color:#EBECF4"/>
			<stop  offset="0.4212" style="stop-color:#F6F1F4"/>
			<stop  offset="0.4222" style="stop-color:#FDF4F4"/>
			<stop  offset="0.425" style="stop-color:#FFF5F4"/>
			<stop  offset="0.4894" style="stop-color:#FFF5F4"/>
			<stop  offset="0.5" style="stop-color:#FFF5F4"/>
			<stop  offset="0.5001" style="stop-color:#EEEEF4"/>
			<stop  offset="0.5002" style="stop-color:#E3E9F4"/>
			<stop  offset="0.5004" style="stop-color:#DCE6F4"/>
			<stop  offset="0.501" style="stop-color:#DAE5F4"/>
			<stop  offset="0.7062" style="stop-color:#DAE5F4"/>
			<stop  offset="0.74" style="stop-color:#DAE5F4"/>
			<stop  offset="0.741" style="stop-color:#FFF5F4"/>
			<stop  offset="0.8346" style="stop-color:#FFF5F4"/>
			<stop  offset="0.85" style="stop-color:#FFF5F4"/>
			<stop  offset="0.851" style="stop-color:#DAE5F4"/>
		</linearGradient>
		<path style="fill:url(#SVGID_1_);" d="M262.533,250.392v221.952c-6.981,1.92-14.121,3.205-21.333,3.84
			c-7.212-0.635-14.352-1.92-21.333-3.84V250.392H262.533z"/>
		<path style="fill:#F6AB27;" d="M322.267,168.472v8.704c-22.554,3.78-45.399,5.55-68.267,5.291
			c-22.867,0.26-45.712-1.511-68.267-5.291v-8.704c0.256,0.085,0.597,0.085,0.853,0.171c22.264,3.802,44.828,5.573,67.413,5.291
			c22.585,0.282,45.149-1.489,67.413-5.291C321.669,168.557,322.011,168.557,322.267,168.472z"/>
		<g>
			<path style="fill:#A2C0F5;" d="M322.267,84.333v136.533c0.005,2.647-0.45,5.274-1.344,7.765
				c-4.865,10.878-14.278,19.057-25.728,22.357c-7.755,2.704-15.915,4.06-24.128,4.011c-3.213,0.037-6.424-0.192-9.6-0.683
				c-4.955-0.542-9.831-1.659-14.528-3.328c-11.45-3.3-20.863-11.48-25.728-22.357c-0.894-2.491-1.349-5.119-1.344-7.765V84.333
				H322.267z"/>
			<path style="fill:#A2C0F5;" d="M313.733,84.333v136.533c0.005,2.647-0.45,5.274-1.344,7.765
				c-4.865,10.878-14.278,19.057-25.728,22.357c-7.755,2.704-15.915,4.06-24.128,4.011c-3.213,0.037-6.424-0.192-9.6-0.683
				c-4.955-0.542-9.831-1.659-14.528-3.328c-11.45-3.3-20.863-11.48-25.728-22.357c-0.894-2.491-1.349-5.119-1.344-7.765V84.333
				H313.733z"/>
		</g>
		<path style="fill:#FFFFFF;" d="M288.133,84.333v136.533c0.005,2.647-0.45,5.274-1.344,7.765
			c-4.865,10.878-14.278,19.057-25.728,22.357c-7.755,2.704-15.915,4.06-24.128,4.011c-3.213,0.037-6.424-0.192-9.6-0.683
			c-4.955-0.542-9.831-1.659-14.528-3.328c-11.45-3.3-20.863-11.48-25.728-22.357c-0.894-2.491-1.349-5.119-1.344-7.765V84.333
			H288.133z"/>
		<path style="fill:#D3DFF2;" d="M296.667,84.333v136.533c0.004,2.65-0.462,5.279-1.379,7.765
			c-5.086,10.965-14.736,19.141-26.387,22.357c-4.825,1.671-9.824,2.787-14.901,3.328c-5.077-0.541-10.076-1.657-14.901-3.328
			c-11.652-3.217-21.301-11.392-26.387-22.357c-0.916-2.486-1.383-5.116-1.379-7.765V84.333H296.667z"/>
		<path style="fill:#F6AB27;" d="M322.267,117.272v8.704c-22.554,3.78-45.399,5.55-68.267,5.291
			c-22.867,0.26-45.712-1.511-68.267-5.291v-8.704c0.256,0.085,0.597,0.085,0.853,0.171c22.264,3.802,44.828,5.573,67.413,5.291
			c22.585,0.282,45.149-1.489,67.413-5.291C321.669,117.357,322.011,117.357,322.267,117.272z"/>
		<path style="fill:#D3DFF2;" d="M254,144.067L254,144.067c9.426,0,17.067,7.641,17.067,17.067v34.133
			c0,9.426-7.641,17.067-17.067,17.067l0,0c-9.426,0-17.067-7.641-17.067-17.067v-34.133
			C236.933,151.708,244.574,144.067,254,144.067z"/>
		<path style="fill:#A2C0F5;" d="M397.616,84.248c-9.805,3.181-19.766,5.858-29.844,8.021c-29.226,6.18-59.025,9.24-88.897,9.131
			c-40.227,0.425-80.279-5.361-118.741-17.152c12.928-15.471,29.216-27.787,47.624-36.011c7.515-3.417,15.274-6.269,23.212-8.533
			h95.811C354.379,46.99,379.093,62.531,397.616,84.248z"/>
		<path style="fill:#FFFFFF;" d="M339.333,84.248c-9.081,3.175-18.327,5.853-27.699,8.021c-27.066,6.173-54.748,9.236-82.509,9.131
			c-37.431,0.409-74.671-5.387-110.208-17.152c11.747-15.264,26.878-27.591,44.201-36.011c6.946-3.406,14.15-6.259,21.544-8.533
			h88.926C299.633,47.288,322.633,62.871,339.333,84.248L339.333,84.248z"/>
		<g>
			<path style="fill:#D3DFF2;" d="M361.52,92.269c-29.556,6.181-59.679,9.241-89.874,9.131
				c-40.655,0.427-81.137-5.357-120.046-17.152c13.109-15.501,29.574-27.815,48.147-36.011h90.587
				C317.95,55.423,342.758,70.768,361.52,92.269L361.52,92.269z"/>
			<path style="fill:#D3DFF2;" d="M320.389,59.757c-21.757,5.106-44.041,7.627-66.389,7.509
				c-22.348,0.117-44.632-2.403-66.389-7.509C195.036,29.114,222.47,7.534,254,7.534S312.964,29.114,320.389,59.757L320.389,59.757z
				"/>
		</g>
	</g>
	<g>
		<path style="fill:#438CFF;" d="M319.303,33.304C304.973,12.456,281.298,0,256,0s-48.973,12.456-63.303,33.304
			c-32.41,7.27-62.257,23.149-86.398,45.963c-2.127,2.164-2.946,5.294-2.15,8.222c0.796,2.928,3.086,5.213,6.016,6.003
			c15.219,4.031,30.632,7.284,46.182,9.747c-1.785,2.166-2.757,4.888-2.748,7.695c0,10.385,12.055,15.397,25.6,18.582v14.034
			c-13.547,3.187-25.6,8.199-25.6,18.584c0,10.384,12.055,15.397,25.6,18.582v14.034c-13.547,3.187-25.6,8.199-25.6,18.584
			c0,11.069,14.02,16.107,27.866,19.078c6.722,12.437,18.234,21.586,31.868,25.325V281.6c0,4.713,3.821,8.533,8.533,8.533
			c4.713,0,8.533-3.82,8.533-8.533v-19.36c16.93,3.058,34.27,3.058,51.2,0v204.423c-16.886,3.508-34.314,3.508-51.2,0V349.867
			c0-4.713-3.821-8.533-8.533-8.533c-4.713,0-8.533,3.821-8.533,8.533v95.828c-31.829,2.916-76.8,10.805-76.8,32.172
			C136.533,511.042,243.771,512,256,512c12.229,0,119.467-0.958,119.467-34.133c0-21.367-44.971-29.256-76.8-32.172V257.736
			c13.634-3.739,25.147-12.889,31.868-25.326c13.879-2.982,27.865-8.021,27.865-19.077c0-10.384-12.053-15.397-25.6-18.584v-14.032
			c13.547-3.187,25.6-8.199,25.6-18.584c0-10.384-12.053-15.397-25.6-18.584v-14.032c13.547-3.187,25.6-8.2,25.6-18.584
			c0.009-2.807-0.964-5.529-2.748-7.695c15.549-2.463,30.963-5.716,46.182-9.747c2.93-0.789,5.22-3.075,6.016-6.003
			c0.796-2.928-0.022-6.059-2.15-8.222C381.56,56.453,351.712,40.574,319.303,33.304L319.303,33.304z M357.921,477.888
			c-6.133,6.537-42.796,17.046-101.921,17.046s-95.788-10.508-101.921-17.046c3.883-3.886,21.85-11.432,59.254-15.046v10.505
			c0.001,3.829,2.55,7.189,6.238,8.221c23.859,6.444,49,6.444,72.858,0c3.687-1.032,6.237-4.392,6.237-8.221v-10.504
			C336.071,466.456,354.039,474.002,357.921,477.888z M256,17.067c24.387-0.055,46.347,14.754,55.438,37.383
			c-36.633,6.933-74.242,6.933-110.875,0C209.653,31.82,231.613,17.012,256,17.067z M315.733,217.816
			c-19.782,2.836-39.749,4.19-59.733,4.051c-19.984,0.139-39.951-1.215-59.733-4.051v-33.923c10.16,1.492,21.708,2.57,34.133,3.194
			v9.18c0,14.138,11.462,25.6,25.6,25.6c14.139,0,25.6-11.462,25.6-25.6v-9.18c12.427-0.624,23.974-1.703,34.133-3.193V217.816z
			 M264.533,170.587c-2.827,0.048-5.67,0.08-8.533,0.08c-2.863,0-5.706-0.032-8.533-0.08v-8.454c0-4.713,3.821-8.533,8.533-8.533
			c4.713,0,8.533,3.821,8.533,8.533V170.587z M256,187.733c2.873,0,5.71-0.034,8.533-0.079v8.612c0,4.713-3.821,8.533-8.533,8.533
			c-4.713,0-8.533-3.821-8.533-8.533v-8.612C250.29,187.699,253.127,187.733,256,187.733z M315.733,166.654
			c-11.315,1.684-22.707,2.798-34.133,3.338v-7.858c0-14.138-11.461-25.6-25.6-25.6c-14.138,0-25.6,11.462-25.6,25.6v7.858
			c-11.427-0.541-22.819-1.655-34.133-3.34v-33.958c19.796,2.686,39.757,3.97,59.733,3.841c19.977,0.128,39.937-1.154,59.733-3.839
			V166.654z M315.733,110.933v4.52c-19.785,2.812-39.75,4.153-59.733,4.013c-19.983,0.14-39.949-1.202-59.733-4.016v-4.518H315.733z
			 M176.142,110.933c0.887-0.297,1.931-0.612,3.058-0.934v1.868C178.073,111.545,177.029,111.231,176.142,110.933z M176.142,162.133
			c0.887-0.297,1.931-0.612,3.058-0.934v1.868C178.073,162.745,177.029,162.431,176.142,162.133z M179.2,212.399v1.87
			c-1.133-0.32-2.18-0.634-3.071-0.932C177.019,213.039,178.068,212.723,179.2,212.399z M208.347,236.594
			c15.833,1.607,31.739,2.388,47.653,2.34c15.913,0.048,31.818-0.732,47.65-2.338c-14.709,7.594-31.103,11.334-47.65,10.871
			C239.452,247.929,223.057,244.188,208.347,236.594L208.347,236.594z M335.867,213.338c-0.89,0.298-1.935,0.611-3.067,0.931v-1.869
			C333.931,212.722,334.978,213.038,335.867,213.338L335.867,213.338z M335.858,162.133c-0.888,0.297-1.931,0.612-3.058,0.934
			v-1.868C333.928,161.521,334.971,161.836,335.858,162.133z M332.8,111.867v-1.868c1.128,0.322,2.171,0.636,3.058,0.934
			C334.97,111.231,333.927,111.545,332.8,111.867z M256,93.867c-42.303,0.293-84.509-4.069-125.858-13.008
			c15.835-11.961,33.623-21.088,52.574-26.976c-0.501,1.605-0.998,3.213-1.398,4.867c-1.11,4.577,1.699,9.187,6.275,10.3
			c22.42,5.253,45.38,7.855,68.408,7.75c23.028,0.104,45.988-2.497,68.408-7.75c4.576-1.113,7.385-5.723,6.275-10.3
			c-0.4-1.655-0.897-3.262-1.398-4.867c18.951,5.888,36.739,15.015,52.574,26.976C340.51,89.798,298.303,94.16,256,93.867
			L256,93.867z"/>
		<circle style="fill:#438CFF;" cx="221.867" cy="315.733" r="8.533"/>
	</g>
</g>
<g>
</g>
<g>
</g>
<g>
</g>
<g>
</g>
<g>
</g>
<g>
</g>
<g>
</g>
<g>
</g>
<g>
</g>
<g>
</g>
<g>
</g>
<g>
</g>
<g>
</g>
<g>
</g>
<g>
</g>
</svg>
