<?xml version="1.0" encoding="iso-8859-1"?>
<!-- Generator: Adobe Illustrator 19.0.0, SVG Export Plug-In . SVG Version: 6.00 Build 0)  -->
<svg version="1.1" id="Capa_1" xmlns="http://www.w3.org/2000/svg" xmlns:xlink="http://www.w3.org/1999/xlink" x="0px" y="0px"
	 viewBox="0 0 512 512" style="enable-background:new 0 0 512 512;" xml:space="preserve">
<g>
	<g transform="translate(1 1)">
		<path style="fill:#FFFFFF;" d="M110.253,109.336V203.8c-23.75,0-42.987-30.549-42.987-68.267V41.667
			c7.998,0.211,15.62,3.443,21.333,9.045l9.08,10.923C106.141,76.091,110.489,92.587,110.253,109.336L110.253,109.336z"/>
		<path style="fill:#A2C0F5;" d="M195.214,41.667v93.867c0,37.717-22.888,68.267-51.147,68.267v-94.464
			c-0.168-17.08,5.068-33.776,14.96-47.701c3.07-4.131,6.707-7.809,10.805-10.923L195.214,41.667z"/>
		<g>
			<path style="fill:#D3DFF2;" d="M379.594,314.733c-17.882-53.052-56.967-96.311-107.939-119.467
				C271.655,195.267,283.618,262.477,379.594,314.733z"/>
			<path style="fill:#D3DFF2;" d="M379.594,314.733c17.882-53.052,56.967-96.311,107.939-119.467
				C487.533,195.267,475.57,262.477,379.594,314.733z"/>
			<path style="fill:#D3DFF2;" d="M164.376,50.712c-5.28,2.971-10.131,6.645-14.422,10.923
				c-12.659,12.664-19.83,29.796-19.968,47.701c-0.137-17.905-7.309-35.038-19.968-47.701l-14.42-10.923l0.255-0.512
				c0-42.667,34.133-42.667,34.133-42.667s34.133,0,34.133,42.667L164.376,50.712z"/>
			<path style="fill:#D3DFF2;" d="M129.994,314.733c-17.882-53.052-56.967-96.311-107.939-119.467
				C22.055,195.267,34.018,262.477,129.994,314.733z"/>
			<path style="fill:#D3DFF2;" d="M129.994,314.733c17.882-53.052,56.967-96.311,107.939-119.467
				C237.933,195.267,225.97,262.477,129.994,314.733z"/>
		</g>
		<path style="fill:#FFFFFF;" d="M425.667,374.467V383H50.2v-8.533c-0.582-13.547,9.921-25.004,23.467-25.6H402.2
			C415.746,349.463,426.248,360.92,425.667,374.467z"/>
		<path style="fill:#A2C0F5;" d="M459.8,374.467V383H84.333v-8.533c-0.582-13.547,9.921-25.004,23.467-25.6h328.533
			C449.879,349.463,460.382,360.92,459.8,374.467z"/>
		<path style="fill:#D3DFF2;" d="M434.2,374.467V383H75.8v-8.533c-0.841-13.241,9.165-24.676,22.4-25.6h313.6
			C425.035,349.79,435.042,361.226,434.2,374.467z"/>
		<rect x="41.667" y="383" style="fill:#A2C0F5;" width="460.8" height="34.133"/>
		<rect x="7.533" y="383" style="fill:#FFFFFF;" width="460.8" height="34.133"/>
		<rect x="33.133" y="383" style="fill:#D3DFF2;" width="443.733" height="34.133"/>
		<polygon style="fill:#A2C0F5;" points="50.2,417.133 58.127,502.467 486.006,502.467 493.933,417.133 		"/>
		<polygon style="fill:#FFFFFF;" points="16.067,417.133 23.994,502.467 451.873,502.467 459.8,417.133 		"/>
		
			<linearGradient id="SVGID_1_" gradientUnits="userSpaceOnUse" x1="-49.6807" y1="651.3934" x2="-49.0896" y2="648.438" gradientTransform="matrix(426.6667 0 0 -85.3333 21326.002 55915.4688)">
			<stop  offset="0" style="stop-color:#DAE5F4"/>
			<stop  offset="0.1717" style="stop-color:#DAE5F4"/>
			<stop  offset="0.2" style="stop-color:#DAE5F4"/>
			<stop  offset="0.2006" style="stop-color:#EBECF4"/>
			<stop  offset="0.2013" style="stop-color:#F6F1F4"/>
			<stop  offset="0.2022" style="stop-color:#FDF4F4"/>
			<stop  offset="0.205" style="stop-color:#FFF5F4"/>
			<stop  offset="0.2522" style="stop-color:#FFF5F4"/>
			<stop  offset="0.26" style="stop-color:#FFF5F4"/>
			<stop  offset="0.26" style="stop-color:#DAE5F4"/>
			<stop  offset="0.3974" style="stop-color:#DAE5F4"/>
			<stop  offset="0.42" style="stop-color:#DAE5F4"/>
			<stop  offset="0.4206" style="stop-color:#EBECF4"/>
			<stop  offset="0.4212" style="stop-color:#F6F1F4"/>
			<stop  offset="0.4222" style="stop-color:#FDF4F4"/>
			<stop  offset="0.425" style="stop-color:#FFF5F4"/>
			<stop  offset="0.4894" style="stop-color:#FFF5F4"/>
			<stop  offset="0.5" style="stop-color:#FFF5F4"/>
			<stop  offset="0.5001" style="stop-color:#EEEEF4"/>
			<stop  offset="0.5002" style="stop-color:#E3E9F4"/>
			<stop  offset="0.5004" style="stop-color:#DCE6F4"/>
			<stop  offset="0.501" style="stop-color:#DAE5F4"/>
			<stop  offset="0.7062" style="stop-color:#DAE5F4"/>
			<stop  offset="0.74" style="stop-color:#DAE5F4"/>
			<stop  offset="0.741" style="stop-color:#FFF5F4"/>
			<stop  offset="0.8346" style="stop-color:#FFF5F4"/>
			<stop  offset="0.85" style="stop-color:#FFF5F4"/>
			<stop  offset="0.851" style="stop-color:#DAE5F4"/>
		</linearGradient>
		<polygon style="fill:url(#SVGID_1_);" points="41.667,417.133 49.287,502.467 460.713,502.467 468.333,417.133 		"/>
		<g>
			<path style="fill:#D3DFF2;" d="M172.6,41.667v93.867c0,37.717-19.069,68.267-42.613,68.267v-94.464
				c-0.238-16.735,4.07-33.221,12.464-47.701c2.481-4.04,5.511-7.716,9.003-10.923L172.6,41.667z"/>
			<path style="fill:#D3DFF2;" d="M129.987,109.336V203.8C106.236,203.8,87,173.251,87,135.533V41.667
				c7.998,0.211,15.62,3.443,21.333,9.045l9.081,10.923C125.875,76.092,130.223,92.587,129.987,109.336z"/>
		</g>
		<path style="fill:#FFFFFF;" d="M357.72,109.336V203.8c-23.75,0-42.987-30.549-42.987-68.267V41.667
			c7.998,0.211,15.62,3.443,21.333,9.045l9.08,10.923C353.608,76.091,357.956,92.587,357.72,109.336L357.72,109.336z"/>
		<path style="fill:#A2C0F5;" d="M442.68,41.667v93.867c0,37.717-22.888,68.267-51.147,68.267v-94.464
			c-0.168-17.08,5.068-33.776,14.96-47.701c3.07-4.131,6.707-7.809,10.805-10.923L442.68,41.667z"/>
		<g>
			<path style="fill:#D3DFF2;" d="M411.843,50.712c-5.28,2.971-10.132,6.645-14.422,10.923
				c-12.659,12.664-19.83,29.796-19.968,47.701c-0.137-17.905-7.309-35.038-19.968-47.701l-14.42-10.923l0.255-0.512
				c0-42.667,34.133-42.667,34.133-42.667s34.133,0,34.133,42.667L411.843,50.712z"/>
			<path style="fill:#D3DFF2;" d="M420.067,41.667v93.867c0,37.717-19.069,68.267-42.613,68.267v-94.464
				c-0.238-16.735,4.07-33.221,12.464-47.701c2.481-4.04,5.511-7.716,9.003-10.923L420.067,41.667z"/>
			<path style="fill:#D3DFF2;" d="M377.453,109.336V203.8c-23.75,0-42.986-30.549-42.986-68.267V41.667
				c7.998,0.211,15.62,3.443,21.333,9.045l9.081,10.923C373.341,76.092,377.689,92.587,377.453,109.336z"/>
		</g>
	</g>
	<g>
		<path style="fill:#438CFF;" d="M503.467,375.467h-34.133c-0.02-18.843-15.29-34.113-34.133-34.133h-45.658v-20.615
			c94.339-53.223,107.292-120.092,107.8-122.956c0.551-3.098-0.647-6.249-3.118-8.197c-2.471-1.948-5.814-2.379-8.698-1.12
			c-40.61,17.965-74.292,48.626-95.983,87.375V212.83c38.841-4.383,68.212-37.209,68.267-76.297V42.667
			c0.001-2.263-0.898-4.434-2.499-6.035c-1.6-1.6-3.771-2.499-6.035-2.499c-9.086,0.019-18.096,1.661-26.605,4.849
			c-1.46-21.935-19.678-38.982-41.661-38.982s-40.202,17.046-41.661,38.982c-8.509-3.188-17.519-4.831-26.606-4.849
			c-2.263-0.001-4.434,0.898-6.035,2.499c-1.6,1.6-2.499,3.771-2.499,6.035v93.867c0.055,39.087,29.426,71.913,68.267,76.297v63.003
			c-21.691-38.754-55.376-69.42-95.991-87.387c-2.884-1.259-6.227-0.829-8.698,1.119s-3.67,5.099-3.118,8.197
			c0.508,2.864,13.47,69.733,107.808,122.956v20.615h-232.95v-20.615c94.338-53.223,107.3-120.092,107.808-122.956
			c0.551-3.098-0.647-6.249-3.118-8.197c-2.471-1.948-5.814-2.379-8.698-1.12c-40.615,17.967-74.3,48.633-95.991,87.387V212.83
			c38.841-4.383,68.212-37.209,68.267-76.297V42.667c0.001-2.263-0.898-4.434-2.499-6.035c-1.6-1.6-3.771-2.499-6.035-2.499
			c-9.087,0.019-18.097,1.661-26.605,4.849C170.569,17.349,152.716,0.644,130.992,0c-21.712,0.642-39.56,17.33-41.657,38.95
			c-8.517-3.169-17.53-4.8-26.618-4.817c-2.263-0.001-4.434,0.898-6.035,2.499c-1.6,1.6-2.499,3.771-2.499,6.035V94.55
			c0,4.713,3.821,8.533,8.533,8.533s8.533-3.821,8.533-8.533v-8.543c29.361,4.119,51.202,29.239,51.2,58.889v50.766
			c-20.835-2.978-38.562-16.711-46.65-36.142c-1.82-4.349-6.822-6.399-11.171-4.579c-4.349,1.82-6.399,6.822-4.579,11.171
			c10.769,25.733,34.675,43.579,62.408,46.587v63.121c-21.691-38.749-55.373-69.41-95.983-87.375
			c-2.884-1.259-6.227-0.829-8.698,1.12c-2.471,1.948-3.67,5.099-3.118,8.197c0.508,2.864,13.462,69.733,107.8,122.956v20.615H76.8
			c-18.843,0.02-34.113,15.29-34.133,34.133H8.533c-2.263-0.001-4.434,0.898-6.035,2.499S-0.001,381.737,0,384v34.133
			c-0.001,2.263,0.898,4.434,2.499,6.035c1.6,1.6,3.771,2.499,6.035,2.499h0.811l7.765,77.65c0.436,4.363,4.107,7.684,8.491,7.683
			h460.8c4.384,0.001,8.056-3.321,8.492-7.683l7.764-77.65h0.811c2.263,0.001,4.434-0.898,6.035-2.499
			c1.6-1.6,2.499-3.771,2.499-6.035V384c0.001-2.263-0.898-4.434-2.499-6.035C507.901,376.365,505.73,375.466,503.467,375.467z
			 M473.758,213.53c-16.951,33.664-42.941,61.942-75.058,81.667C415.31,261.298,441.379,232.934,473.758,213.53z M288.25,213.53
			c32.378,19.404,58.447,47.766,75.058,81.662C331.193,275.467,305.203,247.191,288.25,213.53L288.25,213.53z M389.542,195.659
			v-50.592c-0.047-29.713,21.786-54.927,51.2-59.129v50.596C440.703,166.213,418.911,191.378,389.542,195.659L389.542,195.659z
			 M440.742,68.775c-17.329,1.905-33.492,9.658-45.825,21.98c-1.021,1.028-1.933,2.131-2.888,3.204
			c6.656-22.33,25.658-38.772,48.712-42.15V68.775z M381.05,17.068c1.242,0.005,23.501,0.613,25.374,30.164
			c-10.745,7.275-19.485,17.137-25.416,28.678c-5.932-11.543-14.675-21.407-25.422-28.682
			C357.4,18.544,378.411,17.121,381.05,17.068z M369.99,93.965c-0.969-1.09-1.894-2.209-2.931-3.253
			c-12.325-12.303-28.473-20.041-45.783-21.939V51.808C344.332,55.187,363.336,71.632,369.99,93.965z M321.275,136.533V85.938
			c29.414,4.202,51.247,29.417,51.2,59.129v50.592C343.105,191.378,321.313,166.213,321.275,136.533z M223.758,213.517
			c-16.972,33.695-42.995,61.995-75.15,81.729C165.204,261.293,191.314,232.897,223.758,213.517L223.758,213.517z M38.233,213.525
			c32.384,19.403,58.456,47.769,75.067,81.671C81.182,275.468,55.189,247.189,38.233,213.525L38.233,213.525z M139.525,195.659
			v-50.592c-0.047-29.713,21.786-54.927,51.2-59.129v50.596C190.687,166.213,168.895,191.378,139.525,195.659L139.525,195.659z
			 M190.725,68.775c-17.329,1.905-33.492,9.658-45.825,21.98c-1.021,1.028-1.933,2.131-2.888,3.205
			c6.655-22.33,25.658-38.773,48.713-42.151V68.775z M131.033,17.068c1.242,0.005,23.501,0.613,25.374,30.164
			c-10.717,7.255-19.441,17.085-25.372,28.587c-3.64-7.102-8.364-13.593-14.002-19.24c-3.515-3.485-7.353-6.63-11.461-9.391
			C107.402,18.541,128.396,17.121,131.033,17.068z M71.25,68.773V51.804c23.126,3.297,42.193,19.801,48.773,42.215
			c-0.983-1.109-1.927-2.246-2.981-3.307C104.715,78.408,88.564,70.67,71.25,68.773L71.25,68.773z M76.8,358.4h358.4
			c9.421,0.011,17.056,7.645,17.067,17.067H59.733C59.744,366.046,67.379,358.411,76.8,358.4z M17.067,392.533h477.867V409.6H17.067
			V392.533z M54.733,494.933L123,426.667h44.133l-68.267,68.267H54.733z M98.867,426.667l-65.79,65.79l-6.577-65.79H98.867z
			 M478.675,494.933H123l68.267-68.267H485.5L478.675,494.933z"/>
		<circle style="fill:#438CFF;" cx="62.729" cy="128.683" r="8.533"/>
	</g>
</g>
<g>
</g>
<g>
</g>
<g>
</g>
<g>
</g>
<g>
</g>
<g>
</g>
<g>
</g>
<g>
</g>
<g>
</g>
<g>
</g>
<g>
</g>
<g>
</g>
<g>
</g>
<g>
</g>
<g>
</g>
</svg>
