<?xml version="1.0" encoding="iso-8859-1"?>
<!-- Generator: Adobe Illustrator 19.0.0, SVG Export Plug-In . SVG Version: 6.00 Build 0)  -->
<svg version="1.1" id="Capa_1" xmlns="http://www.w3.org/2000/svg" xmlns:xlink="http://www.w3.org/1999/xlink" x="0px" y="0px"
	 viewBox="0 0 512 512" style="enable-background:new 0 0 512 512;" xml:space="preserve">
<g>
	<g transform="translate(1 1)">
		<g>
			<path style="fill:#A2C0F5;" d="M69.059,212.845c-0.665-0.358-1.246-0.852-1.707-1.451c0.256-0.256,0.597-0.512,0.853-0.768
				C68.376,211.405,68.664,212.153,69.059,212.845z"/>
			<path style="fill:#A2C0F5;" d="M69.059,24.088c-0.395,0.692-0.682,1.44-0.853,2.219c-0.256-0.256-0.597-0.512-0.853-0.768
				C67.812,24.94,68.394,24.446,69.059,24.088z"/>
			<path style="fill:#A2C0F5;" d="M219.16,143.128c8.074,8.214,9.685,20.802,3.938,30.784c-5.747,9.982-17.441,14.911-28.599,12.053
				c2.81,10.949-1.882,22.446-11.551,28.302c-9.669,5.856-22.032,4.689-30.433-2.873c7.192-6.325,10.226-16.151,7.851-25.429
				c11.158,2.858,22.853-2.071,28.599-12.053c5.747-9.982,4.136-22.57-3.938-30.784c10.837-2.987,10.24-12.885,10.24-24.661
				s0.597-21.675-10.24-24.661c8.074-8.214,9.684-20.802,3.937-30.784c-5.746-9.982-17.441-14.911-28.598-12.053
				c2.376-9.278-0.658-19.105-7.851-25.429c8.402-7.562,20.765-8.729,30.433-2.873s14.361,17.354,11.551,28.303
				c11.158-2.857,22.852,2.072,28.599,12.053s4.137,22.57-3.937,30.784c11.091,3.063,18.773,13.155,18.773,24.661
				S230.251,140.065,219.16,143.128L219.16,143.128z"/>
		</g>
		<path style="fill:#FFFFFF;" d="M34.755,143.128c-8.074,8.214-9.685,20.802-3.938,30.784c5.747,9.982,17.441,14.911,28.599,12.053
			c-2.81,10.949,1.882,22.446,11.551,28.302c9.669,5.856,22.032,4.689,30.433-2.873c-7.192-6.325-10.226-16.151-7.851-25.429
			c-11.158,2.858-22.853-2.071-28.599-12.053c-5.747-9.982-4.136-22.57,3.938-30.784c-10.837-2.987-10.24-12.885-10.24-24.661
			s-0.597-21.675,10.24-24.661c-8.074-8.214-9.684-20.802-3.937-30.784c5.746-9.982,17.441-14.911,28.599-12.053
			c-2.376-9.278,0.658-19.105,7.851-25.429c-8.402-7.562-20.765-8.729-30.433-2.873S56.606,40.019,59.416,50.968
			c-11.158-2.857-22.852,2.072-28.599,12.053s-4.137,22.57,3.937,30.784c-11.091,3.063-18.773,13.155-18.773,24.661
			S23.663,140.065,34.755,143.128L34.755,143.128z"/>
		<g>
			<path style="fill:#A2C0F5;" d="M325.059,212.845c-0.665-0.358-1.246-0.852-1.707-1.451c0.256-0.256,0.597-0.512,0.853-0.768
				C324.376,211.405,324.664,212.153,325.059,212.845L325.059,212.845z"/>
			<path style="fill:#A2C0F5;" d="M325.059,24.088c-0.395,0.692-0.682,1.44-0.853,2.219c-0.256-0.256-0.597-0.512-0.853-0.768
				C323.812,24.94,324.394,24.446,325.059,24.088L325.059,24.088z"/>
		</g>
		<g>
			<path style="fill:#D3DFF2;" d="M186.978,143.128c6.599,8.92,7.817,20.726,3.178,30.805c-3.473,9.365-13.482,14.569-23.142,12.032
				c1.995,9.004-0.359,18.422-6.355,25.429c-0.207-0.256-0.484-0.512-0.691-0.768c-0.135,0.766-0.367,1.512-0.691,2.219
				l-0.069,0.085c-2.054,9.133-9.865,15.831-19.204,16.469c-15.62-2.699-30.752-7.703-44.901-14.848
				c-0.723-0.501-1.394-1.073-2.003-1.707c-0.324-0.707-0.556-1.453-0.691-2.219c-0.207,0.256-0.484,0.512-0.691,0.768
				c-5.996-7.007-8.35-16.425-6.355-25.429c-9.66,2.537-19.67-2.667-23.142-12.032c-4.639-10.079-3.421-21.885,3.178-30.805
				c-9.734-4.223-15.801-14.068-15.198-24.661c-0.603-10.593,5.464-20.438,15.198-24.661C58.799,84.885,57.581,73.079,62.22,63
				c3.473-9.365,13.482-14.569,23.142-12.032c-1.995-9.004,0.359-18.422,6.355-25.429c0.207,0.256,0.484,0.512,0.691,0.768
				c0.135-0.766,0.367-1.512,0.691-2.219c0.609-0.634,1.28-1.206,2.003-1.707c14.149-7.145,29.282-12.149,44.901-14.848
				c9.34,0.638,17.15,7.336,19.204,16.469l0.069,0.085c0.324,0.707,0.556,1.453,0.691,2.219c0.207-0.256,0.484-0.512,0.691-0.768
				c5.997,7.007,8.35,16.425,6.355,25.429c9.66-2.537,19.67,2.667,23.142,12.032c4.639,10.079,3.421,21.885-3.178,30.805
				c8.773,2.987,8.29,12.885,8.29,24.661S195.751,140.141,186.978,143.128z"/>
			<path style="fill:#D3DFF2;" d="M152.515,25.539c-0.256,0.256-0.597,0.512-0.853,0.768c-0.171-0.778-0.459-1.526-0.853-2.219
				C151.473,24.446,152.055,24.94,152.515,25.539L152.515,25.539z"/>
		</g>
		<g>
			<path style="fill:#A2C0F5;" d="M325.144,24.088c-0.395,0.692-0.682,1.44-0.853,2.219c-0.256-0.256-0.597-0.512-0.853-0.768
				C323.897,24.94,324.479,24.446,325.144,24.088L325.144,24.088z"/>
			<path style="fill:#A2C0F5;" d="M475.245,143.128c8.074,8.214,9.685,20.802,3.938,30.784
				c-5.747,9.982-17.441,14.911-28.599,12.053c2.81,10.949-1.882,22.446-11.551,28.302c-9.669,5.856-22.032,4.689-30.433-2.873
				c7.192-6.325,10.226-16.151,7.851-25.429c11.158,2.858,22.853-2.071,28.599-12.053c5.747-9.982,4.136-22.57-3.938-30.784
				c10.837-2.987,10.24-12.885,10.24-24.661s0.597-21.675-10.24-24.661c8.074-8.214,9.684-20.802,3.937-30.784
				s-17.441-14.911-28.599-12.053c2.376-9.278-0.658-19.105-7.851-25.429c8.402-7.562,20.765-8.729,30.433-2.873
				s14.361,17.354,11.551,28.303c11.158-2.857,22.852,2.072,28.599,12.053s4.137,22.57-3.937,30.784
				c11.091,3.063,18.773,13.155,18.773,24.661S486.337,140.065,475.245,143.128L475.245,143.128z"/>
		</g>
		<path style="fill:#FFFFFF;" d="M290.84,143.128c-8.074,8.214-9.685,20.802-3.938,30.784c5.747,9.982,17.441,14.911,28.599,12.053
			c-2.81,10.949,1.882,22.446,11.551,28.302c9.669,5.856,22.032,4.689,30.433-2.873c-7.192-6.325-10.226-16.151-7.851-25.429
			c-11.158,2.858-22.853-2.071-28.599-12.053c-5.747-9.982-4.136-22.57,3.938-30.784c-10.837-2.987-10.24-12.885-10.24-24.661
			s-0.597-21.675,10.24-24.661c-8.074-8.214-9.684-20.802-3.937-30.784s17.441-14.911,28.599-12.053
			c-2.376-9.278,0.658-19.105,7.851-25.429c-8.402-7.562-20.765-8.729-30.433-2.873c-9.669,5.856-14.361,17.354-11.551,28.303
			c-11.158-2.857-22.852,2.072-28.599,12.053s-4.137,22.57,3.937,30.784c-11.091,3.063-18.773,13.155-18.773,24.661
			S279.749,140.065,290.84,143.128L290.84,143.128z"/>
		<g>
			<path style="fill:#D3DFF2;" d="M443.064,143.128c6.599,8.92,7.817,20.726,3.178,30.805c-3.473,9.365-13.482,14.569-23.142,12.032
				c1.995,9.004-0.359,18.422-6.355,25.429c-0.207-0.256-0.484-0.512-0.691-0.768c-0.135,0.766-0.367,1.512-0.691,2.219
				l-0.069,0.085c-2.054,9.133-9.865,15.831-19.204,16.469c-15.62-2.699-30.752-7.703-44.902-14.848
				c-0.723-0.501-1.394-1.073-2.003-1.707c-0.324-0.707-0.556-1.453-0.691-2.219c-0.207,0.256-0.484,0.512-0.691,0.768
				c-5.996-7.007-8.35-16.425-6.355-25.429c-9.66,2.537-19.67-2.667-23.142-12.032c-4.639-10.079-3.421-21.885,3.178-30.805
				c-9.733-4.223-15.8-14.068-15.198-24.661c-0.603-10.593,5.464-20.438,15.198-24.661c-6.599-8.92-7.817-20.726-3.178-30.805
				c3.473-9.365,13.482-14.569,23.142-12.032c-1.995-9.004,0.359-18.422,6.355-25.429c0.207,0.256,0.484,0.512,0.691,0.768
				c0.135-0.766,0.367-1.512,0.691-2.219c0.609-0.634,1.28-1.206,2.003-1.707c14.149-7.145,29.282-12.149,44.901-14.848
				c9.34,0.638,17.15,7.336,19.204,16.469l0.069,0.085c0.324,0.707,0.556,1.453,0.691,2.219c0.207-0.256,0.484-0.512,0.691-0.768
				c5.997,7.007,8.35,16.425,6.355,25.429c9.66-2.537,19.67,2.667,23.142,12.032c4.639,10.079,3.421,21.885-3.178,30.805
				c8.773,2.987,8.29,12.885,8.29,24.661S451.837,140.141,443.064,143.128z"/>
			<path style="fill:#D3DFF2;" d="M408.6,25.539c-0.256,0.256-0.597,0.512-0.853,0.768c-0.171-0.778-0.459-1.526-0.853-2.219
				C407.558,24.446,408.14,24.94,408.6,25.539L408.6,25.539z"/>
			<path style="fill:#D3DFF2;" d="M152.515,211.395c-0.46,0.598-1.042,1.093-1.707,1.451c0.395-0.692,0.682-1.44,0.853-2.219
				C151.917,210.883,152.259,211.139,152.515,211.395z"/>
			<path style="fill:#D3DFF2;" d="M408.515,211.395c-0.46,0.598-1.042,1.093-1.707,1.451c0.395-0.692,0.682-1.44,0.853-2.219
				C407.917,210.883,408.259,211.139,408.515,211.395z"/>
			<path style="fill:#D3DFF2;" d="M127.158,313.211c0,0-13.541-67.704-94.785-67.704C32.373,245.507,59.455,326.752,127.158,313.211
				z"/>
			<path style="fill:#D3DFF2;" d="M127.158,313.211c0,0,13.541-67.704,94.785-67.704
				C221.944,245.507,194.862,326.752,127.158,313.211z"/>
			<path style="fill:#D3DFF2;" d="M383.158,313.211c0,0-13.541-67.704-94.785-67.704
				C288.373,245.507,315.455,326.752,383.158,313.211z"/>
			<path style="fill:#D3DFF2;" d="M383.158,313.211c0,0,13.541-67.704,94.785-67.704
				C477.944,245.507,450.862,326.752,383.158,313.211z"/>
		</g>
		<path style="fill:#FFFFFF;" d="M425.667,374.467V383H50.2v-8.533c-0.582-13.547,9.921-25.004,23.467-25.6H402.2
			C415.746,349.463,426.248,360.92,425.667,374.467z"/>
		<path style="fill:#A2C0F5;" d="M459.8,374.467V383H84.333v-8.533c-0.582-13.547,9.921-25.004,23.467-25.6h328.533
			C449.879,349.463,460.382,360.92,459.8,374.467z"/>
		<path style="fill:#D3DFF2;" d="M434.2,374.467V383H75.8v-8.533c-0.841-13.241,9.165-24.676,22.4-25.6h313.6
			C425.035,349.79,435.042,361.226,434.2,374.467z"/>
		<rect x="41.667" y="383" style="fill:#A2C0F5;" width="460.8" height="34.133"/>
		<rect x="7.533" y="383" style="fill:#FFFFFF;" width="460.8" height="34.133"/>
		<rect x="33.133" y="383" style="fill:#D3DFF2;" width="443.733" height="34.133"/>
		<polygon style="fill:#A2C0F5;" points="50.2,417.133 58.127,502.467 486.006,502.467 493.933,417.133 		"/>
		<polygon style="fill:#FFFFFF;" points="16.067,417.133 23.994,502.467 451.873,502.467 459.8,417.133 		"/>
		
			<linearGradient id="SVGID_1_" gradientUnits="userSpaceOnUse" x1="-49.6807" y1="651.3934" x2="-49.0896" y2="648.4381" gradientTransform="matrix(426.6667 0 0 -85.3333 21325.9961 55915.4727)">
			<stop  offset="0" style="stop-color:#DAE5F4"/>
			<stop  offset="0.1717" style="stop-color:#DAE5F4"/>
			<stop  offset="0.2" style="stop-color:#DAE5F4"/>
			<stop  offset="0.2006" style="stop-color:#EBECF4"/>
			<stop  offset="0.2013" style="stop-color:#F6F1F4"/>
			<stop  offset="0.2022" style="stop-color:#FDF4F4"/>
			<stop  offset="0.205" style="stop-color:#FFF5F4"/>
			<stop  offset="0.2522" style="stop-color:#FFF5F4"/>
			<stop  offset="0.26" style="stop-color:#FFF5F4"/>
			<stop  offset="0.26" style="stop-color:#DAE5F4"/>
			<stop  offset="0.3974" style="stop-color:#DAE5F4"/>
			<stop  offset="0.42" style="stop-color:#DAE5F4"/>
			<stop  offset="0.4206" style="stop-color:#EBECF4"/>
			<stop  offset="0.4212" style="stop-color:#F6F1F4"/>
			<stop  offset="0.4222" style="stop-color:#FDF4F4"/>
			<stop  offset="0.425" style="stop-color:#FFF5F4"/>
			<stop  offset="0.4894" style="stop-color:#FFF5F4"/>
			<stop  offset="0.5" style="stop-color:#FFF5F4"/>
			<stop  offset="0.5001" style="stop-color:#EEEEF4"/>
			<stop  offset="0.5002" style="stop-color:#E3E9F4"/>
			<stop  offset="0.5004" style="stop-color:#DCE6F4"/>
			<stop  offset="0.501" style="stop-color:#DAE5F4"/>
			<stop  offset="0.7062" style="stop-color:#DAE5F4"/>
			<stop  offset="0.74" style="stop-color:#DAE5F4"/>
			<stop  offset="0.741" style="stop-color:#FFF5F4"/>
			<stop  offset="0.8346" style="stop-color:#FFF5F4"/>
			<stop  offset="0.85" style="stop-color:#FFF5F4"/>
			<stop  offset="0.851" style="stop-color:#DAE5F4"/>
		</linearGradient>
		<polygon style="fill:url(#SVGID_1_);" points="41.667,417.133 49.287,502.467 460.713,502.467 468.333,417.133 		"/>
		<g>
			<ellipse style="fill:#A2C0F5;" cx="127.171" cy="117.784" rx="70.596" ry="70.161"/>
			<ellipse style="fill:#A2C0F5;" cx="383.171" cy="117.784" rx="70.596" ry="70.161"/>
		</g>
		<g>
			<ellipse style="fill:#D3DFF2;" cx="118.467" cy="117.784" rx="59.733" ry="70.161"/>
			<ellipse style="fill:#D3DFF2;" cx="374.467" cy="117.784" rx="59.733" ry="70.161"/>
		</g>
	</g>
	<g>
		<circle style="fill:#438CFF;" cx="17.067" cy="119.467" r="8.533"/>
		<path style="fill:#438CFF;" d="M503.467,375.467h-34.133c-0.02-18.843-15.29-34.113-34.133-34.133h-42.508V323.93
			c2.065,0.159,4.127,0.311,6.125,0.311c49.508,0,79-47.383,88.217-75.034c0.87-2.602,0.435-5.463-1.168-7.69
			s-4.18-3.545-6.924-3.544c-45.783,0-71.764,20.326-86.25,39.758v-39.957c7.855-2.091,14.718-6.893,19.375-13.555
			c10.128,4.792,21.963,4.309,31.667-1.292c9.704-5.601,16.042-15.608,16.958-26.775c11.163-0.922,21.164-7.259,26.764-16.959
			c5.6-9.7,6.087-21.53,1.303-31.658c9.212-6.377,14.708-16.867,14.708-28.071s-5.497-21.694-14.708-28.071
			c4.787-10.127,4.302-21.959-1.299-31.66s-15.604-16.038-26.768-16.956c-0.916-11.167-7.254-21.174-16.958-26.775
			c-9.704-5.601-21.539-6.084-31.667-1.292C405.693,5.499,395.203,0,384,0c-11.203,0-21.693,5.499-28.067,14.712
			c-10.128-4.792-21.963-4.309-31.667,1.292c-9.704,5.601-16.042,15.608-16.958,26.775c-11.166,0.914-21.173,7.25-26.774,16.953
			c-5.602,9.703-6.085,21.537-1.292,31.664c-9.212,6.377-14.708,16.867-14.708,28.071s5.497,21.694,14.708,28.071
			c-4.792,10.127-4.309,21.961,1.292,31.664c5.601,9.703,15.608,16.039,26.774,16.953c0.916,11.167,7.254,21.174,16.958,26.775
			c9.704,5.601,21.539,6.084,31.667,1.292c4.719,6.761,11.705,11.606,19.692,13.656v39.857
			c-14.486-19.432-40.467-39.758-86.25-39.758c-2.743-0.001-5.32,1.318-6.924,3.544c-1.604,2.226-2.038,5.088-1.168,7.69
			c9.217,27.654,38.708,75.034,88.217,75.034c1.997,0,4.06-0.152,6.125-0.311v17.402H136.692V323.93
			c2.065,0.159,4.127,0.311,6.125,0.311c49.508,0,79-47.383,88.217-75.034c0.87-2.602,0.435-5.463-1.168-7.69
			c-1.604-2.226-4.18-3.545-6.924-3.544c-45.783,0-71.764,20.326-86.25,39.758V237.78c7.858-2.082,14.719-6.889,19.358-13.564
			c10.129,4.804,21.97,4.327,31.68-1.275c9.71-5.602,16.05-15.615,16.961-26.788c11.172-0.909,21.185-7.248,26.786-16.957
			c5.601-9.709,6.077-21.55,1.272-31.677c9.216-6.367,14.717-16.853,14.717-28.054s-5.501-21.688-14.717-28.054
			c4.803-10.127,4.327-21.967-1.275-31.675c-5.601-9.708-15.613-16.047-26.784-16.958c-0.911-11.173-7.251-21.186-16.961-26.788
			c-9.71-5.602-21.552-6.078-31.681-1.274C149.685,5.501,139.2,0,128,0c-11.2,0-21.685,5.501-28.05,14.717
			c-10.129-4.804-21.97-4.327-31.68,1.275S52.22,31.606,51.308,42.779c-10.544,0.862-20.093,6.564-25.853,15.439
			s-7.079,19.918-3.572,29.899c1.273,3.631,3.137,7.027,5.517,10.05c1.871,2.406,4.884,3.63,7.902,3.212
			c3.019-0.418,5.586-2.414,6.733-5.238c1.148-2.823,0.702-6.044-1.169-8.45c-1.229-1.556-2.194-3.303-2.859-5.171
			c-2.114-5.963-0.765-12.607,3.509-17.273c4.274-4.666,10.774-6.591,16.899-5.006c2.912,0.733,5.995-0.119,8.118-2.243
			c2.123-2.124,2.974-5.207,2.24-8.119c-1.92-7.453,1.367-15.271,8.036-19.112s15.081-2.761,20.564,2.641
			c2.159,2.112,5.275,2.925,8.191,2.138c2.916-0.788,5.199-3.059,6.001-5.971c2.042-7.39,8.766-12.508,16.433-12.508
			s14.391,5.118,16.433,12.508c0.802,2.912,3.085,5.183,6.001,5.971s6.032-0.025,8.191-2.138c5.482-5.402,13.895-6.482,20.564-2.641
			s9.957,11.659,8.036,19.112c-0.734,2.912,0.117,5.996,2.24,8.119c2.123,2.124,5.206,2.976,8.119,2.243
			c7.452-1.922,15.27,1.364,19.112,8.033c3.842,6.668,2.763,15.08-2.637,20.563c-2.115,2.158-2.93,5.275-2.142,8.192
			c0.788,2.917,3.061,5.2,5.975,6c7.391,2.044,12.508,8.769,12.508,16.438s-5.118,14.393-12.508,16.438
			c-2.914,0.8-5.187,3.082-5.975,6c-0.788,2.917,0.027,6.034,2.142,8.192c5.401,5.483,6.481,13.895,2.639,20.564
			c-3.842,6.669-11.661,9.954-19.114,8.032c-2.912-0.732-5.995,0.12-8.118,2.243c-2.123,2.124-2.974,5.207-2.24,8.119
			c1.921,7.453-1.367,15.271-8.036,19.112c-6.669,3.841-15.082,2.76-20.564-2.641c-2.159-2.112-5.275-2.925-8.191-2.138
			c-2.916,0.788-5.199,3.059-6.001,5.971c-2.042,7.39-8.766,12.508-16.433,12.508s-14.391-5.118-16.433-12.508
			c-0.802-2.912-3.084-5.183-6.001-5.971c-2.916-0.788-6.032,0.025-8.191,2.138c-5.482,5.402-13.895,6.482-20.564,2.641
			c-6.669-3.841-9.957-11.659-8.036-19.112c0.734-2.912-0.117-5.996-2.24-8.12c-2.123-2.124-5.206-2.976-8.119-2.243
			c-6.131,1.586-12.637-0.344-16.91-5.018c-4.274-4.673-5.616-11.325-3.49-17.291c0.665-1.857,1.628-3.594,2.85-5.142
			c1.871-2.406,2.317-5.627,1.169-8.45c-1.148-2.823-3.714-4.82-6.733-5.238c-3.019-0.418-6.031,0.807-7.902,3.212
			c-2.374,3.015-4.235,6.401-5.508,10.021c-3.517,9.984-2.204,21.034,3.555,29.915c5.759,8.881,15.312,14.589,25.862,15.451
			c0.911,11.173,7.251,21.186,16.961,26.788s21.552,6.078,31.681,1.274c4.701,6.774,11.686,11.625,19.675,13.665v39.852
			c-14.486-19.432-40.467-39.758-86.25-39.758c-2.743-0.001-5.32,1.318-6.924,3.544c-1.604,2.226-2.038,5.088-1.168,7.69
			c9.217,27.654,38.708,75.034,88.217,75.034c1.997,0,4.06-0.152,6.125-0.311v17.402H76.8c-18.843,0.02-34.113,15.29-34.133,34.133
			H8.533c-2.263-0.001-4.434,0.898-6.035,2.499S-0.001,381.737,0,384v34.133c-0.001,2.263,0.898,4.434,2.499,6.035
			c1.6,1.6,3.771,2.499,6.035,2.499h0.81l7.765,77.65c0.436,4.363,4.107,7.685,8.491,7.683h460.8
			c4.384,0.001,8.056-3.321,8.492-7.683l7.765-77.65h0.81c2.263,0.001,4.434-0.898,6.035-2.499c1.6-1.6,2.499-3.771,2.499-6.035V384
			c0.001-2.263-0.898-4.434-2.499-6.035C507.901,376.365,505.73,375.466,503.467,375.467z M465.733,255.721
			c-9.317,18.912-31.392,53.533-70.442,51.342C406.716,277.649,434.235,257.592,465.733,255.721z M302.467,255.708
			c31.55,1.828,59.129,21.907,70.558,51.371C334.108,309.325,311.65,274.721,302.467,255.708L302.467,255.708z M367.516,209.35
			c-0.817-2.897-3.1-5.15-6.007-5.93c-2.908-0.779-6.011,0.03-8.168,2.13c-5.488,5.375-13.884,6.437-20.538,2.598
			c-6.654-3.839-9.936-11.64-8.029-19.081c0.744-2.916-0.103-6.009-2.23-8.139c-2.127-2.13-5.219-2.981-8.136-2.24
			c-7.44,1.916-15.246-1.362-19.088-8.015c-3.843-6.653-2.781-15.052,2.597-20.539c2.103-2.156,2.914-5.26,2.134-8.169
			c-0.78-2.909-3.035-5.191-5.934-6.006c-7.4-2.067-12.517-8.809-12.517-16.492s5.117-14.425,12.517-16.492
			c2.899-0.815,5.154-3.097,5.934-6.006c0.78-2.909-0.031-6.013-2.134-8.169c-5.377-5.486-6.439-13.882-2.599-20.535
			c3.84-6.653,11.643-9.931,19.082-8.019c2.918,0.743,6.012-0.107,8.141-2.237c2.129-2.13,2.978-5.224,2.234-8.142
			c-1.907-7.441,1.375-15.242,8.029-19.081c6.654-3.839,15.05-2.777,20.538,2.598c2.157,2.099,5.26,2.908,8.168,2.129
			c2.907-0.779,5.19-3.032,6.007-5.929c2.063-7.399,8.802-12.517,16.483-12.517c7.681,0,14.421,5.118,16.483,12.517
			c0.818,2.897,3.1,5.149,6.007,5.929c2.907,0.779,6.011-0.029,8.168-2.129c5.488-5.375,13.884-6.437,20.538-2.598
			c6.654,3.839,9.936,11.64,8.029,19.081c-0.744,2.918,0.105,6.012,2.234,8.142c2.129,2.13,5.223,2.98,8.141,2.237
			c7.439-1.911,15.241,1.368,19.081,8.02c3.84,6.652,2.778,15.048-2.597,20.534c-2.103,2.156-2.914,5.26-2.134,8.169
			c0.78,2.909,3.035,5.191,5.934,6.006c7.4,2.067,12.517,8.809,12.517,16.492s-5.117,14.425-12.517,16.492
			c-2.899,0.815-5.154,3.097-5.934,6.006c-0.78,2.909,0.031,6.013,2.134,8.169c5.373,5.489,6.432,13.885,2.591,20.536
			c-3.842,6.651-11.643,9.929-19.083,8.018c-2.917-0.741-6.009,0.111-8.136,2.24c-2.127,2.13-2.975,5.222-2.23,8.139
			c1.907,7.441-1.375,15.242-8.029,19.081c-6.654,3.839-15.05,2.777-20.538-2.598c-2.157-2.099-5.26-2.908-8.168-2.129
			c-2.907,0.779-5.19,3.032-6.007,5.929c-2.063,7.399-8.802,12.517-16.483,12.517C376.319,221.867,369.579,216.749,367.516,209.35
			L367.516,209.35z M209.733,255.721c-9.317,18.912-31.358,53.533-70.442,51.342C150.716,277.649,178.235,257.592,209.733,255.721z
			 M46.467,255.708c31.55,1.828,59.129,21.907,70.558,51.371C78.108,309.325,55.65,274.721,46.467,255.708z M76.8,358.4h358.4
			c9.421,0.011,17.056,7.645,17.067,17.067H59.733C59.744,366.046,67.379,358.411,76.8,358.4z M17.067,392.533h477.867V409.6H17.067
			V392.533z M54.733,494.933L123,426.667h44.133l-68.267,68.267H54.733z M98.867,426.667l-65.79,65.79l-6.577-65.79H98.867z
			 M478.675,494.933H123l68.267-68.267H485.5L478.675,494.933z"/>
		<path style="fill:#438CFF;" d="M128.158,197.475c43.404-0.238,78.419-35.575,78.26-78.98s-35.432-78.484-78.836-78.405
			c-43.405,0.079-78.549,35.288-78.549,78.693C49.201,162.343,84.598,197.547,128.158,197.475L128.158,197.475z M128.158,57.158
			c33.978,0.238,61.353,27.934,61.194,61.913s-27.791,61.418-61.77,61.339C93.603,180.33,66.1,152.763,66.1,118.783
			C66.26,84.646,94.021,57.079,128.158,57.158z"/>
		<path style="fill:#438CFF;" d="M463.283,118.783c0.176-32.043-18.991-61.028-48.544-73.412
			c-29.553-12.384-63.658-5.722-86.378,16.874c-22.72,22.596-29.569,56.663-17.348,86.284s41.101,48.946,73.145,48.946
			C427.718,197.547,463.116,162.343,463.283,118.783L463.283,118.783z M322.1,118.783c-0.176-25.14,14.832-47.902,38.008-57.645
			c23.176-9.743,49.94-4.541,67.779,13.174s23.229,44.442,13.648,67.685s-32.237,38.411-57.377,38.411
			C350.021,180.488,322.26,152.921,322.1,118.783L322.1,118.783z"/>
	</g>
</g>
<g>
</g>
<g>
</g>
<g>
</g>
<g>
</g>
<g>
</g>
<g>
</g>
<g>
</g>
<g>
</g>
<g>
</g>
<g>
</g>
<g>
</g>
<g>
</g>
<g>
</g>
<g>
</g>
<g>
</g>
</svg>
