<?xml version="1.0" encoding="iso-8859-1"?>
<!-- Generator: Adobe Illustrator 19.0.0, SVG Export Plug-In . SVG Version: 6.00 Build 0)  -->
<svg version="1.1" id="Capa_1" xmlns="http://www.w3.org/2000/svg" xmlns:xlink="http://www.w3.org/1999/xlink" x="0px" y="0px"
	 viewBox="0 0 512 512" style="enable-background:new 0 0 512 512;" xml:space="preserve">
<g>
	<g transform="translate(1 1)">
		<path style="fill:#7FAAF8;" d="M442.733,459.8v25.6c0.419,8.936-6.43,16.545-15.36,17.067h-276.48
			c-8.93-0.521-15.779-8.131-15.36-17.067v-25.6H442.733z"/>
		<path style="fill:#FFFFFF;" d="M408.6,459.8v25.6c0.419,8.936-6.43,16.545-15.36,17.067H116.76
			c-8.93-0.521-15.779-8.131-15.36-17.067v-25.6H408.6z"/>
		<path style="fill:#D3DFF2;" d="M417.133,459.8v25.6c0.717,8.568-5.532,16.142-14.08,17.067h-253.44
			c-8.548-0.924-14.797-8.499-14.08-17.067v-25.6H417.133z"/>
		<path style="fill:#A2C0F5;" d="M442.733,434.2v34.133H116.915c-0.033-13.573,1.887-27.081,5.702-40.107
			c8.115-31.472,11.681-63.944,10.589-96.427c0-55.04-20.364-117.163-34.781-154.368c-9.272-23.804-14.05-49.121-14.091-74.667
			V7.533h219.927v84.821c0.112,24.832-4.219,49.483-12.788,72.789c-16.225,42.191-22.982,87.432-19.793,132.523
			c1.448,17.106,7.5,33.501,17.513,47.445c13.152,16.899,30.836,29.714,50.99,36.949c3.009,1.217,6.082,2.27,9.204,3.157
			c3.014,1.024,5.947,1.792,8.96,2.56c3.584,0.939,7.168,1.707,10.833,2.304c1.14,0.256,2.199,0.427,3.34,0.597
			c1.711,0.256,3.339,0.512,5.05,0.683c0.538,0.099,1.083,0.156,1.629,0.171c3.91,0.512,7.819,0.853,11.729,1.365h0.082
			c3.311,0.367,6.601,0.909,9.856,1.621c1.185,0.166,2.356,0.422,3.503,0.768c2.281,0.597,4.48,1.28,6.761,2.048
			c2.806,0.977,5.553,2.117,8.227,3.413C433.12,406.242,442.306,419.386,442.733,434.2z"/>
		<path style="fill:#FFFFFF;" d="M144.067,331.8c0,51.2-6.144,80.896-11.093,96.427c-3.992,12.994-6.005,26.514-5.973,40.107h-25.6
			c-0.032-13.593,1.982-27.113,5.973-40.107c4.949-15.531,11.093-45.227,11.093-96.427c0-55.04-21.333-117.163-36.437-154.368
			c-9.693-23.703-14.706-49.058-14.763-74.667V7.533h25.6v95.232c0.056,25.608,5.069,50.964,14.763,74.667
			c18.071,42.589,30.022,87.522,35.499,133.461C143.725,317.976,144.067,324.973,144.067,331.8z"/>
		
			<linearGradient id="SVGID_1_" gradientUnits="userSpaceOnUse" x1="-50.0397" y1="651.5641" x2="-48.8291" y2="650.7122" gradientTransform="matrix(324.2667 0 0 -460.8 16257.1963 300310.1563)">
			<stop  offset="0" style="stop-color:#DAE5F4"/>
			<stop  offset="0.1717" style="stop-color:#DAE5F4"/>
			<stop  offset="0.2" style="stop-color:#DAE5F4"/>
			<stop  offset="0.2006" style="stop-color:#EBECF4"/>
			<stop  offset="0.2013" style="stop-color:#F6F1F4"/>
			<stop  offset="0.2022" style="stop-color:#FDF4F4"/>
			<stop  offset="0.205" style="stop-color:#FFF5F4"/>
			<stop  offset="0.2522" style="stop-color:#FFF5F4"/>
			<stop  offset="0.26" style="stop-color:#FFF5F4"/>
			<stop  offset="0.26" style="stop-color:#DAE5F4"/>
			<stop  offset="0.3974" style="stop-color:#DAE5F4"/>
			<stop  offset="0.42" style="stop-color:#DAE5F4"/>
			<stop  offset="0.4206" style="stop-color:#EBECF4"/>
			<stop  offset="0.4212" style="stop-color:#F6F1F4"/>
			<stop  offset="0.4222" style="stop-color:#FDF4F4"/>
			<stop  offset="0.425" style="stop-color:#FFF5F4"/>
			<stop  offset="0.4894" style="stop-color:#FFF5F4"/>
			<stop  offset="0.5" style="stop-color:#FFF5F4"/>
			<stop  offset="0.5001" style="stop-color:#EEEEF4"/>
			<stop  offset="0.5002" style="stop-color:#E3E9F4"/>
			<stop  offset="0.5004" style="stop-color:#DCE6F4"/>
			<stop  offset="0.501" style="stop-color:#DAE5F4"/>
			<stop  offset="0.7062" style="stop-color:#DAE5F4"/>
			<stop  offset="0.74" style="stop-color:#DAE5F4"/>
			<stop  offset="0.741" style="stop-color:#FFF5F4"/>
			<stop  offset="0.8346" style="stop-color:#FFF5F4"/>
			<stop  offset="0.85" style="stop-color:#FFF5F4"/>
			<stop  offset="0.851" style="stop-color:#DAE5F4"/>
		</linearGradient>
		<path style="fill:url(#SVGID_1_);" d="M417.133,434.2v34.133H127c-0.032-13.593,1.982-27.113,5.973-40.107
			c4.949-15.531,11.093-45.227,11.093-96.427c0-6.827-0.341-13.824-0.939-20.907c-5.477-45.939-17.428-90.872-35.499-133.461
			c-9.693-23.703-14.706-49.058-14.763-74.667V7.533h179.2v84.821c0.107,24.886-4.436,49.573-13.397,72.789
			c-16.965,42.005-24.059,87.344-20.736,132.523c0.171,2.133,0.512,4.267,0.853,6.4c2.345,14.919,8.356,29.022,17.493,41.045
			c14.01,17.059,32.514,29.858,53.419,36.949c3.158,1.218,6.376,2.272,9.643,3.157c3.157,1.024,6.229,1.792,9.387,2.56
			c3.755,0.939,7.509,1.707,11.349,2.304c1.195,0.256,2.304,0.427,3.499,0.597c1.792,0.256,3.499,0.512,5.291,0.683
			c0.564,0.099,1.134,0.156,1.707,0.171c4.096,0.512,8.192,0.853,12.288,1.365h0.085c3.467,0.367,6.913,0.908,10.325,1.621
			c1.24,0.165,2.467,0.422,3.669,0.768c2.389,0.597,4.693,1.28,7.083,2.048c2.935,0.975,5.812,2.114,8.619,3.413
			C406.823,405.917,416.49,419.122,417.133,434.2L417.133,434.2z"/>
		<rect x="92.867" y="7.533" style="fill:#A2C0F5;" width="204.8" height="68.267"/>
		<rect x="92.867" y="7.533" style="fill:#D3DFF2;" width="179.2" height="68.267"/>
	</g>
	<g>
		<path style="fill:#438CFF;" d="M118.175,307.105c4.66-0.7,7.871-5.046,7.17-9.707c-0.7-4.66-5.046-7.871-9.706-7.171
			c-4.66,0.7-7.871,5.046-7.171,9.706c0.336,2.238,1.548,4.251,3.368,5.596C113.657,306.875,115.937,307.442,118.175,307.105z"/>
		<path style="fill:#438CFF;" d="M405.608,388.008c-2.232-0.559-4.446-0.878-6.666-1.262c-0.178-0.011-0.346-0.099-0.524-0.099
			c-4.687-0.787-9.344-1.391-13.884-1.86c-2.667-0.275-5.333-0.55-8.258-0.921c-1.517-0.142-2.967-0.358-4.792-0.621
			c-11.001-1.628-21.807-4.374-32.25-8.196c-19.375-6.567-36.545-18.388-49.592-34.146c-9.457-12.527-15.214-27.454-16.617-43.088
			c-3.247-43.837,3.663-87.832,20.192-128.563c9.367-24.203,14.11-49.948,13.983-75.9V8.533c0.001-2.263-0.898-4.434-2.499-6.035
			c-1.6-1.6-3.771-2.499-6.035-2.499h-230.4c-2.263-0.001-4.434,0.898-6.035,2.499c-1.6,1.6-2.499,3.771-2.499,6.035v95.233
			c0.031,26.711,5.259,53.161,15.392,77.875c11.388,27.671,20.58,56.195,27.492,85.308c1.057,4.588,5.629,7.452,10.218,6.402
			c4.589-1.051,7.46-5.62,6.415-10.21c-7.082-30.015-16.548-59.417-28.308-87.925c-9.306-22.673-14.11-46.941-14.142-71.45V85.333
			h213.333v8.021c0.128,23.833-4.223,47.478-12.825,69.704c-17.498,43.241-24.776,89.939-21.267,136.454
			c1.719,18.803,8.674,36.749,20.075,51.8c15,18.313,34.812,32.078,57.208,39.746c1.454,0.541,2.958,1.012,4.439,1.514
			L309.7,420.634c-2.188,2.149-3.055,5.307-2.27,8.271s3.1,5.28,6.065,6.065c2.965,0.785,6.122-0.082,8.271-2.27l34.916-34.912
			c4.076,0.885,8.252,1.707,12.684,2.395c1.775,0.258,3.5,0.504,5.025,0.646c1.891,0.24,3.787,0.432,5.683,0.632L360.9,420.634
			c-2.188,2.149-3.055,5.307-2.27,8.271c0.785,2.965,3.1,5.28,6.065,6.065c2.965,0.785,6.122-0.082,8.271-2.27l28.194-28.19
			c0.114,0.028,0.234,0.037,0.348,0.065c12.583,3.092,33.692,11.179,33.692,30.625v25.6H111.233
			c0.582-9.839,2.353-19.57,5.275-28.983C121.75,415.367,128,384.833,128,332.8c0-4.713-3.82-8.533-8.533-8.533
			s-8.533,3.82-8.533,8.533c0,49.837-5.808,78.537-10.692,93.854c-4.251,13.81-6.4,28.18-6.375,42.629l0.005,0.026l-0.005,0.024
			V486.4c0.015,14.132,11.468,25.585,25.6,25.6h307.2c14.132-0.015,25.585-11.468,25.6-25.6v-51.2
			C452.267,412.492,435.25,395.287,405.608,388.008z M153.6,17.067h17.067v51.2H153.6V17.067z M136.533,68.267h-17.067v-51.2h17.067
			V68.267z M187.733,17.067H204.8v51.2h-17.067V17.067z M221.867,17.067h17.067v51.2h-17.067V17.067z M76.8,17.067h25.6v51.2H76.8
			V17.067z M256,68.267v-51.2h34.133v51.2H256z M196.267,477.867H230.4v17.067h-34.133V477.867z M179.2,494.933h-34.133v-17.067
			H179.2V494.933z M247.467,477.867H281.6v17.067h-34.133V477.867z M298.667,477.867H332.8v17.067h-34.133V477.867z
			 M349.867,477.867H384v17.067h-34.133V477.867z M110.933,486.4v-8.533H128v17.067h-8.533
			C114.756,494.929,110.938,491.111,110.933,486.4L110.933,486.4z M435.2,486.4c-0.005,4.711-3.822,8.529-8.533,8.533h-25.6v-17.067
			H435.2V486.4z"/>
		<path style="fill:#438CFF;" d="M162.133,328.533V268.8c0-4.713-3.821-8.533-8.533-8.533s-8.533,3.82-8.533,8.533v59.733
			c0,4.713,3.82,8.533,8.533,8.533S162.133,333.246,162.133,328.533z"/>
		<path style="fill:#438CFF;" d="M230.4,328.533V268.8c0-4.713-3.821-8.533-8.533-8.533c-4.713,0-8.533,3.82-8.533,8.533v59.733
			c0,4.713,3.821,8.533,8.533,8.533C226.579,337.067,230.4,333.246,230.4,328.533z"/>
		<path style="fill:#438CFF;" d="M196.267,341.333V256c0-4.713-3.821-8.533-8.533-8.533c-4.713,0-8.533,3.821-8.533,8.533v85.333
			c0,4.713,3.821,8.533,8.533,8.533C192.446,349.867,196.267,346.046,196.267,341.333z"/>
	</g>
</g>
<g>
</g>
<g>
</g>
<g>
</g>
<g>
</g>
<g>
</g>
<g>
</g>
<g>
</g>
<g>
</g>
<g>
</g>
<g>
</g>
<g>
</g>
<g>
</g>
<g>
</g>
<g>
</g>
<g>
</g>
</svg>
