<?xml version="1.0" encoding="iso-8859-1"?>
<!-- Generator: Adobe Illustrator 19.0.0, SVG Export Plug-In . SVG Version: 6.00 Build 0)  -->
<svg version="1.1" id="Capa_1" xmlns="http://www.w3.org/2000/svg" xmlns:xlink="http://www.w3.org/1999/xlink" x="0px" y="0px"
	 viewBox="0 0 511.911 511.911" style="enable-background:new 0 0 511.911 511.911;" xml:space="preserve">
<g>
	<g transform="translate(2 1)">
		<path style="fill:#FFFFFF;" d="M57.689,348.778h349.867v17.067c0,9.426-7.641,17.067-17.067,17.067H74.756
			c-9.426,0-17.067-7.641-17.067-17.067V348.778z"/>
		<rect x="228.356" y="366.442" style="fill:#A2C0F5;" width="51.2" height="135.893"/>
		<rect x="228.356" y="366.442" style="fill:#D3DFF2;" width="25.6" height="135.893"/>
		<polygon style="fill:#A2C0F5;" points="416.089,195.178 416.089,348.778 100.356,348.778 100.356,195.178 258.222,48.404 
			391.163,171.967 		"/>
		
			<linearGradient id="SVGID_1_" gradientUnits="userSpaceOnUse" x1="-50.7379" y1="651.0926" x2="-49.9732" y2="650.3539" gradientTransform="matrix(290.1334 0 0 -300.3734 14861.0635 195726.0938)">
			<stop  offset="0" style="stop-color:#DAE5F4"/>
			<stop  offset="0.1717" style="stop-color:#DAE5F4"/>
			<stop  offset="0.2" style="stop-color:#DAE5F4"/>
			<stop  offset="0.2006" style="stop-color:#EBECF4"/>
			<stop  offset="0.2013" style="stop-color:#F6F1F4"/>
			<stop  offset="0.2022" style="stop-color:#FDF4F4"/>
			<stop  offset="0.205" style="stop-color:#FFF5F4"/>
			<stop  offset="0.2522" style="stop-color:#FFF5F4"/>
			<stop  offset="0.26" style="stop-color:#FFF5F4"/>
			<stop  offset="0.26" style="stop-color:#DAE5F4"/>
			<stop  offset="0.3974" style="stop-color:#DAE5F4"/>
			<stop  offset="0.42" style="stop-color:#DAE5F4"/>
			<stop  offset="0.4206" style="stop-color:#EBECF4"/>
			<stop  offset="0.4212" style="stop-color:#F6F1F4"/>
			<stop  offset="0.4222" style="stop-color:#FDF4F4"/>
			<stop  offset="0.425" style="stop-color:#FFF5F4"/>
			<stop  offset="0.4894" style="stop-color:#FFF5F4"/>
			<stop  offset="0.5" style="stop-color:#FFF5F4"/>
			<stop  offset="0.5001" style="stop-color:#EEEEF4"/>
			<stop  offset="0.5002" style="stop-color:#E3E9F4"/>
			<stop  offset="0.5004" style="stop-color:#DCE6F4"/>
			<stop  offset="0.501" style="stop-color:#DAE5F4"/>
			<stop  offset="0.7062" style="stop-color:#DAE5F4"/>
			<stop  offset="0.74" style="stop-color:#DAE5F4"/>
			<stop  offset="0.741" style="stop-color:#FFF5F4"/>
			<stop  offset="0.8346" style="stop-color:#FFF5F4"/>
			<stop  offset="0.85" style="stop-color:#FFF5F4"/>
			<stop  offset="0.851" style="stop-color:#DAE5F4"/>
		</linearGradient>
		<polygon style="fill:url(#SVGID_1_);" points="390.489,171.967 390.489,348.778 100.356,348.778 100.356,195.178 257.855,48.404 
					"/>
		<circle style="fill:#A2C0F5;" cx="253.956" cy="178.111" r="68.267"/>
		<g>
			<ellipse style="fill:#D3DFF2;" cx="241.156" cy="178.111" rx="55.467" ry="68.267"/>
			<circle style="fill:#D3DFF2;" cx="253.956" cy="178.111" r="42.667"/>
			<path style="fill:#D3DFF2;" d="M450.393,187.498c0.048,7.086-4.102,13.529-10.573,16.415c-6.472,2.886-14.038,1.668-19.277-3.103
				l-4.435-4.011L254.062,50.026L92.016,196.799l-4.435,4.011c-3.303,2.966-7.586,4.607-12.025,4.608
				c-4.735,0.026-9.282-1.849-12.622-5.205c-3.502-3.516-5.396-8.323-5.235-13.283c0.161-4.96,2.364-9.633,6.088-12.914
				L254.062,7.444l190.275,166.571C448.187,177.439,450.391,182.345,450.393,187.498L450.393,187.498z"/>
		</g>
		<path style="fill:#A2C0F5;" d="M100.356,348.778h349.867v17.067c0,9.426-7.641,17.067-17.067,17.067H117.422
			c-9.426,0-17.067-7.641-17.067-17.067V348.778z"/>
		<path style="fill:#D3DFF2;" d="M83.289,348.778h341.333v17.067c0,9.426-7.641,17.067-17.067,17.067h-307.2
			c-9.426,0-17.067-7.641-17.067-17.067V348.778z"/>
		<g>
			<polygon style="fill:#FFFFFF;" points="91.822,195.178 91.822,348.778 117.422,348.778 117.422,171.967 			"/>
			<path style="fill:#FFFFFF;" d="M91.993,196.799l-4.437,4.011c-3.306,2.966-7.591,4.607-12.032,4.608
				c-4.737,0.026-9.286-1.849-12.629-5.205c-3.466-3.535-5.335-8.333-5.174-13.281s2.339-9.614,6.027-12.916l12.629-11.093
				c-3.112,6.833-1.687,14.877,3.584,20.224c3.343,3.356,7.892,5.231,12.629,5.205c4.441-0.001,8.726-1.642,12.032-4.608
				l4.437-4.011L91.993,196.799z"/>
		</g>
		<path style="fill:#A2C0F5;" d="M416.089,196.799l4.437,4.011c3.306,2.966,7.591,4.607,12.032,4.608
			c4.737,0.026,9.286-1.849,12.629-5.205c3.466-3.535,5.335-8.333,5.174-13.281s-2.339-9.614-6.027-12.916l-12.629-11.093
			c3.112,6.833,1.687,14.877-3.584,20.224c-3.343,3.356-7.892,5.231-12.629,5.205c-4.441-0.001-8.726-1.642-12.032-4.608
			l-4.437-4.011L416.089,196.799z"/>
	</g>
	<g>
		<path style="fill:#438CFF;" d="M85.289,298.578H51.156c-4.713,0-8.533,3.82-8.533,8.533s3.821,8.533,8.533,8.533h8.533v25.6
			c-4.713,0-8.533,3.82-8.533,8.533v17.067c0.015,14.132,11.468,25.585,25.6,25.6h56.2l88.867,88.867v22.067
			c0,4.713,3.821,8.533,8.533,8.533h51.2c4.713,0,8.533-3.821,8.533-8.533v-22.067l88.867-88.867h56.2
			c14.132-0.015,25.585-11.468,25.6-25.6v-17.067c0.001-2.263-0.898-4.434-2.499-6.035c-1.6-1.6-3.771-2.499-6.035-2.499v-25.6
			h8.533c4.713,0,8.533-3.82,8.533-8.533s-3.82-8.533-8.533-8.533h-34.133v-84.911c11.921,3.777,24.856-1.328,30.984-12.228
			c6.129-10.9,3.77-24.604-5.651-32.827L261.576,2.024c-0.309-0.207-0.633-0.391-0.968-0.553c-0.471-0.34-0.977-0.629-1.509-0.862
			c-0.486-0.18-0.989-0.313-1.5-0.397c-1.051-0.275-2.155-0.281-3.209-0.015c-0.55,0.086-1.089,0.229-1.609,0.425
			c-0.512,0.228-0.999,0.508-1.454,0.834c-0.344,0.166-0.675,0.356-0.992,0.569L59.947,168.611
			c-9.556,8.179-11.998,21.972-5.832,32.935c6.166,10.963,19.221,16.04,31.174,12.122v8.964c0,4.713,3.821,8.533,8.533,8.533
			s8.533-3.82,8.533-8.533v-21.05l153.6-139.068l153.6,139.068v96.995h-307.2v-7.679c0-4.713-3.821-8.533-8.533-8.533
			s-8.533,3.82-8.533,8.533V298.578z M70.731,195.153c-1.836-1.837-2.829-4.353-2.742-6.949c0.087-2.596,1.245-5.04,3.2-6.751
			L255.956,19.783l184.767,161.669c2.533,2.223,3.68,5.632,3.006,8.934c-0.674,3.302-3.066,5.989-6.267,7.041
			c-3.201,1.052-6.721,0.308-9.222-1.95l-166.554-150.8c-0.346-0.244-0.71-0.461-1.09-0.649c-0.457-0.34-0.948-0.631-1.465-0.871
			c-0.51-0.181-1.036-0.311-1.572-0.389c-1.046-0.306-2.159-0.306-3.205,0c-0.535,0.077-1.062,0.207-1.571,0.389
			c-0.517,0.24-1.007,0.531-1.465,0.871c-0.38,0.187-0.745,0.404-1.091,0.649L83.672,195.474
			C79.963,198.833,74.269,198.692,70.731,195.153L70.731,195.153z M76.756,315.644h8.533v25.6h-8.533V315.644z M157.089,392.444
			h64.733v64.733L157.089,392.444z M273.022,494.844h-34.133v-102.4h34.133V494.844z M290.089,457.178v-64.733h64.733
			L290.089,457.178z M443.689,366.844c-0.005,4.711-3.822,8.529-8.533,8.533h-358.4c-4.71-0.006-8.527-3.823-8.533-8.533v-8.533
			h375.467V366.844z M324.222,341.244v-25.6h34.133v25.6H324.222z M307.156,341.244h-42.667v-25.6h42.667V341.244z M247.422,341.244
			h-42.667v-25.6h42.667V341.244z M187.689,341.244h-34.133v-25.6h34.133V341.244z M435.156,315.644v25.6h-8.533v-25.6H435.156z
			 M409.556,341.244h-34.133v-25.6h34.133V341.244z M136.489,315.644v25.6h-34.133v-25.6H136.489z"/>
		<path style="fill:#438CFF;" d="M332.756,179.111c0-42.415-34.385-76.8-76.8-76.8s-76.8,34.385-76.8,76.8s34.385,76.8,76.8,76.8
			C298.351,255.862,332.706,221.506,332.756,179.111L332.756,179.111z M255.956,238.844c-32.99,0-59.733-26.744-59.733-59.733
			s26.744-59.733,59.733-59.733s59.733,26.744,59.733,59.733C315.652,212.085,288.93,238.807,255.956,238.844L255.956,238.844z"/>
		<path style="fill:#438CFF;" d="M255.956,127.911c-28.277,0-51.2,22.923-51.2,51.2s22.923,51.2,51.2,51.2s51.2-22.923,51.2-51.2
			C307.125,150.847,284.22,127.942,255.956,127.911z M255.956,213.244c-18.851,0-34.133-15.282-34.133-34.133
			s15.282-34.133,34.133-34.133s34.133,15.282,34.133,34.133C290.067,197.953,274.798,213.223,255.956,213.244z"/>
		<path style="fill:#438CFF;" d="M238.889,264.444c-4.713,0-8.533,3.821-8.533,8.533s3.821,8.533,8.533,8.533h34.133
			c4.713,0,8.533-3.82,8.533-8.533s-3.82-8.533-8.533-8.533H238.889z"/>
		<circle style="fill:#438CFF;" cx="93.822" cy="256.764" r="8.533"/>
	</g>
</g>
<g>
</g>
<g>
</g>
<g>
</g>
<g>
</g>
<g>
</g>
<g>
</g>
<g>
</g>
<g>
</g>
<g>
</g>
<g>
</g>
<g>
</g>
<g>
</g>
<g>
</g>
<g>
</g>
<g>
</g>
</svg>
