<?xml version="1.0" encoding="iso-8859-1"?>
<!-- Generator: Adobe Illustrator 19.0.0, SVG Export Plug-In . SVG Version: 6.00 Build 0)  -->
<svg version="1.1" id="Capa_1" xmlns="http://www.w3.org/2000/svg" xmlns:xlink="http://www.w3.org/1999/xlink" x="0px" y="0px"
	 viewBox="0 0 512 512" style="enable-background:new 0 0 512 512;" xml:space="preserve">
<g>
	<g transform="translate(1 1)">
		<path style="fill:#FFFFFF;" d="M273.089,88.088c-3.948,3.392-6.181,8.364-6.095,13.568v4.693
			c-5.941-5.752-11.538-11.85-16.761-18.261c-3.948,3.392-6.181,8.364-6.095,13.568v33.877h7.619
			c4.447,0.279,7.843,4.083,7.619,8.533V203.8h-7.619c0,0,11.581,65.024,50.055,81.579c11.8,5.883,19.048,18.143,18.514,31.317
			V485.4c0.449,8.901-6.343,16.508-15.237,17.067H152.714c-8.895-0.559-15.687-8.166-15.237-17.067v-93.867
			c-0.262-18.61,1.397-37.197,4.952-55.467c1.114-5.649,2.539-11.233,4.267-16.725c7.695-24.405,22.323-38.741,36.57-58.112
			c7.474-10.883,12.085-23.473,13.409-36.608c0.305-1.877,2.285-20.736,1.752-20.821h-7.619v-59.733
			c-0.225-4.45,3.171-8.254,7.619-8.533h7.619v-25.6c0.449-8.901-6.343-16.508-15.237-17.067h-55.159
			c-3.387-0.405-6.228-2.744-7.276-5.99c-1.048-3.246-0.111-6.805,2.4-9.114l71.007-66.304c2.637-2.495,6.121-3.898,9.751-3.925
			h139.271c4.447,0.279,7.843,4.083,7.619,8.533v25.6c0.225,4.45-3.171,8.254-7.619,8.533h-30.475l-12.571,10.069l-1.6,1.28
			L273.089,88.088z"/>
		<path style="fill:#A2C0F5;" d="M366.953,316.696V485.4c-0.028,9.414-7.653,17.039-17.067,17.067h-25.6
			c9.414-0.028,17.039-7.652,17.067-17.067V340.333c0.301-14.439-7.784-27.746-20.736-34.133
			c-43.093-16.555-64.597-102.4-64.597-102.4h17.067v-59.733c-0.014-4.707-3.826-8.519-8.533-8.533h-8.533v-33.877
			c-0.02-5.353,2.516-10.394,6.827-13.568c5.892,6.452,12.161,12.55,18.773,18.261v29.184h8.533
			c4.707,0.014,8.519,3.826,8.533,8.533V203.8h-8.533c0,0,12.971,65.024,56.064,81.579
			C358.937,290.529,367.177,302.975,366.953,316.696z"/>
		
			<linearGradient id="SVGID_1_" gradientUnits="userSpaceOnUse" x1="-53.1478" y1="651.519" x2="-51.8357" y2="650.908" gradientTransform="matrix(230.4806 0 0 -494.9333 12377.0498 322573.625)">
			<stop  offset="0" style="stop-color:#DAE5F4"/>
			<stop  offset="0.1717" style="stop-color:#DAE5F4"/>
			<stop  offset="0.2" style="stop-color:#DAE5F4"/>
			<stop  offset="0.2006" style="stop-color:#EBECF4"/>
			<stop  offset="0.2013" style="stop-color:#F6F1F4"/>
			<stop  offset="0.2022" style="stop-color:#FDF4F4"/>
			<stop  offset="0.205" style="stop-color:#FFF5F4"/>
			<stop  offset="0.2522" style="stop-color:#FFF5F4"/>
			<stop  offset="0.26" style="stop-color:#FFF5F4"/>
			<stop  offset="0.26" style="stop-color:#DAE5F4"/>
			<stop  offset="0.3974" style="stop-color:#DAE5F4"/>
			<stop  offset="0.42" style="stop-color:#DAE5F4"/>
			<stop  offset="0.4206" style="stop-color:#EBECF4"/>
			<stop  offset="0.4212" style="stop-color:#F6F1F4"/>
			<stop  offset="0.4222" style="stop-color:#FDF4F4"/>
			<stop  offset="0.425" style="stop-color:#FFF5F4"/>
			<stop  offset="0.4894" style="stop-color:#FFF5F4"/>
			<stop  offset="0.5" style="stop-color:#FFF5F4"/>
			<stop  offset="0.5001" style="stop-color:#EEEEF4"/>
			<stop  offset="0.5002" style="stop-color:#E3E9F4"/>
			<stop  offset="0.5004" style="stop-color:#DCE6F4"/>
			<stop  offset="0.501" style="stop-color:#DAE5F4"/>
			<stop  offset="0.7062" style="stop-color:#DAE5F4"/>
			<stop  offset="0.74" style="stop-color:#DAE5F4"/>
			<stop  offset="0.741" style="stop-color:#FFF5F4"/>
			<stop  offset="0.8346" style="stop-color:#FFF5F4"/>
			<stop  offset="0.85" style="stop-color:#FFF5F4"/>
			<stop  offset="0.851" style="stop-color:#DAE5F4"/>
		</linearGradient>
		<path style="fill:url(#SVGID_1_);" d="M275.833,96.621c-3.948,3.392-6.181,8.364-6.095,13.568v33.877h7.619
			c4.447,0.279,7.843,4.083,7.619,8.533v59.733h-7.619c0,0,11.581,65.024,50.055,81.579c11.8,5.883,19.048,18.143,18.513,31.317
			v168.704c0.449,8.901-6.343,16.508-15.237,17.067H178.313c-8.895-0.559-15.687-8.166-15.237-17.067v-93.867
			c-0.262-18.61,1.397-37.197,4.952-55.467c1.114-5.649,2.539-11.233,4.267-16.725c7.695-24.405,22.323-38.741,36.57-58.112
			c7.474-10.883,12.085-23.473,13.409-36.608c0.305-1.877,2.285-20.736,1.752-20.821h-7.619V152.6
			c-0.225-4.45,3.171-8.254,7.619-8.533h7.619v-25.6c0.449-8.901-6.343-16.508-15.237-17.067h-55.159
			c-3.387-0.405-6.228-2.744-7.276-5.99s-0.111-6.805,2.4-9.114l71.007-66.304c2.637-2.495,6.121-3.898,9.751-3.925h139.271
			c4.447,0.279,7.843,4.083,7.619,8.533v25.6c0.225,4.45-3.171,8.254-7.619,8.533h-26.515l-25.6-8.533l7.469,19.883
			c9.813,24.013,23.477,46.265,40.455,65.877c5.942,6.912-1.143,17.664-8.838,13.568c-3.809-2.048-7.847-4.352-11.885-6.827
			c-20.062-12.286-37.911-27.864-52.798-46.08"/>
		<g>
			<path style="fill:#D3DFF2;" d="M142.014,336.493c-3.018,13.517-4.761,27.288-5.205,41.131
				c0.316-13.965,1.886-27.874,4.693-41.557C141.673,336.237,141.843,336.323,142.014,336.493z"/>
			<path style="fill:#D3DFF2;" d="M153.619,502.467h-1.877c-6.985-0.261-12.913-5.206-14.421-12.032
				C139.532,497.582,146.138,502.459,153.619,502.467z"/>
			<rect x="238.953" y="203.8" style="fill:#D3DFF2;" width="17.067" height="238.933"/>
		</g>
		<g>
			<path style="fill:#A2C0F5;" d="M221.886,442.733h51.2l0,0c0,9.426-7.641,17.067-17.067,17.067h-17.067
				C229.527,459.8,221.886,452.159,221.886,442.733L221.886,442.733z"/>
			<path style="fill:#A2C0F5;" d="M341.353,7.533V50.2l-14.08,10.069l-38.485,27.477l-0.085,0.085
				c-4.448,3.2-7.084,8.345-7.083,13.824v33.877h-23.552V93.123c-0.002-5.479,2.635-10.624,7.083-13.824l0.085-0.085l38.485-27.477
				l14.08-10.069V7.533H341.353z"/>
		</g>
		<path style="fill:#FFFFFF;" d="M317.801,7.533v8.533h-74.752c-3.986-0.001-7.849,1.387-10.923,3.925l-79.531,66.304
			c-1.963,1.615-3.092,4.029-3.072,6.571h-15.019c-3.594-0.004-6.802-2.258-8.024-5.638c-1.222-3.38-0.198-7.164,2.563-9.466
			l79.531-66.304c3.074-2.538,6.936-3.926,10.923-3.925H317.801z"/>
		<path style="fill:#D3DFF2;" d="M317.801,16.067v25.6l-14.08,10.069l-38.485,27.477l-0.085,0.085
			c-4.448,3.2-7.084,8.345-7.083,13.824v42.411h-44.715v-25.6c-0.023-9.416-7.651-17.044-17.067-17.067h-46.763
			c-0.02-2.542,1.109-4.956,3.072-6.571l79.531-66.304c3.074-2.538,6.936-3.926,10.923-3.925H317.801z"/>
		<path style="fill:#7FAAF8;" d="M298.686,144.067V203.8h-76.8v-59.733c0-4.693,2.88-8.533,6.4-8.533h64
			C295.806,135.533,298.686,139.373,298.686,144.067z"/>
		<path style="fill:#FFFFFF;" d="M273.086,144.067V203.8h-76.8v-59.733c0-4.693,2.88-8.533,6.4-8.533h64
			C270.206,135.533,273.086,139.373,273.086,144.067z"/>
		<path style="fill:#D3DFF2;" d="M273.086,144.067V203.8h-51.2v-59.733c0-4.693,1.92-8.533,4.267-8.533h42.667
			C271.166,135.533,273.086,139.373,273.086,144.067z"/>
		<g>
			<path style="fill:#A2C0F5;" d="M256.019,360.557v82.176h-17.067v-78.507C244.746,363.554,250.461,362.325,256.019,360.557
				L256.019,360.557z"/>
			<rect x="341.353" y="7.533" style="fill:#A2C0F5;" width="42.667" height="42.667"/>
		</g>
	</g>
	<g>
		<path style="fill:#438CFF;" d="M129.019,486.4c0.015,14.132,11.468,25.585,25.6,25.6h196.267
			c14.132-0.015,25.585-11.468,25.6-25.6V317.696c0.195-17.246-10.213-32.844-26.213-39.283
			c-28.733-11.04-42.905-47.828-48.201-65.562c3.614-1.015,6.12-4.298,6.147-8.051v-59.733c-0.009-9.422-7.645-17.057-17.067-17.067
			v-24.917c20.482,21.169,44.665,38.41,71.354,50.871c2.344,1.123,4.909,1.709,7.508,1.717c6.823-0.04,12.966-4.14,15.62-10.426
			c2.654-6.286,1.309-13.548-3.42-18.466c-17.82-18.331-32.411-39.544-43.154-62.742l6.025-4.303h31.4
			c9.422-0.009,17.057-7.645,17.067-17.067v-25.6C393.543,7.645,385.908,0.009,376.486,0H220.494
			c-5.983-0.005-11.779,2.084-16.383,5.904l-79.529,66.304c-5.514,4.604-7.559,12.166-5.115,18.921s8.852,11.26,16.036,11.271
			h61.783c4.71,0.006,8.527,3.823,8.533,8.533V128c-9.422,0.009-17.057,7.645-17.067,17.067V204.8
			c0.021,4.478,3.52,8.167,7.991,8.424c-0.481,4.609-1.094,9.759-1.332,11.189c-1.35,11.796-5.902,22.997-13.162,32.392
			c-3.546,4.308-7.117,8.363-10.617,12.333c-13.782,13.79-24.603,30.248-31.8,48.367c-1.942,5.661-3.577,11.424-4.897,17.261
			c-0.063,0.22-0.1,0.432-0.144,0.655c-2.948,13.021-4.733,26.279-5.334,39.617c-0.153,3.044,1.329,5.939,3.889,7.594
			c2.56,1.655,5.808,1.818,8.521,0.429c2.713-1.389,4.479-4.12,4.632-7.165c0.411-8.192,1.262-16.356,2.547-24.457
			c22.083,14.222,47.591,22.228,73.84,23.178v52.049c-4.713,0-8.533,3.821-8.533,8.533v17.067c0.015,14.132,11.468,25.585,25.6,25.6
			h17.067c14.132-0.015,25.585-11.468,25.6-25.6V435.2c0-4.713-3.821-8.533-8.533-8.533v-62.585
			c4.708-2.21,9.227-4.645,13.567-7.036c5.879-3.427,11.991-6.437,18.292-9.008c17.146-6.08,35.3-8.807,53.475-8.035V486.4
			c-0.006,4.71-3.823,8.527-8.533,8.533H154.619c-4.71-0.006-8.527-3.823-8.533-8.533v-42.667c0-4.713-3.821-8.533-8.533-8.533
			s-8.533,3.82-8.533,8.533V486.4z M257.019,352.547c-0.86,0.289-1.732,0.622-2.587,0.878c-4.721,1.487-9.567,2.544-14.479,3.158
			V213.333h17.067V352.547z M205.819,170.667h25.6v25.6h-25.6V170.667z M265.553,196.267h-17.067v-25.6h42.667v25.6H265.553z
			 M282.619,145.067h8.533v8.533h-42.667v-8.533H282.619z M369.823,138.537c-25.274-11.781-48.127-28.174-67.388-48.337
			l22.333-15.942c11.491,23.753,26.744,45.493,45.171,64.379L369.823,138.537z M376.498,42.667h-25.612v-25.6h25.6L376.498,42.667z
			 M197.286,85.333l-61.779-0.017l79.529-66.304c1.542-1.257,3.469-1.944,5.458-1.946h113.325v29.746L284.828,81.8
			c-0.175,0.125-0.362,0.275-0.542,0.429c-0.255,0.193-0.434,0.447-0.68,0.648l-0.083,0.073l-0.01,0.016
			c-5.956,4.802-9.421,12.039-9.428,19.689V128h-51.2v-17.067C222.87,96.801,211.418,85.349,197.286,85.333L197.286,85.333z
			 M214.353,145.067h17.067v8.533h-25.6v-8.533H214.353z M152.821,333.372c0.946-3.489,1.947-6.915,3.102-10.189
			c6.519-16.036,16.222-30.585,28.521-42.767c3.617-4.113,7.308-8.304,10.971-12.75c9.207-11.714,15.03-25.727,16.838-40.516
			c0.8-4.396,1.554-9.313,1.917-13.817h8.717v144.151C197.693,356.38,173.359,348.005,152.821,333.372z M265.553,452.267
			c-0.006,4.71-3.823,8.527-8.533,8.533h-17.067c-4.71-0.006-8.527-3.823-8.533-8.533v-8.533h34.133V452.267z M239.953,426.667
			V373.8c0.329-0.042,0.664-0.055,0.992-0.1c5.441-0.657,10.818-1.766,16.075-3.316v56.283H239.953z M299.898,332.075
			c-7.053,2.852-13.895,6.201-20.475,10.021c-1.818,0.999-3.578,1.954-5.337,2.897V213.333h10.346
			c4.838,18.079,21.063,66.158,59.754,81.025c9.402,3.897,15.45,13.163,15.233,23.338v5.25
			C339.181,322.204,318.984,325.301,299.898,332.075z"/>
		<circle style="fill:#438CFF;" cx="137.553" cy="409.6" r="8.533"/>
	</g>
</g>
<g>
</g>
<g>
</g>
<g>
</g>
<g>
</g>
<g>
</g>
<g>
</g>
<g>
</g>
<g>
</g>
<g>
</g>
<g>
</g>
<g>
</g>
<g>
</g>
<g>
</g>
<g>
</g>
<g>
</g>
</svg>
