<?xml version="1.0" encoding="iso-8859-1"?>
<!-- Generator: Adobe Illustrator 19.0.0, SVG Export Plug-In . SVG Version: 6.00 Build 0)  -->
<svg version="1.1" id="Capa_1" xmlns="http://www.w3.org/2000/svg" xmlns:xlink="http://www.w3.org/1999/xlink" x="0px" y="0px"
	 viewBox="0 0 512 512" style="enable-background:new 0 0 512 512;" xml:space="preserve">
<g>
	<g transform="translate(1 1)">
		<path style="fill:#A2C0F5;" d="M459.8,134.68c0.027,15.848-6.27,31.051-17.493,42.24L314.733,304.493h-25.6L416.707,176.92
			c23.324-23.33,23.324-61.15,0-84.48c-8.051-8.089-18.279-13.662-29.44-16.043c17.663-3.906,36.144,0.413,50.246,11.744
			S459.812,116.59,459.8,134.68L459.8,134.68z"/>
		<path style="fill:#FFFFFF;" d="M195.267,304.493L67.693,176.92c-23.324-23.33-23.324-61.15,0-84.48
			c3.488-3.473,7.385-6.511,11.605-9.045c-1.264,1.619-2.405,3.33-3.413,5.12c-5.674,9.27-8.658,19.936-8.619,30.805
			c-0.027,15.848,6.27,31.051,17.493,42.24l127.573,127.573L195.267,304.493z"/>
		<path style="fill:#D3DFF2;" d="M416.707,92.44c-8.051-8.089-18.279-13.662-29.44-16.043c-11.161,2.38-21.39,7.954-29.44,16.043
			l-43.093,43.093H195.267L152.173,92.44c-14.39-14.419-35.157-20.472-55.04-16.043c-6.28,1.365-12.301,3.728-17.835,6.997
			c-1.264,1.619-2.405,3.33-3.413,5.12c-5.674,9.27-8.658,19.936-8.619,30.805c-0.027,15.848,6.27,31.051,17.493,42.24
			l127.573,127.573h92.16l5.12-5.12L416.707,176.92C440.031,153.59,440.031,115.77,416.707,92.44z"/>
		<path style="fill:#A2C0F5;" d="M314.733,67.267v298.667H195.267V67.267C195.264,39.204,214.791,14.92,242.2,8.899
			c4.208-0.894,8.498-1.351,12.8-1.365c15.843-0.002,31.037,6.291,42.24,17.493S314.735,51.424,314.733,67.267L314.733,67.267z"/>
		<path style="fill:#D3DFF2;" d="M289.133,67.267v298.667h-93.867V67.267C195.264,39.204,214.791,14.92,242.2,8.899
			C269.604,14.928,289.126,39.207,289.133,67.267z"/>
		<path style="fill:#A2C0F5;" d="M400.067,340.333V357.4c0.492,8.85-6.217,16.453-15.059,17.067l-20.179,114.261
			c-0.932,7.555-7.156,13.349-14.758,13.739H194.062c-7.602-0.39-13.826-6.184-14.758-13.739l-20.179-114.261
			c-8.842-0.613-15.551-8.217-15.059-17.067v-17.067c-0.493-8.85,6.216-16.454,15.059-17.067h225.882
			C393.85,323.88,400.559,331.483,400.067,340.333z"/>
		<path style="fill:#FFFFFF;" d="M365.933,340.333V357.4c0.492,8.85-6.217,16.453-15.059,17.067l-20.179,114.261
			c-0.932,7.555-7.156,13.349-14.758,13.739H159.929c-7.602-0.39-13.826-6.184-14.758-13.739l-20.179-114.261
			c-8.842-0.613-15.551-8.217-15.059-17.067v-17.067c-0.493-8.85,6.216-16.454,15.059-17.067h225.882
			C359.717,323.88,366.426,331.483,365.933,340.333L365.933,340.333z"/>
		
			<linearGradient id="SVGID_1_" gradientUnits="userSpaceOnUse" x1="-49.6752" y1="651.3309" x2="-48.9149" y2="650.3171" gradientTransform="matrix(238.9675 0 0 -179.2 12034.8877 117022.6719)">
			<stop  offset="0" style="stop-color:#DAE5F4"/>
			<stop  offset="0.1717" style="stop-color:#DAE5F4"/>
			<stop  offset="0.2" style="stop-color:#DAE5F4"/>
			<stop  offset="0.2006" style="stop-color:#EBECF4"/>
			<stop  offset="0.2013" style="stop-color:#F6F1F4"/>
			<stop  offset="0.2022" style="stop-color:#FDF4F4"/>
			<stop  offset="0.205" style="stop-color:#FFF5F4"/>
			<stop  offset="0.2522" style="stop-color:#FFF5F4"/>
			<stop  offset="0.26" style="stop-color:#FFF5F4"/>
			<stop  offset="0.26" style="stop-color:#DAE5F4"/>
			<stop  offset="0.3974" style="stop-color:#DAE5F4"/>
			<stop  offset="0.42" style="stop-color:#DAE5F4"/>
			<stop  offset="0.4206" style="stop-color:#EBECF4"/>
			<stop  offset="0.4212" style="stop-color:#F6F1F4"/>
			<stop  offset="0.4222" style="stop-color:#FDF4F4"/>
			<stop  offset="0.425" style="stop-color:#FFF5F4"/>
			<stop  offset="0.4894" style="stop-color:#FFF5F4"/>
			<stop  offset="0.5" style="stop-color:#FFF5F4"/>
			<stop  offset="0.5001" style="stop-color:#EEEEF4"/>
			<stop  offset="0.5002" style="stop-color:#E3E9F4"/>
			<stop  offset="0.5004" style="stop-color:#DCE6F4"/>
			<stop  offset="0.501" style="stop-color:#DAE5F4"/>
			<stop  offset="0.7062" style="stop-color:#DAE5F4"/>
			<stop  offset="0.74" style="stop-color:#DAE5F4"/>
			<stop  offset="0.741" style="stop-color:#FFF5F4"/>
			<stop  offset="0.8346" style="stop-color:#FFF5F4"/>
			<stop  offset="0.85" style="stop-color:#FFF5F4"/>
			<stop  offset="0.851" style="stop-color:#DAE5F4"/>
		</linearGradient>
		<path style="fill:url(#SVGID_1_);" d="M374.467,340.333V357.4c0.406,8.951-6.469,16.562-15.415,17.067l-20.656,114.261
			c-1.045,7.633-7.409,13.421-15.107,13.739H186.711c-7.698-0.318-14.062-6.105-15.107-13.739l-20.656-114.261
			c-8.946-0.505-15.821-8.115-15.415-17.067v-17.067c-0.406-8.952,6.468-16.562,15.415-17.067h208.103
			C367.998,323.771,374.872,331.382,374.467,340.333L374.467,340.333z"/>
		<path style="fill:#A2C0F5;" d="M383,374.467l-19.058,114.261c-0.674,7.366-6.563,13.171-13.938,13.739H202.662
			c-7.375-0.568-13.264-6.373-13.938-13.739l-19.058-114.261H383z"/>
		<path style="fill:#FFFFFF;" d="M340.333,374.467l-19.058,114.261c-0.674,7.366-6.563,13.171-13.938,13.739H159.996
			c-7.375-0.568-13.264-6.373-13.938-13.739L127,374.467H340.333z"/>
		
			<linearGradient id="SVGID_2_" gradientUnits="userSpaceOnUse" x1="-49.6415" y1="651.0203" x2="-48.8812" y2="650.0064" gradientTransform="matrix(204.8 0 0 -128 10343.5986 83691.4688)">
			<stop  offset="0" style="stop-color:#DAE5F4"/>
			<stop  offset="0.1717" style="stop-color:#DAE5F4"/>
			<stop  offset="0.2" style="stop-color:#DAE5F4"/>
			<stop  offset="0.2006" style="stop-color:#EBECF4"/>
			<stop  offset="0.2013" style="stop-color:#F6F1F4"/>
			<stop  offset="0.2022" style="stop-color:#FDF4F4"/>
			<stop  offset="0.205" style="stop-color:#FFF5F4"/>
			<stop  offset="0.2522" style="stop-color:#FFF5F4"/>
			<stop  offset="0.26" style="stop-color:#FFF5F4"/>
			<stop  offset="0.26" style="stop-color:#DAE5F4"/>
			<stop  offset="0.3974" style="stop-color:#DAE5F4"/>
			<stop  offset="0.42" style="stop-color:#DAE5F4"/>
			<stop  offset="0.4206" style="stop-color:#EBECF4"/>
			<stop  offset="0.4212" style="stop-color:#F6F1F4"/>
			<stop  offset="0.4222" style="stop-color:#FDF4F4"/>
			<stop  offset="0.425" style="stop-color:#FFF5F4"/>
			<stop  offset="0.4894" style="stop-color:#FFF5F4"/>
			<stop  offset="0.5" style="stop-color:#FFF5F4"/>
			<stop  offset="0.5001" style="stop-color:#EEEEF4"/>
			<stop  offset="0.5002" style="stop-color:#E3E9F4"/>
			<stop  offset="0.5004" style="stop-color:#DCE6F4"/>
			<stop  offset="0.501" style="stop-color:#DAE5F4"/>
			<stop  offset="0.7062" style="stop-color:#DAE5F4"/>
			<stop  offset="0.74" style="stop-color:#DAE5F4"/>
			<stop  offset="0.741" style="stop-color:#FFF5F4"/>
			<stop  offset="0.8346" style="stop-color:#FFF5F4"/>
			<stop  offset="0.85" style="stop-color:#FFF5F4"/>
			<stop  offset="0.851" style="stop-color:#DAE5F4"/>
		</linearGradient>
		<path style="fill:url(#SVGID_2_);" d="M357.4,374.467l-20.328,114.261c-0.967,7.58-7.235,13.372-14.867,13.739H187.795
			c-7.632-0.367-13.9-6.159-14.867-13.739L152.6,374.467H357.4z"/>
	</g>
	<g>
		<path style="fill:#438CFF;" d="M141.667,443.558c3.381-0.696,6.009-3.359,6.66-6.749c0.651-3.39-0.804-6.837-3.686-8.736
			c-2.882-1.899-6.625-1.874-9.482,0.063c-2.857,1.936-4.266,5.403-3.57,8.784C132.539,441.536,137.051,444.508,141.667,443.558z"/>
		<path style="fill:#438CFF;" d="M352.792,87.408l-28.525,28.525V68.267C324.267,30.564,293.703,0,256,0
			s-68.267,30.564-68.267,68.267v47.667l-28.525-28.525c-26.66-26.662-69.887-26.662-96.548-0.002s-26.662,69.887-0.002,96.548
			l125.075,125.071v6.708H128c-14.132,0.015-25.585,11.468-25.6,25.6V358.4c0.039,11.316,7.517,21.258,18.378,24.435l4.147,20.598
			c0.596,2.995,2.746,5.444,5.639,6.421c2.893,0.977,6.088,0.335,8.378-1.686c2.29-2.02,3.326-5.11,2.717-8.102L138.421,384h139.646
			L167.203,494.864c-3.894-0.183-7.17-2.98-7.962-6.797l-4.183-21.079c-0.592-2.993-2.736-5.442-5.624-6.424
			c-2.888-0.982-6.081-0.348-8.375,1.663c-2.294,2.011-3.339,5.094-2.742,8.086l4.192,21.108
			c2.426,11.94,12.904,20.534,25.087,20.579h176.808c12.19-0.047,22.67-8.649,25.092-20.596l21.731-108.57
			c10.859-3.178,18.334-13.12,18.373-24.434v-17.067c-0.015-14.132-11.468-25.585-25.6-25.6h-59.733v-6.708l125.075-125.071
			c26.66-26.662,26.66-69.888-0.002-96.548C422.678,60.746,379.452,60.746,352.792,87.408L352.792,87.408z M74.725,171.888
			c-19.996-19.997-19.995-52.418,0.002-72.415s52.418-19.995,72.415,0.002l40.592,40.592v144.826L74.725,171.888z M128,366.933
			c-4.71-0.006-8.527-3.823-8.533-8.533v-17.067c0.006-4.71,3.823-8.527,8.533-8.533h73.267l-34.133,34.133H128z M352.767,488.038
			c-0.801,3.99-4.293,6.87-8.363,6.896H191.267L302.2,384h71.388L352.767,488.038z M392.533,341.333V358.4
			c-0.006,4.71-3.823,8.527-8.533,8.533H191.267L225.4,332.8H384C388.71,332.806,392.527,336.623,392.533,341.333z M204.8,315.733
			V68.267c0-28.277,22.923-51.2,51.2-51.2c28.277,0,51.2,22.923,51.2,51.2v247.467H204.8z M437.275,171.888L324.267,284.892V140.067
			l40.592-40.592c19.996-19.997,52.417-19.998,72.415-0.002C457.27,119.469,457.271,151.89,437.275,171.888L437.275,171.888z"/>
		<path style="fill:#438CFF;" d="M267.034,53.7l-2.5,2.5V42.667c0-4.713-3.821-8.533-8.533-8.533c-4.713,0-8.533,3.821-8.533,8.533
			V56.2l-2.5-2.5c-3.338-3.296-8.711-3.279-12.029,0.038c-3.317,3.317-3.334,8.691-0.038,12.029l17.067,17.067
			c2.431,2.438,6.092,3.17,9.273,1.855l0.027-0.005c0.928-0.403,1.776-0.97,2.503-1.675c0.08-0.074,0.186-0.097,0.264-0.176
			L279.1,65.766c3.296-3.338,3.279-8.711-0.038-12.029C275.745,50.421,270.372,50.404,267.034,53.7L267.034,53.7z"/>
		<path style="fill:#438CFF;" d="M267.034,121.967l-2.5,2.5v-13.534c0-4.713-3.821-8.533-8.533-8.533
			c-4.713,0-8.533,3.821-8.533,8.533v13.533l-2.5-2.5c-3.338-3.296-8.711-3.279-12.029,0.038s-3.334,8.691-0.038,12.029
			l17.067,17.067c2.431,2.438,6.092,3.17,9.273,1.855l0.027-0.005c0.928-0.403,1.776-0.97,2.503-1.674
			c0.08-0.074,0.186-0.097,0.264-0.176l17.067-17.067c3.296-3.338,3.279-8.711-0.038-12.029
			C275.745,118.687,270.372,118.671,267.034,121.967L267.034,121.967z"/>
		<path style="fill:#438CFF;" d="M267.034,190.234l-2.5,2.5V179.2c0-4.713-3.821-8.533-8.533-8.533
			c-4.713,0-8.533,3.821-8.533,8.533v13.533l-2.5-2.5c-3.338-3.296-8.711-3.279-12.029,0.038c-3.317,3.317-3.334,8.691-0.038,12.029
			l17.067,17.067c2.431,2.438,6.092,3.17,9.273,1.855l0.027-0.005c0.928-0.403,1.776-0.97,2.503-1.674
			c0.08-0.074,0.186-0.097,0.264-0.176L279.1,202.3c3.296-3.338,3.279-8.711-0.038-12.029
			C275.745,186.954,270.372,186.937,267.034,190.234L267.034,190.234z"/>
		<path style="fill:#438CFF;" d="M267.034,258.5l-2.5,2.5v-13.534c0-4.713-3.821-8.533-8.533-8.533
			c-4.713,0-8.533,3.821-8.533,8.533V261l-2.5-2.5c-3.338-3.296-8.711-3.279-12.029,0.038c-3.317,3.317-3.334,8.691-0.038,12.029
			l17.067,17.067c2.431,2.438,6.092,3.17,9.273,1.855l0.027-0.005c0.928-0.403,1.776-0.97,2.503-1.675
			c0.08-0.074,0.186-0.097,0.264-0.176l17.067-17.067c3.296-3.338,3.279-8.711-0.038-12.029
			C275.745,255.221,270.372,255.204,267.034,258.5L267.034,258.5z"/>
		<path style="fill:#438CFF;" d="M110.933,103.863c-4.713,0-8.533,3.821-8.533,8.533v3.537l-9.571-9.571
			c-2.155-2.156-5.297-2.997-8.242-2.208c-2.944,0.789-5.244,3.089-6.033,6.033c-0.789,2.944,0.053,6.086,2.208,8.242L90.333,128
			h-3.537c-4.713,0-8.533,3.821-8.533,8.533s3.821,8.533,8.533,8.533h24.137c1.022-0.018,2.032-0.222,2.98-0.602
			c0.277-0.113,0.547-0.241,0.809-0.384c0.642-0.322,1.239-0.725,1.779-1.198c0.227-0.184,0.444-0.38,0.65-0.587
			c0.632-0.669,1.15-1.438,1.533-2.274c0.032-0.071,0.088-0.124,0.118-0.196l0.015-0.024c0.371-0.941,0.569-1.94,0.586-2.952
			c0.004-0.111,0.064-0.204,0.064-0.315v-24.137C119.467,107.683,115.646,103.863,110.933,103.863z"/>
		<path style="fill:#438CFF;" d="M431.237,106.363c-1.6-1.601-3.77-2.5-6.033-2.5s-4.434,0.899-6.033,2.5l-9.571,9.571v-3.537
			c0-4.713-3.82-8.533-8.533-8.533s-8.533,3.821-8.533,8.533v24.137c0,0.112,0.06,0.204,0.064,0.315
			c0.017,1.011,0.216,2.011,0.586,2.952l0.015,0.024c0.03,0.072,0.086,0.125,0.118,0.196c0.384,0.837,0.902,1.605,1.533,2.274
			c0.206,0.207,0.423,0.403,0.65,0.587c0.539,0.474,1.137,0.877,1.779,1.198c0.262,0.143,0.532,0.271,0.809,0.384
			c0.949,0.38,1.958,0.584,2.98,0.602h24.137c4.713,0,8.533-3.821,8.533-8.533s-3.82-8.533-8.533-8.533h-3.538l9.571-9.571
			c1.601-1.6,2.5-3.77,2.5-6.033S432.838,107.962,431.237,106.363L431.237,106.363z"/>
	</g>
</g>
<g>
</g>
<g>
</g>
<g>
</g>
<g>
</g>
<g>
</g>
<g>
</g>
<g>
</g>
<g>
</g>
<g>
</g>
<g>
</g>
<g>
</g>
<g>
</g>
<g>
</g>
<g>
</g>
<g>
</g>
</svg>
