<?xml version="1.0" encoding="iso-8859-1"?>
<!-- Generator: Adobe Illustrator 19.0.0, SVG Export Plug-In . SVG Version: 6.00 Build 0)  -->
<svg version="1.1" id="Capa_1" xmlns="http://www.w3.org/2000/svg" xmlns:xlink="http://www.w3.org/1999/xlink" x="0px" y="0px"
	 viewBox="0 0 512 512" style="enable-background:new 0 0 512 512;" xml:space="preserve">
<g>
	<g transform="translate(1 17)">
		<polygon style="fill:#A2C0F5;" points="502.467,264.6 494.838,307.267 49.295,307.267 41.667,264.6 		"/>
		<polygon style="fill:#FFFFFF;" points="468.333,264.6 460.705,307.267 15.162,307.267 7.533,264.6 		"/>
		<polygon style="fill:#D3DFF2;" points="476.867,264.6 469.118,307.267 40.882,307.267 33.133,264.6 		"/>
		<path style="fill:#A2C0F5;" d="M494.275,307.267l-29.616,165.803c-1.074,7.507-7.386,13.158-14.966,13.397H94.782
			c-7.58-0.24-13.892-5.89-14.966-13.397L50.2,307.267H494.275z"/>
		<path style="fill:#FFFFFF;" d="M460.141,307.267l-29.616,165.803c-1.074,7.507-7.386,13.158-14.966,13.397H60.648
			c-7.58-0.24-13.892-5.89-14.966-13.397L16.067,307.267H460.141z"/>
		
			<linearGradient id="SVGID_1_" gradientUnits="userSpaceOnUse" x1="-49.7172" y1="635.6242" x2="-49.0531" y2="634.043" gradientTransform="matrix(426.6667 0 0 -179.2 21326.002 114139.4688)">
			<stop  offset="0" style="stop-color:#DAE5F4"/>
			<stop  offset="0.1717" style="stop-color:#DAE5F4"/>
			<stop  offset="0.2" style="stop-color:#DAE5F4"/>
			<stop  offset="0.2006" style="stop-color:#EBECF4"/>
			<stop  offset="0.2013" style="stop-color:#F6F1F4"/>
			<stop  offset="0.2022" style="stop-color:#FDF4F4"/>
			<stop  offset="0.205" style="stop-color:#FFF5F4"/>
			<stop  offset="0.2522" style="stop-color:#FFF5F4"/>
			<stop  offset="0.26" style="stop-color:#FFF5F4"/>
			<stop  offset="0.26" style="stop-color:#DAE5F4"/>
			<stop  offset="0.3974" style="stop-color:#DAE5F4"/>
			<stop  offset="0.42" style="stop-color:#DAE5F4"/>
			<stop  offset="0.4206" style="stop-color:#EBECF4"/>
			<stop  offset="0.4212" style="stop-color:#F6F1F4"/>
			<stop  offset="0.4222" style="stop-color:#FDF4F4"/>
			<stop  offset="0.425" style="stop-color:#FFF5F4"/>
			<stop  offset="0.4894" style="stop-color:#FFF5F4"/>
			<stop  offset="0.5" style="stop-color:#FFF5F4"/>
			<stop  offset="0.5001" style="stop-color:#EEEEF4"/>
			<stop  offset="0.5002" style="stop-color:#E3E9F4"/>
			<stop  offset="0.5004" style="stop-color:#DCE6F4"/>
			<stop  offset="0.501" style="stop-color:#DAE5F4"/>
			<stop  offset="0.7062" style="stop-color:#DAE5F4"/>
			<stop  offset="0.74" style="stop-color:#DAE5F4"/>
			<stop  offset="0.741" style="stop-color:#FFF5F4"/>
			<stop  offset="0.8346" style="stop-color:#FFF5F4"/>
			<stop  offset="0.85" style="stop-color:#FFF5F4"/>
			<stop  offset="0.851" style="stop-color:#DAE5F4"/>
		</linearGradient>
		<path style="fill:url(#SVGID_1_);" d="M468.333,307.267l-30.085,165.803c-1.153,7.559-7.559,13.205-15.204,13.397H86.956
			c-7.644-0.192-14.051-5.838-15.204-13.397L41.667,307.267H468.333z"/>
		<g>
			<rect x="220.867" y="264.6" style="fill:#A2C0F5;" width="34.133" height="42.667"/>
			<rect x="50.2" y="264.6" style="fill:#A2C0F5;" width="42.667" height="42.667"/>
			<path style="fill:#A2C0F5;" d="M95.512,295.491L95,295.235c-0.857-0.49-1.683-1.032-2.475-1.621
				c0.607-0.437,1.177-0.922,1.706-1.451C94.569,293.304,94.997,294.417,95.512,295.491L95.512,295.491z"/>
			<path style="fill:#A2C0F5;" d="M95.512,139.843c-0.514,1.074-0.942,2.186-1.28,3.328c-0.529-0.529-1.1-1.014-1.707-1.451
				c0.792-0.589,1.618-1.131,2.475-1.621L95.512,139.843z"/>
			<path style="fill:#A2C0F5;" d="M214.296,237.635c6.46,6.657,7.716,16.793,3.076,24.826c-4.641,8.032-14.05,12.007-23.044,9.734
				c2.177,8.59-1.348,17.613-8.771,22.452c-7.423,4.839-17.101,4.424-24.082-1.034c6.413-5.097,9.25-13.474,7.253-21.419
				c8.994,2.272,18.403-1.702,23.044-9.734c4.641-8.032,3.385-18.169-3.076-24.826c8.935-2.527,15.104-10.682,15.104-19.968
				c0-9.286-6.169-17.441-15.104-19.968c6.46-6.657,7.716-16.793,3.076-24.826c-4.641-8.032-14.05-12.007-23.044-9.734
				c1.996-7.944-0.841-16.322-7.253-21.419c6.981-5.457,16.659-5.873,24.082-1.033c7.423,4.839,10.948,13.863,8.771,22.452
				c8.994-2.272,18.403,1.702,23.044,9.734c4.641,8.032,3.385,18.169-3.076,24.826c8.935,2.527,15.104,10.682,15.104,19.968
				C229.4,226.952,223.231,235.108,214.296,237.635L214.296,237.635z"/>
			<path style="fill:#A2C0F5;" d="M334.445,338.157l-0.512-0.256c-0.857-0.491-1.683-1.032-2.475-1.621
				c0.607-0.437,1.178-0.922,1.707-1.451C333.503,335.971,333.931,337.084,334.445,338.157L334.445,338.157z"/>
			<path style="fill:#A2C0F5;" d="M334.445,182.509c-0.514,1.074-0.942,2.186-1.28,3.328c-0.529-0.529-1.1-1.014-1.707-1.451
				c0.792-0.589,1.618-1.131,2.475-1.621L334.445,182.509z"/>
			<path style="fill:#A2C0F5;" d="M453.229,280.301c6.461,6.657,7.716,16.793,3.076,24.826c-4.641,8.032-14.05,12.007-23.044,9.734
				c2.177,8.59-1.348,17.613-8.771,22.452c-7.423,4.839-17.101,4.424-24.082-1.034c6.413-5.097,9.25-13.474,7.253-21.419
				c8.994,2.272,18.403-1.702,23.044-9.734s3.385-18.169-3.076-24.826c8.935-2.527,15.104-10.682,15.104-19.968
				s-6.169-17.441-15.104-19.968c6.46-6.657,7.716-16.793,3.076-24.826s-14.05-12.007-23.044-9.734
				c1.996-7.944-0.841-16.322-7.253-21.419c6.981-5.457,16.659-5.873,24.082-1.033c7.423,4.839,10.948,13.863,8.771,22.452
				c8.994-2.272,18.403,1.702,23.044,9.734c4.641,8.032,3.385,18.169-3.076,24.826c8.935,2.527,15.104,10.682,15.104,19.968
				S462.165,277.774,453.229,280.301L453.229,280.301z"/>
		</g>
		<g>
			<path style="fill:#D3DFF2;" d="M188.696,237.635c6.46,6.657,7.716,16.793,3.076,24.826c-4.641,8.032-14.05,12.007-23.044,9.734
				c1.996,7.944-0.841,16.322-7.253,21.419c-0.607-0.437-1.178-0.922-1.707-1.451c-0.337,1.142-0.766,2.254-1.28,3.328
				c-3.421,7.215-10.703,11.803-18.688,11.776c-4.649,0.034-9.169-1.533-12.8-4.437c-3.468-2.698-5.98-6.437-7.168-10.667
				c-6.486,6.35-16.366,7.702-24.32,3.328c-0.514-1.074-0.943-2.186-1.28-3.328c-0.529,0.529-1.099,1.014-1.706,1.451
				c-6.413-5.097-9.25-13.474-7.253-21.419c-8.994,2.272-18.403-1.702-23.044-9.734c-4.641-8.032-3.385-18.169,3.076-24.826
				c-8.935-2.527-15.104-10.682-15.104-19.968c0-9.286,6.169-17.441,15.104-19.968c-6.46-6.657-7.716-16.793-3.076-24.826
				s14.05-12.007,23.044-9.734c-1.996-7.944,0.841-16.322,7.253-21.419c0.607,0.437,1.177,0.922,1.706,1.451
				c0.338-1.142,0.766-2.254,1.28-3.328c7.954-4.374,17.834-3.022,24.32,3.328c1.188-4.23,3.7-7.968,7.168-10.667
				c3.631-2.904,8.151-4.471,12.8-4.437c7.985-0.027,15.267,4.561,18.688,11.776c0.514,1.074,0.942,2.186,1.28,3.328
				c0.529-0.529,1.1-1.014,1.707-1.451c6.412,5.097,9.249,13.474,7.253,21.419c8.994-2.272,18.403,1.702,23.044,9.734
				c4.641,8.032,3.385,18.169-3.076,24.826c8.935,2.527,15.104,10.682,15.104,19.968C203.8,226.952,197.631,235.108,188.696,237.635
				z"/>
			<path style="fill:#D3DFF2;" d="M161.475,141.72c-0.607,0.437-1.178,0.922-1.707,1.451c-0.338-1.142-0.766-2.254-1.28-3.328
				l0.512,0.256C159.857,140.589,160.683,141.131,161.475,141.72z"/>
			<path style="fill:#D3DFF2;" d="M161.475,293.613c-0.792,0.589-1.618,1.131-2.475,1.621l-0.512,0.256
				c0.514-1.074,0.943-2.186,1.28-3.328C160.297,292.691,160.868,293.177,161.475,293.613z"/>
			<path style="fill:#D3DFF2;" d="M427.629,280.301c6.46,6.657,7.716,16.793,3.076,24.826s-14.05,12.007-23.044,9.734
				c1.996,7.944-0.841,16.322-7.253,21.419c-0.607-0.437-1.178-0.922-1.707-1.451c-0.337,1.142-0.766,2.254-1.28,3.328
				c-3.421,7.215-10.703,11.803-18.688,11.776c-4.649,0.034-9.169-1.533-12.8-4.437c-3.467-2.698-5.98-6.437-7.168-10.667
				c-6.486,6.35-16.366,7.702-24.32,3.328c-0.514-1.074-0.943-2.186-1.28-3.328c-0.529,0.529-1.1,1.014-1.707,1.451
				c-6.413-5.097-9.25-13.474-7.253-21.419c-8.994,2.272-18.403-1.702-23.044-9.734c-4.641-8.032-3.385-18.169,3.076-24.826
				c-8.935-2.527-15.104-10.682-15.104-19.968s6.169-17.441,15.104-19.968c-6.46-6.657-7.716-16.793-3.076-24.826
				c4.641-8.032,14.05-12.007,23.044-9.734c-1.996-7.944,0.841-16.322,7.253-21.419c0.607,0.437,1.178,0.922,1.707,1.451
				c0.338-1.142,0.766-2.254,1.28-3.328c7.954-4.374,17.834-3.022,24.32,3.328c1.188-4.23,3.701-7.968,7.168-10.667
				c3.631-2.904,8.151-4.471,12.8-4.437c7.985-0.027,15.267,4.561,18.688,11.776c0.514,1.074,0.942,2.186,1.28,3.328
				c0.529-0.529,1.1-1.014,1.707-1.451c6.412,5.097,9.249,13.474,7.253,21.419c8.994-2.272,18.403,1.702,23.044,9.734
				s3.385,18.169-3.076,24.826c8.935,2.527,15.104,10.682,15.104,19.968S436.565,277.774,427.629,280.301L427.629,280.301z"/>
			<path style="fill:#D3DFF2;" d="M400.408,184.387c-0.607,0.437-1.178,0.922-1.707,1.451c-0.338-1.142-0.766-2.254-1.28-3.328
				l0.512,0.256C398.79,183.256,399.616,183.797,400.408,184.387z"/>
			<path style="fill:#D3DFF2;" d="M400.408,336.28c-0.792,0.589-1.618,1.131-2.475,1.621l-0.512,0.256
				c0.514-1.074,0.943-2.186,1.28-3.328C399.23,335.358,399.801,335.843,400.408,336.28L400.408,336.28z"/>
		</g>
		<g>
			<circle style="fill:#A2C0F5;" cx="139.8" cy="217.667" r="46.933"/>
			<circle style="fill:#A2C0F5;" cx="378.733" cy="260.333" r="46.933"/>
		</g>
		<g>
			<ellipse style="fill:#D3DFF2;" cx="127" cy="217.667" rx="34.133" ry="46.933"/>
			<ellipse style="fill:#D3DFF2;" cx="365.933" cy="260.333" rx="34.133" ry="46.933"/>
		</g>
	</g>
	<g>
		<path style="fill:#438CFF;" d="M38.276,391.085c-0.586-3.401-3.163-6.115-6.529-6.875c-3.367-0.76-6.86,0.582-8.851,3.401
			c-1.991,2.819-2.087,6.56-0.244,9.479c1.843,2.918,5.262,4.439,8.664,3.853C35.959,400.143,39.076,395.729,38.276,391.085z"/>
		<path style="fill:#438CFF;" d="M256,0C114.842,0,0,126.325,0,281.6c0.042,0.294,0.101,0.585,0.177,0.873
			c0.026,0.251-0.071,0.494-0.022,0.744l14.933,77.396c0.774,4.012,4.284,6.913,8.371,6.917c0.545,0,1.089-0.052,1.625-0.154
			c2.223-0.428,4.184-1.722,5.452-3.597c1.268-1.875,1.74-4.177,1.31-6.399L27.103,332.8h272.842
			c4.475,4.316,10.202,7.103,16.359,7.963c0.539,3.641,1.756,7.148,3.589,10.34c-1.252-0.774-2.688-1.2-4.16-1.236
			c-4.713,0-8.533,3.82-8.533,8.533V384h-25.6c-4.713,0-8.533,3.82-8.533,8.533s3.82,8.533,8.533,8.533h25.6
			c3.005-0.017,5.951-0.836,8.533-2.373c2.582,1.537,5.528,2.356,8.533,2.373h25.6c4.713,0,8.533-3.82,8.533-8.533
			S354.579,384,349.867,384h-25.6v-25.6c-0.054-0.572-0.168-1.137-0.34-1.685c1.946,2.203,4.219,4.094,6.74,5.606
			c7.895,4.524,17.441,5.137,25.85,1.658c5.525,7.239,14.11,11.487,23.217,11.487c9.107,0,17.692-4.248,23.217-11.487
			c2.137,0.87,4.369,1.487,6.65,1.839V384H384c-4.713,0-8.533,3.82-8.533,8.533s3.821,8.533,8.533,8.533h25.6
			c3.005-0.017,5.951-0.836,8.533-2.373c2.582,1.537,5.528,2.356,8.533,2.373h25.6c4.713,0,8.533-3.82,8.533-8.533
			S456.98,384,452.267,384h-25.6v-20.763c0.704-0.333,1.451-0.522,2.133-0.916c7.871-4.571,13.176-12.534,14.363-21.558
			c6.157-0.859,11.884-3.647,16.359-7.963h25.403l-29.954,155.704c-0.696,3.726-3.947,6.427-7.737,6.429H64.767
			c-3.804-0.007-7.062-2.728-7.746-6.471l-12.292-64c-0.575-2.994-2.703-5.453-5.583-6.452c-2.88-0.999-6.074-0.386-8.379,1.609
			c-2.305,1.995-3.371,5.067-2.797,8.061l12.283,63.958c2.207,11.801,12.506,20.357,24.512,20.362h382.467
			c11.99,0,22.283-8.534,24.504-20.317l40.108-208.471c0.048-0.248-0.047-0.491-0.022-0.74c0.075-0.287,0.134-0.579,0.176-0.873
			C512,126.325,397.158,0,256,0z M256,17.067c129.165,0,234.646,114.08,238.738,256h-17.377c-1.075-7.498-5.011-14.289-10.982-18.95
			c3.508-8.404,2.895-17.964-1.659-25.851c-4.553-7.887-12.526-13.198-21.558-14.362c-1.164-9.032-6.475-17.004-14.362-21.558
			c-7.887-4.553-17.446-5.167-25.851-1.659c-5.525-7.239-14.11-11.488-23.217-11.488c-9.107,0-17.692,4.248-23.217,11.488
			c-8.404-3.508-17.964-2.895-25.851,1.659c-7.887,4.553-13.198,12.526-14.362,21.558c-9.032,1.164-17.004,6.475-21.558,14.362
			c-4.553,7.887-5.167,17.446-1.659,25.851c-5.971,4.661-9.907,11.452-10.982,18.95h-52.858c0.749-5.131,0.127-10.37-1.801-15.183
			c7.239-5.525,11.488-14.11,11.488-23.217c0-9.107-4.248-17.692-11.488-23.217c3.508-8.404,2.895-17.964-1.659-25.851
			c-4.553-7.887-12.526-13.198-21.558-14.362c-1.164-9.032-6.475-17.004-14.362-21.558s-17.447-5.167-25.851-1.659
			c-5.525-7.239-14.11-11.488-23.217-11.488s-17.692,4.248-23.217,11.488c-8.404-3.508-17.964-2.895-25.851,1.659
			s-13.198,12.526-14.362,21.558c-9.032,1.164-17.004,6.475-21.558,14.362c-4.553,7.887-5.167,17.447-1.659,25.851
			c-7.239,5.525-11.488,14.11-11.488,23.217c0,9.107,4.248,17.692,11.488,23.217c-1.928,4.814-2.55,10.052-1.801,15.183H17.262
			C21.354,131.146,126.835,17.067,256,17.067z M61.011,290.133c4.475,4.316,10.202,7.103,16.359,7.963
			c0.905,6.756,4.125,12.99,9.111,17.637H59.733v-25.6H61.011z M129.058,306.821c-0.815-2.898-3.097-5.151-6.005-5.93
			c-2.908-0.779-6.011,0.032-8.166,2.134c-3.907,3.826-9.884,4.581-14.619,1.847c-4.736-2.734-7.07-8.288-5.71-13.584
			c0.742-2.919-0.108-6.012-2.237-8.142c-2.129-2.129-5.223-2.98-8.142-2.237c-5.296,1.36-10.85-0.974-13.584-5.71
			s-1.979-10.712,1.847-14.619c2.102-2.155,2.912-5.258,2.134-8.165c-0.779-2.908-3.032-5.19-5.929-6.005
			c-5.269-1.471-8.913-6.271-8.913-11.742c0-5.47,3.644-10.271,8.913-11.742c2.897-0.816,5.151-3.098,5.93-6.005
			c0.779-2.908-0.032-6.01-2.134-8.165c-3.826-3.907-4.581-9.884-1.847-14.619c2.734-4.736,8.288-7.07,13.584-5.71
			c2.919,0.742,6.012-0.108,8.142-2.237s2.98-5.223,2.237-8.142c-1.36-5.296,0.974-10.85,5.71-13.584s10.712-1.979,14.619,1.847
			c2.155,2.102,5.258,2.913,8.165,2.134c2.908-0.779,5.19-3.032,6.005-5.93c1.471-5.269,6.271-8.913,11.742-8.913
			c5.47,0,10.271,3.644,11.742,8.913c0.816,2.897,3.098,5.151,6.005,5.93c2.908,0.779,6.01-0.032,8.165-2.134
			c3.907-3.826,9.884-4.581,14.62-1.847c4.736,2.734,7.07,8.288,5.71,13.585c-0.742,2.919,0.108,6.012,2.237,8.142
			c2.129,2.129,5.223,2.98,8.142,2.237c5.296-1.36,10.85,0.974,13.584,5.71c2.734,4.736,1.979,10.712-1.847,14.619
			c-2.102,2.155-2.913,5.258-2.134,8.165c0.779,2.908,3.032,5.19,5.93,6.005c5.269,1.471,8.913,6.271,8.913,11.742
			c0,5.47-3.644,10.271-8.913,11.742c-2.897,0.816-5.151,3.098-5.93,6.005c-0.779,2.908,0.032,6.01,2.134,8.165
			c3.826,3.907,4.581,9.884,1.847,14.62c-2.734,4.736-8.288,7.07-13.585,5.71c-2.919-0.742-6.012,0.108-8.142,2.237
			c-2.129,2.129-2.98,5.223-2.237,8.142c1.36,5.296-0.974,10.85-5.71,13.584c-4.736,2.734-10.713,1.979-14.619-1.847
			c-2.155-2.102-5.258-2.913-8.165-2.134c-2.908,0.779-5.19,3.032-6.005,5.93c-1.471,5.269-6.271,8.913-11.742,8.913
			C135.329,315.734,130.529,312.09,129.058,306.821L129.058,306.821z M204.229,298.096c3.176-0.482,6.252-1.483,9.104-2.961v20.599
			h-18.215C200.105,311.085,203.324,304.852,204.229,298.096L204.229,298.096z M230.4,290.133h17.067v25.6H230.4V290.133z
			 M264.533,290.133h20.073c1.99,4.077,4.892,7.642,8.481,10.417c-1.928,4.814-2.55,10.052-1.801,15.183h-26.753V290.133z
			 M18.871,290.133h23.796v25.6H23.81L18.871,290.133z M436.354,323.575c-2.919-0.742-6.012,0.108-8.142,2.237
			c-2.129,2.129-2.98,5.223-2.237,8.142c1.36,5.296-0.974,10.85-5.71,13.584c-4.736,2.734-10.712,1.979-14.619-1.847
			c-2.155-2.102-5.258-2.913-8.165-2.134s-5.19,3.032-6.005,5.93c-1.471,5.269-6.271,8.913-11.742,8.913
			c-5.47,0-10.271-3.644-11.742-8.913c-0.815-2.898-3.098-5.151-6.005-5.93c-2.908-0.779-6.011,0.032-8.166,2.134
			c-3.907,3.826-9.884,4.581-14.619,1.847c-4.736-2.734-7.07-8.288-5.71-13.584c0.742-2.919-0.108-6.012-2.237-8.142
			c-2.129-2.129-5.223-2.98-8.142-2.237c-5.296,1.36-10.85-0.974-13.584-5.71c-2.734-4.736-1.979-10.712,1.847-14.619
			c2.102-2.155,2.913-5.258,2.134-8.165c-0.779-2.908-3.032-5.19-5.93-6.005c-5.269-1.471-8.913-6.271-8.913-11.742
			c0-5.47,3.644-10.271,8.913-11.742c2.897-0.816,5.151-3.098,5.93-6.005c0.779-2.908-0.032-6.01-2.134-8.165
			c-3.826-3.907-4.581-9.884-1.847-14.619c2.734-4.736,8.288-7.07,13.584-5.71c2.919,0.742,6.012-0.108,8.142-2.237
			c2.129-2.129,2.98-5.223,2.237-8.142c-1.36-5.296,0.974-10.85,5.71-13.584c4.736-2.734,10.712-1.979,14.619,1.847
			c2.155,2.102,5.258,2.913,8.165,2.134c2.908-0.779,5.19-3.032,6.005-5.93c1.471-5.269,6.271-8.913,11.742-8.913
			c5.47,0,10.271,3.644,11.742,8.913c0.816,2.897,3.098,5.151,6.005,5.93s6.01-0.032,8.165-2.134
			c3.907-3.826,9.884-4.582,14.62-1.847c4.736,2.734,7.07,8.288,5.71,13.585c-0.742,2.919,0.108,6.012,2.237,8.142
			c2.129,2.129,5.223,2.98,8.142,2.237c5.296-1.36,10.85,0.974,13.584,5.71c2.734,4.736,1.979,10.712-1.847,14.619
			c-2.102,2.155-2.913,5.258-2.134,8.165c0.779,2.908,3.032,5.19,5.93,6.005c5.269,1.471,8.913,6.271,8.913,11.742
			c0,5.47-3.644,10.271-8.913,11.742c-2.897,0.816-5.151,3.098-5.93,6.005c-0.779,2.908,0.032,6.01,2.134,8.165
			c3.826,3.907,4.581,9.884,1.847,14.62C447.205,322.602,441.651,324.936,436.354,323.575L436.354,323.575z M468.18,315.733
			c0.749-5.131,0.127-10.37-1.801-15.183c3.589-2.775,6.492-6.339,8.481-10.417h18.273l-4.925,25.6H468.18z"/>
		<path style="fill:#438CFF;" d="M93.867,349.867c-4.713,0-8.533,3.82-8.533,8.533V384h-25.6c-4.713,0-8.533,3.82-8.533,8.533
			s3.821,8.533,8.533,8.533h25.6c3.005-0.017,5.951-0.836,8.533-2.373c2.582,1.537,5.528,2.356,8.533,2.373H128
			c4.713,0,8.533-3.82,8.533-8.533S132.713,384,128,384h-25.6v-25.6C102.4,353.687,98.579,349.867,93.867,349.867z"/>
		<path style="fill:#438CFF;" d="M102.4,418.133c-4.713,0-8.533,3.82-8.533,8.533v25.6h-25.6c-4.713,0-8.533,3.82-8.533,8.533
			s3.821,8.533,8.533,8.533h25.6c3.005-0.017,5.951-0.836,8.533-2.373c2.582,1.537,5.528,2.356,8.533,2.373h25.6
			c4.713,0,8.533-3.82,8.533-8.533s-3.821-8.533-8.533-8.533h-25.6v-25.6C110.933,421.954,107.113,418.133,102.4,418.133z"/>
		<path style="fill:#438CFF;" d="M196.267,349.867c-4.713,0-8.533,3.82-8.533,8.533V384h-25.6c-4.713,0-8.533,3.82-8.533,8.533
			s3.821,8.533,8.533,8.533h25.6c3.005-0.017,5.951-0.836,8.533-2.373c2.582,1.537,5.528,2.356,8.533,2.373h25.6
			c4.713,0,8.533-3.82,8.533-8.533S235.113,384,230.4,384h-25.6v-25.6C204.8,353.687,200.98,349.867,196.267,349.867z"/>
		<path style="fill:#438CFF;" d="M204.8,418.133c-4.713,0-8.533,3.82-8.533,8.533v25.6h-25.6c-4.713,0-8.533,3.82-8.533,8.533
			s3.821,8.533,8.533,8.533h25.6c3.005-0.017,5.951-0.836,8.533-2.373c2.582,1.537,5.528,2.356,8.533,2.373h25.6
			c4.713,0,8.533-3.82,8.533-8.533s-3.821-8.533-8.533-8.533h-25.6v-25.6C213.333,421.954,209.513,418.133,204.8,418.133z"/>
		<path style="fill:#438CFF;" d="M409.6,418.133c-4.713,0-8.533,3.82-8.533,8.533v25.6h-25.6c-4.713,0-8.533,3.82-8.533,8.533
			s3.821,8.533,8.533,8.533h25.6c3.005-0.017,5.951-0.836,8.533-2.373c2.582,1.537,5.528,2.356,8.533,2.373h25.6
			c4.713,0,8.533-3.82,8.533-8.533s-3.821-8.533-8.533-8.533h-25.6v-25.6C418.133,421.954,414.313,418.133,409.6,418.133z"/>
		<path style="fill:#438CFF;" d="M307.2,418.133c-4.713,0-8.533,3.82-8.533,8.533v25.6h-25.6c-4.713,0-8.533,3.82-8.533,8.533
			s3.82,8.533,8.533,8.533h25.6c3.005-0.017,5.951-0.836,8.533-2.373c2.582,1.537,5.528,2.356,8.533,2.373h25.6
			c4.713,0,8.533-3.82,8.533-8.533s-3.821-8.533-8.533-8.533h-25.6v-25.6C315.733,421.954,311.913,418.133,307.2,418.133z"/>
		<path style="fill:#438CFF;" d="M196.267,234.667c0-30.633-24.833-55.467-55.467-55.467s-55.467,24.833-55.467,55.467
			s24.833,55.467,55.467,55.467C171.419,290.098,196.231,265.285,196.267,234.667z M140.8,273.067c-21.208,0-38.4-17.192-38.4-38.4
			s17.192-38.4,38.4-38.4s38.4,17.192,38.4,38.4C179.177,255.865,161.998,273.044,140.8,273.067z"/>
		<path style="fill:#438CFF;" d="M379.733,221.867c-30.633,0-55.467,24.833-55.467,55.467S349.1,332.8,379.733,332.8
			s55.467-24.833,55.467-55.467C435.165,246.715,410.352,221.902,379.733,221.867z M379.733,315.733
			c-21.208,0-38.4-17.192-38.4-38.4c0-21.208,17.192-38.4,38.4-38.4c21.208,0,38.4,17.192,38.4,38.4
			C418.11,298.532,400.932,315.71,379.733,315.733L379.733,315.733z"/>
	</g>
</g>
<g>
</g>
<g>
</g>
<g>
</g>
<g>
</g>
<g>
</g>
<g>
</g>
<g>
</g>
<g>
</g>
<g>
</g>
<g>
</g>
<g>
</g>
<g>
</g>
<g>
</g>
<g>
</g>
<g>
</g>
</svg>
