<?xml version="1.0" encoding="iso-8859-1"?>
<!-- Generator: Adobe Illustrator 19.0.0, SVG Export Plug-In . SVG Version: 6.00 Build 0)  -->
<svg version="1.1" id="Capa_1" xmlns="http://www.w3.org/2000/svg" xmlns:xlink="http://www.w3.org/1999/xlink" x="0px" y="0px"
	 viewBox="0 0 511.891 511.891" style="enable-background:new 0 0 511.891 511.891;" xml:space="preserve">
<g>
	<g transform="translate(1 1)">
		<g>
			<path style="fill:#A2C0F5;" d="M154.115,201.868l-5.376,22.016L51.715,118.071V88.289l9.643-9.643
				c2.681-2.673,6.71-3.466,10.205-2.008s5.766,4.878,5.753,8.664v32.768L154.115,201.868z"/>
			<path style="fill:#A2C0F5;" d="M417.113,417.079v8.533c0.028,9.359-7.507,16.983-16.866,17.067H147.26
				c-9.358-0.083-16.893-7.708-16.866-17.067v-8.533l15.854-65.451L53.993,145.804H21.61c-3.775-0.055-7.153-2.357-8.585-5.85
				c-1.432-3.493-0.642-7.504,2.007-10.193l40.984-41.472v29.781l95.882,105.813l5.313-22.016l19.986,22.016l29.684-122.539
				l-25.889-34.133h185.523l-25.889,34.133L417.113,417.079z"/>
		</g>
		<path style="fill:#D3DFF2;" d="M391.513,417.079v8.533c0.044,9.342-7.463,16.966-16.805,17.067H147.84
			c-9.342-0.1-16.849-7.725-16.805-17.067v-8.533l15.797-65.451L54.909,145.804H22.643c-3.768-0.069-7.134-2.374-8.559-5.863
			s-0.637-7.492,2.006-10.179l40.836-41.472v29.781l95.536,105.813l5.294-22.016l19.914,22.016l29.577-122.539L181.45,67.212
			h159.647l-25.796,34.133L391.513,417.079z"/>
		<path style="fill:#A2C0F5;" d="M417.113,417.079v8.533c-0.028,9.414-7.652,17.039-17.067,17.067h-256
			c-9.414-0.028-17.039-7.652-17.067-17.067v-8.533l77.397-315.733h135.339L417.113,417.079z"/>
		
			<linearGradient id="SVGID_1_" gradientUnits="userSpaceOnUse" x1="-49.8254" y1="651.3193" x2="-48.8455" y2="650.5599" gradientTransform="matrix(264.5334 0 0 -341.3333 13310.1182 222493.0781)">
			<stop  offset="0" style="stop-color:#DAE5F4"/>
			<stop  offset="0.1717" style="stop-color:#DAE5F4"/>
			<stop  offset="0.2" style="stop-color:#DAE5F4"/>
			<stop  offset="0.2006" style="stop-color:#EBECF4"/>
			<stop  offset="0.2013" style="stop-color:#F6F1F4"/>
			<stop  offset="0.2022" style="stop-color:#FDF4F4"/>
			<stop  offset="0.205" style="stop-color:#FFF5F4"/>
			<stop  offset="0.2522" style="stop-color:#FFF5F4"/>
			<stop  offset="0.26" style="stop-color:#FFF5F4"/>
			<stop  offset="0.26" style="stop-color:#DAE5F4"/>
			<stop  offset="0.3974" style="stop-color:#DAE5F4"/>
			<stop  offset="0.42" style="stop-color:#DAE5F4"/>
			<stop  offset="0.4206" style="stop-color:#EBECF4"/>
			<stop  offset="0.4212" style="stop-color:#F6F1F4"/>
			<stop  offset="0.4222" style="stop-color:#FDF4F4"/>
			<stop  offset="0.425" style="stop-color:#FFF5F4"/>
			<stop  offset="0.4894" style="stop-color:#FFF5F4"/>
			<stop  offset="0.5" style="stop-color:#FFF5F4"/>
			<stop  offset="0.5001" style="stop-color:#EEEEF4"/>
			<stop  offset="0.5002" style="stop-color:#E3E9F4"/>
			<stop  offset="0.5004" style="stop-color:#DCE6F4"/>
			<stop  offset="0.501" style="stop-color:#DAE5F4"/>
			<stop  offset="0.7062" style="stop-color:#DAE5F4"/>
			<stop  offset="0.74" style="stop-color:#DAE5F4"/>
			<stop  offset="0.741" style="stop-color:#FFF5F4"/>
			<stop  offset="0.8346" style="stop-color:#FFF5F4"/>
			<stop  offset="0.85" style="stop-color:#FFF5F4"/>
			<stop  offset="0.851" style="stop-color:#DAE5F4"/>
		</linearGradient>
		<path style="fill:url(#SVGID_1_);" d="M391.513,417.079v8.533c-0.028,9.414-7.652,17.039-17.067,17.067h-230.4
			c-9.414-0.028-17.039-7.652-17.067-17.067v-8.533l77.397-315.733h109.739L391.513,417.079z"/>
		<polygon style="fill:#A2C0F5;" points="174.339,223.884 144.404,351.628 139.668,340.705 58.013,152.375 55.154,145.804 
			81.591,118.071 		"/>
		<polygon style="fill:#FFFFFF;" points="146.154,311.078 135.248,341.081 49.829,152.75 65.693,137.757 69.354,141.768 		"/>
		<polygon style="fill:#D3DFF2;" points="163.067,244.287 146.512,311.786 60.667,124.991 		"/>
		<polygon style="fill:#A2C0F5;" points="404.313,364.855 400.046,365.879 144.046,365.879 139.779,364.855 185.518,178.145 
			185.603,177.889 186.713,178.145 357.379,178.145 358.489,177.889 		"/>
		<g>
			<polygon style="fill:#D3DFF2;" points="378.713,364.855 374.446,365.879 144.046,365.879 139.779,364.855 185.518,178.145 
				331.779,178.145 332.889,177.889 332.974,178.145 			"/>
			<path style="fill:#D3DFF2;" d="M323.246,263.479h-18.273c-0.794-3.057-2.013-5.987-3.62-8.705l12.932-12.931
				c3.333-3.333,3.333-8.736,0-12.068c-3.333-3.333-8.736-3.333-12.068,0l-12.932,12.932c-2.718-1.608-5.648-2.826-8.705-3.62
				v-18.273c0-4.713-3.82-8.533-8.533-8.533s-8.533,3.821-8.533,8.533v18.273c-3.057,0.794-5.987,2.012-8.705,3.62l-12.932-12.932
				c-3.333-3.333-8.736-3.333-12.068,0c-3.333,3.333-3.333,8.736,0,12.068l12.932,12.931c-1.608,2.718-2.826,5.648-3.62,8.705
				h-18.273c-4.713,0-8.533,3.82-8.533,8.533s3.821,8.533,8.533,8.533h18.273c0.794,3.057,2.012,5.987,3.62,8.705l-12.932,12.932
				c-2.156,2.156-2.998,5.298-2.208,8.243c0.789,2.945,3.089,5.245,6.034,6.034c2.945,0.789,6.087-0.053,8.243-2.209l12.932-12.931
				c2.718,1.608,5.648,2.826,8.705,3.62v18.273c0,4.713,3.82,8.533,8.533,8.533s8.533-3.82,8.533-8.533v-18.273
				c3.057-0.794,5.987-2.012,8.705-3.62l12.932,12.931c2.156,2.156,5.298,2.998,8.243,2.209c2.945-0.789,5.245-3.089,6.034-6.034
				c0.789-2.945-0.053-6.087-2.208-8.243l-12.932-12.932c1.608-2.718,2.826-5.648,3.62-8.705h18.273
				c4.713,0,8.533-3.821,8.533-8.533S327.959,263.479,323.246,263.479z"/>
		</g>
		<circle style="fill:#A2C0F5;" cx="272.046" cy="272.012" r="34.133"/>
	</g>
	<g>
		<path style="fill:#438CFF;" d="M97.289,250.1c3.158-1.392,5.166-4.55,5.089-8.001c-0.078-3.451-2.227-6.514-5.445-7.763
			c-3.218-1.248-6.871-0.436-9.255,2.059c-2.385,2.495-3.032,6.181-1.639,9.339C87.94,250.047,92.977,252.001,97.289,250.1
			L97.289,250.1z"/>
		<path style="fill:#438CFF;" d="M414.667,86.254c-23.513,3.152-45.186,14.419-61.273,31.855l-3.386-13.82l23.677-30.885
			c1.978-2.577,2.32-6.054,0.882-8.968s-4.405-4.758-7.653-4.757H179.179c-3.249-0.001-6.216,1.843-7.653,4.757
			c-1.437,2.914-1.095,6.391,0.883,8.968l23.677,30.885l-25.252,103.053l-83.949-91.556V86.308
			c-0.001-7.239-4.362-13.764-11.05-16.533s-14.385-1.239-19.504,3.879L5.242,124.741c-5.118,5.119-6.649,12.816-3.879,19.504
			c2.77,6.688,9.295,11.049,16.533,11.05h27.253L72.08,214.67c1.973,4.247,7,6.11,11.264,4.176s6.173-6.944,4.278-11.226
			L60.875,148.65l17.183-17.233l87.891,95.856l-24.353,99.382l-25.813-56.83c-1.259-2.78-3.906-4.676-6.943-4.974
			c-3.037-0.298-6.002,1.049-7.776,3.532c-1.774,2.483-2.088,5.724-0.823,8.501l34.785,76.583l-15.335,62.584
			c-0.163,0.664-0.246,1.345-0.246,2.029v8.533c0.015,14.132,11.468,25.585,25.6,25.6h256c14.132-0.015,25.585-11.468,25.6-25.6
			v-8.533c0-0.684-0.083-1.365-0.246-2.029l-16.898-68.961c-1.345-19.771,3.595-39.461,14.114-56.256
			c10.765-14.609,23.811-27.39,38.637-37.854c8.038-6.371,16.35-12.962,24.025-20.3c16.661-16.286,25.916-38.691,25.604-61.988
			c0.006-23.691-9.7-46.348-26.854-62.687C466.09,90.454,440.206,82.453,414.667,86.254z M47.167,138.229H17.896
			c-0.347,0.04-0.671-0.177-0.767-0.513c-0.168-0.306-0.093-0.689,0.179-0.908L68.396,85.72c0.213-0.282,0.604-0.359,0.908-0.179
			c0.335,0.096,0.552,0.42,0.513,0.767v29.203L47.167,138.229z M392.505,349.428c0.017,0.309,0.005,0.608,0.024,0.918
			c0.093,1.22,0.452,2.405,1.051,3.471l1.109,4.529H151.402l41.82-170.667h159.647L392.505,349.428z M212.042,110.879H334.05
			l14.637,59.733H197.405L212.042,110.879z M349.617,76.745l-13.083,17.067H209.559l-13.083-17.067H349.617z M409.579,426.612
			c-0.006,4.71-3.823,8.527-8.533,8.533h-256c-4.71-0.006-8.527-3.823-8.533-8.533v-7.504l10.707-43.696h251.652l10.707,43.696
			V426.612z M474.488,220.346c-7.104,6.788-15.104,13.129-22.837,19.262c-16.269,11.57-30.552,25.704-42.292,41.85
			c-4.407,6.764-7.976,14.037-10.631,21.66l-40.216-164.12c13.479-19.69,34.7-32.715,58.359-35.82
			c20.485-3.09,41.267,3.272,56.513,17.3c13.729,13.132,21.476,31.318,21.433,50.317
			C495.107,189.398,487.76,207.307,474.488,220.346L474.488,220.346z"/>
		<path style="fill:#438CFF;" d="M331.973,248.603c5.131-9.909,3.258-22-4.632-29.891s-19.98-9.767-29.89-4.638
			c-3.374-10.636-13.247-17.863-24.406-17.863c-11.158,0-21.032,7.227-24.405,17.863c-9.91-5.138-22.006-3.265-29.899,4.629
			c-7.892,7.894-9.763,19.991-4.623,29.9c-10.641,3.37-17.873,13.246-17.873,24.408c0,11.162,7.232,21.038,17.873,24.408
			c-5.131,9.909-3.258,22,4.632,29.891s19.98,9.767,29.89,4.638c3.373,10.637,13.247,17.863,24.405,17.863
			s21.032-7.227,24.405-17.863c9.91,5.137,22.006,3.264,29.898-4.629c7.892-7.894,9.763-19.99,4.624-29.899
			c10.641-3.371,17.872-13.247,17.872-24.409C349.846,261.849,342.614,251.974,331.973,248.603L331.973,248.603z M303.216,230.774
			c3.333-3.333,8.736-3.333,12.068,0c3.333,3.333,3.333,8.736,0,12.068l-6.68,6.679c-3.175-4.79-7.278-8.893-12.068-12.068
			L303.216,230.774z M273.046,298.612c-14.138,0-25.6-11.462-25.6-25.6s11.462-25.6,25.6-25.6s25.6,11.462,25.6,25.6
			C298.631,287.144,287.178,298.597,273.046,298.612z M273.046,213.279c4.713,0,8.533,3.821,8.533,8.533v9.396
			c-5.631-1.15-11.436-1.15-17.067,0v-9.396C264.513,217.099,268.333,213.279,273.046,213.279z M230.808,230.774
			c1.6-1.6,3.771-2.5,6.034-2.5c2.263,0,4.434,0.899,6.034,2.5l6.679,6.679c-4.789,3.175-8.893,7.279-12.068,12.068l-6.68-6.679
			C227.476,239.51,227.476,234.107,230.808,230.774L230.808,230.774z M213.313,273.012c0-4.713,3.821-8.533,8.533-8.533h9.396
			c-1.15,5.631-1.15,11.436,0,17.067h-9.396C217.133,281.546,213.313,277.725,213.313,273.012z M242.876,315.25
			c-2.156,2.156-5.298,2.998-8.243,2.209c-2.945-0.789-5.245-3.089-6.034-6.034c-0.789-2.945,0.053-6.087,2.208-8.243l6.679-6.679
			c3.175,4.79,7.279,8.893,12.068,12.068L242.876,315.25z M273.046,332.745c-4.713,0-8.533-3.82-8.533-8.533v-9.396
			c5.631,1.15,11.436,1.15,17.067,0v9.396C281.579,328.925,277.759,332.745,273.046,332.745z M315.284,315.25
			c-1.6,1.6-3.771,2.499-6.034,2.499s-4.434-0.899-6.034-2.499l-6.679-6.679c4.79-3.175,8.893-7.279,12.068-12.068l6.679,6.679
			C318.616,306.514,318.616,311.917,315.284,315.25z M324.246,281.546h-9.396c1.15-5.631,1.15-11.436,0-17.067h9.396
			c4.713,0,8.533,3.82,8.533,8.533S328.959,281.546,324.246,281.546z"/>
	</g>
</g>
<g>
</g>
<g>
</g>
<g>
</g>
<g>
</g>
<g>
</g>
<g>
</g>
<g>
</g>
<g>
</g>
<g>
</g>
<g>
</g>
<g>
</g>
<g>
</g>
<g>
</g>
<g>
</g>
<g>
</g>
</svg>
