<?xml version="1.0" encoding="iso-8859-1"?>
<!-- Generator: Adobe Illustrator 19.0.0, SVG Export Plug-In . SVG Version: 6.00 Build 0)  -->
<svg version="1.1" id="Capa_1" xmlns="http://www.w3.org/2000/svg" xmlns:xlink="http://www.w3.org/1999/xlink" x="0px" y="0px"
	 viewBox="0 0 512.052 512.052" style="enable-background:new 0 0 512.052 512.052;" xml:space="preserve">
<g>
	<g transform="translate(1)">
		<polygon style="fill:#A2C0F5;" points="198.623,416.855 169.695,503.468 7.562,503.468 7.562,375.468 85.471,323.5 
			101.258,313.004 		"/>
		<polygon style="fill:#D3DFF2;" points="172.767,417.367 144.095,503.468 7.562,503.468 7.562,401.068 118.495,324.268 		"/>
		<polygon style="fill:#FFFFFF;" points="118.495,325.975 7.562,402.775 7.562,377.175 118.495,300.375 		"/>
		<path style="fill:#A2C0F5;" d="M483.125,221.698c-1.608,1.664-3.482,3.049-5.546,4.096l-24.065,16.896h-0.085l-12.8,9.045h-0.085
			l-19.541,13.653l-0.171,0.171c-64.171,52.651-75.178,84.907-113.237,113.408c-18.165,13.055-37.573,24.288-57.941,33.536
			c-27.327,12.786-59.681,7.686-81.749-12.885c-2.646-2.389-5.121-4.693-7.425-6.827c-13.54-11.707-26.336-24.247-38.315-37.547
			c7.425,7.168,15.189,13.995,22.7,20.992c2.303,2.133,4.778,4.437,7.423,6.827c22.069,20.571,54.423,25.671,81.75,12.885
			c20.368-9.249,39.776-20.482,57.941-33.536c38.059-28.501,49.067-60.757,113.236-113.408l0.171-0.171l19.541-13.653h0.085
			l12.8-9.045h0.085l24.066-16.896c2.064-1.047,3.938-2.432,5.547-4.096c5.367-5.459,7.613-13.259,5.973-20.736
			c4.599,0.448,8.774,2.878,11.435,6.656c0,0.085,0.085,0.085,0.085,0.171C491.871,200.493,491.079,213.352,483.125,221.698z"/>
		<path style="fill:#FFFFFF;" d="M218.933,79.959c-0.854-0.341-1.706-0.597-2.56-0.939c-5.499-1.978-11.624,0.292-14.507,5.376
			c-10.97,21.045-20.797,42.665-29.44,64.768c-13.312,30.549-21.846,65.707-37.206,95.317
			c-9.846,16.783-15.795,35.564-17.408,54.955c-1.701,21.267,3.506,42.516,14.848,60.587c2.476,3.618,5.154,7.094,8.021,10.411
			c7.424,7.168,15.189,13.995,22.699,20.992c0.171,0.171,0.427,0.341,0.598,0.512c-4.191-2.55-8.109-5.524-11.691-8.875
			c-2.645-2.389-5.12-4.693-7.423-6.827c-7.51-6.997-15.275-13.824-22.7-20.992c-2.867-3.317-5.545-6.793-8.021-10.411
			c-11.342-18.071-16.55-39.319-14.848-60.587c1.611-19.391,7.561-38.172,17.408-54.955c15.36-29.611,23.894-64.768,37.205-95.317
			c8.642-22.103,18.47-43.723,29.44-64.768c2.883-5.084,9.008-7.354,14.507-5.376c2.776,0.951,5.46,2.151,8.021,3.584
			c0.769,0.512,1.535,1.024,2.219,1.536C212.285,72.004,215.946,75.722,218.933,79.959L218.933,79.959z"/>
		
			<linearGradient id="SVGID_1_" gradientUnits="userSpaceOnUse" x1="-49.8435" y1="652.1356" x2="-48.8435" y2="652.1356" gradientTransform="matrix(383.4514 0 0 -379.6229 19230.0664 247778.7188)">
			<stop  offset="0" style="stop-color:#DAE5F4"/>
			<stop  offset="0.1717" style="stop-color:#DAE5F4"/>
			<stop  offset="0.2" style="stop-color:#DAE5F4"/>
			<stop  offset="0.2006" style="stop-color:#EBECF4"/>
			<stop  offset="0.2013" style="stop-color:#F6F1F4"/>
			<stop  offset="0.2022" style="stop-color:#FDF4F4"/>
			<stop  offset="0.205" style="stop-color:#FFF5F4"/>
			<stop  offset="0.2522" style="stop-color:#FFF5F4"/>
			<stop  offset="0.26" style="stop-color:#FFF5F4"/>
			<stop  offset="0.26" style="stop-color:#DAE5F4"/>
			<stop  offset="0.3974" style="stop-color:#DAE5F4"/>
			<stop  offset="0.42" style="stop-color:#DAE5F4"/>
			<stop  offset="0.4206" style="stop-color:#EBECF4"/>
			<stop  offset="0.4212" style="stop-color:#F6F1F4"/>
			<stop  offset="0.4222" style="stop-color:#FDF4F4"/>
			<stop  offset="0.425" style="stop-color:#FFF5F4"/>
			<stop  offset="0.4894" style="stop-color:#FFF5F4"/>
			<stop  offset="0.5" style="stop-color:#FFF5F4"/>
			<stop  offset="0.5001" style="stop-color:#EEEEF4"/>
			<stop  offset="0.5002" style="stop-color:#E3E9F4"/>
			<stop  offset="0.5004" style="stop-color:#DCE6F4"/>
			<stop  offset="0.501" style="stop-color:#DAE5F4"/>
			<stop  offset="0.7062" style="stop-color:#DAE5F4"/>
			<stop  offset="0.74" style="stop-color:#DAE5F4"/>
			<stop  offset="0.741" style="stop-color:#FFF5F4"/>
			<stop  offset="0.8346" style="stop-color:#FFF5F4"/>
			<stop  offset="0.85" style="stop-color:#FFF5F4"/>
			<stop  offset="0.851" style="stop-color:#DAE5F4"/>
		</linearGradient>
		<path style="fill:url(#SVGID_1_);" d="M492.938,144.13l-33.451,23.296l-0.768,0.512l-10.241,7.083l-100.267,69.888
			c-1.86,1.287-3.131,3.261-3.531,5.487c-0.4,2.226,0.103,4.52,1.398,6.374c1.285,1.862,3.26,3.135,5.487,3.535
			c2.227,0.4,4.522-0.104,6.375-1.402l48.469-33.707l7.424-5.205l46.593-32.427c3.8-2.656,8.461-3.783,13.055-3.157
			c0.067,0.279,0.095,0.566,0.085,0.853c0.068,0.1,0.098,0.221,0.085,0.341c1.213,7.123-1.073,14.394-6.144,19.541
			c-1.608,1.664-3.483,3.049-5.547,4.096l-24.065,16.896h-0.085l-12.8,9.045h-0.085l-19.541,13.653l-0.171,0.171
			c-9.728,8.021-18.176,15.445-25.684,22.528c-0.598,0.597-1.196,1.195-1.793,1.707c-40.959,38.827-53.93,65.28-85.759,89.173
			c-18.166,13.054-37.573,24.287-57.941,33.536c-21.214,9.93-45.883,9.202-66.475-1.963c-1.195-0.683-2.389-1.365-3.583-2.048
			c-0.171-0.171-0.427-0.341-0.598-0.512c-7.509-6.997-15.275-13.824-22.699-20.992c-2.867-3.317-5.546-6.793-8.022-10.411
			c-11.342-18.071-16.549-39.319-14.848-60.587c1.613-19.391,7.562-38.172,17.408-54.955c15.36-29.611,23.893-64.768,37.206-95.317
			c8.642-22.103,18.47-43.723,29.439-64.768c2.882-5.084,9.007-7.354,14.507-5.376c0.854,0.341,1.707,0.597,2.56,0.939v0.085
			c1.024,1.451,1.963,2.901,2.816,4.352c1.854,3.095,3.425,6.351,4.693,9.728c3.55,9.085,4.895,18.881,3.925,28.587
			c0,0.256-0.085,0.597-0.085,0.853c0,0,0,2.389-0.426,6.485c-1.144,10.022-3.464,19.875-6.913,29.355l2.133,0.768l17.665-17.664
			l5.631-5.632c0.014,0.344-0.015,0.688-0.085,1.024c0,0.256-0.085,0.597-0.085,0.853c0,0,0,2.389-0.426,6.485
			c-1.143,10.022-3.463,19.875-6.911,29.355l2.133,0.768l17.662-17.664l6.315-6.314L387.807,30.551
			c5.777-5.804,14.058-8.362,22.101-6.827c0.434,1.381,0.664,2.819,0.683,4.267v0.427c0.004,4.841-1.932,9.483-5.376,12.885
			l-40.874,40.875L276.618,169.9c-3.328,3.354-3.328,8.764,0,12.117c3.365,3.3,8.752,3.3,12.117,0L438.837,31.916
			c4.122-4.147,10.069-5.915,15.787-4.693c3.33,0.606,6.396,2.213,8.789,4.608c2.896,2.857,5.062,6.369,6.315,10.24
			c0.848,2.619,1.28,5.354,1.281,8.107c0.045,6.889-2.694,13.505-7.596,18.347l-21.077,21.077v0.085l-9.642,9.557l-21.078,21.077
			l-91.648,91.733l101.803-71.339l7.935-5.547l0.598-0.427l1.963-1.365l28.246-19.797c7.186-5.02,16.289-6.437,24.661-3.84
			c4.545,1.394,8.561,4.131,11.521,7.851c0.767,1.024,1.45,2.048,2.133,3.072c0.668,1.091,1.185,2.268,1.535,3.499v0.171
			C502.301,131.836,499.333,139.751,492.938,144.13z"/>
		<g>
			<path style="fill:#A2C0F5;" d="M370.741,432.642c-0.77,2.847-1.798,5.618-3.073,8.277c-0.317,0.493-0.602,1.006-0.853,1.536
				c-5.076,9.123-13.341,16.052-23.211,19.456c-6.246,1.956-13.061,0.153-17.522-4.636c-4.462-4.789-5.778-11.714-3.385-17.807
				c1.897-4.544,5.564-8.119,10.156-9.899c0.967-0.416,1.838-1.026,2.559-1.792c0.624-0.559,1.144-1.223,1.537-1.963
				c0.917-1.633,1.276-3.52,1.024-5.376c-0.113-0.446-0.142-0.909-0.085-1.365c-0.666-4.435,0.472-8.953,3.158-12.544
				c3.262-4.285,8.352-6.782,13.737-6.741c7.757-0.238,14.592,5.059,16.299,12.629C372.589,419.089,372.473,426.025,370.741,432.642
				L370.741,432.642z"/>
			<path style="fill:#A2C0F5;" d="M319.475,283.601c0.701,2.865,1.139,5.787,1.308,8.732c-0.039,0.585-0.041,1.172-0.005,1.757
				c-0.037,10.44-3.927,20.499-10.924,28.248c-4.524,4.73-11.362,6.443-17.582,4.405c-6.22-2.038-10.718-7.466-11.565-13.956
				c-0.535-4.895,0.95-9.797,4.11-13.573c0.645-0.831,1.114-1.786,1.375-2.805c0.276-0.791,0.411-1.624,0.397-2.461
				c0.014-1.873-0.583-3.699-1.7-5.202c-0.314-0.336-0.563-0.727-0.734-1.154c-2.725-3.562-3.911-8.067-3.294-12.509
				c0.787-5.328,4.037-9.973,8.772-12.539c6.677-3.955,15.221-2.62,20.372,3.185C314.547,270.842,317.795,276.971,319.475,283.601z"
				/>
			<path style="fill:#A2C0F5;" d="M209.365,345.554c0.111,2.947,0.491,5.878,1.136,8.756c0.198,0.552,0.36,1.116,0.486,1.688
				c2.897,10.03,9.396,18.638,18.249,24.171c5.648,3.309,12.693,3.082,18.116-0.583c5.423-3.665,8.261-10.118,7.297-16.592
				c-0.828-4.854-3.599-9.161-7.673-11.927c-0.849-0.622-1.56-1.412-2.092-2.321c-0.482-0.685-0.84-1.449-1.056-2.258
				c-0.527-1.797-0.453-3.717,0.209-5.469c0.21-0.409,0.343-0.854,0.39-1.311c1.645-4.173,1.551-8.83-0.261-12.933
				c-2.217-4.908-6.616-8.485-11.873-9.654c-7.505-1.974-15.356,1.653-18.719,8.647
				C210.608,331.932,209.164,338.717,209.365,345.554z"/>
			<path style="fill:#A2C0F5;" d="M241.216,486.899c1.807,2.331,3.823,4.491,6.024,6.455c0.482,0.333,0.943,0.697,1.379,1.089
				c8.198,6.464,18.494,9.675,28.914,9.015c6.518-0.601,12.112-4.889,14.385-11.028c2.273-6.138,0.82-13.036-3.735-17.736
				c-3.501-3.463-8.262-5.349-13.185-5.224c-1.052-0.012-2.091-0.239-3.052-0.668c-0.791-0.275-1.527-0.688-2.174-1.22
				c-1.475-1.154-2.534-2.757-3.016-4.567c-0.067-0.455-0.219-0.893-0.447-1.293c-1.094-4.349-3.884-8.08-7.746-10.359
				c-4.661-2.698-10.321-3.042-15.275-0.93c-7.25,2.768-11.518,10.289-10.177,17.933C234.29,475.104,237.07,481.46,241.216,486.899
				L241.216,486.899z"/>
		</g>
		<path style="fill:#FFFFFF;" d="M409.909,23.639v0.085c-8.044-1.535-16.325,1.023-22.101,6.827L197.77,221.868l6.059-39.168
			L369.887,15.362c4.744-4.767,11.219-7.404,17.943-7.308c6.724,0.097,13.121,2.919,17.726,7.82
			C407.632,18.059,409.128,20.728,409.909,23.639L409.909,23.639z"/>
	</g>
	<g>
		<path style="fill:#438CFF;" d="M8.562,512.002h162.133c3.671,0.002,6.931-2.347,8.092-5.829l26.498-79.346
			c16.623,2.946,33.752,0.638,49.002-6.604c20.902-9.473,40.809-21.005,59.425-34.425c16.487-12.985,31.37-27.887,44.333-44.392
			c20.675-25.274,43.805-48.436,69.05-69.147l55.958-39.166c2.622-1.428,5.023-3.23,7.125-5.35
			c10.872-11.275,12.078-28.729,2.859-41.392c-3.465-4.976-8.181-8.951-13.672-11.523l17.797-12.456
			c1.714-1.168,3.305-2.507,4.75-3.996c12.649-12.636,13.539-32.845,2.049-46.544c-11.49-13.698-31.546-16.339-46.19-6.081
			l-61.745,43.255l74.453-74.451c6.467-6.462,10.1-15.229,10.1-24.371s-3.633-17.909-10.1-24.371
			c-13.634-13.025-35.1-13.025-48.733,0l-0.04,0.04c-3.052-11.969-12.298-21.377-24.213-24.636
			c-11.914-3.26-24.662,0.131-33.382,8.88L238.771,135.434c0.566-3.74,0.911-7.51,1.033-11.291
			c1.681-15.367-1.733-30.862-9.717-44.1c-3.964-7.03-9.375-13.138-15.875-17.921c-3.779-2.681-7.932-4.793-12.325-6.267
			c-9.38-3.434-19.871,0.378-24.859,9.033c-8.333,15.125-15.679,30.773-21.992,46.846c-2.025,4.871-4.083,9.808-6.258,14.846
			c-1.869,4.326,0.124,9.348,4.45,11.217s9.348-0.124,11.217-4.45c2.208-5.108,4.292-10.108,6.35-15.046
			c6.045-15.407,13.071-30.411,21.033-44.921c0.8-1.426,2.503-2.077,4.05-1.55c2.966,0.96,5.777,2.349,8.342,4.121
			c4.597,3.43,8.412,7.8,11.192,12.817c6.14,10.111,8.743,21.977,7.4,33.729c-0.043,0.347-0.065,0.696-0.067,1.046
			c-1.246,20.743-7.963,40.786-19.467,58.092c-13.491,20.08-21.245,43.462-22.425,67.625c0.001,4.701,3.808,8.513,8.508,8.521h0.025
			c4.697-0.007,8.508-3.803,8.533-8.5c1.26-20.783,8.009-40.86,19.558-58.183c4.896-7.368,9.051-15.202,12.405-23.388
			c0.814-0.369,1.564-0.867,2.22-1.474L328.17,70.17c2.509,6.705,6.785,12.605,12.375,17.077c3.988,3.023,8.563,5.179,13.433,6.328
			l-71.075,71.072l-0.017,0.025l-5.217,5.217c-3.332,3.332-3.332,8.735,0,12.067c3.332,3.332,8.735,3.332,12.067,0L395.555,76.138
			c2.138,6.885,6.029,13.097,11.291,18.026c3.662,3.273,7.968,5.742,12.643,7.248L314.337,206.56
			c-0.224,0.291-0.427,0.597-0.608,0.917l-0.013,0.019c-2.726,3.392-2.403,8.306,0.743,11.312s8.07,3.104,11.334,0.225l0.06-0.027
			l0.381-0.267c0.05-0.048,0.119-0.062,0.169-0.112l0.021-0.02l94.542-66.234c2.352,7.969,7.067,15.038,13.521,20.271
			c3.082,2.35,6.528,4.179,10.202,5.413l-95.519,66.891c-0.19,0.133-0.283,0.337-0.459,0.482c-0.174,0.144-0.393,0.196-0.557,0.356
			c-0.214,0.269-0.41,0.552-0.588,0.846c-1.041,1.291-1.698,2.848-1.896,4.495c-0.042,0.532-0.033,1.067,0.027,1.597
			c0.06,1.11,0.386,2.188,0.952,3.145c0.119,0.331,0.259,0.654,0.421,0.967l0.096,0.092l0.004,0.009l0.06,0.052
			c0.092,0.124,0.225,0.19,0.323,0.307c0.142,0.173,0.193,0.389,0.35,0.553l0.1,0.104c0.275,0.217,0.564,0.415,0.865,0.594
			c0.325,0.284,0.672,0.541,1.036,0.771c0.228,0.133,0.424,0.286,0.661,0.397c0.486,0.193,0.99,0.338,1.504,0.434
			c0.309,0.08,0.623,0.143,0.94,0.188c0.312,0.081,0.629,0.144,0.948,0.19c0.073,0.002,0.14,0.051,0.213,0.051
			c1.027-0.022,2.042-0.23,2.995-0.615l0.186-0.091c0.597-0.214,1.168-0.494,1.702-0.835l44.66-31.258
			c2.237,7.681,6.658,14.546,12.723,19.763c2.668,2.148,5.636,3.894,8.809,5.183l-8.126,5.688c-0.169,0.119-0.346,0.3-0.538,0.461
			c-0.052,0.041-0.119,0.05-0.171,0.093c-26.088,21.384-49.996,45.296-71.375,71.387c-12.166,15.512-26.114,29.539-41.558,41.792
			c-17.689,12.72-36.599,23.652-56.45,32.633c-24.202,11.401-52.914,6.847-72.4-11.483c-2.092-1.896-4.075-3.733-5.958-5.475
			l-1.358-1.258c-3.183-2.979-6.409-5.921-9.642-8.867c-13.251-11.124-25.154-23.762-35.467-37.654
			c-5.732-8.648-9.662-18.362-11.556-28.563l-0.04-0.165c-1.662-8.776-2.262-17.719-1.788-26.639
			c1.559-18.167,7.184-35.751,16.458-51.45c5.92-11.766,11.105-23.888,15.525-36.296c1.068-2.86,0.525-6.073-1.422-8.425
			c-1.947-2.351-5.003-3.483-8.012-2.967c-3.009,0.516-5.513,2.601-6.566,5.467c-4.186,11.748-9.09,23.228-14.683,34.375
			c-10.463,17.846-16.737,37.834-18.35,58.458c-0.402,8.391-0.004,16.801,1.19,25.116L3.829,368.369c-2.374,1.582-3.8,4.247-3.8,7.1
			v128c-0.001,2.263,0.898,4.434,2.499,6.035S6.299,512.002,8.562,512.002z M350.987,73.752c-4.992-4.51-8.208-10.655-9.069-17.328
			l34.26-34.26c6.884-6.579,17.725-6.579,24.608,0c6.783,6.799,6.783,17.805,0,24.604l-30.678,30.677
			C363.497,78.797,356.62,77.469,350.987,73.752z M418.32,81.535c-5.066-5.332-8.091-12.28-8.542-19.621l24.034-24.033
			c6.882-6.578,17.721-6.576,24.6,0.004c3.265,3.261,5.1,7.687,5.1,12.302s-1.835,9.041-5.1,12.302L434.57,86.33
			C428.732,86.949,422.887,85.225,418.32,81.535L418.32,81.535z M435.878,141.925l31.668-22.186
			c7.4-5.192,17.542-3.857,23.346,3.073c5.804,6.93,5.339,17.149-1.071,23.523c-0.696,0.727-1.464,1.382-2.292,1.954l-20.065,14.042
			c-7.623,2.243-15.844,1.077-22.544-3.196C439.943,154.666,436.735,148.559,435.878,141.925L435.878,141.925z M427.32,234.393
			c-4.747-4.544-7.795-10.576-8.637-17.093l38.439-26.903c7.704-3.859,17.076-1.416,21.916,5.713
			c4.474,5.889,4.08,14.138-0.933,19.575c-0.997,1.014-2.147,1.864-3.408,2.521c-0.343,0.179-0.674,0.379-0.992,0.6L445.41,238.61
			C439.059,239.689,432.54,238.17,427.32,234.393L427.32,234.393z M97.087,326.711c2.559,8.129,6.265,15.851,11.008,22.932
			c11.057,15.001,23.84,28.651,38.084,40.667c3.175,2.892,6.342,5.783,9.508,8.746l1.392,1.287c1.925,1.779,3.958,3.663,6.008,5.521
			c7.503,6.987,16.236,12.524,25.756,16.329l-24.298,72.741h-46.733l40.55-27.034c3.875-2.632,4.904-7.895,2.306-11.793
			c-2.599-3.898-7.853-4.972-11.773-2.406l-61.85,41.233h-37.5l91.75-61.167c3.875-2.632,4.904-7.895,2.306-11.793
			c-2.599-3.898-7.853-4.972-11.773-2.406l-113.05,75.366h-1.683v-21.033l98.6-65.734c2.57-1.677,4.041-4.605,3.853-7.668
			c-0.188-3.063-2.005-5.789-4.76-7.14c-2.755-1.351-6.023-1.119-8.56,0.608l-89.133,59.422v-22.156l73-48.667
			c3.869-2.634,4.894-7.893,2.298-11.787c-2.596-3.894-7.845-4.97-11.764-2.412l-63.533,42.355v-30.689L97.087,326.711z"/>
		<path style="fill:#438CFF;" d="M273.045,313.739c0.009,0.1,0.025,0.196,0.042,0.296c1.907,12.697,12.794,22.103,25.633,22.146
			c7.005,0.011,13.678-2.984,18.325-8.225c10.243-11.052,14.798-26.22,12.337-41.086c-0.006-0.234-0.037-0.456-0.062-0.69
			c-1.454-9.76-5.716-18.885-12.267-26.265c-6.444-7.219-16.513-10.004-25.75-7.121c-9.681,2.821-16.809,11.053-18.217,21.038
			c-0.017,0.1-0.033,0.2-0.042,0.3c-0.804,7.056,1.251,14.141,5.704,19.673c0.013,0.051,0.052,0.091,0.067,0.142
			C274.316,299.503,272.237,306.635,273.045,313.739L273.045,313.739z M296.229,318.735c-3.245-0.933-5.666-3.645-6.225-6.975
			l-0.025-0.188c-0.21-2.614,0.633-5.203,2.342-7.192c0.761-1.085,1.392-2.255,1.879-3.487c0.885,0.034,1.675,0.112,2.621,0.112
			c5.281-0.026,10.541-0.673,15.671-1.926c-0.964,6.505-3.803,12.589-8.171,17.505C302.29,318.846,299.114,319.69,296.229,318.735
			L296.229,318.735z M290.004,276.102c0.561-3.327,2.982-6.036,6.225-6.967c2.884-0.971,6.07-0.124,8.092,2.15
			c2.785,3.117,4.97,6.722,6.443,10.634c-5.935,1.733-12.139,2.352-18.299,1.828c-0.057-0.077-0.077-0.177-0.135-0.253
			c-1.693-2-2.537-4.582-2.35-7.196L290.004,276.102z"/>
		<path style="fill:#438CFF;" d="M253.262,323.052l-0.142-0.308c-4.047-9.111-13.007-15.052-22.975-15.233
			c-9.699-0.456-18.738,4.909-22.983,13.642c-4.383,8.855-6.095,18.793-4.927,28.604c0.033,0.209,0.058,0.408,0.107,0.612
			c1.527,15.001,9.909,28.451,22.703,36.43c3.974,2.598,8.619,3.984,13.367,3.987c4.727-0.015,9.354-1.362,13.35-3.888
			c8.515-5.22,13.227-14.908,12.075-24.829c-0.009-0.096-0.017-0.192-0.033-0.288c-1.014-7.17-4.921-13.611-10.81-17.824
			c0-0.046,0.024-0.089,0.023-0.135C255.91,337.218,255.999,329.722,253.262,323.052L253.262,323.052z M229.454,324.568h0.225
			c3.433,0.049,6.521,2.098,7.9,5.242l0.092,0.192c0.784,2.438,0.621,5.082-0.458,7.404c-0.037,0.089-0.029,0.19-0.065,0.28
			c-5.805,2.128-11.955,3.16-18.136,3.045c0.394-4.162,1.553-8.216,3.418-11.958C223.747,326.118,226.491,324.476,229.454,324.568
			L229.454,324.568z M242.712,372.427c-2.531,1.687-5.822,1.708-8.375,0.054c-5.502-3.597-9.838-8.716-12.481-14.734
			c6.151-0.19,12.247-1.226,18.116-3.078c0.796,1.064,1.712,2.032,2.732,2.883c2.114,1.456,3.595,3.662,4.142,6.171l0.025,0.175
			C247.276,367.31,245.65,370.644,242.712,372.427L242.712,372.427z"/>
		<path style="fill:#438CFF;" d="M237.829,494.688c0.185,0.2,0.379,0.39,0.583,0.569c9.491,10.838,23.253,16.974,37.658,16.791
			c0.8,0,1.6-0.017,2.4-0.054c9.67-0.44,18.186-6.502,21.767-15.496c3.914-9.291,2.023-20.013-4.833-27.404l-0.208-0.208
			c-4.995-5.121-11.847-8.007-19-8.003l-0.025-0.049c-1.495-7.09-5.816-13.263-11.967-17.093
			c-8.635-5.207-19.521-4.869-27.817,0.862c-8.073,5.342-12.266,14.919-10.717,24.475
			C227.217,478.592,231.433,487.474,237.829,494.688L237.829,494.688z M282.97,480.793c2.227,2.532,2.804,6.118,1.483,9.221
			c-1.075,2.85-3.741,4.787-6.783,4.929c-6.544,0.304-13.034-1.316-18.667-4.661c4.885-3.75,9.232-8.152,12.921-13.084
			c1.249,0.393,2.54,0.639,3.846,0.733c2.617-0.052,5.15,0.922,7.058,2.713L282.97,480.793z M245.953,458.731
			c1.505-1.014,3.277-1.562,5.092-1.575c1.558,0.002,3.086,0.431,4.417,1.242c2.155,1.48,3.63,3.758,4.1,6.329
			c0.021,0.092,0.085,0.168,0.108,0.26c-3.494,5.105-7.911,9.514-13.023,12.998c-2.073-3.588-3.472-7.525-4.127-11.617
			C242.041,463.366,243.39,460.366,245.953,458.731L245.953,458.731z"/>
		<path style="fill:#438CFF;" d="M315.72,436.473c-3.618,9.414-1.385,20.075,5.708,27.246c6.661,7.023,16.824,9.481,25.958,6.279
			c11.857-4.116,21.78-12.458,27.875-23.429v-0.004c1.117-2.115,2.084-4.307,2.894-6.558c0.105-0.205,0.188-0.41,0.275-0.623
			c3.447-9.225,4.147-19.251,2.015-28.865c-2.125-9.446-9.584-16.773-19.067-18.729c-9.84-2.225-20.071,1.52-26.15,9.571
			c-4.264,5.825-5.972,13.134-4.73,20.245l-0.006,0.09C323.761,424.403,318.426,429.74,315.72,436.473z M341.787,453.881
			c-2.874,0.982-6.056,0.177-8.117-2.054c-2.431-2.439-3.21-6.075-1.992-9.296c1.103-2.372,3.088-4.22,5.533-5.15
			c1.183-0.574,2.295-1.285,3.313-2.117c5.262,3.205,10.937,5.675,16.869,7.341C353.389,447.791,347.968,451.707,341.787,453.881
			L341.787,453.881z M348.829,411.668c1.649-2.182,4.24-3.448,6.975-3.408c0.655,0,1.309,0.069,1.95,0.204
			c2.991,0.562,5.364,2.845,6.042,5.813c0.915,4.08,1.069,8.294,0.456,12.43c-6.031-1.366-11.756-3.84-16.884-7.295
			c-0.014-0.095,0.018-0.191,0.003-0.285C346.865,416.545,347.388,413.869,348.829,411.668L348.829,411.668z"/>
		<path style="fill:#438CFF;" d="M142.125,170.135c4.418,1.64,9.329-0.611,10.97-5.029c1.641-4.418-0.611-9.329-5.029-10.97
			c-4.418-1.641-9.329,0.611-10.97,5.028C135.455,163.582,137.706,168.494,142.125,170.135L142.125,170.135z"/>
	</g>
</g>
<g>
</g>
<g>
</g>
<g>
</g>
<g>
</g>
<g>
</g>
<g>
</g>
<g>
</g>
<g>
</g>
<g>
</g>
<g>
</g>
<g>
</g>
<g>
</g>
<g>
</g>
<g>
</g>
<g>
</g>
</svg>
