<?xml version="1.0" encoding="iso-8859-1"?>
<!-- Generator: Adobe Illustrator 19.0.0, SVG Export Plug-In . SVG Version: 6.00 Build 0)  -->
<svg version="1.1" id="Capa_1" xmlns="http://www.w3.org/2000/svg" xmlns:xlink="http://www.w3.org/1999/xlink" x="0px" y="0px"
	 viewBox="0 0 512 512" style="enable-background:new 0 0 512 512;" xml:space="preserve">
<g>
	<g transform="translate(1 1)">
		<path style="fill:#A2C0F5;" d="M417.219,379.501c5.745,13.691,10.675,27.71,14.763,41.984c0.983,2.981,0.203,6.261-2.016,8.48
			c-2.219,2.219-5.499,2.999-8.48,2.016c-14.282-4.063-28.302-8.993-41.984-14.763l-46.336,26.624v0.085
			c-1.824,14.741-4.531,29.359-8.107,43.776c-0.638,3.073-2.953,5.524-5.985,6.336c-3.032,0.812-6.262-0.154-8.351-2.496
			c-10.342-10.73-20.03-22.072-29.013-33.963l-53.333,0.085c-9.013,11.865-18.73,23.177-29.099,33.877
			c-2.089,2.343-5.319,3.308-8.351,2.496c-3.032-0.812-5.347-3.263-5.985-6.336c-3.583-14.415-6.29-29.034-8.107-43.776v-0.085
			l-46.336-26.624c-13.691,5.745-27.71,10.675-41.984,14.763c-2.981,0.983-6.261,0.203-8.48-2.016s-2.999-5.499-2.016-8.48
			c4.063-14.282,8.993-28.302,14.763-41.984l-26.624-46.336h-0.085c-14.741-1.824-29.359-4.531-43.776-8.107
			c-3.073-0.638-5.524-2.953-6.336-5.985c-0.812-3.032,0.154-6.262,2.496-8.351c10.73-10.342,22.072-20.03,33.963-29.013
			l-0.085-53.333c-11.865-9.013-23.177-18.73-33.877-29.099c-2.343-2.089-3.308-5.319-2.496-8.351
			c0.812-3.032,3.263-5.347,6.336-5.985c14.415-3.583,29.034-6.29,43.776-8.107h0.085l26.624-46.336
			c-5.745-13.691-10.675-27.71-14.763-41.984c-0.983-2.981-0.203-6.261,2.016-8.48s5.499-2.999,8.48-2.016
			c14.282,4.063,28.303,8.993,41.984,14.763l46.336-26.624v-0.085c1.824-14.741,4.531-29.359,8.107-43.776
			c0.638-3.073,2.953-5.524,5.985-6.336c3.032-0.812,6.262,0.154,8.351,2.496c10.342,10.73,20.03,22.072,29.013,33.963l53.333-0.085
			c9.013-11.865,18.73-23.177,29.099-33.877c2.089-2.343,5.319-3.308,8.351-2.496c3.032,0.812,5.347,3.263,5.985,6.336
			c3.583,14.415,6.29,29.034,8.107,43.776v0.085l46.336,26.624c13.691-5.745,27.71-10.675,41.984-14.763
			c2.981-0.983,6.261-0.203,8.48,2.016c2.219,2.219,2.999,5.499,2.016,8.48c-4.063,14.282-8.993,28.303-14.763,41.984l26.624,46.336
			h0.085c14.741,1.824,29.359,4.531,43.776,8.107c3.073,0.638,5.524,2.953,6.336,5.985c0.812,3.032-0.154,6.262-2.496,8.351
			c-10.73,10.342-22.072,20.03-33.963,29.013l0.085,53.333c11.865,9.013,23.177,18.73,33.877,29.099
			c2.343,2.089,3.308,5.319,2.496,8.351c-0.812,3.032-3.263,5.347-6.336,5.985c-14.415,3.583-29.034,6.29-43.776,8.107h-0.085"/>
		<path style="fill:#D3DFF2;" d="M497.892,247.574c-17.69-9.664-48.938-25.315-66.996-26.486c-1.624-8.324-3.842-16.52-6.637-24.527
			c15.052-10.044,34.319-39.362,44.805-56.575c1.723-2.626,1.819-5.999,0.249-8.718c-1.57-2.72-4.539-4.323-7.675-4.144
			c-20.158,0.476-55.2,2.502-71.417,10.524c-5.53-6.366-11.501-12.337-17.867-17.868c8.021-16.217,10.048-51.258,10.523-71.417
			c0.179-3.136-1.424-6.105-4.144-7.675c-2.72-1.57-6.093-1.474-8.719,0.249c-17.212,10.487-46.531,29.752-56.575,44.805
			c-8.007-2.795-16.203-5.013-24.527-6.636c-1.171-18.058-16.823-49.307-26.486-66.997c-1.413-2.805-4.285-4.575-7.426-4.575
			s-6.013,1.77-7.426,4.575c-9.664,17.69-25.316,48.939-26.486,66.997c-8.324,1.623-16.521,3.841-24.527,6.636
			c-10.044-15.053-39.362-34.318-56.575-44.805c-2.626-1.723-5.999-1.819-8.719-0.249c-2.72,1.57-4.323,4.539-4.144,7.675
			c0.475,20.158,2.502,55.199,10.523,71.417c-6.366,5.531-12.336,11.501-17.867,17.868c-16.217-8.022-51.258-10.048-71.417-10.524
			c-3.136-0.179-6.104,1.424-7.675,4.144c-1.57,2.72-1.474,6.092,0.249,8.718c10.486,17.214,29.753,46.531,44.805,56.576
			c-2.795,8.007-5.013,16.203-6.637,24.527c-18.058,1.171-49.306,16.822-66.996,26.486c-2.805,1.412-4.575,4.285-4.575,7.426
			s1.77,6.013,4.575,7.426c17.69,9.665,48.938,25.316,66.996,26.487c1.624,8.324,3.842,16.52,6.637,24.527
			c-15.053,10.044-34.319,39.362-44.805,56.576c-1.723,2.626-1.819,5.998-0.249,8.718s4.539,4.323,7.675,4.143
			c20.158-0.475,55.2-2.502,71.417-10.523c5.53,6.366,11.501,12.337,17.867,17.867c-8.021,16.218-10.048,51.259-10.523,71.417
			c-0.179,3.136,1.424,6.105,4.144,7.675c2.72,1.57,6.093,1.474,8.719-0.249c17.213-10.486,46.53-29.751,56.575-44.805
			c8.007,2.795,16.203,5.013,24.527,6.637c1.171,18.059,16.823,49.307,26.486,66.996c1.413,2.805,4.285,4.575,7.426,4.575
			s6.013-1.77,7.426-4.575c9.664-17.689,25.316-48.938,26.486-66.996c8.324-1.624,16.52-3.841,24.527-6.637
			c10.045,15.054,39.363,34.318,56.575,44.805c2.626,1.723,5.999,1.82,8.719,0.249s4.323-4.539,4.144-7.675
			c-0.475-20.158-2.502-55.2-10.523-71.417c6.366-5.531,12.336-11.501,17.867-17.867c16.217,8.022,51.258,10.048,71.417,10.523
			c3.135,0.179,6.104-1.423,7.675-4.143s1.474-6.092-0.249-8.718c-10.486-17.214-29.752-46.532-44.805-56.576
			c2.796-8.007,5.014-16.203,6.637-24.527c18.058-1.171,49.306-16.822,66.996-26.487c2.805-1.412,4.575-4.285,4.575-7.426
			C502.467,251.859,500.697,248.986,497.892,247.574z"/>
		<circle style="fill:#A2C0F5;" cx="255" cy="255" r="179.2"/>
		<ellipse style="fill:#D3DFF2;" cx="242.2" cy="255" rx="166.4" ry="179.2"/>
		
			<linearGradient id="SVGID_1_" gradientUnits="userSpaceOnUse" x1="-49.6942" y1="651.3774" x2="-48.9809" y2="650.6641" gradientTransform="matrix(290.1334 0 0 -290.1334 14567.6475 189137.8281)">
			<stop  offset="0" style="stop-color:#DAE5F4"/>
			<stop  offset="0.1717" style="stop-color:#DAE5F4"/>
			<stop  offset="0.2" style="stop-color:#DAE5F4"/>
			<stop  offset="0.2006" style="stop-color:#EBECF4"/>
			<stop  offset="0.2013" style="stop-color:#F6F1F4"/>
			<stop  offset="0.2022" style="stop-color:#FDF4F4"/>
			<stop  offset="0.205" style="stop-color:#FFF5F4"/>
			<stop  offset="0.2522" style="stop-color:#FFF5F4"/>
			<stop  offset="0.26" style="stop-color:#FFF5F4"/>
			<stop  offset="0.26" style="stop-color:#DAE5F4"/>
			<stop  offset="0.3974" style="stop-color:#DAE5F4"/>
			<stop  offset="0.42" style="stop-color:#DAE5F4"/>
			<stop  offset="0.4206" style="stop-color:#EBECF4"/>
			<stop  offset="0.4212" style="stop-color:#F6F1F4"/>
			<stop  offset="0.4222" style="stop-color:#FDF4F4"/>
			<stop  offset="0.425" style="stop-color:#FFF5F4"/>
			<stop  offset="0.4894" style="stop-color:#FFF5F4"/>
			<stop  offset="0.5" style="stop-color:#FFF5F4"/>
			<stop  offset="0.5001" style="stop-color:#EEEEF4"/>
			<stop  offset="0.5002" style="stop-color:#E3E9F4"/>
			<stop  offset="0.5004" style="stop-color:#DCE6F4"/>
			<stop  offset="0.501" style="stop-color:#DAE5F4"/>
			<stop  offset="0.7062" style="stop-color:#DAE5F4"/>
			<stop  offset="0.74" style="stop-color:#DAE5F4"/>
			<stop  offset="0.741" style="stop-color:#FFF5F4"/>
			<stop  offset="0.8346" style="stop-color:#FFF5F4"/>
			<stop  offset="0.85" style="stop-color:#FFF5F4"/>
			<stop  offset="0.851" style="stop-color:#DAE5F4"/>
		</linearGradient>
		<path style="fill:url(#SVGID_1_);" d="M255,109.933c-2.129,0-4.201,0.228-6.307,0.319c-1.931-0.091-3.83-0.319-5.782-0.319
			c-73.326,0-132.978,65.075-132.978,145.067s59.651,145.067,132.978,145.067c1.952,0,3.851-0.228,5.782-0.319
			c2.106,0.091,4.178,0.319,6.307,0.319c80.118,0,145.067-64.949,145.067-145.067S335.118,109.933,255,109.933z"/>
	</g>
	<g>
		<path style="fill:#438CFF;" d="M502.983,241.087c-8.414-4.598-18.054-9.542-27.801-13.988
			c8.831-7.271,17.128-14.827,23.234-20.633c4.61-4.239,6.486-10.688,4.869-16.738c-1.617-6.051-6.459-10.704-12.569-12.079
			c-6.766-1.643-18.167-4.224-30.405-6.256c6.194-8.708,12.055-17.792,17.039-25.969c3.346-5.29,3.484-11.998,0.358-17.421
			c-3.169-5.387-9.028-8.613-15.275-8.408c-9.558,0.224-20.335,0.757-30.956,1.762c4.002-10.73,7.347-21.391,9.69-29.433
			c1.863-5.973,0.261-12.486-4.16-16.914c-4.421-4.427-10.931-6.039-16.907-4.186c-6.646,1.935-17.787,5.367-29.458,9.715
			c1.006-10.626,1.54-21.409,1.766-30.973c0.249-6.255-2.988-12.134-8.408-15.267c-5.433-3.086-12.12-2.952-17.425,0.35
			c-8.175,4.979-17.254,10.837-25.959,17.026c-1.885-11.384-4.295-22.281-6.266-30.38c-1.367-6.103-6.005-10.945-12.044-12.573
			c-6.039-1.627-12.482,0.228-16.731,4.819c-4.799,4.991-12.752,13.532-20.721,23.168c-4.433-9.711-9.359-19.311-13.938-27.693
			C268.006,3.473,262.261,0,256,0s-12.006,3.473-14.917,9.017c-4.594,8.41-9.537,18.049-13.983,27.795
			c-7.28-8.844-14.831-17.137-20.634-23.233c-4.241-4.609-10.689-6.483-16.739-4.865c-6.05,1.618-10.703,6.46-12.078,12.57
			c-1.644,6.762-4.223,18.162-6.256,30.398c-8.708-6.192-17.79-12.051-25.968-17.032c-5.305-3.302-11.992-3.436-17.425-0.35
			c-5.419,3.132-8.657,9.008-8.408,15.263c0.227,9.56,0.759,20.337,1.765,30.958c-10.748-4.011-21.4-7.351-29.423-9.687
			c-5.975-1.865-12.491-0.264-16.92,4.158c-4.43,4.422-6.043,10.935-4.188,16.913c1.945,6.665,5.382,17.82,9.717,29.456
			c-10.625-1.007-21.406-1.539-30.967-1.764c-6.25-0.21-12.115,3.016-15.283,8.408c-3.125,5.423-2.987,12.131,0.358,17.421
			c4.981,8.174,10.84,17.254,17.031,25.959c-11.388,1.886-22.283,4.297-30.373,6.262c-6.108,1.364-10.956,6.004-12.584,12.048
			s0.23,12.491,4.826,16.74c4.996,4.798,13.54,12.749,23.167,20.712c-9.712,4.434-19.316,9.36-27.7,13.942
			C3.473,243.996,0,249.739,0,256c0,6.26,3.473,12.004,9.017,14.912c8.415,4.598,18.054,9.543,27.8,13.989
			c-8.831,7.271-17.127,14.826-23.233,20.632c-4.61,4.239-6.486,10.688-4.869,16.738c1.617,6.051,6.459,10.704,12.569,12.079
			c6.766,1.643,18.167,4.224,30.406,6.256c-6.194,8.708-12.056,17.791-17.04,25.969c-3.346,5.29-3.484,11.998-0.358,17.421
			c3.193,5.362,9.036,8.578,15.275,8.408c9.558-0.224,20.335-0.757,30.956-1.762c-4.002,10.73-7.347,21.391-9.69,29.433
			c-1.816,5.982-0.214,12.477,4.175,16.929c3.175,3.149,7.47,4.909,11.942,4.892c1.676-0.001,3.343-0.244,4.95-0.721
			c6.646-1.935,17.787-5.367,29.458-9.715c-1.006,10.626-1.54,21.409-1.766,30.973c-0.249,6.255,2.988,12.134,8.408,15.267
			c5.436,3.078,12.117,2.944,17.425-0.35c8.175-4.979,17.255-10.836,25.96-17.026c1.885,11.383,4.294,22.281,6.265,30.38
			c1.412,6.095,6.051,10.926,12.083,12.583c1.395,0.371,2.832,0.559,4.275,0.558c4.702-0.018,9.191-1.966,12.417-5.387
			c4.799-4.991,12.752-13.532,20.721-23.168c4.433,9.711,9.359,19.311,13.938,27.693c2.91,5.544,8.655,9.017,14.917,9.017
			c6.262,0,12.006-3.473,14.917-9.017c4.594-8.41,9.537-18.049,13.983-27.795c7.28,8.844,14.831,17.137,20.634,23.233
			c3.237,3.44,7.743,5.401,12.467,5.425c1.44,0,2.875-0.188,4.267-0.558c6.029-1.656,10.667-6.481,12.083-12.571
			c1.644-6.762,4.223-18.162,6.256-30.398c8.708,6.192,17.791,12.051,25.969,17.032c5.308,3.294,11.99,3.428,17.425,0.35
			c5.419-3.132,8.657-9.008,8.408-15.263c-0.227-9.56-0.759-20.338-1.765-30.958c10.748,4.011,21.4,7.352,29.423,9.688
			c1.618,0.479,3.296,0.724,4.983,0.725c4.472,0.022,8.768-1.737,11.941-4.888c4.385-4.445,5.989-10.931,4.183-16.908
			c-1.945-6.665-5.382-17.82-9.717-29.456c10.625,1.007,21.406,1.539,30.967,1.764l0.433,0.009
			c6.098,0.049,11.759-3.159,14.85-8.417c3.125-5.423,2.987-12.131-0.358-17.421c-4.981-8.175-10.842-17.254-17.031-25.959
			c11.386-1.886,22.283-4.297,30.373-6.262c6.108-1.364,10.956-6.004,12.584-12.048c1.629-6.043-0.23-12.491-4.826-16.74
			c-4.996-4.798-13.538-12.748-23.165-20.711c9.71-4.434,19.312-9.36,27.698-13.943C508.527,268.004,512,262.261,512,256
			C512,249.74,508.527,243.996,502.983,241.087L502.983,241.087z M486.658,194.096c-9.414,9.008-19.277,17.536-29.55,25.551
			c-5.876-2.215-11.918-3.96-18.071-5.217c-1.067-4.698-2.264-9.347-3.676-13.905c4.711-4.198,9.082-8.763,13.072-13.652
			C463.298,188.831,478.505,192.236,486.658,194.096z M381.048,371.756c-2.971,3.208-6.051,6.289-9.24,9.244
			c-17.465,16.225-38.136,28.61-60.681,36.356c-3.219,1.099-6.344,2.039-9.444,2.917c-1.848,0.515-3.711,0.986-5.583,1.44
			c-2.558,0.629-5.122,1.285-7.657,1.773c-21.421,4.242-43.465,4.242-64.885,0c-2.535-0.489-5.099-1.145-7.657-1.773
			c-1.872-0.454-3.735-0.925-5.583-1.44c-3.1-0.878-6.225-1.817-9.444-2.917c-22.545-7.746-43.216-20.13-60.681-36.356
			c-3.19-2.957-6.27-6.039-9.239-9.244c-16.187-17.438-28.547-38.07-36.285-60.57c-1.105-3.213-2.044-6.342-2.926-9.452
			c-0.524-1.877-1.001-3.77-1.461-5.671c-0.625-2.547-1.279-5.096-1.766-7.63c-4.239-21.414-4.239-43.451,0-64.865
			c0.492-2.55,1.152-5.131,1.786-7.709c0.448-1.847,0.912-3.685,1.42-5.508c0.877-3.102,1.817-6.232,2.918-9.456
			c7.738-22.53,20.109-43.19,36.315-60.65c2.971-3.208,6.051-6.289,9.24-9.244c17.465-16.225,38.136-28.61,60.681-36.356
			c3.219-1.1,6.344-2.039,9.444-2.917c1.848-0.515,3.711-0.986,5.583-1.44c2.558-0.629,5.122-1.285,7.657-1.773
			c21.421-4.242,43.465-4.242,64.885,0c2.535,0.489,5.099,1.145,7.657,1.773c1.872,0.454,3.735,0.925,5.583,1.44
			c3.1,0.878,6.225,1.817,9.444,2.917c22.545,7.746,43.216,20.13,60.681,36.356c3.19,2.957,6.269,6.039,9.24,9.244
			c16.207,17.459,28.578,38.12,36.316,60.65c1.101,3.224,2.041,6.354,2.918,9.456c0.507,1.823,0.972,3.661,1.42,5.508
			c0.634,2.578,1.295,5.16,1.786,7.709c4.239,21.414,4.239,43.451,0,64.865c-0.488,2.534-1.142,5.083-1.766,7.63
			c-0.461,1.901-0.937,3.795-1.461,5.671c-0.882,3.11-1.821,6.239-2.926,9.452C409.595,333.686,397.235,354.317,381.048,371.756z
			 M462.783,136.542c-9.639,16.632-20.961,32.231-33.787,46.55c-6.106-14.401-13.987-27.983-23.46-40.43
			C424.361,138.686,443.543,136.636,462.783,136.542L462.783,136.542z M424.792,87.129c-3.599,12.468-7.836,24.743-12.694,36.777
			c-6.285,1.015-12.478,2.533-18.521,4.539c-3.214-3.466-6.556-6.807-10.024-10.024c2.012-6.056,3.533-12.264,4.549-18.563
			C402.048,94.135,416.844,89.536,424.792,87.129L424.792,87.129z M375.342,49.162c-0.023,19.256-2.037,38.457-6.008,57.299
			c-12.447-9.473-26.028-17.353-40.429-23.458C343.2,70.183,358.759,58.845,375.342,49.162L375.342,49.162z M317.767,25.308
			c3.109,12.615,5.567,25.381,7.364,38.248c-4.894,3.991-9.462,8.365-13.663,13.081c-4.554-1.411-9.2-2.607-13.894-3.673
			c-1.27-6.21-3.035-12.308-5.279-18.236C301.564,42.74,312.089,31.379,317.767,25.308z M255.933,17.2
			c9.596,16.661,17.427,34.277,23.364,52.564c-15.468-1.997-31.129-1.997-46.598,0.001C238.623,51.493,246.408,33.879,255.933,17.2
			L255.933,17.2z M194.092,25.337c9.01,9.414,17.538,19.278,25.552,29.554c-2.216,5.876-3.961,11.92-5.219,18.073
			c-4.693,1.066-9.34,2.261-13.894,3.673c-4.199-4.713-8.766-9.086-13.657-13.077C188.834,48.702,192.232,33.493,194.092,25.337
			L194.092,25.337z M183.094,83.004c-14.401,6.105-27.982,13.986-40.429,23.458c-3.977-18.822-6.028-38-6.123-57.237
			C153.176,58.858,168.776,70.178,183.094,83.004L183.094,83.004z M87.133,87.208c12.467,3.596,24.74,7.832,36.772,12.691
			c1.015,6.286,2.534,12.48,4.542,18.522c-3.466,3.215-6.807,6.556-10.024,10.024c-6.059-2.01-12.269-3.531-18.571-4.547
			C94.156,110.016,89.547,95.186,87.133,87.208L87.133,87.208z M106.464,142.663c-9.474,12.447-17.355,26.029-23.46,40.431
			c-12.819-14.297-24.156-29.856-33.837-46.44C68.422,136.68,87.623,138.693,106.464,142.663L106.464,142.663z M25.317,194.233
			c12.613-3.113,25.379-5.572,38.247-7.366c3.99,4.891,8.362,9.458,13.075,13.657c-1.413,4.558-2.609,9.207-3.676,13.905
			c-6.209,1.27-12.306,3.034-18.233,5.277C42.756,210.445,31.386,199.918,25.317,194.233z M69.764,232.703
			c-1.997,15.468-1.997,31.128,0,46.596c-18.272-5.923-35.886-13.709-52.565-23.236C33.861,246.468,51.478,238.639,69.764,232.703z
			 M25.342,317.904c9.414-9.008,19.276-17.535,29.549-25.549c5.876,2.216,11.919,3.96,18.072,5.216
			c1.067,4.696,2.263,9.343,3.675,13.899c-4.711,4.2-9.082,8.767-13.071,13.658C48.701,323.169,33.494,319.764,25.342,317.904z
			 M49.217,375.458c9.639-16.633,20.961-32.232,33.787-46.552c6.106,14.402,13.987,27.984,23.46,40.432
			C87.639,373.313,68.457,375.364,49.217,375.458L49.217,375.458z M87.208,424.871c3.599-12.468,7.836-24.744,12.694-36.778
			c6.285-1.015,12.478-2.533,18.521-4.538c3.215,3.466,6.556,6.807,10.024,10.024c-2.012,6.056-3.533,12.264-4.549,18.564
			C109.952,417.865,95.156,422.464,87.208,424.871L87.208,424.871z M136.658,462.837c0.023-19.256,2.037-38.457,6.008-57.299
			c12.447,9.473,26.028,17.353,40.429,23.458C168.8,441.817,153.241,453.155,136.658,462.837L136.658,462.837z M194.233,486.691
			c-3.11-12.606-5.581-25.361-7.404-38.216c4.907-4.001,9.489-8.386,13.702-13.113c4.554,1.411,9.2,2.607,13.894,3.673
			c1.27,6.21,3.035,12.308,5.279,18.236C210.435,469.259,199.91,480.621,194.233,486.691L194.233,486.691z M256.066,494.8
			c-9.596-16.661-17.427-34.277-23.364-52.564c15.468,1.997,31.129,1.997,46.598-0.001
			C273.377,460.506,265.591,478.121,256.066,494.8L256.066,494.8z M317.908,486.662c-9.01-9.414-17.538-19.278-25.552-29.554
			c2.216-5.876,3.961-11.92,5.219-18.073c4.693-1.066,9.34-2.261,13.894-3.673c4.2,4.713,8.766,9.085,13.657,13.076
			C323.166,463.297,319.768,478.507,317.908,486.662L317.908,486.662z M328.906,428.996c14.401-6.105,27.982-13.986,40.429-23.458
			c3.977,18.822,6.028,38,6.123,57.238C358.823,453.142,343.224,441.823,328.906,428.996L328.906,428.996z M424.866,424.792
			c-12.466-3.597-24.74-7.833-36.771-12.691c-1.016-6.286-2.535-12.479-4.543-18.522c3.466-3.215,6.807-6.556,10.024-10.024
			c6.059,2.01,12.269,3.531,18.571,4.547C417.844,401.984,422.453,416.814,424.866,424.792L424.866,424.792z M405.535,369.337
			c9.475-12.447,17.356-26.03,23.461-40.432c12.819,14.298,24.155,29.858,33.836,46.441
			C443.578,375.32,424.377,373.307,405.535,369.337L405.535,369.337z M486.683,317.767c-12.613,3.113-25.379,5.571-38.246,7.365
			c-3.99-4.893-8.363-9.461-13.075-13.663c1.413-4.556,2.608-9.203,3.675-13.899c6.209-1.269,12.307-3.034,18.234-5.276
			C469.245,301.556,480.613,312.082,486.683,317.767L486.683,317.767z M442.235,279.297c1.997-15.467,1.997-31.127,0-46.594
			c18.245,5.922,35.822,13.73,52.448,23.297C478.057,265.567,460.48,273.375,442.235,279.297z"/>
		<path style="fill:#438CFF;" d="M256,102.4c-84.831,0-153.6,68.769-153.6,153.6S171.169,409.6,256,409.6S409.6,340.831,409.6,256
			C409.503,171.209,340.791,102.497,256,102.4z M256,392.533c-75.405,0-136.533-61.128-136.533-136.533S180.595,119.466,256,119.466
			S392.533,180.595,392.533,256C392.447,331.369,331.369,392.447,256,392.533z"/>
	</g>
</g>
<g>
</g>
<g>
</g>
<g>
</g>
<g>
</g>
<g>
</g>
<g>
</g>
<g>
</g>
<g>
</g>
<g>
</g>
<g>
</g>
<g>
</g>
<g>
</g>
<g>
</g>
<g>
</g>
<g>
</g>
</svg>
