<?xml version="1.0" encoding="iso-8859-1"?>
<!-- Generator: Adobe Illustrator 19.0.0, SVG Export Plug-In . SVG Version: 6.00 Build 0)  -->
<svg version="1.1" id="Capa_1" xmlns="http://www.w3.org/2000/svg" xmlns:xlink="http://www.w3.org/1999/xlink" x="0px" y="0px"
	 viewBox="0 0 512 512" style="enable-background:new 0 0 512 512;" xml:space="preserve">
<g>
	<g transform="translate(1 1)">
		<g>
			<path style="fill:#D3DFF2;" d="M150.526,62.878c1.085,15.286-10.328,28.601-25.6,29.867c-15.272-1.266-26.685-14.581-25.6-29.867
				c0-16.495,25.6-55.467,25.6-55.467S150.526,46.383,150.526,62.878z"/>
			<path style="fill:#D3DFF2;" d="M173.547,266.381c-13.144,7.879-17.505,24.865-9.782,38.101
				c9.797,11.784,27.25,13.496,39.149,3.839c13.512-9.461,30.752-52.785,30.752-52.785S187.059,256.92,173.547,266.381z"/>
			<path style="fill:#D3DFF2;" d="M173.547,181.048c-13.144,7.879-17.505,24.865-9.782,38.101
				c9.797,11.784,27.25,13.496,39.149,3.839c13.512-9.461,30.752-52.785,30.752-52.785S187.059,171.587,173.547,181.048z"/>
			<path style="fill:#D3DFF2;" d="M173.547,95.714c-13.144,7.879-17.505,24.865-9.782,38.101
				c9.797,11.784,27.25,13.496,39.149,3.839c13.512-9.461,30.752-52.785,30.752-52.785S187.059,86.254,173.547,95.714z"/>
			<path style="fill:#D3DFF2;" d="M76.479,266.381c13.144,7.879,17.505,24.865,9.782,38.101
				c-9.797,11.784-27.25,13.496-39.149,3.839C33.6,298.861,16.36,255.537,16.36,255.537S62.967,256.92,76.479,266.381z"/>
			<path style="fill:#D3DFF2;" d="M76.479,181.048c13.144,7.879,17.505,24.865,9.782,38.101
				c-9.797,11.784-27.25,13.496-39.149,3.839C33.6,213.527,16.36,170.204,16.36,170.204S62.967,171.587,76.479,181.048z"/>
			<path style="fill:#D3DFF2;" d="M76.479,95.714c13.144,7.879,17.505,24.865,9.782,38.101c-9.797,11.784-27.25,13.496-39.149,3.839
				C33.6,128.194,16.36,84.871,16.36,84.871S62.967,86.254,76.479,95.714z"/>
			<path style="fill:#D3DFF2;" d="M410.793,62.878c1.085,15.286-10.328,28.601-25.6,29.867c-15.272-1.266-26.685-14.581-25.6-29.867
				c0-16.495,25.6-55.467,25.6-55.467S410.793,46.383,410.793,62.878z"/>
			<path style="fill:#D3DFF2;" d="M433.814,266.381c-13.144,7.879-17.505,24.865-9.782,38.101
				c9.797,11.784,27.25,13.496,39.149,3.839c13.512-9.461,30.752-52.785,30.752-52.785S447.326,256.92,433.814,266.381z"/>
		</g>
		<path style="fill:#FFFFFF;" d="M425.667,374.345v8.533H50.2v-8.533c-0.582-13.547,9.921-25.004,23.467-25.6H402.2
			C415.746,349.341,426.248,360.798,425.667,374.345z"/>
		<path style="fill:#A2C0F5;" d="M459.8,374.345v8.533H84.333v-8.533c-0.582-13.547,9.921-25.004,23.467-25.6h328.533
			C449.879,349.341,460.382,360.798,459.8,374.345z"/>
		<path style="fill:#D3DFF2;" d="M434.2,374.345v8.533H75.8v-8.533c-0.841-13.241,9.165-24.676,22.4-25.6h313.6
			C425.035,349.668,435.042,361.104,434.2,374.345z"/>
		<rect x="41.667" y="382.878" style="fill:#A2C0F5;" width="460.8" height="34.133"/>
		<rect x="7.533" y="382.878" style="fill:#FFFFFF;" width="460.8" height="34.133"/>
		<rect x="33.133" y="382.878" style="fill:#D3DFF2;" width="443.733" height="34.133"/>
		<polygon style="fill:#A2C0F5;" points="50.2,417.011 58.127,502.345 486.006,502.345 493.933,417.011 		"/>
		<polygon style="fill:#FFFFFF;" points="16.067,417.011 23.994,502.345 451.873,502.345 459.8,417.011 		"/>
		
			<linearGradient id="SVGID_1_" gradientUnits="userSpaceOnUse" x1="-49.6807" y1="651.2715" x2="-49.0896" y2="648.3162" gradientTransform="matrix(426.6667 0 0 -85.3333 21326.002 55904.9453)">
			<stop  offset="0" style="stop-color:#DAE5F4"/>
			<stop  offset="0.1717" style="stop-color:#DAE5F4"/>
			<stop  offset="0.2" style="stop-color:#DAE5F4"/>
			<stop  offset="0.2006" style="stop-color:#EBECF4"/>
			<stop  offset="0.2013" style="stop-color:#F6F1F4"/>
			<stop  offset="0.2022" style="stop-color:#FDF4F4"/>
			<stop  offset="0.205" style="stop-color:#FFF5F4"/>
			<stop  offset="0.2522" style="stop-color:#FFF5F4"/>
			<stop  offset="0.26" style="stop-color:#FFF5F4"/>
			<stop  offset="0.26" style="stop-color:#DAE5F4"/>
			<stop  offset="0.3974" style="stop-color:#DAE5F4"/>
			<stop  offset="0.42" style="stop-color:#DAE5F4"/>
			<stop  offset="0.4206" style="stop-color:#EBECF4"/>
			<stop  offset="0.4212" style="stop-color:#F6F1F4"/>
			<stop  offset="0.4222" style="stop-color:#FDF4F4"/>
			<stop  offset="0.425" style="stop-color:#FFF5F4"/>
			<stop  offset="0.4894" style="stop-color:#FFF5F4"/>
			<stop  offset="0.5" style="stop-color:#FFF5F4"/>
			<stop  offset="0.5001" style="stop-color:#EEEEF4"/>
			<stop  offset="0.5002" style="stop-color:#E3E9F4"/>
			<stop  offset="0.5004" style="stop-color:#DCE6F4"/>
			<stop  offset="0.501" style="stop-color:#DAE5F4"/>
			<stop  offset="0.7062" style="stop-color:#DAE5F4"/>
			<stop  offset="0.74" style="stop-color:#DAE5F4"/>
			<stop  offset="0.741" style="stop-color:#FFF5F4"/>
			<stop  offset="0.8346" style="stop-color:#FFF5F4"/>
			<stop  offset="0.85" style="stop-color:#FFF5F4"/>
			<stop  offset="0.851" style="stop-color:#DAE5F4"/>
		</linearGradient>
		<polygon style="fill:url(#SVGID_1_);" points="41.667,417.011 49.287,502.345 460.713,502.345 468.333,417.011 		"/>
		<g>
			<path style="fill:#D3DFF2;" d="M433.814,181.048c-13.144,7.879-17.505,24.865-9.782,38.101
				c9.797,11.784,27.25,13.496,39.149,3.839c13.512-9.461,30.752-52.785,30.752-52.785S447.326,171.587,433.814,181.048z"/>
			<path style="fill:#D3DFF2;" d="M433.814,95.714c-13.144,7.879-17.505,24.865-9.782,38.101
				c9.797,11.784,27.25,13.496,39.149,3.839c13.512-9.461,30.752-52.785,30.752-52.785S447.326,86.254,433.814,95.714z"/>
			<path style="fill:#D3DFF2;" d="M336.746,266.381c13.144,7.879,17.505,24.865,9.782,38.101
				c-9.797,11.784-27.25,13.496-39.149,3.839c-13.512-9.461-30.752-52.785-30.752-52.785S323.234,256.92,336.746,266.381z"/>
			<path style="fill:#D3DFF2;" d="M336.746,181.048c13.144,7.879,17.505,24.865,9.782,38.101
				c-9.797,11.784-27.25,13.496-39.149,3.839c-13.512-9.461-30.752-52.785-30.752-52.785S323.234,171.587,336.746,181.048z"/>
			<path style="fill:#D3DFF2;" d="M336.746,95.714c13.144,7.879,17.505,24.865,9.782,38.101
				c-9.797,11.784-27.25,13.496-39.149,3.839c-13.512-9.461-30.752-52.785-30.752-52.785S323.234,86.254,336.746,95.714z"/>
		</g>
	</g>
	<path style="fill:#438CFF;" d="M503.467,375.345h-34.133c-0.02-18.843-15.29-34.113-34.133-34.133h-40.475v-4.092l29.273-20.496
		c6.109,4.809,13.678,7.387,21.452,7.305c8.472-0.059,16.721-2.718,23.633-7.617c14.842-10.396,30.742-48.987,33.775-56.621
		c1.067-2.669,0.716-5.696-0.933-8.05c-1.658-2.341-4.373-3.704-7.242-3.633c-8.208,0.242-49.908,1.983-64.758,12.383l-0.009,0.004
		c-8.039,5.508-13.844,13.708-16.367,23.121c-1.653,6.297-1.41,12.942,0.699,19.101l-19.524,13.67v-64.5l29.273-20.496
		c6.109,4.809,13.678,7.387,21.452,7.305c8.472-0.059,16.722-2.718,23.634-7.617c14.842-10.396,30.742-48.987,33.775-56.621
		c1.067-2.669,0.716-5.696-0.933-8.05c-1.661-2.339-4.374-3.7-7.242-3.633c-8.208,0.242-49.908,1.983-64.758,12.383l-0.009,0.004
		c-8.039,5.508-13.844,13.708-16.367,23.121c-1.653,6.297-1.41,12.942,0.699,19.101l-19.524,13.67v-64.5l29.273-20.496
		c6.109,4.809,13.678,7.387,21.452,7.305c8.472-0.059,16.722-2.718,23.634-7.617c14.842-10.396,30.742-48.987,33.775-56.621
		c1.067-2.669,0.716-5.696-0.933-8.05c-1.622-2.384-4.361-3.758-7.242-3.633c-8.208,0.242-49.908,1.983-64.758,12.383l-0.009,0.004
		c-8.039,5.508-13.844,13.708-16.367,23.121c-1.653,6.297-1.41,12.942,0.699,19.101l-19.524,13.67v-44.704
		c15.755-5.365,26.149-20.402,25.6-37.037c0-18.129-22.492-53.288-27-60.15c-1.669-2.267-4.318-3.606-7.133-3.606
		s-5.464,1.339-7.133,3.606c-4.508,6.863-27,42.021-27,60.15c-0.549,16.635,9.845,31.672,25.6,37.037v44.705l-19.521-13.668
		c2.112-6.159,2.354-12.806,0.696-19.103c-2.521-9.415-8.326-17.617-16.367-23.125c-14.849-10.4-56.557-12.141-64.765-12.383
		c-2.872-0.086-5.595,1.28-7.242,3.634c-1.647,2.354-1.998,5.38-0.933,8.049c3.033,7.633,18.933,46.225,33.792,56.625
		c6.906,4.909,15.152,7.58,23.625,7.65c1.233,0,2.467-0.058,3.692-0.179c6.484-0.599,12.646-3.1,17.714-7.19l29.311,20.523v64.5
		l-19.521-13.668c2.112-6.159,2.354-12.806,0.696-19.103c-2.521-9.415-8.326-17.617-16.367-23.125
		c-14.85-10.4-56.558-12.142-64.767-12.383c-2.862-0.044-5.566,1.312-7.242,3.633c-1.65,2.354-2.001,5.381-0.933,8.05
		c3.033,7.633,18.933,46.225,33.792,56.625c6.906,4.909,15.152,7.58,23.625,7.65c1.233,0,2.467-0.058,3.692-0.179
		c6.484-0.599,12.646-3.1,17.714-7.19l29.311,20.523v64.501l-19.521-13.668c2.112-6.159,2.354-12.806,0.696-19.103
		c-2.521-9.415-8.326-17.617-16.367-23.125c-14.85-10.4-56.558-12.142-64.767-12.383c-2.863-0.048-5.568,1.309-7.242,3.633
		c-1.65,2.354-2.001,5.381-0.933,8.05c3.033,7.633,18.933,46.225,33.792,56.625c6.906,4.909,15.152,7.58,23.625,7.65
		c1.233,0,2.467-0.058,3.692-0.179c6.484-0.599,12.646-3.1,17.714-7.19l29.311,20.523v4.092H134.342v-4.092l29.312-20.523
		c5.066,4.091,11.229,6.592,17.713,7.19c1.225,0.121,2.458,0.179,3.692,0.179c8.473-0.07,16.719-2.741,23.625-7.65
		c14.858-10.4,30.758-48.992,33.792-56.625c1.067-2.669,0.716-5.696-0.933-8.05c-1.66-2.34-4.374-3.702-7.242-3.633
		c-8.208,0.242-49.917,1.983-64.767,12.383c-8.041,5.508-13.846,13.711-16.367,23.125c-1.658,6.297-1.415,12.943,0.697,19.102
		l-19.522,13.668v-64.5l29.312-20.523c5.066,4.091,11.229,6.592,17.713,7.19c1.225,0.121,2.458,0.179,3.692,0.179
		c8.473-0.07,16.719-2.741,23.625-7.65c14.858-10.4,30.758-48.992,33.792-56.625c1.067-2.669,0.716-5.696-0.933-8.05
		c-1.662-2.337-4.375-3.698-7.242-3.633c-8.208,0.242-49.917,1.983-64.767,12.383c-8.041,5.508-13.846,13.711-16.367,23.125
		c-1.658,6.297-1.415,12.943,0.697,19.102l-19.522,13.668v-64.5l29.312-20.523c5.066,4.091,11.229,6.592,17.713,7.19
		c1.225,0.121,2.458,0.179,3.692,0.179c8.473-0.07,16.719-2.741,23.625-7.65c14.858-10.4,30.758-48.992,33.792-56.625
		c1.067-2.669,0.716-5.696-0.933-8.05c-1.623-2.382-4.362-3.756-7.242-3.633c-8.208,0.242-49.917,1.983-64.767,12.383
		c-8.041,5.508-13.846,13.711-16.367,23.125c-1.658,6.297-1.415,12.943,0.697,19.102l-19.522,13.668v-44.705
		c15.755-5.365,26.149-20.402,25.6-37.037c0-18.129-22.492-53.288-27-60.15c-1.669-2.267-4.318-3.606-7.133-3.606
		s-5.464,1.339-7.133,3.606c-4.508,6.863-27,42.021-27,60.15c-0.549,16.635,9.845,31.672,25.6,37.037v44.705l-19.523-13.67
		c2.109-6.159,2.352-12.804,0.698-19.101c-2.523-9.412-8.328-17.613-16.367-23.121l-0.009-0.004
		c-14.85-10.4-56.55-12.141-64.758-12.383c-2.876-0.104-5.606,1.266-7.242,3.633c-1.65,2.354-2.001,5.381-0.933,8.05
		c3.033,7.633,18.933,46.225,33.783,56.625c6.908,4.901,15.156,7.558,23.625,7.613c7.773,0.078,15.34-2.499,21.449-7.306
		l29.275,20.497v64.5l-19.523-13.67c2.109-6.159,2.352-12.804,0.698-19.101c-2.523-9.412-8.328-17.613-16.367-23.121l-0.009-0.004
		c-14.85-10.4-56.55-12.141-64.758-12.383c-2.863-0.046-5.567,1.311-7.242,3.633c-1.65,2.354-2.001,5.381-0.933,8.05
		c3.033,7.633,18.933,46.225,33.783,56.625c6.908,4.901,15.156,7.558,23.625,7.613c7.773,0.078,15.34-2.499,21.449-7.306
		l29.275,20.497v64.5l-19.523-13.67c2.109-6.159,2.352-12.804,0.698-19.101c-2.523-9.412-8.328-17.613-16.367-23.121l-0.009-0.004
		c-14.85-10.4-56.55-12.141-64.758-12.383c-2.864-0.05-5.57,1.308-7.242,3.633c-1.65,2.354-2.001,5.381-0.933,8.05
		c3.033,7.633,18.933,46.225,33.783,56.625c6.908,4.901,15.156,7.558,23.625,7.613c7.773,0.078,15.34-2.499,21.449-7.306
		l29.275,20.497v4.092H76.8c-18.843,0.02-34.113,15.29-34.133,34.133H8.533c-2.263-0.001-4.434,0.898-6.035,2.499
		c-1.6,1.6-2.499,3.771-2.499,6.035v34.133c-0.001,2.263,0.898,4.434,2.499,6.035c1.6,1.6,3.771,2.499,6.035,2.499h0.81l7.765,77.65
		c0.436,4.363,4.107,7.684,8.491,7.683h460.8c4.384,0.001,8.056-3.321,8.492-7.683l7.765-77.65h0.81
		c2.263,0.001,4.434-0.898,6.035-2.499c1.6-1.6,2.499-3.771,2.499-6.035v-34.133c0.001-2.263-0.898-4.434-2.499-6.035
		C507.901,376.243,505.73,375.344,503.467,375.345z M430.083,287.757c1.512-5.465,4.925-10.211,9.625-13.383v-0.004
		c6.117-4.279,25.167-7.192,41.95-8.538c-7,15.309-16.258,32.221-22.367,36.5c-8.059,6.9-20.146,6.129-27.263-1.738l-0.004-0.008
		l-0.005-0.004C429.513,296.803,428.804,292.109,430.083,287.757L430.083,287.757z M430.083,202.424
		c1.512-5.465,4.925-10.211,9.625-13.383v-0.004c6.117-4.279,25.167-7.192,41.95-8.538c-7,15.309-16.258,32.221-22.367,36.5
		c-8.059,6.898-20.145,6.127-27.263-1.738l-0.004-0.008l-0.005-0.004C429.513,211.47,428.804,206.775,430.083,202.424
		L430.083,202.424z M430.083,117.091c1.512-5.465,4.925-10.211,9.625-13.383v-0.004c6.117-4.279,25.167-7.192,41.95-8.538
		c-7,15.309-16.258,32.221-22.367,36.5c-8.059,6.898-20.145,6.127-27.263-1.738l-0.004-0.008l-0.005-0.004
		C429.513,126.136,428.804,121.442,430.083,117.091L430.083,117.091z M328.975,136.136c-5.654,0.44-11.281-1.145-15.875-4.471
		c-6.108-4.279-15.375-21.192-22.375-36.504c16.775,1.342,35.833,4.258,41.958,8.546c4.7,3.172,8.113,7.918,9.625,13.383
		c1.277,4.353,0.565,9.047-1.946,12.825l-0.005,0.004l-0.004,0.009C337.663,133.575,333.498,135.847,328.975,136.136z
		 M328.975,221.47c-5.654,0.436-11.279-1.149-15.875-4.471c-6.108-4.279-15.375-21.192-22.375-36.504
		c16.775,1.342,35.833,4.258,41.958,8.546c4.7,3.172,8.113,7.918,9.625,13.383c1.277,4.353,0.565,9.047-1.946,12.825l-0.005,0.004
		l-0.004,0.009C337.663,218.909,333.498,221.181,328.975,221.47L328.975,221.47z M328.975,306.803
		c-5.654,0.433-11.278-1.151-15.875-4.471c-6.108-4.279-15.375-21.192-22.375-36.504c16.775,1.342,35.833,4.258,41.958,8.546
		c4.7,3.172,8.113,7.918,9.625,13.383c1.277,4.353,0.565,9.047-1.946,12.825l-0.005,0.004l-0.004,0.009
		C337.663,304.242,333.498,306.514,328.975,306.803z M169.692,287.757c1.512-5.465,4.925-10.211,9.625-13.383
		c6.117-4.279,25.175-7.196,41.958-8.542c-7,15.309-16.267,32.221-22.375,36.5c-4.6,3.313-10.222,4.897-15.875,4.471
		c-4.558-0.182-8.769-2.483-11.385-6.22C169.024,296.847,168.303,292.102,169.692,287.757L169.692,287.757z M169.692,202.424
		c1.512-5.465,4.925-10.211,9.625-13.383c6.117-4.279,25.175-7.196,41.958-8.542c-7,15.309-16.267,32.221-22.375,36.5
		c-4.599,3.315-10.222,4.899-15.875,4.471c-4.558-0.182-8.769-2.483-11.385-6.22C169.024,211.513,168.303,206.769,169.692,202.424
		L169.692,202.424z M169.692,117.091c1.512-5.465,4.925-10.211,9.625-13.383c6.117-4.279,25.175-7.196,41.958-8.542
		c-7,15.309-16.267,32.221-22.375,36.5c-4.598,3.317-10.222,4.901-15.875,4.471c-4.558-0.182-8.769-2.483-11.385-6.22
		C169.024,126.18,168.303,121.436,169.692,117.091L169.692,117.091z M52.717,131.67c-6.117-4.284-15.375-21.196-22.375-36.508
		c16.775,1.342,35.825,4.258,41.95,8.542v0.004c4.7,3.172,8.113,7.918,9.625,13.383c1.279,4.351,0.57,9.046-1.937,12.825
		l-0.005,0.004l-0.004,0.008C72.856,137.791,60.775,138.563,52.717,131.67L52.717,131.67z M52.717,217.003
		c-6.117-4.284-15.375-21.196-22.375-36.508c16.775,1.342,35.825,4.258,41.95,8.542v0.004c4.7,3.172,8.113,7.918,9.625,13.383
		c1.279,4.351,0.57,9.046-1.937,12.825l-0.005,0.004l-0.004,0.008C72.853,223.118,60.777,223.89,52.717,217.003L52.717,217.003z
		 M52.717,302.336c-6.117-4.284-15.375-21.196-22.375-36.508c16.775,1.342,35.825,4.258,41.95,8.542v0.004
		c4.7,3.172,8.113,7.918,9.625,13.383c1.279,4.351,0.57,9.046-1.937,12.825l-0.005,0.004l-0.004,0.008
		C72.854,308.454,60.776,309.226,52.717,302.336L52.717,302.336z M369.125,63.878c0-7.462,8.542-24.746,17.067-39.267
		c8.525,14.512,17.067,31.796,17.067,39.267c1.028,10.56-6.539,20.019-17.067,21.333C375.664,83.897,368.097,74.438,369.125,63.878z
		 M108.742,63.878c0-7.462,8.542-24.746,17.067-39.267c8.525,14.512,17.067,31.796,17.067,39.267
		c1.028,10.56-6.539,20.019-17.067,21.333C115.28,83.897,107.713,74.438,108.742,63.878L108.742,63.878z M76.8,358.278h358.4
		c9.421,0.011,17.056,7.645,17.067,17.067H59.733C59.744,365.924,67.379,358.289,76.8,358.278z M17.067,392.411h477.867v17.067
		H17.067V392.411z M54.733,494.811L123,426.545h44.133l-68.267,68.267H54.733z M98.867,426.545l-65.79,65.79l-6.577-65.79H98.867z
		 M478.675,494.811H123l68.267-68.267H485.5L478.675,494.811z"/>
</g>
<g>
</g>
<g>
</g>
<g>
</g>
<g>
</g>
<g>
</g>
<g>
</g>
<g>
</g>
<g>
</g>
<g>
</g>
<g>
</g>
<g>
</g>
<g>
</g>
<g>
</g>
<g>
</g>
<g>
</g>
</svg>
