<?xml version="1.0" encoding="iso-8859-1"?>
<!-- Generator: Adobe Illustrator 19.0.0, SVG Export Plug-In . SVG Version: 6.00 Build 0)  -->
<svg version="1.1" id="Capa_1" xmlns="http://www.w3.org/2000/svg" xmlns:xlink="http://www.w3.org/1999/xlink" x="0px" y="0px"
	 viewBox="0 0 512.005 512.005" style="enable-background:new 0 0 512.005 512.005;" xml:space="preserve">
<g>
	<path style="fill:#A2C0F5;" d="M62.979,436.057c2.645-0.512,5.291-0.853,7.936-1.109c-2.01,1.33-4.472,1.791-6.827,1.28
		C63.726,436.13,63.354,436.072,62.979,436.057z"/>
	<path style="fill:#A2C0F5;" d="M503.47,503.471h-25.6c0.163-30.757-20.173-57.861-49.749-66.304
		c-5.784-1.581-11.753-2.385-17.749-2.389c-2.425-0.028-4.849,0.114-7.253,0.427c1.831-7.63,2.747-15.45,2.731-23.296
		c0.377-47.729-34.52-88.418-81.749-95.317c4.274-0.545,8.577-0.83,12.885-0.853c25.285,0.211,49.448,10.466,67.167,28.504
		c17.719,18.039,27.539,42.382,27.297,67.666c0.017,7.846-0.9,15.666-2.731,23.296c2.405-0.312,4.829-0.455,7.253-0.427
		C473.573,435.123,503.783,465.869,503.47,503.471z"/>
</g>
<g>
	<path style="fill:#FFFFFF;" d="M205.998,353.284h-0.427c-40.011,5.889-71.936,36.411-79.616,76.117
		c-0.466,2.344-1.866,4.397-3.879,5.685s-4.464,1.7-6.787,1.141c-4.487-0.964-9.064-1.451-13.653-1.451
		c-1.706,0-3.328,0.085-5.035,0.171c1.972-1.243,3.333-3.254,3.755-5.547c7.68-39.706,39.605-70.228,79.616-76.117
		c4.325-0.616,8.687-0.929,13.056-0.939C197.367,352.355,201.701,352.668,205.998,353.284z"/>
	<path style="fill:#FFFFFF;" d="M88.579,436.057c-31.869,6.667-54.634,34.855-54.443,67.413h-25.6
		c-0.191-32.558,22.574-60.747,54.443-67.413c0.375,0.015,0.747,0.072,1.109,0.171c2.355,0.511,4.817,0.05,6.827-1.28
		c1.707-0.085,3.413-0.171,5.12-0.171C80.249,434.768,84.453,435.197,88.579,436.057L88.579,436.057z"/>
</g>
<path style="fill:#D3DFF2;" d="M477.87,503.471H34.136c-0.191-32.558,22.574-60.747,54.443-67.413
	c0.375,0.015,0.747,0.072,1.109,0.171c0.161,0.07,0.337,0.099,0.512,0.085c0.171,0,0.341,0.085,0.512,0
	c0.131,0.069,0.279,0.099,0.427,0.085h0.512c0.259,0.014,0.518-0.015,0.768-0.085c0.254,0.043,0.514,0.043,0.768,0
	c0.085-0.085,0.085-0.085,0.171-0.085c1.132-0.194,2.21-0.63,3.157-1.28H96.6c1.707-0.085,3.328-0.171,5.035-0.171
	c4.59,0,9.166,0.486,13.653,1.451c2.324,0.559,4.775,0.147,6.787-1.141c2.013-1.288,3.414-3.341,3.879-5.685
	c7.68-39.706,39.605-70.228,79.616-76.117h0.427c8.826,1.194,17.425,3.696,25.515,7.424c3.917,1.823,7.708,3.904,11.349,6.229
	c2.039,1.304,4.527,1.705,6.872,1.106c2.345-0.598,4.337-2.142,5.502-4.264c0.597-1.024,1.195-2.048,1.877-3.072
	c14.632-23.883,39.106-40.042,66.816-44.117h0.171c4.356,0.597,8.662,1.51,12.885,2.731c41.037,12.047,69.131,49.819,68.864,92.587
	c0.017,7.846-0.9,15.666-2.731,23.296c2.405-0.312,4.828-0.455,7.253-0.427c5.996,0.005,11.965,0.808,17.749,2.389
	C457.697,445.61,478.033,472.713,477.87,503.471z"/>
<path style="fill:#A2C0F5;" d="M503.47,8.537c0,0-6.997,264.96-192.512,252.245c-20.217-1.549-40.166-5.59-59.392-12.032
	c-1.365-0.341-2.731-0.853-4.096-1.28c0,0-0.597-2.219-1.451-6.144c-6.656-34.048-25.088-198.997,231.765-230.144
	C486.062,10.159,494.595,9.22,503.47,8.537z"/>
<linearGradient id="SVGID_1_" gradientUnits="userSpaceOnUse" x1="-97.5497" y1="2.0717" x2="-96.5577" y2="1.1417" gradientTransform="matrix(234.8758 0 0 249.6 23162.1191 -267.736)">
	<stop  offset="0" style="stop-color:#DAE5F4"/>
	<stop  offset="0.172" style="stop-color:#DAE5F4"/>
	<stop  offset="0.2" style="stop-color:#DAE5F4"/>
	<stop  offset="0.201" style="stop-color:#EBECF4"/>
	<stop  offset="0.201" style="stop-color:#F6F1F4"/>
	<stop  offset="0.202" style="stop-color:#FDF4F4"/>
	<stop  offset="0.205" style="stop-color:#FFF5F4"/>
	<stop  offset="0.252" style="stop-color:#FFF5F4"/>
	<stop  offset="0.26" style="stop-color:#FFF5F4"/>
	<stop  offset="0.26" style="stop-color:#DAE5F4"/>
	<stop  offset="0.397" style="stop-color:#DAE5F4"/>
	<stop  offset="0.42" style="stop-color:#DAE5F4"/>
	<stop  offset="0.421" style="stop-color:#EBECF4"/>
	<stop  offset="0.421" style="stop-color:#F6F1F4"/>
	<stop  offset="0.422" style="stop-color:#FDF4F4"/>
	<stop  offset="0.425" style="stop-color:#FFF5F4"/>
	<stop  offset="0.489" style="stop-color:#FFF5F4"/>
	<stop  offset="0.5" style="stop-color:#FFF5F4"/>
	<stop  offset="0.5" style="stop-color:#EEEEF4"/>
	<stop  offset="0.5" style="stop-color:#E3E9F4"/>
	<stop  offset="0.5" style="stop-color:#DCE6F4"/>
	<stop  offset="0.501" style="stop-color:#DAE5F4"/>
	<stop  offset="0.706" style="stop-color:#DAE5F4"/>
	<stop  offset="0.74" style="stop-color:#DAE5F4"/>
	<stop  offset="0.741" style="stop-color:#FFF5F4"/>
	<stop  offset="0.835" style="stop-color:#FFF5F4"/>
	<stop  offset="0.85" style="stop-color:#FFF5F4"/>
	<stop  offset="0.851" style="stop-color:#DAE5F4"/>
</linearGradient>
<path style="fill:url(#SVGID_1_);" d="M477.784,11.183c-1.28,26.197-16.213,238.165-166.827,249.6
	c-20.217-1.549-40.166-5.59-59.392-12.032c-1.365-0.341-2.731-0.853-4.096-1.28c0,0-0.597-2.219-1.451-6.144
	C239.363,207.279,220.931,42.329,477.784,11.183z"/>
<path style="fill:#A2C0F5;" d="M207.557,247.727c-0.638,3.925-1.133,6.144-1.133,6.144c-1.133,0.427-2.267,0.939-3.4,1.28
	c-17.55,7.384-36.629,10.4-55.6,8.789C53.931,253.103,43.732,95.236,42.741,72.452c-0.071-1.792-0.071-2.731-0.071-2.731
	C221.297,87.129,212.09,217.689,207.557,247.727z"/>
<path style="fill:#FFFFFF;" d="M177.424,247.727c-0.638,3.925-1.133,6.144-1.133,6.144c-1.133,0.427-2.267,0.939-3.4,1.28
	c-17.55,7.384-36.629,10.4-55.6,8.789C23.798,253.103,13.599,95.236,12.607,72.452c-0.071-1.792-0.071-2.731-0.071-2.731
	C191.164,87.129,181.956,217.689,177.424,247.727z"/>
<path style="fill:#438CFF;" d="M162.136,426.671c3.451-0.001,6.562-2.08,7.882-5.268s0.591-6.858-1.849-9.298l-8.533-8.533
	c-3.341-3.281-8.701-3.256-12.012,0.054c-3.311,3.311-3.335,8.671-0.054,12.012l8.533,8.533
	C157.701,425.773,159.873,426.673,162.136,426.671L162.136,426.671z"/>
<linearGradient id="SVGID_2_" gradientUnits="userSpaceOnUse" x1="-96.7266" y1="2.082" x2="-95.9605" y2="1.3619" gradientTransform="matrix(-234.8758 0 0 249.6 -22539.4238 -267.736)">
	<stop  offset="0" style="stop-color:#DAE5F4"/>
	<stop  offset="0.172" style="stop-color:#DAE5F4"/>
	<stop  offset="0.2" style="stop-color:#DAE5F4"/>
	<stop  offset="0.201" style="stop-color:#EBECF4"/>
	<stop  offset="0.201" style="stop-color:#F6F1F4"/>
	<stop  offset="0.202" style="stop-color:#FDF4F4"/>
	<stop  offset="0.205" style="stop-color:#FFF5F4"/>
	<stop  offset="0.252" style="stop-color:#FFF5F4"/>
	<stop  offset="0.26" style="stop-color:#FFF5F4"/>
	<stop  offset="0.26" style="stop-color:#DAE5F4"/>
	<stop  offset="0.397" style="stop-color:#DAE5F4"/>
	<stop  offset="0.42" style="stop-color:#DAE5F4"/>
	<stop  offset="0.421" style="stop-color:#EBECF4"/>
	<stop  offset="0.421" style="stop-color:#F6F1F4"/>
	<stop  offset="0.422" style="stop-color:#FDF4F4"/>
	<stop  offset="0.425" style="stop-color:#FFF5F4"/>
	<stop  offset="0.489" style="stop-color:#FFF5F4"/>
	<stop  offset="0.5" style="stop-color:#FFF5F4"/>
	<stop  offset="0.5" style="stop-color:#EEEEF4"/>
	<stop  offset="0.5" style="stop-color:#E3E9F4"/>
	<stop  offset="0.5" style="stop-color:#DCE6F4"/>
	<stop  offset="0.501" style="stop-color:#DAE5F4"/>
	<stop  offset="0.706" style="stop-color:#DAE5F4"/>
	<stop  offset="0.74" style="stop-color:#DAE5F4"/>
	<stop  offset="0.741" style="stop-color:#FFF5F4"/>
	<stop  offset="0.835" style="stop-color:#FFF5F4"/>
	<stop  offset="0.85" style="stop-color:#FFF5F4"/>
	<stop  offset="0.851" style="stop-color:#DAE5F4"/>
</linearGradient>
<path style="fill:url(#SVGID_2_);" d="M180.585,247.542c-0.642,3.112-1.091,4.871-1.091,4.871c-1.027,0.338-2.054,0.744-3.081,1.015
	c-14.463,5.107-29.468,8.311-44.677,9.539C18.44,253.902,7.207,85.856,6.244,65.087C199.457,89.78,185.592,220.55,180.585,247.542z"
	/>
<g>
	<path style="fill:#438CFF;" d="M292.637,398.57c3.341,3.281,8.701,3.256,12.012-0.054s3.335-8.671,0.054-12.012l-8.533-8.533
		c-3.341-3.281-8.701-3.256-12.012,0.054c-3.311,3.311-3.335,8.671-0.054,12.012L292.637,398.57z"/>
	<path style="fill:#438CFF;" d="M296.169,454.771c-3.341-3.281-8.701-3.256-12.012,0.054c-3.311,3.311-3.335,8.671-0.054,12.012
		l8.533,8.533c3.341,3.281,8.701,3.256,12.012-0.054c3.311-3.311,3.335-8.671,0.054-12.012L296.169,454.771z"/>
	<path style="fill:#438CFF;" d="M386.503,475.37c3.341,3.281,8.701,3.256,12.012-0.054c3.311-3.311,3.335-8.671,0.054-12.012
		l-8.533-8.533c-3.341-3.281-8.701-3.256-12.012,0.054c-3.311,3.311-3.335,8.671-0.054,12.012L386.503,475.37z"/>
	<path style="fill:#438CFF;" d="M204.803,409.604c2.264,0.003,4.435-0.897,6.033-2.5l8.533-8.533
		c3.281-3.341,3.256-8.701-0.054-12.012c-3.311-3.311-8.671-3.335-12.012-0.054l-8.533,8.533c-2.44,2.441-3.169,6.11-1.849,9.298
		C198.241,407.524,201.352,409.603,204.803,409.604z"/>
	<path style="fill:#438CFF;" d="M332.803,443.737c2.264,0.003,4.435-0.897,6.033-2.5l8.533-8.533
		c3.281-3.341,3.256-8.701-0.054-12.012c-3.311-3.311-8.671-3.335-12.012-0.054l-8.533,8.533c-2.44,2.44-3.169,6.11-1.849,9.298
		C326.241,441.658,329.352,443.737,332.803,443.737z"/>
	<path style="fill:#438CFF;" d="M341.336,366.937c2.264,0.003,4.435-0.897,6.033-2.5l8.533-8.533
		c3.281-3.341,3.256-8.701-0.054-12.012c-3.311-3.311-8.671-3.335-12.012-0.054l-8.533,8.533c-2.44,2.44-3.169,6.11-1.849,9.298
		S337.886,366.937,341.336,366.937z"/>
	<path style="fill:#438CFF;" d="M164.637,454.771l-8.534,8.533c-2.188,2.149-3.055,5.307-2.27,8.271
		c0.785,2.965,3.1,5.28,6.065,6.065s6.122-0.082,8.271-2.27l8.533-8.533c3.281-3.341,3.256-8.701-0.054-12.012
		C173.338,451.515,167.977,451.49,164.637,454.771L164.637,454.771z"/>
	<path style="fill:#438CFF;" d="M232.903,429.171l-8.533,8.533c-2.188,2.149-3.055,5.307-2.27,8.271
		c0.785,2.965,3.1,5.28,6.065,6.065s6.122-0.082,8.271-2.27l8.533-8.533c3.281-3.341,3.256-8.701-0.054-12.012
		C241.604,425.915,236.244,425.89,232.903,429.171L232.903,429.171z"/>
	<path style="fill:#438CFF;" d="M384.003,409.604c2.264,0.003,4.435-0.897,6.033-2.5l8.533-8.533
		c3.281-3.341,3.256-8.701-0.054-12.012s-8.671-3.335-12.012-0.054l-8.533,8.533c-2.44,2.441-3.169,6.11-1.849,9.298
		C377.441,407.524,380.552,409.603,384.003,409.604z"/>
	<path style="fill:#438CFF;" d="M70.77,463.304l-8.533,8.533c-2.188,2.149-3.055,5.307-2.27,8.271c0.785,2.965,3.1,5.28,6.065,6.065
		c2.965,0.785,6.122-0.082,8.271-2.27l8.533-8.533c3.281-3.341,3.256-8.701-0.054-12.012
		C79.471,460.048,74.111,460.024,70.77,463.304L70.77,463.304z"/>
	<path style="fill:#438CFF;" d="M121.97,446.238l-8.533,8.533c-2.188,2.149-3.055,5.307-2.27,8.271
		c0.785,2.965,3.1,5.28,6.065,6.065c2.965,0.785,6.122-0.082,8.271-2.27l8.533-8.533c3.281-3.341,3.256-8.701-0.054-12.012
		C130.671,442.981,125.311,442.957,121.97,446.238L121.97,446.238z"/>
	<path style="fill:#438CFF;" d="M202.303,420.638c-1.6-1.601-3.77-2.5-6.033-2.5s-4.433,0.899-6.033,2.5l-8.533,8.533
		c-2.178,2.151-3.037,5.304-2.251,8.262s3.097,5.269,6.055,6.055s6.111-0.073,8.262-2.251l8.533-8.533c1.601-1.6,2.5-3.77,2.5-6.033
		S203.903,422.237,202.303,420.638L202.303,420.638z"/>
	<path style="fill:#438CFF;" d="M210.836,463.304c-3.341-3.281-8.701-3.256-12.012,0.054c-3.311,3.311-3.335,8.671-0.054,12.012
		l8.533,8.533c2.149,2.188,5.307,3.055,8.271,2.27c2.965-0.785,5.28-3.1,6.065-6.065s-0.082-6.122-2.27-8.271L210.836,463.304z"/>
	<path style="fill:#438CFF;" d="M343.837,454.771l-8.534,8.533c-2.188,2.149-3.055,5.307-2.27,8.271
		c0.785,2.965,3.1,5.28,6.065,6.065s6.122-0.082,8.271-2.27l8.533-8.533c3.281-3.341,3.256-8.701-0.054-12.012
		C352.538,451.515,347.177,451.49,343.837,454.771L343.837,454.771z"/>
	<path style="fill:#438CFF;" d="M429.17,483.904c3.341,3.281,8.701,3.256,12.012-0.054c3.311-3.311,3.335-8.671,0.054-12.012
		l-8.533-8.534c-3.341-3.281-8.701-3.256-12.012,0.054c-3.311,3.311-3.335,8.671-0.054,12.012L429.17,483.904z"/>
	<path style="fill:#438CFF;" d="M341.336,401.071c2.264,0.003,4.435-0.897,6.033-2.5l8.533-8.533
		c3.281-3.341,3.256-8.701-0.054-12.012c-3.311-3.311-8.671-3.335-12.012-0.054l-8.533,8.532c-2.44,2.44-3.169,6.11-1.849,9.298
		S337.886,401.07,341.336,401.071z"/>
	<path style="fill:#438CFF;" d="M273.07,435.204c2.264,0.003,4.435-0.897,6.033-2.5l8.533-8.533
		c3.281-3.341,3.256-8.701-0.054-12.012c-3.311-3.311-8.671-3.335-12.012-0.054l-8.533,8.533c-2.44,2.44-3.169,6.11-1.849,9.298
		C266.508,433.124,269.619,435.203,273.07,435.204z"/>
	<path style="fill:#438CFF;" d="M253.319,258.138c22.738,7.382,46.448,11.338,70.351,11.737
		c31.602,0.543,62.581-8.828,88.583-26.796c94.225-65.725,99.567-227.462,99.75-234.317c0.059-2.421-0.91-4.754-2.667-6.421
		c-1.751-1.679-4.141-2.52-6.558-2.308C387.311,9.396,307.586,44.542,265.82,104.5c-28.443,42.151-38.198,94.184-26.956,143.776
		c-3.411,8.366-6.04,17.03-7.852,25.881c-4.581-7.691-9.997-14.854-16.148-21.358c8.021-38.153,0.243-77.928-21.562-110.248
		C160.77,95.837,98.836,68.475,9.228,61.217c-2.418-0.222-4.812,0.621-6.558,2.308c-1.758,1.664-2.727,3.996-2.667,6.416
		c0.968,20.579,3.751,41.032,8.317,61.121c0.665,2.974,2.867,5.368,5.775,6.278c2.908,0.911,6.082,0.201,8.325-1.862
		s3.215-5.167,2.55-8.141c-3.531-15.888-5.973-32-7.308-48.221c78.825,7.908,133.133,32.442,161.492,72.983
		c15.327,22.5,22.85,49.407,21.415,76.594c-23.253-35.362-77.83-105.727-162.473-140.578c-2.82-1.165-6.048-0.736-8.466,1.125
		s-3.658,4.873-3.252,7.897s2.395,5.602,5.218,6.761c89.332,36.78,144.861,117.905,161.432,144.939
		c-66.26,19.077-115.426-0.715-146.041-59.172c-1.409-2.71-4.159-4.46-7.211-4.589c-3.052-0.129-5.939,1.384-7.572,3.965
		c-1.632,2.582-1.76,5.839-0.334,8.541c19.433,37.114,54.291,75.485,115.333,75.485c18.587-0.311,37.024-3.385,54.707-9.12
		c11.685,12.507,20.515,27.402,25.879,43.656c0.149,15.133,2.158,30.19,5.982,44.832c-12.842-5.666-26.723-8.595-40.759-8.6
		c-49.449,0.497-91.788,35.567-101.483,84.058c-5.094-1.092-10.29-1.641-15.5-1.638c-42.296,0.379-76.304,34.92-76.026,77.216
		c-0.001,2.263,0.898,4.434,2.499,6.035c1.6,1.6,3.771,2.499,6.035,2.499H503.47c2.263,0.001,4.434-0.898,6.035-2.499
		c1.6-1.6,2.499-3.771,2.499-6.035c0.25-41.103-31.914-75.112-72.967-77.154c0.65-4.78,0.975-9.598,0.975-14.421
		c0.914-45.674-28.469-86.455-72.083-100.045s-90.962,3.282-116.154,41.391C242.252,322.17,242.793,288.884,253.319,258.138
		L253.319,258.138z M279.97,114.046c37.6-53.788,109.708-86.113,214.408-96.138c-2.65,35.375-17.158,159.05-91.892,211.175
		c-37.438,26.116-85.311,30.57-142.305,13.433c19.284-32.09,92.484-142.574,212.405-191.954c2.819-1.161,4.805-3.738,5.209-6.76
		c0.404-3.022-0.835-6.031-3.25-7.892s-5.64-2.292-8.459-1.131C351.388,82.01,279.466,179.804,252.231,222.711
		C248.574,184.367,258.381,145.945,279.97,114.046L279.97,114.046z M262.695,368.016c15.097-26.883,43.469-43.587,74.3-43.746
		c47.906,0.521,86.353,39.717,85.95,87.625c-0.001,7.188-0.857,14.351-2.55,21.337c-0.67,2.763,0.08,5.677,1.999,7.774
		s4.757,3.1,7.568,2.676c1.994-0.272,4.005-0.393,6.017-0.362c29.59,0.283,54.467,22.284,58.367,51.617H17.661
		c3.899-29.333,28.777-51.334,58.367-51.617c4-0.004,7.989,0.416,11.9,1.254c4.622,0.985,9.447,0.098,13.417-2.467
		c3.858-2.519,6.531-6.493,7.408-11.017c7.793-40.473,43.043-69.838,84.258-70.192c16.045-0.002,31.757,4.582,45.283,13.212
		c4.01,2.561,8.897,3.358,13.512,2.205C256.423,375.165,260.36,372.163,262.695,368.016L262.695,368.016z"/>
	<path style="fill:#438CFF;" d="M28.078,170.304c3.303-1.001,5.678-3.893,6.017-7.328s-1.424-6.736-4.467-8.364
		s-6.768-1.262-9.436,0.927c-2.669,2.189-3.756,5.77-2.755,9.073C18.804,169.122,23.568,171.67,28.078,170.304z"/>
</g>
<g>
</g>
<g>
</g>
<g>
</g>
<g>
</g>
<g>
</g>
<g>
</g>
<g>
</g>
<g>
</g>
<g>
</g>
<g>
</g>
<g>
</g>
<g>
</g>
<g>
</g>
<g>
</g>
<g>
</g>
</svg>
