<?xml version="1.0" encoding="iso-8859-1"?>
<!-- Generator: Adobe Illustrator 19.0.0, SVG Export Plug-In . SVG Version: 6.00 Build 0)  -->
<svg version="1.1" id="Capa_1" xmlns="http://www.w3.org/2000/svg" xmlns:xlink="http://www.w3.org/1999/xlink" x="0px" y="0px"
	 viewBox="0 0 512 512" style="enable-background:new 0 0 512 512;" xml:space="preserve">
<g>
	<g transform="translate(0 1)">
		<path style="fill:#FFFFFF;" d="M93.867,7.533h76.8c9.426,0,17.067,7.641,17.067,17.067l0,0c0,9.426-7.641,17.067-17.067,17.067
			h-76.8c-9.426,0-17.067-7.641-17.067-17.067l0,0C76.8,15.174,84.441,7.533,93.867,7.533z"/>
		<path style="fill:#7FAAF8;" d="M119.467,7.533h76.8c9.426,0,17.067,7.641,17.067,17.067l0,0c0,9.426-7.641,17.067-17.067,17.067
			h-76.8c-9.426,0-17.067-7.641-17.067-17.067l0,0C102.4,15.174,110.041,7.533,119.467,7.533z"/>
		<path style="fill:#FFFFFF;" d="M155.307,306.2h34.133c4.214,0.521,7.243,4.308,6.827,8.533V434.2c0,0-13.653,68.267-68.267,68.267
			S59.733,434.2,59.733,434.2V314.733c-0.417-4.226,2.613-8.012,6.827-8.533H155.307z"/>
		<rect x="349.867" y="24.6" style="fill:#D3DFF2;" width="34.133" height="281.6"/>
		<path style="fill:#A2C0F5;" d="M189.44,306.2h34.133c4.214,0.521,7.243,4.308,6.827,8.533V434.2c0,0-13.653,68.267-68.267,68.267
			S93.867,434.2,93.867,434.2V314.733c-0.417-4.226,2.613-8.012,6.827-8.533H189.44L189.44,306.2z"/>
		
			<linearGradient id="SVGID_1_" gradientUnits="userSpaceOnUse" x1="-48.6572" y1="651.2299" x2="-47.5224" y2="650.5392" gradientTransform="matrix(119.4667 0 0 -196.2667 5890.1968 128133.0703)">
			<stop  offset="0" style="stop-color:#DAE5F4"/>
			<stop  offset="0.1717" style="stop-color:#DAE5F4"/>
			<stop  offset="0.2" style="stop-color:#DAE5F4"/>
			<stop  offset="0.2006" style="stop-color:#EBECF4"/>
			<stop  offset="0.2013" style="stop-color:#F6F1F4"/>
			<stop  offset="0.2022" style="stop-color:#FDF4F4"/>
			<stop  offset="0.205" style="stop-color:#FFF5F4"/>
			<stop  offset="0.2522" style="stop-color:#FFF5F4"/>
			<stop  offset="0.26" style="stop-color:#FFF5F4"/>
			<stop  offset="0.26" style="stop-color:#DAE5F4"/>
			<stop  offset="0.3974" style="stop-color:#DAE5F4"/>
			<stop  offset="0.42" style="stop-color:#DAE5F4"/>
			<stop  offset="0.4206" style="stop-color:#EBECF4"/>
			<stop  offset="0.4212" style="stop-color:#F6F1F4"/>
			<stop  offset="0.4222" style="stop-color:#FDF4F4"/>
			<stop  offset="0.425" style="stop-color:#FFF5F4"/>
			<stop  offset="0.4894" style="stop-color:#FFF5F4"/>
			<stop  offset="0.5" style="stop-color:#FFF5F4"/>
			<stop  offset="0.5001" style="stop-color:#EEEEF4"/>
			<stop  offset="0.5002" style="stop-color:#E3E9F4"/>
			<stop  offset="0.5004" style="stop-color:#DCE6F4"/>
			<stop  offset="0.501" style="stop-color:#DAE5F4"/>
			<stop  offset="0.7062" style="stop-color:#DAE5F4"/>
			<stop  offset="0.74" style="stop-color:#DAE5F4"/>
			<stop  offset="0.741" style="stop-color:#FFF5F4"/>
			<stop  offset="0.8346" style="stop-color:#FFF5F4"/>
			<stop  offset="0.85" style="stop-color:#FFF5F4"/>
			<stop  offset="0.851" style="stop-color:#DAE5F4"/>
		</linearGradient>
		<path style="fill:url(#SVGID_1_);" d="M168.96,306.199h29.867c3.299,0,5.973,3.82,5.973,8.533v119.467
			c0,0-11.947,68.267-59.733,68.267s-59.733-68.267-59.733-68.267V314.733c0-4.713,2.674-8.533,5.973-8.533H168.96L168.96,306.199z"
			/>
		<g>
			<rect x="128" y="24.6" style="fill:#D3DFF2;" width="34.133" height="281.6"/>
			<path style="fill:#D3DFF2;" d="M110.933,323.267c0,18.851,15.282,34.133,34.133,34.133s34.133-15.282,34.133-34.133V306.2
				c-0.028-9.414-7.652-17.039-17.067-17.067H128c-9.414,0.028-17.039,7.652-17.067,17.067V323.267z"/>
		</g>
		<path style="fill:#A2C0F5;" d="M452.267,314.733V485.4L435.2,502.467l-12.8-12.8l4.267-4.267V314.733
			c-0.014-4.707-3.826-8.519-8.533-8.533h25.6C448.44,306.214,452.253,310.026,452.267,314.733L452.267,314.733z"/>
		
			<linearGradient id="SVGID_2_" gradientUnits="userSpaceOnUse" x1="-48.76" y1="651.1799" x2="-47.6252" y2="650.4892" gradientTransform="matrix(145.0667 0 0 -196.2667 7340.8628 128133.0703)">
			<stop  offset="0" style="stop-color:#DAE5F4"/>
			<stop  offset="0.1717" style="stop-color:#DAE5F4"/>
			<stop  offset="0.2" style="stop-color:#DAE5F4"/>
			<stop  offset="0.2006" style="stop-color:#EBECF4"/>
			<stop  offset="0.2013" style="stop-color:#F6F1F4"/>
			<stop  offset="0.2022" style="stop-color:#FDF4F4"/>
			<stop  offset="0.205" style="stop-color:#FFF5F4"/>
			<stop  offset="0.2522" style="stop-color:#FFF5F4"/>
			<stop  offset="0.26" style="stop-color:#FFF5F4"/>
			<stop  offset="0.26" style="stop-color:#DAE5F4"/>
			<stop  offset="0.3974" style="stop-color:#DAE5F4"/>
			<stop  offset="0.42" style="stop-color:#DAE5F4"/>
			<stop  offset="0.4206" style="stop-color:#EBECF4"/>
			<stop  offset="0.4212" style="stop-color:#F6F1F4"/>
			<stop  offset="0.4222" style="stop-color:#FDF4F4"/>
			<stop  offset="0.425" style="stop-color:#FFF5F4"/>
			<stop  offset="0.4894" style="stop-color:#FFF5F4"/>
			<stop  offset="0.5" style="stop-color:#FFF5F4"/>
			<stop  offset="0.5001" style="stop-color:#EEEEF4"/>
			<stop  offset="0.5002" style="stop-color:#E3E9F4"/>
			<stop  offset="0.5004" style="stop-color:#DCE6F4"/>
			<stop  offset="0.501" style="stop-color:#DAE5F4"/>
			<stop  offset="0.7062" style="stop-color:#DAE5F4"/>
			<stop  offset="0.74" style="stop-color:#DAE5F4"/>
			<stop  offset="0.741" style="stop-color:#FFF5F4"/>
			<stop  offset="0.8346" style="stop-color:#FFF5F4"/>
			<stop  offset="0.85" style="stop-color:#FFF5F4"/>
			<stop  offset="0.851" style="stop-color:#DAE5F4"/>
		</linearGradient>
		<path style="fill:url(#SVGID_2_);" d="M426.667,314.733V485.4l-4.267,4.267l-4.267-4.267V340.333H384V485.4l-17.067,17.067
			L349.867,485.4V340.333h-34.133V485.4l-17.067,17.067L281.6,485.4V314.733c0.014-4.707,3.826-8.519,8.533-8.533h128
			C422.84,306.214,426.653,310.026,426.667,314.733z"/>
		<path style="fill:#A2C0F5;" d="M119.467,7.533h51.2c9.426,0,17.067,7.641,17.067,17.067l0,0c0,9.426-7.641,17.067-17.067,17.067
			h-51.2c-9.426,0-17.067-7.641-17.067-17.067l0,0C102.4,15.174,110.041,7.533,119.467,7.533z"/>
		<path style="fill:#FFFFFF;" d="M315.733,7.533h76.8c9.426,0,17.067,7.641,17.067,17.067l0,0c0,9.426-7.641,17.067-17.067,17.067
			h-76.8c-9.426,0-17.067-7.641-17.067-17.067l0,0C298.667,15.174,306.308,7.533,315.733,7.533z"/>
		<path style="fill:#7FAAF8;" d="M341.333,7.533h76.8c9.426,0,17.067,7.641,17.067,17.067l0,0c0,9.426-7.641,17.067-17.067,17.067
			h-76.8c-9.426,0-17.067-7.641-17.067-17.067l0,0C324.267,15.174,331.908,7.533,341.333,7.533z"/>
		<path style="fill:#A2C0F5;" d="M341.333,7.533h51.2c9.426,0,17.067,7.641,17.067,17.067l0,0c0,9.426-7.641,17.067-17.067,17.067
			h-51.2c-9.426,0-17.067-7.641-17.067-17.067l0,0C324.267,15.174,331.908,7.533,341.333,7.533z"/>
		<path style="fill:#D3DFF2;" d="M332.8,323.267c0,18.851,15.282,34.133,34.133,34.133c18.851,0,34.133-15.282,34.133-34.133V306.2
			c-0.028-9.414-7.652-17.039-17.067-17.067h-34.133c-9.414,0.028-17.039,7.652-17.067,17.067V323.267z"/>
	</g>
	<g>
		<path style="fill:#438CFF;" d="M145.067,512c74.075,0,93.425-73.983,93.608-74.729c0.173-0.677,0.26-1.372,0.258-2.071V315.733
			c-0.011-9.421-7.645-17.056-17.067-17.067h-35.706c-2.577-7.229-8.266-12.917-15.494-15.494V51.2h25.6
			c14.139,0,25.6-11.462,25.6-25.6S210.405,0,196.267,0h-102.4c-14.138,0-25.6,11.462-25.6,25.6s11.462,25.6,25.6,25.6h25.6v231.972
			c-7.229,2.577-12.917,8.266-15.494,15.494H68.267c-9.421,0.011-17.056,7.645-17.067,17.067v25.6c0,4.713,3.821,8.533,8.533,8.533
			s8.533-3.821,8.533-8.533v-25.6H102.4v8.533c0.028,20.265,14.283,37.724,34.133,41.804v34.996c0,4.713,3.82,8.533,8.533,8.533
			s8.533-3.821,8.533-8.533v-34.996c19.85-4.08,34.105-21.539,34.133-41.804v-8.533h34.133v118.329
			c-2.317,8.079-19.617,60.871-76.8,60.871c-57.217,0-74.508-52.85-76.8-60.871V409.6c0-4.713-3.821-8.533-8.533-8.533
			S51.2,404.887,51.2,409.6v25.6c-0.001,0.698,0.085,1.394,0.258,2.071C51.642,438.017,70.992,512,145.067,512z M85.333,25.6
			c0.005-4.711,3.822-8.529,8.533-8.533h102.4c4.713,0,8.533,3.821,8.533,8.533s-3.821,8.533-8.533,8.533h-102.4
			C89.156,34.129,85.338,30.311,85.333,25.6L85.333,25.6z M153.6,51.2v230.4h-17.067V51.2H153.6z M170.667,324.267
			c0,14.138-11.462,25.6-25.6,25.6s-25.6-11.462-25.6-25.6V307.2c0.005-4.711,3.822-8.529,8.533-8.533h34.133
			c4.711,0.005,8.529,3.822,8.533,8.533V324.267z"/>
		<path style="fill:#438CFF;" d="M292.634,509.5c1.6,1.601,3.77,2.5,6.033,2.5s4.433-0.899,6.033-2.5l17.067-17.067
			c1.6-1.6,2.499-3.77,2.5-6.033V349.867h8.752c2.376,3.141,5.174,5.939,8.315,8.315V486.4c0.001,2.263,0.9,4.433,2.5,6.033
			L360.9,509.5c1.6,1.601,3.77,2.5,6.033,2.5s4.433-0.899,6.033-2.5l17.067-17.067c1.6-1.6,2.499-3.77,2.5-6.033V358.182
			c3.141-2.376,5.939-5.174,8.315-8.315h8.752V486.4c0.001,2.263,0.9,4.433,2.5,6.033l17.067,17.067c1.6,1.601,3.77,2.5,6.033,2.5
			s4.433-0.899,6.033-2.5l17.067-17.067c1.6-1.6,2.499-3.77,2.5-6.033V315.733c-0.011-9.421-7.645-17.056-17.067-17.067h-35.706
			c-2.577-7.229-8.266-12.917-15.494-15.494V51.2h25.6c14.138,0,25.6-11.462,25.6-25.6S432.272,0,418.133,0h-102.4
			c-14.138,0-25.6,11.462-25.6,25.6s11.462,25.6,25.6,25.6h25.6v231.972c-7.229,2.577-12.917,8.266-15.494,15.494h-35.706
			c-9.421,0.011-17.056,7.645-17.067,17.067V486.4c0.001,2.263,0.9,4.433,2.5,6.033L292.634,509.5z M375.467,482.867l-8.533,8.533
			l-8.533-8.533V366.071c5.631,1.15,11.436,1.15,17.067,0V482.867z M443.733,482.867L435.2,491.4l-8.533-8.533V341.333
			c0.001-2.263-0.898-4.434-2.499-6.035c-1.6-1.6-3.771-2.499-6.035-2.499h-9.396c0.573-2.808,0.862-5.667,0.862-8.533v-8.533
			h34.133V482.867z M307.2,25.6c0.005-4.711,3.822-8.529,8.533-8.533h102.4c4.713,0,8.533,3.821,8.533,8.533
			s-3.82,8.533-8.533,8.533h-102.4C311.022,34.129,307.205,30.311,307.2,25.6L307.2,25.6z M375.467,51.2v230.4H358.4V51.2H375.467z
			 M349.867,298.667H384c4.711,0.005,8.529,3.822,8.533,8.533v17.067c0,14.138-11.462,25.6-25.6,25.6
			c-14.138,0-25.6-11.462-25.6-25.6V307.2C341.338,302.489,345.156,298.671,349.867,298.667z M290.133,315.733h34.133v8.533
			c0,2.866,0.289,5.725,0.862,8.533h-9.396c-2.263-0.001-4.434,0.898-6.035,2.499c-1.6,1.6-2.499,3.771-2.499,6.035v141.533
			l-8.533,8.533l-8.533-8.533V315.733z"/>
		<circle style="fill:#438CFF;" cx="59.733" cy="375.467" r="8.533"/>
	</g>
</g>
<g>
</g>
<g>
</g>
<g>
</g>
<g>
</g>
<g>
</g>
<g>
</g>
<g>
</g>
<g>
</g>
<g>
</g>
<g>
</g>
<g>
</g>
<g>
</g>
<g>
</g>
<g>
</g>
<g>
</g>
</svg>
