<?xml version="1.0" encoding="iso-8859-1"?>
<!-- Generator: Adobe Illustrator 19.0.0, SVG Export Plug-In . SVG Version: 6.00 Build 0)  -->
<svg version="1.1" id="Capa_1" xmlns="http://www.w3.org/2000/svg" xmlns:xlink="http://www.w3.org/1999/xlink" x="0px" y="0px"
	 viewBox="0 0 504.155 504.155" style="enable-background:new 0 0 504.155 504.155;" xml:space="preserve">
<path style="fill:#7FAAF8;" d="M184.929,302.463C78.585,337.547,70.107,245.639,70.107,245.639
	c27.635,31.075,67.363,48.674,108.947,48.262C181.211,296.614,183.174,299.475,184.929,302.463L184.929,302.463z"/>
<path style="fill:#D3DFF2;" d="M179.054,293.901c-41.583,0.411-81.311-17.188-108.947-48.262
	C133.729,246.059,166.716,278.206,179.054,293.901z"/>
<path style="fill:#7FAAF8;" d="M323.421,302.948c99.534,51.313,122.307-38.131,122.307-38.131
	c-32.163,26.361-74.158,37.518-115.163,30.596C328.01,297.753,325.623,300.271,323.421,302.948L323.421,302.948z"/>
<g>
	<path style="fill:#D3DFF2;" d="M330.566,295.412c41.005,6.922,83-4.235,115.163-30.596
		C382.826,255.262,345.211,281.844,330.566,295.412z"/>
	<path style="fill:#D3DFF2;" d="M164.119,74.482c13.755-19.008,36.017-29.987,59.47-29.328c0.659,23.453-10.32,45.716-29.328,59.47
		C187.823,91.52,177.222,80.92,164.119,74.482z"/>
	<path style="fill:#D3DFF2;" d="M113.24,71.075c-3.682-23.171,4.298-46.667,21.329-62.803
		c17.031,16.136,25.011,39.632,21.329,62.803C142.074,66.335,127.064,66.335,113.24,71.075L113.24,71.075z"/>
	<path style="fill:#D3DFF2;" d="M197.594,155.651c-0.886,2.837-2.026,5.589-3.407,8.221c18.974,13.743,29.925,35.978,29.254,59.396
		c-23.431,0.652-45.668-10.328-59.396-29.327c-2.646,1.35-5.395,2.489-8.221,3.406c3.677,23.134-4.273,46.595-21.255,62.729
		c-17.02-16.113-24.999-39.581-21.329-62.729c-2.825-0.918-5.574-2.057-8.221-3.406c-13.72,19.009-35.962,29.991-59.396,29.327
		c-0.663-23.434,10.319-45.676,29.328-59.396c-1.35-2.647-2.489-5.395-3.407-8.221c-23.149,3.693-46.629-4.29-62.728-21.329
		c16.121-17.002,39.593-24.955,62.728-21.255c0.918-2.825,2.057-5.574,3.407-8.221c-19-13.728-29.98-35.965-29.328-59.396
		c23.418-0.671,45.653,10.28,59.396,29.254c2.646-1.35,5.395-2.489,8.221-3.406c13.799-4.74,28.785-4.74,42.584,0
		c2.825,0.918,5.574,2.057,8.221,3.406c13.104,6.438,23.704,17.038,30.142,30.142c1.381,2.632,2.521,5.383,3.407,8.221
		c3.536,10.302,4.453,21.323,2.666,32.068c0.658-3.616,0.98-7.285,0.963-10.961c0.007-7.258-1.195-14.466-3.555-21.329
		c23.171-3.681,46.666,4.298,62.803,21.329c-15.671,16.56-38.361,24.555-60.951,21.477h-0.148c-0.57-0.016-1.139-0.065-1.703-0.148
		C197.594,155.577,197.594,155.577,197.594,155.651z"/>
	<path style="fill:#D3DFF2;" d="M372.187,77.015c-3.008-19.178,3.615-38.608,17.71-51.955
		c14.091,13.347,20.687,32.789,17.626,51.955C396.07,73.097,383.64,73.097,372.187,77.015L372.187,77.015z"/>
	<path style="fill:#D3DFF2;" d="M442.021,147.016c-0.727,2.369-1.653,4.671-2.77,6.883c15.698,11.349,24.752,29.739,24.173,49.102
		c-19.402,0.565-37.824-8.52-49.186-24.257c-2.19,1.123-4.463,2.077-6.799,2.854c3.082,19.127-3.484,38.541-17.542,51.871
		c-14.105-13.307-20.732-32.718-17.71-51.871c-2.324-0.807-4.595-1.761-6.799-2.854c-11.354,15.747-29.781,24.835-49.186,24.257
		c-0.512-19.387,8.602-37.771,24.341-49.102c-1.108-2.226-2.062-4.526-2.854-6.883c-19.168,3.088-38.623-3.512-51.955-17.626
		c13.357-14.072,32.802-20.637,51.955-17.542c0.792-2.357,1.746-4.657,2.854-6.883c-15.739-11.331-24.853-29.715-24.341-49.102
		c19.387-0.587,37.806,8.466,49.186,24.173c2.189-1.102,4.463-2.028,6.799-2.77c5.697-1.966,11.684-2.959,17.71-2.938
		c5.972-0.022,11.903,0.972,17.542,2.938c2.347,0.712,4.623,1.639,6.799,2.77c10.854,5.33,19.646,14.092,25.012,24.929
		c1.117,2.212,2.043,4.514,2.77,6.883c1.973,5.637,2.966,11.57,2.938,17.542c0,2.098-0.168,4.281-0.336,6.379
		c0.268-2.144,0.408-4.302,0.42-6.463c0.021-6.026-0.972-12.013-2.938-17.71c19.18-3.035,38.622,3.592,51.955,17.71
		c-12.986,13.676-31.76,20.267-50.445,17.71h-0.084c-0.477,0.012-0.954-0.017-1.427-0.084L442.021,147.016z"/>
	<path style="fill:#D3DFF2;" d="M414.322,79.869c11.392-15.747,29.842-24.83,49.27-24.257c0.507,19.409-8.603,37.816-24.341,49.186
		C433.917,93.966,425.153,85.202,414.322,79.869L414.322,79.869z"/>
</g>
<linearGradient id="SVGID_1_" gradientUnits="userSpaceOnUse" x1="-101.0655" y1="2.1019" x2="-100.3435" y2="2.8319" gradientTransform="matrix(133.6936 0 0 133.1388 13595.877 -194.089)">
	<stop  offset="0" style="stop-color:#DAE5F4"/>
	<stop  offset="0.172" style="stop-color:#DAE5F4"/>
	<stop  offset="0.2" style="stop-color:#DAE5F4"/>
	<stop  offset="0.201" style="stop-color:#EBECF4"/>
	<stop  offset="0.201" style="stop-color:#F6F1F4"/>
	<stop  offset="0.202" style="stop-color:#FDF4F4"/>
	<stop  offset="0.205" style="stop-color:#FFF5F4"/>
	<stop  offset="0.252" style="stop-color:#FFF5F4"/>
	<stop  offset="0.26" style="stop-color:#FFF5F4"/>
	<stop  offset="0.26" style="stop-color:#DAE5F4"/>
	<stop  offset="0.397" style="stop-color:#DAE5F4"/>
	<stop  offset="0.42" style="stop-color:#DAE5F4"/>
	<stop  offset="0.421" style="stop-color:#EBECF4"/>
	<stop  offset="0.421" style="stop-color:#F6F1F4"/>
	<stop  offset="0.422" style="stop-color:#FDF4F4"/>
	<stop  offset="0.425" style="stop-color:#FFF5F4"/>
	<stop  offset="0.489" style="stop-color:#FFF5F4"/>
	<stop  offset="0.5" style="stop-color:#FFF5F4"/>
	<stop  offset="0.5" style="stop-color:#EEEEF4"/>
	<stop  offset="0.5" style="stop-color:#E3E9F4"/>
	<stop  offset="0.5" style="stop-color:#DCE6F4"/>
	<stop  offset="0.501" style="stop-color:#DAE5F4"/>
	<stop  offset="0.706" style="stop-color:#DAE5F4"/>
	<stop  offset="0.74" style="stop-color:#DAE5F4"/>
	<stop  offset="0.741" style="stop-color:#FFF5F4"/>
	<stop  offset="0.835" style="stop-color:#FFF5F4"/>
	<stop  offset="0.85" style="stop-color:#FFF5F4"/>
	<stop  offset="0.851" style="stop-color:#DAE5F4"/>
</linearGradient>
<path style="fill:url(#SVGID_1_);" d="M197.565,113.031c-0.885-2.833-2.024-5.581-3.402-8.21
	c-6.43-13.087-17.017-23.674-30.104-30.104c-2.643-1.348-5.389-2.486-8.211-3.403c-6.854-2.357-14.053-3.557-21.302-3.55
	c-2.355,0.068-4.704,0.264-7.037,0.588c-1.9-0.323-3.819-0.519-5.745-0.588c-5.976,0.006-11.89,1.213-17.39,3.55
	c-2.331,0.931-4.574,2.07-6.702,3.403c-11.24,7.104-19.865,17.67-24.575,30.104c-1.11,2.671-2.038,5.414-2.778,8.21
	c-3.864,13.939-3.864,28.666,0,42.605c0.74,2.796,1.668,5.539,2.778,8.21c4.71,12.434,13.335,23,24.575,30.105
	c2.128,1.332,4.371,2.471,6.702,3.402c5.5,2.337,11.414,3.544,17.39,3.55c1.926-0.068,3.845-0.265,5.745-0.588
	c2.333,0.324,4.683,0.52,7.037,0.588c7.248,0.006,14.447-1.194,21.302-3.55c2.822-0.917,5.567-2.055,8.211-3.402
	c13.087-6.43,23.674-17.017,30.104-30.105c1.379-2.629,2.518-5.377,3.403-8.21C202.298,141.829,202.298,126.838,197.565,113.031
	L197.565,113.031z"/>
<linearGradient id="SVGID_2_" gradientUnits="userSpaceOnUse" x1="-99.0567" y1="2.1831" x2="-98.4897" y2="2.7532" gradientTransform="matrix(133.6936 0 0 133.1388 13595.877 -194.089)">
	<stop  offset="0" style="stop-color:#DAE5F4"/>
	<stop  offset="0.172" style="stop-color:#DAE5F4"/>
	<stop  offset="0.2" style="stop-color:#DAE5F4"/>
	<stop  offset="0.201" style="stop-color:#EBECF4"/>
	<stop  offset="0.201" style="stop-color:#F6F1F4"/>
	<stop  offset="0.202" style="stop-color:#FDF4F4"/>
	<stop  offset="0.205" style="stop-color:#FFF5F4"/>
	<stop  offset="0.252" style="stop-color:#FFF5F4"/>
	<stop  offset="0.26" style="stop-color:#FFF5F4"/>
	<stop  offset="0.26" style="stop-color:#DAE5F4"/>
	<stop  offset="0.397" style="stop-color:#DAE5F4"/>
	<stop  offset="0.42" style="stop-color:#DAE5F4"/>
	<stop  offset="0.421" style="stop-color:#EBECF4"/>
	<stop  offset="0.421" style="stop-color:#F6F1F4"/>
	<stop  offset="0.422" style="stop-color:#FDF4F4"/>
	<stop  offset="0.425" style="stop-color:#FFF5F4"/>
	<stop  offset="0.489" style="stop-color:#FFF5F4"/>
	<stop  offset="0.5" style="stop-color:#FFF5F4"/>
	<stop  offset="0.5" style="stop-color:#EEEEF4"/>
	<stop  offset="0.5" style="stop-color:#E3E9F4"/>
	<stop  offset="0.5" style="stop-color:#DCE6F4"/>
	<stop  offset="0.501" style="stop-color:#DAE5F4"/>
	<stop  offset="0.706" style="stop-color:#DAE5F4"/>
	<stop  offset="0.74" style="stop-color:#DAE5F4"/>
	<stop  offset="0.741" style="stop-color:#FFF5F4"/>
	<stop  offset="0.835" style="stop-color:#FFF5F4"/>
	<stop  offset="0.85" style="stop-color:#FFF5F4"/>
	<stop  offset="0.851" style="stop-color:#DAE5F4"/>
</linearGradient>
<path style="fill:url(#SVGID_2_);" d="M442.012,117.467c-0.701-2.243-1.602-4.419-2.694-6.5
	c-5.091-10.362-13.473-18.744-23.835-23.835c-2.093-1.067-4.266-1.968-6.501-2.694c-5.427-1.866-11.127-2.816-16.866-2.811
	c-1.864,0.054-3.724,0.209-5.572,0.465c-1.504-0.256-3.024-0.411-4.548-0.465c-4.732,0.004-9.414,0.96-13.768,2.811
	c-1.846,0.737-3.622,1.639-5.306,2.694c-8.899,5.625-15.728,13.99-19.457,23.835c-0.879,2.115-1.613,4.286-2.199,6.5
	c-3.059,11.036-3.059,22.696,0,33.732c0.586,2.214,1.32,4.386,2.199,6.5c3.729,9.845,10.558,18.211,19.457,23.835
	c1.685,1.055,3.46,1.956,5.306,2.694c4.355,1.85,9.037,2.806,13.768,2.811c1.525-0.054,3.044-0.21,4.548-0.466
	c1.847,0.256,3.708,0.412,5.572,0.466c5.739,0.005,11.439-0.945,16.866-2.811c2.234-0.726,4.408-1.627,6.501-2.694
	c10.362-5.091,18.744-13.473,23.835-23.835c1.092-2.081,1.993-4.257,2.694-6.5C445.76,140.268,445.76,128.399,442.012,117.467
	L442.012,117.467z"/>
<path style="fill:#FFFFFF;" d="M419.946,369.19v8.393H50.634v-8.393c-0.572-13.325,9.758-24.594,23.082-25.18h323.148
	C410.188,344.597,420.518,355.866,419.946,369.19z"/>
<path style="fill:#A2C0F5;" d="M453.52,369.19v8.393H84.208v-8.393c-0.572-13.325,9.758-24.594,23.082-25.18h323.148
	C443.762,344.597,454.092,355.866,453.52,369.19z"/>
<path style="fill:#D3DFF2;" d="M428.339,369.19v8.393H75.815v-8.393c-0.828-13.023,9.015-24.272,22.033-25.18h308.459
	C419.325,344.919,429.167,356.167,428.339,369.19z"/>
<rect x="42.237" y="377.579" style="fill:#A2C0F5;" width="453.25" height="33.574"/>
<rect x="8.667" y="377.579" style="fill:#FFFFFF;" width="453.25" height="33.574"/>
<rect x="33.848" y="377.579" style="fill:#D3DFF2;" width="436.46" height="33.574"/>
<polygon style="fill:#A2C0F5;" points="50.634,411.158 58.432,495.092 479.296,495.092 487.093,411.158 "/>
<polygon style="fill:#FFFFFF;" points="17.061,411.158 24.858,495.092 445.722,495.092 453.52,411.158 "/>
<linearGradient id="SVGID_3_" gradientUnits="userSpaceOnUse" x1="-99.6517" y1="41.925" x2="-98.4697" y2="71.485" gradientTransform="matrix(419.6721 0 0 83.9344 42718.4922 143.341)">
	<stop  offset="0" style="stop-color:#DAE5F4"/>
	<stop  offset="0.172" style="stop-color:#DAE5F4"/>
	<stop  offset="0.2" style="stop-color:#DAE5F4"/>
	<stop  offset="0.201" style="stop-color:#EBECF4"/>
	<stop  offset="0.201" style="stop-color:#F6F1F4"/>
	<stop  offset="0.202" style="stop-color:#FDF4F4"/>
	<stop  offset="0.205" style="stop-color:#FFF5F4"/>
	<stop  offset="0.252" style="stop-color:#FFF5F4"/>
	<stop  offset="0.26" style="stop-color:#FFF5F4"/>
	<stop  offset="0.26" style="stop-color:#DAE5F4"/>
	<stop  offset="0.397" style="stop-color:#DAE5F4"/>
	<stop  offset="0.42" style="stop-color:#DAE5F4"/>
	<stop  offset="0.421" style="stop-color:#EBECF4"/>
	<stop  offset="0.421" style="stop-color:#F6F1F4"/>
	<stop  offset="0.422" style="stop-color:#FDF4F4"/>
	<stop  offset="0.425" style="stop-color:#FFF5F4"/>
	<stop  offset="0.489" style="stop-color:#FFF5F4"/>
	<stop  offset="0.5" style="stop-color:#FFF5F4"/>
	<stop  offset="0.5" style="stop-color:#EEEEF4"/>
	<stop  offset="0.5" style="stop-color:#E3E9F4"/>
	<stop  offset="0.5" style="stop-color:#DCE6F4"/>
	<stop  offset="0.501" style="stop-color:#DAE5F4"/>
	<stop  offset="0.706" style="stop-color:#DAE5F4"/>
	<stop  offset="0.74" style="stop-color:#DAE5F4"/>
	<stop  offset="0.741" style="stop-color:#FFF5F4"/>
	<stop  offset="0.835" style="stop-color:#FFF5F4"/>
	<stop  offset="0.85" style="stop-color:#FFF5F4"/>
	<stop  offset="0.851" style="stop-color:#DAE5F4"/>
</linearGradient>
<polygon style="fill:url(#SVGID_3_);" points="42.241,411.158 49.736,495.092 454.418,495.092 461.913,411.158 "/>
<path style="fill:#438CFF;" d="M495.487,369.863h-33.574c-0.02-18.534-15.04-33.554-33.574-33.574H327.845
	c0.142-7.243,0.475-14.368,1-21.374c15.557,7.611,32.559,11.814,49.871,12.329c10.289,0.088,20.482-1.987,29.918-6.09
	c34.09-15.021,44.197-52.135,44.607-53.705c0.606-2.293,0.212-4.735-1.082-6.722c-1.295-1.987-3.37-3.333-5.713-3.704
	c-56.399-8.949-93.582,9.546-113.379,24.376c5.206-30.394,15.68-59.645,30.948-86.437c0.52,17.738,8.207,34.509,21.304,46.483
	c0.681,0.377,1.362,0.753,2.043,1.13c1,0.442,2.077,0.682,3.17,0.706l0.002-0.001l0.039,0.008c1.119-0.026,2.222-0.276,3.242-0.737
	c0.232-0.099,0.429-0.24,0.652-0.36c0.475-0.205,0.929-0.455,1.356-0.747c13.285-12.189,20.987-29.295,21.306-47.322
	c12.173,11.598,28.252,18.21,45.063,18.53c1.163,0.011,2.326-0.039,3.483-0.152c0.302-0.077,0.6-0.172,0.891-0.284
	c0.604-0.12,1.193-0.308,1.756-0.561c0.396-0.199,0.775-0.43,1.133-0.693c0.491-0.332,0.945-0.716,1.353-1.146
	c0.703-0.775,1.261-1.671,1.646-2.645c0.148-0.379,0.268-0.769,0.358-1.167c0.113-0.3,0.207-0.607,0.282-0.919
	c0.799-18.029-5.856-35.592-18.404-48.564c18.032-0.317,35.146-8.015,47.346-21.297c0.163-0.204,0.203-0.453,0.345-0.667
	c0.928-1.359,1.408-2.974,1.372-4.62c0.003-0.486-0.037-0.972-0.12-1.451c-0.215-1.045-0.613-2.044-1.177-2.949
	c-0.124-0.279-0.264-0.55-0.42-0.813c-12.202-13.278-29.311-20.976-47.341-21.303c12.544-12.97,19.198-30.531,18.398-48.558
	c-0.029-0.257-0.178-0.46-0.229-0.708c-0.237-1.054-0.653-2.059-1.228-2.973c-0.32-0.465-0.687-0.895-1.096-1.283
	c-0.346-0.352-0.724-0.672-1.127-0.956c-0.926-0.593-1.949-1.02-3.021-1.264c-0.252-0.051-0.456-0.2-0.717-0.229
	c-18.023-0.802-35.581,5.851-48.547,18.396c-0.315-18.032-8.017-35.145-21.305-47.339c-0.207-0.166-0.46-0.207-0.677-0.35
	c-2.731-1.785-6.252-1.813-9.011-0.073c-0.28,0.125-0.553,0.266-0.816,0.423c-13.291,12.19-20.996,29.301-21.315,47.333
	c-12.958-12.555-30.522-19.209-48.546-18.391c-0.249,0.028-0.445,0.171-0.686,0.219c-0.569,0.115-1.124,0.292-1.654,0.528
	c-0.464,0.191-0.91,0.424-1.33,0.697c-1.367,0.9-2.422,2.2-3.022,3.722c-0.192,0.452-0.342,0.92-0.449,1.399
	c-0.107,0.278-0.197,0.561-0.272,0.849c-0.8,18.02,5.85,35.576,18.389,48.543c-18.037,0.299-35.155,8.008-47.332,21.318
	c-0.166,0.206-0.206,0.458-0.348,0.674c-0.582,0.91-0.999,1.916-1.232,2.97c-0.384,2.089,0.03,4.245,1.16,6.043
	c0.124,0.279,0.264,0.55,0.42,0.812c12.202,13.284,29.318,20.982,47.352,21.297c-12.551,12.969-19.209,30.533-18.41,48.564
	c0.064,0.257,0.141,0.51,0.232,0.759c0.577,2.539,2.269,4.681,4.605,5.831c0.477,0.204,0.972,0.362,1.478,0.472
	c0.357,0.144,0.725,0.261,1.1,0.351c1.158,0.112,2.32,0.163,3.483,0.152c6.294-0.061,12.544-1.063,18.542-2.971
	c-17.333,39.964-26.324,83.046-26.423,126.606H193.173c-0.136-10.165-0.534-20.044-1.194-29.636c0.281-0.348,0.533-0.72,0.753-1.11
	c0.916-2.311,0.76-4.909-0.426-7.094c-0.113-0.208-0.536-0.932-1.106-1.862c-2.214-27.394-7.666-54.428-16.243-80.538
	c13.132,9.898,29.062,15.381,45.504,15.662c1.353,0.013,2.706-0.046,4.053-0.176c0.301-0.077,0.597-0.171,0.887-0.283
	c0.607-0.121,1.199-0.31,1.763-0.564c0.408-0.204,0.798-0.442,1.165-0.712c0.861-0.578,1.594-1.325,2.156-2.197
	c0.58-0.883,0.991-1.866,1.21-2.899c0.09-0.249,0.167-0.502,0.232-0.759c0.926-22.46-7.933-44.217-24.285-59.642l0.252,0.015
	c22.405,0.585,43.967-8.558,59.123-25.07c0.165-0.205,0.205-0.457,0.347-0.672c1.814-2.782,1.814-6.373,0-9.156
	c-0.142-0.215-0.182-0.467-0.347-0.672c-15.258-16.543-36.936-25.661-59.431-24.998c16.387-15.428,25.268-37.211,24.341-59.699
	c-0.028-0.258-0.177-0.461-0.227-0.71c-0.115-0.556-0.289-1.099-0.518-1.619c-0.387-0.988-0.989-1.876-1.763-2.601
	c-0.725-0.767-1.612-1.363-2.596-1.746c-0.513-0.225-1.047-0.396-1.595-0.51c-0.251-0.051-0.455-0.199-0.713-0.228
	c-22.488-0.931-44.272,7.951-59.699,24.34c0.656-22.493-8.461-44.168-24.998-59.429c-0.204-0.164-0.456-0.204-0.671-0.346
	c-0.476-0.313-0.984-0.575-1.515-0.782c-0.471-0.198-0.96-0.35-1.46-0.455c-1.044-0.178-2.11-0.181-3.155-0.01
	c-0.532,0.108-1.052,0.269-1.552,0.482c-0.511,0.202-1,0.455-1.46,0.755c-0.22,0.145-0.477,0.187-0.686,0.355
	c-16.537,15.261-25.654,36.936-24.998,59.429C88.892,44.766,67.11,35.885,44.622,36.813c-0.266,0.029-0.476,0.181-0.733,0.234
	c-1.068,0.244-2.086,0.67-3.008,1.261c-0.855,0.621-1.604,1.375-2.218,2.235c-0.577,0.915-0.993,1.922-1.228,2.977
	c-0.05,0.248-0.198,0.45-0.227,0.706c-0.927,22.488,7.955,44.271,24.342,59.7c-22.493-0.655-44.169,8.462-59.432,24.997
	c-0.165,0.205-0.205,0.457-0.347,0.672c-1.814,2.782-1.814,6.373,0,9.156c0.142,0.215,0.182,0.467,0.347,0.672
	c15.154,16.514,36.717,25.657,59.123,25.07l0.252-0.015c-16.351,15.425-25.211,37.182-24.285,59.642
	c0.064,0.257,0.142,0.51,0.232,0.759c0.22,1.033,0.63,2.016,1.211,2.899c0.562,0.871,1.296,1.619,2.156,2.197
	c0.367,0.27,0.757,0.508,1.165,0.712c0.565,0.254,1.156,0.443,1.763,0.564c0.29,0.112,0.586,0.207,0.887,0.283
	c1.347,0.13,2.7,0.189,4.053,0.176c21.065-0.45,41.085-9.261,55.646-24.49c-0.134,12.109,2.376,24.102,7.355,35.141
	c-13.578-3.368-27.511-5.098-41.501-5.152c-2.355,0.061-4.594,1.034-6.246,2.713c-1.603,1.747-2.393,4.09-2.176,6.451
	c0.148,1.619,4.016,39.893,35.176,60.311c13.13,8.313,28.431,12.544,43.967,12.156c11.733-0.149,23.399-1.795,34.715-4.898
	c0.411,7.275,0.67,14.724,0.778,22.345H75.815c-18.533,0.021-33.553,15.04-33.574,33.574H8.667c-4.636,0-8.393,3.758-8.393,8.393
	v33.574c0,4.635,3.758,8.393,8.393,8.393h0.797l7.638,76.377c0.43,4.29,4.04,7.557,8.352,7.557H478.7
	c4.312,0.001,7.924-3.266,8.353-7.557l7.638-76.377h0.796c2.226,0.001,4.361-0.884,5.936-2.458c1.574-1.574,2.458-3.709,2.458-5.936
	v-33.574c0.001-2.226-0.884-4.361-2.458-5.936C499.848,370.746,497.713,369.862,495.487,369.863z M433.528,272.277
	c-6.2,14.66-17.493,26.583-31.795,33.57c-17.557,7.684-39.439,5.734-65.115-5.795C350.024,288.137,381.573,267.141,433.528,272.277z
	 M390.566,37.47c6.187,8.574,9.611,18.831,9.814,29.403c-6.494-1.111-13.129-1.111-19.623,0
	C380.958,56.302,384.38,46.044,390.566,37.47L390.566,37.47z M390.57,222.487c-6.188-8.574-9.611-18.832-9.813-29.404
	c6.494,1.111,13.13,1.111,19.624,0C400.178,203.654,396.756,213.911,390.57,222.487L390.57,222.487z M442.114,167.645
	c7.35,7.612,12.192,17.293,13.873,27.739c-10.449-1.674-20.134-6.512-27.749-13.862
	C433.546,177.633,438.225,172.953,442.114,167.645L442.114,167.645z M453.67,120.164c10.575,0.189,20.84,3.609,29.414,9.801
	c-8.575,6.197-18.838,9.627-29.415,9.83C454.781,133.299,454.781,126.661,453.67,120.164L453.67,120.164z M428.238,78.431
	c7.612-7.357,17.299-12.202,27.751-13.88c-1.685,10.451-6.528,20.136-13.879,27.754C438.222,86.999,433.544,82.32,428.238,78.431
	L428.238,78.431z M339.023,92.307c-7.35-7.613-12.192-17.294-13.875-27.742c10.451,1.676,20.136,6.515,27.751,13.866
	C347.592,82.32,342.912,87,339.023,92.307L339.023,92.307z M327.466,139.803c-10.579-0.199-20.844-3.631-29.415-9.834
	c8.57-6.204,18.837-9.63,29.415-9.816C326.352,126.656,326.352,133.301,327.466,139.803L327.466,139.803z M343.417,129.977
	c0.001-26.04,21.111-47.148,47.15-47.148c26.04,0,47.149,21.109,47.149,47.149s-21.108,47.149-47.148,47.15
	C364.54,177.1,343.446,156.006,343.417,129.977L343.417,129.977z M325.152,195.394c1.68-10.449,6.521-20.132,13.87-27.746
	c3.824,5.217,8.413,9.828,13.611,13.678c-0.208,0.34-0.409,0.684-0.615,1.025C344.548,189.256,335.199,193.794,325.152,195.394z
	 M196.251,176.816c10.373,10.107,16.998,23.443,18.786,37.815c-14.367-1.807-27.698-8.426-37.822-18.778
	C184.647,190.697,191.095,184.25,196.251,176.816L196.251,176.816z M208.34,120.703c14.48-0.172,28.589,4.577,40.018,13.469
	c-11.439,8.872-25.541,13.618-40.016,13.465C210.044,138.739,210.044,129.6,208.34,120.703L208.34,120.703z M177.211,72.492
	c10.107-10.373,23.443-16.999,37.815-18.788c-1.808,14.367-8.427,27.698-18.778,37.823
	C191.091,84.095,184.644,77.648,177.211,72.492z M192.831,134.174c0,32.177-26.085,58.262-58.262,58.262
	s-58.262-26.085-58.262-58.262s26.085-58.262,58.262-58.262C166.731,75.947,192.796,102.011,192.831,134.174L192.831,134.174z
	 M72.887,91.532C62.514,81.425,55.889,68.09,54.101,53.718c14.367,1.805,27.699,8.424,37.822,18.777
	C84.49,77.651,78.042,84.099,72.887,91.532L72.887,91.532z M60.798,147.649c-14.479,0.179-28.589-4.569-40.014-13.466
	c11.44-8.868,25.538-13.614,40.012-13.47C59.093,129.61,59.094,138.751,60.798,147.649L60.798,147.649z M91.925,195.855
	c-10.107,10.37-23.442,16.992-37.812,18.778c1.81-14.363,8.428-27.69,18.777-37.812C78.046,184.253,84.493,190.7,91.925,195.855
	L91.925,195.855z M134.569,209.223c4.517-0.019,9.023-0.446,13.463-1.276c0.169,14.475-4.575,28.579-13.455,40.011
	c-8.864-11.441-13.608-25.538-13.465-40.01C125.55,208.778,130.054,209.204,134.569,209.223z M134.562,20.39
	c8.864,11.441,13.608,25.538,13.465,40.01c-8.893-1.701-18.027-1.701-26.92,0.001C120.938,45.926,125.681,31.822,134.562,20.39
	L134.562,20.39z M106.249,292.723c-12.96-9.244-22.139-22.863-25.844-38.344c16.381,0.939,32.479,4.689,47.588,11.088
	c0.694,0.632,1.195,1.052,1.326,1.158c0.369,0.246,0.758,0.46,1.162,0.642c0.285,0.181,0.58,0.344,0.885,0.489
	c0.955,0.415,1.98,0.647,3.02,0.684c14.288,7.014,26.917,16.991,37.047,29.267C144.204,304.858,122.314,303.186,106.249,292.723z
	 M148.671,257.091c6.133-8.121,10.634-17.354,13.253-27.188c4.211,14.316,7.407,28.911,9.564,43.677
	C164.491,267.287,156.842,261.759,148.671,257.091L148.671,257.091z M75.815,353.076H428.34c9.267,0.011,16.776,7.52,16.787,16.787
	H59.028C59.037,360.595,66.547,353.085,75.815,353.076z M17.061,386.649h470.033v16.787H17.061V386.649z M54.11,487.371
	l67.148-67.148h43.41L97.52,487.371H54.11z M97.52,420.223l-64.715,64.715l-6.47-64.715H97.52z M471.102,487.371H121.257
	l67.148-67.148h289.41L471.102,487.371z"/>
<g>
</g>
<g>
</g>
<g>
</g>
<g>
</g>
<g>
</g>
<g>
</g>
<g>
</g>
<g>
</g>
<g>
</g>
<g>
</g>
<g>
</g>
<g>
</g>
<g>
</g>
<g>
</g>
<g>
</g>
</svg>
