<?xml version="1.0" encoding="iso-8859-1"?>
<!-- Generator: Adobe Illustrator 19.0.0, SVG Export Plug-In . SVG Version: 6.00 Build 0)  -->
<svg version="1.1" id="Capa_1" xmlns="http://www.w3.org/2000/svg" xmlns:xlink="http://www.w3.org/1999/xlink" x="0px" y="0px"
	 viewBox="0 0 512 512" style="enable-background:new 0 0 512 512;" xml:space="preserve">
<g>
	<polygon style="fill:#FFFFFF;" points="145.065,409.6 145.065,418.133 139.373,503.467 82.49,503.467 76.798,418.133 76.798,409.6 
			"/>
	<path style="fill:#FFFFFF;" d="M59.731,384h102.4c4.713,0,8.533,3.82,8.533,8.533V409.6c0,4.713-3.821,8.533-8.533,8.533h-102.4
		c-4.713,0-8.533-3.821-8.533-8.533v-17.067C51.198,387.821,55.018,384,59.731,384z"/>
	<polygon style="fill:#FFFFFF;" points="401.065,409.6 401.065,418.133 395.373,503.467 338.49,503.467 332.798,418.133 
		332.798,409.6 	"/>
	<path style="fill:#FFFFFF;" d="M315.731,384h102.4c4.713,0,8.533,3.82,8.533,8.533V409.6c0,4.713-3.821,8.533-8.533,8.533h-102.4
		c-4.713,0-8.533-3.821-8.533-8.533v-17.067C307.198,387.821,311.019,384,315.731,384z"/>
	<path style="fill:#FFFFFF;" d="M80.467,51.968C70.333,49.311,59.771,54.411,55.55,64c-4.985,10.052-3.652,22.088,3.413,30.805
		c-10.17,3.861-16.733,13.792-16.299,24.661c-0.434,10.87,6.129,20.8,16.299,24.661c-7.065,8.717-8.399,20.753-3.413,30.805
		c4.221,9.589,14.783,14.689,24.917,12.032c-2.618,10.757,1.488,22.033,10.411,28.587c1.034,0.728,2.151,1.329,3.328,1.792
		c-7.136,2.627-15.067,1.971-21.675-1.792c-9.954-5.764-14.868-17.439-12.032-28.587c-11.158,2.858-22.853-2.071-28.599-12.053
		c-5.747-9.982-4.136-22.57,3.938-30.784c-11.091-3.063-18.773-13.155-18.773-24.661s7.682-21.598,18.773-24.661
		c-8.074-8.214-9.684-20.802-3.937-30.784C37.647,54.039,49.342,49.11,60.5,51.968c-2.836-11.148,2.078-22.822,12.032-28.587
		c6.608-3.763,14.539-4.419,21.675-1.792c-1.177,0.463-2.294,1.064-3.328,1.792C81.956,29.935,77.849,41.211,80.467,51.968z"/>
	<path style="fill:#FFFFFF;" d="M127.998,226.987c1.852,1.225,3.902,2.12,6.059,2.645c-1.979,0.512-4.015,0.77-6.059,0.768
		c-4.491-0.005-8.903-1.182-12.8-3.413c-3.586-2.109-6.627-5.032-8.875-8.533c4.395-1.055,8.358-3.438,11.349-6.827
		C119.064,217.861,122.75,223.344,127.998,226.987L127.998,226.987z"/>
	<path style="fill:#FFFFFF;" d="M160.595,211.627c0.303,0.431,0.678,0.806,1.109,1.109c-0.572,0.609-1.234,1.127-1.963,1.536
		C160.077,213.407,160.362,212.524,160.595,211.627z"/>
	<path style="fill:#FFFFFF;" d="M159.742,24.661c0.729,0.409,1.391,0.927,1.963,1.536c-0.431,0.303-0.807,0.678-1.109,1.109
		C160.362,26.409,160.077,25.526,159.742,24.661z"/>
</g>
<path style="fill:#A2C0F5;" d="M220.073,144.128c8.074,8.214,9.685,20.802,3.938,30.785c-5.747,9.982-17.442,14.911-28.6,12.053
	c2.572,9.975-1.085,20.52-9.281,26.76c-8.196,6.24-19.334,6.96-28.265,1.826c0.677-0.347,1.307-0.777,1.877-1.28v-0.085
	c0.727-0.377,1.389-0.867,1.963-1.451c0.743-0.588,1.429-1.245,2.048-1.963c1.361-1.44,2.537-3.046,3.499-4.779
	c0.602-0.934,1.089-1.936,1.451-2.987c0.776-1.955,1.348-3.986,1.707-6.059v-0.171c0.085,0,0.085-0.085,0-0.256
	c0.355-3.196,0.153-6.43-0.597-9.557h0.085c1.864,0.506,3.786,0.765,5.717,0.768c1.084,0.033,2.168-0.024,3.243-0.171
	c0.597-0.085,1.28-0.171,1.877-0.256c0.52-0.073,1.034-0.187,1.536-0.341c1.457-0.277,2.866-0.766,4.181-1.451
	c0.807-0.283,1.58-0.655,2.304-1.109c1.023-0.453,1.972-1.057,2.816-1.792c0.692-0.493,1.348-1.035,1.963-1.621
	c0.639-0.554,1.238-1.153,1.792-1.792c1.139-1.336,2.167-2.763,3.072-4.267c5.723-9.949,4.155-22.486-3.84-30.72l-0.085-0.085h0.085
	c1.297-0.357,2.555-0.843,3.755-1.451c0.085,0.085,0.256,0,0.341-0.171c0.923-0.37,1.809-0.827,2.645-1.365
	c0.487-0.263,0.945-0.578,1.365-0.939c0.853-0.597,1.536-1.195,2.304-1.792l0.341-0.341c0.939-0.939,1.792-1.963,2.645-2.987
	c0.474-0.512,0.875-1.086,1.195-1.707c0.818-1.097,1.479-2.304,1.963-3.584c0.256-0.597,0.512-1.28,0.768-1.963
	c1.82-5.427,1.82-11.299,0-16.725c-0.256-0.683-0.512-1.365-0.768-1.963c-0.484-1.28-1.145-2.487-1.963-3.584
	c-0.319-0.62-0.721-1.194-1.195-1.707c-0.79-1.073-1.675-2.073-2.645-2.987l-0.341-0.341c-0.768-0.597-1.451-1.195-2.304-1.792
	c-0.42-0.361-0.878-0.676-1.365-0.939c-0.836-0.539-1.722-0.996-2.645-1.365c-0.085-0.171-0.256-0.256-0.341-0.171
	c-0.855-0.493-1.774-0.866-2.731-1.109c-0.341-0.085-0.683-0.256-1.024-0.341h-0.085c8.06-8.23,9.664-20.817,3.925-30.805
	c-0.847-1.494-1.848-2.895-2.987-4.181c0-0.023-0.008-0.045-0.024-0.061c-0.016-0.016-0.038-0.025-0.061-0.024
	c-1.102-1.293-2.363-2.44-3.755-3.413c-0.844-0.735-1.793-1.339-2.816-1.792c-0.724-0.455-1.497-0.827-2.304-1.109
	c-1.316-0.685-2.724-1.173-4.181-1.451c-0.245-0.097-0.505-0.155-0.768-0.171c-0.512-0.085-0.939-0.171-1.365-0.256
	c-0.42-0.099-0.849-0.156-1.28-0.171h-0.085c-1.046-0.142-2.102-0.199-3.157-0.171c-1.231-0.009-2.461,0.105-3.669,0.341
	c-0.512,0.085-0.939,0.171-1.365,0.256c-0.256,0.085-0.427,0.085-0.683,0.171h-0.085c0.085-0.256,0.085-0.427,0.171-0.683
	c0.61-2.917,0.754-5.912,0.427-8.875c0.085-0.17,0.085-0.256,0-0.256c-0.358-2.128-0.93-4.215-1.707-6.229
	c-0.362-1.05-0.849-2.053-1.451-2.987c-0.962-1.733-2.137-3.338-3.499-4.779c-0.619-0.718-1.305-1.375-2.048-1.963h-0.085
	c-0.544-0.581-1.178-1.071-1.877-1.451v-0.085h-0.085c-0.276-0.275-0.592-0.505-0.939-0.683l-0.768-0.512
	c0-0.023-0.008-0.045-0.024-0.061s-0.038-0.025-0.061-0.024c8.931-5.134,20.069-4.414,28.265,1.826s11.854,16.785,9.281,26.76
	c11.158-2.857,22.852,2.071,28.599,12.053s4.136,22.57-3.937,30.784c11.091,3.063,18.773,13.155,18.773,24.661
	S231.164,141.065,220.073,144.128z"/>
<g>
	<path style="fill:#D3DFF2;" d="M213.246,119.467c-0.009,2.842-0.47,5.665-1.365,8.363c-0.256,0.683-0.512,1.365-0.768,1.963
		c-0.552,1.248-1.208,2.447-1.963,3.584c-0.319,0.62-0.721,1.194-1.195,1.707c-0.853,1.024-1.707,2.048-2.645,2.987l-0.341,0.341
		c-0.768,0.597-1.451,1.195-2.304,1.792c-0.42,0.361-0.878,0.676-1.365,0.939c-0.836,0.539-1.722,0.996-2.645,1.365
		c-0.085,0.171-0.256,0.256-0.341,0.171c-1.2,0.608-2.458,1.094-3.755,1.451h-0.085l0.085,0.085
		c7.995,8.234,9.563,20.771,3.84,30.72c-0.905,1.504-1.933,2.931-3.072,4.267c-0.554,0.639-1.153,1.238-1.792,1.792
		c-0.615,0.586-1.271,1.128-1.963,1.621c-0.873,0.695-1.817,1.296-2.816,1.792c-0.724,0.454-1.497,0.826-2.304,1.109
		c-1.316,0.685-2.724,1.174-4.181,1.451c-0.502,0.154-1.016,0.268-1.536,0.341c-0.597,0.085-1.28,0.171-1.877,0.256
		c-1.074,0.147-2.159,0.204-3.243,0.171c-1.931-0.003-3.854-0.262-5.717-0.768h-0.085c0.75,3.127,0.952,6.361,0.597,9.557
		c0.085,0.171,0.085,0.256,0,0.256v0.171c-0.359,2.073-0.93,4.103-1.707,6.059c-0.431,1.02-0.915,2.017-1.451,2.987
		c-0.962,1.733-2.137,3.338-3.499,4.779c-0.619,0.717-1.305,1.375-2.048,1.963c-0.431-0.303-0.806-0.678-1.109-1.109
		c-0.233,0.87-0.518,1.725-0.853,2.56v0.085c-0.57,0.503-1.201,0.933-1.877,1.28c-1.911-1.057-3.664-2.378-5.205-3.925
		c-2.467,8.937-9.59,15.831-18.603,18.005c-2.157-0.526-4.207-1.421-6.059-2.645c-5.248-3.642-8.934-9.125-10.325-15.36
		c-2.991,3.388-6.954,5.772-11.349,6.827c-1.304-2.128-2.309-4.425-2.987-6.827c-2.606,2.528-5.718,4.477-9.131,5.717
		c-1.177-0.463-2.294-1.064-3.328-1.792c-8.922-6.554-13.029-17.83-10.411-28.587c-10.134,2.657-20.697-2.443-24.917-12.032
		c-4.985-10.052-3.652-22.088,3.413-30.805c-10.17-3.861-16.733-13.792-16.299-24.661c-0.435-10.87,6.128-20.8,16.299-24.661
		C51.898,86.088,50.565,74.052,55.55,64c4.221-9.589,14.783-14.689,24.917-12.032c-2.618-10.757,1.488-22.033,10.411-28.587
		c1.034-0.728,2.151-1.329,3.328-1.792c3.413,1.24,6.525,3.189,9.131,5.717c0.677-2.402,1.682-4.699,2.987-6.827h0.085
		c2.193-3.516,5.21-6.445,8.789-8.533c3.897-2.232,8.309-3.408,12.8-3.413c2.044-0.002,4.08,0.256,6.059,0.768
		c9.013,2.175,16.135,9.069,18.603,18.005c1.541-1.547,3.294-2.869,5.205-3.925c0.023,0,0.045,0.008,0.061,0.024
		s0.025,0.038,0.024,0.061l0.768,0.512c0.327,0.207,0.641,0.435,0.939,0.683h0.085v0.085c0.7,0.38,1.333,0.869,1.877,1.451h0.085
		c0.743,0.588,1.429,1.245,2.048,1.963c1.362,1.44,2.537,3.046,3.499,4.779c0.535,0.97,1.02,1.966,1.451,2.987
		c0.777,2.014,1.348,4.101,1.707,6.229c0.085,0,0.085,0.085,0,0.256c0.327,2.962,0.183,5.958-0.427,8.875
		c-0.085,0.256-0.085,0.427-0.171,0.683h0.085c0.256-0.085,0.427-0.085,0.683-0.171c0.427-0.085,0.853-0.171,1.365-0.256
		c1.209-0.236,2.438-0.351,3.669-0.341c1.055-0.028,2.111,0.029,3.157,0.171h0.085c0.431,0.015,0.86,0.072,1.28,0.171
		c0.427,0.085,0.853,0.171,1.365,0.256c0.263,0.016,0.523,0.073,0.768,0.171c1.457,0.277,2.866,0.766,4.181,1.451
		c0.807,0.282,1.58,0.655,2.304,1.109c0.999,0.496,1.943,1.097,2.816,1.792c1.391,0.974,2.653,2.121,3.755,3.413l0.085,0.085
		c1.138,1.286,2.139,2.687,2.987,4.181c5.739,9.989,4.135,22.575-3.925,30.805h0.085c0.341,0.085,0.683,0.256,1.024,0.341
		c0.93,0.318,1.842,0.688,2.731,1.109c0.085-0.085,0.256,0,0.341,0.171c0.923,0.369,1.809,0.827,2.645,1.365
		c0.487,0.263,0.945,0.578,1.365,0.939c0.853,0.597,1.536,1.195,2.304,1.792l0.341,0.341c0.939,0.939,1.792,1.963,2.645,2.987
		c0.474,0.512,0.875,1.086,1.195,1.707c0.754,1.137,1.411,2.336,1.963,3.584c0.256,0.597,0.512,1.28,0.768,1.963
		C212.776,113.802,213.236,116.624,213.246,119.467z"/>
	<path style="fill:#D3DFF2;" d="M167.251,205.995c-0.903,1.77-2.085,3.383-3.499,4.779
		C165.114,209.333,166.289,207.728,167.251,205.995L167.251,205.995z"/>
	<path style="fill:#D3DFF2;" d="M167.251,32.939c-0.962-1.733-2.137-3.338-3.499-4.779
		C165.167,29.555,166.348,31.169,167.251,32.939L167.251,32.939z"/>
	<path style="fill:#D3DFF2;" d="M170.409,196.949c-0.255,2.095-0.831,4.138-1.707,6.059
		C169.478,201.053,170.05,199.022,170.409,196.949z"/>
	<path style="fill:#D3DFF2;" d="M170.409,42.155c-0.358-2.128-0.93-4.215-1.707-6.229C169.578,37.905,170.153,40.005,170.409,42.155
		z"/>
	<path style="fill:#D3DFF2;" d="M170.409,196.523c0.355-3.196,0.153-6.43-0.597-9.557h0.085
		C170.702,190.085,170.876,193.335,170.409,196.523z"/>
	<path style="fill:#D3DFF2;" d="M169.811,51.968c0.085-0.256,0.085-0.427,0.171-0.683c0.014,0.231-0.015,0.462-0.085,0.683H169.811z
		"/>
	<path style="fill:#D3DFF2;" d="M169.982,51.285c0.61-2.917,0.754-5.912,0.427-8.875C170.862,45.368,170.717,48.386,169.982,51.285
		L169.982,51.285z"/>
	<path style="fill:#D3DFF2;" d="M194.558,94.805h-0.085c8.06-8.23,9.664-20.817,3.925-30.805c-0.847-1.494-1.848-2.895-2.987-4.181
		c1.211,1.246,2.245,2.653,3.072,4.181C204.222,73.989,202.618,86.575,194.558,94.805z"/>
	<polygon style="fill:#D3DFF2;" points="194.558,144.128 194.558,144.213 194.473,144.128 	"/>
	<path style="fill:#D3DFF2;" d="M198.483,174.933c-0.863,1.553-1.924,2.987-3.157,4.267c1.139-1.336,2.167-2.763,3.072-4.267
		c5.723-9.949,4.155-22.486-3.84-30.72C202.617,152.41,204.222,164.974,198.483,174.933L198.483,174.933z"/>
	<path style="fill:#D3DFF2;" d="M213.331,119.467c0.014,1.458-0.101,2.914-0.341,4.352c-0.101,0.719-0.244,1.431-0.427,2.133
		c-0.151,0.651-0.381,1.281-0.683,1.877c1.82-5.427,1.82-11.299,0-16.725c0.302,0.596,0.531,1.226,0.683,1.877
		c0.183,0.702,0.326,1.415,0.427,2.133C213.231,116.553,213.345,118.009,213.331,119.467L213.331,119.467z"/>
	<path style="fill:#D3DFF2;" d="M103.337,211.627c0.677,2.402,1.682,4.699,2.987,6.827c-2.686,0.668-5.492,0.698-8.192,0.085
		c-1.344-0.268-2.659-0.669-3.925-1.195C97.619,216.104,100.73,214.155,103.337,211.627L103.337,211.627z"/>
	<path style="fill:#D3DFF2;" d="M106.323,20.48c-1.304,2.128-2.309,4.425-2.987,6.827c-2.606-2.529-5.718-4.477-9.131-5.717
		c1.266-0.526,2.581-0.927,3.925-1.195C100.831,19.783,103.637,19.812,106.323,20.48L106.323,20.48z"/>
	<path style="fill:#D3DFF2;" d="M157.865,215.552c0.677-0.347,1.307-0.777,1.877-1.28c-0.485,1.48-1.114,2.909-1.877,4.267
		c-3.586,7.118-10.805,11.679-18.773,11.861c-1.708,0.002-3.405-0.257-5.035-0.768c9.013-2.174,16.135-9.068,18.603-18.005
		C154.201,213.174,155.953,214.495,157.865,215.552L157.865,215.552z"/>
	<path style="fill:#D3DFF2;" d="M157.865,20.395c0.763,1.358,1.392,2.787,1.877,4.267c-0.57-0.503-1.201-0.933-1.877-1.28
		c-1.911,1.057-3.664,2.378-5.205,3.925c-2.467-8.937-9.59-15.831-18.603-18.005c1.629-0.511,3.327-0.77,5.035-0.768
		C147.06,8.716,154.278,13.277,157.865,20.395z"/>
	<path style="fill:#D3DFF2;" d="M128.156,323.703c0,0-13.541-67.703-94.785-67.703C33.371,256,60.453,337.244,128.156,323.703z"/>
	<path style="fill:#D3DFF2;" d="M128.156,323.703c0,0,13.541-67.703,94.785-67.703C222.941,256,195.86,337.244,128.156,323.703z"/>
	<path style="fill:#D3DFF2;" d="M384.156,323.703c0,0-13.541-67.703-94.785-67.703C289.371,256,316.453,337.244,384.156,323.703z"/>
	<path style="fill:#D3DFF2;" d="M384.156,323.703c0,0,13.541-67.703,94.785-67.703C478.942,256,451.86,337.244,384.156,323.703z"/>
</g>
<path style="fill:#A2C0F5;" d="M476.158,144.128c8.074,8.214,9.685,20.802,3.938,30.784s-17.441,14.911-28.599,12.053
	c2.565,9.992-1.109,20.548-9.324,26.789c-8.215,6.24-19.37,6.949-28.308,1.798c9.954-5.764,14.868-17.439,12.032-28.587
	c11.158,2.858,22.853-2.071,28.599-12.053c5.747-9.982,4.136-22.57-3.938-30.784c11.091-3.063,18.773-13.155,18.773-24.661
	s-7.682-21.598-18.773-24.661c8.074-8.214,9.684-20.802,3.937-30.784c-5.746-9.982-17.441-14.911-28.599-12.053
	c2.836-11.148-2.078-22.822-12.032-28.587c8.938-5.151,20.093-4.442,28.308,1.798s11.889,16.797,9.324,26.789
	c11.158-2.857,22.852,2.072,28.599,12.053c5.746,9.982,4.137,22.57-3.937,30.784c11.091,3.063,18.773,13.155,18.773,24.661
	S487.249,141.065,476.158,144.128L476.158,144.128z"/>
<g>
	<path style="fill:#D3DFF2;" d="M450.558,144.128c8.074,8.214,9.685,20.802,3.938,30.784s-17.441,14.911-28.599,12.053
		c2.836,11.148-2.078,22.822-12.032,28.587c-1.911-1.057-3.664-2.378-5.205-3.925c-0.67,2.446-1.706,4.776-3.072,6.912
		c-4.681,7.399-12.833,11.878-21.589,11.861c-11.514,0.022-21.617-7.669-24.661-18.773c-5.944,5.82-14.342,8.397-22.528,6.912
		c-2.915-0.494-5.719-1.505-8.277-2.987c-9.954-5.764-14.868-17.439-12.032-28.587c-11.158,2.858-22.853-2.071-28.599-12.053
		c-5.747-9.982-4.136-22.57,3.938-30.784c-11.091-3.063-18.773-13.155-18.773-24.661s7.682-21.598,18.773-24.661
		c-8.074-8.214-9.684-20.802-3.937-30.784c5.746-9.982,17.441-14.911,28.599-12.053c-2.836-11.148,2.078-22.822,12.032-28.587
		c2.559-1.481,5.362-2.493,8.277-2.987c8.186-1.485,16.584,1.091,22.528,6.912c2.692-9.749,10.875-16.997,20.878-18.492
		s19.948,3.044,25.372,11.58c1.366,2.136,2.402,4.466,3.072,6.912c1.541-1.547,3.294-2.869,5.205-3.925
		c9.954,5.764,14.868,17.439,12.032,28.587c11.158-2.857,22.852,2.072,28.599,12.053c5.746,9.982,4.137,22.57-3.937,30.784
		c11.091,3.063,18.773,13.155,18.773,24.661S461.649,141.065,450.558,144.128L450.558,144.128z"/>
	<path style="fill:#D3DFF2;" d="M413.865,215.552c-2.559,1.481-5.362,2.493-8.277,2.987c1.366-2.136,2.402-4.466,3.072-6.912
		C410.201,213.174,411.953,214.495,413.865,215.552L413.865,215.552z"/>
	<path style="fill:#D3DFF2;" d="M413.865,23.381c-1.911,1.057-3.664,2.378-5.205,3.925c-0.67-2.446-1.706-4.776-3.072-6.912
		C408.503,20.888,411.306,21.9,413.865,23.381L413.865,23.381z"/>
</g>
<linearGradient id="SVGID_1_" gradientUnits="userSpaceOnUse" x1="-97.1613" y1="2.1276" x2="-96.4523" y2="2.8375" gradientTransform="matrix(141.1389 0 0 140.2906 13791.4971 -229.3814)">
	<stop  offset="0" style="stop-color:#DAE5F4"/>
	<stop  offset="0.172" style="stop-color:#DAE5F4"/>
	<stop  offset="0.2" style="stop-color:#DAE5F4"/>
	<stop  offset="0.201" style="stop-color:#EBECF4"/>
	<stop  offset="0.201" style="stop-color:#F6F1F4"/>
	<stop  offset="0.202" style="stop-color:#FDF4F4"/>
	<stop  offset="0.205" style="stop-color:#FFF5F4"/>
	<stop  offset="0.252" style="stop-color:#FFF5F4"/>
	<stop  offset="0.26" style="stop-color:#FFF5F4"/>
	<stop  offset="0.26" style="stop-color:#DAE5F4"/>
	<stop  offset="0.397" style="stop-color:#DAE5F4"/>
	<stop  offset="0.42" style="stop-color:#DAE5F4"/>
	<stop  offset="0.421" style="stop-color:#EBECF4"/>
	<stop  offset="0.421" style="stop-color:#F6F1F4"/>
	<stop  offset="0.422" style="stop-color:#FDF4F4"/>
	<stop  offset="0.425" style="stop-color:#FFF5F4"/>
	<stop  offset="0.489" style="stop-color:#FFF5F4"/>
	<stop  offset="0.5" style="stop-color:#FFF5F4"/>
	<stop  offset="0.5" style="stop-color:#EEEEF4"/>
	<stop  offset="0.5" style="stop-color:#E3E9F4"/>
	<stop  offset="0.5" style="stop-color:#DCE6F4"/>
	<stop  offset="0.501" style="stop-color:#DAE5F4"/>
	<stop  offset="0.706" style="stop-color:#DAE5F4"/>
	<stop  offset="0.74" style="stop-color:#DAE5F4"/>
	<stop  offset="0.741" style="stop-color:#FFF5F4"/>
	<stop  offset="0.835" style="stop-color:#FFF5F4"/>
	<stop  offset="0.85" style="stop-color:#FFF5F4"/>
	<stop  offset="0.851" style="stop-color:#DAE5F4"/>
</linearGradient>
<path style="fill:url(#SVGID_1_);" d="M128.169,48.64c-3.254,0.009-6.504,0.237-9.728,0.683
	c-34.826,4.628-60.842,34.329-60.842,69.461s26.016,64.834,60.842,69.461c3.224,0.446,6.474,0.674,9.728,0.683
	c25.161,0.152,48.476-13.184,61.101-34.949s12.625-48.625,0-70.39S153.33,48.488,128.169,48.64L128.169,48.64z"/>
<linearGradient id="SVGID_2_" gradientUnits="userSpaceOnUse" x1="-95.3415" y1="2.1285" x2="-94.6361" y2="2.8389" gradientTransform="matrix(141.1389 0 0 140.2906 13791.4971 -229.3814)">
	<stop  offset="0" style="stop-color:#DAE5F4"/>
	<stop  offset="0.172" style="stop-color:#DAE5F4"/>
	<stop  offset="0.2" style="stop-color:#DAE5F4"/>
	<stop  offset="0.201" style="stop-color:#EBECF4"/>
	<stop  offset="0.201" style="stop-color:#F6F1F4"/>
	<stop  offset="0.202" style="stop-color:#FDF4F4"/>
	<stop  offset="0.205" style="stop-color:#FFF5F4"/>
	<stop  offset="0.252" style="stop-color:#FFF5F4"/>
	<stop  offset="0.26" style="stop-color:#FFF5F4"/>
	<stop  offset="0.26" style="stop-color:#DAE5F4"/>
	<stop  offset="0.397" style="stop-color:#DAE5F4"/>
	<stop  offset="0.42" style="stop-color:#DAE5F4"/>
	<stop  offset="0.421" style="stop-color:#EBECF4"/>
	<stop  offset="0.421" style="stop-color:#F6F1F4"/>
	<stop  offset="0.422" style="stop-color:#FDF4F4"/>
	<stop  offset="0.425" style="stop-color:#FFF5F4"/>
	<stop  offset="0.489" style="stop-color:#FFF5F4"/>
	<stop  offset="0.5" style="stop-color:#FFF5F4"/>
	<stop  offset="0.5" style="stop-color:#EEEEF4"/>
	<stop  offset="0.5" style="stop-color:#E3E9F4"/>
	<stop  offset="0.5" style="stop-color:#DCE6F4"/>
	<stop  offset="0.501" style="stop-color:#DAE5F4"/>
	<stop  offset="0.706" style="stop-color:#DAE5F4"/>
	<stop  offset="0.74" style="stop-color:#DAE5F4"/>
	<stop  offset="0.741" style="stop-color:#FFF5F4"/>
	<stop  offset="0.835" style="stop-color:#FFF5F4"/>
	<stop  offset="0.85" style="stop-color:#FFF5F4"/>
	<stop  offset="0.851" style="stop-color:#DAE5F4"/>
</linearGradient>
<path style="fill:url(#SVGID_2_);" d="M384.593,48.64c-3.254,0.009-6.504,0.237-9.728,0.683
	c-34.826,4.628-60.842,34.329-60.842,69.461s26.016,64.834,60.842,69.461c3.224,0.446,6.474,0.674,9.728,0.683
	c25.161,0.152,48.476-13.184,61.101-34.949s12.625-48.625,0-70.39S409.754,48.488,384.593,48.64L384.593,48.64z"/>
<polygon style="fill:#A2C0F5;" points="179.198,409.6 179.198,418.133 173.506,503.467 116.623,503.467 110.931,418.133 
	110.931,409.6 "/>
<polygon style="fill:#D3DFF2;" points="153.598,409.6 153.598,418.133 153.001,427.264 147.881,503.467 108.115,503.467 
	106.153,474.112 104.531,449.792 102.398,418.133 102.398,409.6 "/>
<path style="fill:#A2C0F5;" d="M93.865,384h102.4c4.713,0,8.533,3.82,8.533,8.533V409.6c0,4.713-3.821,8.533-8.533,8.533h-102.4
	c-4.713,0-8.533-3.821-8.533-8.533v-17.067C85.331,387.821,89.152,384,93.865,384z"/>
<path style="fill:#D3DFF2;" d="M85.331,384h85.333c4.713,0,8.533,3.82,8.533,8.533V409.6c0,4.713-3.821,8.533-8.533,8.533H85.331
	c-4.713,0-8.533-3.821-8.533-8.533v-17.067C76.798,387.821,80.618,384,85.331,384z"/>
<polygon style="fill:#A2C0F5;" points="435.198,409.6 435.198,418.133 429.506,503.467 372.623,503.467 366.931,418.133 
	366.931,409.6 "/>
<polygon style="fill:#D3DFF2;" points="409.598,409.6 409.598,418.133 409.001,427.264 403.881,503.467 364.115,503.467 
	362.153,474.112 360.531,449.792 358.398,418.133 358.398,409.6 "/>
<path style="fill:#A2C0F5;" d="M349.865,384h102.4c4.713,0,8.533,3.82,8.533,8.533V409.6c0,4.713-3.821,8.533-8.533,8.533h-102.4
	c-4.713,0-8.533-3.821-8.533-8.533v-17.067C341.331,387.821,345.152,384,349.865,384z"/>
<path style="fill:#D3DFF2;" d="M341.331,384h85.333c4.713,0,8.533,3.82,8.533,8.533V409.6c0,4.713-3.82,8.533-8.533,8.533h-85.333
	c-4.713,0-8.533-3.821-8.533-8.533v-17.067C332.798,387.821,336.619,384,341.331,384z"/>
<g>
	<path style="fill:#438CFF;" d="M179.398,504.317l7.765-77.65h9.343c9.422-0.009,17.057-7.645,17.067-17.067v-17.067
		c-0.009-9.422-7.645-17.057-17.067-17.067h-59.817v-42.045c2.067,0.16,4.131,0.311,6.133,0.311
		c49.504,0,78.996-47.379,88.213-75.034c0.867-2.602,0.431-5.463-1.173-7.688s-4.18-3.544-6.923-3.545
		c-45.784,0-71.764,20.325-86.25,39.757v-49.444c7.857-2.085,14.718-6.891,19.363-13.563c10.127,4.805,21.969,4.329,31.678-1.273
		c9.709-5.602,16.047-15.616,16.955-26.789c11.172-0.91,21.184-7.249,26.786-16.957c5.602-9.708,6.079-21.549,1.277-31.676
		c9.216-6.367,14.717-16.853,14.717-28.054s-5.501-21.688-14.717-28.054c4.805-10.127,4.329-21.969-1.273-31.678
		s-15.616-16.047-26.789-16.955c-0.91-11.172-7.249-21.184-16.957-26.786c-9.708-5.602-21.549-6.079-31.676-1.276
		C149.686,5.501,139.199,0,127.998,0S106.31,5.501,99.944,14.717c-10.127-4.805-21.969-4.329-31.678,1.273
		S52.218,31.606,51.31,42.779c-10.545,0.862-20.094,6.564-25.854,15.438s-7.081,19.918-3.575,29.9
		c1.331,3.759,3.284,7.268,5.779,10.379c0.65,0.75,1.408,1.608,2.167,2.363c2.163,2.148,5.308,2.979,8.25,2.18
		s5.234-3.107,6.013-6.054s-0.074-6.086-2.237-8.234c-0.442-0.438-0.875-0.946-0.983-1.058c-1.233-1.556-2.202-3.304-2.867-5.175
		c-2.11-5.963-0.757-12.604,3.516-17.268c4.274-4.664,10.772-6.589,16.896-5.007c2.912,0.733,5.994-0.119,8.117-2.242
		s2.974-5.205,2.242-8.117c-1.923-7.451,1.361-15.27,8.029-19.113c6.667-3.843,15.08-2.765,20.563,2.634
		c2.159,2.114,5.275,2.929,8.192,2.142s5.201-3.058,6.004-5.971c2.044-7.391,8.769-12.508,16.438-12.508s14.393,5.118,16.438,12.508
		c0.803,2.913,3.087,5.184,6.004,5.971c2.917,0.787,6.033-0.028,8.192-2.142c5.484-5.397,13.895-6.473,20.561-2.631
		s9.951,11.659,8.03,19.11c-0.732,2.912,0.119,5.994,2.242,8.117s5.205,2.974,8.117,2.242c7.451-1.923,15.27,1.361,19.113,8.029
		c3.843,6.667,2.765,15.08-2.634,20.563c-2.114,2.159-2.928,5.275-2.142,8.192s3.058,5.201,5.971,6.004
		c7.391,2.044,12.508,8.769,12.508,16.438s-5.118,14.393-12.508,16.438c-2.913,0.803-5.184,3.087-5.971,6.004
		c-0.787,2.917,0.028,6.033,2.142,8.192c5.397,5.484,6.473,13.895,2.631,20.561c-3.842,6.666-11.659,9.951-19.11,8.03
		c-2.912-0.732-5.994,0.119-8.117,2.242s-2.974,5.205-2.242,8.117c1.923,7.451-1.361,15.27-8.029,19.113
		c-6.667,3.843-15.08,2.765-20.563-2.634c-2.159-2.114-5.275-2.928-8.192-2.142c-2.917,0.787-5.201,3.058-6.004,5.971
		c-2.044,7.391-8.769,12.508-16.438,12.508s-14.393-5.118-16.438-12.508c-0.803-2.913-3.087-5.184-6.004-5.971
		s-6.033,0.028-8.192,2.142c-5.484,5.397-13.895,6.473-20.561,2.631c-6.666-3.842-9.951-11.659-8.03-19.11
		c0.732-2.912-0.119-5.994-2.242-8.117c-2.123-2.123-5.205-2.974-8.117-2.242c-7.459,1.884-15.264-1.402-19.129-8.054
		c-2.492-4.336-2.956-9.546-1.271-14.254c0.608-1.73,1.481-3.355,2.587-4.817c0.375-0.438,0.808-0.946,1.25-1.383
		c3.344-3.321,3.362-8.723,0.042-12.067c-3.321-3.344-8.723-3.362-12.067-0.042c-0.758,0.754-1.517,1.613-2.433,2.692
		c-2.371,3.014-4.229,6.399-5.5,10.017c-3.522,9.984-2.211,21.037,3.549,29.921c5.76,8.883,15.316,14.591,25.868,15.45
		c0.91,11.172,7.249,21.184,16.957,26.786c9.708,5.602,21.549,6.079,31.676,1.277c4.706,6.77,11.691,11.62,19.679,13.663v49.344
		c-14.486-19.432-40.466-39.757-86.25-39.757c-2.743,0-5.319,1.319-6.923,3.545c-1.604,2.225-2.04,5.086-1.173,7.689
		c9.217,27.654,38.7,75.034,88.212,75.034c2.001,0,4.066-0.152,6.133-0.311v42.044h-59.65c-9.422,0.009-17.057,7.645-17.067,17.067
		V409.6c0.009,9.422,7.645,17.057,17.067,17.067h9.343l7.765,77.65c0.437,4.362,4.108,7.683,8.491,7.683h85.333
		C175.29,512,178.961,508.679,179.398,504.317z M209.731,265.213c-9.313,18.921-31.654,53.383-70.442,51.342
		C150.715,287.142,178.233,267.085,209.731,265.213L209.731,265.213z M46.465,265.2c31.551,1.829,59.13,21.907,70.563,51.371
		C77.769,318.829,55.64,284.204,46.465,265.2z M59.973,392.533h136.533l0.013,17.067H59.973V392.533z M116.173,426.667
		l-27.004,27.004l-2.7-27.004H116.173z M163.186,494.933H93.294l-1.94-19.4c0.077-0.071,0.178-0.093,0.252-0.167l48.7-48.7h29.705
		L163.186,494.933z"/>
	<path style="fill:#438CFF;" d="M128.156,197.475c43.403-0.241,78.417-35.579,78.256-78.982
		c-0.16-43.404-35.434-78.482-78.838-78.402S49.027,75.38,49.027,118.784C49.197,162.344,84.595,197.547,128.156,197.475
		L128.156,197.475z M128.156,57.158c33.978,0.24,61.35,27.937,61.19,61.916c-0.16,33.978-27.793,61.416-61.771,61.336
		s-61.481-27.648-61.481-61.626C66.254,84.645,94.017,57.077,128.156,57.158z"/>
	<path style="fill:#438CFF;" d="M503.465,119.467c-0.032-11.196-5.521-21.672-14.708-28.071c4.79-10.128,4.305-21.961-1.297-31.664
		s-15.608-16.038-26.774-16.953c-0.915-11.166-7.251-21.172-16.953-26.774s-21.536-6.087-31.664-1.297
		C405.692,5.497,395.201,0,383.998,0s-21.694,5.497-28.071,14.708c-10.128-4.79-21.961-4.305-31.664,1.297
		c-9.702,5.602-16.038,15.608-16.953,26.774c-11.166,0.915-21.172,7.251-26.774,16.953s-6.087,21.536-1.296,31.664
		c-9.212,6.377-14.708,16.867-14.708,28.071s5.497,21.694,14.708,28.071c-4.79,10.128-4.306,21.961,1.296,31.664
		c5.602,9.702,15.608,16.038,26.774,16.953c0.915,11.166,7.251,21.172,16.953,26.774s21.536,6.087,31.664,1.296
		c4.721,6.76,11.709,11.603,19.696,13.652v49.347c-14.486-19.432-40.466-39.757-86.25-39.757c-2.743,0-5.319,1.319-6.923,3.545
		c-1.604,2.225-2.04,5.086-1.173,7.689c9.217,27.654,38.7,75.034,88.212,75.034c2.001,0,4.066-0.152,6.133-0.311v42.044h-59.65
		c-9.422,0.009-17.057,7.645-17.067,17.067V409.6c0.009,9.422,7.645,17.057,17.067,17.067h9.343l7.765,77.65
		c0.437,4.362,4.108,7.683,8.491,7.683h85.333c4.384,0,8.054-3.321,8.492-7.683l7.765-77.65h9.343
		c9.422-0.009,17.057-7.645,17.067-17.067v-17.067c-0.009-9.422-7.645-17.057-17.067-17.067h-59.817v-42.045
		c2.067,0.16,4.131,0.311,6.133,0.311c49.504,0,78.996-47.379,88.213-75.034c0.867-2.602,0.431-5.463-1.173-7.688
		s-4.18-3.544-6.923-3.545c-45.784,0-71.764,20.325-86.25,39.757v-49.447c7.856-2.09,14.72-6.89,19.379-13.551
		c10.128,4.79,21.961,4.305,31.664-1.297c9.702-5.602,16.038-15.608,16.953-26.774c11.166-0.915,21.172-7.251,26.774-16.953
		s6.087-21.536,1.297-31.664C497.943,141.139,503.433,130.662,503.465,119.467z M302.465,265.2
		c31.551,1.829,59.13,21.907,70.563,51.371C333.698,318.829,311.64,284.204,302.465,265.2z M342.469,426.667h29.704l-27.004,27.004
		L342.469,426.667z M419.186,494.933h-69.892l-1.94-19.4c0.077-0.071,0.178-0.093,0.252-0.167l48.7-48.7h29.705L419.186,494.933z
		 M452.519,409.6H315.973v-17.067h136.533L452.519,409.6z M465.731,265.213c-9.313,18.921-31.683,53.383-70.442,51.342
		C406.715,287.142,434.233,267.085,465.731,265.213L465.731,265.213z M473.881,135.958c-2.897,0.816-5.151,3.098-5.929,6.006
		c-0.779,2.908,0.032,6.01,2.134,8.165c5.374,5.489,6.433,13.886,2.592,20.538s-11.643,9.931-19.083,8.021
		c-2.917-0.741-6.009,0.109-8.137,2.238c-2.128,2.128-2.978,5.22-2.238,8.137c1.91,7.44-1.369,15.242-8.021,19.083
		c-6.652,3.841-15.048,2.782-20.538-2.592c-2.155-2.102-5.258-2.913-8.165-2.134c-2.908,0.779-5.19,3.032-6.006,5.929
		c-2.067,7.4-8.809,12.517-16.492,12.517s-14.425-5.117-16.492-12.517c-0.815-2.898-3.097-5.151-6.005-5.93
		c-2.908-0.779-6.011,0.032-8.166,2.134c-5.488,5.373-13.884,6.433-20.535,2.593c-6.652-3.84-9.932-11.641-8.023-19.08
		c0.742-2.918-0.107-6.011-2.236-8.14c-2.128-2.129-5.221-2.98-8.139-2.239c-7.44,1.91-15.242-1.369-19.083-8.021
		s-2.782-15.048,2.592-20.538c2.102-2.155,2.912-5.258,2.134-8.165c-0.779-2.908-3.032-5.19-5.929-6.006
		c-7.4-2.067-12.517-8.809-12.517-16.492s5.117-14.425,12.517-16.492c2.897-0.816,5.151-3.098,5.929-6.006
		c0.779-2.908-0.032-6.01-2.134-8.165c-5.373-5.488-6.433-13.884-2.593-20.535c3.84-6.652,11.641-9.932,19.08-8.023
		c2.919,0.742,6.012-0.108,8.142-2.238c2.129-2.129,2.98-5.223,2.237-8.142c-1.909-7.44,1.371-15.24,8.023-19.08
		s15.047-2.78,20.535,2.593c2.155,2.102,5.258,2.912,8.165,2.134c2.908-0.779,5.19-3.032,6.005-5.929
		c2.067-7.399,8.809-12.517,16.492-12.517s14.425,5.117,16.492,12.517c0.816,2.897,3.098,5.151,6.006,5.929
		c2.908,0.779,6.01-0.032,8.165-2.134c5.489-5.374,13.886-6.433,20.538-2.592s9.931,11.643,8.021,19.083
		c-0.741,2.918,0.11,6.011,2.239,8.139c2.129,2.128,5.222,2.978,8.14,2.236c7.44-1.909,15.24,1.371,19.08,8.023
		s2.78,15.047-2.593,20.535c-2.102,2.155-2.912,5.258-2.134,8.165c0.779,2.908,3.032,5.19,5.929,6.006
		c7.4,2.067,12.517,8.809,12.517,16.492C486.398,127.149,481.281,133.891,473.881,135.958z"/>
	<path style="fill:#438CFF;" d="M384.156,40.092c-43.403,0.241-78.416,35.579-78.256,78.983s35.434,78.482,78.838,78.402
		c43.404-0.08,78.547-35.289,78.547-78.693C463.116,75.222,427.717,40.019,384.156,40.092L384.156,40.092z M384.156,180.408
		c-33.978-0.241-61.35-27.938-61.189-61.916s27.793-61.416,61.771-61.335c33.979,0.08,61.481,27.648,61.481,61.626
		C446.059,152.922,418.296,180.49,384.156,180.408L384.156,180.408z"/>
	<circle style="fill:#438CFF;" cx="17.068" cy="119.47" r="8.533"/>
</g>
<g>
</g>
<g>
</g>
<g>
</g>
<g>
</g>
<g>
</g>
<g>
</g>
<g>
</g>
<g>
</g>
<g>
</g>
<g>
</g>
<g>
</g>
<g>
</g>
<g>
</g>
<g>
</g>
<g>
</g>
</svg>
