<?xml version="1.0" encoding="iso-8859-1"?>
<!-- Generator: Adobe Illustrator 19.0.0, SVG Export Plug-In . SVG Version: 6.00 Build 0)  -->
<svg version="1.1" id="Capa_1" xmlns="http://www.w3.org/2000/svg" xmlns:xlink="http://www.w3.org/1999/xlink" x="0px" y="0px"
	 viewBox="0 0 512 512" style="enable-background:new 0 0 512 512;" xml:space="preserve">
<g>
	<g transform="translate(1)">
		<path style="fill:#FFFFFF;" d="M425.667,375.467V384H50.2v-8.533c-0.582-13.547,9.921-25.004,23.467-25.6H402.2
			C415.746,350.463,426.248,361.92,425.667,375.467z"/>
		<g>
			<path style="fill:#D3DFF2;" d="M374.467,290.133c0,0,8.533-42.667,59.733-42.667C434.2,247.467,417.133,298.667,374.467,290.133z
				"/>
			<path style="fill:#D3DFF2;" d="M374.467,290.133c0,0-8.533-42.667-59.733-42.667C314.733,247.467,331.8,298.667,374.467,290.133z
				"/>
			<path style="fill:#D3DFF2;" d="M135.533,290.133c0,0,8.533-42.667,59.733-42.667C195.267,247.467,178.2,298.667,135.533,290.133z
				"/>
			<path style="fill:#D3DFF2;" d="M135.533,290.133c0,0-8.533-42.667-59.733-42.667C75.8,247.467,92.867,298.667,135.533,290.133z"
				/>
			<circle style="fill:#D3DFF2;" cx="135.533" cy="24.235" r="17.067"/>
			<circle style="fill:#D3DFF2;" cx="135.533" cy="177.835" r="17.067"/>
			<circle style="fill:#D3DFF2;" cx="97.133" cy="34.526" r="17.067"/>
			<circle style="fill:#D3DFF2;" cx="173.933" cy="167.544" r="17.067"/>
			<circle style="fill:#D3DFF2;" cx="69.025" cy="62.635" r="17.067"/>
			<circle style="fill:#D3DFF2;" cx="202.042" cy="139.435" r="17.067"/>
			<circle style="fill:#D3DFF2;" cx="58.733" cy="101.035" r="17.067"/>
			<circle style="fill:#D3DFF2;" cx="212.333" cy="101.035" r="17.067"/>
			<circle style="fill:#D3DFF2;" cx="69.025" cy="139.435" r="17.067"/>
			<circle style="fill:#D3DFF2;" cx="202.042" cy="62.635" r="17.067"/>
			<circle style="fill:#D3DFF2;" cx="97.133" cy="167.544" r="17.067"/>
			<circle style="fill:#D3DFF2;" cx="173.933" cy="34.526" r="17.067"/>
			<circle style="fill:#D3DFF2;" cx="374.467" cy="24.235" r="17.067"/>
			<circle style="fill:#D3DFF2;" cx="374.467" cy="177.835" r="17.067"/>
			<circle style="fill:#D3DFF2;" cx="336.067" cy="34.526" r="17.067"/>
			<circle style="fill:#D3DFF2;" cx="412.867" cy="167.544" r="17.067"/>
			<circle style="fill:#D3DFF2;" cx="307.992" cy="62.635" r="17.067"/>
			<circle style="fill:#D3DFF2;" cx="440.975" cy="139.435" r="17.067"/>
			<circle style="fill:#D3DFF2;" cx="297.667" cy="101.035" r="17.067"/>
			<circle style="fill:#D3DFF2;" cx="451.267" cy="101.035" r="17.067"/>
			<circle style="fill:#D3DFF2;" cx="307.992" cy="139.435" r="17.067"/>
			<circle style="fill:#D3DFF2;" cx="440.975" cy="62.635" r="17.067"/>
			<circle style="fill:#D3DFF2;" cx="336.067" cy="167.544" r="17.067"/>
			<circle style="fill:#D3DFF2;" cx="412.867" cy="34.526" r="17.067"/>
		</g>
		<g>
			<path style="fill:#A2C0F5;" d="M195.267,101.035c0.004,15.844-6.288,31.04-17.491,42.243s-26.399,17.495-42.243,17.491
				c-5.035-0.009-10.051-0.635-14.933-1.867c-26.376-6.825-44.8-30.622-44.8-57.867s18.424-51.042,44.8-57.867
				c4.883-1.231,9.898-1.858,14.933-1.867c15.844-0.004,31.04,6.288,42.243,17.491C188.979,69.995,195.271,85.191,195.267,101.035
				L195.267,101.035z"/>
			<path style="fill:#A2C0F5;" d="M432.835,101.035c-0.009,32.223-26.134,58.34-58.358,58.337s-58.345-26.124-58.348-58.348
				s26.114-58.349,58.337-58.358c15.48,0,30.326,6.149,41.273,17.095S432.835,85.554,432.835,101.035z"/>
		</g>
		<g>
			<ellipse style="fill:#D3DFF2;" cx="122.733" cy="101.035" rx="46.933" ry="57.865"/>
			<ellipse style="fill:#D3DFF2;" cx="362.349" cy="101.035" rx="46.251" ry="56.431"/>
		</g>
		<path style="fill:#A2C0F5;" d="M459.8,375.467V384H84.333v-8.533c-0.582-13.547,9.921-25.004,23.467-25.6h328.533
			C449.879,350.463,460.382,361.92,459.8,375.467z"/>
		<path style="fill:#D3DFF2;" d="M434.2,375.467V384H75.8v-8.533c-0.841-13.241,9.165-24.676,22.4-25.6h313.6
			C425.035,350.79,435.042,362.226,434.2,375.467z"/>
		<rect x="41.667" y="384" style="fill:#A2C0F5;" width="460.8" height="34.133"/>
		<rect x="7.533" y="384" style="fill:#FFFFFF;" width="460.8" height="34.133"/>
		<rect x="33.133" y="384" style="fill:#D3DFF2;" width="443.733" height="34.133"/>
		<polygon style="fill:#A2C0F5;" points="50.2,418.133 58.127,503.467 486.006,503.467 493.933,418.133 		"/>
		<polygon style="fill:#FFFFFF;" points="16.067,418.133 23.994,503.467 451.873,503.467 459.8,418.133 		"/>
		
			<linearGradient id="SVGID_1_" gradientUnits="userSpaceOnUse" x1="-49.6807" y1="652.3934" x2="-49.0896" y2="649.4381" gradientTransform="matrix(426.6667 0 0 -85.3333 21325.9922 56001.8047)">
			<stop  offset="0" style="stop-color:#DAE5F4"/>
			<stop  offset="0.1717" style="stop-color:#DAE5F4"/>
			<stop  offset="0.2" style="stop-color:#DAE5F4"/>
			<stop  offset="0.2006" style="stop-color:#EBECF4"/>
			<stop  offset="0.2013" style="stop-color:#F6F1F4"/>
			<stop  offset="0.2022" style="stop-color:#FDF4F4"/>
			<stop  offset="0.205" style="stop-color:#FFF5F4"/>
			<stop  offset="0.2522" style="stop-color:#FFF5F4"/>
			<stop  offset="0.26" style="stop-color:#FFF5F4"/>
			<stop  offset="0.26" style="stop-color:#DAE5F4"/>
			<stop  offset="0.3974" style="stop-color:#DAE5F4"/>
			<stop  offset="0.42" style="stop-color:#DAE5F4"/>
			<stop  offset="0.4206" style="stop-color:#EBECF4"/>
			<stop  offset="0.4212" style="stop-color:#F6F1F4"/>
			<stop  offset="0.4222" style="stop-color:#FDF4F4"/>
			<stop  offset="0.425" style="stop-color:#FFF5F4"/>
			<stop  offset="0.4894" style="stop-color:#FFF5F4"/>
			<stop  offset="0.5" style="stop-color:#FFF5F4"/>
			<stop  offset="0.5001" style="stop-color:#EEEEF4"/>
			<stop  offset="0.5002" style="stop-color:#E3E9F4"/>
			<stop  offset="0.5004" style="stop-color:#DCE6F4"/>
			<stop  offset="0.501" style="stop-color:#DAE5F4"/>
			<stop  offset="0.7062" style="stop-color:#DAE5F4"/>
			<stop  offset="0.74" style="stop-color:#DAE5F4"/>
			<stop  offset="0.741" style="stop-color:#FFF5F4"/>
			<stop  offset="0.8346" style="stop-color:#FFF5F4"/>
			<stop  offset="0.85" style="stop-color:#FFF5F4"/>
			<stop  offset="0.851" style="stop-color:#DAE5F4"/>
		</linearGradient>
		<polygon style="fill:url(#SVGID_1_);" points="41.667,418.133 49.287,503.467 460.713,503.467 468.333,418.133 		"/>
	</g>
	<path style="fill:#438CFF;" d="M503.467,375.467h-34.133c-0.022-18.842-15.291-34.112-34.133-34.133H384v-41.756
		c0.254,0.004,0.522,0.039,0.775,0.039c32.925,0,52.442-31.213,58.521-49.45c0.866-2.602,0.429-5.462-1.175-7.687
		s-4.178-3.544-6.921-3.546c-19.016-0.732-37.508,6.327-51.2,19.544v-55.25c6.659-2.353,12.053-7.348,14.908-13.808
		c8.138,6.05,19.096,6.678,27.873,1.598c8.776-5.081,13.689-14.896,12.495-24.966c10.149,1.924,20.332-3.173,24.874-12.451
		c5.036-8.765,4.444-19.673-1.509-27.843c9.254-4.082,15.226-13.243,15.226-23.358c0-10.115-5.971-19.275-15.226-23.358
		c5.975-8.162,6.566-19.083,1.508-27.843s-14.811-13.708-24.867-12.614c1.093-10.056-3.855-19.81-12.615-24.868
		c-8.76-5.058-19.681-4.467-27.844,1.507C394.742,5.971,385.581,0,375.467,0c-10.114,0-19.275,5.971-23.357,15.225
		c-8.163-5.974-19.083-6.566-27.844-1.507c-8.76,5.058-13.708,14.811-12.615,24.868c-10.056-1.093-19.809,3.854-24.867,12.614
		s-4.466,19.68,1.508,27.843c-9.254,4.082-15.226,13.243-15.226,23.358s5.972,19.275,15.226,23.357
		c-5.686,7.78-6.513,18.096-2.139,26.682c4.374,8.586,13.206,13.982,22.842,13.956c0.893-0.069,1.781-0.184,2.661-0.345
		c-1.256,10.092,3.645,19.956,12.446,25.051c8.801,5.095,19.796,4.432,27.921-1.684c2.855,6.46,8.249,11.456,14.909,13.809v55.251
		c-13.692-13.217-32.184-20.276-51.2-19.544c-2.743,0.002-5.317,1.321-6.921,3.546s-2.041,5.085-1.175,7.687
		c6.079,18.237,25.591,49.45,58.521,49.45c0.253,0,0.521-0.035,0.775-0.039v41.756H145.067v-41.756
		c0.254,0.004,0.522,0.039,0.775,0.039c32.925,0,52.442-31.213,58.521-49.45c0.866-2.602,0.429-5.462-1.175-7.687
		s-4.178-3.544-6.921-3.546c-19.016-0.732-37.508,6.327-51.2,19.544v-55.25c6.659-2.353,12.053-7.348,14.908-13.808
		c8.138,6.05,19.096,6.678,27.873,1.598c8.777-5.081,13.689-14.896,12.495-24.966c10.149,1.924,20.332-3.173,24.874-12.451
		c5.036-8.765,4.444-19.673-1.509-27.843c9.254-4.082,15.226-13.243,15.226-23.358c0-10.115-5.971-19.275-15.226-23.358
		c5.975-8.162,6.566-19.083,1.508-27.843c-5.058-8.76-14.811-13.708-24.867-12.614c1.093-10.056-3.854-19.81-12.615-24.868
		c-8.76-5.058-19.681-4.467-27.843,1.508C155.809,5.971,146.648,0,136.534,0s-19.275,5.971-23.358,15.225
		c-8.163-5.974-19.083-6.566-27.844-1.508S71.625,28.529,72.718,38.585c-10.056-1.093-19.809,3.854-24.867,12.614
		s-4.466,19.68,1.508,27.843c-9.254,4.082-15.226,13.243-15.226,23.358s5.972,19.275,15.226,23.357
		c-5.686,7.78-6.513,18.096-2.139,26.682c4.374,8.586,13.206,13.982,22.842,13.956c0.893-0.069,1.781-0.184,2.661-0.345
		c-1.256,10.092,3.645,19.956,12.446,25.051c8.801,5.095,19.796,4.432,27.921-1.684c2.855,6.46,8.249,11.456,14.909,13.809v55.251
		c-13.692-13.217-32.184-20.276-51.2-19.544c-2.743,0.002-5.317,1.321-6.921,3.546s-2.041,5.085-1.175,7.687
		c6.079,18.237,25.591,49.45,58.521,49.45c0.253,0,0.521-0.035,0.775-0.039v41.756H76.8c-18.842,0.022-34.112,15.291-34.133,34.133
		H8.533C3.821,375.467,0,379.287,0,384v34.133c0,4.713,3.821,8.533,8.533,8.533h0.81l7.765,77.65
		C17.546,508.679,21.216,512,25.6,512h460.8c4.384,0,8.055-3.321,8.492-7.683l7.765-77.65h0.81c4.713,0,8.533-3.82,8.533-8.533V384
		C512,379.287,508.18,375.467,503.467,375.467z M421.129,257.338c-6.546,13.352-19.159,22.701-33.837,25.079
		C393.95,269.16,406.508,259.852,421.129,257.338L421.129,257.338z M329.721,257.346c14.58,2.603,27.098,11.889,33.817,25.088
		C348.838,280.111,336.206,270.74,329.721,257.346L329.721,257.346z M375.467,187.733c-4.713,0-8.533-3.821-8.533-8.533
		c0-4.713,3.82-8.533,8.533-8.533S384,174.487,384,179.2C383.994,183.91,380.177,187.727,375.467,187.733L375.467,187.733z
		 M452.267,110.933c-4.713,0-8.533-3.821-8.533-8.533c0-4.713,3.821-8.533,8.533-8.533c4.713,0,8.533,3.821,8.533,8.533
		C460.794,107.11,456.977,110.927,452.267,110.933z M426.667,102.4c0,20.708-12.474,39.378-31.607,47.303
		c-19.132,7.925-41.154,3.544-55.797-11.099c-14.643-14.643-19.024-36.665-11.099-55.797c7.925-19.132,26.594-31.607,47.303-31.607
		C403.731,51.231,426.636,74.136,426.667,102.4L426.667,102.4z M298.667,93.867c4.713,0,8.533,3.821,8.533,8.533
		c0,4.713-3.821,8.533-8.533,8.533c-4.713,0-8.533-3.821-8.533-8.533C290.139,97.69,293.956,93.873,298.667,93.867z M418.133,176.3
		c-4.076,2.3-9.244,0.889-11.584-3.165c-2.34-4.053-0.979-9.235,3.051-11.615c1.292-0.752,2.759-1.149,4.254-1.15
		c0.75,0.002,1.496,0.101,2.221,0.296c3.332,0.895,5.797,3.709,6.248,7.13C422.773,171.217,421.12,174.573,418.133,176.3z
		 M449.367,145.067c-1.728,2.987-5.083,4.64-8.504,4.189c-3.421-0.45-6.234-2.916-7.129-6.247c-0.999-3.731,0.632-7.667,3.976-9.598
		c3.345-1.931,7.569-1.375,10.3,1.356C450.741,137.497,451.298,141.722,449.367,145.067z M449.367,59.733
		c1.934,3.344,1.381,7.571-1.348,10.305c-2.729,2.734-6.955,3.295-10.302,1.366c-3.348-1.928-4.983-5.864-3.987-9.597
		c0.996-3.733,4.374-6.331,8.237-6.336C445.018,55.467,447.839,57.092,449.367,59.733z M406.479,31.621
		c2.358-4.081,7.577-5.478,11.658-3.121c4.081,2.358,5.478,7.577,3.121,11.658s-7.577,5.478-11.658,3.121
		c-1.962-1.13-3.393-2.995-3.979-5.182C405.036,35.91,405.345,33.58,406.479,31.621L406.479,31.621z M375.467,17.067
		c4.713,0,8.533,3.821,8.533,8.533s-3.82,8.533-8.533,8.533s-8.533-3.821-8.533-8.533C366.939,20.89,370.756,17.073,375.467,17.067z
		 M332.8,28.5c2.99-1.729,6.727-1.487,9.468,0.615c2.741,2.101,3.946,5.647,3.052,8.983c-0.893,3.336-3.709,5.805-7.133,6.256
		s-6.782-1.207-8.508-4.199c-1.148-1.955-1.464-4.29-0.878-6.48S330.828,29.62,332.8,28.5L332.8,28.5z M301.567,59.733
		c1.726-2.99,5.082-4.645,8.505-4.195c3.422,0.451,6.236,2.919,7.129,6.253c0.893,3.334-0.311,6.878-3.05,8.979
		c-2.739,2.101-6.474,2.344-9.463,0.617c-1.96-1.131-3.39-2.995-3.975-5.18C300.127,64.021,300.435,61.693,301.567,59.733
		L301.567,59.733z M301.567,145.067c-1.729-2.99-1.487-6.727,0.615-9.468c2.101-2.741,5.647-3.946,8.983-3.052
		c3.336,0.893,5.805,3.709,6.255,7.133c0.45,3.424-1.207,6.782-4.199,8.508C309.14,150.54,303.925,149.144,301.567,145.067z
		 M344.454,173.179c-1.933,3.341-5.868,4.967-9.596,3.966c-3.728-1.001-6.319-4.38-6.319-8.239c0-3.86,2.591-7.238,6.319-8.239
		c0.724-0.194,1.471-0.294,2.221-0.296c3.046,0.009,5.857,1.64,7.377,4.28C345.976,167.291,345.975,170.54,344.454,173.179
		L344.454,173.179z M182.196,257.338c-6.546,13.352-19.159,22.701-33.837,25.079C155.017,269.16,167.575,259.852,182.196,257.338
		L182.196,257.338z M90.788,257.346c14.58,2.603,27.097,11.889,33.817,25.088C109.905,280.111,97.273,270.74,90.788,257.346
		L90.788,257.346z M136.533,187.733c-4.713,0-8.533-3.821-8.533-8.533c0-4.713,3.821-8.533,8.533-8.533
		c4.713,0,8.533,3.821,8.533,8.533C145.061,183.91,141.244,187.727,136.533,187.733L136.533,187.733z M213.333,110.933
		c-4.713,0-8.533-3.821-8.533-8.533c0-4.713,3.821-8.533,8.533-8.533c4.713,0,8.533,3.821,8.533,8.533
		C221.861,107.11,218.044,110.927,213.333,110.933z M187.733,102.4c0,28.277-22.923,51.2-51.2,51.2s-51.2-22.923-51.2-51.2
		s22.923-51.2,51.2-51.2C164.798,51.231,187.702,74.136,187.733,102.4z M59.733,93.867c4.713,0,8.533,3.821,8.533,8.533
		c0,4.713-3.821,8.533-8.533,8.533S51.2,107.113,51.2,102.4C51.206,97.69,55.023,93.873,59.733,93.867L59.733,93.867z M179.2,176.3
		c-3.106,1.787-6.997,1.444-9.742-0.859c-2.745-2.303-3.758-6.076-2.537-9.445c1.221-3.369,4.417-5.616,8-5.625
		c0.75,0.002,1.496,0.101,2.221,0.296c3.332,0.895,5.797,3.709,6.248,7.13C183.84,171.217,182.187,174.573,179.2,176.3L179.2,176.3z
		 M210.433,145.067c-1.728,2.987-5.083,4.64-8.504,4.189c-3.421-0.45-6.234-2.916-7.129-6.247c-0.999-3.731,0.632-7.667,3.976-9.598
		c3.345-1.931,7.569-1.375,10.3,1.356S212.364,141.722,210.433,145.067z M210.433,59.733c1.934,3.344,1.381,7.571-1.348,10.305
		c-2.729,2.734-6.955,3.295-10.302,1.366c-3.348-1.928-4.983-5.864-3.987-9.597c0.996-3.733,4.374-6.331,8.237-6.336
		C206.085,55.467,208.906,57.092,210.433,59.733z M167.546,31.621c2.358-4.081,7.577-5.478,11.658-3.121
		c4.081,2.358,5.478,7.577,3.121,11.658c-2.358,4.081-7.577,5.478-11.658,3.121c-1.962-1.13-3.394-2.994-3.98-5.181
		C166.101,35.91,166.41,33.58,167.546,31.621L167.546,31.621z M136.533,17.067c4.713,0,8.533,3.821,8.533,8.533
		s-3.821,8.533-8.533,8.533c-4.713,0-8.533-3.821-8.533-8.533C128.006,20.89,131.823,17.073,136.533,17.067z M93.867,28.5
		c2.99-1.729,6.727-1.487,9.468,0.615s3.946,5.647,3.052,8.983s-3.709,5.805-7.133,6.256s-6.782-1.207-8.508-4.199
		c-1.148-1.955-1.464-4.29-0.878-6.48S91.895,29.62,93.867,28.5L93.867,28.5z M62.633,59.733c1.726-2.99,5.082-4.645,8.505-4.195
		c3.422,0.451,6.236,2.919,7.129,6.253c0.893,3.334-0.311,6.878-3.05,8.979c-2.739,2.101-6.474,2.344-9.463,0.617
		c-1.96-1.131-3.39-2.995-3.975-5.18C61.194,64.021,61.501,61.693,62.633,59.733L62.633,59.733z M62.633,145.067
		c-1.729-2.99-1.487-6.727,0.615-9.468c2.101-2.741,5.647-3.946,8.983-3.052s5.805,3.709,6.256,7.133
		c0.45,3.424-1.207,6.782-4.199,8.508C70.207,150.54,64.992,149.144,62.633,145.067z M105.521,173.179
		c-1.933,3.341-5.868,4.967-9.596,3.966c-3.728-1.001-6.319-4.38-6.319-8.239c0-3.86,2.591-7.238,6.319-8.239
		c0.724-0.194,1.471-0.294,2.221-0.296c3.046,0.009,5.857,1.64,7.377,4.28C107.043,167.291,107.042,170.54,105.521,173.179
		L105.521,173.179z M76.8,358.4h358.4c9.422,0.009,17.057,7.645,17.067,17.067H59.733C59.743,366.045,67.378,358.409,76.8,358.4
		L76.8,358.4z M17.067,392.533h477.867V409.6H17.067V392.533z M54.733,494.933L123,426.667h44.133l-68.267,68.267H54.733z
		 M98.867,426.667L33.073,492.46l-6.577-65.793H98.867z M478.679,494.933H123l68.267-68.267h294.237L478.679,494.933z"/>
</g>
<g>
</g>
<g>
</g>
<g>
</g>
<g>
</g>
<g>
</g>
<g>
</g>
<g>
</g>
<g>
</g>
<g>
</g>
<g>
</g>
<g>
</g>
<g>
</g>
<g>
</g>
<g>
</g>
<g>
</g>
</svg>
